<svg width="328" height="188" viewBox="0 0 328 188" fill="none" xmlns="http://www.w3.org/2000/svg">
<rect x="0.5" y="0.5" width="327" height="187" fill="#F8FAFC"/>
<rect x="0.5" y="0.5" width="327" height="187" stroke="#3966AE"/>
<path d="M17.0723 34.5V21.7734H19.709V27.416H19.8848L24.5078 21.7734H27.6895L22.9434 27.4688L27.7422 34.5H24.5781L21.0449 29.2441L19.709 30.8613V34.5H17.0723ZM31.4645 21.7734V34.5H28.8278V21.7734H31.4645ZM33.4291 21.7734H36.6986L40.2318 30.4043H40.3724L43.9056 21.7734H47.1752V34.5H44.6087V26.168H44.5033L41.181 34.4473H39.4232L36.1009 26.1328H35.9955V34.5H33.4291V21.7734Z" fill="#282930"/>
<rect x="57" y="16" width="62" height="24" rx="4" fill="#282930"/>
<path d="M72.8359 24.2305V25.1328H67.6211V24.2305H69.6836V22.8008H70.7852V24.2305H72.8359ZM67.9609 28.1797C67.9551 26.7676 68.916 25.7656 70.2344 25.7656C71.5645 25.7656 72.5137 26.7676 72.5195 28.1797C72.5137 29.6152 71.5645 30.623 70.2344 30.6172C68.916 30.623 67.9551 29.6152 67.9609 28.1797ZM68.9453 28.1797C68.9395 29.0703 69.4785 29.668 70.2344 29.668C70.9902 29.668 71.5352 29.0703 71.5352 28.1797C71.5352 27.3066 70.9902 26.6973 70.2344 26.6914C69.4785 26.6973 68.9395 27.3066 68.9453 28.1797ZM73.3164 32.5039V22.7305H74.3711V26.8672H75.5781V22.4961H76.6328V32.9961H75.5781V27.7812H74.3711V32.5039H73.3164ZM81.4375 23.1641C83.0957 23.1641 84.291 24.1836 84.2969 25.6602C84.291 26.9668 83.3535 27.916 81.9883 28.1152V29.7734C82.9785 29.7266 83.9863 29.6387 84.9297 29.5039L85.0117 30.3125C82.6387 30.752 80.0898 30.7637 78.2148 30.7695L78.0742 29.8555C78.9004 29.8555 79.8613 29.8496 80.875 29.8203V28.1152C79.5156 27.9102 78.5723 26.9609 78.5781 25.6602C78.5723 24.1836 79.7852 23.1641 81.4375 23.1641ZM79.6797 25.6602C79.668 26.5801 80.418 27.207 81.4375 27.1953C82.457 27.207 83.207 26.5801 83.207 25.6602C83.207 24.7227 82.457 24.125 81.4375 24.125C80.418 24.125 79.668 24.7227 79.6797 25.6602ZM85.5859 33.0195V22.4961H86.6992V33.0195H85.5859ZM89.793 23.4688V25.9766H91.7969V23.4688H92.8281V30.4062H88.7383V23.4688H89.793ZM89.793 29.5039H91.7969V26.8555H89.793V29.5039ZM94 32.4805V22.6953H95.0547V26.6094H96.3555V22.4961H97.4219V32.9961H96.3555V27.5234H95.0547V32.4805H94ZM104.09 26.1758V27.6406H108.332V28.543H98.7578V27.6406H102.988V26.1758H104.09ZM99.3086 25.8711C101.318 25.6133 102.971 24.4297 102.977 23.1055V22.6602H104.102V23.1055C104.096 24.4473 105.742 25.6133 107.77 25.8711L107.336 26.75C105.672 26.4805 104.201 25.6719 103.533 24.5117C102.865 25.6719 101.395 26.4805 99.7188 26.75L99.3086 25.8711ZM99.8945 31.1562C99.8945 29.9785 101.254 29.3164 103.539 29.3164C105.807 29.3164 107.154 29.9785 107.16 31.1562C107.154 32.3281 105.807 32.9785 103.539 32.9727C101.254 32.9785 99.8945 32.3281 99.8945 31.1562ZM101.02 31.1562C101.014 31.7832 101.916 32.1289 103.539 32.1289C105.139 32.1289 106.047 31.7832 106.047 31.1562C106.047 30.5176 105.139 30.1777 103.539 30.1719C101.916 30.1777 101.014 30.5176 101.02 31.1562Z" fill="white"/>
<path fill-rule="evenodd" clip-rule="evenodd" d="M240 34.6666H250C250.92 34.6666 251.667 33.9204 251.667 32.9999V22.9999C251.667 22.5579 251.491 22.134 251.178 21.8214C250.866 21.5088 250.442 21.3333 250 21.3333H240C239.558 21.3333 239.134 21.5088 238.821 21.8214C238.509 22.134 238.333 22.5579 238.333 22.9999V32.9999C238.333 33.9204 239.079 34.6666 240 34.6666ZM243.093 31.2043C243.228 31.2602 243.372 31.2888 243.518 31.2883C243.664 31.2888 243.809 31.2602 243.944 31.2043C244.079 31.1485 244.202 31.0663 244.305 30.9628L249.837 25.43L249.052 24.6444L243.518 30.1772L240.948 27.6072L240.163 28.3928L242.733 30.9628C242.836 31.0663 242.958 31.1484 243.093 31.2043Z" fill="#3966AE"/>
<path d="M266.281 22.4141V33.0781H264.77V22.4141H266.281ZM257.352 30.0547C260.105 28.7539 261.318 27.0664 261.559 24.6992H257.926V23.5273H263.082C263.076 26.7617 261.945 29.4512 258.137 31.25L257.352 30.0547ZM270.406 22.8008V23.8672H274.684V22.8008H276.172V27.1602H273.289V28.0625H277.414V29.2578H267.688V28.0625H271.789V27.1602H268.93V22.8008H270.406ZM268.859 32.8906V29.8672H270.359V31.6953H276.312V32.8906H268.859ZM270.406 25.9648H274.684V25.0156H270.406V25.9648ZM282.535 23.3633V25.7656H283.988V23.3633H285.371V30.5469H281.129V23.3633H282.535ZM282.535 29.3516H283.988V26.9375H282.535V29.3516ZM286.262 32.5859V22.5664H287.68V26.4805H288.641V22.4141H290.07V33.0781H288.641V27.6992H287.68V32.5859H286.262ZM296.785 26.1875V27.5H300.922V28.6953H291.195V27.5H295.309V26.1875H296.785ZM291.699 25.6602C294.055 25.3613 295.279 24.1426 295.285 22.9414V22.5898H296.809V22.9414C296.803 24.1895 297.998 25.3613 300.406 25.6602L299.832 26.8203C298.027 26.5508 296.703 25.7949 296.029 24.7285C295.35 25.7891 294.025 26.5566 292.227 26.8203L291.699 25.6602ZM292.309 31.1914C292.309 29.9785 293.709 29.2871 296.047 29.2812C298.367 29.2871 299.75 29.9785 299.762 31.1914C299.75 32.4043 298.367 33.084 296.047 33.0781C293.709 33.084 292.309 32.4043 292.309 31.1914ZM293.832 31.1914C293.826 31.7129 294.553 31.9648 296.047 31.9648C297.506 31.9648 298.256 31.7129 298.262 31.1914C298.256 30.6582 297.506 30.4238 296.047 30.418C294.553 30.4238 293.826 30.6582 293.832 31.1914ZM305.703 25.3203C305.697 27.043 306.588 28.8887 308.375 29.6328L307.566 30.8047C306.312 30.2715 305.445 29.2109 304.965 27.9219C304.484 29.3223 303.6 30.4941 302.34 31.0742L301.484 29.8906C303.254 29.0996 304.168 27.125 304.168 25.3203V24.6641H301.906V23.4453H307.93V24.6641H305.703V25.3203ZM308.984 33.0781V22.4141H310.496V33.0781H308.984Z" fill="#3966AE"/>
<path d="M17.4629 66.7891V53.6777H20.6621V54.8262H18.8574V65.627H20.6621V66.7891H17.4629ZM25.4987 54.1016V64H23.9811V55.6055H23.9264L21.5612 57.1504V55.7148L24.0221 54.1016H25.4987ZM27.8743 64V62.9062L31.3059 59.4473C32.3929 58.3193 32.9329 57.6904 32.9329 56.8223C32.9329 55.8447 32.1399 55.2227 31.1009 55.2227C30.0003 55.2227 29.303 55.9199 29.2962 56.9727H27.8743C27.8606 55.1611 29.2415 53.9648 31.1282 53.9648C33.0354 53.9648 34.3548 55.1748 34.3684 56.7812C34.3548 57.8887 33.8352 58.7705 31.9759 60.5957L29.9661 62.6328V62.7148H34.5325V64H27.8743ZM39.5741 64.1367C37.5234 64.1367 36.0673 63.0361 36.0058 61.416H37.537C37.5917 62.2842 38.453 62.8379 39.5605 62.8379C40.7568 62.8379 41.6249 62.1885 41.6249 61.2246C41.6249 60.2471 40.8114 59.5498 39.3964 59.543H38.5487V58.3125H39.3964C40.5243 58.3193 41.3105 57.6904 41.3105 56.7402C41.3105 55.8379 40.6337 55.2227 39.5878 55.2227C38.5966 55.2227 37.7079 55.7764 37.6737 56.6719H36.2245C36.2655 55.0586 37.7558 53.9648 39.6015 53.9648C41.5497 53.9648 42.7734 55.1953 42.7597 56.6582C42.7734 57.7861 42.0761 58.5928 41.0097 58.8594V58.9277C42.3632 59.1191 43.1493 60.0283 43.1425 61.2793C43.1493 62.9268 41.6249 64.1367 39.5741 64.1367ZM44.438 62.0723V60.8555L48.813 54.1016H50.6724V60.8008H52.0259V62.0723H50.6724V64H49.2505V62.0723H44.438ZM46.024 60.8008H49.2505V55.8926H49.1412L46.024 60.7188V60.8008ZM56.7668 64.1367C54.8937 64.1367 53.4855 62.9951 53.4172 61.416H54.8801C54.9621 62.2568 55.7687 62.8721 56.7668 62.8789C57.9699 62.8721 58.8312 62.0039 58.8312 60.8281C58.8312 59.625 57.9426 58.75 56.6984 58.7363C55.9055 58.7363 55.2971 59.0029 54.9621 59.6113H53.5402L54.1828 54.1016H59.7883V55.3867H55.427L55.0988 58.1621H55.1945C55.6047 57.7656 56.302 57.499 57.0539 57.4922C58.9201 57.499 60.2941 58.8799 60.2941 60.7871C60.2941 62.7354 58.8312 64.1367 56.7668 64.1367ZM64.4198 66.7891H61.2205V65.627H63.0252V54.8262H61.2205V53.6777H64.4198V66.7891ZM69.6769 62.0723V60.8555L74.0519 54.1016H75.9113V60.8008H77.2648V62.0723H75.9113V64H74.4894V62.0723H69.6769ZM71.2628 60.8008H74.4894V55.8926H74.38L71.2628 60.7188V60.8008ZM78.6423 64V62.9062L82.074 59.4473C83.1609 58.3193 83.7009 57.6904 83.7009 56.8223C83.7009 55.8447 82.908 55.2227 81.8689 55.2227C80.7683 55.2227 80.0711 55.9199 80.0642 56.9727H78.6423C78.6287 55.1611 80.0095 53.9648 81.8963 53.9648C83.8035 53.9648 85.1228 55.1748 85.1365 56.7812C85.1228 57.8887 84.6033 58.7705 82.7439 60.5957L80.7341 62.6328V62.7148H85.3005V64H78.6423ZM90.4105 64.1367C88.5785 64.123 86.6645 63.0361 86.6645 59.3789C86.6713 55.9336 88.1615 53.9648 90.5336 53.9648C92.3588 53.9648 93.6234 55.0996 93.8559 56.6719H92.3656C92.1674 55.8652 91.5316 55.2842 90.5336 55.2773C89.0023 55.2842 88.1137 56.6104 88.1137 58.8457H88.223C88.7631 58.0049 89.6928 57.5127 90.766 57.5059C92.5297 57.5127 93.9516 58.8662 93.9516 60.7598C93.9516 62.6807 92.5365 64.1504 90.4105 64.1367ZM88.2914 60.8008C88.2982 61.9014 89.1801 62.8721 90.3969 62.8789C91.5932 62.8721 92.4887 61.9424 92.4887 60.7871C92.4887 59.6523 91.6273 58.7295 90.4379 58.7363C89.2279 58.7295 88.3051 59.7002 88.2914 60.8008ZM96.7373 63.0566L95.6436 66.8301H94.4815L95.2061 63.0566H96.7373ZM101.817 64V54.1016H103.321V58.3945H108.243V54.1016H109.746V64H108.243V59.6797H103.321V64H101.817ZM111.165 61.9082C111.158 60.2129 112.601 59.7754 113.94 59.6797C114.433 59.6523 115.547 59.5908 115.889 59.5771L115.882 58.9824C115.889 58.1416 115.369 57.6562 114.378 57.6562C113.517 57.6562 112.997 58.0527 112.847 58.5996H111.397C111.527 57.3691 112.676 56.4805 114.433 56.4805C115.615 56.4805 117.338 56.9111 117.345 59.0645V64H115.923V62.9883H115.868C115.581 63.542 114.897 64.1641 113.667 64.1641C112.259 64.1641 111.158 63.3574 111.165 61.9082ZM112.587 61.9219C112.587 62.6328 113.175 62.9951 113.995 63.002C115.185 62.9951 115.895 62.2021 115.895 61.3203L115.889 60.6436C115.554 60.6641 114.494 60.7393 114.145 60.7598C113.188 60.8281 112.587 61.1904 112.587 61.9219ZM118.968 64V54.1016H120.431V59.707H120.554L123.494 56.5762H125.244L122.243 59.7617L125.449 64H123.658L121.135 60.6641L120.431 61.3613V64H118.968ZM128.713 64.1504C126.922 64.1436 125.61 62.7012 125.61 60.3086C125.61 57.8887 126.943 56.4805 128.727 56.4805C130.108 56.4805 130.607 57.3145 130.873 57.7793H130.942V54.1016H132.405V64H130.983V62.8379H130.873C130.6 63.3232 130.067 64.1436 128.713 64.1504ZM127.1 60.2812C127.093 61.7715 127.763 62.8994 129.041 62.9062C130.285 62.8994 130.983 61.8398 130.983 60.2812C130.983 58.7363 130.299 57.7178 129.041 57.7246C127.749 57.7178 127.093 58.8184 127.1 60.2812ZM137.309 64.1504C135.204 64.1504 133.83 62.6191 133.837 60.3223C133.83 58.0117 135.204 56.4805 137.309 56.4805C139.401 56.4805 140.768 58.0117 140.768 60.3223C140.768 62.6191 139.401 64.1504 137.309 64.1504ZM135.3 60.3223C135.3 61.7373 135.949 62.9336 137.309 62.9336C138.649 62.9336 139.292 61.7373 139.292 60.3223C139.292 58.9004 138.649 57.6904 137.309 57.6836C135.949 57.6904 135.3 58.9004 135.3 60.3223ZM143.527 59.5977V64H142.064V56.5762H143.472V57.793H143.554C143.903 56.9932 144.634 56.4805 145.742 56.4805C147.266 56.4805 148.278 57.4443 148.271 59.2832V64H146.822V59.4609C146.815 58.3809 146.234 57.7383 145.25 57.7383C144.245 57.7383 143.527 58.415 143.527 59.5977ZM153.026 66.9395C151.152 66.9395 149.915 66.1123 149.785 64.7246H151.276C151.419 65.4287 152.075 65.7705 153.039 65.7637C154.201 65.7705 154.933 65.2646 154.94 64.1094V62.6465H154.844C154.584 63.125 154.051 63.8906 152.684 63.8906C150.934 63.8906 149.58 62.585 149.58 60.2129C149.58 57.8408 150.913 56.4805 152.697 56.4805C154.078 56.4805 154.584 57.3145 154.858 57.7793H154.953V56.5762H156.375V64.1641C156.382 66.0713 154.94 66.9395 153.026 66.9395ZM151.07 60.2402C151.064 61.6963 151.734 62.6807 153.012 62.6875C154.256 62.6807 154.953 61.7715 154.953 60.2402C154.953 58.7363 154.27 57.7178 153.012 57.7246C151.72 57.7178 151.064 58.8184 151.07 60.2402ZM162.387 59.1875V60.4453H157.999V59.1875H162.387ZM164.011 64V56.5762H165.419V57.752H165.501C165.775 56.959 166.52 56.46 167.388 56.4668C167.566 56.46 167.853 56.4805 168.003 56.4941V57.8887C167.88 57.8613 167.539 57.7998 167.238 57.8066C166.226 57.7998 165.474 58.5039 165.474 59.4746V64H164.011ZM171.856 64.1504C169.75 64.1504 168.376 62.6191 168.383 60.3223C168.376 58.0117 169.75 56.4805 171.856 56.4805C173.947 56.4805 175.315 58.0117 175.315 60.3223C175.315 62.6191 173.947 64.1504 171.856 64.1504ZM169.846 60.3223C169.846 61.7373 170.495 62.9336 171.856 62.9336C173.195 62.9336 173.838 61.7373 173.838 60.3223C173.838 58.9004 173.195 57.6904 171.856 57.6836C170.495 57.6904 169.846 58.9004 169.846 60.3223ZM178.374 63.0566L177.28 66.8301H176.118L176.842 63.0566H178.374ZM190.139 57.2324C189.77 56.0635 188.874 55.3389 187.568 55.3457C185.9 55.3389 184.622 56.6514 184.615 59.0508C184.622 61.4434 185.887 62.7627 187.637 62.7559C189.216 62.7627 190.262 61.7578 190.289 60.1719H187.855V58.9277H191.752V60.0488C191.752 62.5576 190.029 64.1367 187.623 64.1367C184.943 64.1367 183.125 62.1885 183.125 59.0508C183.125 55.8926 184.998 53.9648 187.555 53.9648C189.694 53.9648 191.349 55.2979 191.684 57.2324H190.139ZM192.883 61.9082C192.877 60.2129 194.319 59.7754 195.659 59.6797C196.151 59.6523 197.265 59.5908 197.607 59.5771L197.6 58.9824C197.607 58.1416 197.088 57.6562 196.096 57.6562C195.235 57.6562 194.715 58.0527 194.565 58.5996H193.116C193.246 57.3691 194.394 56.4805 196.151 56.4805C197.334 56.4805 199.056 56.9111 199.063 59.0645V64H197.641V62.9883H197.587C197.299 63.542 196.616 64.1641 195.385 64.1641C193.977 64.1641 192.877 63.3574 192.883 61.9082ZM194.305 61.9219C194.305 62.6328 194.893 62.9951 195.714 63.002C196.903 62.9951 197.614 62.2021 197.614 61.3203L197.607 60.6436C197.272 60.6641 196.213 60.7393 195.864 60.7598C194.907 60.8281 194.305 61.1904 194.305 61.9219ZM202.15 59.5977V64H200.687V56.5762H202.095V57.793H202.177C202.526 56.9932 203.257 56.4805 204.365 56.4805C205.889 56.4805 206.901 57.4443 206.894 59.2832V64H205.445V59.4609C205.438 58.3809 204.857 57.7383 203.872 57.7383C202.867 57.7383 202.15 58.415 202.15 59.5977ZM211.648 66.9395C209.775 66.9395 208.538 66.1123 208.408 64.7246H209.898C210.042 65.4287 210.698 65.7705 211.662 65.7637C212.824 65.7705 213.556 65.2646 213.562 64.1094V62.6465H213.467C213.207 63.125 212.674 63.8906 211.307 63.8906C209.557 63.8906 208.203 62.585 208.203 60.2129C208.203 57.8408 209.536 56.4805 211.32 56.4805C212.701 56.4805 213.207 57.3145 213.48 57.7793H213.576V56.5762H214.998V64.1641C215.005 66.0713 213.562 66.9395 211.648 66.9395ZM209.693 60.2402C209.686 61.6963 210.356 62.6807 211.635 62.6875C212.879 62.6807 213.576 61.7715 213.576 60.2402C213.576 58.7363 212.893 57.7178 211.635 57.7246C210.343 57.7178 209.686 58.8184 209.693 60.2402ZM218.098 59.5977V64H216.635V56.5762H218.044V57.793H218.126C218.474 56.9932 219.206 56.4805 220.313 56.4805C221.837 56.4805 222.849 57.4443 222.842 59.2832V64H221.393V59.4609C221.386 58.3809 220.805 57.7383 219.821 57.7383C218.816 57.7383 218.098 58.415 218.098 59.5977ZM224.138 61.9082C224.131 60.2129 225.573 59.7754 226.913 59.6797C227.405 59.6523 228.52 59.5908 228.862 59.5771L228.855 58.9824C228.862 58.1416 228.342 57.6562 227.351 57.6562C226.489 57.6562 225.97 58.0527 225.82 58.5996H224.37C224.5 57.3691 225.649 56.4805 227.405 56.4805C228.588 56.4805 230.311 56.9111 230.318 59.0645V64H228.896V62.9883H228.841C228.554 63.542 227.87 64.1641 226.64 64.1641C225.232 64.1641 224.131 63.3574 224.138 61.9082ZM225.56 61.9219C225.56 62.6328 226.148 62.9951 226.968 63.002C228.157 62.9951 228.868 62.2021 228.868 61.3203L228.862 60.6436C228.527 60.6641 227.467 60.7393 227.118 60.7598C226.161 60.8281 225.56 61.1904 225.56 61.9219ZM231.941 64V56.5762H233.349V57.793H233.431C233.746 56.9658 234.477 56.4805 235.455 56.4805C236.446 56.4805 237.137 56.9658 237.451 57.793H237.533C237.882 56.9932 238.688 56.4805 239.762 56.4805C241.101 56.4805 242.052 57.3213 242.058 59.0234V64H240.596V59.1602C240.596 58.1553 239.967 57.7383 239.201 57.7383C238.264 57.7383 237.724 58.3809 237.724 59.2695V64H236.275V59.0781C236.275 58.2646 235.722 57.7383 234.922 57.7383C234.101 57.7383 233.404 58.4219 233.404 59.4199V64H231.941ZM248.057 59.1875V60.4453H243.668V59.1875H248.057ZM252.798 66.9395C250.925 66.9395 249.688 66.1123 249.558 64.7246H251.048C251.192 65.4287 251.848 65.7705 252.812 65.7637C253.974 65.7705 254.705 65.2646 254.712 64.1094V62.6465H254.616C254.357 63.125 253.823 63.8906 252.456 63.8906C250.706 63.8906 249.353 62.585 249.353 60.2129C249.353 57.8408 250.686 56.4805 252.47 56.4805C253.851 56.4805 254.357 57.3145 254.63 57.7793H254.726V56.5762H256.148V64.1641C256.154 66.0713 254.712 66.9395 252.798 66.9395ZM250.843 60.2402C250.836 61.6963 251.506 62.6807 252.784 62.6875C254.028 62.6807 254.726 61.7715 254.726 60.2402C254.726 58.7363 254.042 57.7178 252.784 57.7246C251.492 57.7178 250.836 58.8184 250.843 60.2402ZM262.502 60.9102V56.5762H263.951V64H262.529V62.7148H262.447C262.105 63.5078 261.346 64.0957 260.232 64.0957C258.797 64.0957 257.785 63.1318 257.785 61.293V56.5762H259.248V61.1152C259.248 62.127 259.863 62.7695 260.752 62.7695C261.565 62.7695 262.502 62.1748 262.502 60.9102ZM267.352 63.0566L266.258 66.8301H265.096L265.821 63.0566H267.352ZM277.818 56.7129C277.722 55.79 276.916 55.2637 275.781 55.2637C274.571 55.2637 273.805 55.8857 273.799 56.7266C273.799 57.6631 274.817 58.0322 275.603 58.2168L276.56 58.4766C277.825 58.7842 279.411 59.4746 279.418 61.2656C279.411 62.9404 278.078 64.1641 275.74 64.1641C273.525 64.1641 272.131 63.0566 272.035 61.252H273.539C273.628 62.332 274.585 62.8447 275.74 62.8516C277.005 62.8447 277.921 62.209 277.927 61.2383C277.921 60.377 277.1 60.0283 276.054 59.748L274.879 59.4336C273.286 58.9961 272.301 58.1895 272.295 56.8086C272.301 55.0996 273.819 53.9648 275.822 53.9648C277.832 53.9648 279.233 55.1133 279.281 56.7129H277.818ZM283.967 64.1504C281.78 64.1504 280.433 62.6396 280.44 60.3359C280.433 58.0527 281.8 56.4805 283.871 56.4805C285.56 56.4805 287.166 57.5264 287.166 60.2129V60.7324H281.889C281.93 62.1475 282.764 62.9473 283.981 62.9473C284.808 62.9473 285.348 62.5918 285.594 62.1406H287.071C286.742 63.3438 285.601 64.1504 283.967 64.1504ZM281.896 59.6387H285.731C285.731 58.5107 284.999 57.6768 283.885 57.6836C282.716 57.6768 281.957 58.5928 281.896 59.6387ZM291.62 64.1504C289.515 64.1504 288.141 62.6191 288.147 60.3223C288.141 58.0117 289.515 56.4805 291.62 56.4805C293.712 56.4805 295.079 58.0117 295.079 60.3223C295.079 62.6191 293.712 64.1504 291.62 64.1504ZM289.61 60.3223C289.61 61.7373 290.26 62.9336 291.62 62.9336C292.96 62.9336 293.603 61.7373 293.603 60.3223C293.603 58.9004 292.96 57.6904 291.62 57.6836C290.26 57.6904 289.61 58.9004 289.61 60.3223ZM301.091 60.9102V56.5762H302.541V64H301.119V62.7148H301.037C300.695 63.5078 299.936 64.0957 298.822 64.0957C297.386 64.0957 296.375 63.1318 296.375 61.293V56.5762H297.837V61.1152C297.837 62.127 298.453 62.7695 299.341 62.7695C300.155 62.7695 301.091 62.1748 301.091 60.9102ZM305.641 54.1016V64H304.178V54.1016H305.641ZM309.042 63.0566L307.948 66.8301H306.786L307.511 63.0566H309.042ZM17.0117 82V72.1016H20.5391C22.8428 72.1016 23.9707 73.3799 23.9707 75.2051C23.9707 76.5381 23.3691 77.543 22.166 78.001L24.3535 82H22.6445L20.6348 78.2676H20.5391H18.5156V82H17.0117ZM18.5156 76.9688H20.3887C21.8447 76.9619 22.4531 76.3193 22.4531 75.2051C22.4531 74.0908 21.8447 73.3936 20.3887 73.3867H18.5156V76.9688ZM28.4791 82.1504C26.2916 82.1504 24.945 80.6396 24.9518 78.3359C24.945 76.0527 26.3121 74.4805 28.3834 74.4805C30.0719 74.4805 31.6784 75.5264 31.6784 78.2129V78.7324H26.401C26.442 80.1475 27.276 80.9473 28.4928 80.9473C29.32 80.9473 29.86 80.5918 30.1061 80.1406H31.5827C31.2545 81.3438 30.1129 82.1504 28.4791 82.1504ZM26.4079 77.6387H30.2428C30.2428 76.5107 29.5114 75.6768 28.3971 75.6836C27.2282 75.6768 26.4694 76.5928 26.4079 77.6387ZM32.9876 84.7891V74.5762H34.4095V75.7793H34.5325C34.7923 75.3145 35.2913 74.4805 36.6653 74.4805C38.4632 74.4805 39.7825 75.8887 39.7825 78.3086C39.7825 80.7012 38.4768 82.1436 36.679 82.1504C35.3323 82.1436 34.7991 81.3232 34.5325 80.8379H34.4505V84.7891H32.9876ZM34.4231 78.2812C34.4231 79.8398 35.1067 80.8994 36.3509 80.9062C37.636 80.8994 38.3059 79.7715 38.3059 78.2812C38.3059 76.8184 37.6565 75.7178 36.3509 75.7246C35.093 75.7178 34.4231 76.7363 34.4231 78.2812ZM45.8085 78.9102V74.5762H47.2577V82H45.8359V80.7148H45.7538C45.412 81.5078 44.6532 82.0957 43.539 82.0957C42.1034 82.0957 41.0917 81.1318 41.0917 79.293V74.5762H42.5546V79.1152C42.5546 80.127 43.1698 80.7695 44.0585 80.7695C44.872 80.7695 45.8085 80.1748 45.8085 78.9102ZM49.0181 82V72.1016H50.4673V75.7793H50.5494C50.816 75.3145 51.3082 74.4805 52.6822 74.4805C54.48 74.4805 55.8062 75.8887 55.813 78.3086C55.8062 80.7012 54.4937 82.1436 52.6959 82.1504C51.3492 82.1436 50.8228 81.3232 50.5494 80.8379H50.44V82H49.0181ZM50.44 78.2812C50.44 79.8398 51.1373 80.8994 52.3677 80.9062C53.6529 80.8994 54.3228 79.7715 54.3228 78.2812C54.3228 76.8184 53.6734 75.7178 52.3677 75.7246C51.1168 75.7178 50.44 76.7363 50.44 78.2812ZM58.5852 72.1016V82H57.1223V72.1016H58.5852ZM60.2225 82V74.5762H61.6854V82H60.2225ZM60.0311 72.5664C60.0379 72.0879 60.4549 71.7051 60.9608 71.7051C61.4598 71.7051 61.8768 72.0879 61.8768 72.5664C61.8768 73.0449 61.4598 73.4346 60.9608 73.4277C60.4549 73.4346 60.0379 73.0449 60.0311 72.5664ZM66.4673 82.1504C64.3003 82.1504 62.9878 80.5576 62.9946 78.3223C62.9878 76.0596 64.3481 74.4805 66.4399 74.4805C68.1352 74.4805 69.3589 75.4785 69.5161 76.9824H68.0942C67.9438 76.2852 67.3901 75.7041 66.4673 75.6973C65.2641 75.7041 64.4575 76.7021 64.4575 78.2812C64.4575 79.9082 65.2436 80.9131 66.4673 80.9062C67.2944 80.9131 67.9096 80.4482 68.0942 79.6484H69.5161C69.3589 81.0908 68.2173 82.1504 66.4673 82.1504ZM77.1795 82.1504C75.074 82.1504 73.7 80.6191 73.7068 78.3223C73.7 76.0117 75.074 74.4805 77.1795 74.4805C79.2713 74.4805 80.6384 76.0117 80.6384 78.3223C80.6384 80.6191 79.2713 82.1504 77.1795 82.1504ZM75.1697 78.3223C75.1697 79.7373 75.8191 80.9336 77.1795 80.9336C78.5193 80.9336 79.1619 79.7373 79.1619 78.3223C79.1619 76.9004 78.5193 75.6904 77.1795 75.6836C75.8191 75.6904 75.1697 76.9004 75.1697 78.3223ZM85.475 74.5762V75.7383H83.8754V82H82.4125V75.7383H81.2641V74.5762H82.4125V73.7148C82.4193 72.3887 83.267 71.6367 84.6273 71.6367C84.976 71.6367 85.3383 71.6777 85.6254 71.7324V72.9492C85.352 72.9082 85.14 72.8945 85.0102 72.8945C84.2377 72.8945 83.8754 73.209 83.8754 73.9336V74.5762H85.475ZM90.0622 82V72.1016H91.5661V76.8184H91.6891L95.8317 72.1016H97.7184L93.7262 76.5586L97.7321 82H95.9137L92.7282 77.584L91.5661 78.9238V82H90.0622ZM101.297 82.1504C99.1917 82.1504 97.8177 80.6191 97.8245 78.3223C97.8177 76.0117 99.1917 74.4805 101.297 74.4805C103.389 74.4805 104.756 76.0117 104.756 78.3223C104.756 80.6191 103.389 82.1504 101.297 82.1504ZM99.2874 78.3223C99.2874 79.7373 99.9368 80.9336 101.297 80.9336C102.637 80.9336 103.28 79.7373 103.28 78.3223C103.28 76.9004 102.637 75.6904 101.297 75.6836C99.9368 75.6904 99.2874 76.9004 99.2874 78.3223ZM106.052 82V74.5762H107.46V75.752H107.542C107.815 74.959 108.561 74.46 109.429 74.4668C109.606 74.46 109.894 74.4805 110.044 74.4941V75.8887C109.921 75.8613 109.579 75.7998 109.278 75.8066C108.267 75.7998 107.515 76.5039 107.515 77.4746V82H106.052ZM113.951 82.1504C111.763 82.1504 110.417 80.6396 110.423 78.3359C110.417 76.0527 111.784 74.4805 113.855 74.4805C115.544 74.4805 117.15 75.5264 117.15 78.2129V78.7324H111.873C111.914 80.1475 112.748 80.9473 113.964 80.9473C114.792 80.9473 115.332 80.5918 115.578 80.1406H117.054C116.726 81.3438 115.585 82.1504 113.951 82.1504ZM111.879 77.6387H115.714C115.714 76.5107 114.983 75.6768 113.869 75.6836C112.7 75.6768 111.941 76.5928 111.879 77.6387ZM118.117 79.9082C118.111 78.2129 119.553 77.7754 120.893 77.6797C121.385 77.6523 122.499 77.5908 122.841 77.5771L122.834 76.9824C122.841 76.1416 122.322 75.6562 121.33 75.6562C120.469 75.6562 119.949 76.0527 119.799 76.5996H118.35C118.48 75.3691 119.628 74.4805 121.385 74.4805C122.568 74.4805 124.29 74.9111 124.297 77.0645V82H122.875V80.9883H122.821C122.533 81.542 121.85 82.1641 120.619 82.1641C119.211 82.1641 118.111 81.3574 118.117 79.9082ZM119.539 79.9219C119.539 80.6328 120.127 80.9951 120.948 81.002C122.137 80.9951 122.848 80.2021 122.848 79.3203L122.841 78.6436C122.506 78.6641 121.447 78.7393 121.098 78.7598C120.141 78.8281 119.539 79.1904 119.539 79.9219Z" fill="#282930"/>
<path d="M20.334 127.137C18.1807 127.137 16.6836 125.975 16.6973 124.361C16.6836 123.09 17.5928 122.051 18.7617 121.873V121.818C17.7432 121.586 17.0664 120.684 17.0664 119.604C17.0664 118.079 18.4404 116.965 20.334 116.965C22.2002 116.965 23.5811 118.079 23.5879 119.604C23.5811 120.684 22.8906 121.586 21.8926 121.818V121.873C23.0479 122.051 23.9639 123.09 23.9707 124.361C23.9639 125.975 22.4531 127.137 20.334 127.137ZM18.2285 124.252C18.208 125.223 19.0283 125.893 20.334 125.893C21.6191 125.893 22.4395 125.223 22.4395 124.252C22.4395 123.233 21.5508 122.488 20.334 122.488C19.1035 122.488 18.208 123.233 18.2285 124.252ZM18.5293 119.74C18.5361 120.663 19.2744 121.306 20.334 121.299C21.3662 121.306 22.1182 120.67 22.1113 119.74C22.1182 118.817 21.3936 118.188 20.334 118.195C19.2471 118.188 18.5361 118.817 18.5293 119.74ZM25.3893 127V125.906L28.8209 122.447C29.9079 121.319 30.4479 120.69 30.4479 119.822C30.4479 118.845 29.6549 118.223 28.6159 118.223C27.5153 118.223 26.818 118.92 26.8112 119.973H25.3893C25.3756 118.161 26.7565 116.965 28.6432 116.965C30.5504 116.965 31.8698 118.175 31.8834 119.781C31.8698 120.889 31.3502 121.771 29.4909 123.596L27.4811 125.633V125.715H32.0475V127H25.3893ZM36.4876 125.332V122.721H33.8762V121.408H36.4876V118.797H37.8001V121.408H40.4251V122.721H37.8001V125.332H36.4876ZM49.3736 117.102V127H47.856V118.605H47.8013L45.4361 120.15V118.715L47.897 117.102H49.3736ZM55.1945 127.137C52.9045 127.137 51.5578 125.291 51.5578 122.051C51.5578 118.831 52.9182 116.965 55.1945 116.965C57.4641 116.965 58.8244 118.831 58.8312 122.051C58.8244 125.291 57.4846 127.137 55.1945 127.137ZM53.0617 122.051C53.0549 124.519 53.8547 125.838 55.1945 125.838C56.5275 125.838 57.3273 124.519 57.3273 122.051C57.3273 119.59 56.5207 118.243 55.1945 118.236C53.8615 118.243 53.0617 119.59 53.0617 122.051ZM67.2876 117.102V127H65.77V118.605H65.7153L63.3501 120.15V118.715L65.811 117.102H67.2876ZM69.6632 127V125.906L73.0948 122.447C74.1818 121.319 74.7218 120.69 74.7218 119.822C74.7218 118.845 73.9288 118.223 72.8898 118.223C71.7892 118.223 71.0919 118.92 71.0851 119.973H69.6632C69.6495 118.161 71.0304 116.965 72.9171 116.965C74.8243 116.965 76.1437 118.175 76.1573 119.781C76.1437 120.889 75.6241 121.771 73.7648 123.596L71.755 125.633V125.715H76.3214V127H69.6632ZM77.8494 127V125.906L81.281 122.447C82.3679 121.319 82.908 120.69 82.908 119.822C82.908 118.845 82.115 118.223 81.0759 118.223C79.9754 118.223 79.2781 118.92 79.2713 119.973H77.8494C77.8357 118.161 79.2166 116.965 81.1033 116.965C83.0105 116.965 84.3298 118.175 84.3435 119.781C84.3298 120.889 83.8103 121.771 81.9509 123.596L79.9412 125.633V125.715H84.5076V127H77.8494ZM89.5492 127.137C87.4984 127.137 86.0424 126.036 85.9809 124.416H87.5121C87.5668 125.284 88.4281 125.838 89.5355 125.838C90.7318 125.838 91.6 125.188 91.6 124.225C91.6 123.247 90.7865 122.55 89.3715 122.543H88.5238V121.312H89.3715C90.4994 121.319 91.2855 120.69 91.2855 119.74C91.2855 118.838 90.6088 118.223 89.5629 118.223C88.5717 118.223 87.683 118.776 87.6488 119.672H86.1996C86.2406 118.059 87.7309 116.965 89.5766 116.965C91.5248 116.965 92.7484 118.195 92.7348 119.658C92.7484 120.786 92.0512 121.593 90.9848 121.859V121.928C92.3383 122.119 93.1244 123.028 93.1176 124.279C93.1244 125.927 91.6 127.137 89.5492 127.137ZM101.273 127.137C99.4001 127.137 97.9919 125.995 97.9235 124.416H99.3864C99.4684 125.257 100.275 125.872 101.273 125.879C102.476 125.872 103.338 125.004 103.338 123.828C103.338 122.625 102.449 121.75 101.205 121.736C100.412 121.736 99.8034 122.003 99.4684 122.611H98.0466L98.6891 117.102H104.295V118.387H99.9333L99.6052 121.162H99.7009C100.111 120.766 100.808 120.499 101.56 120.492C103.426 120.499 104.8 121.88 104.8 123.787C104.8 125.735 103.338 127.137 101.273 127.137ZM109.842 127.137C108.01 127.123 106.096 126.036 106.096 122.379C106.103 118.934 107.593 116.965 109.965 116.965C111.79 116.965 113.055 118.1 113.287 119.672H111.797C111.599 118.865 110.963 118.284 109.965 118.277C108.434 118.284 107.545 119.61 107.545 121.846H107.655C108.195 121.005 109.124 120.513 110.198 120.506C111.961 120.513 113.383 121.866 113.383 123.76C113.383 125.681 111.968 127.15 109.842 127.137ZM107.723 123.801C107.73 124.901 108.612 125.872 109.828 125.879C111.025 125.872 111.92 124.942 111.92 123.787C111.92 122.652 111.059 121.729 109.869 121.736C108.659 121.729 107.737 122.7 107.723 123.801ZM115.185 127L119.601 118.469V118.387H114.501V117.102H121.159V118.441L116.757 127H115.185ZM125.804 127.137C123.651 127.137 122.154 125.975 122.168 124.361C122.154 123.09 123.063 122.051 124.232 121.873V121.818C123.213 121.586 122.537 120.684 122.537 119.604C122.537 118.079 123.911 116.965 125.804 116.965C127.671 116.965 129.051 118.079 129.058 119.604C129.051 120.684 128.361 121.586 127.363 121.818V121.873C128.518 122.051 129.434 123.09 129.441 124.361C129.434 125.975 127.923 127.137 125.804 127.137ZM123.699 124.252C123.678 125.223 124.499 125.893 125.804 125.893C127.089 125.893 127.91 125.223 127.91 124.252C127.91 123.233 127.021 122.488 125.804 122.488C124.574 122.488 123.678 123.233 123.699 124.252ZM124 119.74C124.006 120.663 124.745 121.306 125.804 121.299C126.837 121.306 127.588 120.67 127.582 119.74C127.588 118.817 126.864 118.188 125.804 118.195C124.717 118.188 124.006 118.817 124 119.74Z" fill="#282930"/>
<rect x="16" y="143" width="41" height="24" rx="4" fill="#ECECED"/>
<path d="M31.8945 150.422C31.8887 151.816 33.5938 153.123 35.6562 153.398L35.2227 154.312C33.5059 154.037 32 153.146 31.3145 151.91C30.6289 153.146 29.123 154.037 27.418 154.312L26.9727 153.398C29.0293 153.123 30.7285 151.834 30.7344 150.422V149.848H31.8945V150.422ZM26.5156 156.258V155.344H36.0898V156.258H31.8242V159.996H30.7344V156.258H26.5156ZM45.6406 149.496V155.742H44.5273V153.082H42.5703V152.168H44.5273V149.496H45.6406ZM36.8867 154.793C38.5156 154.225 39.5176 152.807 39.5117 151.359V151.125H37.2383V150.223H42.8984V151.125H40.6484V151.348C40.6426 152.678 41.5918 153.973 43.1797 154.512L42.6055 155.391C41.4277 154.986 40.5605 154.143 40.1035 153.105C39.6465 154.277 38.7266 155.221 37.4727 155.684L36.8867 154.793ZM38.5742 158.016C38.5684 156.768 39.916 156.041 42.125 156.035C44.3223 156.041 45.6699 156.768 45.6758 158.016C45.6699 159.264 44.3223 159.99 42.125 159.996C39.916 159.99 38.5684 159.264 38.5742 158.016ZM39.6758 158.016C39.6699 158.725 40.584 159.129 42.125 159.117C43.6543 159.129 44.5684 158.725 44.5742 158.016C44.5684 157.301 43.6543 156.896 42.125 156.902C40.584 156.896 39.6699 157.301 39.6758 158.016Z" fill="#2E2F37"/>
</svg>
