<svg width="33" height="35" viewBox="0 0 33 35" fill="none" xmlns="http://www.w3.org/2000/svg">
<g clip-path="url(#clip0_12428_1443)">
<path d="M18.5689 0.517578H7.06943C5.68651 0.517578 4.56543 1.62381 4.56543 2.98842V27.2399C4.56543 28.6045 5.68651 29.7107 7.06943 29.7107H18.5689C19.9519 29.7107 21.0729 28.6045 21.0729 27.2399V2.98842C21.0729 1.62381 19.9519 0.517578 18.5689 0.517578Z" fill="#B9D7FF"/>
<path d="M32.436 17.0262V9.88873C32.436 8.76363 31.5117 7.85156 30.3715 7.85156L11.633 7.85156C10.4928 7.85156 9.5685 8.76363 9.5685 9.88873V17.0262C9.5685 18.1513 10.4928 19.0634 11.633 19.0634H30.3715C31.5117 19.0634 32.436 18.1513 32.436 17.0262Z" fill="#EBF3FF"/>
<path d="M4.49429 35.0005C4.49429 35.0005 5.28036 31.4748 2.70776 29.6414C0.135167 27.808 0.492472 23.013 0.492472 23.013V12.1538C0.492472 12.1538 1.42147 8.5575 4.20845 10.955C4.20845 10.955 4.70867 12.0127 4.70867 13.282C4.70867 14.5513 4.8516 19.2757 4.8516 19.2757C4.8516 19.2757 10.1397 19.9809 10.4256 27.8785C10.4256 27.8785 10.3541 31.1927 9.4251 32.5325C8.49611 33.8723 8.85341 35.0005 8.85341 35.0005H4.49429Z" fill="white"/>
<path d="M23.9314 19.2754H21.0015V22.9422H23.9314V19.2754Z" fill="white"/>
<path d="M23.9314 23.4355H21.0015V27.1023H23.9314V23.4355Z" fill="white"/>
<path d="M4.42285 2.70508L4.63723 18.7824C4.63723 18.7824 8.21029 19.6991 9.42513 23.2954C10.64 26.8916 10.2827 28.1609 10.2827 28.1609L10.9973 29.9238L19.2153 29.7827C19.2153 29.7827 21.1319 28.4627 21.0733 27.5968C21.0147 26.7309 5.49477 26.8916 4.42285 2.70508Z" fill="#D7E9FF"/>
<path d="M8.85323 34.999H15.2683C15.2683 34.999 15.2847 32.6721 16.6425 32.1079C18.0002 31.5438 18.7149 29.781 18.7149 29.781L12.7121 29.6399C12.7121 29.6399 11.7117 27.454 9.49638 27.2424C7.28109 27.0309 7.85278 34.999 8.85323 34.999Z" fill="white"/>
<path d="M30.0443 19.6029H18.552C18.2797 19.6029 18.0596 19.385 18.0596 19.117C18.0596 18.8491 18.2804 18.6312 18.552 18.6312H30.0443C31.1305 18.6312 32.0145 17.7589 32.0145 16.6871V10.2068C32.0145 9.13498 31.1305 8.26271 30.0443 8.26271H11.9847C10.8985 8.26271 10.0145 9.13498 10.0145 10.2068V16.6871C10.0145 17.7589 10.8985 18.6312 11.9847 18.6312H16.9098C17.1821 18.6312 17.4022 18.8491 17.4022 19.117C17.4022 19.385 17.1813 19.6029 16.9098 19.6029H11.9847C10.3554 19.6029 9.02979 18.2948 9.02979 16.6871V10.2068C9.02979 8.59906 10.3554 7.29102 11.9847 7.29102H30.0443C31.6736 7.29102 32.9992 8.59906 32.9992 10.2068V16.6871C32.9992 18.2948 31.6736 19.6029 30.0443 19.6029Z" fill="#3966AE"/>
<path d="M10.3433 28.5129C10.071 28.5129 9.85091 28.295 9.85091 28.027C9.85091 24.8419 8.9555 22.4571 7.19041 20.9382C5.87767 19.8092 4.53921 19.5998 4.52563 19.5977C4.2848 19.5617 4.10472 19.3573 4.10472 19.1168V12.6365C4.10472 11.2939 3.32151 10.6924 2.54473 10.6924C1.76795 10.6924 0.984733 11.2932 0.984733 12.6365V19.1168C0.984733 19.3855 0.763919 19.6026 0.492367 19.6026C0.220815 19.6026 0 19.3848 0 19.1168V12.6365C0 10.722 1.27987 9.7207 2.54473 9.7207C3.80959 9.7207 5.08946 10.7227 5.08946 12.6365V18.7283C5.66043 18.8813 6.72663 19.2656 7.79068 20.1653C9.17989 21.3401 10.8356 23.6579 10.8356 28.027C10.8356 28.2957 10.6148 28.5129 10.3433 28.5129Z" fill="#3966AE"/>
<path d="M4.59686 17.1725C4.32459 17.1725 4.10449 16.9546 4.10449 16.6866V2.91578C4.10449 1.30805 5.43009 0 7.05941 0H18.5518C20.1811 0 21.5067 1.30805 21.5067 2.91578V5.34572C21.5067 5.61438 21.2859 5.83157 21.0143 5.83157C20.7428 5.83157 20.522 5.61368 20.522 5.34572V2.91578C20.522 1.84396 19.638 0.971693 18.5518 0.971693H7.05941C5.9732 0.971693 5.08923 1.84396 5.08923 2.91578V16.6859C5.08923 16.9546 4.86841 17.1718 4.59686 17.1718V17.1725Z" fill="#3966AE"/>
<path d="M18.552 30.1323H12.8058C12.5336 30.1323 12.3135 29.9144 12.3135 29.6464C12.3135 29.3785 12.5343 29.1606 12.8058 29.1606H18.552C19.6382 29.1606 20.5222 28.2883 20.5222 27.2165V21.5464C20.5222 21.2777 20.743 21.0605 21.0146 21.0605C21.2861 21.0605 21.5069 21.2784 21.5069 21.5464V27.2165C21.5069 28.8242 20.1813 30.1323 18.552 30.1323Z" fill="#3966AE"/>
<path d="M4.59709 34.9932C4.32482 34.9932 4.10472 34.7753 4.10472 34.5073V32.8876C4.10472 31.4026 3.51445 30.971 2.69765 30.3731C1.49568 29.493 0 28.3979 0 23.9767V22.3569C0 22.0883 0.220815 21.8711 0.492367 21.8711C0.763919 21.8711 0.984733 22.089 0.984733 22.3569V23.9767C0.984733 27.9093 2.206 28.8027 3.28364 29.5911C4.17118 30.2405 5.08874 30.9125 5.08874 32.8862V34.5059C5.08874 34.7746 4.86793 34.9918 4.59638 34.9918L4.59709 34.9932Z" fill="#3966AE"/>
<path d="M15.2682 34.9937C14.996 34.9937 14.7759 34.7758 14.7759 34.5078C14.7759 32.7217 15.8699 31.9975 16.7489 31.4158C17.5857 30.8615 18.0595 30.5061 18.0595 29.648C18.0595 29.3793 18.2803 29.1621 18.5519 29.1621C18.8234 29.1621 19.0442 29.38 19.0442 29.648C19.0442 31.0667 18.116 31.6809 17.297 32.2232C16.4724 32.7689 15.7606 33.2407 15.7606 34.5085C15.7606 34.7772 15.5398 34.9944 15.2682 34.9944V34.9937Z" fill="#3966AE"/>
<path d="M21.0147 17.1727H20.1936C19.0167 17.1727 18.0591 16.2278 18.0591 15.0664V10.2065C18.0591 9.93789 18.2799 9.7207 18.5514 9.7207C18.823 9.7207 19.0438 9.93859 19.0438 10.2065V15.0664C19.0438 15.6919 19.559 16.2003 20.1929 16.2003H21.014C21.6479 16.2003 22.1631 15.6919 22.1631 15.0664V10.2065C22.1631 9.93789 22.3839 9.7207 22.6555 9.7207C22.927 9.7207 23.1478 9.93859 23.1478 10.2065V15.0664C23.1478 16.2278 22.1902 17.1727 21.0133 17.1727H21.0147Z" fill="#3966AE"/>
<path d="M14.447 13.9318H12.8056C12.5333 13.9318 12.3132 13.714 12.3132 13.446C12.3132 13.178 12.534 12.9602 12.8056 12.9602H14.447C14.6364 12.9573 15.5961 12.8903 15.5961 11.8263C15.5961 10.7622 14.6364 10.6952 14.4435 10.6924H12.8049C12.5326 10.6924 12.3125 10.4745 12.3125 10.2065C12.3125 9.93859 12.5333 9.7207 12.8049 9.7207H14.4463C15.3046 9.7207 16.5809 10.2813 16.5809 11.827C16.5809 13.3727 15.3046 13.9333 14.4463 13.9333L14.447 13.9318Z" fill="#3966AE"/>
<path d="M15.2684 17.1727H12.8058C12.5336 17.1727 12.3135 16.9548 12.3135 16.6869V10.2065C12.3135 9.93789 12.5343 9.7207 12.8058 9.7207C13.0774 9.7207 13.2982 9.93859 13.2982 10.2065V13.0843C13.3854 13.0074 13.5004 12.9609 13.6262 12.9609H15.2677C16.1252 12.9609 17.4022 13.5214 17.4022 15.0671C17.4022 16.6128 16.1259 17.1734 15.2677 17.1734L15.2684 17.1727ZM13.2982 16.2003H15.2684C15.4578 16.1975 16.4175 16.1305 16.4175 15.0664C16.4175 14.0024 15.4578 13.9354 15.2648 13.9325H13.6262C13.4997 13.9325 13.3847 13.886 13.2982 13.8091V16.201V16.2003Z" fill="#3966AE"/>
<path d="M26.7609 13.9331C26.6059 13.9331 26.4601 13.8612 26.3672 13.7385L23.9046 10.4983C23.7417 10.284 23.7853 9.97865 24.0032 9.81788C24.2205 9.6571 24.5299 9.70012 24.6928 9.91519L26.7616 12.6371L28.8304 9.91519C28.9934 9.70012 29.3028 9.6571 29.52 9.81788C29.7373 9.97865 29.7816 10.2833 29.6187 10.4983L27.1561 13.7385C27.0632 13.8612 26.9174 13.9331 26.7624 13.9331H26.7609Z" fill="#3966AE"/>
<path d="M26.7609 17.1728C26.4887 17.1728 26.2686 16.9549 26.2686 16.6869V13.4468C26.2686 13.1781 26.4894 12.9609 26.7609 12.9609C27.0325 12.9609 27.2533 13.1788 27.2533 13.4468V16.6869C27.2533 16.9556 27.0325 17.1728 26.7609 17.1728Z" fill="#3966AE"/>
<path d="M22.6568 27.701H21.0153C20.743 27.701 20.5229 27.4832 20.5229 27.2152C20.5229 26.9472 20.7438 26.7293 21.0153 26.7293H22.6568C23.2906 26.7293 23.8059 26.2209 23.8059 25.5955V24.7853C23.8059 24.1598 23.2906 23.6514 22.6568 23.6514H21.0153C20.743 23.6514 20.5229 23.4335 20.5229 23.1655C20.5229 22.8976 20.7438 22.6797 21.0153 22.6797H22.6568C23.8337 22.6797 24.7913 23.6246 24.7913 24.786V25.5962C24.7913 26.7576 23.8337 27.7025 22.6568 27.7025V27.701Z" fill="#3966AE"/>
<path d="M22.6568 23.6522H21.0153C20.743 23.6522 20.5229 23.4343 20.5229 23.1664C20.5229 22.8984 20.7438 22.6805 21.0153 22.6805H22.6568C23.2906 22.6805 23.8059 22.1721 23.8059 21.5466V20.7364C23.8059 20.111 23.2906 19.6026 22.6568 19.6026H21.0153C20.743 19.6026 20.5229 19.3847 20.5229 19.1167C20.5229 18.8487 20.7438 18.6309 21.0153 18.6309H22.6568C23.8337 18.6309 24.7913 19.5758 24.7913 20.7371V21.5473C24.7913 22.7087 23.8337 23.6536 22.6568 23.6536V23.6522Z" fill="#3966AE"/>
<path d="M10.5682 5.94714C11.3181 5.94714 11.926 5.3473 11.926 4.60736C11.926 3.86742 11.3181 3.26758 10.5682 3.26758C9.81834 3.26758 9.21045 3.86742 9.21045 4.60736C9.21045 5.3473 9.81834 5.94714 10.5682 5.94714Z" fill="#EBF3FF"/>
</g>
<defs>
<clipPath id="clip0_12428_1443">
<rect width="33" height="35" fill="white"/>
</clipPath>
</defs>
</svg>
