<svg width="28" height="35" viewBox="0 0 28 35" fill="none" xmlns="http://www.w3.org/2000/svg">
<g clip-path="url(#clip0_12428_1469)">
<path d="M18.5633 33.1021H9.43696C9.20264 33.1021 9.0127 32.9136 9.0127 32.6809C9.0127 32.4483 9.20264 32.2598 9.43696 32.2598H18.5633C18.7976 32.2598 18.9875 32.4483 18.9875 32.6809C18.9875 32.9136 18.7976 33.1021 18.5633 33.1021Z" fill="#3966AE"/>
<path d="M16.6531 34.9992C16.5444 34.9992 16.4357 34.9583 16.3532 34.8758C16.1876 34.7114 16.1876 34.4447 16.3532 34.2797L17.9634 32.6812L16.3532 31.0827C16.1876 30.9183 16.1876 30.6516 16.3532 30.4866C16.5188 30.3222 16.7874 30.3222 16.9537 30.4866L18.8638 32.3828C19.0293 32.5472 19.0293 32.8139 18.8638 32.9789L16.9537 34.8751C16.8705 34.9576 16.7625 34.9986 16.6537 34.9986L16.6531 34.9992Z" fill="#3966AE"/>
<path d="M18.5633 2.73884H9.43696C9.20264 2.73884 9.0127 2.55027 9.0127 2.31766C9.0127 2.08505 9.20264 1.89648 9.43696 1.89648H18.5633C18.7976 1.89648 18.9875 2.08505 18.9875 2.31766C18.9875 2.55027 18.7976 2.73884 18.5633 2.73884Z" fill="#3966AE"/>
<path d="M11.3469 4.63529C11.2382 4.63529 11.1295 4.59435 11.047 4.51185L9.13688 2.61562C8.9713 2.45124 8.9713 2.18452 9.13688 2.01952L11.0464 0.123283C11.2119 -0.0410944 11.4806 -0.0410944 11.6468 0.123283C11.813 0.287661 11.8124 0.554386 11.6468 0.719384L10.0366 2.31788L11.6468 3.91637C11.8124 4.08075 11.8124 4.34747 11.6468 4.51247C11.5637 4.59497 11.4556 4.63591 11.3469 4.63591V4.63529Z" fill="#3966AE"/>
<path d="M25.6237 6.73047H2.37616C1.29845 6.73047 0.424805 7.59777 0.424805 8.66764V20.1741C0.424805 21.2439 1.29845 22.1112 2.37616 22.1112H25.6237C26.7014 22.1112 27.575 21.2439 27.575 20.1741V8.66764C27.575 7.59777 26.7014 6.73047 25.6237 6.73047Z" fill="#D7E9FF"/>
<path d="M25.6238 22.5331H2.37624C1.06659 22.5331 0 21.4748 0 20.1747V8.6689C0 7.36877 1.06596 6.31055 2.37624 6.31055H4.99116C5.22547 6.31055 5.41542 6.49912 5.41542 6.73173C5.41542 6.96434 5.22547 7.1529 4.99116 7.1529H2.37624C1.53396 7.1529 0.849148 7.83274 0.849148 8.6689V20.1747C0.849148 21.0109 1.53396 21.6907 2.37624 21.6907H25.6238C26.466 21.6907 27.1509 21.0109 27.1509 20.1747V8.6689C27.1509 7.83337 26.466 7.1529 25.6238 7.1529H7.97724C7.74293 7.1529 7.55298 6.96434 7.55298 6.73173C7.55298 6.49912 7.74293 6.31055 7.97724 6.31055H25.6231C26.9328 6.31055 27.9994 7.36877 27.9994 8.6689V20.1747C27.9994 21.4748 26.9334 22.5331 25.6231 22.5331H25.6238Z" fill="#3966AE"/>
<path d="M25.6237 9.81055H2.37616C1.29845 9.81055 0.424805 10.6778 0.424805 11.7477V23.2541C0.424805 24.324 1.29845 25.1913 2.37616 25.1913H25.6237C26.7014 25.1913 27.575 24.324 27.575 23.2541V11.7477C27.575 10.6778 26.7014 9.81055 25.6237 9.81055Z" fill="#EBF3FF"/>
<path d="M25.6238 25.6118H2.37624C1.06659 25.6118 0 24.5542 0 23.2534V11.747C0 10.4469 1.06596 9.38867 2.37624 9.38867H25.6238C26.9334 9.38867 28 10.4469 28 11.747V23.2534C28 24.5536 26.934 25.6118 25.6238 25.6118ZM2.37624 10.231C1.53396 10.231 0.849148 10.9109 0.849148 11.747V23.2534C0.849148 24.089 1.53396 24.7688 2.37624 24.7688H25.6238C26.466 24.7688 27.1509 24.089 27.1509 23.2534V11.747C27.1509 10.9109 26.466 10.231 25.6238 10.231H2.37624Z" fill="#3966AE"/>
<path d="M25.6237 12.8906H2.37616C1.29845 12.8906 0.424805 13.7579 0.424805 14.8278V26.3342C0.424805 27.4041 1.29845 28.2714 2.37616 28.2714H25.6237C26.7014 28.2714 27.575 27.4041 27.575 26.3342V14.8278C27.575 13.7579 26.7014 12.8906 25.6237 12.8906Z" fill="#D7E9FF"/>
<path d="M25.6008 13.0768H11.4346V17.1999C11.4346 20.8311 14.3994 23.7744 18.0572 23.7744H27.5521V15.0133C27.5521 13.9433 26.6786 13.0762 25.6008 13.0762V13.0768Z" fill="#EBF3FF"/>
<path d="M27.5456 23.032H27.5506V15.0153C27.5506 13.9453 26.6771 13.0781 25.5992 13.0781H12.9482C12.9482 13.838 13.5687 14.4533 14.3335 14.4533H26.1603V21.6568C26.1603 22.4166 26.7808 23.032 27.5456 23.032Z" fill="white"/>
<path d="M25.6238 28.6919H22.0872C21.8529 28.6919 21.6629 28.5033 21.6629 28.2707C21.6629 28.0381 21.8529 27.8495 22.0872 27.8495H25.6238C26.466 27.8495 27.1509 27.1697 27.1509 26.3341V14.8277C27.1509 13.9922 26.466 13.3117 25.6238 13.3117H2.37624C1.53396 13.3117 0.849148 13.9916 0.849148 14.8277V26.3341C0.849148 27.1697 1.53396 27.8495 2.37624 27.8495H19.6435C19.8778 27.8495 20.0678 28.0381 20.0678 28.2707C20.0678 28.5033 19.8778 28.6919 19.6435 28.6919H2.37624C1.06659 28.6919 0 27.6337 0 26.3335V14.8271C0 13.527 1.06596 12.4688 2.37624 12.4688H25.6238C26.9334 12.4688 28 13.527 28 14.8271V26.3335C28 27.6337 26.934 28.6919 25.6238 28.6919Z" fill="#3966AE"/>
<path d="M23.1842 26.2705H4.81542C4.58111 26.2705 4.39116 26.0819 4.39116 25.8493C4.39116 25.0132 3.70634 24.3333 2.86469 24.3333C2.63038 24.3333 2.44043 24.1448 2.44043 23.9122V17.2484C2.44043 17.0157 2.63038 16.8272 2.86469 16.8272C3.70634 16.8272 4.39116 16.1473 4.39116 15.3118C4.39116 15.0792 4.58111 14.8906 4.81542 14.8906H23.1842C23.4186 14.8906 23.6085 15.0792 23.6085 15.3118C23.6085 16.1473 24.2933 16.8272 25.135 16.8272C25.3693 16.8272 25.5592 17.0157 25.5592 17.2484V23.9122C25.5592 24.1448 25.3693 24.3333 25.135 24.3333C24.2933 24.3333 23.6085 25.0132 23.6085 25.8493C23.6085 26.0819 23.4186 26.2705 23.1842 26.2705ZM5.20157 25.4275H22.7981C22.9737 24.4642 23.741 23.7025 24.7113 23.5282V17.6323C23.7416 17.458 22.9743 16.6963 22.7981 15.733H5.20157C5.02599 16.6963 4.25869 17.458 3.28833 17.6323V23.5282C4.25807 23.7031 5.02536 24.4648 5.20157 25.4275Z" fill="#3966AE"/>
<path d="M5.36035 20.582C5.36035 19.7197 6.06266 19.0176 6.93118 19.0176C7.7997 19.0176 8.50701 19.7197 8.50701 20.582C8.50701 21.4442 7.7997 22.1414 6.93118 22.1414C6.06266 22.1414 5.36035 21.4442 5.36035 20.582Z" fill="white"/>
<path d="M19.4927 20.582C19.4927 19.7197 20.195 19.0176 21.0635 19.0176C21.932 19.0176 22.6393 19.7197 22.6393 20.582C22.6393 21.4442 21.932 22.1414 21.0635 22.1414C20.195 22.1414 19.4927 21.4442 19.4927 20.582Z" fill="white"/>
<path d="M6.93113 22.5619C5.8308 22.5619 4.93604 21.6736 4.93604 20.5813C4.93604 19.4889 5.8308 18.5957 6.93113 18.5957C8.03146 18.5957 8.93122 19.4864 8.93122 20.5813C8.93122 21.6761 8.03396 22.5619 6.93113 22.5619ZM6.93113 19.4387C6.2988 19.4387 5.78456 19.9517 5.78456 20.5819C5.78456 21.2121 6.2988 21.7195 6.93113 21.7195C7.56346 21.7195 8.08269 21.209 8.08269 20.5819C8.08269 19.9548 7.56658 19.4387 6.93113 19.4387Z" fill="#3966AE"/>
<path d="M21.0639 22.5619C19.9636 22.5619 19.0688 21.6736 19.0688 20.5813C19.0688 19.4889 19.9636 18.5957 21.0639 18.5957C22.1643 18.5957 23.064 19.4864 23.064 20.5813C23.064 21.6761 22.1668 22.5619 21.0639 22.5619ZM21.0639 19.4387C20.4316 19.4387 19.9174 19.9517 19.9174 20.5819C19.9174 21.2121 20.4316 21.7195 21.0639 21.7195C21.6963 21.7195 22.2155 21.209 22.2155 20.5819C22.2155 19.9548 21.6994 19.4387 21.0639 19.4387Z" fill="#3966AE"/>
<path d="M14.003 26.2367C11.588 26.2367 9.62354 23.6991 9.62354 20.5803C9.62354 17.4614 11.588 14.9238 14.003 14.9238C16.418 14.9238 18.3756 17.4614 18.3756 20.5803C18.3756 23.6991 16.4142 26.2367 14.003 26.2367ZM14.003 15.7668C12.056 15.7668 10.4727 17.926 10.4727 20.5809C10.4727 23.2357 12.056 25.3944 14.003 25.3944C15.95 25.3944 17.5264 23.2351 17.5264 20.5809C17.5264 17.9267 15.9456 15.7668 14.003 15.7668Z" fill="#3966AE"/>
<path d="M13.9687 23.2703C13.0933 23.2703 12.381 22.5631 12.381 21.6941C12.381 21.4615 12.5709 21.2729 12.8053 21.2729C13.0396 21.2729 13.2295 21.4615 13.2295 21.6941C13.2295 22.0979 13.5607 22.4273 13.9681 22.4273C14.3755 22.4273 14.7066 22.0985 14.7066 21.6941C14.7066 21.2897 14.3755 20.9609 13.9681 20.9609C13.0927 20.9609 12.3804 20.2538 12.3804 19.3848C12.3804 18.5157 13.0921 17.8086 13.9681 17.8086C14.8441 17.8086 15.5558 18.5157 15.5558 19.3848C15.5558 19.6174 15.3658 19.8059 15.1315 19.8059C14.8972 19.8059 14.7072 19.6174 14.7072 19.3848C14.7072 18.9803 14.3761 18.6516 13.9687 18.6516C13.5613 18.6516 13.2301 18.9803 13.2301 19.3848C13.2301 19.7892 13.5613 20.1179 13.9687 20.1179C14.8441 20.1179 15.5564 20.8251 15.5564 21.6941C15.5564 22.5631 14.8447 23.2703 13.9687 23.2703Z" fill="#3966AE"/>
<path d="M13.9687 23.8332C13.7344 23.8332 13.5444 23.6446 13.5444 23.412V22.8196C13.5444 22.587 13.7344 22.3984 13.9687 22.3984C14.203 22.3984 14.393 22.587 14.393 22.8196V23.412C14.393 23.6446 14.203 23.8332 13.9687 23.8332Z" fill="#3966AE"/>
<path d="M13.9687 18.6504C13.7344 18.6504 13.5444 18.4619 13.5444 18.2293V17.6673C13.5444 17.4347 13.7344 17.2461 13.9687 17.2461C14.203 17.2461 14.393 17.4347 14.393 17.6673V18.2293C14.393 18.4619 14.203 18.6504 13.9687 18.6504Z" fill="#3966AE"/>
</g>
<defs>
<clipPath id="clip0_12428_1469">
<rect width="28" height="35" fill="white"/>
</clipPath>
</defs>
</svg>
