<svg width="38" height="41" viewBox="0 0 38 41" fill="none" xmlns="http://www.w3.org/2000/svg">
<path d="M36.9447 18.7347C36.3257 9.2507 28.5216 2.89648 18.9806 2.89648C9.03451 2.89648 0.972168 11.0436 0.972168 21.0946C0.972168 22.0547 1.0537 22.9949 1.1954 23.9146C1.52874 29.4997 4.35418 34.405 8.56377 37.5107C11.5393 39.7055 15.2045 41.0003 19.1703 41.0003C23.1352 41.0003 26.8015 39.7055 29.777 37.5107C34.2629 34.2003 37.1787 27.6999 37.1787 21.6565C37.1787 20.6616 37.0967 19.6863 36.9447 18.7347Z" fill="#0054E5"/>
<path d="M36.879 18.7345C36.879 24.6239 34.0075 29.8423 29.5898 33.0684C26.6594 35.2073 23.0488 36.469 19.1444 36.469C15.2389 36.469 11.6294 35.2072 8.69915 33.0684C4.28036 29.8422 1.40991 24.6239 1.40991 18.7345C1.40991 8.9396 9.34952 1 19.1444 1C28.9384 1 36.879 8.9396 36.879 18.7345Z" fill="white" stroke="#264071" stroke-width="0.86628" stroke-miterlimit="10"/>
<path d="M17.9496 24.8789H16.7988V26.0297H17.9496V24.8789Z" fill="#323333"/>
<path d="M17.9496 21.8096H16.7988V22.9604H17.9496V21.8096Z" fill="#323333"/>
<path d="M24.8545 21.8096H22.9365V22.9604H24.8545V21.8096Z" fill="#323333"/>
<path d="M14.8808 21.8096H13.73V22.9604H14.8808V21.8096Z" fill="#323333"/>
<path d="M21.0185 21.8096H19.8677V22.9604H21.0185V21.8096Z" fill="#323333"/>
<path d="M21.0185 24.8789H19.8677V26.0297H21.0185V24.8789Z" fill="#323333"/>
<path d="M24.8545 18.7412H22.9365V19.892H24.8545V18.7412Z" fill="#323333"/>
<path d="M24.8545 24.8789H22.9365V26.0297H24.8545V24.8789Z" fill="#323333"/>
<path d="M21.0185 18.7412H19.8677V19.892H21.0185V18.7412Z" fill="#323333"/>
<path d="M17.9496 18.7412H16.7988V19.892H17.9496V18.7412Z" fill="#323333"/>
<path d="M14.8808 24.8789H13.73V26.0297H14.8808V24.8789Z" fill="#323333"/>
<path d="M26.3889 17.1183C25.1668 17.1887 24.4633 16.8369 23.7776 16.2741H13.5382C13.4326 16.2741 13.3465 16.1883 13.3465 16.0824V12.4119C13.3465 12.3058 13.4327 12.2201 13.5382 12.2201H22.813C22.9837 11.7901 23.2348 11.401 23.5471 11.0693H12.1956V27.5643H26.3889V17.1183ZM15.2645 26.2216C15.2645 26.3275 15.1791 26.4133 15.0727 26.4133H13.5384C13.4327 26.4133 13.3466 26.3275 13.3466 26.2216V24.6871C13.3466 24.5811 13.4328 24.4954 13.5384 24.4954H15.0727C15.1791 24.4954 15.2645 24.5812 15.2645 24.6871V26.2216ZM15.2645 23.1527C15.2645 23.2587 15.1791 23.3444 15.0727 23.3444H13.5384C13.4327 23.3444 13.3466 23.2586 13.3466 23.1527V21.6184C13.3466 21.5123 13.4328 21.4266 13.5384 21.4266H15.0727C15.1791 21.4266 15.2645 21.5124 15.2645 21.6184V23.1527ZM15.2645 20.0839C15.2645 20.19 15.1791 20.2757 15.0727 20.2757H13.5384C13.4327 20.2757 13.3466 20.1898 13.3466 20.0839V18.5495C13.3466 18.4435 13.4328 18.3577 13.5384 18.3577H15.0727C15.1791 18.3577 15.2645 18.4435 15.2645 18.5495V20.0839ZM18.3334 26.2216C18.3334 26.3275 18.2479 26.4133 18.1416 26.4133H16.6071C16.5015 26.4133 16.4154 26.3275 16.4154 26.2216V24.6871C16.4154 24.5811 16.5016 24.4954 16.6071 24.4954H18.1416C18.248 24.4954 18.3334 24.5812 18.3334 24.6871V26.2216ZM18.3334 23.1527C18.3334 23.2587 18.2479 23.3444 18.1416 23.3444H16.6071C16.5015 23.3444 16.4154 23.2586 16.4154 23.1527V21.6184C16.4154 21.5123 16.5016 21.4266 16.6071 21.4266H18.1416C18.248 21.4266 18.3334 21.5124 18.3334 21.6184V23.1527ZM18.3334 20.0839C18.3334 20.19 18.2479 20.2757 18.1416 20.2757H16.6071C16.5015 20.2757 16.4154 20.1898 16.4154 20.0839V18.5495C16.4154 18.4435 16.5016 18.3577 16.6071 18.3577H18.1416C18.248 18.3577 18.3334 18.4435 18.3334 18.5495V20.0839ZM21.4021 26.2216C21.4021 26.3275 21.3167 26.4133 21.2104 26.4133H19.6759C19.5702 26.4133 19.4842 26.3275 19.4842 26.2216V24.6871C19.4842 24.5811 19.5702 24.4954 19.6759 24.4954H21.2104C21.3168 24.4954 21.4021 24.5812 21.4021 24.6871V26.2216ZM21.4021 23.1527C21.4021 23.2587 21.3167 23.3444 21.2104 23.3444H19.6759C19.5702 23.3444 19.4842 23.2586 19.4842 23.1527V21.6184C19.4842 21.5123 19.5702 21.4266 19.6759 21.4266H21.2104C21.3168 21.4266 21.4021 21.5124 21.4021 21.6184V23.1527ZM21.4021 20.0839C21.4021 20.19 21.3167 20.2757 21.2104 20.2757H19.6759C19.5702 20.2757 19.4842 20.1898 19.4842 20.0839V18.5495C19.4842 18.4435 19.5702 18.3577 19.6759 18.3577H21.2104C21.3168 18.3577 21.4021 18.4435 21.4021 18.5495V20.0839ZM25.2382 26.2216C25.2382 26.3275 25.1527 26.4133 25.0464 26.4133H22.7448C22.6392 26.4133 22.5531 26.3275 22.5531 26.2216V24.6871C22.5531 24.5811 22.6392 24.4954 22.7448 24.4954H25.0464C25.1529 24.4954 25.2382 24.5812 25.2382 24.6871V26.2216ZM25.2382 23.1527C25.2382 23.2587 25.1527 23.3444 25.0464 23.3444H22.7448C22.6392 23.3444 22.5531 23.2586 22.5531 23.1527V21.6184C22.5531 21.5123 22.6392 21.4266 22.7448 21.4266H25.0464C25.1529 21.4266 25.2382 21.5124 25.2382 21.6184V23.1527ZM25.2382 20.0839C25.2382 20.19 25.1527 20.2757 25.0464 20.2757H22.7448C22.6392 20.2757 22.5531 20.1898 22.5531 20.0839V18.5495C22.5531 18.4435 22.6392 18.3577 22.7448 18.3577H25.0464C25.1529 18.3577 25.2382 18.4435 25.2382 18.5495V20.0839Z" fill="#323333"/>
<path d="M14.8808 18.7412H13.73V19.892H14.8808V18.7412Z" fill="#323333"/>
<path d="M23.0811 12.6034C22.9875 12.9069 22.9365 13.2286 22.9365 13.5624C22.9365 14.1966 23.1216 14.7874 23.4362 15.2886C23.5208 15.4231 23.6131 15.5518 23.7157 15.6723C24.3144 16.3752 25.2036 16.8231 26.1972 16.8231C26.2624 16.8231 26.3252 16.8171 26.3889 16.8133C26.4533 16.8096 26.5177 16.8059 26.5807 16.7983C26.6452 16.7908 26.7095 16.7804 26.7725 16.7691C28.2964 16.4961 29.4577 15.1636 29.4577 13.5624C29.4577 11.7644 27.9952 10.3018 26.1971 10.3018C25.6442 10.3018 25.1234 10.4411 24.6664 10.6853C24.5578 10.7433 24.4529 10.8074 24.3518 10.877C24.2649 10.937 24.181 11.001 24.1009 11.0688C23.7307 11.3806 23.4318 11.7736 23.2295 12.2196C23.1727 12.3441 23.1217 12.4713 23.0811 12.6034ZM26.7726 14.0782C26.7171 14.0385 26.6527 14.0003 26.5808 13.9639C26.5209 13.9335 26.4557 13.9043 26.3891 13.8755C26.3036 13.8389 26.2153 13.8028 26.126 13.7674C25.8009 13.6374 25.4487 13.4945 25.2383 13.2736C25.1213 13.1511 25.0465 13.0053 25.0465 12.8222C25.0465 12.6405 25.111 12.472 25.2165 12.3272C25.3867 12.094 25.6706 11.9267 26.0054 11.8793V11.6444C26.0054 11.5384 26.0915 11.4527 26.1972 11.4527C26.3036 11.4527 26.3889 11.5385 26.3889 11.6444V11.8793C26.4556 11.8887 26.5193 11.9037 26.5807 11.922C26.6481 11.942 26.7118 11.967 26.7725 11.9966C27.1149 12.163 27.3479 12.469 27.3479 12.8223C27.3479 12.9282 27.2624 13.0141 27.1561 13.0141C27.0504 13.0141 26.9643 12.9282 26.9643 12.8223C26.9643 12.6777 26.8909 12.547 26.7726 12.4457C26.7179 12.3986 26.6534 12.3586 26.5808 12.327C26.5217 12.3009 26.4572 12.2805 26.3891 12.2673C26.3276 12.2552 26.2639 12.2469 26.1973 12.2469C25.7747 12.2469 25.43 12.505 25.43 12.8223C25.43 13.0759 25.8563 13.2465 26.2685 13.4114C26.3082 13.4273 26.3486 13.4437 26.3892 13.4603C26.4535 13.4864 26.5172 13.5136 26.581 13.5419C26.6469 13.5708 26.7105 13.6015 26.7727 13.634C27.0926 13.7999 27.3481 14.0147 27.3481 14.3568C27.3481 14.7101 27.115 15.0161 26.7727 15.1824C26.712 15.212 26.6483 15.2369 26.581 15.257C26.5195 15.2754 26.4558 15.2904 26.3892 15.2998V15.5342C26.3892 15.6403 26.3037 15.726 26.1974 15.726C26.0918 15.726 26.0057 15.6402 26.0057 15.5342V15.2998C25.6865 15.2546 25.4108 15.1015 25.2385 14.885C25.1179 14.7333 25.0468 14.5519 25.0468 14.3568C25.0468 14.2508 25.1328 14.165 25.2385 14.165C25.3449 14.165 25.4303 14.2508 25.4303 14.3568C25.4303 14.674 25.775 14.9322 26.1976 14.9322C26.2642 14.9322 26.3279 14.9237 26.3893 14.9118C26.4575 14.8985 26.5219 14.8782 26.5811 14.852C26.6538 14.8204 26.7182 14.7805 26.7728 14.7333C26.8913 14.6322 26.9646 14.5015 26.9646 14.3568C26.9645 14.2511 26.8888 14.1604 26.7726 14.0782Z" fill="#323333"/>
</svg>
