<svg width="135" height="169" viewBox="0 0 135 169" fill="none" xmlns="http://www.w3.org/2000/svg">
<g clip-path="url(#clip0_12428_1855)">
<path d="M110.375 112.554C98.0874 124.901 71.7467 139.286 64.3293 131.833C56.9118 124.379 71.227 97.91 83.5143 85.5628C95.8015 73.2157 111.774 69.2497 119.191 76.7033C126.609 84.1569 122.662 100.211 110.375 112.554Z" fill="#E8E8E8"/>
<path d="M70.3765 134.429C67.8144 134.429 65.5321 133.815 63.9403 132.219C59.1831 127.439 63.2099 116.436 66.0336 110.301C70.1766 101.306 76.8854 91.4421 83.1253 85.1717C89.3653 78.9014 96.2121 74.8697 103.044 73.1715C109.975 71.4515 115.848 72.5653 119.573 76.3122C123.302 80.059 124.41 85.9569 122.698 92.9211C121.008 99.7867 116.767 106.897 110.756 112.937C104.516 119.208 94.7003 125.949 85.7492 130.112C81.6862 132 75.4753 134.425 70.3729 134.425L70.3765 134.429ZM109.092 73.4783C107.286 73.4783 105.349 73.7266 103.31 74.2342C96.6664 75.8849 89.7723 80.0444 83.8994 85.9459C77.7431 92.1323 71.1179 101.872 67.0258 110.761C62.4212 120.756 61.5781 128.294 64.7144 131.445C67.8507 134.597 75.3517 133.746 85.2986 129.123C94.1406 125.011 103.833 118.357 109.993 112.167C115.866 106.265 120.005 99.3375 121.648 92.6618C123.265 86.0847 122.259 80.5521 118.81 77.09C116.436 74.7053 113.089 73.4819 109.095 73.4819L109.092 73.4783Z" fill="#ADADAD"/>
<path d="M78.8731 127.472C82.5836 122.187 83.7866 114.595 82.9689 106.922C79.6799 65.9623 23.753 73.7445 29.7059 115.493C29.9784 120.898 31.4031 124.809 33.609 127.632C31.7919 129.13 30.698 131.047 30.698 133.136C30.698 137.927 36.4364 141.809 43.5195 141.809C49.7776 141.809 54.9818 138.778 56.112 134.764C56.2647 134.764 56.4173 134.764 56.57 134.761C57.6966 138.774 62.9044 141.809 69.1625 141.809C76.2419 141.809 81.984 137.927 81.984 133.136C81.984 130.974 80.8101 128.994 78.8731 127.475V127.472Z" fill="#E8E8E8"/>
<path d="M69.1626 142.352C63.1952 142.352 57.991 139.62 56.3411 135.746C54.6912 139.62 49.487 142.352 43.5196 142.352C36.1494 142.352 30.153 138.214 30.153 133.131C30.153 131.108 31.1124 129.143 32.8641 127.551C30.6581 124.52 29.4152 120.484 29.1608 115.543C27.3437 102.736 31.3086 91.605 40.0417 84.9987C48.0187 78.962 58.8814 77.6437 67.7125 81.6316C76.9289 85.7948 82.5401 94.7603 83.5141 106.877C84.379 115.01 82.9907 122.267 79.6073 127.365C81.4971 128.993 82.5292 131.024 82.5292 133.131C82.5292 138.214 76.5328 142.352 69.1626 142.352ZM56.57 134.208C56.8135 134.208 57.028 134.373 57.0934 134.606C58.1727 138.459 63.2497 141.257 69.1626 141.257C75.9295 141.257 81.4389 137.612 81.4389 133.131C81.4389 131.228 80.4105 129.37 78.5388 127.901C78.3099 127.723 78.2626 127.394 78.4298 127.153C81.8714 122.252 83.2924 115.087 82.4311 106.976C81.4898 95.2606 76.1039 86.6201 67.2692 82.6286C58.7942 78.8014 48.364 80.0722 40.6994 85.8715C32.2899 92.2331 28.4776 102.999 30.2475 115.412C30.2475 115.43 30.2511 115.445 30.2511 115.463C30.5018 120.415 31.7775 124.396 34.0416 127.292C34.2233 127.525 34.1869 127.865 33.958 128.055C32.1845 129.516 31.2469 131.272 31.2469 133.135C31.2469 137.616 36.7527 141.26 43.5232 141.26C49.4325 141.26 54.5058 138.466 55.5888 134.614C55.6542 134.38 55.8686 134.216 56.1085 134.216H56.5664C56.5664 134.216 56.5664 134.216 56.57 134.216V134.208Z" fill="#ADADAD"/>
<path d="M55.5159 129.686C24.9704 134.178 30.1927 83.4714 56.9696 84.7788C84.1644 84.3369 86.2359 136.366 55.5159 129.686Z" fill="#CCCCCC"/>
<path d="M118.272 106.199H16.7246C14.9523 106.199 13.5156 107.643 13.5156 109.424V165.247C13.5156 167.028 14.9523 168.472 16.7246 168.472H118.272C120.044 168.472 121.481 167.028 121.481 165.247V109.424C121.481 107.643 120.044 106.199 118.272 106.199Z" fill="#CCCCCC"/>
<path d="M118.275 169H16.7245C14.6639 169 12.9922 167.316 12.9922 165.249V109.422C12.9922 107.352 14.6676 105.672 16.7245 105.672H118.275C120.336 105.672 122.008 107.355 122.008 109.422V165.249C122.008 167.32 120.332 169 118.275 169ZM16.7245 106.727C15.2454 106.727 14.0425 107.936 14.0425 109.422V165.249C14.0425 166.736 15.2454 167.944 16.7245 167.944H118.275C119.754 167.944 120.957 166.736 120.957 165.249V109.422C120.957 107.936 119.754 106.727 118.275 106.727H16.7245Z" fill="#ADADAD"/>
<path d="M38.6096 144.534L44.3771 138.066H40.1759L35.7895 143.223V138.066H32.5332V152.93H35.7895V147.372L36.3237 146.78L40.6339 152.93H44.5552L38.6096 144.534Z" fill="#ADADAD"/>
<path d="M50.7989 141.625C47.4336 141.625 45.0859 144.028 45.0859 147.464C45.0859 150.901 47.3682 153.147 50.6317 153.147C53.3937 153.147 56.3665 151.321 56.3665 147.307C56.3665 143.962 54.077 141.625 50.7989 141.625ZM50.7589 144.393C52.5688 144.393 53.0485 146.336 53.0485 147.366C53.0485 149.111 52.0673 150.379 50.7153 150.379C49.3634 150.379 48.3858 149.13 48.3858 147.406C48.3858 146.018 49.0073 144.393 50.7589 144.393Z" fill="#ADADAD"/>
<path d="M64.0962 141.706C63.8563 141.651 63.6528 141.629 63.3984 141.629C62.5444 141.629 61.7485 141.925 61.1052 142.443L61.0834 141.848H57.958L58.0125 142.63C58.0707 143.437 58.0961 144.346 58.0961 145.58V152.932H61.4032V147.07C61.4032 146.829 61.4396 146.599 61.4759 146.395C61.6322 145.591 62.1919 144.733 63.2894 144.733C63.4856 144.733 63.6346 144.748 63.7836 144.777L64.6522 144.956V141.833L64.0926 141.702L64.0962 141.706Z" fill="#ADADAD"/>
<path d="M72.8691 144.43V147.278H75.7183V150.025C75.3404 150.112 74.7771 150.178 74.032 150.178C71.1029 150.178 69.3512 148.429 69.3512 145.496C69.3512 142.564 71.1865 140.833 74.261 140.833C75.6747 140.833 76.5069 141.11 77.0775 141.351L77.8152 141.665L78.6766 138.875L78.0987 138.609C77.3828 138.28 76.0127 137.926 74.3046 137.926C69.3584 137.926 66.0186 140.997 65.9932 145.577C65.9932 147.804 66.7891 149.82 68.1846 151.109C69.6274 152.428 71.5026 153.07 73.9085 153.07C75.7946 153.07 77.4155 152.65 78.444 152.296L78.9346 152.128V144.434H72.8727L72.8691 144.43Z" fill="#ADADAD"/>
<path d="M85.7233 141.625C82.4998 141.625 80.2466 144.028 80.2466 147.464C80.2466 150.901 82.4344 153.147 85.5634 153.147C88.2091 153.147 91.0584 151.321 91.0584 147.307C91.0584 143.962 88.8633 141.625 85.7233 141.625ZM85.687 144.393C87.3842 144.393 87.8348 146.336 87.8348 147.366C87.8348 149.111 86.9154 150.379 85.6507 150.379C84.3859 150.379 83.4665 149.13 83.4665 147.406C83.4665 146.018 84.048 144.393 85.6906 144.393H85.687Z" fill="#ADADAD"/>
<path d="M102.623 152.138C102.568 151.47 102.543 150.655 102.543 149.571V141.84H99.2646V148.475C99.2646 148.691 99.2247 148.917 99.1593 149.081C98.9121 149.655 98.2798 150.232 97.4148 150.232C96.9206 150.232 95.8957 150.232 95.8957 147.894V141.836H92.6177V148.194C92.6177 151.291 94.1877 153.139 96.8116 153.139C98.0181 153.139 98.9194 152.737 99.5626 152.273L99.6063 152.92H102.692L102.626 152.131L102.623 152.138Z" fill="#ADADAD"/>
<path d="M131.26 128.396H3.73964C1.46826 128.396 -0.0835466 126.252 0.763224 124.284L7.71547 108.08C8.20245 106.944 9.38357 106.199 10.6919 106.199H124.312C125.624 106.199 126.801 106.944 127.288 108.08L134.24 124.284C135.084 126.252 133.532 128.396 131.264 128.396H131.26Z" fill="#999899"/>
<path d="M131.26 128.923H3.73943C2.43475 128.923 1.24636 128.299 0.563129 127.251C-0.069223 126.287 -0.170981 125.129 0.279661 124.074L7.2319 107.87C7.80611 106.533 9.1653 105.668 10.6917 105.668H124.312C125.842 105.668 127.197 106.533 127.771 107.87L134.724 124.074C135.174 125.125 135.072 126.283 134.44 127.251C133.753 128.299 132.565 128.923 131.264 128.923H131.26ZM10.688 106.727C9.5796 106.727 8.59837 107.341 8.19134 108.29L1.23909 124.494C0.930185 125.213 1.00287 126.009 1.43534 126.67C1.92596 127.419 2.78727 127.868 3.73579 127.868H131.26C132.209 127.868 133.07 127.419 133.561 126.67C133.993 126.009 134.066 125.213 133.757 124.494L126.805 108.29C126.398 107.341 125.416 106.727 124.308 106.727H10.688Z" fill="#ADADAD"/>
<path d="M24.0439 118.297C8.9183 112.765 24.5527 81.7196 37.356 85.8828C42.7601 88.1251 45.3549 94.3991 43.1271 99.8295C39.929 107.674 35.7787 123.392 24.0475 118.297H24.0439Z" fill="#E8E8E8"/>
<path d="M28.3976 119.84C26.9512 119.84 25.4284 119.496 23.8403 118.81C16.4338 116.089 16.2884 107.836 18.6179 101.014C21.856 91.5446 30.2256 82.9918 37.5194 85.3655C37.534 85.3692 37.5449 85.3765 37.5594 85.3801C43.2542 87.7429 45.9762 94.32 43.6249 100.043C43.2579 100.941 42.8763 101.953 42.4729 103.023C40.2705 108.847 37.2578 116.827 31.7592 119.164C30.6944 119.617 29.5714 119.843 28.3976 119.843V119.84ZM34.9319 86.0521C28.8337 86.0521 22.383 93.3851 19.6537 101.368C17.4877 107.704 17.5531 115.344 24.2291 117.784C24.24 117.784 24.2509 117.791 24.2582 117.795C26.893 118.938 29.2044 119.054 31.334 118.149C36.4037 115.994 39.322 108.27 41.4553 102.628C41.8623 101.551 42.2475 100.536 42.6182 99.619C44.737 94.4624 42.2912 88.5354 37.1633 86.3953C36.4292 86.158 35.6805 86.0484 34.9282 86.0484L34.9319 86.0521Z" fill="#ADADAD"/>
<path d="M88.6387 118.297C103.764 112.765 88.1299 81.7196 75.3266 85.8828C69.9225 88.1251 67.3277 94.3991 69.5555 99.8295C72.7536 107.674 76.9038 123.392 88.6351 118.297H88.6387Z" fill="#E8E8E8"/>
<path d="M84.2847 119.84C83.1109 119.84 81.9879 119.613 80.9231 119.16C75.4245 116.823 72.4081 108.847 70.2095 103.019C69.8061 101.949 69.4245 100.937 69.0574 100.035C66.7097 94.3162 69.4281 87.7391 75.1229 85.3763C75.1374 85.3727 75.1483 85.3654 75.1629 85.3617C82.4604 82.988 90.8263 91.5371 94.0644 101.01C96.3976 107.832 96.2486 116.089 88.842 118.806C87.2539 119.493 85.7312 119.836 84.2847 119.836V119.84ZM75.5154 86.3989C70.3912 88.5389 67.9453 94.466 70.0604 99.6225C70.4348 100.539 70.8164 101.554 71.227 102.632C73.3567 108.274 76.2786 115.998 81.3483 118.152C83.4779 119.058 85.7929 118.941 88.4241 117.798C88.435 117.794 88.4423 117.791 88.4532 117.787C95.1329 115.344 95.1983 107.704 93.0287 101.368C89.9614 92.399 82.1914 84.2479 75.5154 86.3989Z" fill="#ADADAD"/>
<path d="M14.3696 45.2811C19.251 45.2811 23.208 41.5893 23.208 37.0351C23.208 32.4809 19.251 28.7891 14.3696 28.7891C9.48834 28.7891 5.53125 32.4809 5.53125 37.0351C5.53125 41.5893 9.48834 45.2811 14.3696 45.2811Z" fill="#E8E8E8"/>
<path d="M14.3696 45.8298C9.19447 45.8298 4.98242 41.8858 4.98242 37.036C4.98242 32.1863 9.19084 28.2422 14.3696 28.2422C19.5483 28.2422 23.7531 32.1863 23.7531 37.036C23.7531 41.8858 19.5447 45.8298 14.3696 45.8298ZM14.3696 29.3378C9.79412 29.3378 6.07268 32.7925 6.07268 37.036C6.07268 41.2796 9.79412 44.7343 14.3696 44.7343C18.9451 44.7343 22.6629 41.2796 22.6629 37.036C22.6629 32.7925 18.9414 29.3378 14.3696 29.3378Z" fill="#ADADAD"/>
<path d="M14.3694 42.1749C11.2004 42.1749 8.62012 39.8706 8.62012 37.0367C8.62012 34.2028 11.2004 31.8984 14.3694 31.8984C17.5385 31.8984 20.1188 34.2028 20.1188 37.0367C20.1188 39.8706 17.5385 42.1749 14.3694 42.1749Z" fill="#CCCCCC"/>
<path d="M98.3125 45.2811C103.194 45.2811 107.151 41.5893 107.151 37.0351C107.151 32.4809 103.194 28.7891 98.3125 28.7891C93.4312 28.7891 89.4741 32.4809 89.4741 37.0351C89.4741 41.5893 93.4312 45.2811 98.3125 45.2811Z" fill="#E8E8E8"/>
<path d="M98.3125 45.8298C93.1373 45.8298 88.9253 41.8858 88.9253 37.036C88.9253 32.1863 93.1337 28.2422 98.3125 28.2422C103.491 28.2422 107.696 32.1863 107.696 37.036C107.696 41.8858 103.488 45.8298 98.3125 45.8298ZM98.3125 29.3378C93.737 29.3378 90.0156 32.7925 90.0156 37.036C90.0156 41.2796 93.737 44.7343 98.3125 44.7343C102.888 44.7343 106.606 41.2796 106.606 37.036C106.606 32.7925 102.884 29.3378 98.3125 29.3378Z" fill="#ADADAD"/>
<path d="M98.3123 42.1749C101.481 42.1749 104.062 39.8706 104.062 37.0367C104.062 34.2028 101.481 31.8984 98.3123 31.8984C95.1433 31.8984 92.563 34.2028 92.563 37.0367C92.563 39.8706 95.1433 42.1749 98.3123 42.1749Z" fill="#CCCCCC"/>
<path d="M102.103 47.5508C120.361 112.153 -7.69744 112.139 10.5754 47.5508C9.12532 0.34243 103.557 0.34243 102.103 47.5508Z" fill="#E8E8E8"/>
<path d="M56.3409 96.545H56.3337C43.5594 96.545 31.2649 93.0099 22.6046 86.8491C9.89572 77.8106 5.43291 63.8311 10.0302 47.4777C9.60135 32.3296 18.6978 23.6855 26.4132 19.1023C43.196 9.13256 69.4859 9.13256 86.2686 19.1023C93.9841 23.6855 103.08 32.3296 102.652 47.4777C107.245 63.8347 102.779 77.8143 90.0628 86.8528C81.4024 93.0099 69.1115 96.5413 56.3409 96.5413V96.545ZM56.3409 12.7114C45.7726 12.7114 35.2044 15.1582 26.9692 20.0482C19.49 24.4889 10.6734 32.8628 11.1241 47.5289C11.1241 47.5836 11.1204 47.6421 11.1023 47.6969C6.60312 63.601 10.9133 77.1898 23.2369 85.9544C32.2061 92.3343 44.2753 95.5261 56.3409 95.5261C68.4029 95.5261 80.4648 92.338 89.434 85.958C101.761 77.1934 106.075 63.6046 101.58 47.6969C101.565 47.6421 101.558 47.5873 101.558 47.5289C102.008 32.8591 93.1918 24.4852 85.7126 20.0445C77.4775 15.1509 66.9092 12.7041 56.3409 12.7041V12.7114Z" fill="#ADADAD"/>
<path d="M66.4515 24.4625C65.6229 27.2526 62.0359 30.1048 57.7075 28.8704C59.0704 28.0487 60.2224 26.6354 60.2188 24.9738C59.1758 15.8732 47.281 24.3055 54.971 28.8741C50.6354 30.0975 47.0557 27.2563 46.2271 24.4625C43.2507 32.4018 69.4242 32.4018 66.4515 24.4625ZM53.4919 24.7109C54.0443 20.5915 59.2921 21.2123 59.1867 25.2368C58.6343 29.3561 53.3865 28.7353 53.4919 24.7109Z" fill="#CCCCCC"/>
<path d="M45.751 10.8757C42.8073 13.1545 34.3904 14.3633 34.6812 10.0978C34.6812 10.0577 34.6812 10.0211 34.6812 9.98097C34.3904 5.71918 42.8073 6.92431 45.751 9.20311C46.3761 9.68881 46.3761 10.39 45.751 10.872V10.8757Z" fill="#E8E8E8"/>
<path d="M38.7625 13.4398C37.5777 13.4398 36.4983 13.2499 35.6988 12.8226C34.6195 12.2419 34.0925 11.2888 34.1761 10.0654C34.1761 10.0508 34.1761 10.0325 34.1761 10.0179C34.0925 8.79453 34.6195 7.84137 35.6988 7.26072C38.2428 5.8949 43.6904 6.97222 46.0599 8.80548C46.4888 9.13781 46.725 9.57604 46.725 10.0435C46.725 10.5109 46.4888 10.9492 46.0599 11.2815C44.4355 12.5414 41.3573 13.4434 38.7625 13.4434V13.4398ZM38.7806 7.64052C37.763 7.64052 36.8472 7.79755 36.1785 8.15544C35.4553 8.54254 35.1319 9.1305 35.1864 9.94853C35.19 10.0106 35.19 10.0727 35.1864 10.1311C35.1319 10.9528 35.4553 11.5371 36.1785 11.9279C38.3845 13.1147 43.3488 12.0959 45.4458 10.4744C45.6202 10.3393 45.7183 10.1859 45.7183 10.0398C45.7183 9.89375 45.6202 9.74402 45.4458 9.60525C43.9848 8.47316 41.1247 7.63687 38.7806 7.63687V7.64052Z" fill="#ADADAD"/>
<path d="M45.0348 10.9894C41.3497 10.5074 34.5501 5.38372 37.7518 2.5754C37.7809 2.54983 37.81 2.52062 37.8354 2.4914C40.6301 -0.729593 45.7326 6.10315 46.2123 9.80986C46.314 10.5987 45.8198 11.0917 45.0384 10.9894H45.0348Z" fill="#CCCCCC"/>
<path d="M45.2311 11.5072C45.1439 11.5072 45.0567 11.4999 44.9694 11.4889C42.0039 11.1018 37.3921 7.99402 36.5563 5.22221C36.2001 4.04629 36.4981 2.99454 37.4176 2.19111C37.4285 2.18381 37.4394 2.1692 37.4503 2.15825C38.2534 1.23431 39.2964 0.934852 40.4667 1.28909C43.225 2.12903 46.3214 6.76332 46.7066 9.74329C46.7757 10.2838 46.6339 10.7622 46.3068 11.0908C46.0343 11.3647 45.6563 11.5108 45.2275 11.5108L45.2311 11.5072ZM39.5472 2.15825C39.0384 2.15825 38.5987 2.37736 38.2135 2.8229C38.1735 2.86672 38.1299 2.91054 38.0863 2.95071C37.4684 3.4912 37.2867 4.13759 37.523 4.9264C38.2498 7.32937 42.4727 10.1413 45.1003 10.4846C45.322 10.5138 45.4964 10.4737 45.5982 10.3714C45.6999 10.2692 45.7399 10.0939 45.7108 9.87111C45.3692 7.23442 42.5745 2.98723 40.1796 2.25685C39.9579 2.19111 39.7507 2.15459 39.5508 2.15459L39.5472 2.15825Z" fill="#ADADAD"/>
<path d="M45.0353 9.09149C41.3502 9.57355 34.5506 14.6972 37.7523 17.5055C37.7814 17.5311 37.8105 17.5603 37.8359 17.5895C40.6306 20.8105 45.733 13.9778 46.2128 10.2711C46.3145 9.48225 45.8203 8.98924 45.0389 9.09149H45.0353Z" fill="#CCCCCC"/>
<path d="M39.5403 18.937C38.7444 18.937 38.0358 18.5937 37.4543 17.9218C37.4434 17.9108 37.4325 17.8962 37.4179 17.8853C36.5021 17.0818 36.2005 16.0337 36.5566 14.8542C37.3925 12.0824 42.0043 8.97458 44.9698 8.58747C45.5077 8.51809 45.9838 8.66051 46.3109 8.98919C46.6379 9.31786 46.7797 9.79626 46.7106 10.3367C46.3254 13.3167 43.2327 17.951 40.4707 18.7909C40.1509 18.8895 39.8383 18.937 39.5403 18.937ZM45.2315 9.5881C45.1879 9.5881 45.1443 9.5881 45.097 9.5954C42.4731 9.93869 38.2465 12.747 37.5197 15.1536C37.2835 15.9424 37.4652 16.5888 38.0794 17.1293C38.1266 17.1731 38.1702 17.2133 38.2102 17.2608C38.7481 17.878 39.3877 18.0642 40.1727 17.8232C42.564 17.0965 45.3623 12.8493 45.7039 10.2089C45.733 9.98616 45.693 9.81087 45.5913 9.70861C45.5113 9.62827 45.3841 9.5881 45.2279 9.5881H45.2315Z" fill="#ADADAD"/>
<path d="M70.8234 12.7616C63.4387 20.1896 42.3312 24.1227 43.0544 10.2308C43.0617 10.1066 43.0617 9.9788 43.0544 9.85098C42.3276 -4.04093 63.4387 -0.107813 70.8234 7.3202C72.3934 8.89783 72.3934 11.1803 70.8234 12.7616Z" fill="#CCCCCC"/>
<path d="M53.3647 20.0832C51.1914 20.0832 49.1454 19.7363 47.4009 18.9584C43.9739 17.4246 42.2767 14.3972 42.4948 10.2048C42.4984 10.0989 42.4984 9.98931 42.4948 9.8834C42.2767 5.68735 43.9703 2.6599 47.3973 1.1261C54.3205 -1.97073 66.0881 1.76518 71.2159 6.9217C73.0112 8.7294 73.0112 11.3515 71.2159 13.1592C67.3782 17.0193 59.819 20.0832 53.3611 20.0832H53.3647ZM53.3102 1.1407C51.3005 1.1407 49.4252 1.45477 47.8552 2.15594C44.8461 3.5035 43.4179 6.08175 43.6141 9.82497C43.6214 9.97105 43.6214 10.1171 43.6141 10.2632C43.4179 14.0064 44.8461 16.5847 47.8552 17.9322C54.2042 20.7734 65.572 17.2457 70.4237 12.3667C71.7829 11.0009 71.7829 9.09094 70.4237 7.72147C66.7713 4.04763 59.4265 1.1407 53.3065 1.1407H53.3102Z" fill="#ADADAD"/>
<path d="M28.0559 77.3969C20.6021 77.3969 14.5366 71.3018 14.5366 63.8117C14.5366 56.3216 20.6021 50.2266 28.0559 50.2266C35.5096 50.2266 41.5751 56.3216 41.5751 63.8117C41.5751 71.3018 35.5096 77.3969 28.0559 77.3969Z" fill="#DDDDDD"/>
<path d="M84.6223 77.3969C77.1685 77.3969 71.103 71.3018 71.103 63.8117C71.103 56.3216 77.1685 50.2266 84.6223 50.2266C92.0761 50.2266 98.1416 56.3216 98.1416 63.8117C98.1416 71.3018 92.0761 77.3969 84.6223 77.3969Z" fill="#DDDDDD"/>
<path d="M40.7505 60.023C32.5481 60.023 25.8721 53.3144 25.8721 45.0721C25.8721 36.8297 32.5481 30.1211 40.7505 30.1211C48.9529 30.1211 55.629 36.8297 55.629 45.0721C55.629 53.3144 48.9529 60.023 40.7505 60.023ZM40.7505 33.364C34.3252 33.364 29.0992 38.6155 29.0992 45.0721C29.0992 51.5287 34.3252 56.7801 40.7505 56.7801C47.1758 56.7801 52.4018 51.5287 52.4018 45.0721C52.4018 38.6155 47.1758 33.364 40.7505 33.364Z" fill="#F7F7F7"/>
<path d="M71.9283 60.023C63.7259 60.023 57.0498 53.3144 57.0498 45.0721C57.0498 36.8297 63.7259 30.1211 71.9283 30.1211C80.1307 30.1211 86.8067 36.8297 86.8067 45.0721C86.8067 53.3144 80.1307 60.023 71.9283 60.023ZM71.9283 33.364C65.503 33.364 60.277 38.6155 60.277 45.0721C60.277 51.5287 65.503 56.7801 71.9283 56.7801C78.3535 56.7801 83.5795 51.5287 83.5795 45.0721C83.5795 38.6155 78.3535 33.364 71.9283 33.364Z" fill="#F7F7F7"/>
<path d="M58.6053 46.6921H54.117C53.2266 46.6921 52.5034 45.9654 52.5034 45.0707C52.5034 44.1759 53.2266 43.4492 54.117 43.4492H58.6053C59.4956 43.4492 60.2188 44.1759 60.2188 45.0707C60.2188 45.9654 59.4956 46.6921 58.6053 46.6921Z" fill="#F7F7F7"/>
<path d="M42.4582 49.1919C44.4092 49.1919 45.9907 46.9585 45.9907 44.2034C45.9907 41.4483 44.4092 39.2148 42.4582 39.2148C40.5073 39.2148 38.9258 41.4483 38.9258 44.2034C38.9258 46.9585 40.5073 49.1919 42.4582 49.1919Z" fill="#ADADAD"/>
<path d="M70.22 49.1919C72.1709 49.1919 73.7524 46.9585 73.7524 44.2034C73.7524 41.4483 72.1709 39.2148 70.22 39.2148C68.269 39.2148 66.6875 41.4483 66.6875 44.2034C66.6875 46.9585 68.269 49.1919 70.22 49.1919Z" fill="#ADADAD"/>
<path d="M67.4981 54.202C67.4981 56.9848 63.217 65.4646 56.3374 65.4646C49.4579 65.4646 45.1768 56.9812 45.1768 54.202C45.1768 51.4229 49.4579 45.3242 56.3374 45.3242C63.217 45.3242 67.4981 51.4193 67.4981 54.202Z" fill="#ADADAD"/>
<path d="M66.6873 71.491C66.6873 78.0316 62.0537 83.3342 56.3407 83.3342C50.6278 83.3342 45.9941 78.0316 45.9941 71.491C45.9941 64.9504 50.6278 68.7849 56.3407 68.7849C62.0537 68.7849 66.6873 64.9504 66.6873 71.491Z" fill="#DDDDDD"/>
<path d="M56.3409 83.8836C50.3336 83.8836 45.4492 78.3254 45.4492 71.4927C45.4492 69.5791 45.8308 68.3776 46.6485 67.7129C47.8151 66.7634 49.5995 67.1469 51.6637 67.5924C53.0738 67.8955 54.6692 68.2388 56.3409 68.2388C58.0127 68.2388 59.6081 67.8955 61.0182 67.5924C63.0824 67.1469 64.8668 66.7634 66.0334 67.7129C66.8511 68.3776 67.2327 69.5791 67.2327 71.4927C67.2327 78.3254 62.3447 83.8836 56.3409 83.8836ZM48.5928 68.2132C48.0695 68.2132 47.6443 68.3118 47.3354 68.5638C46.8011 68.9984 46.5395 69.9552 46.5395 71.4927C46.5395 77.7228 50.9369 82.7881 56.3409 82.7881C61.745 82.7881 66.1424 77.7192 66.1424 71.4927C66.1424 69.9552 65.8807 68.9984 65.3465 68.5638C64.5833 67.943 63.1078 68.2607 61.2435 68.6624C59.7825 68.9765 58.1253 69.3344 56.3373 69.3344C54.5493 69.3344 52.8957 68.9765 51.4311 68.6624C50.3227 68.425 49.3524 68.2132 48.5892 68.2132H48.5928Z" fill="#ADADAD"/>
<mask id="mask0_12428_1855" style="mask-type:luminance" maskUnits="userSpaceOnUse" x="45" y="68" width="22" height="16">
<path d="M66.6873 71.9754C66.6873 78.5159 62.0537 83.8185 56.3407 83.8185C50.6278 83.8185 45.9941 78.5159 45.9941 71.9754C45.9941 65.4348 50.6278 69.2693 56.3407 69.2693C62.0537 69.2693 66.6873 65.4348 66.6873 71.9754Z" fill="white"/>
</mask>
<g mask="url(#mask0_12428_1855)">
<path d="M56.824 90.3105C64.1279 90.3105 70.0489 87.4034 70.0489 83.8173C70.0489 80.2313 64.1279 77.3242 56.824 77.3242C49.5201 77.3242 43.5991 80.2313 43.5991 83.8173C43.5991 87.4034 49.5201 90.3105 56.824 90.3105Z" fill="#CCCCCC"/>
<path d="M56.824 90.8592C49.1049 90.8592 43.0576 87.766 43.0576 83.8182C43.0576 79.8705 49.1049 76.7773 56.824 76.7773C64.5431 76.7773 70.594 79.8705 70.594 83.8182C70.594 87.766 64.5467 90.8592 56.824 90.8592ZM56.824 77.8729C49.9517 77.8729 44.1479 80.5936 44.1479 83.8182C44.1479 87.0429 49.9553 89.7636 56.824 89.7636C63.6927 89.7636 69.5038 87.0429 69.5038 83.8182C69.5038 80.5936 63.6963 77.8729 56.824 77.8729Z" fill="#ADADAD"/>
<path d="M60.451 68.2973C59.4444 67.8883 58.1433 67.9686 57.0422 67.9504C55.3123 68.0344 53.6006 67.6984 52.0669 68.3996C51.2492 68.8122 51.4019 70.2839 51.54 71.2334C51.7289 72.7198 52.2305 74.6443 54.0076 74.5457C54.6945 74.5275 55.3886 74.1367 55.981 73.9833C57.1003 73.735 58.1142 74.9219 59.4008 74.4435C60.7418 73.998 60.9308 72.3911 61.1415 71.1568C61.2469 70.1452 61.4977 68.8086 60.5019 68.3229L60.451 68.2973Z" fill="#E8E8E8"/>
<path d="M58.7683 75.1093C58.2159 75.1093 57.7181 74.9194 57.2856 74.7587C56.8386 74.5907 56.4497 74.441 56.0972 74.5213C55.9409 74.5615 55.7374 74.6382 55.523 74.7185C55.0723 74.8901 54.5599 75.0837 54.0184 75.0983C52.3467 75.1896 51.3255 73.9151 50.9948 71.3076C50.8748 70.4859 50.5877 68.5358 51.8161 67.915C53.0408 67.3562 54.3201 67.3818 55.5593 67.411C56.0354 67.422 56.5297 67.4329 57.0094 67.411C57.2238 67.411 57.4128 67.411 57.6018 67.411C58.5903 67.411 59.7132 67.411 60.6509 67.7945C60.6618 67.7981 60.6727 67.8018 60.6799 67.8091L60.7308 67.8346C61.9955 68.4518 61.8211 69.9637 61.7084 70.9643L61.6394 71.4756C61.4286 72.7282 61.1415 74.4483 59.5679 74.9705C59.2917 75.0727 59.0227 75.1166 58.7647 75.1166L58.7683 75.1093ZM56.3043 73.4038C56.8059 73.4038 57.2601 73.5755 57.6744 73.7325C58.2268 73.9406 58.7029 74.1196 59.2117 73.9297C60.182 73.6083 60.3892 72.374 60.5709 71.2894L60.6327 70.8329C60.749 69.814 60.7926 69.0726 60.2656 68.817L60.2366 68.8024C59.4988 68.5066 58.5394 68.5066 57.609 68.5066C57.4128 68.5066 57.2238 68.5066 57.0348 68.5066C56.5515 68.5321 56.039 68.5212 55.5412 68.5066C54.3746 68.481 53.2698 68.4591 52.2958 68.9046C52.0741 69.0179 51.8415 69.5072 52.085 71.1615C52.4194 73.7873 53.3243 74.0465 53.9821 74.0064C54.3528 73.9954 54.7562 73.842 55.1487 73.696C55.3776 73.6083 55.6175 73.5207 55.8464 73.4586C56.0027 73.4221 56.1553 73.4075 56.3043 73.4075V73.4038Z" fill="#ADADAD"/>
<path d="M56.3405 74.5319C56.0389 74.5319 55.7954 74.2872 55.7954 73.9841V67.9658C55.7954 67.6626 56.0389 67.418 56.3405 67.418C56.6422 67.418 56.8857 67.6626 56.8857 67.9658V73.9841C56.8857 74.2872 56.6422 74.5319 56.3405 74.5319Z" fill="#ADADAD"/>
</g>
<path d="M56.3409 83.8836C50.3336 83.8836 45.4492 78.3254 45.4492 71.4927C45.4492 69.5791 45.8308 68.3776 46.6485 67.7129C47.8151 66.7634 49.5995 67.1469 51.6637 67.5924C53.0738 67.8955 54.6692 68.2388 56.3409 68.2388C58.0127 68.2388 59.6081 67.8955 61.0182 67.5924C63.0824 67.1469 64.8668 66.7634 66.0334 67.7129C66.8511 68.3776 67.2327 69.5791 67.2327 71.4927C67.2327 78.3254 62.3447 83.8836 56.3409 83.8836ZM48.5928 68.2132C48.0695 68.2132 47.6443 68.3118 47.3354 68.5638C46.8011 68.9984 46.5395 69.9552 46.5395 71.4927C46.5395 77.7228 50.9369 82.7881 56.3409 82.7881C61.745 82.7881 66.1424 77.7192 66.1424 71.4927C66.1424 69.9552 65.8807 68.9984 65.3465 68.5638C64.5833 67.943 63.1078 68.2607 61.2435 68.6624C59.7825 68.9765 58.1253 69.3344 56.3373 69.3344C54.5493 69.3344 52.8957 68.9765 51.4311 68.6624C50.3227 68.425 49.3524 68.2132 48.5892 68.2132H48.5928Z" fill="#ADADAD"/>
</g>
<defs>
<clipPath id="clip0_12428_1855">
<rect width="135" height="169" fill="white"/>
</clipPath>
</defs>
</svg>
