<svg width="24" height="24" viewBox="0 0 24 24" fill="none" xmlns="http://www.w3.org/2000/svg">
<g id="icon/bell/white">
<path id="Vector" d="M20.9743 13.3831L19.391 7.68645C18.9269 6.01756 17.9182 4.55169 16.5254 3.52184C15.1326 2.49199 13.4355 1.95727 11.7038 2.00267C9.97222 2.04807 8.30546 2.67099 6.9685 3.7724C5.63155 4.87382 4.70112 6.39053 4.32512 8.08145L3.09928 13.5939C2.96388 14.2031 2.96701 14.8348 3.10845 15.4425C3.24988 16.0503 3.52601 16.6185 3.91644 17.1052C4.30687 17.592 4.80164 17.9848 5.36421 18.2547C5.92679 18.5247 6.5428 18.6648 7.16678 18.6648H8.09512C8.28638 19.6067 8.79739 20.4535 9.54157 21.0618C10.2857 21.67 11.2173 22.0023 12.1785 22.0023C13.1396 22.0023 14.0712 21.67 14.8153 21.0618C15.5595 20.4535 16.0705 19.6067 16.2618 18.6648H16.9601C17.6025 18.6648 18.2361 18.5164 18.8116 18.231C19.387 17.9456 19.8887 17.531 20.2775 17.0197C20.6662 16.5083 20.9314 15.914 21.0525 15.2831C21.1735 14.6523 21.147 14.002 20.9751 13.3831H20.9743ZM12.1785 20.3314C11.6632 20.3293 11.1613 20.168 10.7412 19.8697C10.3211 19.5714 10.0035 19.1505 9.83178 18.6648H14.5251C14.3534 19.1505 14.0358 19.5714 13.6157 19.8697C13.1956 20.168 12.6937 20.3293 12.1785 20.3314ZM18.9501 16.0106C18.7179 16.3187 18.4171 16.5683 18.0715 16.7397C17.7259 16.9112 17.3451 16.9996 16.9593 16.9981H7.16678C6.79244 16.998 6.42289 16.9139 6.0854 16.7519C5.74792 16.5899 5.45112 16.3542 5.21692 16.0622C4.98272 15.7702 4.81709 15.4293 4.73225 15.0647C4.64742 14.7 4.64555 14.321 4.72679 13.9556L5.95178 8.44228C6.24708 7.11412 6.97787 5.92278 8.028 5.05766C9.07812 4.19253 10.3873 3.70326 11.7474 3.66763C13.1076 3.63199 14.4406 4.05205 15.5345 4.86101C16.6285 5.66996 17.4207 6.8214 17.7851 8.13228L19.3685 13.8289C19.4731 14.2001 19.4897 14.5905 19.4171 14.9692C19.3445 15.3479 19.1846 15.7045 18.9501 16.0106Z" fill="white"/>
</g>
</svg>
