<svg width="36" height="36" viewBox="0 0 36 36" fill="none" xmlns="http://www.w3.org/2000/svg">
<g clip-path="url(#clip0_12215_787)">
<path d="M30.6843 21.5067C30.5569 21.362 30.337 21.3504 30.1981 21.4778C30.0534 21.6051 30.0418 21.825 30.1692 21.9697C30.6843 22.5485 31.0489 23.2488 31.2283 23.9896C31.2688 24.1516 31.4077 24.2558 31.564 24.2558C31.5929 24.2558 31.6161 24.2558 31.645 24.2442C31.8302 24.1979 31.946 24.0127 31.8997 23.8275C31.6971 22.971 31.2746 22.1723 30.6843 21.5067Z" fill="#362631"/>
<path d="M35.673 17.9995C35.673 15.6671 35.2679 13.4157 34.4634 11.3148C33.8904 9.81579 33.1207 8.41519 32.1773 7.15349L31.5291 6.33743C31.3613 6.13487 31.1876 5.93809 31.014 5.7471C27.6282 2.09512 22.8245 0 17.8414 0C12.8583 0 8.06033 2.09512 4.67458 5.7471C4.49516 5.93809 4.32732 6.13487 4.1537 6.33743L3.50548 7.15349C2.5621 8.41519 1.79814 9.81579 1.21938 11.3148C0.414898 13.4157 0.00976562 15.6671 0.00976562 17.9995C0.00976562 18.9081 0.00976562 21.3273 0.60589 23.4803C1.0226 24.9735 1.45088 26.27 1.96598 27.5606C1.96598 27.5838 1.97755 27.6127 1.97755 27.6358C2.3769 29.5052 3.4997 31.8608 5.09129 33.0936C5.76265 33.6144 6.52083 33.9386 7.33688 33.9386C7.39476 33.9386 7.45263 33.9386 7.51051 33.9386L8.0314 33.9096L7.16904 18.202L6.64816 18.231C5.23019 18.3062 4.11897 19.3422 3.32028 20.656C3.22768 19.8457 3.21031 19.0528 3.21031 18.3352C3.21031 14.7584 4.36784 11.9341 6.96648 9.16179C9.78504 6.15223 14.4325 5.12204 17.8356 5.15676H17.8472C20.6715 5.11625 25.8167 6.33165 28.4732 9.16179C31.2224 12.0961 32.5072 15.0767 32.5072 18.5435C32.5072 19.2207 32.4898 19.973 32.4088 20.737C31.6101 19.3885 30.4815 18.312 29.0346 18.231L28.5138 18.202L27.6514 33.9096L28.1723 33.9386C28.2302 33.9386 28.288 33.9386 28.3459 33.9386C29.1678 33.9386 29.9201 33.6144 30.5915 33.0936C32.1889 31.855 33.3059 29.4995 33.7052 27.6301C33.7052 27.6069 33.7168 27.578 33.7168 27.5548C34.2261 26.27 34.6602 24.9678 35.0769 23.4746C35.673 21.3216 35.673 18.9081 35.673 17.9937V17.9995ZM6.19672 19.3653L6.93754 32.8621C6.10412 32.6942 5.32858 32.0402 4.68616 31.1779C3.86432 30.0782 3.25662 28.6371 2.99617 27.4159C2.85727 26.7619 2.82255 25.7722 2.87463 25.1993C3.06562 23.0058 4.39099 19.9557 6.19094 19.3653H6.19672ZM2.17433 18.3352C2.17433 19.5043 2.22063 20.8759 2.55631 22.236C2.27272 22.9652 2.07016 23.7061 1.94862 24.3543C1.83286 23.9839 1.7229 23.6019 1.61293 23.2025C1.05732 21.1884 1.05732 18.8734 1.05732 17.9995C1.05732 15.7944 1.43931 13.6646 2.19748 11.6852C2.72994 10.2962 3.43603 8.99974 4.30417 7.82485C4.78455 8.21262 5.27649 8.57724 5.79159 8.91871C3.29713 11.7489 2.18012 14.6774 2.18012 18.3352H2.17433ZM29.6134 7.74382C29.3935 7.88273 29.1678 8.01584 28.942 8.15475C25.9093 5.20306 20.7352 4.12078 17.9861 4.12078C17.9398 4.12078 17.8935 4.12078 17.8472 4.12078C17.7893 4.12078 17.7256 4.12078 17.6678 4.12078C14.1778 4.12078 9.53039 5.17991 6.51504 8.14896C5.97101 7.8017 5.45012 7.41393 4.95239 7.0088C5.10865 6.82359 5.27649 6.63839 5.43855 6.45897C8.62752 3.01535 13.1476 1.04177 17.8472 1.04177C22.5467 1.04177 27.0668 3.01535 30.2558 6.45897C30.4179 6.6326 30.5799 6.81781 30.7362 6.99722C30.6783 7.04352 30.6147 7.08982 30.5452 7.13034C30.2442 7.34448 29.9259 7.54705 29.6134 7.74382ZM31.0024 31.1721C30.3542 32.0402 29.5845 32.6942 28.751 32.8621L29.4919 19.3653C30.5973 19.73 31.5233 21.0148 32.1194 22.4675C32.1194 22.5833 32.1657 22.6932 32.241 22.78C32.5477 23.5961 32.7445 24.4469 32.8082 25.1993C32.8602 25.778 32.8255 26.7619 32.6866 27.4159C32.4262 28.6313 31.8185 30.0724 31.0024 31.1721ZM34.0756 23.2025C33.9657 23.6019 33.8557 23.9839 33.74 24.3543C33.63 23.7408 33.4448 23.0578 33.1844 22.3691C33.5027 21.038 33.549 19.6895 33.549 18.5435C33.549 15.0362 32.2757 11.8878 29.6713 8.93028C30.2558 8.57724 30.8346 8.21841 31.3844 7.81328C32.2525 8.98816 32.9644 10.2904 33.4969 11.6852C34.2551 13.6703 34.637 15.7944 34.637 17.9995C34.637 18.8734 34.637 21.1827 34.0814 23.2025H34.0756Z" fill="black"/>
<path d="M4.04953 24.2442C4.04953 24.2442 4.10162 24.2558 4.13056 24.2558C4.28682 24.2558 4.43151 24.1458 4.46624 23.9896C4.63987 23.243 5.01028 22.5485 5.52537 21.9697C5.6527 21.825 5.64113 21.6051 5.49644 21.4778C5.35175 21.3504 5.13182 21.362 5.01028 21.5067C4.41994 22.1723 3.99744 22.971 3.79488 23.8275C3.74858 24.0127 3.86433 24.1979 4.04953 24.2442Z" fill="#362631"/>
<path d="M27.7551 17.0038L27.0085 16.9633C25.932 16.9112 25.0118 17.7273 24.9539 18.8038L24.1784 32.914C24.1495 33.4348 24.3231 33.9326 24.6704 34.3203C25.0176 34.7081 25.498 34.9396 26.0131 34.9686L26.7597 35.0091C26.7944 35.0091 26.8291 35.0091 26.8696 35.0091C27.8941 35.0091 28.7564 34.2046 28.8143 33.1686L29.5898 19.0584C29.6477 17.9877 28.8259 17.0617 27.7494 17.0038H27.7551Z" fill="#F04488" stroke="black" stroke-width="1.15752" stroke-miterlimit="10"/>
<path d="M11.5094 32.9135L10.7339 18.8033C10.676 17.7268 9.75577 16.905 8.67928 16.9628L7.93268 17.0034C6.86197 17.0612 6.03434 17.9815 6.09222 19.058L6.86776 33.1681C6.92563 34.2041 7.78799 35.0086 8.81239 35.0086C8.84712 35.0086 8.88184 35.0086 8.92236 35.0086L9.66896 34.9681C10.1898 34.9392 10.6644 34.7077 11.0117 34.3199C11.3589 33.9321 11.5326 33.4344 11.5036 32.9135H11.5094Z" fill="#F04488" stroke="black" stroke-width="1.15752" stroke-miterlimit="10"/>
<path d="M20.9084 18.4217L21.9964 12.5299C22.0254 12.3621 21.9733 12.1827 21.8575 12.0553C21.7418 11.928 21.5681 11.8643 21.3945 11.8875L16.4172 12.472C16.1336 12.5068 15.9079 12.7151 15.8558 12.9987L15.0339 17.4378C14.8082 17.2295 14.5188 17.079 14.1947 17.0153C13.2745 16.8475 12.3832 17.4552 12.2154 18.3754C12.0475 19.2956 12.6552 20.1869 13.5754 20.3548C14.4957 20.5226 15.387 19.9149 15.5548 18.9947L16.3072 14.9376L20.8389 14.4051L20.3817 16.8648C20.156 16.6565 19.8666 16.506 19.5425 16.4423C18.6222 16.2745 17.731 16.8822 17.5631 17.8024C17.3953 18.7227 18.003 19.614 18.9232 19.7818C19.8434 19.9496 20.7347 19.3419 20.9026 18.4217H20.9084ZM13.7259 19.5734C13.2398 19.4808 12.9157 19.012 13.0025 18.5201C13.0951 18.0339 13.5639 17.7098 14.0558 17.7966C14.542 17.8893 14.8661 18.358 14.7793 18.8442C14.6867 19.3304 14.2179 19.6545 13.7317 19.5677L13.7259 19.5734ZM16.4635 14.1157L16.6255 13.2476L21.1572 12.7151L20.9952 13.5833L16.4635 14.1157ZM19.0737 19.0005C18.5875 18.9079 18.2634 18.4391 18.3502 17.9529C18.4428 17.4668 18.9116 17.1426 19.4036 17.2295C19.8897 17.3221 20.2138 17.7909 20.127 18.277C20.0344 18.769 19.5656 19.0931 19.0737 19.0005Z" fill="#F04488"/>
<path d="M15.0975 19.0351C14.976 19.7065 14.3278 20.1521 13.6564 20.0248C12.9851 19.9032 12.5394 19.255 12.6667 18.5837C12.7883 17.9123 13.4365 17.4667 14.1079 17.594C14.7792 17.7155 15.2249 18.3637 15.0975 19.0351Z" fill="#F04488"/>
<path d="M20.3065 18.4218C20.185 19.0932 19.5368 19.5388 18.8654 19.4115C18.194 19.29 17.7484 18.6418 17.8757 17.9704C17.9973 17.299 18.6455 16.8534 19.3168 16.9807C19.9882 17.1022 20.4339 17.7505 20.3065 18.4218Z" fill="#F04488"/>
<path d="M23.2178 24.9792C23.3798 24.3079 23.2293 23.9201 23.0962 23.5786C22.8532 22.9536 22.6043 22.5774 22.5001 22.4153C22.4827 22.3922 22.4712 22.3748 22.4654 22.3632C22.3786 22.2012 22.2049 22.1028 22.0197 22.1201C21.8345 22.1375 21.6783 22.2648 21.6262 22.4442L20.1561 27.439C19.9478 27.2017 19.6758 27.0165 19.3459 26.9181C18.4372 26.6518 17.4765 27.1727 17.2102 28.0814C16.944 28.99 17.4649 29.9508 18.3735 30.217C19.2822 30.4832 20.2429 29.9624 20.5092 29.0537C20.5092 29.0363 20.515 29.019 20.5207 29.0016C20.5207 28.9958 20.5265 28.9842 20.5323 28.9785L22.1644 23.4397C22.2223 23.5613 22.286 23.7059 22.3496 23.868C22.4654 24.169 22.5464 24.3657 22.4422 24.794C22.3959 24.9792 22.2628 25.2628 21.8924 25.5464L21.8635 25.5696C21.6956 25.7085 21.6667 25.9573 21.8056 26.1252C21.9445 26.2988 22.1934 26.3219 22.367 26.1888H22.3786C22.94 25.7548 23.1483 25.2918 23.2236 24.9792H23.2178ZM18.5993 29.4588C18.1131 29.3141 17.8295 28.799 17.9742 28.3129C18.1189 27.8267 18.634 27.5431 19.1201 27.6878C19.6063 27.8325 19.8899 28.3476 19.7452 28.8338C19.6005 29.3199 19.0854 29.6035 18.5993 29.4588Z" fill="#F04488"/>
<path d="M20.1385 29.0942C19.9475 29.7482 19.2587 30.1244 18.6047 29.9334C17.9507 29.7424 17.5745 29.0537 17.7655 28.3997C17.9565 27.7457 18.6453 27.3695 19.2993 27.5605C19.9533 27.7514 20.3294 28.4402 20.1385 29.0942Z" fill="#F04488"/>
</g>
<defs>
<clipPath id="clip0_12215_787">
<rect width="35.6575" height="35.5938" fill="white" transform="translate(0.0151367)"/>
</clipPath>
</defs>
</svg>
