<svg width="64" height="68" viewBox="0 0 64 68" fill="none" xmlns="http://www.w3.org/2000/svg">
<path d="M41.4079 17.764C41.0382 17.764 40.7359 18.0664 40.7359 18.436V21.5339C40.7359 21.9035 41.0382 22.2059 41.4079 22.2059C42.3957 22.2059 43.2021 23.0123 43.2021 24.0002C43.2021 24.9881 42.3957 25.7945 41.4079 25.7945C41.0382 25.7945 40.7359 26.0968 40.7359 26.4665V29.5643C40.7359 29.934 41.0382 30.2363 41.4079 30.2363C44.8485 30.2363 47.644 27.4408 47.644 24.0002C47.644 20.5595 44.8485 17.764 41.4079 17.764Z" fill="#EC1E82"/>
<path d="M41.408 36.0962C41.0384 36.0962 40.7359 35.7938 40.7359 35.4242L40.7359 29.5643C40.7359 29.1947 41.0384 28.8923 41.408 28.8923C41.7775 28.8923 42.08 29.1947 42.08 29.5643V34.7319C47.6979 34.3825 52.1601 29.7054 52.1601 24.0001C52.1601 18.2948 47.6979 13.6177 42.08 13.2681V18.436C42.08 18.8056 41.7775 19.1079 41.408 19.1079C41.0384 19.1079 40.7359 18.8056 40.7359 18.436L40.7359 12.576C40.7359 12.2065 41.0384 11.9042 41.408 11.9042C48.0808 11.9042 53.504 17.3271 53.504 24.0001C53.504 30.6731 48.0808 36.0962 41.408 36.0962Z" fill="black"/>
<path d="M31.4757 24.5042C30.4744 24.5042 29.9503 24.9277 29.9503 25.0754C29.9503 25.2231 30.4744 25.6465 31.4757 25.6465C32.477 25.6465 33.0012 25.2231 33.0012 25.0754C33.0012 24.9277 32.477 24.5042 31.4757 24.5042Z" fill="#EC1E82"/>
<path d="M25.5285 22.0044C24.5272 22.0044 24.0031 22.4276 24.0031 22.5756C24.0031 22.7233 24.5272 23.1467 25.5285 23.1467C26.5298 23.1467 27.0539 22.7233 27.0539 22.5756C27.0539 22.4276 26.5298 22.0044 25.5285 22.0044Z" fill="#EC1E82"/>
<path d="M28.3979 15.9093V16.7426L33.0012 18.6713V17.8447L28.3979 15.9093Z" fill="#EC1E82"/>
<path d="M34.3451 25.0754C34.3451 26.1708 33.1154 26.9905 31.4757 26.9905C29.836 26.9905 28.6062 26.1639 28.6062 25.0754C28.6062 23.9866 29.836 23.1602 31.4757 23.1602C32.0469 23.1602 32.5643 23.2677 33.0011 23.4424V20.1361L28.3979 18.2008V22.5822C28.3979 23.6776 27.1682 24.4974 25.5285 24.4974C23.8888 24.4974 22.6591 23.6709 22.6591 22.5822C22.6591 21.4937 23.8888 20.6671 25.5285 20.6671C26.0997 20.6671 26.6171 20.7746 27.0539 20.9492V14.9081C27.0539 14.6862 27.1682 14.4711 27.3563 14.3503C27.5445 14.2225 27.7797 14.2023 27.988 14.2898L33.9151 16.7828C34.1637 16.877 34.3451 17.1256 34.3451 17.4079V25.082V25.0754ZM28.9759 10.6677C23.4923 10.6677 19.0303 15.1298 19.0303 20.6133C19.0303 26.0968 23.4923 30.5589 28.9759 30.5589C34.4594 30.5589 38.9216 26.0968 38.9216 20.6133C38.9216 15.1298 34.4594 10.6677 28.9759 10.6677Z" fill="#EC1E82"/>
<path d="M38.6528 42.8162H19.299C17.4107 42.8162 15.8718 41.2774 15.8718 39.3891V8.61129C15.8718 6.72292 17.4107 5.18408 19.299 5.18408H38.6458C40.5344 5.18408 42.0733 6.72292 42.0733 8.61129V12.576C42.0733 12.9458 41.7708 13.2481 41.4012 13.2481C41.0316 13.2481 40.7291 12.9458 40.7291 12.576V8.61129C40.7291 7.46229 39.7951 6.528 38.6458 6.528H19.299C18.1499 6.528 17.2158 7.46229 17.2158 8.61129V39.3822C17.2158 40.5314 18.1499 41.4655 19.299 41.4655H38.6458C39.7951 41.4655 40.7291 40.5314 40.7291 39.3822V35.4175C40.7291 35.0479 41.0316 34.7455 41.4012 34.7455C41.7708 34.7455 42.0733 35.0479 42.0733 35.4175V39.3822C42.0733 41.2707 40.5342 42.8095 38.6458 42.8095L38.6528 42.8162Z" fill="black"/>
<path d="M41.4079 33.2161C41.0383 33.2161 40.7359 32.4109 40.7359 31.4277V18.3005C40.7359 17.3167 41.0383 16.5121 41.4079 16.5121C41.7776 16.5121 42.0799 17.3167 42.0799 18.3005V31.4277C42.0799 32.4109 41.7776 33.2161 41.4079 33.2161Z" fill="black"/>
<path d="M21.8191 34.564C21.4226 34.564 21.1068 34.8866 21.1068 35.2764C21.1068 35.6661 21.4293 35.9887 21.8191 35.9887H36.1394C36.5359 35.9887 36.8518 35.6661 36.8518 35.2764C36.8518 34.8866 36.5292 34.564 36.1394 34.564H21.8191ZM21.8191 37.3327C20.6834 37.3327 19.7628 36.4121 19.7628 35.2764C19.7628 34.1406 20.6834 33.22 21.8191 33.22H36.1394C37.275 33.22 38.1958 34.1406 38.1958 35.2764C38.1958 36.4121 37.275 37.3327 36.1394 37.3327H21.8191Z" fill="black"/>
<path d="M13.1973 64H11.8262L14.873 55.5156H16.3613L19.4199 64H18.0488L17.2754 61.7617H13.9707L13.1973 64ZM14.3398 60.6836H16.9004L15.6465 57.0625H15.5879L14.3398 60.6836ZM20.498 64V55.5156H21.7871V62.8867H25.6191V64H20.498ZM26.9434 64V55.5156H30.0488C31.8594 55.5156 32.7324 56.4824 32.7324 57.7422C32.7324 58.8027 32.082 59.3359 31.3027 59.5352V59.6172C32.1465 59.6641 33.0605 60.4023 33.0605 61.7148C33.0605 63.0156 32.1699 64 30.1895 64H26.9434ZM28.2324 62.8984H30.0723C31.291 62.8926 31.7832 62.3594 31.7832 61.6562C31.7832 60.8418 31.1387 60.1914 30.1191 60.1914H28.2324V62.8984ZM28.2324 59.1836H29.9434C30.7988 59.1777 31.4668 58.6621 31.4668 57.8477C31.4668 57.1445 30.9805 56.6172 29.9668 56.6172H28.2324V59.1836ZM39.8926 55.5156H41.1816V61.0938C41.1875 62.875 39.8457 64.1406 37.8184 64.1406C35.7734 64.1406 34.4375 62.875 34.4434 61.0938V55.5156H35.7324V60.9883C35.7266 62.1367 36.5293 62.9629 37.8184 62.9688C39.1016 62.9629 39.8926 62.1367 39.8926 60.9883V55.5156ZM42.916 55.5156H44.4863L47.1699 62.0898H47.2754L49.959 55.5156H51.5293V64H50.2988V57.8711H50.2168L47.7324 63.9883H46.7129L44.2168 57.8594H44.1465V64H42.916V55.5156Z" fill="#282930"/>
</svg>
