<svg width="64" height="68" viewBox="0 0 64 68" fill="none" xmlns="http://www.w3.org/2000/svg">
<path d="M41.408 17.7635C41.0383 17.7635 40.736 18.0659 40.736 18.4355V21.5334C40.736 21.903 41.0383 22.2054 41.408 22.2054C42.3959 22.2054 43.2023 23.0118 43.2023 23.9997C43.2023 24.9876 42.3959 25.794 41.408 25.794C41.0383 25.794 40.736 26.0963 40.736 26.466V29.5638C40.736 29.9335 41.0383 30.2358 41.408 30.2358C44.8486 30.2358 47.6441 27.4403 47.6441 23.9997C47.6441 20.559 44.8486 17.7635 41.408 17.7635Z" fill="#EC1E82"/>
<path d="M41.4081 36.0957C41.0385 36.0957 40.736 35.7933 40.736 35.4237L40.736 29.5638C40.736 29.1942 41.0385 28.8918 41.4081 28.8918C41.7776 28.8918 42.0802 29.1942 42.0802 29.5638V34.7315C47.698 34.382 52.1602 29.7049 52.1602 23.9996C52.1602 18.2943 47.698 13.6172 42.0802 13.2676V18.4355C42.0802 18.8051 41.7776 19.1074 41.4081 19.1074C41.0385 19.1074 40.736 18.8051 40.736 18.4355L40.736 12.5755C40.736 12.206 41.0385 11.9037 41.4081 11.9037C48.0809 11.9037 53.5041 17.3266 53.5041 23.9996C53.5041 30.6726 48.0809 36.0957 41.4081 36.0957Z" fill="black"/>
<path d="M31.4758 24.5038C30.4746 24.5038 29.9504 24.9272 29.9504 25.0749C29.9504 25.2226 30.4746 25.646 31.4758 25.646C32.4771 25.646 33.0013 25.2226 33.0013 25.0749C33.0013 24.9272 32.4771 24.5038 31.4758 24.5038Z" fill="#EC1E82"/>
<path d="M25.5286 22.0039C24.5273 22.0039 24.0032 22.4271 24.0032 22.5751C24.0032 22.7228 24.5273 23.1462 25.5286 23.1462C26.5299 23.1462 27.0541 22.7228 27.0541 22.5751C27.0541 22.4271 26.5299 22.0039 25.5286 22.0039Z" fill="#EC1E82"/>
<path d="M28.3981 15.9088V16.7421L33.0013 18.6708V17.8442L28.3981 15.9088Z" fill="#EC1E82"/>
<path d="M34.3453 25.0749C34.3453 26.1703 33.1155 26.99 31.4758 26.99C29.8361 26.99 28.6064 26.1634 28.6064 25.0749C28.6064 23.9861 29.8361 23.1597 31.4758 23.1597C32.047 23.1597 32.5645 23.2673 33.0013 23.4419V20.1356L28.3981 18.2003V22.5817C28.3981 23.6771 27.1683 24.4969 25.5286 24.4969C23.8889 24.4969 22.6592 23.6705 22.6592 22.5817C22.6592 21.4932 23.8889 20.6666 25.5286 20.6666C26.0998 20.6666 26.6173 20.7741 27.0541 20.9487V14.9076C27.0541 14.6857 27.1683 14.4706 27.3565 14.3498C27.5446 14.222 27.7798 14.2018 27.9881 14.2893L33.9152 16.7823C34.1638 16.8765 34.3453 17.1251 34.3453 17.4074V25.0816V25.0749ZM28.976 10.6672C23.4925 10.6672 19.0304 15.1293 19.0304 20.6128C19.0304 26.0963 23.4925 30.5584 28.976 30.5584C34.4595 30.5584 38.9217 26.0963 38.9217 20.6128C38.9217 15.1293 34.4595 10.6672 28.976 10.6672Z" fill="#EC1E82"/>
<path d="M38.6529 42.8157H19.2992C17.4108 42.8157 15.8719 41.2769 15.8719 39.3886V8.6108C15.8719 6.72244 17.4108 5.18359 19.2992 5.18359H38.646C40.5346 5.18359 42.0734 6.72244 42.0734 8.6108V12.5755C42.0734 12.9453 41.7709 13.2476 41.4013 13.2476C41.0318 13.2476 40.7292 12.9453 40.7292 12.5755V8.6108C40.7292 7.4618 39.7952 6.52751 38.646 6.52751H19.2992C18.15 6.52751 17.2159 7.4618 17.2159 8.6108V39.3817C17.2159 40.5309 18.15 41.465 19.2992 41.465H38.646C39.7952 41.465 40.7292 40.5309 40.7292 39.3817V35.417C40.7292 35.0474 41.0318 34.745 41.4013 34.745C41.7709 34.745 42.0734 35.0474 42.0734 35.417V39.3817C42.0734 41.2702 40.5343 42.809 38.646 42.809L38.6529 42.8157Z" fill="black"/>
<path d="M41.408 33.2156C41.0384 33.2156 40.736 32.4104 40.736 31.4272V18.3C40.736 17.3162 41.0384 16.5116 41.408 16.5116C41.7777 16.5116 42.08 17.3162 42.08 18.3V31.4272C42.08 32.4104 41.7777 33.2156 41.408 33.2156Z" fill="black"/>
<path d="M21.8192 34.5635C21.4227 34.5635 21.1069 34.8861 21.1069 35.276C21.1069 35.6656 21.4294 35.9882 21.8192 35.9882H36.1395C36.536 35.9882 36.8519 35.6656 36.8519 35.276C36.8519 34.8861 36.5294 34.5635 36.1395 34.5635H21.8192ZM21.8192 37.3322C20.6835 37.3322 19.7629 36.4116 19.7629 35.276C19.7629 34.1401 20.6835 33.2195 21.8192 33.2195H36.1395C37.2751 33.2195 38.1959 34.1401 38.1959 35.276C38.1959 36.4116 37.2751 37.3322 36.1395 37.3322H21.8192Z" fill="black"/>
<path d="M13.209 64H11.3105L14.252 55.5156H16.5137L19.4434 64H17.5566L16.918 62.043H13.8477L13.209 64ZM14.293 60.6719H16.4727L15.4121 57.4258H15.3535L14.293 60.6719ZM20.4043 64V55.5156H22.1621V62.5469H25.8184V64H20.4043ZM26.9551 64V55.5156H30.3301C32.1992 55.5156 33.1484 56.418 33.1426 57.6953C33.1484 58.6914 32.4922 59.3184 31.6191 59.5117V59.5938C32.5742 59.6406 33.4766 60.4023 33.4824 61.6562C33.4766 63.0039 32.4688 64 30.5527 64H26.9551ZM28.7129 62.5469H30.2012C31.2207 62.5527 31.6602 62.1309 31.6543 61.4922C31.6602 60.7773 31.1152 60.2734 30.248 60.2734H28.7129V62.5469ZM28.7129 59.0664H30.0723C30.8105 59.0723 31.3672 58.6562 31.3613 57.9766C31.3672 57.3613 30.9102 56.9453 30.1074 56.9453H28.7129V59.0664ZM39.8457 55.5156H41.6152V61.0234C41.6152 62.8809 40.2031 64.123 38.0996 64.1172C35.9902 64.123 34.5957 62.8809 34.5957 61.0234V55.5156H36.3535V60.8828C36.3594 61.8613 37.0508 62.5645 38.0996 62.5703C39.1602 62.5645 39.8516 61.8613 39.8457 60.8828V55.5156ZM43.0449 55.5156H45.2246L47.5801 61.2695H47.6738L50.0293 55.5156H52.209V64H50.498V58.4453H50.4277L48.2129 63.9648H47.041L44.8262 58.4219H44.7559V64H43.0449V55.5156Z" fill="#EB1F81"/>
</svg>
