<svg width="40" height="41" viewBox="0 0 40 41" fill="none" xmlns="http://www.w3.org/2000/svg">
<path d="M20 38.0019C29.9411 38.0019 38 29.9431 38 20.002C38 10.0608 29.9411 2.00195 20 2.00195C10.0589 2.00195 2 10.0608 2 20.002C2 29.9431 10.0589 38.0019 20 38.0019Z" fill="#9EC3E8"/>
<mask id="mask0_12457_1139" style="mask-type:luminance" maskUnits="userSpaceOnUse" x="2" y="2" width="36" height="37">
<path d="M20 38.0019C29.9411 38.0019 38 29.9431 38 20.002C38 10.0608 29.9411 2.00195 20 2.00195C10.0589 2.00195 2 10.0608 2 20.002C2 29.9431 10.0589 38.0019 20 38.0019Z" fill="white"/>
</mask>
<g mask="url(#mask0_12457_1139)">
<path d="M16.832 35.2943C27.3139 35.2943 35.8112 26.7971 35.8112 16.3151C35.8112 5.83321 27.3139 -2.66406 16.832 -2.66406C6.35006 -2.66406 -2.14722 5.83321 -2.14722 16.3151C-2.14722 26.7971 6.35006 35.2943 16.832 35.2943Z" fill="white"/>
</g>
<path d="M20 38.252C29.9411 38.252 38 30.1931 38 20.252C38 10.3108 29.9411 2.25195 20 2.25195C10.0589 2.25195 2 10.3108 2 20.252C2 30.1931 10.0589 38.252 20 38.252Z" stroke="#666666" stroke-width="1.42658" stroke-miterlimit="10"/>
<path d="M15 13.002H20.5566C21.596 13.002 22.4728 13.1744 23.1871 13.5192C23.9063 13.8591 24.4432 14.3295 24.7979 14.9305C25.1526 15.5266 25.3299 16.2088 25.3299 16.9773C25.3299 17.864 25.0959 18.5708 24.628 19.0979C24.16 19.6201 23.5418 19.9772 22.7733 20.1694V20.3171C23.2955 20.3467 23.7979 20.5142 24.2807 20.8196C24.7634 21.125 25.1575 21.556 25.4629 22.1127C25.7683 22.6693 25.921 23.3196 25.921 24.0634C25.921 24.8565 25.7339 25.5584 25.3595 26.1693C24.99 26.7801 24.4235 27.2604 23.66 27.6101C22.8965 27.9599 21.9457 28.1348 20.8078 28.1348H15V13.002ZM20.5861 26.1619C21.6255 26.1619 22.394 25.9624 22.8915 25.5634C23.3891 25.1594 23.6378 24.6225 23.6378 23.9526C23.6378 23.4698 23.5147 23.0289 23.2684 22.6299C23.027 22.2309 22.6797 21.9156 22.2265 21.6841C21.7782 21.4526 21.2585 21.3368 20.6674 21.3368H17.298V26.1619H20.5861ZM20.3497 19.5413C20.862 19.5413 21.325 19.4428 21.7388 19.2457C22.1526 19.0487 22.4777 18.7704 22.7142 18.4108C22.9506 18.0512 23.0689 17.6324 23.0689 17.1546C23.0689 16.731 22.9703 16.3541 22.7733 16.0241C22.5763 15.694 22.2782 15.4354 21.8792 15.2482C21.4802 15.061 20.9901 14.9674 20.4088 14.9674H17.298V19.5413H20.3497Z" fill="#3966AE"/>
</svg>
