<svg width="42" height="39" viewBox="0 0 42 39" fill="none" xmlns="http://www.w3.org/2000/svg">
<g clip-path="url(#clip0_12215_803)">
<path d="M36.5026 6.08301C36.983 7.73826 38.2273 9.06363 39.8363 9.69448C38.2273 10.3138 36.983 11.6391 36.5026 13.2944C36.0107 11.6391 34.7663 10.3138 33.1689 9.69448C34.7663 9.06363 36.0107 7.73248 36.5026 6.08301Z" fill="#F0C8D9"/>
<path d="M30.3445 3.16017V18.8909H24.418V1.76535C24.418 0.931935 25.2745 0.358962 26.0501 0.671493L29.5921 2.06631C30.0377 2.23994 30.3445 2.67401 30.3445 3.16017Z" fill="#EC1D82"/>
<path d="M31.6756 21.2402H22.0913V38.1227H31.6756V21.2402Z" fill="#F0C8D9"/>
<path d="M19.0355 23.584H9.45117V35.7843H19.0355V23.584Z" fill="#F0C8D9"/>
<path d="M11.4134 15.8294C9.21991 16.686 7.51835 18.5149 6.85277 20.7778C6.19299 18.5149 4.49722 16.686 2.30371 15.8294C4.49722 14.9728 6.19877 13.1555 6.85277 10.8926C7.52414 13.1555 9.21991 14.9728 11.4134 15.8294Z" fill="#EC1D82"/>
<path d="M28.1788 14.4225C27.8547 14.4225 27.5942 14.1621 27.5942 13.8379V5.13338C27.5942 4.80927 27.8547 4.54883 28.1788 4.54883C28.5029 4.54883 28.7633 4.80927 28.7633 5.13338V13.8379C28.7633 14.1621 28.5029 14.4225 28.1788 14.4225Z" fill="black"/>
<path d="M30.0074 36.3751C29.6833 36.3751 29.4229 36.1147 29.4229 35.7906V31.1431C29.4229 30.819 29.6833 30.5586 30.0074 30.5586C30.3315 30.5586 30.5919 30.819 30.5919 31.1431V35.7906C30.5919 36.1147 30.3315 36.3751 30.0074 36.3751Z" fill="black"/>
<path d="M12.0255 34.0248C11.7014 34.0248 11.4409 33.7643 11.4409 33.4402V30.859C11.4409 30.5349 11.7014 30.2744 12.0255 30.2744C12.3496 30.2744 12.61 30.5349 12.61 30.859V33.4402C12.61 33.7643 12.3496 34.0248 12.0255 34.0248Z" fill="black"/>
<path d="M30.5458 19.3882C30.2217 19.3882 29.9613 19.1277 29.9613 18.8036V3.1597C29.9613 2.92241 29.8108 2.70248 29.5793 2.61567L26.0373 1.22085C25.8463 1.13983 25.6379 1.16298 25.4759 1.27873C25.308 1.38869 25.2096 1.56811 25.2096 1.77068V18.8036C25.2096 19.1277 24.9492 19.3882 24.6251 19.3882C24.301 19.3882 24.0405 19.1277 24.0405 18.8036V1.76489C24.0405 1.18034 24.3357 0.630518 24.8219 0.300624C25.3138 -0.0292699 25.9331 -0.0929336 26.4771 0.126996L30.0133 1.52181C30.6847 1.78804 31.1361 2.44204 31.1361 3.1597V18.7978C31.1361 19.1219 30.8757 19.3824 30.5516 19.3824L30.5458 19.3882Z" fill="black"/>
<path d="M32.9647 38.707H22.2056V18.3057H32.9647V38.707ZM23.3805 37.5321H31.7899V19.4805H23.3805V37.5321Z" fill="black"/>
<path d="M32.3744 21.8244H22.7901C22.466 21.8244 22.2056 21.5639 22.2056 21.2398C22.2056 20.9157 22.466 20.6553 22.7901 20.6553H32.3744C32.6985 20.6553 32.9589 20.9157 32.9589 21.2398C32.9589 21.5639 32.6985 21.8244 32.3744 21.8244Z" fill="black"/>
<path d="M19.8213 38.7076H9.06787V23H19.827V38.7076H19.8213ZM10.237 37.5327H18.6464V24.1691H10.237V37.5327Z" fill="black"/>
<path d="M19.2367 36.3752H9.65242C9.32831 36.3752 9.06787 36.1147 9.06787 35.7906C9.06787 35.4665 9.32831 35.2061 9.65242 35.2061H19.2367C19.5608 35.2061 19.8213 35.4665 19.8213 35.7906C19.8213 36.1147 19.5608 36.3752 19.2367 36.3752Z" fill="black"/>
<path d="M36.7152 15.3775L36.148 13.4676C35.7139 12.0091 34.5969 10.8053 33.1673 10.2439L31.7783 9.69989L33.1616 9.15007C34.5969 8.5771 35.7139 7.36748 36.148 5.91479L36.7152 4.00488L37.2708 5.92058C37.6933 7.37327 38.8103 8.58288 40.2514 9.15007L41.6462 9.69989L40.2456 10.2439C38.8045 10.8053 37.6875 12.0034 37.265 13.4618L36.7094 15.3775H36.7152ZM34.6548 9.6941C35.494 10.2324 36.2001 10.9674 36.6978 11.8239C37.1955 10.9674 37.8958 10.2324 38.7466 9.6941C37.9016 9.15586 37.1955 8.41504 36.6978 7.55848C36.2001 8.41504 35.494 9.15586 34.6548 9.6941Z" fill="black"/>
<path d="M7.0423 22.8725L6.48668 20.9452C5.88477 18.879 4.31633 17.1717 2.28488 16.3788L0.884277 15.8348L2.28488 15.2907C4.31633 14.4978 5.89056 12.7963 6.48668 10.7359L7.0423 8.80859L7.60948 10.7301C8.21718 12.7905 9.79141 14.4978 11.8229 15.2907L13.2235 15.8348L11.8229 16.3788C9.7972 17.1717 8.22297 18.879 7.60948 20.951L7.0423 22.8725ZM3.84175 15.829C5.21341 16.6277 6.33621 17.8083 7.04808 19.2089C7.77153 17.8083 8.88854 16.6277 10.2602 15.829C8.88854 15.0361 7.76575 13.8612 7.04808 12.4606C6.33042 13.8554 5.21341 15.0303 3.84175 15.829Z" fill="black"/>
<path d="M17.0663 13.4035L16.5049 11.4705C16.1287 10.1798 15.1391 9.10332 13.8542 8.60558L12.4536 8.06155L13.8542 7.51751C15.1333 7.01978 16.1287 5.94328 16.5049 4.64107L17.0663 2.70801L17.6277 4.64107C18.0097 5.94328 18.9994 7.01978 20.2785 7.51751L21.6791 8.06155L20.2785 8.60558C18.9936 9.10911 18.0039 10.1798 17.6277 11.4705L17.0663 13.4035ZM15.3358 8.05576C16.0419 8.52456 16.6381 9.13804 17.0721 9.8615C17.5062 9.14383 18.1023 8.52456 18.8084 8.05576C18.1023 7.58696 17.5062 6.96769 17.0721 6.24424C16.6381 6.96769 16.0419 7.58696 15.3358 8.05576Z" fill="black"/>
</g>
<defs>
<clipPath id="clip0_12215_803">
<rect width="40.7679" height="38.7075" fill="white" transform="translate(0.884277)"/>
</clipPath>
</defs>
</svg>
