<svg width="16" height="16" viewBox="0 0 16 16" fill="none" xmlns="http://www.w3.org/2000/svg">
<path d="M2.06594 8.11684L4.04372 9.56128L3.29261 11.8874C3.17123 12.2482 3.16969 12.6385 3.28823 13.0002C3.40676 13.3619 3.63902 13.6757 3.95039 13.8946C4.25642 14.1206 4.62727 14.2417 5.0077 14.2398C5.38812 14.2379 5.75774 14.1131 6.0615 13.8841L7.99539 12.4607L9.92983 13.8824C10.2353 14.1071 10.6042 14.2291 10.9834 14.231C11.3626 14.2328 11.7326 14.1144 12.0403 13.8927C12.3479 13.671 12.5773 13.3574 12.6955 12.9971C12.8138 12.6368 12.8147 12.2483 12.6982 11.8874L11.9471 9.56128L13.9248 8.11684C14.2299 7.89379 14.4567 7.58003 14.5728 7.22039C14.6889 6.86074 14.6884 6.47361 14.5713 6.11427C14.4543 5.75494 14.2266 5.4418 13.921 5.21956C13.6153 4.99733 13.2472 4.87738 12.8693 4.87684H10.4398L9.70261 2.57906C9.58668 2.21737 9.35887 1.90184 9.05204 1.67798C8.7452 1.45412 8.3752 1.3335 7.99539 1.3335C7.61557 1.3335 7.24557 1.45412 6.93874 1.67798C6.63191 1.90184 6.4041 2.21737 6.28817 2.57906L5.55094 4.87684H3.12372C2.7458 4.87738 2.37772 4.99733 2.07204 5.21956C1.76637 5.4418 1.53874 5.75494 1.42168 6.11427C1.30461 6.47361 1.30409 6.86074 1.4202 7.22039C1.5363 7.58003 1.76309 7.89379 2.06816 8.11684H2.06594Z" fill="#3966AE"/>
</svg>
