<svg width="48" height="48" viewBox="0 0 48 48" fill="none" xmlns="http://www.w3.org/2000/svg">
<path d="M23.6242 4.02505C24.2692 3.92203 24.7835 4.15886 25.3885 4.33411C28.89 5.34774 32.4327 6.69767 35.8871 7.86523C36.2307 8.17666 36.4791 8.57335 36.758 8.93925C38.7024 11.4852 41.1517 14.6824 42.8371 17.3597C43.0584 17.7114 43.2938 18.0513 43.2973 18.4918L43.2549 30.422C43.1784 30.7311 43.0031 30.9798 42.8371 31.2426C41.1458 33.9283 38.6765 37.1669 36.7215 39.714C36.3814 40.1581 36.093 40.7146 35.5399 40.9183C32.1525 41.9438 28.7805 43.2854 25.3896 44.2671C24.98 44.3855 24.4598 44.5962 24.0455 44.6045C23.4782 44.6152 22.4178 44.1865 21.8187 44.0018C18.5644 42.9977 15.3194 41.8656 12.1134 40.7371C11.7697 40.4257 11.5213 40.029 11.2424 39.6631C9.29803 37.1172 6.84875 33.92 5.16332 31.2426C4.94205 30.8909 4.70666 30.5511 4.70312 30.1106L4.7455 18.1803C4.822 17.8713 4.99737 17.6226 5.16332 17.3597C6.84993 14.6812 9.29686 11.4864 11.2424 8.93925C11.5943 8.47862 11.8991 7.89365 12.4617 7.68406L23.6242 4.02505Z" fill="#EB1F81"/>
<path d="M23.6635 6.03234C24.2413 5.93951 24.7021 6.1529 25.2441 6.3108C28.3809 7.22409 31.5547 8.44038 34.6494 9.49237C34.9572 9.77297 35.1797 10.1304 35.4296 10.4601C37.1715 12.754 39.3657 15.6347 40.8756 18.047C41.0739 18.3639 41.2847 18.6701 41.2879 19.067L41.2499 29.8162C41.1814 30.0947 41.0243 30.3187 40.8756 30.5556C39.3604 32.9754 37.1483 35.8934 35.3969 38.1884C35.0922 38.5885 34.8339 39.0899 34.3383 39.2734C31.3037 40.1974 28.2829 41.4062 25.2451 42.2907C24.8782 42.3974 24.4121 42.5873 24.041 42.5948C23.5328 42.6044 22.5827 42.2182 22.0461 42.0517C19.1306 41.147 16.2236 40.127 13.3514 39.1102C13.0435 38.8296 12.8211 38.4722 12.5712 38.1425C10.8293 35.8486 8.63507 32.9679 7.12516 30.5556C6.92693 30.2387 6.71605 29.9325 6.71289 29.5356L6.75085 18.7864C6.81939 18.5079 6.97649 18.2838 7.12516 18.047C8.63613 15.6336 10.8282 12.755 12.5712 10.4601C12.8864 10.045 13.1595 9.51798 13.6635 9.32913L23.6635 6.03234Z" fill="white"/>
<path d="M23.6951 7.63973C24.2192 7.55506 24.6371 7.74969 25.1286 7.89371C27.9737 8.72671 30.8522 9.83608 33.659 10.7956C33.9383 11.0515 34.14 11.3775 34.3667 11.6782C35.9465 13.7704 37.9366 16.3979 39.3061 18.5981C39.4859 18.8872 39.6772 19.1664 39.68 19.5284L39.6456 29.3327C39.5834 29.5867 39.4409 29.7911 39.3061 30.0071C37.9319 32.2142 35.9255 34.8757 34.337 36.9689C34.0607 37.3338 33.8264 37.7912 33.3769 37.9585C30.6246 38.8013 27.8848 39.9038 25.1296 40.7105C24.7968 40.8079 24.3741 40.9811 24.0375 40.9879C23.5765 40.9966 22.7149 40.6444 22.2281 40.4926C19.5839 39.6673 16.9473 38.737 14.3423 37.8096C14.063 37.5537 13.8613 37.2277 13.6346 36.927C12.0548 34.8348 10.0647 32.2073 8.69521 30.0071C8.51542 29.7181 8.32416 29.4388 8.32129 29.0768L8.35572 19.2725C8.41788 19.0185 8.56037 18.8142 8.69521 18.5981C10.0656 16.3969 12.0538 13.7714 13.6346 11.6782C13.9205 11.2997 14.1682 10.8189 14.6254 10.6467L23.6951 7.63973Z" fill="#EB1F81"/>
<path d="M23.7186 8.84332C24.2023 8.76477 24.5881 8.94533 25.0418 9.07894C27.668 9.85172 30.3251 10.8809 32.916 11.771C33.1738 12.0085 33.36 12.3109 33.5693 12.5899C35.0276 14.5308 36.8646 16.9684 38.1287 19.0095C38.2947 19.2777 38.4712 19.5368 38.4739 19.8726L38.4421 28.9681C38.3847 29.2038 38.2532 29.3934 38.1287 29.5938C36.8602 31.6413 35.0082 34.1104 33.5419 36.0523C33.2868 36.3908 33.0705 36.8151 32.6556 36.9704C30.115 37.7522 27.5859 38.7751 25.0427 39.5235C24.7355 39.6137 24.3453 39.7744 24.0346 39.7808C23.6091 39.7889 22.8137 39.4621 22.3644 39.3212C19.9236 38.5557 17.4898 37.6926 15.0852 36.8323C14.8274 36.5948 14.6412 36.2924 14.4319 36.0135C12.9736 34.0725 11.1366 31.635 9.8725 29.5938C9.70654 29.3256 9.52999 29.0665 9.52734 28.7307L9.55912 19.6352C9.6165 19.3996 9.74803 19.21 9.8725 19.0095C11.1375 16.9675 12.9727 14.5317 14.4319 12.5899C14.6959 12.2387 14.9245 11.7927 15.3465 11.6329L23.7186 8.84332Z" fill="white"/>
<path d="M18.7739 30.1973L20.2534 29.9561V18.2489L18.7739 18.0237V17.6699H23.6788C24.8366 17.6699 25.7586 17.7771 26.4448 17.9915C27.1309 18.206 27.6294 18.533 27.9403 18.9725C28.2512 19.4014 28.4067 19.9696 28.4067 20.6771C28.4067 22.221 27.4311 23.2073 25.4799 23.6361V23.7165C26.6699 23.8773 27.5919 24.2311 28.2459 24.7779C28.9106 25.3247 29.2429 26.0859 29.2429 27.0615C29.2429 28.2408 28.8087 29.1145 27.9403 29.6827C27.0827 30.2509 25.9194 30.535 24.4507 30.535H18.7739V30.1973ZM23.8074 23.5879C24.6651 23.5879 25.3244 23.3467 25.7854 22.8642C26.2464 22.3818 26.4769 21.6956 26.4769 20.8058V20.7093C26.4769 18.9511 25.5442 18.072 23.6788 18.072H22.0224V23.5879H23.8074ZM24.4507 30.1491C25.3619 30.1491 26.0695 29.8864 26.5734 29.3611C27.0773 28.8251 27.3292 28.0639 27.3292 27.0775V26.9006C27.3292 25.925 27.0773 25.196 26.5734 24.7136C26.0802 24.2311 25.3727 23.9899 24.4507 23.9899H22.0224V30.1491H24.4507Z" fill="#EB1F81"/>
</svg>
