<svg width="24" height="24" viewBox="0 0 24 24" fill="none" xmlns="http://www.w3.org/2000/svg">
<path d="M5.75117 21.9998H18.4305C19.9475 21.9998 21.1816 20.7853 21.1816 19.2924V6.81484C21.1816 5.32198 19.9475 4.10742 18.4305 4.10742H5.75117C4.23418 4.10742 2.99999 5.32198 2.99999 6.81484V19.2924C2.99999 20.7853 4.23418 21.9998 5.75117 21.9998ZM18.4305 5.1388C19.3696 5.1388 20.1336 5.89064 20.1336 6.81484V19.2924C20.1336 20.2166 19.3696 20.9685 18.4305 20.9685H5.75117C4.81203 20.9685 4.04805 20.2166 4.04805 19.2924V6.81484C4.04805 5.89064 4.81203 5.1388 5.75117 5.1388H18.4305Z" fill="#B1B2B6"/>
<path d="M3.52412 8.80664H20.6577V9.83802H3.52412V8.80664Z" fill="#B1B2B6"/>
<path d="M7.61837 6.73073C8.31488 6.73073 8.88159 6.17303 8.88159 5.4876V3.75875C8.88159 3.07332 8.31488 2.51562 7.61837 2.51562C6.92187 2.51562 6.35515 3.07332 6.35515 3.75875V5.4876C6.35515 6.17303 6.92187 6.73073 7.61837 6.73073Z" fill="#B1B2B6"/>
<path d="M7.61836 3.03138C7.21015 3.03138 6.87916 3.35711 6.87916 3.75882V5.48767C6.87916 5.88938 7.21015 6.21511 7.61836 6.21511C8.02656 6.21511 8.35755 5.88938 8.35755 5.48767V3.75882C8.35755 3.35711 8.02656 3.03138 7.61836 3.03138ZM7.61836 2C7.85911 2 8.09326 2.04664 8.31439 2.13869C8.52736 2.22734 8.71836 2.35399 8.88221 2.51523C9.04605 2.67647 9.17474 2.86443 9.26483 3.07401C9.35837 3.29147 9.40576 3.5219 9.40576 3.75897V5.48782C9.40576 5.72474 9.35837 5.95517 9.26483 6.17279C9.17474 6.38237 9.04605 6.57033 8.88221 6.73157C8.71836 6.89281 8.52736 7.01945 8.31439 7.1081C8.09342 7.20015 7.85926 7.2468 7.61836 7.2468C7.37745 7.2468 7.14345 7.20015 6.92232 7.1081C6.70935 7.01945 6.51836 6.89281 6.35451 6.73157C6.19066 6.57033 6.06197 6.38237 5.97189 6.17279C5.87835 5.95533 5.83095 5.7249 5.83095 5.48782V3.75897C5.83095 3.52205 5.87835 3.29162 5.97189 3.07401C6.06197 2.86443 6.19066 2.67647 6.35451 2.51523C6.51836 2.35399 6.70935 2.22734 6.92232 2.13869C7.1433 2.04664 7.37745 2 7.61836 2Z" fill="#B1B2B6"/>
<path d="M16.5632 6.73073C17.2597 6.73073 17.8264 6.17303 17.8264 5.4876V3.75875C17.8264 3.07332 17.2597 2.51562 16.5632 2.51562C15.8667 2.51562 15.3 3.07332 15.3 3.75875V5.4876C15.3 6.17303 15.8667 6.73073 16.5632 6.73073Z" fill="#B1B2B6"/>
<path d="M16.5632 3.03138C16.155 3.03138 15.824 3.35711 15.824 3.75882V5.48767C15.824 5.88938 16.155 6.21511 16.5632 6.21511C16.9714 6.21511 17.3024 5.88938 17.3024 5.48767V3.75882C17.3024 3.35711 16.9714 3.03138 16.5632 3.03138ZM16.5632 2C16.8039 2 17.0381 2.04664 17.2592 2.13869C17.4722 2.22734 17.6632 2.35399 17.827 2.51523C17.9909 2.67647 18.1196 2.86443 18.2097 3.07401C18.3032 3.29147 18.3506 3.5219 18.3506 3.75897V5.48782C18.3506 5.72474 18.3032 5.95517 18.2097 6.17279C18.1196 6.38237 17.9909 6.57033 17.827 6.73157C17.6632 6.89281 17.4722 7.01945 17.2592 7.1081C17.0382 7.20015 16.8041 7.2468 16.5632 7.2468C16.3223 7.2468 16.0883 7.20015 15.8671 7.1081C15.6542 7.01945 15.4632 6.89281 15.2993 6.73157C15.1355 6.57033 15.0068 6.38237 14.9167 6.17279C14.8232 5.95533 14.7758 5.7249 14.7758 5.48782V3.75897C14.7758 3.52205 14.8232 3.29162 14.9167 3.07401C15.0068 2.86443 15.1355 2.67647 15.2993 2.51523C15.4632 2.35399 15.6542 2.22734 15.8671 2.13869C16.0881 2.04664 16.3223 2 16.5632 2Z" fill="#B1B2B6"/>
<path d="M15.3067 11.5996H17.8178C18.0778 11.5996 18.2886 11.8071 18.2886 12.0629V14.5341C18.2886 14.79 18.0778 14.9974 17.8178 14.9974H15.3067C15.0467 14.9974 14.8359 14.79 14.8359 14.5341V12.0629C14.8359 11.8071 15.0467 11.5996 15.3067 11.5996Z" fill="#B1B2B6"/>
<path d="M10.8353 11.5996H13.3463C13.6063 11.5996 13.8171 11.8071 13.8171 12.0629V14.5341C13.8171 14.79 13.6063 14.9974 13.3463 14.9974H10.8353C10.5752 14.9974 10.3644 14.79 10.3644 14.5341V12.0629C10.3644 11.8071 10.5752 11.5996 10.8353 11.5996Z" fill="#B1B2B6"/>
<path d="M6.36382 11.5996H8.87488C9.13491 11.5996 9.3457 11.8071 9.3457 12.0629V14.5341C9.3457 14.79 9.13491 14.9974 8.87488 14.9974H6.36382C6.10379 14.9974 5.89299 14.79 5.89299 14.5341V12.0629C5.89299 11.8071 6.10379 11.5996 6.36382 11.5996Z" fill="#B1B2B6"/>
<path d="M15.3067 15.8125H17.8178C18.0778 15.8125 18.2886 16.0199 18.2886 16.2758V18.747C18.2886 19.0028 18.0778 19.2103 17.8178 19.2103H15.3067C15.0467 19.2103 14.8359 19.0028 14.8359 18.747V16.2758C14.8359 16.0199 15.0467 15.8125 15.3067 15.8125Z" fill="#B1B2B6"/>
<path d="M10.8353 15.8125H13.3463C13.6063 15.8125 13.8171 16.0199 13.8171 16.2758V18.747C13.8171 19.0028 13.6063 19.2103 13.3463 19.2103H10.8353C10.5752 19.2103 10.3644 19.0028 10.3644 18.747V16.2758C10.3644 16.0199 10.5752 15.8125 10.8353 15.8125Z" fill="#B1B2B6"/>
<path d="M6.36382 15.8125H8.87488C9.13491 15.8125 9.3457 16.0199 9.3457 16.2758V18.747C9.3457 19.0028 9.13491 19.2103 8.87488 19.2103H6.36382C6.10379 19.2103 5.89299 19.0028 5.89299 18.747V16.2758C5.89299 16.0199 6.10379 15.8125 6.36382 15.8125Z" fill="#B1B2B6"/>
</svg>
