<svg width="24" height="24" viewBox="0 0 24 24" fill="none" xmlns="http://www.w3.org/2000/svg">
<path d="M19.5 3.66667H17V2H15.3333V3.66667H8.66667V2H7V3.66667H4.5C3.83696 3.66667 3.20107 3.93006 2.73223 4.3989C2.26339 4.86774 2 5.50363 2 6.16667V22H22V6.16667C22 5.50363 21.7366 4.86774 21.2678 4.3989C20.7989 3.93006 20.163 3.66667 19.5 3.66667ZM3.66667 6.16667C3.66667 5.94565 3.75446 5.73369 3.91074 5.57741C4.06702 5.42113 4.27899 5.33333 4.5 5.33333H19.5C19.721 5.33333 19.933 5.42113 20.0893 5.57741C20.2455 5.73369 20.3333 5.94565 20.3333 6.16667V8.66667H3.66667V6.16667ZM3.66667 20.3333V10.3333H20.3333V20.3333H3.66667Z" fill="#B1B2B6"/>
<path d="M16.1667 12.8335H14.5V14.5002H16.1667V12.8335Z" fill="#B1B2B6"/>
<path d="M12.8334 12.8335H11.1667V14.5002H12.8334V12.8335Z" fill="#B1B2B6"/>
<path d="M9.49992 12.8335H7.83325V14.5002H9.49992V12.8335Z" fill="#B1B2B6"/>
<path d="M16.1667 16.1667H14.5V17.8334H16.1667V16.1667Z" fill="#B1B2B6"/>
<path d="M12.8334 16.1667H11.1667V17.8334H12.8334V16.1667Z" fill="#B1B2B6"/>
<path d="M9.49992 16.1667H7.83325V17.8334H9.49992V16.1667Z" fill="#B1B2B6"/>
</svg>
