<svg width="21" height="20" viewBox="0 0 21 20" fill="none" xmlns="http://www.w3.org/2000/svg">
<path d="M16.7501 4.44477H15.0084L12.8654 1.66699H8.13411L5.99175 4.44477H4.25008C3.69755 4.44477 3.16764 4.66426 2.77694 5.05496C2.38624 5.44567 2.16675 5.97557 2.16675 6.5281V18.3337H18.8334V6.5281C18.8334 5.97557 18.6139 5.44567 18.2232 5.05496C17.8325 4.66426 17.3026 4.44477 16.7501 4.44477ZM8.81744 3.05588H12.1834L13.2542 4.44477H7.74591L8.81744 3.05588ZM17.4445 16.9448H3.55564V6.5281C3.55564 6.34392 3.6288 6.16729 3.75903 6.03706C3.88927 5.90682 4.0659 5.83366 4.25008 5.83366H16.7501C16.9343 5.83366 17.1109 5.90682 17.2411 6.03706C17.3714 6.16729 17.4445 6.34392 17.4445 6.5281V16.9448Z" fill="#B1B2B6"/>
<path d="M10.5001 7.22241C9.676 7.22241 8.87041 7.46678 8.18521 7.92462C7.5 8.38246 6.96595 9.03321 6.65059 9.79457C6.33522 10.5559 6.25271 11.3937 6.41348 12.202C6.57425 13.0102 6.97109 13.7526 7.55381 14.3354C8.13652 14.9181 8.87895 15.3149 9.68721 15.4757C10.4955 15.6365 11.3332 15.5539 12.0946 15.2386C12.856 14.9232 13.5067 14.3892 13.9645 13.704C14.4224 13.0188 14.6668 12.2132 14.6668 11.3891C14.6656 10.2843 14.2263 9.22518 13.4451 8.44402C12.664 7.66286 11.6048 7.22352 10.5001 7.22241ZM10.5001 14.1669C9.95069 14.1669 9.41364 14.0039 8.95683 13.6987C8.50003 13.3935 8.144 12.9597 7.93375 12.4521C7.72351 11.9445 7.6685 11.386 7.77568 10.8472C7.88286 10.3083 8.14742 9.81337 8.5359 9.42489C8.92438 9.03641 9.41933 8.77186 9.95817 8.66468C10.497 8.55749 11.0555 8.6125 11.5631 8.82275C12.0707 9.03299 12.5045 9.38903 12.8097 9.84583C13.1149 10.3026 13.2779 10.8397 13.2779 11.3891C13.2779 12.1258 12.9852 12.8323 12.4643 13.3533C11.9433 13.8742 11.2368 14.1669 10.5001 14.1669Z" fill="#B1B2B6"/>
</svg>
