<svg width="24" height="24" viewBox="0 0 24 24" fill="none" xmlns="http://www.w3.org/2000/svg">
<g id="icon/shopping-cart/white">
<g id="01 align center">
<path id="Vector" d="M22 4.5H5.535L5.5 4.2075C5.42837 3.59951 5.13615 3.03894 4.67874 2.63206C4.22133 2.22519 3.63052 2.00028 3.01833 2L2 2V3.66667H3.01833C3.22244 3.66669 3.41945 3.74163 3.57198 3.87726C3.72451 4.0129 3.82195 4.19979 3.84583 4.4025L5.16667 15.6258C5.23829 16.2338 5.53051 16.7944 5.98793 17.2013C6.44534 17.6081 7.03614 17.833 7.64833 17.8333H18.6667V16.1667H7.64833C7.44409 16.1666 7.24699 16.0916 7.09444 15.9558C6.94189 15.82 6.84452 15.6329 6.82083 15.43L6.71167 14.5H20.1967L22 4.5ZM18.8033 12.8333H6.51583L5.73167 6.16667H20.0058L18.8033 12.8333Z" fill="white"/>
<path id="Vector_2" d="M7.83341 22.0006C8.75388 22.0006 9.50008 21.2544 9.50008 20.3339C9.50008 19.4134 8.75388 18.6672 7.83341 18.6672C6.91294 18.6672 6.16675 19.4134 6.16675 20.3339C6.16675 21.2544 6.91294 22.0006 7.83341 22.0006Z" fill="white"/>
<path id="Vector_3" d="M16.1667 22.0006C17.0871 22.0006 17.8333 21.2544 17.8333 20.3339C17.8333 19.4134 17.0871 18.6672 16.1667 18.6672C15.2462 18.6672 14.5 19.4134 14.5 20.3339C14.5 21.2544 15.2462 22.0006 16.1667 22.0006Z" fill="white"/>
</g>
</g>
</svg>
