<svg width="40" height="52" viewBox="0 0 40 52" fill="none" xmlns="http://www.w3.org/2000/svg">
<rect x="0.5" y="0.5" width="39" height="51" rx="3.5" stroke="#ECECED"/>
<path d="M20.0267 31.8333C20.3552 31.8339 20.6805 31.7695 20.9839 31.644C21.2874 31.5184 21.5631 31.3341 21.7951 31.1017L25.0609 27.8333L23.8826 26.6583L20.8551 29.6867L20.8334 16H19.1667L19.1884 29.6733L16.1717 26.6567L14.9934 27.8333L18.2592 31.0992C18.491 31.3319 18.7664 31.5166 19.0697 31.6426C19.3731 31.7686 19.6983 31.8334 20.0267 31.8333Z" fill="#B1B2B6"/>
<path d="M28.3333 29.3335V33.5002C28.3333 33.7212 28.2455 33.9331 28.0893 34.0894C27.933 34.2457 27.721 34.3335 27.5 34.3335H12.5C12.279 34.3335 12.067 34.2457 11.9107 34.0894C11.7545 33.9331 11.6667 33.7212 11.6667 33.5002V29.3335H10V33.5002C10 34.1632 10.2634 34.7991 10.7322 35.2679C11.2011 35.7368 11.837 36.0001 12.5 36.0001H27.5C28.163 36.0001 28.7989 35.7368 29.2678 35.2679C29.7366 34.7991 30 34.1632 30 33.5002V29.3335H28.3333Z" fill="#B1B2B6"/>
</svg>
