<svg width="21" height="20" viewBox="0 0 21 20" fill="none" xmlns="http://www.w3.org/2000/svg">
<path d="M17.4116 7.49967V4.7219C17.4116 4.35354 17.2653 4.00027 17.0048 3.7398C16.7443 3.47934 16.3911 3.33301 16.0227 3.33301H13.2449C13.0608 3.33301 12.8841 3.40617 12.7539 3.53641C12.6237 3.66664 12.5505 3.84327 12.5505 4.02745C12.5505 4.21163 12.6237 4.38827 12.7539 4.5185C12.8841 4.64873 13.0608 4.7219 13.2449 4.7219H15.0574L11.363 8.3962C11.2361 8.52681 11.1656 8.70204 11.1666 8.88416C11.1676 9.06627 11.2402 9.24068 11.3686 9.36982C11.497 9.49896 11.671 9.57249 11.8531 9.57457C12.0352 9.57664 12.2108 9.5071 12.3422 9.38092L16.0227 5.71981V7.49967C16.0227 7.68385 16.0959 7.86049 16.2261 7.99072C16.3564 8.12095 16.533 8.19412 16.7172 8.19412C16.9013 8.19412 17.078 8.12095 17.2082 7.99072C17.3384 7.86049 17.4116 7.68385 17.4116 7.49967Z" fill="white"/>
<path fill-rule="evenodd" clip-rule="evenodd" d="M5.33341 5.6663C4.32089 5.6663 3.50008 6.48711 3.50008 7.49963V13.333C3.50008 14.3455 4.32089 15.1663 5.33341 15.1663H15.3334C16.3459 15.1663 17.1667 14.3455 17.1667 13.333V9.33297H18.5001V13.333C18.5001 15.0819 17.0823 16.4996 15.3334 16.4996H5.33341C3.58451 16.4996 2.16675 15.0819 2.16675 13.333V7.49963C2.16675 5.75073 3.58451 4.33297 5.33341 4.33297H10.3334V5.6663H5.33341Z" fill="white"/>
</svg>
