<svg width="64" height="68" viewBox="0 0 64 68" fill="none" xmlns="http://www.w3.org/2000/svg">
<rect x="8" width="48" height="48" fill="#D9D9D9"/>
<path d="M21.6465 64V55.5156H26.9668V56.6289H22.9355V59.1953H26.6855V60.2969H22.9355V62.8867H27.0137V64H21.6465ZM28.127 56.6289V55.5156H34.7012V56.6289H32.0645V64H30.7754V56.6289H28.127ZM41.3926 58.2812C41.1875 57.1855 40.2793 56.5762 39.2012 56.582C37.7363 56.5762 36.6523 57.7012 36.6465 59.7578C36.6523 61.8262 37.7422 62.9395 39.2012 62.9336C40.2676 62.9395 41.1699 62.3418 41.3926 61.2578L42.6934 61.2695C42.4238 62.9453 41.0586 64.1172 39.1895 64.1172C36.9805 64.1172 35.3691 62.4707 35.3691 59.7578C35.3691 57.0449 36.9922 55.3984 39.1895 55.3984C40.9824 55.3984 42.4062 56.459 42.6934 58.2812H41.3926Z" fill="#282930"/>
</svg>
