<svg width="33" height="33" viewBox="0 0 33 33" fill="none" xmlns="http://www.w3.org/2000/svg">
<g clip-path="url(#clip0_12215_823)">
<path d="M17.6434 23.3182C21.6933 23.3182 24.9764 20.0351 24.9764 15.9852C24.9764 11.9354 21.6933 8.65234 17.6434 8.65234C13.5936 8.65234 10.3105 11.9354 10.3105 15.9852C10.3105 20.0351 13.5936 23.3182 17.6434 23.3182Z" fill="#EC1D82"/>
<path d="M32.1125 1.31348C32.1125 1.31348 27.2856 4.26516 27.2856 10.4753C27.2856 14.2488 32.1125 17.4783 32.1125 17.4783V1.31348Z" fill="#EC1D82"/>
<path d="M6.14895 17.4785H3.98438C3.54967 17.4785 3.19727 17.8309 3.19727 18.2656V30.9868C3.19727 31.4215 3.54967 31.7739 3.98438 31.7739H6.14895C6.58366 31.7739 6.93606 31.4215 6.93606 30.9868V18.2656C6.93606 17.8309 6.58366 17.4785 6.14895 17.4785Z" fill="#EC1D82"/>
<path d="M32.3209 32.5669C32.0142 32.5669 31.7653 32.318 31.7653 32.0113V24.0707C31.7653 23.845 31.6149 23.654 31.4007 23.5961C31.3602 23.5845 31.3197 23.5787 31.2734 23.5787C31.0998 23.5787 30.9319 23.6771 30.8451 23.8276C28.1249 28.5734 23.0666 31.5193 17.632 31.5193C15.3575 31.5193 13.164 31.0274 11.1267 30.0609C10.9936 29.9972 10.8894 29.8872 10.8431 29.7483C10.791 29.6094 10.8026 29.4589 10.8663 29.3258C10.9589 29.1348 11.1557 29.0075 11.3698 29.0075C11.4508 29.0075 11.5318 29.0249 11.6071 29.0596C13.4996 29.9567 15.5311 30.4081 17.6436 30.4081C24.5019 30.4081 30.3416 25.5002 31.5338 18.7403C31.5628 18.5724 31.4991 18.3988 31.3718 18.2831C28.0497 15.3835 26.4234 12.316 26.5391 9.16179C26.5738 8.18368 26.788 7.18821 27.17 6.19853C27.2163 6.07699 27.2163 5.93809 27.1584 5.82234C27.1063 5.7008 27.0079 5.60819 26.8864 5.56189C26.8227 5.53874 26.7706 5.50981 26.7301 5.47508C24.1894 3.33366 20.9599 2.15878 17.6378 2.15878C14.9408 2.15878 12.3132 2.92853 10.0329 4.3928C9.89395 4.4854 9.80714 4.63588 9.80714 4.8095V7.90009C9.80714 10.1399 8.21555 12.0961 6.02204 12.5475C5.79632 12.5938 5.62848 12.7964 5.62848 13.0337V16.2863C5.62848 16.2863 5.59955 16.5641 5.69794 16.7493C5.75002 16.8535 5.83684 16.9172 5.94101 16.9403C7.11011 17.1892 7.7236 18.3815 7.7236 19.4348V29.9219C7.7236 31.3862 6.53714 32.5727 5.07287 32.5727C3.60861 32.5727 2.42215 31.3804 2.42215 29.9219V19.4348C2.42215 18.2773 3.15717 17.2529 4.21631 16.9403C4.55778 16.8419 4.51726 16.269 4.51726 16.2632V13.0395C4.51726 12.8022 4.35521 12.5996 4.1237 12.5533C1.91284 12.1077 0.309669 10.1515 0.309669 7.90009V0.555611C0.303882 0.248867 0.552749 0 0.859492 0C1.16624 0 1.4151 0.248867 1.4151 0.555611V7.8943C1.4151 9.42223 2.38742 10.7939 3.84011 11.309C3.8922 11.3264 3.95008 11.3379 4.00795 11.3379C4.11213 11.3379 4.21052 11.309 4.29155 11.2453C4.42466 11.1527 4.4999 11.0022 4.4999 10.8402V0.555611C4.49411 0.248867 4.74298 0 5.04972 0C5.35647 0 5.60533 0.248867 5.60533 0.555611V10.8518C5.60533 11.0138 5.68057 11.1643 5.81369 11.2569C5.9005 11.3148 5.99889 11.3495 6.09728 11.3495C6.15516 11.3495 6.21303 11.3379 6.26512 11.3206C7.71202 10.8055 8.69013 9.43381 8.69013 7.90588V0.555611C8.69013 0.248867 8.939 0 9.24574 0C9.55248 0 9.80135 0.248867 9.80135 0.555611V2.37871C9.80135 2.55234 9.89395 2.71439 10.0386 2.8012C10.1139 2.8475 10.2065 2.87066 10.2933 2.87066C10.3743 2.87066 10.4554 2.85329 10.5248 2.81278C12.7415 1.63789 15.1317 1.04177 17.632 1.04177C21.1509 1.04177 24.5887 2.28032 27.3147 4.52591C27.4015 4.60115 27.5114 4.64166 27.6272 4.64166C27.633 4.64166 27.7024 4.64166 27.7082 4.63588C27.8529 4.61273 27.9744 4.52591 28.0497 4.40437C29.6008 1.83467 31.7653 0.26623 32.0084 0.0983894C32.101 0.0347257 32.211 0 32.3267 0C32.4135 0 32.5061 0.0231504 32.5814 0.0636637C32.7666 0.162053 32.8823 0.347257 32.8823 0.555611V32.0171C32.8823 32.3238 32.6335 32.5727 32.3267 32.5727L32.3209 32.5669ZM5.06709 17.8895C4.21631 17.8895 3.52758 18.584 3.52758 19.429V29.9162C3.52758 30.7669 4.21631 31.4615 5.06709 31.4615C5.91786 31.4615 6.60659 30.7669 6.60659 29.9162V19.429C6.60659 18.5782 5.91786 17.8895 5.06709 17.8895ZM31.2734 2.37292C31.1403 2.37292 31.0129 2.42501 30.9203 2.5234C29.4792 3.99924 27.7429 6.36058 27.6388 9.21966C27.552 11.6389 28.6574 14.0407 30.9203 16.3616C31.0129 16.4542 31.1403 16.5121 31.2734 16.5121C31.337 16.5121 31.4007 16.5005 31.4586 16.4773C31.6438 16.4021 31.7653 16.2227 31.7653 16.0201V2.87066C31.7653 2.66809 31.6438 2.48867 31.4586 2.41343C31.4007 2.39028 31.337 2.37871 31.2734 2.37871V2.37292Z" fill="black"/>
<path d="M17.6609 23.8863C13.3086 23.8863 9.7666 20.3442 9.7666 15.992C9.7666 11.6397 13.3086 8.09766 17.6609 8.09766C22.0132 8.09766 25.5494 11.6397 25.5494 15.992C25.5494 20.3442 22.0074 23.8863 17.6609 23.8863ZM17.6609 9.20309C13.9221 9.20309 10.8778 12.2474 10.8778 15.9862C10.8778 19.725 13.9221 22.7692 17.6609 22.7692C21.3997 22.7692 24.444 19.725 24.444 15.9862C24.444 12.2474 21.3997 9.20309 17.6609 9.20309Z" fill="black"/>
<path d="M21.1562 16.2118C20.8495 16.2118 20.6006 15.963 20.6006 15.6562C20.6006 14.2267 19.4373 13.0634 18.0078 13.0634C17.701 13.0634 17.4521 12.8145 17.4521 12.5078C17.4521 12.201 17.701 11.9521 18.0078 11.9521C20.0508 11.9521 21.7118 13.6132 21.7118 15.6562C21.7118 15.963 21.463 16.2118 21.1562 16.2118Z" fill="black"/>
</g>
<defs>
<clipPath id="clip0_12215_823">
<rect width="32.5669" height="32.5669" fill="white" transform="translate(0.303711)"/>
</clipPath>
</defs>
</svg>
