<svg width="24" height="24" viewBox="0 0 24 24" fill="none" xmlns="http://www.w3.org/2000/svg">
<g id="icon/globe/dark">
<path id="Vector" d="M12 2C10.0222 2 8.08879 2.58649 6.4443 3.6853C4.79981 4.78412 3.51809 6.3459 2.76121 8.17317C2.00433 10.0004 1.8063 12.0111 2.19215 13.9509C2.578 15.8907 3.53041 17.6725 4.92894 19.0711C6.32746 20.4696 8.10929 21.422 10.0491 21.8079C11.9889 22.1937 13.9996 21.9957 15.8268 21.2388C17.6541 20.4819 19.2159 19.2002 20.3147 17.5557C21.4135 15.9112 22 13.9778 22 12C21.9971 9.34872 20.9426 6.80684 19.0679 4.9321C17.1932 3.05736 14.6513 2.00287 12 2V2ZM19.2058 7.83333H16.5217C15.9208 6.44082 15.1297 5.1384 14.1708 3.96333C16.2929 4.54077 18.1019 5.93122 19.2058 7.83333ZM15.75 12C15.7432 12.8484 15.6095 13.6911 15.3533 14.5H8.64667C8.39055 13.6911 8.25685 12.8484 8.25 12C8.25685 11.1516 8.39055 10.3089 8.64667 9.5H15.3533C15.6095 10.3089 15.7432 11.1516 15.75 12ZM9.315 16.1667H14.685C13.9777 17.5631 13.0735 18.8507 12 19.99C10.9261 18.851 10.0219 17.5634 9.315 16.1667ZM9.315 7.83333C10.0223 6.43689 10.9265 5.1493 12 4.01C13.0739 5.14898 13.9781 6.43663 14.685 7.83333H9.315ZM9.83334 3.96333C8.87305 5.13815 8.08049 6.44058 7.47834 7.83333H4.79417C5.89905 5.93036 7.70972 4.5398 9.83334 3.96333ZM4.05084 9.5H6.91667C6.70064 10.316 6.58864 11.1559 6.58334 12C6.58864 12.8441 6.70064 13.684 6.91667 14.5H4.05084C3.53862 12.8727 3.53862 11.1273 4.05084 9.5ZM4.79417 16.1667H7.47834C8.08049 17.5594 8.87305 18.8618 9.83334 20.0367C7.70972 19.4602 5.89905 18.0696 4.79417 16.1667ZM14.1708 20.0367C15.1297 18.8616 15.9208 17.5592 16.5217 16.1667H19.2058C18.1019 18.0688 16.2929 19.4592 14.1708 20.0367ZM19.9492 14.5H17.0833C17.2994 13.684 17.4114 12.8441 17.4167 12C17.4114 11.1559 17.2994 10.316 17.0833 9.5H19.9475C20.4597 11.1273 20.4597 12.8727 19.9475 14.5H19.9492Z" fill="#B1B2B6"/>
</g>
</svg>
