<svg width="48" height="42" viewBox="0 0 48 42" fill="none" xmlns="http://www.w3.org/2000/svg">
<g clip-path="url(#clip0_12215_734)">
<path d="M35.1329 24.3833C33.9406 21.9004 31.1799 20.0137 27.881 19.1803C27.9678 14.3939 26.8566 10.4757 25.1782 8.03912C25.1724 8.03912 25.1666 8.0449 25.1608 8.05069C25.0219 7.8597 24.8367 7.62241 24.6747 7.43142C24.6862 7.43142 24.6978 7.41984 24.7036 7.41984C24.0727 6.65588 23.3782 6.0829 22.6432 5.73565C22.4059 5.6199 22.157 5.53308 21.914 5.46363C20.7564 5.15689 19.5295 5.38839 18.3372 6.26811C14.8762 8.82044 17.4691 15.6035 19.3153 19.4812C18.5803 19.7243 17.8568 20.0368 17.1623 20.4072C17.1508 20.413 17.1392 20.4188 17.1218 20.4246C17.0987 20.4362 17.0697 20.4535 17.0466 20.4651C16.3636 20.8529 15.7154 21.287 15.1193 21.7673C12.8564 18.1211 8.53879 12.2872 4.52798 13.8152C-0.825562 15.8582 1.6689 23.5326 10.2403 28.8109C9.15228 32.0461 9.25067 35.3914 10.7034 37.7411C13.5219 42.3076 19.6915 41.2658 26.4283 37.608C26.4457 37.5964 26.463 37.5849 26.4862 37.5791C26.5035 37.5675 26.5209 37.5559 26.5441 37.5501C33.2577 33.8519 37.4653 29.2218 35.1387 24.3833H35.1329ZM26.0232 16.1649C26.0232 16.1649 26.0232 16.1823 26.0232 16.1881C26.0232 16.2517 26.029 16.3212 26.0347 16.3849C26.0116 16.2402 25.9942 16.0955 25.9711 15.945C25.9827 15.9508 25.9942 15.9624 26.0058 15.9681C26.0058 16.0318 26.0174 16.1013 26.0232 16.1649Z" fill="black"/>
<path d="M16.5198 41.4856C13.655 41.4856 11.4615 40.3628 10.0782 38.123C8.6429 35.7964 8.38825 32.4685 9.37214 29.1233C4.00703 25.6681 0.661788 20.9338 1.00904 17.2297C1.18846 15.3198 2.34598 13.8671 4.26168 13.1321C8.30143 11.5868 12.4222 16.24 15.3044 20.7023C15.7501 20.384 16.2073 20.0888 16.6819 19.8226L16.7571 19.7821C16.7571 19.7821 16.7976 19.7589 16.8208 19.7473C17.3012 19.4927 17.8047 19.2612 18.314 19.0528C16.1089 14.2144 14.4189 8.23577 17.8973 5.66607C19.2284 4.68218 20.6753 4.36386 22.0933 4.74584C22.3769 4.82108 22.6663 4.93105 22.9499 5.06416C23.7775 5.45772 24.5588 6.08857 25.2591 6.94514L25.3691 7.07825L25.3865 7.06668L25.5196 7.25767L25.8553 7.66859L25.8147 7.68595C27.5915 10.302 28.5986 14.2549 28.6044 18.613C31.938 19.5853 34.5946 21.5936 35.781 24.0533C38.0382 28.7529 34.8781 33.7649 26.8797 38.1693L26.7581 38.233C22.7878 40.3917 19.3268 41.4682 16.5141 41.4682L16.5198 41.4856ZM5.888 14.2896C5.51759 14.2896 5.14719 14.3533 4.78257 14.4922C3.3646 15.0304 2.58327 16.0027 2.45595 17.3686C2.1029 21.1306 6.43782 25.6218 10.6165 28.1972L11.1084 28.4982L10.9232 29.048C9.87566 32.1618 10.0261 35.2755 11.3168 37.3648C12.9257 39.9692 16.7861 42.0181 26.0752 36.9713L26.1852 36.9134C35.4395 31.8145 35.7984 27.4564 34.473 24.7015C33.4081 22.4907 30.8789 20.6907 27.7015 19.8862L27.1401 19.7473L27.1517 19.1686C27.2269 15.0536 26.3819 11.3264 24.8251 8.8319L24.5646 8.47885C24.4547 8.32838 24.2984 8.12581 24.1016 7.88852L23.7081 7.40236C23.2682 6.95671 22.8052 6.61524 22.3248 6.38953C22.1222 6.29692 21.9197 6.2159 21.7171 6.16381C20.7274 5.89758 19.732 6.13487 18.7596 6.85254C15.7559 9.06919 18.2214 15.5224 19.9635 19.1686L20.3165 19.9094L19.5352 20.1698C18.8291 20.4071 18.1404 20.7023 17.4922 21.0495L17.3822 21.1074C16.7513 21.4605 16.1321 21.8772 15.5649 22.3402L14.9282 22.8553L14.4942 22.1608C12.5843 19.0875 9.09434 14.307 5.88221 14.307L5.888 14.2896ZM25.6122 16.5757L25.5832 16.5526L25.6469 16.4542L25.3228 16.4889L25.0334 14.4632L26.7118 15.5571L26.7697 16.3442L25.699 16.4484L25.618 16.5699L25.6122 16.5757Z" fill="black" stroke="black" stroke-width="0.578761" stroke-miterlimit="10"/>
<path d="M36.9946 7.12439L36.2715 7.86621L36.4455 8.03589L37.1687 7.29407L36.9946 7.12439Z" fill="black"/>
<path d="M35.7783 5.93689L35.0552 6.67871L35.482 7.09483L36.2052 6.35301L35.7783 5.93689Z" fill="black"/>
<path d="M35.9778 8.51954C35.8389 8.65844 35.8447 8.88416 35.9836 9.02306C36.1225 9.16196 36.3482 9.15618 36.4871 9.01727L38.1481 7.30993C38.287 7.17103 38.2813 6.94531 38.1424 6.80641C38.0035 6.6675 37.7777 6.67329 37.6388 6.81219L37.17 7.29257L36.4466 8.03338L35.9778 8.51375V8.51954Z" fill="black"/>
<path d="M23.4824 8.42124C23.2914 8.39809 23.1351 8.28234 23.0541 8.12607C23.0541 8.12607 23.0425 8.12607 23.0367 8.12029C23.0367 8.12029 23.0483 8.12029 23.0541 8.12607C23.0772 8.13765 23.1004 8.14922 23.1293 8.1608C23.1004 8.13765 23.0657 8.1145 23.0367 8.08556C23.0078 8.00453 22.9904 7.91772 23.002 7.82512C23.0194 7.63992 23.1351 7.48365 23.2856 7.40262C23.303 7.40262 23.3203 7.40262 23.3377 7.40262C23.3319 7.40262 23.3203 7.39105 23.3145 7.39105C23.4014 7.35053 23.4997 7.33317 23.6039 7.34475C23.7602 7.36211 23.8933 7.44314 23.9801 7.55889C24.009 7.55889 24.0322 7.55889 24.0553 7.55889H24.0669C24.0901 7.55889 24.119 7.55889 24.1422 7.55889C24.1711 7.55889 24.1943 7.5531 24.2174 7.54731C24.2174 7.54731 24.229 7.54731 24.2348 7.54731C24.2579 7.54731 24.2811 7.54153 24.3042 7.53574C24.3274 7.53574 24.3505 7.52416 24.3795 7.51838C24.3795 7.51838 24.391 7.51838 24.3968 7.51838C24.42 7.51259 24.4431 7.5068 24.4663 7.49522C24.4894 7.48365 24.5126 7.47786 24.5357 7.46629C24.5357 7.46629 24.5473 7.46629 24.5531 7.4605C24.5762 7.44892 24.5994 7.44314 24.6225 7.43156C23.9917 6.6676 23.2972 6.09462 22.5621 5.74737C22.3249 5.63161 22.076 5.5448 21.8329 5.47535C20.6754 5.16861 19.4484 5.40011 18.2562 6.27983C14.7952 8.83216 17.388 15.6152 19.2343 19.4929C18.4992 19.736 17.7758 20.0486 17.0813 20.419C17.0697 20.4247 17.0581 20.4305 17.0408 20.4363C17.0176 20.4479 16.9887 20.4653 16.9655 20.4768C16.2826 20.8646 15.6344 21.2987 15.0383 21.779C12.7753 18.1329 8.45774 12.2989 4.44692 13.8269C-0.906617 15.8699 1.58784 23.5443 10.1593 28.8226C9.07123 32.0578 9.16961 35.4031 10.6223 37.7529C13.4409 42.3193 19.6105 41.2775 26.3472 37.6197C26.3646 37.6082 26.3878 37.5966 26.4051 37.5908C26.4225 37.5792 26.4398 37.5734 26.463 37.5619C33.1766 33.8636 37.3842 29.2335 35.0576 24.3951C33.8653 21.9122 31.1047 20.0254 27.8057 19.192C27.8925 14.4056 26.7813 10.4874 25.1029 8.05084C24.7209 8.27076 24.2811 8.36337 23.8528 8.34022C23.7486 8.41545 23.6155 8.45018 23.4824 8.43861V8.42124ZM10.8712 27.0631C4.46429 23.5153 2.20133 17.9824 5.77229 16.5123C5.79544 16.5007 5.81859 16.495 5.84174 16.4834C5.84753 16.4834 5.8591 16.4834 5.86489 16.4776C5.88225 16.4776 5.89383 16.466 5.91119 16.4602C5.92276 16.4602 5.92855 16.4544 5.94013 16.4487C5.9517 16.4487 5.96907 16.4371 5.98064 16.4371C5.99222 16.4371 6.00379 16.4313 6.01537 16.4255C6.02694 16.4255 6.0443 16.4197 6.05588 16.4139C6.06745 16.4139 6.07903 16.4139 6.0906 16.4081C6.10218 16.4081 6.11376 16.4024 6.13112 16.3966C6.14269 16.3966 6.15427 16.3966 6.16584 16.3908C6.17742 16.3908 6.18899 16.3908 6.20636 16.385C6.21793 16.385 6.22951 16.385 6.24108 16.3792C6.25266 16.3792 6.26423 16.3792 6.27581 16.3734C6.28738 16.3734 6.29896 16.3734 6.31053 16.3734C6.32211 16.3734 6.33368 16.3734 6.34526 16.3734C6.35684 16.3734 6.36841 16.3734 6.37999 16.3734C6.39156 16.3734 6.40314 16.3734 6.41471 16.3734C6.42629 16.3734 6.43786 16.3734 6.44944 16.3734C6.46101 16.3734 6.47259 16.3734 6.48416 16.3734C6.49574 16.3734 6.50731 16.3734 6.51889 16.3734C6.53046 16.3734 6.54204 16.3734 6.5594 16.3734C6.57098 16.3734 6.58255 16.3734 6.59413 16.3734C6.6057 16.3734 6.61728 16.3734 6.63464 16.3734C6.64622 16.3734 6.65779 16.3734 6.66937 16.3734C6.68094 16.3734 6.69252 16.3734 6.70988 16.3734C6.72146 16.3734 6.73303 16.3734 6.74461 16.3734C6.75618 16.3734 6.76776 16.3734 6.78512 16.3734C6.79669 16.3734 6.80827 16.3734 6.81984 16.3734C6.83142 16.3734 6.84299 16.3734 6.86036 16.3734C6.87193 16.3734 6.88351 16.3734 6.89508 16.3734C6.90666 16.3734 6.91823 16.3734 6.9356 16.3734C6.94138 16.3734 6.94717 16.3734 6.95296 16.3734C6.95296 16.3734 6.95875 16.3734 6.96453 16.3734C6.99926 16.3734 7.03977 16.385 7.0745 16.3908C7.08029 16.3908 7.08607 16.3908 7.09186 16.3908C7.13238 16.3966 7.1671 16.4024 7.20761 16.4139C7.24813 16.4197 7.28285 16.4313 7.32337 16.4371C7.32337 16.4371 7.33494 16.4371 7.34073 16.4371C7.37545 16.4487 7.41597 16.4544 7.45069 16.466C7.45648 16.466 7.46227 16.466 7.47384 16.4718C7.50857 16.4834 7.54908 16.495 7.58381 16.5065C7.5896 16.5065 7.59538 16.5065 7.60117 16.5123C7.64169 16.5239 7.67641 16.5413 7.71692 16.5528C7.75744 16.5702 7.79795 16.5818 7.83268 16.5991C7.83268 16.5991 7.84425 16.5991 7.85004 16.6049C7.88476 16.6223 7.92528 16.6339 7.96 16.6512C7.96579 16.6512 7.97158 16.657 7.98315 16.6628C8.01788 16.6802 8.05839 16.6975 8.09312 16.7149C8.09312 16.7149 8.10469 16.7149 8.11048 16.7207C8.151 16.738 8.18572 16.7612 8.22623 16.7786C8.26675 16.8017 8.30726 16.8191 8.34199 16.8422C8.34199 16.8422 8.35356 16.848 8.35935 16.8538C8.39407 16.8769 8.43459 16.8943 8.46931 16.9175C8.4751 16.9175 8.48089 16.9232 8.48668 16.929C8.5214 16.9522 8.56191 16.9753 8.59664 16.9985C8.59664 16.9985 8.60822 17.0043 8.60822 17.0101C8.64873 17.0332 8.68345 17.0564 8.72397 17.0853C8.76448 17.1084 8.79921 17.1374 8.83972 17.1605C8.84551 17.1605 8.8513 17.1663 8.85708 17.1721C8.89181 17.1953 8.93232 17.2242 8.96705 17.2473C8.97284 17.2473 8.97862 17.2589 8.98441 17.2589C9.01914 17.2879 9.05965 17.311 9.09438 17.34C9.09438 17.34 9.10016 17.3457 9.10595 17.3515C9.14646 17.3805 9.18119 17.4094 9.2217 17.4383C9.2217 17.4383 9.2217 17.4383 9.22749 17.4383C9.268 17.4673 9.30273 17.4962 9.34324 17.5252C9.34903 17.5252 9.35482 17.5367 9.36061 17.5367C9.39533 17.5657 9.43584 17.5946 9.47057 17.6235C9.47636 17.6235 9.48214 17.6351 9.48793 17.6409C9.52266 17.6698 9.56317 17.7046 9.5979 17.7335C9.5979 17.7335 9.60368 17.7335 9.60947 17.7393C9.6442 17.774 9.68471 17.803 9.71944 17.8377C9.71944 17.8377 9.71944 17.8377 9.72523 17.8435C9.75995 17.8782 9.80046 17.9071 9.83519 17.9419C9.83519 17.9419 9.84676 17.9534 9.85255 17.9592C9.88728 17.994 9.922 18.0229 9.96252 18.0576C9.96252 18.0576 9.97409 18.0692 9.97988 18.075C10.0146 18.1097 10.0551 18.1444 10.0898 18.1792C10.1246 18.2139 10.1651 18.2486 10.1998 18.2891L10.2114 18.3007C10.2461 18.3354 10.2866 18.3701 10.3213 18.4107C10.3213 18.4107 10.3329 18.4222 10.3387 18.428C10.3734 18.4627 10.4082 18.4975 10.4429 18.538C10.4429 18.538 10.4545 18.5496 10.4545 18.5554C10.4892 18.5959 10.5297 18.6306 10.5644 18.6711C10.5992 18.7116 10.6397 18.7463 10.6744 18.7869C10.6744 18.7869 10.6802 18.7926 10.686 18.7984C10.7207 18.8389 10.7554 18.8737 10.7901 18.9142C10.7901 18.9142 10.8017 18.9258 10.8075 18.9315C10.8422 18.9721 10.877 19.0068 10.9117 19.0473C10.9117 19.0473 10.9175 19.0589 10.9233 19.0589C10.9927 19.1399 11.0622 19.2209 11.1374 19.302C11.1374 19.302 11.1432 19.3077 11.149 19.3135C11.1837 19.354 11.2184 19.3888 11.2474 19.4293C11.2474 19.4351 11.2589 19.4409 11.2647 19.4466C11.2995 19.4872 11.3284 19.5277 11.3631 19.5624C11.3631 19.5624 11.3689 19.574 11.3747 19.574C11.4441 19.655 11.5078 19.736 11.5773 19.8228C11.5773 19.8228 11.583 19.8344 11.5888 19.8344C11.6236 19.8749 11.6525 19.9154 11.6872 19.956C11.6872 19.9617 11.6988 19.9675 11.6988 19.9733C11.7277 20.0138 11.7625 20.0543 11.7914 20.0949C11.7914 20.0949 11.7972 20.1006 11.803 20.1064C11.8666 20.1875 11.9303 20.2743 11.994 20.3553C11.994 20.3553 11.9998 20.3669 12.0055 20.3727C12.0345 20.4132 12.0634 20.4537 12.0981 20.4884C12.0981 20.4884 12.1039 20.5 12.1097 20.5058C12.1387 20.5463 12.1676 20.5868 12.1965 20.6273C12.1965 20.6273 12.1965 20.6331 12.2023 20.6389C12.2313 20.6794 12.2602 20.7199 12.2949 20.7604C12.3239 20.8009 12.3528 20.8415 12.3817 20.882C12.3817 20.882 12.3875 20.8935 12.3933 20.8993C12.4223 20.9398 12.4512 20.9746 12.4743 21.0151L12.4859 21.0324C12.5149 21.073 12.5438 21.1077 12.5669 21.1482C12.5959 21.1945 12.6248 21.235 12.648 21.2755C12.6769 21.316 12.7001 21.3508 12.729 21.3913C12.729 21.3913 12.7348 21.4029 12.7406 21.4086C12.7637 21.4434 12.7927 21.4839 12.8158 21.5186C12.8158 21.5186 12.8216 21.5302 12.8274 21.536C12.8505 21.5707 12.8795 21.6112 12.9026 21.6459C12.9026 21.6459 12.9026 21.6459 12.9026 21.6517C12.9258 21.6864 12.9547 21.727 12.9779 21.7617C12.9779 21.7617 12.9779 21.7617 12.9779 21.7675C13.001 21.8022 13.0242 21.8369 13.0473 21.8717C13.0473 21.8717 13.0531 21.8832 13.0589 21.889C13.082 21.9237 13.1052 21.9585 13.1283 21.9932L13.1399 22.0048C13.1631 22.0395 13.1862 22.0742 13.2094 22.1089C13.2325 22.1437 13.2557 22.1784 13.2788 22.2131V22.2247C13.3078 22.2594 13.3251 22.2884 13.3483 22.3231L13.3598 22.3404C13.383 22.3694 13.4004 22.4041 13.4177 22.433C13.4177 22.433 13.4177 22.4388 13.4235 22.4446C13.4467 22.4736 13.464 22.5083 13.4814 22.5372C13.4987 22.5662 13.5219 22.6009 13.5393 22.6298C13.5393 22.6298 13.5393 22.6356 13.545 22.6414C13.5624 22.6703 13.5798 22.6993 13.5971 22.7282C13.5971 22.7282 13.6029 22.7398 13.6087 22.7456C13.6261 22.7745 13.6434 22.7977 13.6608 22.8266C13.6608 22.8266 13.6608 22.8324 13.6666 22.8382C13.684 22.8671 13.7013 22.8961 13.7187 22.9192C12.4975 24.1578 11.5194 25.5873 10.8017 27.0863L10.8712 27.0631ZM30.3638 23.0928C30.7921 23.0118 31.2551 23.0928 31.6255 23.3706C31.886 23.5674 32.0712 23.8452 32.1754 24.1578C32.5342 25.3037 32.5631 26.4844 31.0989 28.892C30.1555 28.8689 29.4205 28.7821 28.8301 28.6374C27.6032 29.8759 25.8553 30.9408 23.7891 31.6006C23.737 31.618 23.6792 31.6353 23.6271 31.6527C23.6271 31.6643 23.6271 31.6817 23.6329 31.6932C23.7428 32.0521 23.8991 32.4051 24.1653 32.6713C24.1827 32.6887 24.2174 32.7176 24.1653 32.6713C24.1653 32.6713 24.1653 32.6713 24.1595 32.6655C24.5589 33.0765 25.2244 33.0649 25.6932 32.7697C25.6932 32.7697 25.6875 32.7697 25.6817 32.7697C25.6238 32.7987 25.6643 32.7813 25.6817 32.7697C25.7801 32.7061 25.8842 32.625 25.9537 32.544C25.9537 32.544 25.9537 32.544 25.9305 32.5729C26.272 32.2199 26.3935 31.6874 26.2546 31.2186C26.191 30.8656 26.7466 30.773 26.7987 31.1318C27.2559 32.6424 25.537 34.0661 24.1653 33.3427C24.1248 33.3195 24.0843 33.2964 24.0438 33.2732C24.0438 33.308 24.0438 33.3485 24.0438 33.3832C23.9743 34.4366 22.8457 35.2468 21.8155 35.0211C21.4567 34.9517 20.3455 34.4771 20.768 34.0141C21.1731 33.6784 21.5551 35.0037 22.8631 34.3092C22.9152 34.2745 22.892 34.2919 22.8747 34.3034C22.8747 34.3034 22.8689 34.3034 22.8631 34.3092C22.8631 34.3092 22.8573 34.3092 22.8515 34.315C23.5229 33.9446 23.6618 33.0765 23.2277 32.4688C23.1178 32.3009 22.9962 32.1389 22.8631 31.9942C22.8515 31.9768 22.84 31.9652 22.8284 31.9479C22.7531 31.9421 22.6837 31.9305 22.6084 31.9132C20.8143 32.3241 19.0896 32.3472 17.6253 32.0405C17.6311 32.0578 17.6369 32.0752 17.6427 32.0926C18.0015 33.2385 18.0304 34.4192 16.5662 36.8268C13.7476 36.7632 12.7695 36.1034 11.9998 35.1774C11.7914 34.9285 11.6525 34.616 11.6293 34.2919C11.5252 32.9086 13.3251 31.8553 14.4711 33.0012C14.2859 32.1447 14.7373 31.4733 15.3739 31.1723C14.5116 30.6341 13.8923 29.9106 13.6087 29.0194C12.6769 26.0966 15.7154 22.5199 20.3976 21.0209C24.7962 19.6145 29.0732 20.5463 30.3523 23.0813L30.3638 23.0928ZM23.1409 34.1067C23.1409 34.1067 23.1814 34.0661 23.1525 34.0951C23.1525 34.0951 23.1467 34.1009 23.1409 34.1067ZM25.3633 12.7677C25.4212 12.9645 25.4791 13.1729 25.5312 13.3812C25.5312 13.3812 25.5312 13.387 25.5312 13.3928C25.5659 13.5317 25.5949 13.6706 25.6296 13.8095C25.6296 13.8095 25.6296 13.8153 25.6296 13.8211C25.6469 13.8905 25.6585 13.96 25.6759 14.0352C25.6759 14.0352 25.6759 14.041 25.6759 14.0468C25.7048 14.1915 25.728 14.3362 25.7569 14.4809C25.7569 14.4867 25.7569 14.4982 25.7569 14.504C25.7685 14.5793 25.7801 14.6487 25.7916 14.724C25.8032 14.7992 25.8148 14.8686 25.8264 14.9439C25.8264 14.9497 25.8264 14.9555 25.8264 14.9612C25.8379 15.0365 25.8437 15.1059 25.8553 15.1812C25.8553 15.1927 25.8553 15.1985 25.8553 15.2101C25.8727 15.3606 25.89 15.5053 25.9016 15.6615C25.9016 15.6731 25.9016 15.6847 25.9016 15.6963C25.9074 15.7715 25.9132 15.8467 25.919 15.922C25.919 15.9278 25.919 15.9393 25.919 15.9451C25.9247 16.0146 25.9305 16.0898 25.9363 16.1593C25.9363 16.1651 25.9363 16.1766 25.9363 16.1824C25.9363 16.2577 25.9479 16.3329 25.9479 16.4081C25.9479 16.4197 25.9479 16.4371 25.9479 16.4487C25.9479 16.5239 25.9537 16.6049 25.9595 16.6802C25.9595 16.6802 25.9595 16.686 25.9595 16.6917C25.9595 16.767 25.9595 16.8422 25.9653 16.9175C25.9653 16.929 25.9653 16.9464 25.9653 16.958C25.9653 17.0332 25.9653 17.1084 25.9653 17.1895C25.9653 17.201 25.9653 17.2184 25.9653 17.23C25.9653 17.3052 25.9653 17.3805 25.9653 17.4557C25.9653 17.4615 25.9653 17.4673 25.9653 17.4731C25.9653 17.5541 25.9653 17.6293 25.9653 17.7104C25.9653 17.7277 25.9653 17.7451 25.9653 17.7624C25.9653 17.8435 25.9653 17.9187 25.9653 17.9997C25.9653 18.0113 25.9653 18.0229 25.9653 18.0287C25.9653 18.1039 25.9653 18.1734 25.9595 18.2486C25.9595 18.2602 25.9595 18.2775 25.9595 18.2891C25.9595 18.3701 25.9537 18.4454 25.9479 18.5264C25.9479 18.5438 25.9479 18.5611 25.9479 18.5785C25.9479 18.6595 25.9363 18.7406 25.9363 18.8274C25.8437 18.8158 25.7453 18.8042 25.6527 18.7926C25.6064 18.7926 25.5659 18.7869 25.5196 18.7811C25.4617 18.7811 25.4039 18.7695 25.346 18.7637C25.2997 18.7637 25.2534 18.7579 25.2071 18.7521C25.1492 18.7521 25.0971 18.7406 25.0392 18.7406C24.9929 18.7406 24.9466 18.7348 24.9003 18.7348C24.8425 18.7348 24.7904 18.729 24.7325 18.7232C24.6862 18.7232 24.6399 18.7232 24.5878 18.7174C24.5357 18.7174 24.4778 18.7174 24.4258 18.7174C24.3795 18.7174 24.3274 18.7174 24.2811 18.7174C24.229 18.7174 24.1711 18.7174 24.119 18.7174C24.0727 18.7174 24.0206 18.7174 23.9743 18.7174C23.9222 18.7174 23.8644 18.7174 23.8123 18.7174C23.766 18.7174 23.7139 18.7174 23.6676 18.7174C23.6155 18.7174 23.5576 18.7174 23.5055 18.7174C23.4592 18.7174 23.4071 18.7174 23.3608 18.7174C23.303 18.7174 23.2509 18.7174 23.193 18.7232C23.1467 18.7232 23.0946 18.7232 23.0483 18.729C22.9904 18.729 22.9383 18.7348 22.8805 18.7406C22.8342 18.7406 22.7821 18.7463 22.7358 18.7521C22.6779 18.7521 22.6258 18.7637 22.5679 18.7695C22.5216 18.7695 22.4753 18.7811 22.4232 18.7811C22.3654 18.7869 22.3075 18.7926 22.2496 18.7984C22.2033 18.7984 22.157 18.81 22.1107 18.8158C22.0528 18.8216 21.995 18.8332 21.9313 18.8389C21.885 18.8447 21.8387 18.8505 21.7982 18.8563C21.7345 18.8679 21.6766 18.8737 21.613 18.8852C21.5725 18.891 21.5262 18.8968 21.4856 18.9026C21.4162 18.9142 21.3467 18.9258 21.2773 18.9373C21.2426 18.9431 21.2078 18.9489 21.1731 18.9547C21.0689 18.9721 20.9648 18.9952 20.8606 19.0184C19.7841 16.7438 17.1623 10.6726 19.813 8.82059C19.8478 8.79744 19.8825 8.77429 19.9114 8.75114C19.9172 8.75114 19.9288 8.73956 19.9346 8.73377C19.9693 8.71062 20.004 8.69326 20.033 8.67011C20.033 8.67011 20.0387 8.67011 20.0445 8.66432C20.0735 8.64696 20.1082 8.6296 20.1371 8.61223C20.1429 8.61223 20.1545 8.60066 20.1603 8.60066C20.195 8.5833 20.224 8.56593 20.2587 8.54857C20.2645 8.54857 20.2703 8.54278 20.276 8.53699C20.305 8.52542 20.3339 8.50806 20.3571 8.49648C20.3686 8.49648 20.3744 8.49069 20.386 8.48491C20.4207 8.47333 20.4497 8.45597 20.4844 8.44439C20.4902 8.44439 20.5018 8.43861 20.5075 8.43282C20.5365 8.42124 20.5596 8.41546 20.5886 8.40388C20.6001 8.40388 20.6059 8.39809 20.6175 8.3923C20.6464 8.38073 20.6812 8.37494 20.7101 8.36337C20.7217 8.36337 20.7275 8.36337 20.739 8.35758C20.7622 8.35179 20.7911 8.346 20.8143 8.34022C20.8259 8.34022 20.8317 8.34022 20.8432 8.33443C20.8722 8.32864 20.9069 8.32285 20.9358 8.31707C20.9474 8.31707 20.9532 8.31707 20.9648 8.31707C20.9879 8.31707 21.0169 8.30549 21.04 8.30549C21.0458 8.30549 21.0574 8.30549 21.0632 8.30549C21.0921 8.30549 21.1268 8.2997 21.1558 8.29392C21.1673 8.29392 21.1731 8.29392 21.1847 8.29392C21.2136 8.29392 21.2426 8.29392 21.2657 8.29392C21.2657 8.29392 21.2773 8.29392 21.2831 8.29392C21.3178 8.29392 21.3467 8.29392 21.3815 8.29392C21.393 8.29392 21.3988 8.29392 21.4104 8.29392C21.4394 8.29392 21.4741 8.29392 21.503 8.29392C21.5377 8.29392 21.5667 8.29392 21.6014 8.2997C21.6014 8.2997 21.6072 8.2997 21.613 8.2997C21.613 8.2997 21.6188 8.2997 21.6246 8.2997C21.6593 8.2997 21.694 8.30549 21.7287 8.31128C21.7287 8.31128 21.7345 8.31128 21.7403 8.31128C21.775 8.31128 21.804 8.32285 21.8387 8.32864H21.8503C21.885 8.33443 21.9197 8.346 21.9544 8.35179C21.9544 8.35179 21.966 8.35179 21.9718 8.35179C22.0413 8.36915 22.1165 8.3923 22.186 8.42124C22.186 8.42124 22.1917 8.42124 22.1975 8.42124C22.2323 8.43282 22.267 8.45018 22.3075 8.46176C22.3827 8.49069 22.4522 8.52542 22.5274 8.56593C22.5274 8.56593 22.5274 8.56593 22.5332 8.56593C22.6084 8.60645 22.6779 8.64696 22.7531 8.69326C22.7879 8.71641 22.8284 8.73956 22.8631 8.76271C22.9383 8.8148 23.0078 8.86689 23.0772 8.92476C24.009 9.66558 24.8077 10.9909 25.3228 12.7388L25.3633 12.7677Z" fill="#F8C9DE"/>
<path d="M20.409 21.032C15.7268 22.531 12.6883 26.1077 13.6201 29.0305C13.9037 29.9218 14.5288 30.651 15.3854 31.1834C15.9236 30.923 16.595 30.9288 17.1043 31.3166C17.3531 31.5018 17.5326 31.7622 17.6309 32.0516C19.0952 32.3583 20.8257 32.3352 22.6141 31.9243C22.2205 31.8432 21.8385 31.658 21.5607 31.4902C21.335 31.3571 21.3408 31.0272 21.5723 30.8999L22.4231 30.4368L22.4694 30.4137L22.5331 30.379L23.4012 29.9044C23.6327 29.7771 23.9105 29.9507 23.9047 30.2111C23.8931 30.6105 23.8237 31.1487 23.5922 31.577C23.6038 31.6002 23.6153 31.6291 23.6211 31.658C23.6732 31.6407 23.7311 31.6233 23.7832 31.6059C25.8494 30.9462 27.5972 29.8755 28.8242 28.6427C27.6493 28.3591 27.0416 27.8614 26.5323 27.2479C26.3239 26.999 26.185 26.6865 26.1619 26.3624C26.0577 24.9791 27.8577 23.9258 29.0036 25.0717C28.7721 24.0242 29.5129 23.2544 30.3579 23.0924C29.0788 20.5574 24.796 19.6256 20.4032 21.032H20.409ZM17.2548 27.3173C17.2085 27.3752 17.1448 27.4099 17.0753 27.4273C17.0638 27.4273 17.0522 27.4331 17.0406 27.4389C16.9712 27.462 16.9017 27.491 16.838 27.5257C16.838 27.5257 16.8323 27.5257 16.8265 27.5315C16.8149 27.5373 16.7975 27.5488 16.786 27.5546C16.7512 27.5778 16.7165 27.6009 16.6876 27.6299C16.6586 27.653 16.6297 27.6819 16.6008 27.7051C16.6008 27.7051 16.595 27.7109 16.5892 27.7167C16.5776 27.734 16.5602 27.7456 16.5487 27.763C16.5024 27.8151 16.4619 27.8787 16.4271 27.9366C16.3808 28.0292 16.3403 28.1218 16.3114 28.2202C16.294 28.307 16.2824 28.3938 16.2824 28.4806C16.2824 28.5211 16.2882 28.5617 16.294 28.6022C16.3172 28.7527 16.213 28.8916 16.0625 28.9205C15.9178 28.9494 15.7673 28.8337 15.7442 28.689C15.7152 28.5211 15.721 28.3475 15.75 28.1797C15.8773 27.5488 16.3461 27.0222 16.9769 26.8659C17.1274 26.8312 17.2663 26.9585 17.2953 27.0974C17.3068 27.1668 17.2837 27.2537 17.2432 27.3058L17.2548 27.3173ZM18.91 30.6915C18.557 30.8883 18.1113 30.7552 17.9145 30.4021C17.7178 30.0491 17.8509 29.6034 18.2039 29.4067C18.557 29.2099 19.0026 29.343 19.1994 29.696C19.3962 30.0491 19.2631 30.4947 18.91 30.6915ZM23.5227 24.5624C23.4649 24.5798 23.4128 24.6029 23.3607 24.6261C23.3317 24.6377 23.3028 24.655 23.2739 24.6724C23.2681 24.6724 23.2623 24.6782 23.2507 24.684C23.2507 24.684 23.2449 24.684 23.2391 24.6898C23.1813 24.7303 23.1292 24.7708 23.0829 24.8171C23.0829 24.8171 23.0713 24.8287 23.0655 24.8344L23.0539 24.846C23.0308 24.8692 23.0134 24.8981 22.9903 24.9213C22.8977 25.0428 22.7298 25.0659 22.6025 24.9791C22.481 24.8981 22.4578 24.7071 22.5446 24.5914C22.643 24.4582 22.7703 24.3309 22.915 24.2383C23.4533 23.8853 24.1594 23.8505 24.7092 24.1978C24.8423 24.2788 24.8481 24.4698 24.7671 24.5856C24.6803 24.7187 24.5008 24.7187 24.3793 24.6435C24.3735 24.6435 24.3619 24.6319 24.3504 24.6261C24.2751 24.5856 24.1941 24.5566 24.1131 24.5335C24.0205 24.5103 23.9221 24.5045 23.8237 24.5045C23.7195 24.5045 23.6211 24.5277 23.5169 24.5508L23.5227 24.5624ZM24.6687 27.5373C24.3156 27.734 23.87 27.6009 23.6732 27.2479C23.4764 26.8948 23.6096 26.4492 23.9626 26.2524C24.3156 26.0556 24.7613 26.1887 24.9581 26.5418C25.1548 26.8948 25.0217 27.3405 24.6687 27.5373Z" fill="#FEF1F6"/>
<path d="M10.547 19.4065C9.89876 18.683 9.27369 18.1043 8.68914 17.6876C8.04093 17.2246 7.43902 16.9583 6.90077 16.9005C6.57088 16.8657 6.26992 16.9005 5.98054 17.022C5.14134 17.3693 4.6899 17.9712 4.63782 18.8219C4.60888 19.3255 4.71884 19.8984 4.9735 20.5177C5.23973 21.1717 5.64486 21.8489 6.1889 22.5376C7.27697 23.9208 8.81068 25.2115 10.6396 26.288C11.3051 25.0205 12.127 23.8572 13.0935 22.8212C12.2312 21.4785 11.3746 20.3267 10.547 19.4007V19.4065Z" fill="#FEF1F6"/>
<path d="M13.7418 22.8154C13.7418 22.8154 13.7418 22.8096 13.736 22.8038C13.7187 22.7749 13.7013 22.7518 13.6839 22.7228C13.6839 22.7228 13.6781 22.7112 13.6724 22.7055C13.655 22.6765 13.6376 22.6476 13.6203 22.6186C13.6203 22.6186 13.6203 22.6129 13.6145 22.6071C13.5971 22.5781 13.574 22.5492 13.5566 22.5145C13.5392 22.4855 13.5161 22.4508 13.4929 22.4219C13.4929 22.4219 13.4929 22.4161 13.4872 22.4103C13.4698 22.3813 13.4466 22.3466 13.4293 22.3177L13.4177 22.3003C13.3946 22.2656 13.3772 22.2367 13.354 22.2019V22.1904C13.3251 22.1556 13.302 22.1209 13.2788 22.0862C13.2557 22.0515 13.2325 22.0167 13.2094 21.982L13.1978 21.9704C13.1746 21.9357 13.1515 21.901 13.1283 21.8663C13.1283 21.8663 13.1225 21.8547 13.1167 21.8489C13.0936 21.8142 13.0704 21.7794 13.0473 21.7447C13.0473 21.7447 13.0473 21.7447 13.0473 21.7389C13.0241 21.7042 12.9952 21.6637 12.9721 21.629C12.9721 21.629 12.9721 21.629 12.9721 21.6232C12.9489 21.5884 12.92 21.5479 12.8968 21.5132C12.8968 21.5132 12.891 21.5016 12.8852 21.4958C12.8621 21.4611 12.8332 21.4206 12.81 21.3859C12.81 21.3859 12.8042 21.3743 12.7984 21.3685C12.7695 21.328 12.7463 21.2933 12.7174 21.2528C12.6885 21.2123 12.6653 21.1775 12.6364 21.137C12.6074 21.0907 12.5785 21.0502 12.5554 21.0155L12.5438 20.9981C12.5148 20.9576 12.4859 20.9229 12.4627 20.8824C12.4627 20.8824 12.457 20.8708 12.4512 20.865C12.4222 20.8245 12.3933 20.784 12.3644 20.7435C12.3354 20.7029 12.3065 20.6624 12.2718 20.6219C12.2718 20.6219 12.2718 20.6161 12.266 20.6103C12.237 20.5698 12.2081 20.5293 12.1792 20.4888C12.1792 20.4888 12.1734 20.4772 12.1676 20.4714C12.1386 20.4309 12.1097 20.3904 12.075 20.3557C12.075 20.3557 12.0692 20.3441 12.0634 20.3383C11.9997 20.2573 11.9361 20.1763 11.8724 20.0895C11.8724 20.0895 11.8666 20.0837 11.8608 20.0779C11.8319 20.0374 11.7972 19.9969 11.7682 19.9563C11.7682 19.9563 11.7567 19.9448 11.7567 19.939C11.7277 19.8985 11.693 19.858 11.6583 19.8174C11.6583 19.8174 11.6525 19.8059 11.6467 19.8059C11.5772 19.7248 11.5136 19.6438 11.4441 19.557C11.4441 19.557 11.4383 19.5454 11.4326 19.5454C11.3978 19.5049 11.3689 19.4644 11.3342 19.4297C11.3342 19.4239 11.3226 19.4181 11.3168 19.4123C11.2821 19.3718 11.2474 19.3313 11.2184 19.2966C11.2184 19.2966 11.2126 19.2908 11.2068 19.285C11.1374 19.2039 11.0679 19.1229 10.9927 19.0419C10.9927 19.0419 10.9869 19.0303 10.9811 19.0303C10.9464 18.9898 10.9117 18.9551 10.8769 18.9146C10.8769 18.9146 10.8654 18.903 10.8596 18.8972C10.8249 18.8567 10.7901 18.822 10.7554 18.7815C10.7554 18.7815 10.7496 18.7757 10.7438 18.7699C10.7091 18.7294 10.6686 18.6946 10.6339 18.6541C10.5991 18.6136 10.5586 18.5789 10.5239 18.5384C10.5239 18.5384 10.5123 18.5268 10.5123 18.521C10.4776 18.4863 10.4429 18.4516 10.4081 18.411C10.4081 18.411 10.3966 18.3995 10.3908 18.3937C10.3561 18.359 10.3213 18.3242 10.2808 18.2837L10.2692 18.2721C10.2345 18.2374 10.194 18.2027 10.1593 18.1622C10.1246 18.1275 10.084 18.0927 10.0493 18.058C10.0493 18.058 10.0377 18.0464 10.032 18.0406C9.99723 18.0059 9.9625 17.9712 9.92199 17.9423C9.92199 17.9423 9.91041 17.9307 9.90463 17.9249C9.8699 17.8902 9.82939 17.8554 9.79466 17.8265C9.79466 17.8265 9.79466 17.8265 9.78887 17.8207C9.75415 17.786 9.71363 17.757 9.67891 17.7223C9.67891 17.7223 9.67312 17.7223 9.66733 17.7165C9.63261 17.6818 9.59209 17.6529 9.55737 17.6239C9.55158 17.6239 9.54579 17.6124 9.54001 17.6066C9.50528 17.5776 9.46477 17.5487 9.43004 17.5198C9.42425 17.5198 9.41847 17.5082 9.41268 17.5082C9.37217 17.4792 9.33744 17.4503 9.29693 17.4214C9.29693 17.4214 9.29693 17.4214 9.29114 17.4214C9.25063 17.3924 9.2159 17.3635 9.17539 17.3346C9.17539 17.3346 9.1696 17.3288 9.16381 17.323C9.12909 17.294 9.08857 17.2651 9.05385 17.242C9.04806 17.242 9.04227 17.2304 9.03648 17.2304C9.00176 17.2014 8.96125 17.1783 8.92652 17.1551C8.92073 17.1551 8.91494 17.1493 8.90916 17.1436C8.86864 17.1146 8.83392 17.0915 8.7934 17.0683C8.75289 17.0452 8.71817 17.022 8.67765 16.9931C8.67765 16.9931 8.66608 16.9873 8.66608 16.9815C8.63135 16.9584 8.59084 16.9352 8.55611 16.9121C8.55032 16.9121 8.54454 16.9063 8.53875 16.9005C8.50402 16.8773 8.46351 16.86 8.42878 16.8368C8.423 16.8368 8.41721 16.831 8.41142 16.8252C8.37091 16.8021 8.3304 16.7847 8.29567 16.7616C8.25516 16.7384 8.21464 16.7211 8.17992 16.7037C8.17992 16.7037 8.16834 16.7037 8.16255 16.6979C8.12783 16.6806 8.08732 16.6632 8.05259 16.6458C8.0468 16.6458 8.04101 16.64 8.02944 16.6343C7.99471 16.6169 7.9542 16.5995 7.91947 16.5879C7.91947 16.5879 7.9079 16.5879 7.90211 16.5822C7.8616 16.5648 7.82687 16.5532 7.78636 16.5359C7.74585 16.5185 7.70533 16.5069 7.67061 16.4953C7.66482 16.4953 7.65903 16.4953 7.65325 16.4896C7.61852 16.478 7.57801 16.4664 7.54328 16.4548C7.53749 16.4548 7.53171 16.4548 7.52013 16.449C7.4854 16.4375 7.44489 16.4259 7.41017 16.4201C7.41017 16.4201 7.39859 16.4201 7.3928 16.4201C7.35229 16.4085 7.31756 16.4027 7.27705 16.397C7.23654 16.3912 7.20181 16.3854 7.1613 16.3738C7.15551 16.3738 7.14972 16.3738 7.14394 16.3738C7.10921 16.3738 7.0687 16.3622 7.03397 16.3564C7.03397 16.3564 7.02818 16.3564 7.0224 16.3564C7.01661 16.3564 7.01082 16.3564 7.00503 16.3564C6.99346 16.3564 6.98188 16.3564 6.96452 16.3564C6.95294 16.3564 6.94137 16.3564 6.92979 16.3564C6.91822 16.3564 6.90664 16.3564 6.88928 16.3564C6.8777 16.3564 6.86613 16.3564 6.85455 16.3564C6.84298 16.3564 6.8314 16.3564 6.81404 16.3564C6.80247 16.3564 6.79089 16.3564 6.77932 16.3564C6.76774 16.3564 6.75617 16.3564 6.7388 16.3564C6.72723 16.3564 6.71565 16.3564 6.70408 16.3564C6.6925 16.3564 6.68093 16.3564 6.66356 16.3564C6.65199 16.3564 6.64041 16.3564 6.62884 16.3564C6.61726 16.3564 6.60569 16.3564 6.58832 16.3564C6.57675 16.3564 6.56517 16.3564 6.5536 16.3564C6.54202 16.3564 6.53045 16.3564 6.51887 16.3564C6.5073 16.3564 6.49572 16.3564 6.48415 16.3564C6.47257 16.3564 6.461 16.3564 6.44942 16.3564C6.43785 16.3564 6.42627 16.3564 6.4147 16.3564C6.40312 16.3564 6.39155 16.3564 6.37997 16.3564C6.3684 16.3564 6.35682 16.3564 6.34525 16.3564C6.33367 16.3564 6.32209 16.3564 6.31052 16.3622C6.29894 16.3622 6.28737 16.3622 6.27579 16.368C6.26422 16.368 6.25264 16.368 6.23528 16.3738C6.22371 16.3738 6.21213 16.3738 6.20055 16.3796C6.18898 16.3796 6.1774 16.3854 6.16004 16.3912C6.14847 16.3912 6.13689 16.3912 6.12532 16.397C6.11374 16.397 6.09638 16.4027 6.0848 16.4085C6.07323 16.4085 6.06165 16.4143 6.05008 16.4201C6.0385 16.4201 6.02114 16.4317 6.00956 16.4317C5.99799 16.4317 5.9922 16.4375 5.98063 16.4433C5.96326 16.4433 5.95169 16.4548 5.93432 16.4606C5.92854 16.4606 5.91696 16.4606 5.91117 16.4664C5.88802 16.478 5.86487 16.4838 5.84172 16.4953C2.27077 17.9596 4.53372 23.4984 10.9406 27.0462C11.6583 25.5472 12.6364 24.1176 13.8576 22.8791C13.8402 22.8501 13.8228 22.827 13.8055 22.7981L13.7418 22.8154ZM6.18898 22.5434C5.65073 21.8605 5.23981 21.1833 4.97358 20.5235C4.72471 19.9043 4.60896 19.3313 4.6379 18.8278C4.68999 17.977 5.14142 17.3751 5.98063 17.0278C6.27001 16.9063 6.57096 16.8658 6.90086 16.9063C7.4391 16.9641 8.04102 17.2304 8.68923 17.6934C9.27378 18.1101 9.89884 18.6889 10.5471 19.4123C11.3747 20.3383 12.2312 21.4843 13.0936 22.8328C12.1271 23.8688 11.3052 25.0321 10.6397 26.2996C8.81077 25.2173 7.27705 23.9266 6.18898 22.5492V22.5434Z" fill="#EC008B"/>
<path d="M21.5838 8.86089C21.1035 8.8088 20.6231 8.95349 20.1427 9.28917C19.6566 9.63064 19.3672 10.1805 19.2688 10.9618C19.1762 11.6852 19.2514 12.5939 19.4945 13.6588C19.807 15.0363 20.3742 16.6336 21.1961 18.4104C22.5851 18.1616 24.0088 18.0979 25.4326 18.2252C25.5194 15.7597 25.1548 13.4562 24.3792 11.6852C24.0088 10.8345 23.5458 10.1284 23.0481 9.64221C22.5735 9.18499 22.0816 8.92455 21.5838 8.86667V8.86089Z" fill="#FEF1F6"/>
<path d="M23.1176 8.9589C23.0482 8.90103 22.9729 8.84894 22.9035 8.79685C22.8688 8.7737 22.8282 8.75055 22.7935 8.7274C22.7241 8.6811 22.6488 8.64058 22.5736 8.60007C22.5736 8.60007 22.5736 8.60007 22.5678 8.60007C22.4926 8.55956 22.4231 8.53062 22.3479 8.49589C22.3131 8.47853 22.2784 8.46696 22.2379 8.45538C22.2379 8.45538 22.2321 8.45538 22.2263 8.45538C22.1569 8.43223 22.0816 8.40908 22.0122 8.38593C22.0122 8.38593 22.0006 8.38593 21.9948 8.38593C21.9601 8.37435 21.9254 8.36857 21.8907 8.36278H21.8791C21.8444 8.35699 21.8154 8.3512 21.7807 8.34542C21.7807 8.34542 21.7749 8.34542 21.7691 8.34542C21.7344 8.34542 21.6997 8.33384 21.6649 8.33384C21.6649 8.33384 21.6591 8.33384 21.6534 8.33384L21.6244 8.61165L21.5955 8.88945C22.0932 8.94154 22.5852 9.20198 23.0598 9.66499C23.5633 10.1512 24.0205 10.8572 24.3909 11.708C25.1664 13.479 25.5311 15.7825 25.4442 18.248C24.0147 18.1207 22.591 18.1844 21.2077 18.4332C20.3917 16.6564 19.8187 15.059 19.5062 13.6816C19.2631 12.6167 19.1878 11.708 19.2804 10.9846C19.3788 10.2032 19.6682 9.65342 20.1544 9.31195C20.6347 8.97627 21.1151 8.83158 21.5955 8.88366L21.6244 8.60586L21.6534 8.32805C21.6534 8.32805 21.6476 8.32805 21.6418 8.32805C21.6071 8.32805 21.5781 8.32227 21.5434 8.32227C21.5145 8.32227 21.4797 8.32227 21.4508 8.32227C21.4392 8.32227 21.4334 8.32227 21.4219 8.32227C21.3871 8.32227 21.3582 8.32227 21.3235 8.32227C21.3235 8.32227 21.3119 8.32227 21.3061 8.32227C21.2772 8.32227 21.2482 8.32227 21.2251 8.32227C21.2135 8.32227 21.2077 8.32227 21.1961 8.32227C21.1672 8.32227 21.1325 8.32805 21.1035 8.33384C21.0978 8.33384 21.0862 8.33384 21.0804 8.33384C21.0572 8.33384 21.0283 8.33963 21.0051 8.34542C20.9936 8.34542 20.9878 8.34542 20.9762 8.34542C20.9473 8.3512 20.9125 8.35699 20.8836 8.36278C20.872 8.36278 20.8662 8.36278 20.8547 8.36857C20.8315 8.37435 20.8026 8.38014 20.7794 8.38593C20.7679 8.38593 20.7621 8.38593 20.7505 8.39172C20.7216 8.40329 20.6868 8.40908 20.6579 8.42066C20.6463 8.42066 20.6405 8.42644 20.629 8.43223C20.6 8.44381 20.5769 8.44959 20.5479 8.46117C20.5421 8.46117 20.5306 8.46696 20.5248 8.47274C20.4901 8.48432 20.4611 8.49589 20.4264 8.51326C20.4148 8.51326 20.409 8.51904 20.3975 8.52483C20.3685 8.53641 20.3396 8.54798 20.3164 8.56535C20.3106 8.56535 20.3048 8.57113 20.2991 8.57692C20.2643 8.59428 20.2354 8.61165 20.2007 8.62901C20.1949 8.62901 20.1833 8.64058 20.1775 8.64058C20.1486 8.65795 20.1139 8.67531 20.0849 8.69267C20.0849 8.69267 20.0791 8.69267 20.0733 8.69846C20.0386 8.71582 20.0039 8.73897 19.975 8.76212C19.9692 8.76212 19.9576 8.7737 19.9518 8.77949C19.9171 8.80264 19.8824 8.82579 19.8534 8.84894C17.2027 10.7068 19.8303 16.7722 20.901 19.0467C21.0051 19.0236 21.1093 19.0062 21.2135 18.983C21.2482 18.9773 21.283 18.9715 21.3177 18.9657C21.3871 18.9541 21.4566 18.9425 21.526 18.931C21.5665 18.9252 21.6128 18.9194 21.6534 18.9136C21.717 18.902 21.7749 18.8962 21.8386 18.8847C21.8849 18.8789 21.9312 18.8731 21.9717 18.8673C22.0296 18.8615 22.0874 18.8499 22.1511 18.8441C22.1974 18.8441 22.2437 18.8326 22.29 18.8268C22.3479 18.821 22.4058 18.8152 22.4636 18.8094C22.5099 18.8094 22.5562 18.7978 22.6083 18.7978C22.6662 18.7978 22.7183 18.7863 22.7762 18.7805C22.8225 18.7805 22.8745 18.7747 22.9208 18.7689C22.9787 18.7689 23.0308 18.7631 23.0887 18.7573C23.135 18.7573 23.1871 18.7573 23.2334 18.7515C23.2913 18.7515 23.3433 18.7515 23.4012 18.7458C23.4475 18.7458 23.4996 18.7458 23.5459 18.7458C23.598 18.7458 23.6559 18.7458 23.708 18.7458C23.7543 18.7458 23.8064 18.7458 23.8527 18.7458C23.9047 18.7458 23.9626 18.7458 24.0147 18.7458C24.061 18.7458 24.1131 18.7458 24.1594 18.7458C24.2115 18.7458 24.2694 18.7458 24.3215 18.7458C24.3678 18.7458 24.4198 18.7458 24.4661 18.7458C24.524 18.7458 24.5761 18.7458 24.6282 18.7458C24.6745 18.7458 24.7208 18.7458 24.7729 18.7515C24.8308 18.7515 24.8828 18.7573 24.9407 18.7631C24.987 18.7631 25.0333 18.7631 25.0796 18.7689C25.1375 18.7689 25.1896 18.7747 25.2475 18.7805C25.2938 18.7805 25.3401 18.7863 25.3864 18.7921C25.4442 18.7921 25.5021 18.8036 25.56 18.8094C25.6063 18.8094 25.6468 18.8152 25.6931 18.821C25.7047 18.821 25.7105 18.821 25.7221 18.821C25.8089 18.8326 25.8957 18.8384 25.9825 18.8499C25.9825 18.7689 25.9941 18.6879 25.9941 18.6011C25.9941 18.5837 25.9941 18.5663 25.9941 18.549C25.9941 18.4679 25.9999 18.3927 26.0056 18.3117C26.0056 18.3001 26.0056 18.2827 26.0056 18.2712C26.0056 18.1959 26.0056 18.1207 26.0114 18.0512C26.0114 18.0397 26.0114 18.0281 26.0114 18.0223C26.0114 17.9413 26.0114 17.866 26.0114 17.785C26.0114 17.7676 26.0114 17.7503 26.0114 17.7329C26.0114 17.6519 26.0114 17.5767 26.0114 17.4956C26.0114 17.4898 26.0114 17.4841 26.0114 17.4783C26.0114 17.403 26.0114 17.3278 26.0114 17.2525C26.0114 17.241 26.0114 17.2236 26.0114 17.212C26.0114 17.1368 26.0114 17.0616 26.0114 16.9805C26.0114 16.969 26.0114 16.9516 26.0114 16.94C26.0114 16.8648 26.0114 16.7895 26.0056 16.7143C26.0056 16.7143 26.0056 16.7085 26.0056 16.7027C26.0056 16.6275 25.9999 16.5465 25.9941 16.4712C25.9941 16.4596 25.9941 16.4423 25.9941 16.4307C25.9941 16.3555 25.9825 16.2802 25.9825 16.205C25.9825 16.1992 25.9825 16.1876 25.9825 16.1818C25.9825 16.1066 25.9709 16.0372 25.9651 15.9677C25.9651 15.9619 25.9651 15.9503 25.9651 15.9445C25.9593 15.8693 25.9536 15.7941 25.9478 15.7188C25.9478 15.7073 25.9478 15.6957 25.9478 15.6841C25.9304 15.5336 25.9188 15.3832 25.9015 15.2327C25.9015 15.2211 25.9015 15.2153 25.9015 15.2037C25.8899 15.1285 25.8841 15.059 25.8725 14.9838C25.8725 14.978 25.8725 14.9722 25.8725 14.9664C25.861 14.8912 25.8494 14.8218 25.8378 14.7465C25.8262 14.6713 25.8147 14.6018 25.8031 14.5266C25.8031 14.5208 25.8031 14.5092 25.8031 14.5034C25.7799 14.3587 25.751 14.2141 25.7221 14.0694C25.7221 14.0694 25.7221 14.0636 25.7221 14.0578C25.7105 13.9883 25.6931 13.9131 25.6758 13.8436C25.6758 13.8436 25.6758 13.8379 25.6758 13.8321C25.6468 13.6932 25.6121 13.5485 25.5774 13.4154C25.5774 13.4154 25.5774 13.4096 25.5774 13.4038C25.5253 13.1954 25.4674 12.9871 25.4095 12.7903C24.8886 11.0424 24.0899 9.71708 23.1639 8.97627L23.1176 8.9589Z" fill="#EC008B"/>
<path d="M23.2799 24.6611C23.2799 24.6611 23.2626 24.6669 23.251 24.6785C23.2626 24.6727 23.2741 24.6611 23.2799 24.6611Z" fill="#FFC0C0"/>
<path d="M18.2038 29.4008C17.8508 29.5975 17.7177 30.0432 17.9144 30.3962C18.1112 30.7493 18.5569 30.8824 18.9099 30.6856C19.2629 30.4888 19.3961 30.0432 19.1993 29.6901C19.0025 29.3371 18.5569 29.204 18.2038 29.4008Z" fill="black"/>
<path d="M14.4881 33.0125C13.3422 31.8665 11.5422 32.9199 11.6464 34.3031C11.6696 34.6272 11.8085 34.9398 12.0168 35.1886C12.7866 36.1089 13.7647 36.7686 16.5833 36.8381C18.0475 34.4304 18.0186 33.2498 17.6597 32.1038C17.6597 32.0865 17.6482 32.0691 17.6424 32.0517C16.7916 31.8723 16.0276 31.5772 15.3968 31.1836C14.7659 31.4903 14.3087 32.1559 14.4939 33.0125H14.4881Z" fill="#EC008B"/>
<path d="M17.11 31.3111C16.6007 30.9291 15.9294 30.9233 15.3911 31.178C16.022 31.5715 16.7859 31.8667 17.6367 32.0461C17.5325 31.7567 17.3531 31.4963 17.11 31.3111Z" fill="#EF6EA7"/>
<path d="M22.8399 31.9594C22.8399 31.9594 22.8572 31.9941 22.8746 32.0057C23.0077 32.1561 23.1293 32.3124 23.2392 32.4802C23.6733 33.0879 23.5344 33.9561 22.863 34.3265C22.863 34.3265 22.8688 34.3265 22.8746 34.3207C21.5666 35.0152 21.1846 33.6899 20.7795 34.0255C20.357 34.4943 21.4682 34.9631 21.827 35.0326C22.8572 35.2583 23.9858 34.4538 24.0553 33.3947C24.0553 33.36 24.0553 33.3194 24.0553 33.2847C24.0958 33.3079 24.1363 33.331 24.1768 33.3542C25.5485 34.0776 27.2674 32.6481 26.8102 31.1433C26.7523 30.7903 26.2025 30.8771 26.2661 31.2301C26.405 31.6989 26.2835 32.2314 25.942 32.5844C25.9652 32.5555 25.971 32.5497 25.9652 32.5555C25.89 32.6423 25.7858 32.7175 25.6932 32.7812C25.6932 32.7812 25.699 32.7812 25.7047 32.7812C25.2417 33.0764 24.5762 33.0879 24.171 32.677C24.171 32.677 24.171 32.677 24.1768 32.6828C23.9106 32.4166 23.7543 32.0577 23.6444 31.7047C23.6444 31.6873 23.6444 31.6758 23.6386 31.6642C23.3029 31.7684 22.9672 31.8552 22.6315 31.9362C22.701 31.9536 22.7762 31.9651 22.8515 31.9709L22.8399 31.9594Z" fill="#EC008B"/>
<path d="M23.9106 30.2117C23.9164 29.9513 23.6386 29.7777 23.4071 29.905L22.5389 30.3796L22.4753 30.4143L22.429 30.4375L21.5782 30.9005C21.3467 31.0278 21.3409 31.3519 21.5666 31.4908C21.8502 31.6587 22.2264 31.8439 22.62 31.9249C22.9556 31.8496 23.2913 31.757 23.627 31.6529C23.6212 31.6239 23.6096 31.595 23.5981 31.5718C23.8296 31.1436 23.899 30.6053 23.9106 30.206V30.2117Z" fill="#EF6EA7"/>
<path d="M24.3215 27.6302C24.7274 27.6302 25.0565 27.3011 25.0565 26.8952C25.0565 26.4892 24.7274 26.1602 24.3215 26.1602C23.9155 26.1602 23.5864 26.4892 23.5864 26.8952C23.5864 27.3011 23.9155 27.6302 24.3215 27.6302Z" fill="black"/>
<path d="M28.83 28.6435C29.4203 28.7882 30.1612 28.8751 31.0988 28.8982C32.563 26.4906 32.5341 25.3099 32.1752 24.1639C32.0769 23.8514 31.8917 23.5736 31.6254 23.3768C31.2492 23.0932 30.792 23.018 30.3637 23.099C30.4447 23.2669 30.52 23.4347 30.5721 23.6141C31.093 25.2462 30.3753 27.0809 28.8242 28.6435H28.83Z" fill="#EC008B"/>
<path d="M29.0091 25.0722C27.8632 23.9263 26.0632 24.9796 26.1674 26.3628C26.1906 26.687 26.3295 26.9995 26.5378 27.2484C27.0471 27.8618 27.6548 28.3596 28.8297 28.6432C30.3808 27.0805 31.0985 25.24 30.5776 23.6137C30.5197 23.4343 30.4502 23.2607 30.3692 23.0986C29.5242 23.2549 28.7834 24.0247 29.0149 25.078L29.0091 25.0722Z" fill="#EF6EA7"/>
<path d="M16.9887 26.8779C16.3578 27.0284 15.889 27.5551 15.7617 28.1917C15.727 28.3596 15.727 28.5332 15.7559 28.701C15.779 28.8457 15.9295 28.9615 16.0742 28.9325C16.2189 28.9036 16.3289 28.7705 16.3057 28.6142C16.2999 28.5737 16.2941 28.5332 16.2941 28.4927C16.2941 28.4059 16.3057 28.319 16.3231 28.2322C16.352 28.1338 16.3867 28.0355 16.4388 27.9486C16.4736 27.8908 16.5141 27.8271 16.5604 27.775C16.5719 27.7576 16.5893 27.7403 16.6009 27.7287C16.6009 27.7287 16.6067 27.7229 16.6125 27.7171C16.6414 27.6882 16.6703 27.665 16.6993 27.6419C16.734 27.613 16.7629 27.5898 16.7977 27.5667C16.8092 27.5551 16.8208 27.5493 16.8382 27.5435C16.8382 27.5435 16.844 27.5435 16.8498 27.5377C16.9134 27.503 16.9829 27.4741 17.0523 27.4509C17.0639 27.4509 17.0755 27.4451 17.087 27.4393C17.1565 27.422 17.2202 27.393 17.2665 27.3294C17.307 27.2715 17.3301 27.1905 17.3185 27.121C17.2896 26.9821 17.1507 26.8548 17.0002 26.8895L16.9887 26.8779Z" fill="black"/>
<path d="M24.1133 24.5456C24.1943 24.5687 24.2753 24.5977 24.3505 24.6382C24.3563 24.6382 24.3679 24.6498 24.3795 24.6556C24.501 24.7308 24.6804 24.7308 24.7673 24.5977C24.8483 24.4819 24.8425 24.2909 24.7094 24.2099C24.1596 23.8627 23.4535 23.8974 22.9152 24.2504C22.7705 24.343 22.649 24.4646 22.5448 24.6035C22.458 24.7192 22.4811 24.9044 22.6027 24.9912C22.73 25.0781 22.8979 25.0549 22.9905 24.9334C23.0078 24.9044 23.031 24.8813 23.0541 24.8581C23.0541 24.8581 23.0599 24.8523 23.0657 24.8465C23.0715 24.8408 23.0831 24.8292 23.0831 24.8292C23.1294 24.7829 23.1872 24.7424 23.2393 24.7019C23.2393 24.7019 23.2451 24.7019 23.2509 24.6961C23.2567 24.6961 23.2625 24.6903 23.2741 24.6845C23.303 24.6671 23.3319 24.6556 23.3609 24.6382C23.413 24.615 23.465 24.5919 23.5229 24.5745C23.6213 24.5456 23.7255 24.534 23.8297 24.5282C23.9281 24.5282 24.0264 24.5398 24.119 24.5572L24.1133 24.5456ZM23.2509 24.6787C23.2509 24.6787 23.2683 24.6671 23.2798 24.6613C23.2798 24.6613 23.2625 24.6671 23.2509 24.6787Z" fill="black"/>
<path d="M36.2146 5.48635L34.9819 4.28832L34.27 3.5938L34.2179 3.54171C33.7665 3.10186 33.0372 3.10764 32.5974 3.56486C32.1575 4.0163 32.1633 4.74554 32.6205 5.1854L32.7073 5.26642L33.4076 5.94936L34.6173 7.13003L35.0571 6.6786L35.7806 5.93779L36.2204 5.48635H36.2146Z" fill="black"/>
<path d="M24.8423 4.89111C24.5413 5.22679 24.4024 5.61456 24.4776 6.00233C24.4776 6.0197 24.4834 6.03706 24.4892 6.06021C24.6686 6.21069 25.0043 6.24541 25.2532 5.90973C25.2474 5.89237 25.2416 5.87501 25.2358 5.85186C25.2127 5.74768 25.2532 5.62614 25.3342 5.5046C25.4557 5.33097 25.6699 5.15734 25.9593 5.01844C26.1445 4.93163 26.3586 4.85639 26.5901 4.81009C26.7637 4.77536 26.9432 4.758 27.111 4.758C27.1978 4.758 27.2846 4.758 27.3714 4.76957C27.5219 4.78694 27.6608 4.81587 27.7824 4.86217C27.8113 4.87375 27.846 4.88533 27.875 4.8969C28.0833 4.9895 28.2164 5.11683 28.2454 5.25573C28.2512 5.29625 28.2512 5.33676 28.2454 5.37727C28.4595 5.3657 28.7894 5.28467 28.963 4.95478C28.8531 4.63646 28.5926 4.37023 28.2222 4.1966C28.1643 4.16766 28.1065 4.14451 28.0486 4.12715C27.8576 4.0577 27.6492 4.0114 27.4293 3.99403C27.1168 3.9651 26.7811 3.98246 26.4454 4.04612C26.0808 4.11557 25.7509 4.23711 25.4673 4.39338C25.2185 4.53228 25.0043 4.70012 24.8365 4.88533L24.8423 4.89111Z" fill="black"/>
<path d="M28.5521 3.84934C28.691 3.71622 28.8415 3.60626 28.9978 3.50787C29.1945 3.38633 29.3971 3.29951 29.5939 3.259C29.6923 3.23585 29.7849 3.23006 29.8659 3.23006C29.8833 3.23006 29.9064 3.23006 29.9238 3.23006C30.0395 3.24164 30.1321 3.28215 30.1958 3.34581C30.3 3.46157 30.3231 3.66992 30.2595 3.91879C30.462 4.1908 30.7688 4.27183 30.9829 4.20817C30.9829 4.19659 30.9945 4.17923 30.9945 4.16765C31.1507 3.63519 31.0639 3.14325 30.763 2.81914C30.5662 2.605 30.2826 2.48346 29.9643 2.46031C29.7964 2.44873 29.617 2.46031 29.4318 2.50082C29.2929 2.52976 29.154 2.57606 29.0151 2.63394C28.6679 2.77863 28.3322 2.99856 28.0254 3.28215C27.846 3.44999 27.6898 3.63519 27.5566 3.8204C27.7592 3.84355 28.0486 3.90142 28.3553 4.06348C28.419 3.99403 28.4827 3.91879 28.5579 3.85512L28.5521 3.84934Z" fill="black"/>
<path d="M27.8807 4.90257C27.8807 4.90257 27.8228 4.87942 27.7881 4.86785C27.6666 4.82155 27.5277 4.79261 27.3772 4.77525C27.2904 4.76367 27.2036 4.76367 27.1168 4.76367C27.0994 4.83891 27.0878 4.91415 27.082 4.9836C27.4003 4.93151 27.6955 5.01833 27.846 5.09357C27.846 5.03569 27.8576 4.96624 27.8749 4.90257H27.8807Z" fill="black"/>
<path d="M28.2279 4.20703C28.2626 4.15495 28.3089 4.10864 28.3494 4.05656C28.0427 3.90029 27.7533 3.83663 27.5507 3.81348C27.5102 3.87135 27.4697 3.93502 27.4292 3.99868C27.6491 4.02183 27.8575 4.06234 28.0485 4.13179C28.1063 4.15495 28.17 4.1781 28.2221 4.20125L28.2279 4.20703Z" fill="black"/>
<path d="M27.5218 6.10059C27.4523 6.13531 27.3829 6.16425 27.3076 6.19319C27.4407 6.3263 27.7475 6.54044 28.3147 6.53466C28.4015 6.47099 28.4825 6.40733 28.552 6.33788C28.4131 6.35524 28.2741 6.36103 28.1468 6.34367C27.9095 6.32052 27.6954 6.23949 27.5275 6.10637L27.5218 6.10059Z" fill="black"/>
<path d="M28.9688 4.96575C28.7893 5.29564 28.4594 5.37667 28.2511 5.38824C28.2395 5.44612 28.2164 5.504 28.1816 5.56187C28.2858 5.57924 28.4131 5.57345 28.552 5.54451C28.7083 5.50978 28.8704 5.44612 29.0324 5.35931C29.0324 5.27828 29.0324 5.19725 29.0151 5.11044C29.0035 5.05835 28.9919 5.00626 28.9745 4.95996L28.9688 4.96575Z" fill="black"/>
<path d="M29.42 5.10522C29.2927 5.20361 29.1654 5.29042 29.0322 5.36566C28.8702 5.45248 28.7081 5.51614 28.5519 5.55086C28.413 5.5798 28.2856 5.58559 28.1815 5.56823C28.0831 5.55086 28.0021 5.51614 27.95 5.45826C27.8747 5.37724 27.84 5.2557 27.8516 5.09943C27.7011 5.02419 27.4059 4.93738 27.0876 4.98947C27.0529 5.37724 27.1455 5.73028 27.3886 5.98494C27.4291 6.03124 27.4754 6.07175 27.5217 6.10648C27.6953 6.23959 27.9037 6.31483 28.141 6.34377C28.2683 6.35534 28.4072 6.35534 28.5461 6.33798C28.604 6.33219 28.6561 6.32062 28.7139 6.30904C29.038 6.23959 29.3737 6.08911 29.6863 5.87497C29.7268 5.66083 29.6978 5.38302 29.42 5.10522Z" fill="black"/>
<path d="M30.2536 3.92383C30.2536 3.92383 30.2536 3.94698 30.2478 3.95855C30.2247 4.04537 30.1899 4.12639 30.1494 4.21321C30.2536 4.39841 30.3809 4.56625 30.5372 4.71673C30.5835 4.76303 30.6356 4.80355 30.6819 4.84985C30.8092 4.64149 30.9134 4.42735 30.977 4.219C30.7629 4.28266 30.4562 4.20163 30.2536 3.92962V3.92383Z" fill="black"/>
<path d="M29.5825 4.96575C29.5304 5.01205 29.4784 5.05835 29.4263 5.09886C29.7041 5.37667 29.733 5.65447 29.6925 5.86862C29.8372 5.77023 29.9819 5.65447 30.1208 5.52715C30.0513 5.46927 29.9877 5.41139 29.924 5.34773C29.8025 5.22619 29.6867 5.09886 29.5883 4.95996L29.5825 4.96575Z" fill="black"/>
<path d="M29.5937 3.2585C29.4027 3.29902 29.2001 3.38583 28.9976 3.50737C29.0149 3.66363 29.0496 3.81411 29.0902 3.96459C29.1712 3.71572 29.4258 3.40898 29.8888 3.46107C29.8773 3.38583 29.8715 3.31059 29.8657 3.23535C29.7847 3.23535 29.6921 3.24114 29.5937 3.26429V3.2585Z" fill="black"/>
<path d="M29.9585 2.46545C29.999 2.33812 30.0453 2.21658 30.109 2.10083C29.8659 2.15292 29.5013 2.15871 29.2698 1.80566C29.1483 2.07189 29.0614 2.3497 29.0151 2.63908C29.154 2.5812 29.2929 2.5349 29.4318 2.50596C29.617 2.46545 29.7965 2.45388 29.9643 2.46545H29.9585Z" fill="black"/>
<path d="M32.4587 5.3186C32.3488 5.33596 32.2388 5.34754 32.123 5.34754C31.5906 5.35332 31.0871 5.17391 30.6819 4.84401C30.6298 4.8035 30.5835 4.7572 30.5372 4.7109C30.381 4.56042 30.2536 4.39258 30.1495 4.20738C30.0163 3.97587 29.9295 3.72122 29.889 3.4492C29.426 3.39711 29.1714 3.70386 29.0903 3.95272C29.1887 4.31155 29.3566 4.65302 29.5823 4.95398C29.6807 5.08709 29.7964 5.22021 29.918 5.34175C29.9816 5.40541 30.0453 5.46329 30.1147 5.52117C30.5835 5.90894 31.1507 6.14623 31.7526 6.20989C31.88 6.22147 32.0073 6.22725 32.1346 6.22725C32.2619 6.22725 32.3893 6.21568 32.5166 6.19832C32.7365 5.95524 32.7365 5.5501 32.4587 5.31281V5.3186Z" fill="black"/>
<path d="M32.4589 5.31862C32.7367 5.55591 32.7367 5.96683 32.5168 6.20412C32.8293 6.16361 33.1245 6.0768 33.4023 5.94368L32.702 5.26074C32.621 5.28389 32.5399 5.30126 32.4531 5.31283L32.4589 5.31862Z" fill="black"/>
<path d="M34.3222 3.24114C34.3164 3.35689 34.299 3.47264 34.2759 3.5884L34.9878 4.28291C35.0804 4.04562 35.1498 3.80254 35.1845 3.54788C34.9357 3.65785 34.571 3.54788 34.328 3.23535L34.3222 3.24114Z" fill="black"/>
<path d="M30.1092 2.0954C30.2075 1.89863 30.3407 1.71921 30.4969 1.55716C30.9947 1.04785 31.6776 0.827918 32.3374 0.897369C32.8178 0.949457 33.2808 1.15781 33.6512 1.51664C34.1315 1.98544 34.3573 2.61629 34.3225 3.24135C34.5656 3.55388 34.936 3.66385 35.1791 3.55388C35.3122 2.60471 35.0055 1.60346 34.2704 0.885794C33.0377 -0.312242 31.0583 -0.289092 29.8603 0.94367C29.6114 1.19832 29.4146 1.48771 29.2642 1.80024C29.4957 2.15907 29.8603 2.15328 30.1034 2.0954H30.1092Z" fill="black"/>
<path d="M24.8421 4.8905C25.01 4.7053 25.2183 4.53746 25.473 4.39856C25.2299 4.18441 24.9463 4.02815 24.6453 3.93555C24.5412 4.1902 24.3733 4.42749 24.1592 4.62427C24.408 4.65321 24.6396 4.74002 24.8421 4.88471V4.8905Z" fill="black"/>
<path d="M22.8686 5.14524C22.6023 5.14524 22.3245 5.09315 22.0467 4.96582C21.9599 5.12209 21.8847 5.28414 21.8384 5.45777C22.0872 5.52143 22.3303 5.61403 22.5676 5.72978C22.6197 5.51564 22.7239 5.31886 22.8686 5.14524Z" fill="black"/>
<path d="M22.8686 5.14491C22.8686 5.14491 22.9149 5.09283 22.938 5.06389C23.21 4.78029 23.5804 4.62403 23.9682 4.61824C24.0261 4.61824 24.0898 4.61824 24.1476 4.62403C24.3618 4.42725 24.5296 4.18996 24.6338 3.9353C24.4139 3.87164 24.1881 3.83691 23.9509 3.83691C23.3489 3.8427 22.7933 4.08578 22.3708 4.51406C22.2377 4.64718 22.1278 4.79766 22.0352 4.95971C22.313 5.08704 22.5908 5.13913 22.857 5.13913L22.8686 5.14491Z" fill="black"/>
<path d="M23.0541 8.1259C23.1352 8.28796 23.2914 8.40371 23.4824 8.42107C23.6213 8.43844 23.7486 8.39792 23.8528 8.32268C23.8181 8.32268 23.7834 8.32268 23.7486 8.3169C23.7197 8.3169 23.6908 8.31111 23.6618 8.30532C23.6503 8.30532 23.6445 8.30532 23.6329 8.30532C23.6155 8.30532 23.5982 8.29953 23.575 8.29375C23.5634 8.29375 23.5519 8.29375 23.5403 8.28796C23.5229 8.28796 23.5056 8.28217 23.494 8.27638C23.4824 8.27638 23.4708 8.2706 23.4535 8.26481C23.4361 8.26481 23.4245 8.25902 23.4072 8.25323C23.3956 8.25323 23.3782 8.24744 23.3667 8.24166C23.3551 8.24166 23.3377 8.23587 23.3261 8.23008C23.3146 8.23008 23.2972 8.22429 23.2856 8.21851C23.2741 8.21272 23.2567 8.20693 23.2451 8.20693C23.2335 8.20693 23.2162 8.19536 23.2046 8.18957C23.193 8.18957 23.1757 8.17799 23.1641 8.17221C23.1525 8.17221 23.1352 8.16063 23.1236 8.15484C23.1004 8.14327 23.0715 8.13169 23.0483 8.12012L23.0541 8.1259Z" fill="white"/>
<path d="M23.3085 7.39057C23.3085 7.39057 23.3259 7.40214 23.3317 7.40214C23.3548 7.41372 23.3838 7.4253 23.4069 7.43687C23.459 7.46002 23.5053 7.47738 23.5574 7.49475C23.5574 7.49475 23.5574 7.49475 23.5632 7.49475C23.6153 7.51211 23.6674 7.52368 23.7194 7.52947H23.731C23.7831 7.54105 23.8352 7.54684 23.8873 7.55262C23.8873 7.55262 23.8931 7.55262 23.8989 7.55262C23.922 7.55262 23.9452 7.55262 23.9683 7.55262C23.8815 7.43687 23.7484 7.35584 23.5921 7.33848C23.4879 7.32691 23.3895 7.34427 23.3027 7.38478L23.3085 7.39057Z" fill="white"/>
<path d="M25.3398 5.50374C25.3861 5.60791 25.4151 5.71788 25.4382 5.82784C25.5366 5.66 25.7681 5.37062 26.1443 5.44586C26.098 5.29538 26.0401 5.15648 25.9649 5.01758C25.6755 5.15648 25.4614 5.33011 25.3398 5.50374Z" fill="black"/>
<path d="M26.1447 5.45267C25.7743 5.37743 25.5428 5.66681 25.4386 5.83465C25.456 5.93304 25.4618 6.03722 25.4618 6.13561C25.456 6.39605 25.375 6.66228 25.2245 6.888C25.1724 6.96903 25.1145 7.04426 25.0451 7.11372C24.9235 7.24104 24.7788 7.33943 24.6284 7.40888C24.6052 7.42046 24.5821 7.43204 24.5589 7.43782C24.5589 7.43782 24.5473 7.43782 24.5415 7.44361C24.5184 7.45519 24.4952 7.46097 24.4721 7.47255C24.4489 7.47834 24.4258 7.48991 24.4026 7.4957C24.4026 7.4957 24.3911 7.4957 24.3853 7.4957C24.3621 7.50149 24.339 7.50727 24.31 7.51306C24.2869 7.51306 24.2637 7.52464 24.2406 7.52464C24.2406 7.52464 24.229 7.52464 24.2232 7.52464C24.2001 7.52464 24.1711 7.53042 24.148 7.53621C24.1191 7.53621 24.0959 7.53621 24.0728 7.542H24.0612C24.038 7.542 24.0091 7.542 23.9859 7.542C23.9628 7.542 23.9396 7.542 23.9165 7.542C23.9165 7.542 23.9107 7.542 23.9049 7.542C23.8528 7.542 23.8007 7.53042 23.7486 7.52464H23.7371C23.685 7.51306 23.6329 7.50149 23.5808 7.48412C23.5808 7.48412 23.5808 7.48412 23.575 7.48412C23.5229 7.46676 23.4708 7.4494 23.4245 7.42625C23.4014 7.41467 23.3724 7.4031 23.3493 7.39152C23.3319 7.39152 23.3146 7.39152 23.2972 7.39152C23.1467 7.47255 23.031 7.62881 23.0136 7.81402C23.002 7.90662 23.0136 7.99343 23.0483 8.07446C23.0773 8.1034 23.112 8.12655 23.1409 8.1497C23.1525 8.1497 23.1699 8.16127 23.1815 8.16706C23.193 8.16706 23.2104 8.17864 23.222 8.18442C23.2335 8.18442 23.2509 8.196 23.2625 8.20179C23.2741 8.20179 23.2914 8.21336 23.303 8.21336C23.3146 8.21336 23.3319 8.22494 23.3435 8.22494C23.3551 8.22494 23.3724 8.23072 23.384 8.23651C23.3956 8.23651 23.413 8.2423 23.4245 8.24809C23.4419 8.24809 23.4535 8.25388 23.4708 8.25966C23.4824 8.25966 23.494 8.26545 23.5114 8.27124C23.5287 8.27124 23.5461 8.27703 23.5577 8.28281C23.5692 8.28281 23.5808 8.28281 23.5924 8.2886C23.6097 8.2886 23.6271 8.29439 23.6503 8.30018C23.6618 8.30018 23.6676 8.30018 23.6792 8.30018C23.7081 8.30018 23.7371 8.30596 23.766 8.31175C23.8007 8.31175 23.8355 8.31754 23.8702 8.31754C24.2985 8.34648 24.7383 8.24809 25.1203 8.02816C25.2997 7.92398 25.4676 7.79665 25.618 7.64618C25.7801 7.47834 25.9074 7.29892 26.0116 7.10214C26.1331 6.86485 26.2084 6.60441 26.2373 6.34396C26.272 6.04301 26.2489 5.73626 26.1621 5.4411L26.1447 5.45267Z" fill="black"/>
<path d="M27.302 6.19238C27.1746 6.23868 27.0357 6.2792 26.891 6.30813C26.839 6.31971 26.7869 6.3255 26.7348 6.33707C26.5959 6.52228 26.3875 6.89847 26.8853 7.10104C26.9374 7.09525 26.9894 7.08368 27.0415 7.0721C27.5393 6.97371 27.9733 6.78272 28.309 6.53964C27.7418 6.53964 27.4351 6.33129 27.302 6.19817V6.19238Z" fill="black"/>
<path d="M25.2591 5.90918C25.0102 6.24486 24.6745 6.21014 24.4951 6.05966C24.5877 6.41849 24.8482 6.70208 25.2244 6.88729C25.3748 6.65578 25.4501 6.39534 25.4616 6.1349C25.3633 6.07123 25.2938 5.99021 25.2591 5.90918Z" fill="black"/>
<path d="M26.735 6.33196C26.5555 6.35511 26.3819 6.3609 26.2199 6.35511C26.1909 6.61555 26.1157 6.87599 25.9941 7.11329C26.0057 7.11329 26.0231 7.11329 26.0347 7.11329C26.3009 7.14222 26.5903 7.13644 26.8854 7.09014C26.3877 6.89336 26.5961 6.51138 26.735 6.32617V6.33196Z" fill="black"/>
<path d="M47.2057 11.6973C47.0263 10.7481 46.5864 9.85684 45.8514 9.13918L39.5082 2.95801L36.2035 6.34376L35.48 7.08457L32.1753 10.4703L38.5185 16.6515C39.4619 17.5717 40.6657 18.0637 41.8927 18.1331C42.3441 18.1563 42.7956 18.1273 43.2354 18.0347C44.2309 17.8322 45.1858 17.3402 45.944 16.5589C46.5864 15.8991 46.9511 15.0078 47.1478 14.1223C47.3273 13.3178 47.3562 12.4844 47.2057 11.6857V11.6973ZM45.1511 15.7949C44.665 16.2927 44.0804 16.6457 43.4611 16.8425C43.0039 16.9872 42.5235 17.0566 42.049 17.0393C41.0535 17.0045 40.0638 16.6168 39.2941 15.8644L33.7437 10.453L36.2729 7.86011L36.9964 7.1193L39.5256 4.52645L45.0759 9.93787C45.7878 10.6324 46.2739 11.9057 46.1929 12.9127C46.1119 13.9429 45.8977 15.031 45.1511 15.7949Z" fill="black"/>
</g>
<defs>
<clipPath id="clip0_12215_734">
<rect width="46.6076" height="41.775" fill="white" transform="translate(0.696289)"/>
</clipPath>
</defs>
</svg>
