<svg width="24" height="24" viewBox="0 0 24 24" fill="none" xmlns="http://www.w3.org/2000/svg">
<path d="M22 4.5H5.535L5.5 4.2075C5.42837 3.59951 5.13615 3.03894 4.67874 2.63206C4.22133 2.22519 3.63052 2.00028 3.01833 2L2 2V3.66667H3.01833C3.22244 3.66669 3.41945 3.74163 3.57198 3.87726C3.72451 4.0129 3.82195 4.19979 3.84583 4.4025L5.16667 15.6258C5.23829 16.2338 5.53051 16.7944 5.98793 17.2013C6.44534 17.6081 7.03614 17.833 7.64833 17.8333H18.6667V16.1667H7.64833C7.44409 16.1666 7.24699 16.0916 7.09444 15.9558C6.94189 15.82 6.84452 15.6329 6.82083 15.43L6.71167 14.5H20.1967L22 4.5ZM18.8033 12.8333H6.51583L5.73167 6.16667H20.0058L18.8033 12.8333Z" fill="#B1B2B6"/>
<path d="M7.83366 22.0003C8.75413 22.0003 9.50032 21.2541 9.50032 20.3337C9.50032 19.4132 8.75413 18.667 7.83366 18.667C6.91318 18.667 6.16699 19.4132 6.16699 20.3337C6.16699 21.2541 6.91318 22.0003 7.83366 22.0003Z" fill="#B1B2B6"/>
<path d="M16.1667 22.0003C17.0871 22.0003 17.8333 21.2541 17.8333 20.3337C17.8333 19.4132 17.0871 18.667 16.1667 18.667C15.2462 18.667 14.5 19.4132 14.5 20.3337C14.5 21.2541 15.2462 22.0003 16.1667 22.0003Z" fill="#B1B2B6"/>
</svg>
