<svg width="64" height="68" viewBox="0 0 64 68" fill="none" xmlns="http://www.w3.org/2000/svg">
<path d="M32.1495 40.128H25.903C25.4982 40.128 25.1701 39.7999 25.1701 39.3951V30.8897C25.1701 29.0993 26.6269 27.6426 28.4176 27.6426H29.6351C31.4258 27.6426 32.8825 29.0993 32.8825 30.8897V39.3951C32.8825 39.7999 32.5543 40.128 32.1495 40.128ZM26.6359 38.6621H31.4166V30.8897C31.4166 29.9075 30.6174 29.1084 29.6351 29.1084H28.4176C27.4351 29.1084 26.636 29.9075 26.636 30.8897L26.6359 38.6621Z" fill="#262626"/>
<path d="M54.307 40.128H48.0605C47.6557 40.128 47.3276 39.7999 47.3276 39.3951V30.8897C47.3276 29.0993 48.7843 27.6426 50.5749 27.6426H51.7925C53.5832 27.6426 55.04 29.0993 55.04 30.8897V39.3951C55.04 39.7999 54.7118 40.128 54.307 40.128ZM48.7934 38.6621H53.5741V30.8897C53.5741 29.9075 52.7748 29.1084 51.7925 29.1084H50.5749C49.5926 29.1084 48.7934 29.9075 48.7934 30.8897V38.6621Z" fill="#262626"/>
<path d="M51.1837 29.1084C50.7789 29.1084 50.4508 28.7803 50.4508 28.3756V23.72C50.4508 22.5645 49.5108 21.6246 48.355 21.6246H31.855C30.6993 21.6246 29.7592 22.5645 29.7592 23.72V28.3756C29.7592 28.7804 29.4311 29.1084 29.0263 29.1084C28.6215 29.1084 28.2934 28.7803 28.2934 28.3756V23.72C28.2934 21.7563 29.8911 20.1588 31.855 20.1588H48.3551C50.319 20.1588 51.9167 21.7564 51.9167 23.72V28.3756C51.9167 28.7803 51.5886 29.1084 51.1837 29.1084Z" fill="#262626"/>
<path d="M48.0605 34.6183H32.1495C31.7447 34.6183 31.4166 34.2902 31.4166 33.8854C31.4166 33.4806 31.7447 33.1525 32.1495 33.1525H48.0605C48.4653 33.1525 48.7934 33.4807 48.7934 33.8854C48.7934 34.2902 48.4653 34.6183 48.0605 34.6183Z" fill="#262626"/>
<path d="M48.0605 40.128H32.1495C31.7447 40.128 31.4166 39.8 31.4166 39.3952C31.4166 38.9904 31.7447 38.6623 32.1495 38.6623H48.0605C48.4653 38.6623 48.7934 38.9904 48.7934 39.3952C48.7934 39.8 48.4653 40.128 48.0605 40.128Z" fill="#262626"/>
<path d="M19.9465 40.1281H12.875C12.4702 40.1281 12.1421 39.8 12.1421 39.3952C12.1421 38.9904 12.4703 38.6623 12.875 38.6623H19.9465C20.3513 38.6623 20.6794 38.9904 20.6794 39.3952C20.6795 39.8 20.3513 40.1281 19.9465 40.1281Z" fill="#262626"/>
<path d="M16.4108 40.128C16.006 40.128 15.6779 39.8 15.6779 39.3952V19.8311C15.6779 19.4263 16.006 19.0982 16.4108 19.0982C16.8156 19.0982 17.1437 19.4263 17.1437 19.8311V39.3952C17.1438 39.8 16.8156 40.128 16.4108 40.128Z" fill="#262626"/>
<path d="M23.1288 20.5639H9.69293C9.46445 20.5639 9.24902 20.4574 9.11044 20.2759C8.97176 20.0941 8.92562 19.8585 8.98588 19.638L12.0501 8.41203C12.1372 8.09314 12.4268 7.87207 12.7572 7.87207H20.0643C20.3947 7.87207 20.6843 8.09305 20.7713 8.41203L23.8358 19.638C23.896 19.8585 23.85 20.0941 23.7112 20.2759C23.5727 20.4574 23.3572 20.5639 23.1288 20.5639ZM10.6527 19.098H22.169L19.5047 9.33793H13.3169L10.6527 19.098Z" fill="#EC1E82"/>
<path d="M15.7461 64V55.5156H17.5039V62.5469H21.1602V64H15.7461ZM22.2617 64V57.6367H23.9961V64H22.2617ZM22.1797 55.9258C22.1797 55.4336 22.6074 55.041 23.1289 55.0352C23.6445 55.041 24.0723 55.4336 24.0664 55.9258C24.0723 56.4062 23.6445 56.8047 23.1289 56.8047C22.6074 56.8047 22.1797 56.4062 22.1797 55.9258ZM31.25 57.6367L29.0117 64H27.0664L24.8398 57.6367H26.668L28.0039 62.207H28.0742L29.4102 57.6367H31.25ZM32.0938 64V57.6367H33.8281V64H32.0938ZM32.0117 55.9258C32.0117 55.4336 32.4395 55.041 32.9609 55.0352C33.4766 55.041 33.9043 55.4336 33.8984 55.9258C33.9043 56.4062 33.4766 56.8047 32.9609 56.8047C32.4395 56.8047 32.0117 56.4062 32.0117 55.9258ZM36.9102 60.3203V64H35.1758V57.6367H36.8281V58.75H36.8984C37.1855 58.0176 37.8652 57.5547 38.8086 57.5547C40.1387 57.5547 41.0059 58.4629 41 59.9453V64H39.2773V60.25C39.2715 59.4648 38.8496 58.9961 38.1289 58.9961C37.4082 58.9961 36.9102 59.4824 36.9102 60.3203ZM45.207 66.5195C43.4492 66.5195 42.3652 65.7285 42.2656 64.5273H43.9766C44.0703 65.0371 44.5508 65.2656 45.2422 65.2656C46.0449 65.2656 46.584 64.9199 46.5898 64.0352V62.875H46.5078C46.2793 63.3906 45.7168 63.9121 44.6914 63.9062C43.2559 63.9121 42.1016 62.8984 42.1016 60.7773C42.1016 58.627 43.2852 57.5547 44.6914 57.5547C45.7578 57.5547 46.2734 58.1875 46.5078 58.7031H46.5781V57.6367H48.3008V64.0703C48.2949 65.6934 47.0176 66.5195 45.207 66.5195ZM43.8828 60.8008C43.877 61.9023 44.3516 62.5996 45.2305 62.6055C46.0977 62.5996 46.5898 61.9316 46.5898 60.8008C46.5898 59.6699 46.1035 58.9375 45.2305 58.9375C44.3457 58.9375 43.877 59.7051 43.8828 60.8008Z" fill="#EB1F81"/>
</svg>
