<svg width="64" height="68" viewBox="0 0 64 68" fill="none" xmlns="http://www.w3.org/2000/svg">
<rect x="8" width="48" height="48" fill="#D9D9D9"/>
<path d="M15.7461 64V55.5156H17.5039V62.5469H21.1602V64H15.7461ZM22.2617 64V57.6367H23.9961V64H22.2617ZM22.1797 55.9258C22.1797 55.4336 22.6074 55.041 23.1289 55.0352C23.6445 55.041 24.0723 55.4336 24.0664 55.9258C24.0723 56.4062 23.6445 56.8047 23.1289 56.8047C22.6074 56.8047 22.1797 56.4062 22.1797 55.9258ZM31.25 57.6367L29.0117 64H27.0664L24.8398 57.6367H26.668L28.0039 62.207H28.0742L29.4102 57.6367H31.25ZM32.0938 64V57.6367H33.8281V64H32.0938ZM32.0117 55.9258C32.0117 55.4336 32.4395 55.041 32.9609 55.0352C33.4766 55.041 33.9043 55.4336 33.8984 55.9258C33.9043 56.4062 33.4766 56.8047 32.9609 56.8047C32.4395 56.8047 32.0117 56.4062 32.0117 55.9258ZM36.9102 60.3203V64H35.1758V57.6367H36.8281V58.75H36.8984C37.1855 58.0176 37.8652 57.5547 38.8086 57.5547C40.1387 57.5547 41.0059 58.4629 41 59.9453V64H39.2773V60.25C39.2715 59.4648 38.8496 58.9961 38.1289 58.9961C37.4082 58.9961 36.9102 59.4824 36.9102 60.3203ZM45.207 66.5195C43.4492 66.5195 42.3652 65.7285 42.2656 64.5273H43.9766C44.0703 65.0371 44.5508 65.2656 45.2422 65.2656C46.0449 65.2656 46.584 64.9199 46.5898 64.0352V62.875H46.5078C46.2793 63.3906 45.7168 63.9121 44.6914 63.9062C43.2559 63.9121 42.1016 62.8984 42.1016 60.7773C42.1016 58.627 43.2852 57.5547 44.6914 57.5547C45.7578 57.5547 46.2734 58.1875 46.5078 58.7031H46.5781V57.6367H48.3008V64.0703C48.2949 65.6934 47.0176 66.5195 45.207 66.5195ZM43.8828 60.8008C43.877 61.9023 44.3516 62.5996 45.2305 62.6055C46.0977 62.5996 46.5898 61.9316 46.5898 60.8008C46.5898 59.6699 46.1035 58.9375 45.2305 58.9375C44.3457 58.9375 43.877 59.7051 43.8828 60.8008Z" fill="#EB1F81"/>
</svg>
