<svg width="39" height="33" viewBox="0 0 39 33" fill="none" xmlns="http://www.w3.org/2000/svg">
<g clip-path="url(#clip0_12215_833)">
<path d="M19.0612 5.5041C19.0612 5.5041 19.2001 6.24492 18.9917 6.6269L19.0149 6.87577C17.6548 6.98573 16.2194 7.05518 14.7725 7.07833V6.82946C14.489 6.21019 14.6742 5.5041 14.6742 5.5041L15.0503 5.47516C15.3455 4.76329 16.04 4.25977 16.8503 4.25977C17.6606 4.25977 18.3724 4.77486 18.6676 5.5041H19.067H19.0612Z" fill="#EC1D82"/>
<path d="M23.7494 1.6845C25.0111 1.71344 26.2844 1.71344 27.5461 1.67871C27.3493 2.55843 26.5738 3.20664 25.6478 3.20664C24.7218 3.20664 23.952 2.56422 23.7437 1.6845H23.7494Z" fill="#EC1D82"/>
<path d="M33.6169 5.74707C34.6992 5.74707 35.5731 6.63257 35.5731 7.72643C35.5731 8.82029 34.6992 9.7058 33.6169 9.7058C32.5346 9.7058 31.6665 8.82029 31.6665 7.72643C31.6665 6.63257 32.5404 5.74707 33.6169 5.74707Z" fill="#EC1D82"/>
<path d="M29.9015 15.0654C30.978 15.0654 31.8577 15.9567 31.8577 17.0506C31.8577 18.1444 30.9838 19.0299 29.9015 19.0299C28.8192 19.0299 27.9453 18.1444 27.9453 17.0506C27.9453 15.9567 28.8192 15.0654 29.9015 15.0654Z" fill="#EC1D82"/>
<path d="M37.5351 20.222C37.6451 21.3795 37.784 22.4734 37.9576 23.4631C37.6104 23.7872 37.159 23.9724 36.6554 23.9724C35.5731 23.9724 34.6992 23.0869 34.6992 21.993C34.6992 20.8992 35.5789 20.0137 36.6554 20.0137C36.968 20.0137 37.2689 20.0947 37.5351 20.2278V20.222Z" fill="#EC1D82"/>
<path d="M14.5993 7.13561C14.171 7.1414 13.7427 7.14719 13.3202 7.1414C13.2623 7.1414 13.1987 7.1414 13.1408 7.1414V6.97356C13.1408 6.84044 12.8456 5.43405 12.8456 5.43405L13.0945 5.24306C12.9324 4.1029 12.7357 3.06113 12.4984 2.15827C12.2553 1.20331 13.1234 0.352531 14.0726 0.607185C16.486 1.26119 19.947 1.63738 23.5759 1.73577C23.7784 2.61549 24.554 3.25791 25.48 3.25791C26.406 3.25791 27.1815 2.6097 27.3783 1.72998C30.9146 1.62581 34.2772 1.24961 36.6385 0.612973C37.5877 0.352531 38.4558 1.2091 38.2127 2.16405C37.0784 6.50476 36.7948 14.2544 37.3677 20.2851C37.1015 20.1519 36.8063 20.0709 36.488 20.0709C35.4057 20.0709 34.5318 20.9564 34.5318 22.0503C34.5318 23.1441 35.4115 24.0296 36.488 24.0296C36.9915 24.0296 37.443 23.8444 37.7902 23.5203C37.9176 24.2438 38.0565 24.8978 38.2127 25.4997C38.4558 26.4489 37.5877 27.2996 36.6385 27.045C34.4218 26.4431 31.3197 26.0727 28.0207 25.9453L27.1005 26.1132C26.8343 26.0669 26.3018 25.9916 25.8215 26.0437L25.5899 26.0669C25.5899 26.009 25.5784 25.9511 25.5726 25.8933C24.9707 19.8278 25.2427 11.9335 26.3944 7.52917C26.6375 6.58 25.7694 5.72922 24.8202 5.98388C23.2112 6.42373 21.1335 6.74205 18.8474 6.92726L18.8242 6.67839C19.0326 6.29062 18.8937 5.55559 18.8937 5.55559H18.4943C18.205 4.82635 17.4989 4.31126 16.677 4.31126C15.8552 4.31126 15.178 4.81478 14.8771 5.52666L14.5009 5.55559C14.5009 5.55559 14.3157 6.26168 14.5935 6.88096V7.12982L14.5993 7.13561ZM35.4 7.78961C35.4 6.69575 34.526 5.81025 33.4437 5.81025C32.3615 5.81025 31.4933 6.69575 31.4933 7.78961C31.4933 8.88347 32.3672 9.76897 33.4437 9.76897C34.5202 9.76897 35.4 8.88347 35.4 7.78961ZM31.6843 17.1019C31.6843 16.008 30.8104 15.1167 29.7281 15.1167C28.6458 15.1167 27.7719 16.008 27.7719 17.1019C27.7719 18.1957 28.6458 19.0812 29.7281 19.0812C30.8104 19.0812 31.6843 18.1957 31.6843 17.1019Z" fill="white"/>
<path d="M25.3353 32.932C25.1791 32.932 25.017 32.9089 24.855 32.8684C19.3394 31.3578 8.08824 31.3578 2.56686 32.8684C1.94759 33.0362 1.29938 32.8684 0.842154 32.4227C0.384933 31.9713 0.205517 31.3289 0.361783 30.7038C1.86077 24.9798 1.86077 13.3352 0.361783 7.61702C0.19973 6.99196 0.379146 6.35532 0.836367 5.90388C1.29359 5.45245 1.9418 5.28461 2.56107 5.45245C5.10184 6.14696 9.02005 6.55788 13.3087 6.58682C13.3723 6.58682 13.4302 6.58682 13.4881 6.58682C13.9164 6.58682 14.3389 6.58682 14.7614 6.58103C16.2083 6.56367 17.6204 6.49422 18.969 6.38426C21.3014 6.19326 23.3386 5.87495 24.8492 5.45824C25.4742 5.2904 26.1167 5.45824 26.5797 5.90967C27.0369 6.36111 27.2163 6.99774 27.0542 7.6228C25.972 11.7552 25.6247 19.5742 26.244 25.8075C26.2498 25.8654 26.2556 25.9232 26.2613 25.9869C26.4523 27.8505 26.7186 29.4363 27.0542 30.7096C27.2163 31.3404 27.0369 31.9829 26.5797 32.4343C26.2382 32.77 25.7983 32.9494 25.3353 32.9494V32.932ZM13.7138 30.7212C18.0082 30.7212 22.3026 31.1089 25.127 31.8845C25.399 31.9597 25.671 31.8845 25.8678 31.6935C26.0704 31.4967 26.1398 31.2247 26.0704 30.9527C25.7231 29.6331 25.4511 27.9894 25.2543 26.0737C25.2543 26.0737 25.2543 26.0679 25.2543 26.0621C25.2543 26.01 25.2427 25.9522 25.2369 25.9001C24.5945 19.4527 24.9476 11.6568 26.0761 7.35657C26.1456 7.09034 26.0761 6.82411 25.8736 6.62734C25.6768 6.43056 25.399 6.36111 25.127 6.43634C23.5527 6.87042 21.4576 7.20031 19.0616 7.39709C17.6899 7.51284 16.2546 7.5765 14.7845 7.59965C14.3562 7.60544 13.9222 7.61123 13.4939 7.60544C13.436 7.60544 13.3723 7.60544 13.3087 7.60544C8.94481 7.5765 4.934 7.15401 2.30642 6.43634C2.0344 6.36111 1.7566 6.43634 1.55982 6.62734C1.36304 6.82411 1.2878 7.09034 1.35725 7.36236C2.88518 13.2021 2.88518 25.113 1.35725 30.9585C1.2878 31.2305 1.35725 31.5025 1.56561 31.6993C1.76238 31.896 2.0344 31.9655 2.30642 31.8903C5.13656 31.1147 9.43097 30.7269 13.7254 30.7269L13.7138 30.7212Z" fill="black"/>
<path d="M37.1537 27.5493C36.9916 27.5493 36.8354 27.5262 36.6733 27.4856C34.5898 26.9185 31.5686 26.5365 28.1713 26.4092C28.0035 26.4034 27.8356 26.3976 27.6678 26.3918C27.3842 26.386 27.1643 26.1487 27.1759 25.8709C27.1816 25.5873 27.4247 25.379 27.6967 25.3732C27.8646 25.3732 28.0382 25.3847 28.2118 25.3905C31.6844 25.5236 34.7866 25.9172 36.9453 26.5075C37.2116 26.5828 37.4952 26.5075 37.6919 26.3166C37.8887 26.1198 37.964 25.8535 37.8945 25.5815C37.7325 24.968 37.5878 24.2851 37.4604 23.5616C37.2868 22.5662 37.1421 21.4607 37.0322 20.2801C36.4245 13.8963 36.7891 6.2046 37.8945 1.98543C37.964 1.71342 37.8945 1.4414 37.6919 1.24462C37.4952 1.05363 37.2174 0.978389 36.9511 1.05363C34.6534 1.67869 31.3198 2.08382 27.5752 2.188C27.2974 2.19379 27.0601 1.97386 27.0543 1.69605C27.0485 1.41246 27.2685 1.18096 27.5463 1.16938C31.2156 1.0652 34.4625 0.671646 36.6849 0.0697345C37.3042 -0.0981062 37.9524 0.0697345 38.4096 0.515381C38.8668 0.966814 39.0462 1.60924 38.89 2.2343C37.8135 6.35508 37.4604 13.9021 38.0566 20.1817C38.1665 21.3392 38.3054 22.4157 38.4733 23.388C38.5948 24.0825 38.7337 24.7365 38.89 25.3269C39.052 25.9519 38.8726 26.5886 38.4154 27.04C38.0739 27.3757 37.6283 27.5551 37.1711 27.5551L37.1537 27.5493Z" fill="black"/>
<path d="M13.2682 5.69554C13.0193 5.69554 12.7994 5.51034 12.7647 5.25568C12.6026 4.11552 12.4059 3.0969 12.1801 2.22876C12.0181 1.59791 12.1975 0.955488 12.6547 0.504054C13.1119 0.0526207 13.7544 -0.11522 14.3794 0.0584083C16.6482 0.677683 19.9818 1.07124 23.7612 1.16963C24.0447 1.17542 24.2647 1.41271 24.2589 1.69051C24.2531 1.97411 24.0158 2.19982 23.738 2.18825C19.8777 2.08986 16.4572 1.67894 14.1132 1.0423C13.847 0.967063 13.5692 1.0423 13.3724 1.23329C13.1698 1.43007 13.1004 1.70209 13.1698 1.97411C13.4071 2.87698 13.6097 3.93032 13.7775 5.11099C13.818 5.3888 13.6213 5.64924 13.3435 5.68397C13.3203 5.68397 13.2972 5.68397 13.274 5.68397L13.2682 5.69554Z" fill="black"/>
<path d="M18.6618 6.01393C18.4592 6.01393 18.2682 5.89239 18.1872 5.69561C17.9615 5.13422 17.4348 4.7696 16.8445 4.7696C16.2541 4.7696 15.7448 5.12264 15.5191 5.67246C15.4092 5.93291 15.114 6.05445 14.8535 5.94448C14.5931 5.83452 14.4716 5.53935 14.5815 5.27891C14.9693 4.35289 15.8606 3.75098 16.8503 3.75098C17.84 3.75098 18.7602 4.36446 19.1364 5.31363C19.2406 5.57407 19.1132 5.86924 18.8528 5.97342C18.7891 5.99657 18.7255 6.00814 18.6676 6.00814L18.6618 6.01393Z" fill="black"/>
<path d="M25.6475 3.71068C24.4957 3.71068 23.5118 2.92357 23.2514 1.79498C23.2167 1.64451 23.2514 1.48245 23.3498 1.36091C23.4482 1.23937 23.5929 1.16992 23.7549 1.17571C25.0513 1.21044 26.3188 1.20465 27.5227 1.16992C27.6789 1.16992 27.8294 1.23359 27.9336 1.35513C28.032 1.47667 28.0725 1.63872 28.0377 1.7892C27.7831 2.92357 26.7992 3.71647 25.6475 3.71647V3.71068ZM24.571 2.21169C24.8372 2.51265 25.225 2.69785 25.6475 2.69785C26.07 2.69785 26.4577 2.51265 26.724 2.2059C26.0237 2.21748 25.3002 2.21748 24.571 2.2059V2.21169Z" fill="black"/>
<path d="M33.617 10.2215C32.2569 10.2215 31.1572 9.10448 31.1572 7.73281C31.1572 6.36115 32.2627 5.24414 33.617 5.24414C34.9713 5.24414 36.0825 6.36115 36.0825 7.73281C36.0825 9.10448 34.9771 10.2215 33.617 10.2215ZM33.617 6.25697C32.8241 6.25697 32.1758 6.91676 32.1758 7.72703C32.1758 8.53729 32.8241 9.20287 33.617 9.20287C34.4099 9.20287 35.0639 8.54308 35.0639 7.72703C35.0639 6.91097 34.4157 6.25697 33.617 6.25697Z" fill="black"/>
<path d="M29.9016 19.5397C28.5415 19.5397 27.436 18.4227 27.436 17.0452C27.436 15.6678 28.5415 14.5508 29.9016 14.5508C31.2616 14.5508 32.3671 15.6678 32.3671 17.0452C32.3671 18.4227 31.2616 19.5397 29.9016 19.5397ZM29.9016 15.5752C29.1029 15.5752 28.4547 16.235 28.4547 17.051C28.4547 17.8671 29.1029 18.5269 29.9016 18.5269C30.7002 18.5269 31.3485 17.8671 31.3485 17.051C31.3485 16.235 30.7002 15.5752 29.9016 15.5752Z" fill="black"/>
<path d="M36.656 24.488C35.2959 24.488 34.1904 23.371 34.1904 21.9993C34.1904 20.6277 35.2959 19.5049 36.656 19.5049C37.0379 19.5049 37.4083 19.5917 37.7614 19.7711C38.0103 19.8984 38.1144 20.2052 37.9871 20.4541C37.8598 20.7029 37.553 20.8071 37.3042 20.6798C37.0958 20.5756 36.8759 20.5235 36.656 20.5235C35.8573 20.5235 35.2091 21.1833 35.2091 21.9993C35.2091 22.8154 35.8573 23.4694 36.656 23.4694C37.0206 23.4694 37.3505 23.3421 37.6109 23.099C37.8193 22.908 38.1376 22.9196 38.3286 23.1221C38.5196 23.3305 38.508 23.6488 38.3054 23.8398C37.8598 24.2565 37.2752 24.488 36.656 24.488Z" fill="black"/>
</g>
<defs>
<clipPath id="clip0_12215_833">
<rect width="38.6265" height="32.9315" fill="white" transform="translate(0.303711)"/>
</clipPath>
</defs>
</svg>
