<svg width="24" height="24" viewBox="0 0 24 24" fill="none" xmlns="http://www.w3.org/2000/svg">
<path d="M9.13086 14.0674H15.8691C16.8582 14.0687 17.8065 14.4618 18.5059 15.1611C19.1616 15.8168 19.5479 16.6915 19.5947 17.6133L19.5996 17.7988V21.6006H18.7334V17.7979L18.7188 17.5146C18.6531 16.8593 18.3633 16.2432 17.8936 15.7734C17.3567 15.2366 16.6284 14.9344 15.8691 14.9336H9.13086C8.37163 14.9344 7.64333 15.2366 7.10645 15.7734C6.56955 16.3103 6.26737 17.0386 6.2666 17.7979V21.6006H5.40039V17.7988C5.40159 16.8096 5.79464 15.8606 6.49414 15.1611C7.14989 14.5054 8.02451 14.1191 8.94629 14.0723L9.13086 14.0674ZM11.6025 2.48828C12.4948 2.3108 13.4202 2.40184 14.2607 2.75C15.1011 3.09818 15.8198 3.68797 16.3252 4.44434C16.8306 5.20076 17.0996 6.09028 17.0996 7L17.0938 7.22754C17.0363 8.36422 16.5596 9.44238 15.751 10.251C14.8886 11.1133 13.7196 11.5983 12.5 11.5996C11.5903 11.5996 10.7008 11.3306 9.94434 10.8252C9.18796 10.3198 8.59818 9.60115 8.25 8.76074C7.90184 7.9202 7.81079 6.99485 7.98828 6.10254C8.16578 5.21024 8.60376 4.39038 9.24707 3.74707C9.89039 3.10376 10.7102 2.66577 11.6025 2.48828ZM12.5 3.2666C11.7617 3.2666 11.0397 3.48534 10.4258 3.89551C9.81184 4.30573 9.33335 4.88912 9.05078 5.57129C8.76821 6.25347 8.69384 7.00432 8.83789 7.72852C8.98195 8.45268 9.33825 9.11755 9.86035 9.63965C10.3824 10.1617 11.0474 10.5171 11.7715 10.6611C12.4957 10.8052 13.2465 10.7318 13.9287 10.4492C14.6109 10.1666 15.1943 9.68815 15.6045 9.07422C16.0147 8.4603 16.2334 7.73834 16.2334 7C16.2334 6.00987 15.8398 5.06048 15.1396 4.36035C14.4395 3.66023 13.4901 3.26661 12.5 3.2666Z" fill="white" stroke="white" stroke-width="0.8"/>
</svg>
