<svg width="24" height="25" viewBox="0 0 24 25" fill="none" xmlns="http://www.w3.org/2000/svg">
<g id="icon/navigation">
<g id="Vector">
<path d="M20 22.5006H18.3333V18.2981C18.3327 17.6447 18.0728 17.0183 17.6109 16.5564C17.1489 16.0944 16.5225 15.8346 15.8692 15.8339H9.13083C8.4775 15.8346 7.85111 16.0944 7.38914 16.5564C6.92716 17.0183 6.66733 17.6447 6.66667 18.2981V22.5006H5V18.2981C5.00132 17.2029 5.43696 16.153 6.21135 15.3786C6.98575 14.6042 8.03567 14.1685 9.13083 14.1672H15.8692C16.9643 14.1685 18.0143 14.6042 18.7886 15.3786C19.563 16.153 19.9987 17.2029 20 18.2981V22.5006Z" fill="#B1B2B6"/>
<path d="M12.5 12.5C11.511 12.5 10.5443 12.2068 9.7221 11.6573C8.89985 11.1079 8.25899 10.327 7.88055 9.41342C7.50212 8.49979 7.4031 7.49446 7.59602 6.52455C7.78895 5.55465 8.26516 4.66373 8.96442 3.96447C9.66368 3.26521 10.5546 2.789 11.5245 2.59608C12.4944 2.40315 13.4997 2.50217 14.4134 2.8806C15.327 3.25904 16.1079 3.8999 16.6573 4.72215C17.2067 5.5444 17.5 6.5111 17.5 7.5C17.4986 8.82568 16.9714 10.0967 16.034 11.0341C15.0966 11.9715 13.8256 12.4987 12.5 12.5ZM12.5 4.16667C11.8407 4.16667 11.1962 4.36217 10.6481 4.72844C10.0999 5.09471 9.67265 5.6153 9.42035 6.22439C9.16806 6.83348 9.10205 7.5037 9.23067 8.1503C9.35928 8.79691 9.67675 9.39085 10.1429 9.85703C10.6091 10.3232 11.203 10.6407 11.8497 10.7693C12.4963 10.8979 13.1665 10.8319 13.7756 10.5796C14.3847 10.3273 14.9052 9.90007 15.2715 9.3519C15.6378 8.80374 15.8333 8.15927 15.8333 7.5C15.8333 6.61595 15.4821 5.7681 14.857 5.14298C14.2319 4.51786 13.384 4.16667 12.5 4.16667Z" fill="#B1B2B6"/>
</g>
</g>
</svg>
