<svg width="104" height="104" viewBox="0 0 104 104" fill="none" xmlns="http://www.w3.org/2000/svg">
<path d="M0.5 4C0.5 2.06701 2.067 0.5 4 0.5H100C101.933 0.5 103.5 2.067 103.5 4V100C103.5 101.933 101.933 103.5 100 103.5H4C2.06701 103.5 0.5 101.933 0.5 100V4Z" fill="white"/>
<path d="M0.5 4C0.5 2.06701 2.067 0.5 4 0.5H100C101.933 0.5 103.5 2.067 103.5 4V100C103.5 101.933 101.933 103.5 100 103.5H4C2.06701 103.5 0.5 101.933 0.5 100V4Z" stroke="#ECECED"/>
<path d="M60 32.3333H57.91L55.3383 29H49.6608L47.09 32.3333H45C44.337 32.3333 43.7011 32.5967 43.2322 33.0656C42.7634 33.5344 42.5 34.1703 42.5 34.8333V49H62.5V34.8333C62.5 34.1703 62.2366 33.5344 61.7678 33.0656C61.2989 32.5967 60.663 32.3333 60 32.3333ZM50.4808 30.6667H54.52L55.805 32.3333H49.195L50.4808 30.6667ZM60.8333 47.3333H44.1667V34.8333C44.1667 34.6123 44.2545 34.4004 44.4107 34.2441C44.567 34.0878 44.779 34 45 34H60C60.221 34 60.433 34.0878 60.5893 34.2441C60.7455 34.4004 60.8333 34.6123 60.8333 34.8333V47.3333Z" fill="#B1B2B6"/>
<path d="M52.5 35.6665C51.5111 35.6665 50.5444 35.9597 49.7222 36.5092C48.8999 37.0586 48.259 37.8395 47.8806 38.7531C47.5022 39.6667 47.4032 40.6721 47.5961 41.642C47.789 42.6119 48.2652 43.5028 48.9645 44.202C49.6637 44.9013 50.5546 45.3775 51.5246 45.5704C52.4945 45.7634 53.4998 45.6643 54.4134 45.2859C55.3271 44.9075 56.1079 44.2666 56.6574 43.4444C57.2068 42.6221 57.5 41.6554 57.5 40.6665C57.4987 39.3408 56.9715 38.0698 56.0341 37.1324C55.0967 36.195 53.8257 35.6678 52.5 35.6665ZM52.5 43.9998C51.8407 43.9998 51.1963 43.8043 50.6481 43.4381C50.0999 43.0718 49.6727 42.5512 49.4204 41.9421C49.1681 41.333 49.1021 40.6628 49.2307 40.0162C49.3593 39.3696 49.6768 38.7757 50.143 38.3095C50.6092 37.8433 51.2031 37.5258 51.8497 37.3972C52.4963 37.2686 53.1665 37.3346 53.7756 37.5869C54.3847 37.8392 54.9053 38.2664 55.2716 38.8146C55.6378 39.3628 55.8333 40.0072 55.8333 40.6665C55.8333 41.5506 55.4821 42.3984 54.857 43.0235C54.2319 43.6486 53.3841 43.9998 52.5 43.9998Z" fill="#B1B2B6"/>
<path d="M29.1387 64.168C29.127 66.0254 30.2109 67.9297 31.7754 68.6914L31.084 69.582C29.9414 68.9844 29.0566 67.8125 28.5938 66.4121C28.125 67.9004 27.2051 69.1602 26.0098 69.7812L25.3184 68.8789C26.9297 68.1055 28.0195 66.0898 28.0254 64.168V62.375H29.1387V64.168ZM32.5605 71.9961V61.4961H33.6738V65.6797H35.3613V66.6289H33.6738V71.9961H32.5605ZM39.7559 63.6875C39.7559 65.0469 40.7578 66.3242 42.3809 66.8398L41.8066 67.707C40.5996 67.3086 39.6914 66.4824 39.2109 65.4336C38.7422 66.5762 37.8047 67.4785 36.5566 67.918L35.9824 67.0391C37.6172 66.4824 38.625 65.123 38.6309 63.6875V63.2305H36.2754V62.3281H42.0645V63.2305H39.7559V63.6875ZM37.7051 71.7734V68.4453H38.8301V70.8711H44.8887V71.7734H37.7051ZM43.459 69.1719V61.5078H44.5723V69.1719H43.459ZM52.0723 61.9766C53.4551 61.9648 54.5273 62.7676 54.7559 63.9453H56.8066V61.4961H57.9199V67.1328H56.8066V64.8594H54.7617C54.5449 66.0664 53.4668 66.875 52.0723 66.875C50.4668 66.875 49.3125 65.8613 49.3184 64.4141C49.3125 62.9844 50.4668 61.9648 52.0723 61.9766ZM50.3848 64.4141C50.3789 65.3105 51.082 65.9375 52.0723 65.9375C53.0449 65.9375 53.7363 65.3105 53.7363 64.4141C53.7363 63.5117 53.0449 62.8965 52.0723 62.9023C51.082 62.8965 50.3789 63.5117 50.3848 64.4141ZM51.0762 71.8672V67.6367H52.1777V68.8555H56.8066V67.6367H57.9199V71.8672H51.0762ZM52.1777 70.9531H56.8066V69.7344H52.1777V70.9531ZM69.1465 69.8047V70.7422H59.5371V69.8047H63.7676V67.9648H60.709V64.625H66.873V63.1484H60.6855V62.2344H67.9746V65.5156H61.8105V67.0508H68.2207V67.9648H64.8691V69.8047H69.1465ZM78.416 66.4766V67.3906H71.1035V62.4336H78.3223V63.3477H72.2051V66.4766H78.416ZM69.9082 70.6133V69.6875H79.5176V70.6133H69.9082Z" fill="#61636C"/>
</svg>
