<svg width="16" height="17" viewBox="0 0 16 17" fill="none" xmlns="http://www.w3.org/2000/svg">
<g id="icon/photoservice/&#236;&#132;&#156;&#235;&#185;&#132;&#236;&#138;&#164;&#236;&#139;&#160;&#236;&#178;&#173;">
<g id="&#60;Group&#62;">
<g id="&#60;Group&#62;_2">
<g id="&#60;Group&#62;_3">
<path id="&#60;Compound Path&#62;" fill-rule="evenodd" clip-rule="evenodd" d="M14.2401 5.65563V13.1299C14.2401 13.4842 13.9543 13.7813 13.5886 13.7813H2.42291C2.06863 13.7813 1.77148 13.4842 1.77148 13.1299V5.65563C1.77148 5.30134 2.06863 5.01562 2.42291 5.01562H13.5886C13.9543 5.01562 14.2401 5.30134 14.2401 5.65563ZM2.42291 5.47277C2.32006 5.47277 2.22863 5.55277 2.22863 5.65563V13.1299C2.22863 13.2328 2.32006 13.3242 2.42291 13.3242H13.5886C13.6915 13.3242 13.7829 13.2328 13.7829 13.1299V5.65563C13.7829 5.55277 13.6915 5.47277 13.5886 5.47277H2.42291Z" fill="#666666"/>
<path id="&#60;Compound Path&#62;_2" fill-rule="evenodd" clip-rule="evenodd" d="M13.5886 13.837H2.42293C2.03436 13.837 1.71436 13.517 1.71436 13.1285V5.65417C1.71436 5.2656 2.03436 4.95703 2.42293 4.95703H13.5886C13.9772 4.95703 14.2972 5.2656 14.2972 5.65417V13.1285C14.2972 13.517 13.9772 13.837 13.5886 13.837ZM2.42293 5.07132C2.10293 5.07132 1.82864 5.33417 1.82864 5.65417V13.1285C1.82864 13.4599 2.10293 13.7227 2.42293 13.7227H13.5886C13.9201 13.7227 14.1829 13.4599 14.1829 13.1285V5.65417C14.1829 5.33417 13.9201 5.07132 13.5886 5.07132H2.42293ZM13.6001 13.3799H2.42293C2.29721 13.3799 2.18293 13.2656 2.18293 13.1285V5.65417C2.18293 5.52846 2.29721 5.41417 2.42293 5.41417H13.6001C13.7372 5.41417 13.8401 5.52846 13.8401 5.65417V13.1285C13.8401 13.2656 13.7372 13.3799 13.6001 13.3799ZM2.42293 5.52846C2.35436 5.52846 2.29721 5.5856 2.29721 5.65417V13.1285C2.29721 13.2085 2.35436 13.2656 2.42293 13.2656H13.6001C13.6686 13.2656 13.7258 13.2085 13.7258 13.1285V5.65417C13.7258 5.5856 13.6686 5.52846 13.6001 5.52846H2.42293Z" fill="#666666"/>
</g>
</g>
<g id="&#60;Group&#62;_4">
<g id="&#60;Group&#62;_5">
<g id="&#60;Group&#62;_6">
<path id="&#60;Path&#62;" d="M2.87999 3.95612C2.87999 3.84183 2.97142 3.76183 3.07428 3.76183H12.9486C13.0514 3.76183 13.1314 3.84183 13.1314 3.95612V4.68754H13.5886V3.95612C13.5886 3.5904 13.3029 3.30469 12.9486 3.30469H3.07428C2.70857 3.30469 2.42285 3.5904 2.42285 3.95612V4.68754H2.87999V3.95612Z" fill="#666666"/>
<path id="&#60;Compound Path&#62;_3" fill-rule="evenodd" clip-rule="evenodd" d="M13.5886 4.74324H13.1314C13.1086 4.74324 13.0743 4.72038 13.0743 4.68609V3.95467C13.0743 3.87467 13.0172 3.81752 12.9486 3.81752H3.07429C2.99429 3.81752 2.93715 3.87467 2.93715 3.95467V4.68609C2.93715 4.72038 2.91429 4.74324 2.88001 4.74324H2.42287C2.38858 4.74324 2.36572 4.72038 2.36572 4.68609V3.95467C2.36572 3.56609 2.68572 3.24609 3.07429 3.24609H12.9486C13.3372 3.24609 13.6457 3.56609 13.6457 3.95467V4.68609C13.6457 4.72038 13.6229 4.74324 13.5886 4.74324ZM13.1886 4.62895H13.5314V3.95467C13.5314 3.62324 13.2686 3.36038 12.9486 3.36038H3.07429C2.74287 3.36038 2.48001 3.62324 2.48001 3.95467V4.62895H2.82287V3.95467C2.82287 3.81752 2.93715 3.70324 3.07429 3.70324H12.9486C13.0857 3.70324 13.1886 3.81752 13.1886 3.95467V4.62895Z" fill="#666666"/>
</g>
</g>
</g>
<g id="&#60;Group&#62;_7">
<g id="&#60;Group&#62;_8">
<g id="&#60;Group&#62;_9">
<path id="&#60;Path&#62;_2" d="M11.8401 7.06647C11.8401 7.64933 11.3715 8.12933 10.7772 8.12933C10.1829 8.12933 9.71436 7.64933 9.71436 7.06647C9.71436 6.47219 10.1829 5.99219 10.7772 5.99219C11.3715 5.99219 11.8401 6.47219 11.8401 7.06647Z" fill="#666666"/>
</g>
</g>
<g id="&#60;Group&#62;_10">
<g id="&#60;Group&#62;_11">
<path id="&#60;Path&#62;_3" d="M13.2004 11.34V12.8029H2.82324V11.2829L6.1261 7.80859L9.65753 11.5915C9.77181 11.7057 9.90896 11.7629 10.0461 11.7629C10.1718 11.7629 10.2975 11.7172 10.4004 11.6257C10.6175 11.42 10.6175 11.1 10.4232 10.8829L9.6461 10.0486L10.789 8.84859L13.2004 11.34Z" fill="#666666"/>
</g>
</g>
</g>
</g>
</g>
</svg>
