<svg width="16" height="16" viewBox="0 0 16 16" fill="none" xmlns="http://www.w3.org/2000/svg">
<path fill-rule="evenodd" clip-rule="evenodd" d="M8 15.5C12.1421 15.5 15.5 12.1421 15.5 8C15.5 3.85786 12.1421 0.5 8 0.5C3.85786 0.5 0.5 3.85786 0.5 8C0.5 12.1421 3.85786 15.5 8 15.5ZM7.1852 8.95672C7.12272 9.37702 7.47917 9.72379 7.90408 9.72379H8.2567C8.46454 9.72379 8.63659 9.56226 8.64969 9.35484C8.69243 8.95968 8.8614 8.61492 9.15663 8.32056L9.62861 7.85484C9.99764 7.48387 10.256 7.14718 10.4036 6.84476C10.5512 6.53831 10.625 6.21371 10.625 5.87097C10.625 5.11694 10.3978 4.53427 9.94326 4.12298C9.48876 3.70766 8.84975 3.5 8.02622 3.5C7.21046 3.5 6.56562 3.71774 6.0917 4.15323C5.81065 4.41362 5.61224 4.73384 5.49646 5.11389C5.35857 5.56654 5.76606 5.96169 6.23925 5.96169C6.63981 5.96169 6.93841 5.63542 7.21705 5.33096C7.25595 5.28845 7.29447 5.24636 7.33282 5.20565C7.50763 5.02016 7.73876 4.92742 8.02622 4.92742C8.63221 4.92742 8.93521 5.26815 8.93521 5.9496C8.93521 6.1754 8.87694 6.39113 8.7604 6.59677C8.64387 6.79839 8.40885 7.0625 8.05536 7.38911C7.70574 7.71169 7.4649 8.04032 7.33282 8.375C7.26742 8.54073 7.21821 8.73464 7.1852 8.95672ZM7.22794 10.9153C7.05313 11.0887 6.96573 11.3105 6.96573 11.5806C6.96573 11.8468 7.05119 12.0665 7.22211 12.2399C7.39692 12.4133 7.62611 12.5 7.90968 12.5C8.19326 12.5 8.42051 12.4133 8.59143 12.2399C8.76623 12.0665 8.85363 11.8468 8.85363 11.5806C8.85363 11.3105 8.76429 11.0887 8.5856 10.9153C8.41079 10.7379 8.18549 10.6492 7.90968 10.6492C7.63388 10.6492 7.40663 10.7379 7.22794 10.9153Z" fill="#61636C"/>
</svg>
