<svg width="40" height="41" viewBox="0 0 40 41" fill="none" xmlns="http://www.w3.org/2000/svg">
<path d="M20 38C29.9411 38 38 29.9411 38 20C38 10.0589 29.9411 2 20 2C10.0589 2 2 10.0589 2 20C2 29.9411 10.0589 38 20 38Z" fill="#FFCFE3"/>
<mask id="mask0_12728_8045" style="mask-type:luminance" maskUnits="userSpaceOnUse" x="2" y="2" width="36" height="36">
<path d="M20 38C29.9411 38 38 29.9411 38 20C38 10.0589 29.9411 2 20 2C10.0589 2 2 10.0589 2 20C2 29.9411 10.0589 38 20 38Z" fill="white"/>
</mask>
<g mask="url(#mask0_12728_8045)">
<path d="M16.8317 35.2924C27.3137 35.2924 35.8109 26.7951 35.8109 16.3132C35.8109 5.83126 27.3137 -2.66602 16.8317 -2.66602C6.34982 -2.66602 -2.14746 5.83126 -2.14746 16.3132C-2.14746 26.7951 6.34982 35.2924 16.8317 35.2924Z" fill="white"/>
</g>
<path d="M20 38.25C29.9411 38.25 38 30.1911 38 20.25C38 10.3089 29.9411 2.25 20 2.25C10.0589 2.25 2 10.3089 2 20.25C2 30.1911 10.0589 38.25 20 38.25Z" stroke="#666666" stroke-width="1.42658" stroke-miterlimit="10"/>
<path d="M15 27.8477V13H20.291C23.7363 13 25.4385 14.9277 25.4385 17.6553C25.4385 19.6548 24.5361 21.1724 22.7314 21.8389L26.0127 27.8477H23.4492L20.4346 22.249H20.291H17.2559V27.8477H15ZM17.2559 20.3008H20.0654C22.2598 20.3008 23.1621 19.3369 23.1621 17.6553C23.1621 15.9736 22.2598 14.9277 20.0654 14.9277H17.2559V20.3008Z" fill="#EB1F81"/>
</svg>
