<svg width="48" height="48" viewBox="0 0 48 48" fill="none" xmlns="http://www.w3.org/2000/svg">
<path d="M23.919 4.02505C24.5639 3.92204 25.0782 4.15884 25.6831 4.33408C29.1842 5.34759 32.7265 6.69737 36.1806 7.86481C36.5242 8.17621 36.7725 8.57286 37.0514 8.93872C38.9956 11.4844 41.4446 14.6812 43.1299 17.3583C43.3511 17.7099 43.5865 18.0497 43.59 18.4902L43.5476 30.4192C43.4711 30.7282 43.2958 30.9768 43.1299 31.2397C41.4387 33.925 38.9697 37.1633 37.0149 39.7101C36.6748 40.1542 36.3865 40.7106 35.8334 40.9143C32.4464 41.9396 29.0748 43.2811 25.6843 44.2627C25.2747 44.3811 24.7546 44.5918 24.3403 44.6001C23.7731 44.6108 22.7127 44.1822 22.1137 43.9975C18.8597 42.9934 15.6152 41.8615 12.4094 40.7331C12.0658 40.4217 11.8175 40.0251 11.5386 39.6592C9.59441 37.1136 7.14539 33.9167 5.46015 31.2397C5.2389 30.888 5.00353 30.5482 5 30.1078L5.04237 18.1788C5.11886 17.8698 5.29421 17.6211 5.46015 17.3583C7.14657 14.68 9.59324 11.4855 11.5386 8.93872C11.8904 8.47814 12.1952 7.89323 12.7578 7.68366L23.919 4.02505Z" fill="#9C9C9C"/>
<path d="M23.9586 6.03233C24.5363 5.93952 24.997 6.15288 25.5389 6.31077C28.6754 7.22396 31.8489 8.44012 34.9432 9.492C35.2511 9.77257 35.4735 10.1299 35.7234 10.4596C37.4651 12.7532 39.6591 15.6336 41.1688 18.0457C41.367 18.3625 41.5779 18.6687 41.581 19.0655L41.5431 29.8136C41.4745 30.0921 41.3175 30.3161 41.1688 30.5529C39.6538 32.9725 37.4419 35.8902 35.6907 38.1849C35.386 38.5849 35.1277 39.0863 34.6322 39.2698C31.5979 40.1937 28.5774 41.4024 25.54 42.2868C25.1731 42.3935 24.7071 42.5833 24.336 42.5908C23.8278 42.6004 22.8779 42.2142 22.3413 42.0478C19.4262 41.1432 16.5195 40.1233 13.6476 39.1066C13.3397 38.826 13.1173 38.4687 12.8674 38.139C11.1257 35.8454 8.93174 32.965 7.42199 30.5529C7.22379 30.2361 7.01293 29.9299 7.00977 29.5331L7.04772 18.785C7.11625 18.5065 7.27334 18.2825 7.42199 18.0457C8.93279 15.6325 11.1247 12.7543 12.8674 10.4596C13.1826 10.0446 13.4557 9.5176 13.9597 9.32877L23.9586 6.03233Z" fill="white"/>
<path d="M23.9903 7.63777C24.5143 7.55312 24.9322 7.74772 25.4237 7.89173C28.2684 8.72464 31.1466 9.83389 33.9531 10.7933C34.2324 11.0492 34.4341 11.3752 34.6607 11.6758C36.2404 13.7678 38.2303 16.395 39.5996 18.595C39.7794 18.884 39.9706 19.1632 39.9735 19.5252L39.9391 29.3284C39.8769 29.5824 39.7344 29.7867 39.5996 30.0027C38.2255 32.2095 36.2194 34.8708 34.6311 36.9637C34.3548 37.3286 34.1205 37.7859 33.6711 37.9533C30.9191 38.7959 28.1795 39.8984 25.4246 40.705C25.0919 40.8023 24.6692 40.9755 24.3326 40.9823C23.8717 40.9911 23.0102 40.6388 22.5235 40.487C19.8795 39.6619 17.2432 38.7317 14.6385 37.8044C14.3593 37.5485 14.1575 37.2226 13.9309 36.9219C12.3512 34.8299 10.3613 32.2027 8.99205 30.0027C8.81228 29.7137 8.62103 29.4345 8.61816 29.0725L8.65259 19.2693C8.71474 19.0153 8.85722 18.811 8.99205 18.595C10.3623 16.394 12.3503 13.7688 13.9309 11.6758C14.2168 11.2973 14.4645 10.8166 14.9216 10.6444L23.9903 7.63777Z" fill="#9C9C9C"/>
<path d="M24.0134 8.84331C24.4971 8.76478 24.8828 8.94532 25.3365 9.07892C27.9624 9.85161 30.6193 10.8807 33.2099 11.7707C33.4676 12.0081 33.6539 12.3105 33.863 12.5895C35.3212 14.5302 37.158 16.9675 38.422 19.0084C38.5879 19.2765 38.7645 19.5356 38.7671 19.8714L38.7353 28.966C38.678 29.2016 38.5464 29.3911 38.422 29.5915C37.1536 31.6388 35.3018 34.1077 33.8357 36.0493C33.5806 36.3878 33.3643 36.8121 32.9495 36.9674C30.4092 37.7491 27.8804 38.7718 25.3374 39.5201C25.0302 39.6104 24.6401 39.7711 24.3294 39.7774C23.904 39.7855 23.1087 39.4588 22.6594 39.3179C20.2188 38.5525 17.7853 37.6895 15.381 36.8292C15.1232 36.5918 14.937 36.2894 14.7278 36.0105C13.2696 34.0697 11.4328 31.6325 10.1689 29.5915C10.0029 29.3234 9.82638 29.0644 9.82373 28.7286L9.85551 19.634C9.91288 19.3984 10.0444 19.2088 10.1689 19.0084C11.4337 16.9666 13.2688 14.5311 14.7278 12.5895C14.9917 12.2383 15.2203 11.7924 15.6422 11.6326L24.0134 8.84331Z" fill="white"/>
<path d="M24.5366 31.1749C23.5397 31.1749 22.5588 30.8908 21.5941 30.3227L20.2273 31.0141H19.8735V26.8816H20.2273L21.6101 29.8724C22.4999 30.5049 23.5183 30.8211 24.6653 30.8211C25.6086 30.8211 26.3858 30.5746 26.9968 30.0815C27.6186 29.5776 27.9294 28.8755 27.9294 27.975C27.9294 27.3211 27.7311 26.8066 27.3345 26.4314C26.9379 26.0455 26.2947 25.74 25.4049 25.5148L22.7357 24.8234C21.8031 24.5769 21.1009 24.1588 20.6293 23.5692C20.1576 22.9689 19.9218 22.2614 19.9218 21.4467C19.9218 20.707 20.0665 20.0531 20.3559 19.485C20.6561 18.9061 21.0902 18.4612 21.6584 18.1504C22.2265 17.8288 22.9019 17.668 23.6844 17.668C24.6599 17.668 25.5336 17.8341 26.3054 18.1664L27.4792 17.668H27.833V20.9482H27.4792L26.3215 18.6006C25.5175 18.2147 24.6438 18.0217 23.7005 18.0217C22.7679 18.0217 22.0336 18.2629 21.4976 18.7453C20.9616 19.217 20.6936 19.8441 20.6936 20.6266C20.6936 21.2055 20.8812 21.6611 21.2564 21.9934C21.6423 22.3257 22.2051 22.5883 22.9448 22.7813L25.823 23.537C26.7556 23.7729 27.4471 24.1802 27.8973 24.7591C28.3582 25.3272 28.5887 26.1955 28.5887 27.364C28.5887 28.5539 28.2189 29.4865 27.4792 30.1619C26.7503 30.8372 25.7694 31.1749 24.5366 31.1749Z" fill="#9C9C9C"/>
</svg>
