<svg width="66" height="85" viewBox="0 0 66 85" fill="none" xmlns="http://www.w3.org/2000/svg">
<g clip-path="url(#clip0_573_17634)">
<path d="M1 33C1 15.3269 15.3269 1 33 1C50.6731 1 65 15.3269 65 33C65 50.6731 50.6731 65 33 65C15.3269 65 1 50.6731 1 33Z" fill="#F5F5F5"/>
<rect x="2" y="2" width="62" height="62" rx="31" fill="#F5F5F5" stroke="white" stroke-width="2"/>
</g>
<path d="M33 0.5C15.0507 0.5 0.5 15.0507 0.5 33C0.5 50.9493 15.0507 65.5 33 65.5C50.9493 65.5 65.5 50.9493 65.5 33C65.5 15.0507 50.9493 0.5 33 0.5Z" stroke="url(#paint0_linear_573_17634)"/>
<path d="M6.51562 74.7539C6.43359 73.9629 5.74219 73.5117 4.76953 73.5117C3.73242 73.5117 3.07617 74.0449 3.07031 74.7656C3.07031 75.5684 3.94336 75.8848 4.61719 76.043L5.4375 76.2656C6.52148 76.5293 7.88086 77.1211 7.88672 78.6562C7.88086 80.0918 6.73828 81.1406 4.73438 81.1406C2.83594 81.1406 1.64062 80.1914 1.55859 78.6445H2.84766C2.92383 79.5703 3.74414 80.0098 4.73438 80.0156C5.81836 80.0098 6.60352 79.4648 6.60938 78.6328C6.60352 77.8945 5.90039 77.5957 5.00391 77.3555L3.99609 77.0859C2.63086 76.7109 1.78711 76.0195 1.78125 74.8359C1.78711 73.3711 3.08789 72.3984 4.80469 72.3984C6.52734 72.3984 7.72852 73.3828 7.76953 74.7539H6.51562ZM9.16406 81V74.6367H10.3711V75.6797H10.4414C10.7109 74.9707 11.3379 74.5547 12.1758 74.5547C13.0254 74.5547 13.6172 74.9707 13.8867 75.6797H13.957C14.2559 74.9941 14.9473 74.5547 15.8672 74.5547C17.0156 74.5547 17.8301 75.2754 17.8359 76.7344V81H16.582V76.8516C16.582 75.9902 16.043 75.6328 15.3867 75.6328C14.584 75.6328 14.1211 76.1836 14.1211 76.9453V81H12.8789V76.7812C12.8789 76.084 12.4043 75.6328 11.7188 75.6328C11.0156 75.6328 10.418 76.2188 10.418 77.0742V81H9.16406ZM19.0547 79.207C19.0488 77.7539 20.2852 77.3789 21.4336 77.2969C21.8555 77.2734 22.8105 77.2207 23.1035 77.209L23.0977 76.6992C23.1035 75.9785 22.6582 75.5625 21.8086 75.5625C21.0703 75.5625 20.625 75.9023 20.4961 76.3711H19.2539C19.3652 75.3164 20.3496 74.5547 21.8555 74.5547C22.8691 74.5547 24.3457 74.9238 24.3516 76.7695V81H23.1328V80.1328H23.0859C22.8398 80.6074 22.2539 81.1406 21.1992 81.1406C19.9922 81.1406 19.0488 80.4492 19.0547 79.207ZM20.2734 79.2188C20.2734 79.8281 20.7773 80.1387 21.4805 80.1445C22.5 80.1387 23.1094 79.459 23.1094 78.7031L23.1035 78.123C22.8164 78.1406 21.9082 78.2051 21.6094 78.2227C20.7891 78.2812 20.2734 78.5918 20.2734 79.2188ZM25.8633 81V74.6367H27.0703V75.6445H27.1406C27.375 74.9648 28.0137 74.5371 28.7578 74.543C28.9102 74.5371 29.1562 74.5547 29.2852 74.5664V75.7617C29.1797 75.7383 28.8867 75.6855 28.6289 75.6914C27.7617 75.6855 27.1172 76.2891 27.1172 77.1211V81H25.8633ZM33.5742 74.6367V75.6328H32.2734V79.125C32.2793 79.8457 32.6309 79.9746 33.0352 79.9805C33.2168 79.9805 33.4922 79.9629 33.668 79.9453V81.0352C33.498 81.0586 33.2285 81.082 32.8828 81.082C31.9043 81.082 31.0195 80.543 31.0312 79.3828V75.6328H30.0938V74.6367H31.0312V73.1133H32.2734V74.6367H33.5742ZM41.2969 76.3711C41.1797 75.8672 40.7812 75.5391 40.0898 75.5391C39.375 75.5391 38.8652 75.9082 38.8711 76.3945C38.8652 76.7695 39.1641 77.0391 39.8672 77.2031L40.875 77.4375C42.0469 77.7012 42.6152 78.2578 42.6211 79.1602C42.6152 80.3086 41.6426 81.1289 40.0195 81.1289C38.4902 81.1289 37.5879 80.4492 37.4297 79.2656H38.707C38.8184 79.8398 39.252 80.127 40.0078 80.1211C40.8164 80.127 41.3379 79.7871 41.3438 79.2539C41.3379 78.8438 41.0332 78.5801 40.3594 78.4219L39.3633 78.2109C38.2148 77.959 37.6172 77.3438 37.6172 76.4648C37.6172 75.334 38.6016 74.5547 40.0781 74.5547C41.4961 74.5547 42.3809 75.2754 42.5039 76.3711H41.2969ZM46.8164 74.6367V75.6328H45.5156V79.125C45.5215 79.8457 45.873 79.9746 46.2773 79.9805C46.459 79.9805 46.7344 79.9629 46.9102 79.9453V81.0352C46.7402 81.0586 46.4707 81.082 46.125 81.082C45.1465 81.082 44.2617 80.543 44.2734 79.3828V75.6328H43.3359V74.6367H44.2734V73.1133H45.5156V74.6367H46.8164ZM50.6602 81.1289C48.8555 81.1289 47.6777 79.8164 47.6836 77.8477C47.6777 75.8672 48.8555 74.5547 50.6602 74.5547C52.4531 74.5547 53.625 75.8672 53.625 77.8477C53.625 79.8164 52.4531 81.1289 50.6602 81.1289ZM48.9375 77.8477C48.9375 79.0605 49.4941 80.0859 50.6602 80.0859C51.8086 80.0859 52.3594 79.0605 52.3594 77.8477C52.3594 76.6289 51.8086 75.5918 50.6602 75.5859C49.4941 75.5918 48.9375 76.6289 48.9375 77.8477ZM54.8555 81V74.6367H56.0625V75.6445H56.1328C56.3672 74.9648 57.0059 74.5371 57.75 74.543C57.9023 74.5371 58.1484 74.5547 58.2773 74.5664V75.7617C58.1719 75.7383 57.8789 75.6855 57.6211 75.6914C56.7539 75.6855 56.1094 76.2891 56.1094 77.1211V81H54.8555ZM61.7461 81.1289C59.8711 81.1289 58.7168 79.834 58.7227 77.8594C58.7168 75.9023 59.8887 74.5547 61.6641 74.5547C63.1113 74.5547 64.4883 75.4512 64.4883 77.7539V78.1992H59.9648C60 79.4121 60.7148 80.0977 61.7578 80.0977C62.4668 80.0977 62.9297 79.793 63.1406 79.4062H64.4062C64.125 80.4375 63.1465 81.1289 61.7461 81.1289ZM59.9707 77.2617H63.2578C63.2578 76.2949 62.6309 75.5801 61.6758 75.5859C60.6738 75.5801 60.0234 76.3652 59.9707 77.2617Z" fill="#282930"/>
<defs>
<linearGradient id="paint0_linear_573_17634" x1="1" y1="1" x2="65" y2="65" gradientUnits="userSpaceOnUse">
<stop stop-color="#AEC0DE"/>
<stop offset="0.994884" stop-color="#F7A3CB"/>
</linearGradient>
<clipPath id="clip0_573_17634">
<path d="M1 33C1 15.3269 15.3269 1 33 1C50.6731 1 65 15.3269 65 33C65 50.6731 50.6731 65 33 65C15.3269 65 1 50.6731 1 33Z" fill="white"/>
</clipPath>
</defs>
</svg>
