<svg width="42" height="19" viewBox="0 0 42 19" fill="none" xmlns="http://www.w3.org/2000/svg">
<rect y="0.5" width="42" height="18" rx="4" fill="#EBF0F7"/>
<path d="M14.4029 3.66699H7.5973C6.95268 3.66699 6.33446 3.92307 5.87864 4.37889C5.42282 4.8347 5.16675 5.45292 5.16675 6.09755C5.16675 6.48432 5.32039 6.85525 5.59388 7.12875C5.86737 7.40224 6.23831 7.55588 6.62508 7.55588H15.3751C15.7448 7.5604 16.1021 7.4229 16.3735 7.17174C16.6448 6.92058 16.8094 6.5749 16.8334 6.20595C16.8477 5.87785 16.7954 5.55024 16.6798 5.24288C16.5641 4.93552 16.3873 4.65476 16.1602 4.41753C15.9331 4.18029 15.6603 3.99149 15.3583 3.8625C15.0563 3.73351 14.7313 3.66701 14.4029 3.66699Z" fill="#3966AE"/>
<path d="M15.8613 8.52806H6.13907C6.01014 8.52806 5.8865 8.57927 5.79533 8.67043C5.70417 8.7616 5.65295 8.88524 5.65295 9.01417V12.9031C5.65373 13.5474 5.91005 14.1652 6.3657 14.6209C6.82135 15.0765 7.43912 15.3328 8.08351 15.3336H13.9168C14.5612 15.3328 15.179 15.0765 15.6347 14.6209C16.0903 14.1652 16.3466 13.5474 16.3474 12.9031V9.01417C16.3474 8.88524 16.2962 8.7616 16.205 8.67043C16.1139 8.57927 15.9902 8.52806 15.8613 8.52806ZM12.4585 10.9586H9.54184C9.41292 10.9586 9.28927 10.9074 9.19811 10.8162C9.10695 10.7251 9.05573 10.6014 9.05573 10.4725C9.05573 10.3436 9.10695 10.2199 9.19811 10.1288C9.28927 10.0376 9.41292 9.98639 9.54184 9.98639H12.4585C12.5874 9.98639 12.7111 10.0376 12.8022 10.1288C12.8934 10.2199 12.9446 10.3436 12.9446 10.4725C12.9446 10.6014 12.8934 10.7251 12.8022 10.8162C12.7111 10.9074 12.5874 10.9586 12.4585 10.9586Z" fill="#3966AE"/>
<path d="M21.207 13V5.92969H23.7949C25.3037 5.92969 26.0312 6.73535 26.0312 7.78516C26.0312 8.66895 25.4893 9.11328 24.8398 9.2793V9.34766C25.543 9.38672 26.3047 10.002 26.3047 11.0957C26.3047 12.1797 25.5625 13 23.9121 13H21.207ZM22.2812 12.082H23.8145C24.8301 12.0771 25.2402 11.6328 25.2402 11.0469C25.2402 10.3682 24.7031 9.82617 23.8535 9.82617H22.2812V12.082ZM22.2812 8.98633H23.707C24.4199 8.98145 24.9766 8.55176 24.9766 7.87305C24.9766 7.28711 24.5713 6.84766 23.7266 6.84766H22.2812V8.98633ZM29.6152 13.1074C28.1113 13.1074 27.1299 12.0137 27.1348 10.373C27.1299 8.72266 28.1113 7.62891 29.6152 7.62891C31.1094 7.62891 32.0859 8.72266 32.0859 10.373C32.0859 12.0137 31.1094 13.1074 29.6152 13.1074ZM28.1797 10.373C28.1797 11.3838 28.6436 12.2383 29.6152 12.2383C30.5723 12.2383 31.0312 11.3838 31.0312 10.373C31.0312 9.35742 30.5723 8.49316 29.6152 8.48828C28.6436 8.49316 28.1797 9.35742 28.1797 10.373ZM33.7266 7.69727L34.8887 9.75781L36.0605 7.69727H37.2031L35.5527 10.3438L37.2129 13H36.0801L34.8887 11.0176L33.707 13H32.5645L34.2051 10.3438L32.5742 7.69727H33.7266Z" fill="#3966AE"/>
</svg>
