<svg width="70" height="70" viewBox="0 0 70 70" fill="none" xmlns="http://www.w3.org/2000/svg">
<g clip-path="url(#clip0_2299_65168)">
<path d="M69.9551 45.3205L0 37.2436V0H69.9551V45.3205Z" fill="#F6D0A7"/>
<path d="M0.0449219 36.3477L70.0001 44.4246V69.9566H0.0449219V36.3477Z" fill="#E3E1D9"/>
<path d="M48.6868 39.8508C45.1419 43.3957 37.6034 47.479 35.4945 45.37C33.3855 43.2162 37.4688 35.6777 40.9688 32.1777C44.5137 28.6329 49.0906 27.5111 51.1996 29.6649C53.3086 31.7739 52.1868 36.3508 48.6868 39.8508Z" fill="#BB8451"/>
<path fill-rule="evenodd" clip-rule="evenodd" d="M37.2446 46.0859C36.4818 46.0859 35.8536 45.9064 35.4048 45.4577C34.0138 44.1115 35.1805 40.9705 35.9882 39.2205C37.1548 36.6628 39.0843 33.8359 40.8792 32.041C44.4241 28.4961 49.1356 27.3743 51.2894 29.5282C52.3664 30.6051 52.6805 32.2654 52.1869 34.2846C51.7382 36.2141 50.4818 38.2333 48.7766 39.9833C46.9818 41.7333 44.1997 43.6628 41.642 44.8743C40.4753 45.4128 38.6805 46.0859 37.2446 46.0859ZM48.283 28.7205C47.7745 28.7205 47.236 28.7953 46.6677 28.9448C44.7382 29.3936 42.7638 30.6051 41.1036 32.2654C39.3535 34.0602 37.4241 36.7974 36.2574 39.3551C34.9561 42.182 34.6869 44.3359 35.5843 45.2333C36.4818 46.1308 38.6356 45.9064 41.5074 44.5602C44.0202 43.3936 46.8023 41.509 48.5523 39.759C50.2574 38.0538 51.4241 36.0795 51.9177 34.1949C52.3664 32.3102 52.0523 30.7397 51.0651 29.7525C50.392 29.0795 49.4497 28.7205 48.283 28.7205Z" fill="black"/>
<path d="M39.6674 44.1131C40.6994 42.5874 41.0584 40.4336 40.834 38.2349C39.8917 26.5682 23.8725 28.8118 25.5776 40.7028C25.6674 42.2284 26.0712 43.3502 26.6994 44.1579C26.161 44.5618 25.8469 45.1451 25.8469 45.7284C25.8469 47.0746 27.5071 48.1964 29.5264 48.1964C31.3212 48.1964 32.802 47.3438 33.161 46.1772C33.1909 46.1772 33.2208 46.1772 33.2507 46.1772C33.6097 47.3438 35.0905 48.1964 36.8853 48.1964C38.9046 48.1964 40.5648 47.0746 40.5648 45.7284C40.5648 45.1002 40.2058 44.5618 39.6674 44.1131Z" fill="#BB8451"/>
<path fill-rule="evenodd" clip-rule="evenodd" d="M36.8855 48.3307C35.1804 48.3307 33.6996 47.5679 33.206 46.4461C32.7573 47.5679 31.2316 48.3307 29.5265 48.3307C27.4175 48.3307 25.7124 47.164 25.7124 45.7281C25.7124 45.1448 25.9816 44.5615 26.4752 44.1127C25.847 43.2602 25.4881 42.1384 25.4432 40.7025C24.9047 37.0679 26.0265 33.882 28.5393 31.9974C30.8278 30.2922 33.924 29.9333 36.4816 31.0551C39.0842 32.2217 40.6996 34.7794 40.9688 38.2345C41.2381 40.5679 40.8342 42.632 39.847 44.0679C40.3855 44.5615 40.6996 45.0999 40.6996 45.7281C40.6996 47.164 38.9945 48.3307 36.8855 48.3307ZM33.2509 46.0422C33.3406 46.0422 33.3855 46.0871 33.4304 46.132C33.7445 47.2538 35.1804 48.0166 36.8855 48.0166C38.815 48.0166 40.3855 46.9845 40.3855 45.7281C40.3855 45.1897 40.1163 44.6512 39.5778 44.2474C39.4881 44.1576 39.4881 44.0679 39.5329 44.023C40.5201 42.632 40.924 40.5679 40.6547 38.2794C40.2957 33.7922 37.7829 31.9974 36.347 31.3243C33.924 30.2474 30.9175 30.6063 28.7188 32.2666C26.3406 34.0615 25.2188 37.1576 25.7573 40.6576C25.7573 40.6576 25.7573 40.6726 25.7573 40.7025C25.8022 42.0935 26.1611 43.2153 26.8342 44.0679C26.8791 44.1127 26.8791 44.2025 26.7893 44.2922C26.2957 44.6961 26.0265 45.1897 26.0265 45.7281C26.0265 46.9845 27.597 48.0166 29.5265 48.0166C31.2316 48.0166 32.6675 47.2538 32.9816 46.132C33.0265 46.0871 33.0714 46.0422 33.1611 46.0422H33.2509Z" fill="black"/>
<path d="M32.9813 44.7404C24.2313 45.9968 25.7121 31.5929 33.3852 31.9519C41.1928 31.8173 41.7762 46.625 32.9813 44.7404Z" fill="#89542E"/>
<path d="M51.1993 35.8555H24.9942C24.2313 35.8555 23.4685 36.0798 22.9749 36.5285L14.0006 43.5285C13.9108 43.5884 13.851 43.6482 13.8211 43.708C13.5518 43.9324 13.4172 44.2465 13.4172 44.5606L13.1929 60.0862C13.1929 60.8939 14.0454 61.5221 15.0775 61.5221H41.7313C42.1352 61.5221 42.539 61.3875 42.8531 61.208C42.9429 61.1781 43.0177 61.1482 43.0775 61.1183L52.3211 53.9837C52.8147 53.5798 53.0839 53.0862 53.0839 52.5478V37.2465C53.0839 36.4837 52.2313 35.8555 51.1993 35.8555Z" fill="#AD8A6D"/>
<path fill-rule="evenodd" clip-rule="evenodd" d="M53.2633 36.6181V52.5924C53.2633 53.1309 52.9941 53.6694 52.4556 54.0732L43.1671 61.2976C42.853 61.5219 42.6287 61.7014 42.2697 61.7014C42.18 61.7014 14.4492 61.7014 14.4492 61.7014C13.4171 61.7014 13.1928 61.3873 13.103 60.8489V44.6053C13.103 44.2912 13.1479 43.9771 13.4171 43.7527C13.5069 43.663 13.5966 43.6181 13.6415 43.5283L22.93 36.3489C23.4684 35.9001 24.2312 35.6758 24.9941 35.6758H51.8723C52.5902 35.7207 53.2184 35.8553 53.2633 36.6181ZM48.5517 39.086L52.4556 36.304C52.2761 36.1694 51.9171 36.2142 51.6479 36.2142C51.603 36.2142 24.3658 36.2142 24.3658 36.2142C24.0966 36.2142 23.8723 36.304 23.6928 36.4386L20.2376 39.2207L48.5517 39.086ZM47.1607 40.5219L18.712 40.6117L14.0902 44.0219L42.0453 43.9322C42.2248 43.9322 42.4492 43.9771 42.7184 43.9322L47.1607 40.5219ZM42.6735 44.5604H13.821V60.9386H42.6287L42.6735 44.5604ZM52.8594 52.7271L52.7248 36.663L43.4364 44.0668C43.3017 44.1565 43.1671 44.2463 43.1223 44.6053L43.1671 60.6694L52.6351 53.2206C52.7697 53.086 52.8594 52.9066 52.8594 52.7271Z" fill="#3B2504"/>
<path d="M23.9617 41.5095C19.654 39.939 24.0963 31.0992 27.7758 32.2659C29.3014 32.8941 30.0642 34.689 29.436 36.2146C28.4937 38.4582 27.327 42.9454 23.9617 41.5095Z" fill="#BB8451"/>
<path fill-rule="evenodd" clip-rule="evenodd" d="M25.2181 41.9153C24.7993 41.9153 24.3656 41.8255 23.9168 41.646C22.9745 41.2871 22.3463 40.614 22.122 39.5819C21.9425 38.7294 22.0322 37.6973 22.3912 36.5755C23.3335 33.8832 25.7117 31.4601 27.8207 32.1332C29.4809 32.8063 30.2438 34.646 29.5707 36.3063C29.451 36.5456 29.3463 36.8298 29.2566 37.1588C28.6284 38.8191 27.7309 41.0627 26.1604 41.7358C25.8613 41.8554 25.5472 41.9153 25.2181 41.9153ZM27.1476 32.3127C25.622 32.3127 23.6476 33.8832 22.7053 36.6653C22.0771 38.4601 22.122 40.6588 24.0066 41.3319C24.7694 41.6909 25.4425 41.6909 26.0707 41.4665C27.5066 40.8383 28.3591 38.6396 28.9425 37.0242C29.0621 36.7251 29.1818 36.4409 29.3015 36.1717C29.8848 34.6909 29.1668 33.0306 27.7309 32.4024C27.5515 32.3426 27.357 32.3127 27.1476 32.3127Z" fill="black"/>
<path d="M42.4489 41.5095C46.8015 39.939 42.3143 31.0992 38.6348 32.2659C37.1091 32.8941 36.3463 34.689 36.9745 36.2146C37.9168 38.4582 39.0835 42.9454 42.4489 41.5095Z" fill="#BB8451"/>
<path fill-rule="evenodd" clip-rule="evenodd" d="M41.1923 41.9153C40.8633 41.9153 40.5492 41.8554 40.25 41.7358C38.6795 41.0627 37.8269 38.8191 37.1539 37.1588C37.0641 36.8298 36.9594 36.5456 36.8398 36.3063C36.1667 34.646 36.9295 32.8063 38.5898 32.1332C40.6987 31.4601 43.0769 33.8832 44.0193 36.5755C44.3782 37.6973 44.468 38.7294 44.2885 39.5819C44.0641 40.614 43.4359 41.2871 42.4936 41.646C42.0449 41.8255 41.6111 41.9153 41.1923 41.9153ZM38.6795 32.4024C37.2436 33.0306 36.5257 34.6909 37.1539 36.1717C37.2436 36.4409 37.3483 36.7251 37.468 37.0242C38.0962 38.6396 38.9039 40.8383 40.3846 41.4665C40.968 41.6909 41.641 41.6909 42.4039 41.3319C44.2885 40.6588 44.3334 38.4601 43.7052 36.6653C42.6282 33.5242 40.25 31.9088 38.6795 32.4024Z" fill="black"/>
<path d="M23.7375 18.3568C23.7375 19.6581 22.5708 20.6901 21.1798 20.6901C19.7888 20.6901 18.667 19.6581 18.667 18.3568C18.667 17.0555 19.7888 16.0234 21.1798 16.0234C22.5708 16.0234 23.7375 17.0555 23.7375 18.3568Z" fill="#BB8451"/>
<path fill-rule="evenodd" clip-rule="evenodd" d="M21.1796 20.8694C19.6988 20.8694 18.4873 19.7476 18.4873 18.3566C18.4873 16.9655 19.6988 15.8438 21.1796 15.8438C22.6604 15.8438 23.8719 16.9655 23.8719 18.3566C23.8719 19.7476 22.6604 20.8694 21.1796 20.8694ZM21.1796 16.1578C19.8783 16.1578 18.8014 17.145 18.8014 18.3566C18.8014 19.5681 19.8783 20.5553 21.1796 20.5553C22.4809 20.5553 23.5578 19.5681 23.5578 18.3566C23.5578 17.145 22.4809 16.1578 21.1796 16.1578Z" fill="black"/>
<path d="M21.1798 19.7917C20.2824 19.7917 19.5645 19.1635 19.5645 18.3558C19.5645 17.5481 20.2824 16.875 21.1798 16.875C22.1221 16.875 22.8401 17.5481 22.8401 18.3558C22.8401 19.1635 22.1221 19.7917 21.1798 19.7917Z" fill="#89542E"/>
<path d="M42.6733 18.3568C42.6733 19.6581 43.84 20.6901 45.231 20.6901C46.6221 20.6901 47.7439 19.6581 47.7439 18.3568C47.7439 17.0555 46.6221 16.0234 45.231 16.0234C43.84 16.0234 42.6733 17.0555 42.6733 18.3568Z" fill="#BB8451"/>
<path fill-rule="evenodd" clip-rule="evenodd" d="M45.2309 20.8694C43.7501 20.8694 42.5386 19.7476 42.5386 18.3566C42.5386 16.9655 43.7501 15.8438 45.2309 15.8438C46.7117 15.8438 47.9232 16.9655 47.9232 18.3566C47.9232 19.7476 46.7117 20.8694 45.2309 20.8694ZM45.2309 16.1578C43.9296 16.1578 42.8527 17.145 42.8527 18.3566C42.8527 19.5681 43.9296 20.5553 45.2309 20.5553C46.5322 20.5553 47.6091 19.5681 47.6091 18.3566C47.6091 17.145 46.5322 16.1578 45.2309 16.1578Z" fill="black"/>
<path d="M45.2306 19.7917C46.128 19.7917 46.846 19.1635 46.846 18.3558C46.846 17.5481 46.128 16.875 45.2306 16.875C44.3331 16.875 43.5703 17.5481 43.5703 18.3558C43.5703 19.1635 44.3331 19.7917 45.2306 19.7917Z" fill="#89542E"/>
<path d="M46.3081 21.3618C51.5132 39.7592 14.8978 39.7592 20.1029 21.3618C19.6991 7.90024 46.7119 7.90024 46.3081 21.3618Z" fill="#BB8451"/>
<path fill-rule="evenodd" clip-rule="evenodd" d="M33.2055 35.3182C29.526 35.3182 26.026 34.2862 23.5581 32.5362C19.9235 29.9785 18.6222 25.9849 19.9684 21.3182C19.8337 17.0105 22.4363 14.5426 24.635 13.2413C29.4363 10.4144 36.9748 10.4144 41.776 13.2413C43.9748 14.5426 46.5773 17.0105 46.4427 21.3182C47.7889 25.9849 46.4876 29.9785 42.853 32.5362C40.385 34.2862 36.8401 35.3182 33.2055 35.3182ZM33.2055 11.4016C30.1991 11.4016 27.1478 12.1195 24.8145 13.5105C22.6607 14.7669 20.1478 17.1451 20.2825 21.3182C20.2825 21.3481 20.2675 21.378 20.2376 21.408C19.5645 23.7862 19.5645 25.9849 20.2825 27.8695C20.9107 29.6195 22.0773 31.1003 23.7376 32.2669C26.1607 34.0169 29.6158 35.0041 33.2055 35.0041C36.7953 35.0041 40.2504 34.0169 42.6735 32.2669C44.3337 31.1003 45.5004 29.6195 46.1286 27.8695C46.8466 25.9849 46.8466 23.7862 46.1735 21.408C46.1436 21.378 46.1286 21.3481 46.1286 21.3182C46.2632 17.1451 43.7504 14.7669 41.5966 13.5105C39.2632 12.1195 36.2119 11.4016 33.2055 11.4016Z" fill="black"/>
<path d="M30.2438 20.3754C30.2438 21.1831 29.7951 21.8113 29.2118 21.8113C28.6733 21.8113 28.2246 21.1831 28.2246 20.3754C28.2246 19.6126 28.6733 18.9844 29.2118 18.9844C29.7951 18.9844 30.2438 19.6126 30.2438 20.3754Z" fill="black"/>
<path d="M38.1862 20.3754C38.1862 21.1831 37.7375 21.8113 37.199 21.8113C36.6157 21.8113 36.167 21.1831 36.167 20.3754C36.167 19.6126 36.6157 18.9844 37.199 18.9844C37.7375 18.9844 38.1862 19.6126 38.1862 20.3754Z" fill="black"/>
<path d="M36.3913 23.2452C36.3913 24.008 35.1798 26.4311 33.2054 26.4311C31.2311 26.4311 30.0195 24.008 30.0195 23.2452C30.0195 22.4375 31.2311 20.6875 33.2054 20.6875C35.1798 20.6875 36.3913 22.4375 36.3913 23.2452Z" fill="black"/>
<path d="M36.1672 28.1804C36.1672 30.0202 34.8211 31.5458 33.2057 31.5458C31.5903 31.5458 30.2441 30.0202 30.2441 28.1804C30.2441 26.2958 31.5903 27.3727 33.2057 27.3727C34.8211 27.3727 36.1672 26.2958 36.1672 28.1804Z" fill="#F1A2A0"/>
<path fill-rule="evenodd" clip-rule="evenodd" d="M33.2055 31.6809C31.5004 31.6809 30.1094 30.1104 30.1094 28.1809C30.1094 27.5976 30.1991 27.2835 30.4235 27.104C30.7825 26.8348 31.276 26.9245 31.8594 27.0592C32.2632 27.1489 32.7119 27.2386 33.2055 27.2386C33.6991 27.2386 34.1478 27.1489 34.5517 27.0592C35.135 26.9245 35.6286 26.8348 35.9876 27.104C36.2119 27.2835 36.3466 27.5976 36.3466 28.1809C36.3466 30.1104 34.9107 31.6809 33.2055 31.6809ZM31.0068 27.2386C30.8572 27.2386 30.7376 27.2686 30.6478 27.3284C30.4684 27.448 30.3936 27.7322 30.4235 28.1809C30.4235 29.9309 31.6799 31.3668 33.2055 31.3668C34.776 31.3668 36.0325 29.9309 36.0325 28.1809C36.0325 27.7322 35.9427 27.448 35.7632 27.3284C35.5837 27.1489 35.135 27.2386 34.5966 27.3732C34.1927 27.463 33.6991 27.5527 33.2055 27.5527C32.7119 27.5527 32.2184 27.463 31.8145 27.3732C31.5004 27.2835 31.1863 27.2386 31.0068 27.2386Z" fill="black"/>
<mask id="mask0_2299_65168" style="mask-type:luminance" maskUnits="userSpaceOnUse" x="30" y="27" width="7" height="5">
<path d="M36.1672 28.3C36.1672 30.1622 34.8435 31.6743 33.2057 31.6743C31.5723 31.6743 30.2441 30.1622 30.2441 28.3C30.2441 26.4378 31.5723 27.5282 33.2057 27.5282C34.8435 27.5282 36.1672 26.4378 36.1672 28.3Z" fill="white"/>
</mask>
<g mask="url(#mask0_2299_65168)">
<path d="M37.1098 31.6874C37.1098 32.7195 35.4495 33.5271 33.3405 33.5271C31.2764 33.5271 29.5713 32.7195 29.5713 31.6874C29.5713 30.6554 31.2764 29.8477 33.3405 29.8477C35.4495 29.8477 37.1098 30.6554 37.1098 31.6874Z" fill="#ED817F"/>
<path fill-rule="evenodd" clip-rule="evenodd" d="M33.3408 33.6616C31.1421 33.6616 29.3921 32.809 29.3921 31.6872C29.3921 30.5654 31.1421 29.668 33.3408 29.668C35.5395 29.668 37.2895 30.5654 37.2895 31.6872C37.2895 32.809 35.5395 33.6616 33.3408 33.6616ZM33.3408 29.9821C31.3665 29.9821 29.7062 30.7449 29.7062 31.6872C29.7062 32.5846 31.3665 33.3923 33.3408 33.3923C35.3152 33.3923 36.9754 32.5846 36.9754 31.6872C36.9754 30.7449 35.3152 29.9821 33.3408 29.9821Z" fill="black"/>
<path d="M34.3729 27.2421C34.1036 27.1523 33.7447 27.1523 33.4306 27.1523C32.8921 27.1972 32.4434 27.0626 31.9947 27.287C31.7703 27.4216 31.8152 27.8254 31.8152 28.0947C31.9049 28.4985 32.0395 29.0818 32.5331 29.037C32.7575 29.037 32.937 28.9024 33.1165 28.8575C33.4306 28.8126 33.6998 29.1267 34.1036 28.9921C34.4626 28.8575 34.5075 28.4088 34.5972 28.0498C34.5972 27.7805 34.687 27.4216 34.4178 27.2421H34.3729Z" fill="white"/>
<path fill-rule="evenodd" clip-rule="evenodd" d="M33.9241 29.2158C33.7446 29.2158 33.61 29.1261 33.4754 29.0812C33.3408 29.0364 33.251 28.9915 33.1164 29.0363C33.0865 29.0363 33.0416 29.0513 32.9818 29.0812C32.8472 29.1261 32.7126 29.171 32.5331 29.171C32.0545 29.2009 31.7703 28.8419 31.6805 28.094C31.6357 27.8697 31.5459 27.3312 31.9049 27.1517C32.2639 26.9722 32.6228 26.9722 32.9818 27.0171C33.1314 27.0171 33.266 27.0171 33.3857 27.0171C33.4455 27.0171 33.5053 27.0171 33.5651 27.0171C33.8344 27.0171 34.1934 27.0171 34.4626 27.1069C34.8216 27.2864 34.7767 27.7351 34.7318 28.0043V28.1389C34.6869 28.4979 34.5972 28.9915 34.1485 29.171C34.0587 29.2009 33.9839 29.2158 33.9241 29.2158ZM33.2062 28.7222C33.3408 28.7222 33.4754 28.7671 33.61 28.812C33.7446 28.8569 33.8792 28.9017 34.0139 28.8569C34.328 28.7671 34.3728 28.4081 34.4177 28.094V27.9594C34.4626 27.6902 34.4626 27.4658 34.328 27.421V27.3761C34.1036 27.3312 33.8344 27.3312 33.5651 27.3312C33.5053 27.3312 33.4455 27.3312 33.3857 27.3312C33.266 27.3312 33.1314 27.3312 32.9818 27.3312C32.6228 27.2864 32.3087 27.2863 32.0395 27.421C31.9946 27.4658 31.9049 27.6004 31.9946 28.0492C32.0844 28.812 32.3536 28.9017 32.5331 28.8569C32.6228 28.8569 32.7575 28.812 32.8472 28.812C32.9369 28.7821 33.0117 28.7522 33.0716 28.7222C33.1015 28.7222 33.1463 28.7222 33.2062 28.7222Z" fill="black"/>
<path d="M33.2059 29.0349C33.1162 29.0349 33.0713 28.9451 33.0713 28.8554V27.1502C33.0713 27.0605 33.1162 27.0156 33.2059 27.0156C33.2956 27.0156 33.3854 27.0605 33.3854 27.1502V28.8554C33.3854 28.9451 33.2956 29.0349 33.2059 29.0349Z" fill="black"/>
</g>
<path fill-rule="evenodd" clip-rule="evenodd" d="M33.2055 31.6809C31.5004 31.6809 30.1094 30.1104 30.1094 28.1809C30.1094 27.5976 30.1991 27.2835 30.4235 27.104C30.7825 26.8348 31.276 26.9245 31.8594 27.0592C32.2632 27.1489 32.7119 27.2386 33.2055 27.2386C33.6991 27.2386 34.1478 27.1489 34.5517 27.0592C35.135 26.9245 35.6286 26.8348 35.9876 27.104C36.2119 27.2835 36.3466 27.5976 36.3466 28.1809C36.3466 30.1104 34.9107 31.6809 33.2055 31.6809ZM31.0068 27.2386C30.8572 27.2386 30.7376 27.2686 30.6478 27.3284C30.4684 27.448 30.3936 27.7322 30.4235 28.1809C30.4235 29.9309 31.6799 31.3668 33.2055 31.3668C34.776 31.3668 36.0325 29.9309 36.0325 28.1809C36.0325 27.7322 35.9427 27.448 35.7632 27.3284C35.5837 27.1489 35.135 27.2386 34.5966 27.3732C34.1927 27.463 33.6991 27.5527 33.2055 27.5527C32.7119 27.5527 32.2184 27.463 31.8145 27.3732C31.5004 27.2835 31.1863 27.2386 31.0068 27.2386Z" fill="black"/>
<path fill-rule="evenodd" clip-rule="evenodd" d="M30.3337 14.7672C30.5581 15.5749 31.5901 16.3826 32.8017 16.0236C30.603 14.7223 34.0132 12.3441 34.3273 14.9018C34.3273 15.3954 33.9683 15.7992 33.6094 16.0236C34.8209 16.3826 35.853 15.5749 36.1222 14.7672C36.9299 17.0108 29.4812 17.0108 30.3337 14.7672ZM34.0132 14.9915C34.0581 13.8249 32.5325 13.6454 32.3978 14.8569C32.353 15.9787 33.8786 16.1582 34.0132 14.9915Z" fill="#89542E"/>
<path d="M30.1547 10.9082C29.347 11.5364 26.9239 11.8953 27.0137 10.6838C27.0137 10.6838 27.0137 10.6689 27.0137 10.6389C26.9239 9.4274 29.347 9.78637 30.1547 10.4146C30.3342 10.5492 30.3342 10.7736 30.1547 10.9082Z" fill="#AABD66"/>
<path fill-rule="evenodd" clip-rule="evenodd" d="M28.1803 11.6248C27.8213 11.6248 27.5072 11.5799 27.2829 11.4453C27.0136 11.2658 26.8341 10.9966 26.879 10.6825C26.879 10.6825 26.879 10.6675 26.879 10.6376C26.8341 10.3235 26.9688 10.0542 27.2829 9.87475C28.0457 9.47091 29.5713 9.78501 30.2444 10.3235C30.394 10.4132 30.4688 10.5329 30.4688 10.6825C30.4688 10.8021 30.394 10.9068 30.2444 10.9965C29.7957 11.3555 28.8983 11.6248 28.1803 11.6248ZM28.1803 9.9645C27.9111 9.9645 27.6418 10.0094 27.4175 10.144C27.238 10.2337 27.1482 10.3983 27.1482 10.6376C27.1482 10.6675 27.1482 10.6825 27.1482 10.6825C27.1482 10.9218 27.238 11.0863 27.4175 11.176C28.0457 11.535 29.4816 11.2658 30.1098 10.7722C30.1397 10.7423 30.1547 10.7124 30.1547 10.6825C30.1547 10.6226 30.1397 10.5777 30.1098 10.5478C29.6611 10.2337 28.8534 9.9645 28.1803 9.9645Z" fill="black"/>
<path d="M29.975 10.9523C28.8981 10.7728 26.9686 9.3369 27.8661 8.5292C27.896 8.5292 27.9109 8.5292 27.9109 8.5292C28.7186 7.5869 30.1545 9.56126 30.2891 10.5933C30.334 10.8177 30.1994 10.9523 29.975 10.9523Z" fill="#C9E67B"/>
<path fill-rule="evenodd" clip-rule="evenodd" d="M30.0197 11.0878C29.9898 11.0878 29.9748 11.0878 29.9748 11.0878C29.1223 10.9532 27.7761 10.1006 27.5518 9.2929C27.462 8.93393 27.5069 8.6647 27.7761 8.44034C27.7761 8.44034 27.7911 8.42538 27.821 8.39547C28.0454 8.17111 28.3146 8.08137 28.6736 8.17111C29.4364 8.39547 30.3338 9.74162 30.4684 10.5942C30.4684 10.7438 30.4236 10.8634 30.3338 10.9532C30.2441 11.0429 30.1394 11.0878 30.0197 11.0878ZM28.4043 8.39547C28.2548 8.39547 28.1201 8.47025 28.0005 8.61983C28.0005 8.61983 28.0005 8.63479 28.0005 8.6647C27.821 8.81427 27.7612 8.99375 27.821 9.20315C28.0454 9.87623 29.2569 10.6839 29.9748 10.7737C30.0347 10.8036 30.0945 10.8036 30.1543 10.7737C30.1543 10.7438 30.1543 10.6839 30.1543 10.5942C30.0646 9.87623 29.2569 8.6647 28.5838 8.44034C28.524 8.41043 28.4642 8.39547 28.4043 8.39547Z" fill="black"/>
<path d="M29.9755 10.3711C28.8986 10.5506 26.9691 11.9865 27.8666 12.7942C27.8965 12.7942 27.9114 12.7942 27.9114 12.7942C28.7191 13.7365 30.155 11.7621 30.2896 10.7301C30.3345 10.5057 30.1999 10.3711 29.9755 10.3711Z" fill="#C9E67B"/>
<path fill-rule="evenodd" clip-rule="evenodd" d="M28.4048 13.1959C28.1655 13.1959 27.9711 13.1062 27.8215 12.9267C27.7916 12.8968 27.7766 12.8818 27.7766 12.8818C27.5074 12.6574 27.4625 12.3882 27.5523 12.0292C27.7766 11.2216 29.1228 10.369 29.9753 10.2344C30.1249 10.2344 30.2446 10.2792 30.3343 10.369C30.4241 10.4587 30.4689 10.5784 30.4689 10.728C30.3343 11.5805 29.4369 12.9267 28.6741 13.151C28.5843 13.181 28.4946 13.1959 28.4048 13.1959ZM30.0202 10.5485C30.0202 10.5485 30.0052 10.5485 29.9753 10.5485C29.2574 10.6382 28.0458 11.4459 27.8215 12.119C27.7617 12.3284 27.8215 12.5079 28.001 12.6574C28.001 12.6874 28.001 12.7023 28.001 12.7023C28.1505 12.8818 28.345 12.9416 28.5843 12.8818C29.2574 12.6574 30.0651 11.4459 30.1548 10.728C30.1548 10.6382 30.1548 10.5784 30.1548 10.5485C30.1249 10.5485 30.08 10.5485 30.0202 10.5485Z" fill="black"/>
<path d="M37.3335 11.4505C35.2245 13.5595 29.2117 14.6813 29.3911 10.7326C29.3911 10.7027 29.3911 10.6578 29.3911 10.598C29.2117 6.64924 35.2245 7.77103 37.3335 9.88001C37.7822 10.3287 37.7822 11.0018 37.3335 11.4505Z" fill="#ED8351"/>
<path fill-rule="evenodd" clip-rule="evenodd" d="M32.3526 13.5137C31.6796 13.5137 31.0962 13.4239 30.6475 13.1996C29.6603 12.7509 29.1667 11.8983 29.2565 10.7316C29.2565 10.7017 29.2565 10.6568 29.2565 10.597C29.1667 9.43034 29.6603 8.57777 30.6475 8.12906C31.545 7.72521 32.8462 7.72521 34.2373 8.08418C35.5385 8.39828 36.7501 9.0265 37.468 9.78932C37.9616 10.2829 37.9616 11.0457 37.468 11.5393C36.7501 12.3021 35.5385 12.9303 34.2373 13.2444C33.5642 13.4239 32.936 13.5137 32.3526 13.5137ZM32.3526 8.12906C31.7693 8.12906 31.2308 8.2188 30.7821 8.39829C29.9146 8.78718 29.5108 9.52008 29.5706 10.597C29.5706 10.6568 29.5706 10.7017 29.5706 10.7316C29.5108 11.8086 29.9146 12.5415 30.7821 12.9303C32.577 13.738 35.8526 12.706 37.2437 11.315C37.6475 10.956 37.6475 10.3727 37.2437 10.0137C36.2116 8.93675 34.1026 8.12906 32.3526 8.12906Z" fill="black"/>
<path d="M25.1285 29.8429C22.9746 29.8429 21.2246 28.093 21.2246 25.984C21.2246 23.8301 22.9746 22.125 25.1285 22.125C27.2374 22.125 28.9874 23.8301 28.9874 25.984C28.9874 28.093 27.2374 29.8429 25.1285 29.8429Z" fill="#F09D9B"/>
<path d="M41.2823 29.8429C39.1733 29.8429 37.4233 28.093 37.4233 25.984C37.4233 23.8301 39.1733 22.125 41.2823 22.125C43.4362 22.125 45.1862 23.8301 45.1862 25.984C45.1862 28.093 43.4362 29.8429 41.2823 29.8429Z" fill="#F09D9B"/>
<path d="M16.8718 58.6979H23.7372C24.0962 58.6979 24.4103 58.4287 24.4103 58.1146C24.4103 57.7556 24.0962 57.5312 23.7372 57.5312H16.8718C16.5128 57.5312 16.1987 57.7556 16.1987 58.1146C16.1987 58.4287 16.5128 58.6979 16.8718 58.6979Z" fill="#3B2504"/>
<path d="M16.8718 56.6315H20.2372C20.5962 56.6315 20.8654 56.4072 20.8654 56.0482C20.8654 55.7341 20.5962 55.4648 20.2372 55.4648H16.8718C16.5128 55.4648 16.1987 55.7341 16.1987 56.0482C16.1987 56.4072 16.5128 56.6315 16.8718 56.6315Z" fill="#3B2504"/>
</g>
<rect x="0.224359" y="0.224359" width="69.5513" height="69.5513" stroke="#919298" stroke-width="0.448718"/>
<defs>
<clipPath id="clip0_2299_65168">
<rect width="70" height="70" fill="white"/>
</clipPath>
</defs>
</svg>
