<svg width="70" height="70" viewBox="0 0 70 70" fill="none" xmlns="http://www.w3.org/2000/svg">
<g id="Thumbnail/img/box">
<g clip-path="url(#clip0_2299_38142)">
<g id="Group 1000001183">
<path id="&#60;Path&#62;" d="M69.9551 45.3205L0 37.2436V0H69.9551V45.3205Z" fill="#F6D0A7"/>
<path id="&#60;Path&#62;_2" d="M0.0449219 36.3477L70.0001 44.4246V69.9566H0.0449219V36.3477Z" fill="#E3E1D9"/>
<g id="&#60;Group&#62;">
<g id="&#60;Group&#62;_2">
<g id="&#60;Group&#62;_3">
<path id="&#60;Path&#62;_3" d="M48.6858 39.8508C45.1409 43.3957 37.6025 47.479 35.4935 45.37C33.3845 43.2162 37.4679 35.6777 40.9679 32.1777C44.5127 28.6329 49.0896 27.5111 51.1986 29.6649C53.3076 31.7739 52.1858 36.3508 48.6858 39.8508Z" fill="#BB8451"/>
<path id="&#60;Compound Path&#62;" fill-rule="evenodd" clip-rule="evenodd" d="M37.2436 46.0859C36.4808 46.0859 35.8526 45.9064 35.4039 45.4577C34.0128 44.1115 35.1795 40.9705 35.9872 39.2205C37.1539 36.6628 39.0833 33.8359 40.8782 32.041C44.4231 28.4961 49.1346 27.3743 51.2885 29.5282C52.3654 30.6051 52.6795 32.2654 52.1859 34.2846C51.7372 36.2141 50.4808 38.2333 48.7757 39.9833C46.9808 41.7333 44.1987 43.6628 41.641 44.8743C40.4744 45.4128 38.6795 46.0859 37.2436 46.0859ZM48.2821 28.7205C47.7735 28.7205 47.2351 28.7953 46.6667 28.9448C44.7372 29.3936 42.7628 30.6051 41.1026 32.2654C39.3526 34.0602 37.4231 36.7974 36.2564 39.3551C34.9551 42.182 34.6859 44.3359 35.5833 45.2333C36.4808 46.1308 38.6346 45.9064 41.5064 44.5602C44.0192 43.3936 46.8013 41.509 48.5513 39.759C50.2564 38.0538 51.4231 36.0795 51.9167 34.1949C52.3654 32.3102 52.0513 30.7397 51.0641 29.7525C50.391 29.0795 49.4487 28.7205 48.2821 28.7205Z" fill="black"/>
</g>
<g id="&#60;Group&#62;_4">
<path id="&#60;Path&#62;_4" d="M39.6669 44.1131C40.6989 42.5874 41.0579 40.4336 40.8336 38.2349C39.8912 26.5682 23.872 28.8118 25.5771 40.7028C25.6669 42.2284 26.0707 43.3502 26.6989 44.1579C26.1605 44.5618 25.8464 45.1451 25.8464 45.7284C25.8464 47.0746 27.5066 48.1964 29.5259 48.1964C31.3207 48.1964 32.8015 47.3438 33.1605 46.1772C33.1904 46.1772 33.2203 46.1772 33.2502 46.1772C33.6092 47.3438 35.09 48.1964 36.8848 48.1964C38.9041 48.1964 40.5643 47.0746 40.5643 45.7284C40.5643 45.1002 40.2053 44.5618 39.6669 44.1131Z" fill="#BB8451"/>
<path id="&#60;Compound Path&#62;_2" fill-rule="evenodd" clip-rule="evenodd" d="M36.8848 48.3307C35.1796 48.3307 33.6989 47.5679 33.2053 46.4461C32.7566 47.5679 31.2309 48.3307 29.5258 48.3307C27.4168 48.3307 25.7117 47.164 25.7117 45.7281C25.7117 45.1448 25.9809 44.5615 26.4745 44.1127C25.8463 43.2602 25.4873 42.1384 25.4425 40.7025C24.904 37.0679 26.0258 33.882 28.5386 31.9974C30.8271 30.2922 33.9232 29.9333 36.4809 31.0551C39.0835 32.2217 40.6989 34.7794 40.9681 38.2345C41.2373 40.5679 40.8335 42.632 39.8463 44.0679C40.3848 44.5615 40.6989 45.0999 40.6989 45.7281C40.6989 47.164 38.9937 48.3307 36.8848 48.3307ZM33.2501 46.0422C33.3399 46.0422 33.3848 46.0871 33.4296 46.132C33.7437 47.2538 35.1796 48.0166 36.8848 48.0166C38.8142 48.0166 40.3848 46.9845 40.3848 45.7281C40.3848 45.1897 40.1155 44.6512 39.5771 44.2474C39.4873 44.1576 39.4873 44.0679 39.5322 44.023C40.5194 42.632 40.9232 40.5679 40.654 38.2794C40.295 33.7922 37.7822 31.9974 36.3463 31.3243C33.9232 30.2474 30.9168 30.6063 28.7181 32.2666C26.3399 34.0615 25.2181 37.1576 25.7566 40.6576C25.7566 40.6576 25.7566 40.6726 25.7566 40.7025C25.8014 42.0935 26.1604 43.2153 26.8335 44.0679C26.8783 44.1127 26.8783 44.2025 26.7886 44.2922C26.295 44.6961 26.0258 45.1897 26.0258 45.7281C26.0258 46.9845 27.5963 48.0166 29.5258 48.0166C31.2309 48.0166 32.6668 47.2538 32.9809 46.132C33.0258 46.0871 33.0707 46.0422 33.1604 46.0422H33.2501Z" fill="black"/>
</g>
<path id="&#60;Path&#62;_5" d="M32.9808 44.7404C24.2308 45.9968 25.7116 31.5929 33.3847 31.9519C41.1924 31.8173 41.7757 46.625 32.9808 44.7404Z" fill="#89542E"/>
</g>
<g id="&#60;Group&#62;_5">
<path id="&#60;Path&#62;_6" d="M51.199 35.8555H24.9939C24.2311 35.8555 23.4683 36.0798 22.9747 36.5285L14.0003 43.5285C13.9106 43.5884 13.8507 43.6482 13.8208 43.708C13.5516 43.9324 13.417 44.2465 13.417 44.5606L13.1926 60.0862C13.1926 60.8939 14.0452 61.5221 15.0772 61.5221H41.7311C42.1349 61.5221 42.5388 61.3875 42.8529 61.208C42.9426 61.1781 43.0174 61.1482 43.0772 61.1183L52.3208 53.9837C52.8144 53.5798 53.0836 53.0862 53.0836 52.5478V37.2465C53.0836 36.4837 52.2311 35.8555 51.199 35.8555Z" fill="#AD8A6D"/>
<g id="&#60;Group&#62;_6">
<path id="&#60;Compound Path&#62;_3" fill-rule="evenodd" clip-rule="evenodd" d="M53.2633 36.6181V52.5924C53.2633 53.1309 52.9941 53.6694 52.4556 54.0732L43.1671 61.2976C42.853 61.5219 42.6287 61.7014 42.2697 61.7014C42.18 61.7014 14.4492 61.7014 14.4492 61.7014C13.4171 61.7014 13.1928 61.3873 13.103 60.8489V44.6053C13.103 44.2912 13.1479 43.9771 13.4171 43.7527C13.5069 43.663 13.5966 43.6181 13.6415 43.5283L22.93 36.3489C23.4684 35.9001 24.2312 35.6758 24.9941 35.6758H51.8723C52.5902 35.7207 53.2184 35.8553 53.2633 36.6181ZM48.5517 39.086L52.4556 36.304C52.2761 36.1694 51.9171 36.2142 51.6479 36.2142C51.603 36.2142 24.3658 36.2142 24.3658 36.2142C24.0966 36.2142 23.8723 36.304 23.6928 36.4386L20.2376 39.2207L48.5517 39.086ZM47.1607 40.5219L18.712 40.6117L14.0902 44.0219L42.0453 43.9322C42.2248 43.9322 42.4492 43.9771 42.7184 43.9322L47.1607 40.5219ZM42.6735 44.5604H13.821V60.9386H42.6287L42.6735 44.5604ZM52.8594 52.7271L52.7248 36.663L43.4364 44.0668C43.3017 44.1565 43.1671 44.2463 43.1223 44.6053L43.1671 60.6694L52.6351 53.2206C52.7697 53.086 52.8594 52.9066 52.8594 52.7271Z" fill="#3B2504"/>
</g>
</g>
<g id="&#60;Group&#62;_7">
<path id="&#60;Path&#62;_7" d="M23.9619 41.5095C19.6542 39.939 24.0965 31.0992 27.776 32.2659C29.3017 32.8941 30.0645 34.689 29.4363 36.2146C28.494 38.4582 27.3273 42.9454 23.9619 41.5095Z" fill="#BB8451"/>
<path id="&#60;Compound Path&#62;_4" fill-rule="evenodd" clip-rule="evenodd" d="M25.2184 41.9153C24.7996 41.9153 24.3658 41.8255 23.9171 41.646C22.9748 41.2871 22.3466 40.614 22.1222 39.5819C21.9427 38.7294 22.0325 37.6973 22.3914 36.5755C23.3338 33.8832 25.712 31.4601 27.8209 32.1332C29.4812 32.8063 30.244 34.646 29.5709 36.3063C29.4513 36.5456 29.3466 36.8298 29.2568 37.1588C28.6286 38.8191 27.7312 41.0627 26.1607 41.7358C25.8615 41.8554 25.5474 41.9153 25.2184 41.9153ZM27.1479 32.3127C25.6222 32.3127 23.6479 33.8832 22.7055 36.6653C22.0773 38.4601 22.1222 40.6588 24.0068 41.3319C24.7696 41.6909 25.4427 41.6909 26.0709 41.4665C27.5068 40.8383 28.3594 38.6396 28.9427 37.0242C29.0624 36.7251 29.182 36.4409 29.3017 36.1717C29.885 34.6909 29.1671 33.0306 27.7312 32.4024C27.5517 32.3426 27.3573 32.3127 27.1479 32.3127Z" fill="black"/>
</g>
<g id="&#60;Group&#62;_8">
<path id="&#60;Path&#62;_8" d="M42.4494 41.5095C46.8019 39.939 42.3148 31.0992 38.6353 32.2659C37.1096 32.8941 36.3468 34.689 36.975 36.2146C37.9173 38.4582 39.084 42.9454 42.4494 41.5095Z" fill="#BB8451"/>
<path id="&#60;Compound Path&#62;_5" fill-rule="evenodd" clip-rule="evenodd" d="M41.1928 41.9153C40.8638 41.9153 40.5497 41.8554 40.2505 41.7358C38.68 41.0627 37.8274 38.8191 37.1544 37.1588C37.0646 36.8298 36.9599 36.5456 36.8403 36.3063C36.1672 34.646 36.93 32.8063 38.5903 32.1332C40.6992 31.4601 43.0774 33.8832 44.0197 36.5755C44.3787 37.6973 44.4685 38.7294 44.289 39.5819C44.0646 40.614 43.4364 41.2871 42.4941 41.646C42.0454 41.8255 41.6116 41.9153 41.1928 41.9153ZM38.68 32.4024C37.2441 33.0306 36.5262 34.6909 37.1544 36.1717C37.2441 36.4409 37.3488 36.7251 37.4685 37.0242C38.0967 38.6396 38.9044 40.8383 40.3851 41.4665C40.9685 41.6909 41.6415 41.6909 42.4044 41.3319C44.289 40.6588 44.3338 38.4601 43.7056 36.6653C42.6287 33.5242 40.2505 31.9088 38.68 32.4024Z" fill="black"/>
</g>
<g id="&#60;Group&#62;_9">
<g id="&#60;Group&#62;_10">
<path id="&#60;Path&#62;_9" d="M23.7373 18.3568C23.7373 19.6581 22.5706 20.6901 21.1796 20.6901C19.7885 20.6901 18.6667 19.6581 18.6667 18.3568C18.6667 17.0555 19.7885 16.0234 21.1796 16.0234C22.5706 16.0234 23.7373 17.0555 23.7373 18.3568Z" fill="#BB8451"/>
<path id="&#60;Compound Path&#62;_6" fill-rule="evenodd" clip-rule="evenodd" d="M21.1796 20.8694C19.6988 20.8694 18.4873 19.7476 18.4873 18.3566C18.4873 16.9655 19.6988 15.8438 21.1796 15.8438C22.6604 15.8438 23.8719 16.9655 23.8719 18.3566C23.8719 19.7476 22.6604 20.8694 21.1796 20.8694ZM21.1796 16.1578C19.8783 16.1578 18.8014 17.145 18.8014 18.3566C18.8014 19.5681 19.8783 20.5553 21.1796 20.5553C22.4809 20.5553 23.5578 19.5681 23.5578 18.3566C23.5578 17.145 22.4809 16.1578 21.1796 16.1578Z" fill="black"/>
</g>
<path id="&#60;Path&#62;_10" d="M21.1796 19.7917C20.2822 19.7917 19.5642 19.1635 19.5642 18.3558C19.5642 17.5481 20.2822 16.875 21.1796 16.875C22.1219 16.875 22.8398 17.5481 22.8398 18.3558C22.8398 19.1635 22.1219 19.7917 21.1796 19.7917Z" fill="#89542E"/>
</g>
<g id="&#60;Group&#62;_11">
<g id="&#60;Group&#62;_12">
<path id="&#60;Path&#62;_11" d="M42.6733 18.3568C42.6733 19.6581 43.84 20.6901 45.231 20.6901C46.6221 20.6901 47.7439 19.6581 47.7439 18.3568C47.7439 17.0555 46.6221 16.0234 45.231 16.0234C43.84 16.0234 42.6733 17.0555 42.6733 18.3568Z" fill="#BB8451"/>
<path id="&#60;Compound Path&#62;_7" fill-rule="evenodd" clip-rule="evenodd" d="M45.2311 20.8694C43.7504 20.8694 42.5388 19.7476 42.5388 18.3566C42.5388 16.9655 43.7504 15.8438 45.2311 15.8438C46.7119 15.8438 47.9234 16.9655 47.9234 18.3566C47.9234 19.7476 46.7119 20.8694 45.2311 20.8694ZM45.2311 16.1578C43.9298 16.1578 42.8529 17.145 42.8529 18.3566C42.8529 19.5681 43.9298 20.5553 45.2311 20.5553C46.5324 20.5553 47.6093 19.5681 47.6093 18.3566C47.6093 17.145 46.5324 16.1578 45.2311 16.1578Z" fill="black"/>
</g>
<path id="&#60;Path&#62;_12" d="M45.2311 19.7917C46.1285 19.7917 46.8464 19.1635 46.8464 18.3558C46.8464 17.5481 46.1285 16.875 45.2311 16.875C44.3336 16.875 43.5708 17.5481 43.5708 18.3558C43.5708 19.1635 44.3336 19.7917 45.2311 19.7917Z" fill="#89542E"/>
</g>
<g id="&#60;Group&#62;_13">
<path id="&#60;Path&#62;_13" d="M46.3081 21.3618C51.5132 39.7592 14.8978 39.7592 20.1029 21.3618C19.6991 7.90024 46.7119 7.90024 46.3081 21.3618Z" fill="#BB8451"/>
<path id="&#60;Compound Path&#62;_8" fill-rule="evenodd" clip-rule="evenodd" d="M33.2055 35.3182C29.526 35.3182 26.026 34.2862 23.5581 32.5362C19.9235 29.9785 18.6222 25.9849 19.9684 21.3182C19.8337 17.0105 22.4363 14.5426 24.635 13.2413C29.4363 10.4144 36.9748 10.4144 41.776 13.2413C43.9748 14.5426 46.5773 17.0105 46.4427 21.3182C47.7889 25.9849 46.4876 29.9785 42.853 32.5362C40.385 34.2862 36.8401 35.3182 33.2055 35.3182ZM33.2055 11.4016C30.1991 11.4016 27.1478 12.1195 24.8145 13.5105C22.6607 14.7669 20.1478 17.1451 20.2825 21.3182C20.2825 21.3481 20.2675 21.378 20.2376 21.408C19.5645 23.7862 19.5645 25.9849 20.2825 27.8695C20.9107 29.6195 22.0773 31.1003 23.7376 32.2669C26.1607 34.0169 29.6158 35.0041 33.2055 35.0041C36.7953 35.0041 40.2504 34.0169 42.6735 32.2669C44.3337 31.1003 45.5004 29.6195 46.1286 27.8695C46.8466 25.9849 46.8466 23.7862 46.1735 21.408C46.1436 21.378 46.1286 21.3481 46.1286 21.3182C46.2632 17.1451 43.7504 14.7669 41.5966 13.5105C39.2632 12.1195 36.2119 11.4016 33.2055 11.4016Z" fill="black"/>
</g>
<g id="&#60;Group&#62;_14">
<g id="&#60;Group&#62;_15">
<path id="&#60;Path&#62;_14" d="M30.2438 20.3754C30.2438 21.1831 29.7951 21.8113 29.2118 21.8113C28.6733 21.8113 28.2246 21.1831 28.2246 20.3754C28.2246 19.6126 28.6733 18.9844 29.2118 18.9844C29.7951 18.9844 30.2438 19.6126 30.2438 20.3754Z" fill="black"/>
<path id="&#60;Path&#62;_15" d="M38.1862 20.3754C38.1862 21.1831 37.7375 21.8113 37.199 21.8113C36.6157 21.8113 36.167 21.1831 36.167 20.3754C36.167 19.6126 36.6157 18.9844 37.199 18.9844C37.7375 18.9844 38.1862 19.6126 38.1862 20.3754Z" fill="black"/>
</g>
<path id="&#60;Path&#62;_16" d="M36.3913 23.2452C36.3913 24.008 35.1798 26.4311 33.2054 26.4311C31.2311 26.4311 30.0195 24.008 30.0195 23.2452C30.0195 22.4375 31.2311 20.6875 33.2054 20.6875C35.1798 20.6875 36.3913 22.4375 36.3913 23.2452Z" fill="black"/>
<g id="&#60;Group&#62;_16">
<path id="&#60;Path&#62;_17" d="M36.1667 28.1804C36.1667 30.0202 34.8206 31.5458 33.2052 31.5458C31.5898 31.5458 30.2437 30.0202 30.2437 28.1804C30.2437 26.2958 31.5898 27.3727 33.2052 27.3727C34.8206 27.3727 36.1667 26.2958 36.1667 28.1804Z" fill="#F1A2A0"/>
<path id="&#60;Compound Path&#62;_9" fill-rule="evenodd" clip-rule="evenodd" d="M33.2053 31.6809C31.5002 31.6809 30.1091 30.1104 30.1091 28.1809C30.1091 27.5976 30.1989 27.2835 30.4232 27.104C30.7822 26.8348 31.2758 26.9245 31.8591 27.0592C32.263 27.1489 32.7117 27.2386 33.2053 27.2386C33.6989 27.2386 34.1476 27.1489 34.5514 27.0592C35.1348 26.9245 35.6284 26.8348 35.9873 27.104C36.2117 27.2835 36.3463 27.5976 36.3463 28.1809C36.3463 30.1104 34.9104 31.6809 33.2053 31.6809ZM31.0066 27.2386C30.857 27.2386 30.7373 27.2686 30.6476 27.3284C30.4681 27.448 30.3933 27.7322 30.4232 28.1809C30.4232 29.9309 31.6796 31.3668 33.2053 31.3668C34.7758 31.3668 36.0322 29.9309 36.0322 28.1809C36.0322 27.7322 35.9425 27.448 35.763 27.3284C35.5835 27.1489 35.1348 27.2386 34.5963 27.3732C34.1925 27.463 33.6989 27.5527 33.2053 27.5527C32.7117 27.5527 32.2181 27.463 31.8143 27.3732C31.5002 27.2835 31.1861 27.2386 31.0066 27.2386Z" fill="black"/>
</g>
<g id="Clip path group">
<mask id="mask0_2299_38142" style="mask-type:luminance" maskUnits="userSpaceOnUse" x="30" y="27" width="7" height="5">
<g id="cp6">
<path id="Vector" d="M36.167 28.3C36.167 30.1622 34.8433 31.6743 33.2054 31.6743C31.5721 31.6743 30.2439 30.1622 30.2439 28.3C30.2439 26.4378 31.5721 27.5282 33.2054 27.5282C34.8433 27.5282 36.167 26.4378 36.167 28.3Z" fill="white"/>
</g>
</mask>
<g mask="url(#mask0_2299_38142)">
<g id="&#60;Clip Group&#62;">
<g id="&#60;Group&#62;_17">
<path id="&#60;Path&#62;_18" d="M37.1093 31.6874C37.1093 32.7195 35.449 33.5271 33.34 33.5271C31.2759 33.5271 29.5708 32.7195 29.5708 31.6874C29.5708 30.6554 31.2759 29.8477 33.34 29.8477C35.449 29.8477 37.1093 30.6554 37.1093 31.6874Z" fill="#ED817F"/>
<path id="&#60;Compound Path&#62;_10" fill-rule="evenodd" clip-rule="evenodd" d="M33.3401 33.6616C31.1414 33.6616 29.3914 32.809 29.3914 31.6872C29.3914 30.5654 31.1414 29.668 33.3401 29.668C35.5388 29.668 37.2888 30.5654 37.2888 31.6872C37.2888 32.809 35.5388 33.6616 33.3401 33.6616ZM33.3401 29.9821C31.3657 29.9821 29.7055 30.7449 29.7055 31.6872C29.7055 32.5846 31.3657 33.3923 33.3401 33.3923C35.3144 33.3923 36.9747 32.5846 36.9747 31.6872C36.9747 30.7449 35.3144 29.9821 33.3401 29.9821Z" fill="black"/>
</g>
<g id="&#60;Group&#62;_18">
<path id="&#60;Path&#62;_19" d="M34.3721 27.2421C34.1029 27.1523 33.7439 27.1523 33.4298 27.1523C32.8914 27.1972 32.4427 27.0626 31.9939 27.287C31.7696 27.4216 31.8145 27.8254 31.8145 28.0947C31.9042 28.4985 32.0388 29.0818 32.5324 29.037C32.7568 29.037 32.9362 28.9024 33.1157 28.8575C33.4298 28.8126 33.6991 29.1267 34.1029 28.9921C34.4619 28.8575 34.5068 28.4088 34.5965 28.0498C34.5965 27.7805 34.6863 27.4216 34.417 27.2421H34.3721Z" fill="white"/>
<path id="&#60;Compound Path&#62;_11" fill-rule="evenodd" clip-rule="evenodd" d="M33.9234 29.2158C33.7439 29.2158 33.6093 29.1261 33.4747 29.0812C33.3401 29.0364 33.2503 28.9915 33.1157 29.0363C33.0858 29.0363 33.0409 29.0513 32.9811 29.0812C32.8465 29.1261 32.7118 29.171 32.5324 29.171C32.0537 29.2009 31.7695 28.8419 31.6798 28.094C31.6349 27.8697 31.5452 27.3312 31.9042 27.1517C32.2631 26.9722 32.6221 26.9722 32.9811 27.0171C33.1307 27.0171 33.2653 27.0171 33.3849 27.0171C33.4448 27.0171 33.5046 27.0171 33.5644 27.0171C33.8336 27.0171 34.1926 27.0171 34.4619 27.1069C34.8208 27.2864 34.776 27.7351 34.7311 28.0043V28.1389C34.6862 28.4979 34.5965 28.9915 34.1477 29.171C34.058 29.2009 33.9832 29.2158 33.9234 29.2158ZM33.2054 28.7222C33.3401 28.7222 33.4747 28.7671 33.6093 28.812C33.7439 28.8569 33.8785 28.9017 34.0131 28.8569C34.3272 28.7671 34.3721 28.4081 34.417 28.094V27.9594C34.4619 27.6902 34.4618 27.4658 34.3272 27.421V27.3761C34.1029 27.3312 33.8336 27.3312 33.5644 27.3312C33.5046 27.3312 33.4448 27.3312 33.3849 27.3312C33.2653 27.3312 33.1307 27.3312 32.9811 27.3312C32.6221 27.2864 32.308 27.2863 32.0388 27.421C31.9939 27.4658 31.9042 27.6004 31.9939 28.0492C32.0836 28.812 32.3529 28.9017 32.5324 28.8569C32.6221 28.8569 32.7567 28.812 32.8465 28.812C32.9362 28.7821 33.011 28.7522 33.0708 28.7222C33.1007 28.7222 33.1456 28.7222 33.2054 28.7222Z" fill="black"/>
</g>
<path id="&#60;Path&#62;_20" d="M33.2054 29.0349C33.1157 29.0349 33.0708 28.9451 33.0708 28.8554V27.1502C33.0708 27.0605 33.1157 27.0156 33.2054 27.0156C33.2952 27.0156 33.3849 27.0605 33.3849 27.1502V28.8554C33.3849 28.9451 33.2952 29.0349 33.2054 29.0349Z" fill="black"/>
</g>
</g>
</g>
<path id="&#60;Compound Path&#62;_12" fill-rule="evenodd" clip-rule="evenodd" d="M33.2053 31.6809C31.5002 31.6809 30.1091 30.1104 30.1091 28.1809C30.1091 27.5976 30.1989 27.2835 30.4232 27.104C30.7822 26.8348 31.2758 26.9245 31.8591 27.0592C32.263 27.1489 32.7117 27.2386 33.2053 27.2386C33.6989 27.2386 34.1476 27.1489 34.5514 27.0592C35.1348 26.9245 35.6284 26.8348 35.9873 27.104C36.2117 27.2835 36.3463 27.5976 36.3463 28.1809C36.3463 30.1104 34.9104 31.6809 33.2053 31.6809ZM31.0066 27.2386C30.857 27.2386 30.7373 27.2686 30.6476 27.3284C30.4681 27.448 30.3933 27.7322 30.4232 28.1809C30.4232 29.9309 31.6796 31.3668 33.2053 31.3668C34.7758 31.3668 36.0322 29.9309 36.0322 28.1809C36.0322 27.7322 35.9425 27.448 35.763 27.3284C35.5835 27.1489 35.1348 27.2386 34.5963 27.3732C34.1925 27.463 33.6989 27.5527 33.2053 27.5527C32.7117 27.5527 32.2181 27.463 31.8143 27.3732C31.5002 27.2835 31.1861 27.2386 31.0066 27.2386Z" fill="black"/>
</g>
<path id="&#60;Compound Path&#62;_13" fill-rule="evenodd" clip-rule="evenodd" d="M30.3335 14.7672C30.5578 15.5749 31.5899 16.3826 32.8014 16.0236C30.6027 14.7223 34.013 12.3441 34.3271 14.9018C34.3271 15.3954 33.9681 15.7992 33.6091 16.0236C34.8207 16.3826 35.8527 15.5749 36.1219 14.7672C36.9296 17.0108 29.4809 17.0108 30.3335 14.7672ZM34.013 14.9915C34.0578 13.8249 32.5322 13.6454 32.3976 14.8569C32.3527 15.9787 33.8784 16.1582 34.013 14.9915Z" fill="#89542E"/>
<g id="&#60;Group&#62;_19">
<g id="&#60;Group&#62;_20">
<g id="&#60;Group&#62;_21">
<path id="&#60;Path&#62;_21" d="M30.154 10.9082C29.3463 11.5364 26.9232 11.8953 27.0129 10.6838C27.0129 10.6838 27.0129 10.6689 27.0129 10.6389C26.9232 9.4274 29.3463 9.78637 30.154 10.4146C30.3334 10.5492 30.3334 10.7736 30.154 10.9082Z" fill="#AABD66"/>
<path id="&#60;Compound Path&#62;_14" fill-rule="evenodd" clip-rule="evenodd" d="M28.1796 11.6248C27.8206 11.6248 27.5065 11.5799 27.2821 11.4453C27.0129 11.2658 26.8334 10.9966 26.8783 10.6825C26.8783 10.6825 26.8783 10.6675 26.8783 10.6376C26.8334 10.3235 26.968 10.0542 27.2821 9.87475C28.045 9.47091 29.5706 9.78501 30.2437 10.3235C30.3932 10.4132 30.468 10.5329 30.468 10.6825C30.468 10.8021 30.3932 10.9068 30.2437 10.9965C29.795 11.3555 28.8975 11.6248 28.1796 11.6248ZM28.1796 9.9645C27.9103 9.9645 27.6411 10.0094 27.4167 10.144C27.2373 10.2337 27.1475 10.3983 27.1475 10.6376C27.1475 10.6675 27.1475 10.6825 27.1475 10.6825C27.1475 10.9218 27.2373 11.0863 27.4167 11.176C28.045 11.535 29.4808 11.2658 30.1091 10.7722C30.139 10.7423 30.1539 10.7124 30.1539 10.6825C30.1539 10.6226 30.139 10.5777 30.1091 10.5478C29.6603 10.2337 28.8526 9.9645 28.1796 9.9645Z" fill="black"/>
</g>
<g id="&#60;Group&#62;_22">
<path id="&#60;Path&#62;_22" d="M29.9743 10.9523C28.8974 10.7728 26.9679 9.3369 27.8653 8.5292C27.8952 8.5292 27.9102 8.5292 27.9102 8.5292C28.7179 7.5869 30.1538 9.56126 30.2884 10.5933C30.3333 10.8177 30.1987 10.9523 29.9743 10.9523Z" fill="#C9E67B"/>
<path id="&#60;Compound Path&#62;_15" fill-rule="evenodd" clip-rule="evenodd" d="M30.0192 11.0878C29.9893 11.0878 29.9744 11.0878 29.9744 11.0878C29.1218 10.9532 27.7756 10.1006 27.5513 9.2929C27.4615 8.93393 27.5064 8.6647 27.7756 8.44034C27.7756 8.44034 27.7906 8.42538 27.8205 8.39547C28.0449 8.17111 28.3141 8.08137 28.6731 8.17111C29.4359 8.39547 30.3333 9.74162 30.4679 10.5942C30.4679 10.7438 30.4231 10.8634 30.3333 10.9532C30.2436 11.0429 30.1389 11.0878 30.0192 11.0878ZM28.4038 8.39547C28.2543 8.39547 28.1197 8.47025 28 8.61983C28 8.61983 28 8.63479 28 8.6647C27.8205 8.81427 27.7607 8.99375 27.8205 9.20315C28.0449 9.87623 29.2564 10.6839 29.9744 10.7737C30.0342 10.8036 30.094 10.8036 30.1538 10.7737C30.1538 10.7438 30.1538 10.6839 30.1538 10.5942C30.0641 9.87623 29.2564 8.6647 28.5833 8.44034C28.5235 8.41043 28.4637 8.39547 28.4038 8.39547Z" fill="black"/>
</g>
<g id="&#60;Group&#62;_23">
<path id="&#60;Path&#62;_23" d="M29.9743 10.3711C28.8974 10.5506 26.9679 11.9865 27.8653 12.7942C27.8952 12.7942 27.9102 12.7942 27.9102 12.7942C28.7179 13.7365 30.1538 11.7621 30.2884 10.7301C30.3333 10.5057 30.1987 10.3711 29.9743 10.3711Z" fill="#C9E67B"/>
<path id="&#60;Compound Path&#62;_16" fill-rule="evenodd" clip-rule="evenodd" d="M28.4038 13.1959C28.1645 13.1959 27.9701 13.1062 27.8205 12.9267C27.7906 12.8968 27.7756 12.8818 27.7756 12.8818C27.5064 12.6574 27.4615 12.3882 27.5513 12.0292C27.7756 11.2216 29.1218 10.369 29.9744 10.2344C30.1239 10.2344 30.2436 10.2792 30.3333 10.369C30.4231 10.4587 30.4679 10.5784 30.4679 10.728C30.3333 11.5805 29.4359 12.9267 28.6731 13.151C28.5833 13.181 28.4936 13.1959 28.4038 13.1959ZM30.0192 10.5485C30.0192 10.5485 30.0043 10.5485 29.9744 10.5485C29.2564 10.6382 28.0449 11.4459 27.8205 12.119C27.7607 12.3284 27.8205 12.5079 28 12.6574C28 12.6874 28 12.7023 28 12.7023C28.1496 12.8818 28.344 12.9416 28.5833 12.8818C29.2564 12.6574 30.0641 11.4459 30.1538 10.728C30.1538 10.6382 30.1538 10.5784 30.1538 10.5485C30.1239 10.5485 30.0791 10.5485 30.0192 10.5485Z" fill="black"/>
</g>
</g>
<g id="&#60;Group&#62;_24">
<path id="&#60;Path&#62;_24" d="M37.3335 11.4505C35.2245 13.5595 29.2117 14.6813 29.3911 10.7326C29.3911 10.7027 29.3911 10.6578 29.3911 10.598C29.2117 6.64924 35.2245 7.77103 37.3335 9.88001C37.7822 10.3287 37.7822 11.0018 37.3335 11.4505Z" fill="#ED8351"/>
<path id="&#60;Compound Path&#62;_17" fill-rule="evenodd" clip-rule="evenodd" d="M32.3526 13.5137C31.6796 13.5137 31.0962 13.4239 30.6475 13.1996C29.6603 12.7509 29.1667 11.8983 29.2565 10.7316C29.2565 10.7017 29.2565 10.6568 29.2565 10.597C29.1667 9.43034 29.6603 8.57777 30.6475 8.12906C31.545 7.72521 32.8462 7.72521 34.2373 8.08418C35.5385 8.39828 36.7501 9.0265 37.468 9.78932C37.9616 10.2829 37.9616 11.0457 37.468 11.5393C36.7501 12.3021 35.5385 12.9303 34.2373 13.2444C33.5642 13.4239 32.936 13.5137 32.3526 13.5137ZM32.3526 8.12906C31.7693 8.12906 31.2308 8.2188 30.7821 8.39829C29.9146 8.78718 29.5108 9.52008 29.5706 10.597C29.5706 10.6568 29.5706 10.7017 29.5706 10.7316C29.5108 11.8086 29.9146 12.5415 30.7821 12.9303C32.577 13.738 35.8526 12.706 37.2437 11.315C37.6475 10.956 37.6475 10.3727 37.2437 10.0137C36.2116 8.93675 34.1026 8.12906 32.3526 8.12906Z" fill="black"/>
</g>
</g>
<g id="&#60;Group&#62;_25">
<path id="&#60;Path&#62;_25" d="M25.1285 29.8429C22.9746 29.8429 21.2246 28.093 21.2246 25.984C21.2246 23.8301 22.9746 22.125 25.1285 22.125C27.2374 22.125 28.9874 23.8301 28.9874 25.984C28.9874 28.093 27.2374 29.8429 25.1285 29.8429Z" fill="#F09D9B"/>
<path id="&#60;Path&#62;_26" d="M41.2823 29.8429C39.1733 29.8429 37.4233 28.093 37.4233 25.984C37.4233 23.8301 39.1733 22.125 41.2823 22.125C43.4362 22.125 45.1862 23.8301 45.1862 25.984C45.1862 28.093 43.4362 29.8429 41.2823 29.8429Z" fill="#F09D9B"/>
</g>
<path id="&#60;Path&#62;_27" d="M16.8721 58.6979H23.7374C24.0964 58.6979 24.4105 58.4287 24.4105 58.1146C24.4105 57.7556 24.0964 57.5312 23.7374 57.5312H16.8721C16.5131 57.5312 16.199 57.7556 16.199 58.1146C16.199 58.4287 16.5131 58.6979 16.8721 58.6979Z" fill="#3B2504"/>
<path id="&#60;Path&#62;_28" d="M16.8721 56.6315H20.2374C20.5964 56.6315 20.8656 56.4072 20.8656 56.0482C20.8656 55.7341 20.5964 55.4648 20.2374 55.4648H16.8721C16.5131 55.4648 16.199 55.7341 16.199 56.0482C16.199 56.4072 16.5131 56.6315 16.8721 56.6315Z" fill="#3B2504"/>
</g>
</g>
</g>
<rect x="0.5" y="0.5" width="69" height="69" stroke="#919298"/>
</g>
<defs>
<clipPath id="clip0_2299_38142">
<rect width="70" height="70" fill="white"/>
</clipPath>
</defs>
</svg>
