<svg width="83" height="72" viewBox="0 0 83 72" fill="none" xmlns="http://www.w3.org/2000/svg">
<g clip-path="url(#clip0_12215_929)">
<path d="M80.6199 1.28906H1.62988V14.1991H80.6199V1.28906Z" fill="#8BD4FA"/>
<path d="M10.4502 9.87016C9.50021 9.87016 8.72021 9.10016 8.72021 8.14016C8.72021 7.18016 9.49021 6.41016 10.4502 6.41016C11.4102 6.41016 12.1802 7.18016 12.1802 8.14016C12.1802 9.10016 11.4102 9.87016 10.4502 9.87016Z" fill="#133471"/>
<path d="M18.6699 9.87016C17.7199 9.87016 16.9399 9.10016 16.9399 8.14016C16.9399 7.18016 17.7099 6.41016 18.6699 6.41016C19.6299 6.41016 20.3999 7.18016 20.3999 8.14016C20.3999 9.10016 19.6299 9.87016 18.6699 9.87016Z" fill="#133471"/>
<path d="M26.8902 9.87016C25.9402 9.87016 25.1602 9.10016 25.1602 8.14016C25.1602 7.18016 25.9302 6.41016 26.8902 6.41016C27.8502 6.41016 28.6202 7.18016 28.6202 8.14016C28.6202 9.10016 27.8502 9.87016 26.8902 9.87016Z" fill="#133471"/>
<path d="M5.4 71.66C2.42 71.66 0 69.24 0 66.26V5.4C0 2.42 2.42 0 5.4 0H77.27C80.25 0 82.67 2.42 82.67 5.4V66.27C82.67 69.25 80.25 71.67 77.27 71.67H5.4V71.66ZM3.53 16.29C2.93 16.29 2.44 16.78 2.44 17.38V66.27C2.44 67.9 3.77 69.22 5.39 69.22H77.26C78.89 69.22 80.21 67.89 80.21 66.27V17.37C80.21 16.77 79.72 16.28 79.12 16.28H3.53V16.29ZM5.4 2.44C3.77 2.44 2.45 3.77 2.45 5.39V12.75C2.45 13.35 2.94 13.84 3.54 13.84H79.14C79.74 13.84 80.23 13.35 80.23 12.75V5.39C80.23 3.76 78.9 2.44 77.28 2.44H5.4Z" fill="#133471"/>
<path d="M62.3397 46.0706H49.0697L42.2697 51.8206L42.2397 46.0706H36.4897V29.6406H62.3397V46.0706Z" fill="#8BD4FA"/>
<path d="M49.3399 55.5898H27.9999C27.6575 55.5898 27.3799 55.8674 27.3799 56.2098V59.0798C27.3799 59.4223 27.6575 59.6998 27.9999 59.6998H49.3399C49.6823 59.6998 49.9599 59.4223 49.9599 59.0798V56.2098C49.9599 55.8674 49.6823 55.5898 49.3399 55.5898Z" fill="#8BD4FA"/>
<path d="M30.0198 60.8904C27.9698 60.8904 26.2998 59.2904 26.2998 57.3204V27.7204C26.2998 25.7504 27.9698 24.1504 30.0198 24.1504H47.5998C49.6498 24.1504 51.3198 25.7504 51.3198 27.7204V28.4504C51.3198 28.6604 51.4898 28.8304 51.6998 28.8304H62.2498C62.6798 28.8304 63.0398 29.1804 63.0398 29.6204V46.0304C63.0398 46.4604 62.6898 46.8204 62.2498 46.8204H49.7798C49.6898 46.8204 49.5998 46.8504 49.5298 46.9104L42.8198 52.5004C42.6798 52.6204 42.4998 52.6804 42.3198 52.6804C42.1998 52.6804 42.0898 52.6604 41.9898 52.6104C41.7098 52.4804 41.5398 52.2004 41.5398 51.9004V47.2104C41.5398 47.0004 41.3698 46.8304 41.1598 46.8304H36.4698C36.0398 46.8304 35.6798 46.4804 35.6798 46.0404V29.6304C35.6798 29.2004 36.0298 28.8404 36.4698 28.8404H49.3598C49.5698 28.8404 49.7398 28.6704 49.7398 28.4604V27.7304C49.7398 26.6304 48.7798 25.7304 47.5998 25.7304H30.0198C28.8398 25.7304 27.8798 26.6304 27.8798 27.7304V28.4604C27.8798 28.6704 28.0498 28.8404 28.2598 28.8404H32.9498C33.3798 28.8404 33.7398 29.1904 33.7398 29.6304C33.7398 30.0704 33.3898 30.4204 32.9498 30.4204H28.2598C28.0498 30.4204 27.8798 30.5904 27.8798 30.8004V54.2404C27.8798 54.4504 28.0498 54.6204 28.2598 54.6204H49.3598C49.5698 54.6204 49.7398 54.4504 49.7398 54.2404V49.5504C49.7398 49.1204 50.0898 48.7604 50.5298 48.7604C50.9698 48.7604 51.3198 49.1104 51.3198 49.5504V57.3204C51.3198 59.2904 49.6498 60.8904 47.5998 60.8904H30.0198ZM28.2598 56.2004C28.0498 56.2004 27.8798 56.3704 27.8798 56.5804V57.3104C27.8798 58.4104 28.8398 59.3104 30.0198 59.3104H47.5998C48.7798 59.3104 49.7398 58.4104 49.7398 57.3104V56.5804C49.7398 56.3704 49.5698 56.2004 49.3598 56.2004H28.2598ZM37.6398 30.4204C37.4298 30.4204 37.2598 30.5904 37.2598 30.8004V44.8704C37.2598 45.0804 37.4298 45.2504 37.6398 45.2504H42.3298C42.7598 45.2504 43.1198 45.6004 43.1198 46.0404V49.4004C43.1198 49.5504 43.2098 49.6804 43.3398 49.7504C43.3898 49.7704 43.4498 49.7904 43.4998 49.7904C43.5898 49.7904 43.6798 49.7604 43.7498 49.7004L48.8598 45.4404C48.9998 45.3204 49.1798 45.2604 49.3598 45.2604H61.0798C61.2898 45.2604 61.4598 45.0904 61.4598 44.8804V30.8104C61.4598 30.6004 61.2898 30.4304 61.0798 30.4304H37.6398V30.4204Z" fill="#133471"/>
<path d="M54.4097 44.0104C54.1097 44.0104 53.8197 43.8904 53.6097 43.6804L49.7497 39.8204C49.6397 39.7104 49.4997 39.6604 49.3597 39.6604C49.2197 39.6604 49.0797 39.7104 48.9697 39.8204L45.1097 43.6804C44.8997 43.8904 44.6097 44.0104 44.3097 44.0104C44.0097 44.0104 43.7197 43.8904 43.5097 43.6804C43.0697 43.2404 43.0697 42.5204 43.5097 42.0804L47.3697 38.2204C47.5897 38.0004 47.5897 37.6504 47.3697 37.4404L43.5097 33.5804C43.0697 33.1404 43.0697 32.4204 43.5097 31.9804C43.7197 31.7704 44.0097 31.6504 44.3097 31.6504C44.6097 31.6504 44.8997 31.7704 45.1097 31.9804L48.9697 35.8404C49.0797 35.9504 49.2197 36.0004 49.3597 36.0004C49.4997 36.0004 49.6397 35.9504 49.7497 35.8404L53.6097 31.9804C53.8197 31.7704 54.1097 31.6504 54.4097 31.6504C54.7097 31.6504 54.9997 31.7704 55.2097 31.9804C55.6497 32.4204 55.6497 33.1404 55.2097 33.5804L51.3497 37.4404C51.1297 37.6604 51.1297 38.0104 51.3497 38.2204L55.2097 42.0804C55.6497 42.5204 55.6497 43.2404 55.2097 43.6804C54.9997 43.8904 54.7097 44.0104 54.4097 44.0104Z" fill="#133471"/>
</g>
<defs>
<clipPath id="clip0_12215_929">
<rect width="82.66" height="71.66" fill="white"/>
</clipPath>
</defs>
</svg>
