<svg width="83" height="72" viewBox="0 0 83 72" fill="none" xmlns="http://www.w3.org/2000/svg">
<g clip-path="url(#clip0_12215_1215)">
<path d="M80.6199 1.28906H1.62988V14.1991H80.6199V1.28906Z" fill="#8BD4FA"/>
<path d="M10.45 9.87016C9.49997 9.87016 8.71997 9.10016 8.71997 8.14016C8.71997 7.18016 9.48997 6.41016 10.45 6.41016C11.41 6.41016 12.18 7.18016 12.18 8.14016C12.18 9.10016 11.41 9.87016 10.45 9.87016Z" fill="#133471"/>
<path d="M18.6699 9.87016C17.7199 9.87016 16.9399 9.10016 16.9399 8.14016C16.9399 7.18016 17.7099 6.41016 18.6699 6.41016C19.6299 6.41016 20.3999 7.18016 20.3999 8.14016C20.3999 9.10016 19.6299 9.87016 18.6699 9.87016Z" fill="#133471"/>
<path d="M26.8899 9.87016C25.9399 9.87016 25.1599 9.10016 25.1599 8.14016C25.1599 7.18016 25.9299 6.41016 26.8899 6.41016C27.8499 6.41016 28.6199 7.18016 28.6199 8.14016C28.6199 9.10016 27.8499 9.87016 26.8899 9.87016Z" fill="#133471"/>
<path d="M5.4 71.66C2.42 71.66 0 69.24 0 66.26V5.4C0 2.42 2.42 0 5.4 0H77.27C80.25 0 82.67 2.42 82.67 5.4V66.27C82.67 69.25 80.25 71.67 77.27 71.67H5.4V71.66ZM3.53 16.29C2.93 16.29 2.44 16.78 2.44 17.38V66.27C2.44 67.9 3.77 69.22 5.39 69.22H77.26C78.89 69.22 80.21 67.89 80.21 66.27V17.37C80.21 16.77 79.72 16.28 79.12 16.28H3.53V16.29ZM5.4 2.44C3.77 2.44 2.45 3.77 2.45 5.39V12.75C2.45 13.35 2.94 13.84 3.54 13.84H79.14C79.74 13.84 80.23 13.35 80.23 12.75V5.39C80.23 3.76 78.9 2.44 77.28 2.44H5.4Z" fill="#133471"/>
<path d="M60.2499 32.49L56.4599 36.86L48.1399 33.11L51.9199 28.75L60.2499 32.49Z" fill="#8BD4FA"/>
<path d="M57.2899 41.4883L45.1799 47.7283L40.6399 44.6083L40.6899 60.2083L57.3399 52.7183L57.2899 41.4883Z" fill="#8BD4FA"/>
<path d="M26.1899 36.8594L41.3299 44.3394L36.0299 48.0794L20.8999 39.9694L26.1899 36.8594Z" fill="#8BD4FA"/>
<path d="M36.0299 48.7114C35.8899 48.7114 35.7399 48.6814 35.6199 48.6114L20.4799 40.5014C20.2699 40.3914 20.1399 40.2014 20.1399 39.9914C20.1399 39.7814 20.2499 39.5914 20.4599 39.4714L25.7599 36.3514C26.0099 36.2114 26.3299 36.2014 26.5899 36.3214L41.7299 43.8114C41.9399 43.9114 42.0699 44.0914 42.0899 44.2914C42.1099 44.4914 42.0099 44.6914 41.8299 44.8214L36.5299 48.5614C36.3899 48.6614 36.2099 48.7114 36.0399 48.7114H36.0299ZM22.2399 39.9514L35.9699 47.3114L40.0399 44.4314L26.2299 37.6014L22.2399 39.9514Z" fill="#133471"/>
<path d="M36.0299 48.9602C35.8399 48.9602 35.6599 48.9202 35.4999 48.8302L20.3599 40.7202C20.0699 40.5602 19.8899 40.2902 19.8799 40.0002C19.8799 39.7002 20.0399 39.4202 20.3199 39.2602L25.6199 36.1402C25.9299 35.9502 26.3499 35.9402 26.6899 36.1002L41.8199 43.5902C42.1099 43.7302 42.2899 43.9902 42.3199 44.2702C42.3499 44.5602 42.2099 44.8402 41.9499 45.0202L36.6499 48.7602C36.4699 48.8902 36.2399 48.9602 36.0099 48.9602H36.0299ZM26.1899 36.4802C26.0799 36.4802 25.9699 36.5102 25.8799 36.5602L20.5799 39.6802C20.4599 39.7502 20.3799 39.8602 20.3899 39.9802C20.3899 40.1002 20.4699 40.2102 20.5999 40.2802L35.7399 48.3902C35.9299 48.4902 36.2099 48.4802 36.3799 48.3602L41.6799 44.6202C41.7899 44.5402 41.8499 44.4302 41.8399 44.3202C41.8299 44.2002 41.7499 44.1002 41.6099 44.0402L26.4799 36.5502C26.3999 36.5102 26.2999 36.4902 26.1999 36.4902L26.1899 36.4802ZM35.9899 47.6002L35.8499 47.5302L21.7299 39.9602L26.2199 37.3202L26.3399 37.3802L40.5299 44.4002L35.9899 47.6102V47.6002ZM22.7499 39.9402L35.9499 47.0102L39.5499 44.4602L26.2399 37.8802L22.7499 39.9302V39.9402Z" fill="#133471"/>
<path d="M26.1998 37.4789C25.9598 37.4789 25.7298 37.3889 25.5798 37.2189L21.7998 32.8489C21.6698 32.7089 21.6298 32.5189 21.6798 32.3489C21.7298 32.1789 21.8598 32.0289 22.0598 31.9389L30.3798 28.1989C30.7498 28.0289 31.2098 28.1489 31.4098 28.4489C31.6098 28.7489 31.4698 29.1289 31.1098 29.2989L23.5398 32.7089L26.4398 36.0489L34.1798 32.5689C34.5398 32.4089 35.0098 32.5189 35.2098 32.8189C35.4098 33.1189 35.2698 33.4989 34.9098 33.6689L26.5898 37.4089C26.4798 37.4589 26.3498 37.4889 26.2298 37.4889L26.1998 37.4789Z" fill="#133471"/>
<path d="M26.1998 37.7284C25.8798 37.7284 25.5898 37.5984 25.3998 37.3784L21.6198 33.0084C21.4398 32.7984 21.3698 32.5284 21.4498 32.2784C21.5198 32.0284 21.7098 31.8184 21.9598 31.7084L30.2798 27.9684C30.7598 27.7484 31.3498 27.8984 31.6198 28.3084C31.7498 28.5084 31.7898 28.7384 31.7198 28.9584C31.6498 29.1984 31.4598 29.4084 31.2098 29.5184L23.9398 32.7884L26.4998 35.7384L34.0698 32.3384C34.5498 32.1184 35.1398 32.2684 35.4098 32.6784C35.5398 32.8784 35.5798 33.1084 35.5098 33.3284C35.4398 33.5684 35.2498 33.7784 34.9998 33.8884L26.6798 37.6284C26.5398 37.6884 26.3798 37.7284 26.2198 37.7284H26.1998ZM30.7398 28.3684C30.6498 28.3684 30.5598 28.3884 30.4798 28.4184L22.1598 32.1584C22.0398 32.2084 21.9498 32.2984 21.9198 32.4084C21.8898 32.4984 21.9198 32.5984 21.9898 32.6784L25.7698 37.0484C25.9198 37.2184 26.2298 37.2684 26.4598 37.1684L34.7898 33.4284C34.9098 33.3784 34.9998 33.2884 35.0298 33.1784C35.0498 33.0984 35.0298 33.0184 34.9898 32.9384C34.8598 32.7384 34.5298 32.6684 34.2698 32.7784L26.3598 36.3284L23.1198 32.5884L30.9998 29.0484C31.1198 28.9984 31.2098 28.9084 31.2398 28.7984C31.2598 28.7184 31.2398 28.6384 31.1998 28.5584C31.1098 28.4184 30.9298 28.3484 30.7498 28.3484L30.7398 28.3684Z" fill="#133471"/>
<path d="M46.6299 48.711C46.4499 48.711 46.2799 48.661 46.1399 48.561L40.8399 44.821C40.6599 44.691 40.5599 44.491 40.5799 44.291C40.5999 44.091 40.7399 43.911 40.9399 43.811L56.0799 36.321C56.3399 36.191 56.6699 36.201 56.9099 36.351L62.2099 39.471C62.4099 39.591 62.5299 39.781 62.5299 39.991C62.5299 40.201 62.3999 40.391 62.1899 40.501L47.0499 48.611C46.9199 48.681 46.7799 48.711 46.6399 48.711H46.6299ZM42.6199 44.431L46.6899 47.311L60.4199 39.951L56.4299 37.601L42.6199 44.431Z" fill="#133471"/>
<path d="M46.6299 48.9603C46.3999 48.9603 46.1699 48.8903 45.9899 48.7603L40.6899 45.0203C40.4299 44.8403 40.2899 44.5603 40.3199 44.2603C40.3499 43.9803 40.5399 43.7203 40.8199 43.5803L55.9499 36.1003C56.2799 35.9303 56.6999 35.9503 57.0199 36.1403L62.3199 39.2603C62.5999 39.4303 62.7699 39.7103 62.7599 40.0003C62.7599 40.3003 62.5699 40.5703 62.2799 40.7203L47.1399 48.8303C46.9799 48.9203 46.7999 48.9603 46.6099 48.9603H46.6299ZM56.4599 36.4803C56.3599 36.4803 56.2699 36.5003 56.1799 36.5403L41.0499 44.0203C40.9199 44.0803 40.8399 44.1903 40.8199 44.3003C40.8099 44.4103 40.8699 44.5203 40.9799 44.6003L46.2799 48.3403C46.4499 48.4603 46.7299 48.4803 46.9199 48.3703L62.0499 40.2603C62.1799 40.1903 62.2599 40.0803 62.2599 39.9603C62.2599 39.8503 62.1899 39.7403 62.0699 39.6603L56.7699 36.5403C56.6799 36.4903 56.5699 36.4603 56.4599 36.4603V36.4803ZM46.6699 47.6003L42.1299 44.3903L56.4399 37.3103L60.9299 39.9503L46.6699 47.5903V47.6003ZM43.1099 44.4703L46.7099 47.0203L59.9099 39.9503L56.4199 37.9003L43.1099 44.4803V44.4703Z" fill="#133471"/>
<path d="M56.4598 37.4766C56.3398 37.4766 56.2098 37.4566 56.0998 37.3966L47.7798 33.6566C47.4098 33.4866 47.2798 33.1166 47.4798 32.8066C47.6798 32.5066 48.1398 32.3966 48.5098 32.5566L56.2498 36.0366L59.1498 32.6966L51.5798 29.2866C51.2098 29.1166 51.0798 28.7466 51.2798 28.4366C51.4798 28.1366 51.9398 28.0266 52.3098 28.1866L60.6298 31.9266C60.8198 32.0166 60.9598 32.1566 61.0098 32.3366C61.0598 32.5166 61.0098 32.6966 60.8898 32.8366L57.1098 37.2066C56.9598 37.3766 56.7298 37.4666 56.4898 37.4666L56.4598 37.4766Z" fill="#133471"/>
<path d="M56.4598 37.7284C56.2998 37.7284 56.1398 37.6984 55.9998 37.6284L47.6798 33.8884C47.4298 33.7784 47.2398 33.5684 47.1698 33.3284C47.1098 33.1084 47.1398 32.8784 47.2698 32.6784C47.5398 32.2684 48.1298 32.1284 48.6098 32.3384L56.1798 35.7384L58.7398 32.7884L51.4698 29.5184C51.2198 29.4084 51.0298 29.1984 50.9598 28.9584C50.8998 28.7384 50.9298 28.5084 51.0598 28.3084C51.3298 27.8984 51.9198 27.7484 52.3998 27.9684L60.7198 31.7084C60.9798 31.8184 61.1698 32.0284 61.2298 32.2784C61.2998 32.5384 61.2298 32.7984 61.0598 33.0084L57.2798 37.3784C57.0898 37.5984 56.7998 37.7284 56.4798 37.7284H56.4598ZM48.1398 32.7384C47.9498 32.7384 47.7698 32.8184 47.6798 32.9484C47.6298 33.0184 47.6198 33.1084 47.6398 33.1884C47.6698 33.2884 47.7598 33.3784 47.8798 33.4384L56.1998 37.1784C56.4298 37.2784 56.7398 37.2284 56.8898 37.0584L60.6698 32.6884C60.7398 32.6084 60.7698 32.5084 60.7398 32.4184C60.7098 32.3184 60.6198 32.2284 60.4998 32.1684L52.1698 28.4284C51.9198 28.3184 51.5898 28.3884 51.4598 28.5884C51.4098 28.6684 51.3998 28.7484 51.4198 28.8284C51.4498 28.9284 51.5398 29.0184 51.6598 29.0684L59.5398 32.6084L56.2998 36.3484L48.3898 32.7884C48.3098 32.7484 48.2198 32.7384 48.1298 32.7384H48.1398Z" fill="#133471"/>
<path d="M41.3299 61.1759C41.2099 61.1759 41.0799 61.1459 40.9699 61.0959L24.3199 53.6059C24.0799 53.4959 23.9299 53.2859 23.9299 53.0559V42.4559C23.9299 42.1159 24.2699 41.8359 24.6899 41.8359C25.1099 41.8359 25.4499 42.1159 25.4499 42.4559V52.6859L40.5899 59.4859V47.4359C40.5899 47.0959 40.9299 46.8159 41.3499 46.8159C41.7699 46.8159 42.1099 47.0959 42.1099 47.4359V60.5359C42.1099 60.7559 41.9699 60.9559 41.7399 61.0759C41.6199 61.1359 41.4899 61.1659 41.3499 61.1659L41.3299 61.1759Z" fill="#133471"/>
<path d="M41.3299 61.4277C41.1699 61.4277 41.0099 61.3977 40.8699 61.3277L24.2199 53.8477C23.8899 53.6977 23.6799 53.3977 23.6799 53.0677V42.4677C23.6799 41.9877 24.1299 41.5977 24.6899 41.5977C25.2499 41.5977 25.6999 41.9877 25.6999 42.4677V52.5377L40.3399 59.1177V47.4577C40.3399 46.9777 40.7899 46.5877 41.3499 46.5877C41.9099 46.5877 42.3599 46.9777 42.3599 47.4577V60.5577C42.3599 60.8777 42.1599 61.1677 41.8499 61.3177C41.6999 61.3877 41.5299 61.4277 41.3499 61.4277H41.3299ZM24.6799 42.0977C24.4099 42.0977 24.1699 42.2677 24.1699 42.4677V53.0677C24.1699 53.1977 24.2599 53.3177 24.4199 53.3877L41.0699 60.8677C41.2299 60.9377 41.4399 60.9377 41.6099 60.8677C41.7499 60.7977 41.8399 60.6777 41.8399 60.5577V47.4577C41.8399 47.2577 41.6099 47.0877 41.3299 47.0877C41.0499 47.0877 40.8199 47.2577 40.8199 47.4577V59.8977L25.1799 52.8677V42.4677C25.1799 42.2677 24.9499 42.0977 24.6699 42.0977H24.6799Z" fill="#133471"/>
<path d="M41.3297 61.1759C41.0597 61.1759 40.7997 61.0559 40.6597 60.8459C40.4597 60.5459 40.5997 60.1659 40.9597 59.9959L57.2097 52.6859V42.4559C57.2097 42.1159 57.5497 41.8359 57.9697 41.8359C58.3897 41.8359 58.7297 42.1159 58.7297 42.4559V53.0559C58.7297 53.2859 58.5797 53.4959 58.3397 53.6059L41.6897 61.0959C41.5797 61.1459 41.4497 61.1759 41.3297 61.1759Z" fill="#133471"/>
<path d="M41.3298 61.4277C40.9698 61.4277 40.6298 61.2577 40.4598 60.9877C40.3298 60.7877 40.2898 60.5577 40.3598 60.3377C40.4298 60.0977 40.6198 59.8877 40.8698 59.7777L56.9798 52.5377V42.4677C56.9798 41.9877 57.4298 41.5977 57.9898 41.5977C58.5498 41.5977 58.9998 41.9877 58.9998 42.4677V53.0677C58.9998 53.3977 58.7898 53.6877 58.4598 53.8477L41.8098 61.3277C41.6698 61.3877 41.5098 61.4277 41.3498 61.4277H41.3298ZM57.9798 42.0977C57.7098 42.0977 57.4698 42.2677 57.4698 42.4677V52.8677L57.3198 52.9377L41.0698 60.2477C40.9498 60.2977 40.8598 60.3877 40.8298 60.4977C40.8098 60.5777 40.8298 60.6577 40.8698 60.7277C40.9998 60.9177 41.3498 60.9977 41.5798 60.8877L58.2298 53.4077C58.3798 53.3377 58.4798 53.2177 58.4798 53.0877V42.4877C58.4798 42.2877 58.2498 42.1177 57.9698 42.1177L57.9798 42.0977Z" fill="#133471"/>
<path d="M56.3799 27.4084L49.8999 22.3984L50.2099 25.7184C50.1899 25.8484 49.2199 26.1284 49.0899 26.1784C48.6499 26.3484 48.2199 26.5184 47.7999 26.7084C46.2999 27.3584 45.5899 27.8884 44.4699 29.0884C42.8099 30.8584 41.4299 33.6484 41.0899 36.0384C41.0299 36.4784 40.9799 36.9284 40.9499 37.3784C40.8899 38.4084 40.9299 38.5084 40.9499 38.8484C41.0699 38.5884 41.6899 36.8884 42.1899 35.4884C42.6199 34.3084 42.7099 34.2284 43.3699 33.1784C44.6299 31.1784 46.7799 29.4484 49.1099 28.9184C49.5699 28.8184 50.0399 28.7384 50.5099 28.6984L50.8199 31.9984L56.3999 27.4084H56.3799Z" fill="#133471"/>
</g>
<defs>
<clipPath id="clip0_12215_1215">
<rect width="82.66" height="71.66" fill="white"/>
</clipPath>
</defs>
</svg>
