<svg width="70" height="71" viewBox="0 0 70 71" fill="none" xmlns="http://www.w3.org/2000/svg">
<g clip-path="url(#clip0_2299_65244)">
<path d="M70.045 45.8264L0.0898438 37.7495V0.550781H70.045V45.8264Z" fill="#F6D0A7"/>
<path d="M0 36.7617L69.9551 44.7938V70.3258H0V36.7617Z" fill="#E3E1D9"/>
<path d="M50.9741 11.6367H17.3203C16.1087 11.6367 15.0767 12.6688 15.0767 13.8803V56.329C15.0767 57.5406 16.1087 58.5277 17.3203 58.5277H50.9741C52.2305 58.5277 53.2177 57.5406 53.2177 56.329V13.8803C53.2177 12.6688 52.2305 11.6367 50.9741 11.6367Z" fill="#AD8A6D"/>
<path fill-rule="evenodd" clip-rule="evenodd" d="M15.0767 57.0919V12.8931C15.1215 12.4444 15.1215 12.0854 15.3908 11.8611C15.6151 11.6367 15.9741 11.6367 16.3331 11.6367H51.7369C52.5895 11.6816 53.2177 11.8611 53.2177 13.1175V56.8675C53.2177 58.1239 52.3651 58.5277 51.692 58.5277H17.3203C16.1087 58.5277 15.0767 58.3483 15.0767 57.0919ZM50.0767 52.9636C50.0767 52.9636 50.0318 52.6944 49.6728 52.7393L19.4292 52.5149C18.9356 52.5598 18.6664 52.9188 18.4869 53.2329C17.6344 54.8483 16.5126 56.8675 15.9292 58.0342L52.0959 57.9893C51.7369 56.9572 50.5703 54.0406 50.2561 53.188L50.0767 52.9636ZM52.6343 12.4893L48.1023 20.297C47.8331 20.6111 47.6985 20.9252 47.16 21.0149H21.3138C20.1472 21.0149 20.1023 20.5662 19.4741 19.579L15.66 12.3547L15.5254 57.6303C15.9292 57.1367 17.7241 53.5918 17.8587 53.3675C18.5767 52.0662 18.9805 52.1111 19.6087 52.1111H34.2369L34.1023 21.5983C34.1023 21.4636 34.0126 21.1495 34.4164 21.1047C34.8202 21.1047 34.6856 21.5085 34.7305 21.5983L34.8202 52.1111H48.0574C49.1344 52.0662 50.2113 51.797 50.7497 53.0983C50.8395 53.3226 52.4549 57.1367 52.5895 57.3611L52.6343 12.4893ZM20.3715 19.9829C20.551 20.297 20.91 20.4765 21.3138 20.4765L46.7113 20.5213C47.1151 20.5213 47.4741 20.297 47.6536 19.9829L52.2305 12.2649H16.1536L20.3715 19.9829Z" fill="#3B2504"/>
<path d="M34.3268 26.9829C35.8973 27.7457 37.6025 28.1047 39.2627 28.688C39.4422 28.7479 39.6217 28.8077 39.8012 28.8675C39.8909 28.8974 39.9807 28.9274 40.0704 28.9573C39.7563 28.8675 40.0255 28.9573 40.0704 29.0021C40.2499 29.062 40.4144 29.1368 40.564 29.2265C40.6837 29.2863 40.7884 29.3462 40.8781 29.406C40.6986 29.2714 41.1025 29.7201 40.923 29.4957C41.0127 29.5406 40.9679 29.6303 40.9679 29.5406C40.923 29.7201 40.9679 29.3162 40.9679 29.5406C40.8781 29.765 40.7884 30.0342 40.6986 30.3034C40.4743 30.8868 40.3845 31.515 40.4294 32.0983C40.5191 32.7265 40.6089 33.265 40.7435 33.8483C40.8033 34.0876 40.8482 34.3269 40.8781 34.5662C40.8332 34.3419 40.8781 34.7457 40.8781 34.7457C40.908 34.8953 40.923 35.0598 40.923 35.2393C40.923 35.4487 40.923 35.6432 40.923 35.8227C40.8931 35.9423 40.8781 36.0769 40.8781 36.2265C40.8332 36.5855 40.923 36.0021 40.8332 36.3611C40.7435 36.8398 40.6238 37.3184 40.4743 37.797C40.3397 38.156 40.5191 37.7073 40.4294 37.9316C40.3696 38.0214 40.3247 38.1111 40.2948 38.2009C40.1751 38.4402 40.0555 38.6645 39.9358 38.8739C39.6217 39.3227 39.4871 39.547 39.1281 39.906C38.7243 40.3547 38.2756 40.7137 38.0961 41.297C37.8268 42.0598 38.1858 42.8675 38.8589 43.2265C39.0832 43.3611 39.2627 43.4509 39.4871 43.5406C39.7114 43.6752 39.3973 43.4509 39.6217 43.6752C39.7114 43.765 39.7114 43.765 39.6217 43.6752C39.6815 43.7351 39.7264 43.8098 39.7563 43.8996C39.6666 43.7201 39.7563 43.9445 39.8012 43.9893C39.8311 44.1389 39.861 44.2885 39.8909 44.438C39.9358 44.7521 39.9807 45.1111 40.1602 45.4252C40.6538 46.4124 41.5063 47.4893 42.6281 47.7137C43.2563 47.8483 43.9743 47.5342 44.1089 46.8611C44.2435 46.2778 43.9294 45.5598 43.2563 45.4252C43.2114 45.3804 42.9422 45.2457 43.1666 45.3804C43.1217 45.3804 42.8973 45.156 43.032 45.3355C42.9123 45.1859 42.7926 45.0363 42.673 44.8868C42.8076 45.0662 42.5832 44.797 42.5832 44.7521C42.5234 44.6624 42.4636 44.5727 42.4038 44.4829C42.4038 44.4829 42.2243 44.2137 42.314 44.3932C42.2691 44.2586 42.2243 44.1239 42.2243 44.0342C42.1345 43.4957 42.0448 43.047 41.7756 42.5983C41.4614 42.0598 41.0127 41.6111 40.4743 41.3419C40.3845 41.297 40.2499 41.2521 40.1602 41.2073C40.1303 41.2073 40.1003 41.1923 40.0704 41.1624C40.3696 41.3718 40.4593 41.6859 40.3397 42.1047C40.3397 42.1047 40.1153 42.3291 40.3845 42.0598C40.4743 41.9701 40.564 41.8803 40.6538 41.7906C41.0576 41.3868 41.4166 40.938 41.7307 40.4893C42.314 39.6816 42.7179 38.6945 42.9871 37.7521C43.2563 36.765 43.3909 35.7329 43.3012 34.7457C43.2563 34.1624 43.1217 33.6239 43.032 33.0855C42.8973 32.5021 42.8076 32.1432 42.8525 31.5598C42.8525 31.2457 43.1217 30.7073 43.2114 30.3034C43.3909 29.6303 43.3909 28.9573 43.0768 28.3739C42.5832 27.4316 41.5512 26.9829 40.6089 26.6239C39.7114 26.265 38.7691 25.9957 37.8717 25.7265C37.3931 25.5769 36.9294 25.4274 36.4807 25.2778C36.2713 25.218 36.0768 25.1432 35.8973 25.0534C35.8525 25.0534 35.5384 24.9188 35.8525 25.0534C35.7328 24.9936 35.6281 24.9487 35.5384 24.9188C34.955 24.6047 34.2371 24.7393 33.8781 25.3227C33.6089 25.8611 33.7435 26.6688 34.3268 26.9829Z" fill="#CBA788"/>
<path d="M41.2375 38.2915C42.0452 37.6184 43.1222 37.3043 44.1542 37.3941C44.244 37.3941 44.2888 37.3492 44.2888 37.2594C44.2888 37.1697 44.244 37.1248 44.1542 37.08C43.0324 36.9902 41.8658 37.3492 41.0132 38.0671C40.8786 38.2018 41.1029 38.4261 41.2375 38.2915Z" fill="black"/>
<path d="M41.6862 36.5406C41.9105 35.4637 42.6285 34.5662 43.5708 34.0278C43.84 33.8782 44.1242 33.7585 44.4233 33.6688C44.6028 33.6239 44.5131 33.3547 44.3336 33.3996C43.2118 33.7137 42.2246 34.4765 41.6862 35.5534C41.5366 35.8226 41.4319 36.1218 41.3721 36.4508C41.3272 36.6303 41.6413 36.7201 41.6862 36.5406Z" fill="black"/>
<path d="M19.7439 40.7571C20.1477 40.3084 20.7759 40.1289 21.3593 40.1289C21.8977 40.1738 22.3913 40.2636 22.8849 40.443C23.0046 40.473 23.1242 40.5029 23.2439 40.5328C23.3037 40.5627 23.3486 40.5926 23.3785 40.6225C23.4234 40.6674 23.4683 40.6674 23.4683 40.7123C23.6477 40.8469 23.8721 40.6225 23.6926 40.4879C23.5131 40.3084 23.2888 40.2187 23.1093 40.1738C22.84 40.0841 22.5559 40.0093 22.2567 39.9495C21.7183 39.8597 21.1349 39.77 20.5965 39.9046C20.1926 40.0392 19.8336 40.2636 19.5195 40.5328C19.3849 40.7123 19.6093 40.9366 19.7439 40.7571Z" fill="black"/>
<path d="M19.4295 37.0318C20.327 36.9869 21.2693 37.3907 21.8077 38.1536C21.8526 38.1984 21.9424 38.2433 22.0321 38.1984C22.1218 38.1536 22.1218 38.0638 22.077 37.9741C21.4936 37.1664 20.4616 36.6728 19.4295 36.7177C19.2501 36.7177 19.2501 37.0318 19.4295 37.0318Z" fill="black"/>
<path d="M43.7952 45.4657C40.0708 44.1195 33.4747 43.9401 32.9811 46.4529C32.4426 49.0106 38.1862 53.3183 41.8657 54.6644C45.5901 56.0106 49.0452 55.0683 49.5837 52.5106C50.0773 49.9977 47.5196 46.8118 43.7952 45.4657Z" fill="#BB8451"/>
<path fill-rule="evenodd" clip-rule="evenodd" d="M45.1865 55.3814C44.1096 55.3814 42.9878 55.2019 41.866 54.7981C39.9365 54.0801 37.5583 52.6442 35.7635 51.1186C34.507 50.0417 32.4878 48.0673 32.8468 46.4519C32.9664 45.9135 33.3254 45.4647 33.9237 45.1058C36.0776 43.9391 40.8788 44.2981 43.8404 45.375C47.6096 46.7212 50.2122 49.9519 49.6737 52.5545C49.4942 53.4968 48.9109 54.2596 48.0135 54.7532C47.2506 55.2019 46.2635 55.3814 45.1865 55.3814ZM38.007 44.6122C36.3019 44.6122 34.866 44.8814 34.0583 45.3301C33.49 45.6293 33.1609 46.0182 33.0711 46.4968C32.8468 47.5737 33.8788 49.1891 35.8981 50.8942C37.6929 52.4199 40.0711 53.8558 41.9109 54.5288C44.1994 55.3814 46.3981 55.3365 47.8788 54.5288C48.7314 54.0801 49.2699 53.3622 49.4494 52.5096C49.9429 50.0417 47.3853 46.9455 43.7506 45.5994C41.866 44.9263 39.8019 44.6122 38.007 44.6122Z" fill="black"/>
<path d="M28.0458 43.6711C28.8086 46.9019 21.674 48.9211 20.283 46.7673C20.1483 46.5429 20.0586 46.2737 20.0586 46.0044C20.0586 44.8378 20.9112 43.6711 22.1227 43.2673C24.0522 42.639 27.5971 40.9339 28.0458 43.6711Z" fill="#BB8451"/>
<path fill-rule="evenodd" clip-rule="evenodd" d="M22.5713 47.7988C22.5414 47.7988 22.4965 47.7988 22.4366 47.7988C21.3597 47.7539 20.552 47.395 20.1931 46.8116C20.0435 46.6022 19.9537 46.333 19.9238 46.0039C19.9238 44.7924 20.8213 43.5809 22.0777 43.177C22.2871 43.0873 22.5264 42.9975 22.7956 42.9078C24.3213 42.3244 26.2059 41.6514 27.3725 42.2796C27.8213 42.5488 28.0905 43.0125 28.1802 43.6706C28.4943 45.0167 27.5072 46.318 25.5328 47.1706C24.5905 47.5744 23.5136 47.7988 22.5713 47.7988ZM26.2059 42.2796C25.1738 42.2796 23.9174 42.7732 22.8854 43.1321C22.6161 43.2219 22.3768 43.3116 22.1674 43.4014C21.0008 43.7603 20.1931 44.8821 20.1931 46.0039C20.1931 46.2732 20.2529 46.4975 20.3725 46.677C20.7315 47.2155 21.4495 47.4847 22.4366 47.5296C23.379 47.5744 24.4559 47.3501 25.4431 46.9014C27.2828 46.1385 28.2251 44.927 27.9559 43.7155C27.8661 43.1471 27.6268 42.7432 27.2379 42.5039C26.9687 42.3693 26.6097 42.2796 26.2059 42.2796Z" fill="black"/>
<path d="M36.4369 50.4043C37.3793 49.1927 37.7831 47.3979 37.7831 45.5581C38.0523 35.8658 24.6357 36.5389 24.9498 46.4107C24.9049 47.712 26.1613 49.6415 26.61 50.3145C26.1613 50.6735 25.8921 51.1222 25.8472 51.6158C25.7126 52.7376 26.8793 53.6799 28.4049 53.6799C29.751 53.7248 30.9626 53.0068 31.3216 52.0645C31.3515 52.0645 31.3814 52.0645 31.4113 52.0645C31.5459 53.0068 32.6228 53.7697 33.969 53.7697C35.5395 53.8145 36.8408 52.9171 36.9754 51.7504C37.0203 51.2568 36.7959 50.7632 36.4369 50.4043Z" fill="#BB8451"/>
<path fill-rule="evenodd" clip-rule="evenodd" d="M34.0586 53.9018C34.0287 53.9018 33.9988 53.9018 33.9689 53.9018C32.6676 53.9018 31.6356 53.2287 31.3663 52.3312C30.8727 53.2287 29.7061 53.8569 28.4048 53.812C27.5074 53.812 26.6548 53.4979 26.1612 52.9146C25.8022 52.5107 25.6676 52.062 25.7125 51.5684C25.7574 51.1197 26.0266 50.671 26.4304 50.2671C26.4005 50.2372 26.3706 50.1924 26.3407 50.1325C25.8471 49.3248 24.7702 47.6197 24.815 46.4082C24.7253 43.3569 25.9817 40.7992 28.2702 39.453C30.3343 38.2415 32.9368 38.1966 34.9112 39.3633C36.0779 40.0364 38.0074 41.7415 37.9176 45.5556C37.9176 47.4851 37.4689 49.1902 36.6163 50.4018C36.9753 50.8056 37.1548 51.2543 37.1099 51.7928C36.9753 52.9594 35.6292 53.9018 34.0586 53.9018ZM31.3215 51.9274H31.4112C31.4561 51.9274 31.5458 51.9723 31.5458 52.062C31.6804 52.9594 32.7125 53.6325 33.9689 53.6325C33.9988 53.6325 34.0287 53.6325 34.0586 53.6325C35.4945 53.6325 36.7509 52.8248 36.8407 51.7479C36.8856 51.2992 36.7061 50.8505 36.3471 50.4915C36.3022 50.4466 36.3022 50.4018 36.3471 50.3569C37.1997 49.1902 37.6933 47.4851 37.6933 45.5556C37.783 41.8761 35.8984 40.2159 34.7766 39.5428C32.892 38.4659 30.3791 38.5107 28.4048 39.6774C26.2061 40.9787 24.9945 43.4466 25.0843 46.4082C25.0843 46.4082 25.0843 46.4231 25.0843 46.453C24.9945 47.53 26.0715 49.2351 26.565 49.9979C26.6249 50.0877 26.6697 50.1624 26.6997 50.2223C26.7445 50.312 26.6997 50.3569 26.6548 50.4018C26.2509 50.7607 25.9817 51.1646 25.9368 51.6133C25.9368 52.0171 26.0715 52.421 26.3407 52.7351C26.7894 53.2736 27.5522 53.5428 28.4048 53.5877C28.4347 53.5877 28.4497 53.5877 28.4497 53.5877C29.7509 53.5877 30.8727 52.9146 31.1868 52.0171C31.2317 51.9723 31.2766 51.9274 31.3215 51.9274Z" fill="black"/>
<path d="M30.8277 50.8061C24.0969 51.7933 23.3341 38.6907 32.2187 40.1715C40.2059 41.5177 37.3341 52.4664 30.8277 50.8061Z" fill="#89542E"/>
<path d="M36.2122 49.055C39.7122 51.0293 42.584 43.087 39.7122 41.3819C38.4109 40.7088 36.8404 41.2473 36.2571 42.5037C35.4045 44.3883 33.3404 47.7088 36.2122 49.055Z" fill="#BB8451"/>
<path fill-rule="evenodd" clip-rule="evenodd" d="M37.2891 49.5036C36.9002 49.5036 36.5113 49.3989 36.1225 49.1895C35.4344 48.8305 34.9707 48.3519 34.7314 47.7536C34.2827 46.3177 35.1801 44.5228 35.8083 43.1766C35.928 42.9074 36.0477 42.6681 36.1673 42.4587C36.4366 41.8305 36.975 41.3369 37.6481 41.1125C38.3212 40.8433 39.084 40.9331 39.7571 41.2472C41.4622 42.2792 41.2827 45.3754 40.0263 47.4843C39.3083 48.7856 38.3212 49.5036 37.2891 49.5036ZM38.5455 41.2023C38.2763 41.2023 38.0071 41.2472 37.7378 41.3369C37.1096 41.5613 36.6609 42.01 36.3917 42.5933C36.272 42.8027 36.1524 43.0271 36.0327 43.2664C35.4045 44.5677 34.5519 46.3625 35.0007 47.6638C35.1801 48.2023 35.584 48.651 36.2571 48.9651C36.7058 49.2343 38.366 49.8625 39.8468 47.3497C40.4301 46.3625 40.7442 45.1061 40.7442 43.9843C40.7442 42.8177 40.3853 41.9202 39.6673 41.4715C39.3084 41.292 38.9344 41.2023 38.5455 41.2023Z" fill="black"/>
<path d="M24.4552 30.6541C24.5001 31.731 23.6924 32.7182 22.6603 32.8528C21.5834 32.9875 20.686 32.2246 20.6411 31.1477C20.5513 30.0708 21.359 29.0836 22.436 28.949C23.468 28.8144 24.3654 29.5772 24.4552 30.6541Z" fill="#BB8451"/>
<path fill-rule="evenodd" clip-rule="evenodd" d="M22.436 32.9862C21.9873 32.9862 21.5385 32.8516 21.2244 32.5375C20.7757 32.2234 20.5514 31.6849 20.5065 31.1464C20.4167 29.9798 21.2693 28.9477 22.3911 28.8131C22.9296 28.7682 23.468 28.9028 23.8719 29.2169C24.2757 29.5759 24.5449 30.0695 24.5449 30.6528C24.6347 31.7746 23.7821 32.8516 22.6603 32.9862C22.5706 32.9862 22.4958 32.9862 22.436 32.9862ZM22.6603 29.0375C22.5706 29.0375 22.4958 29.0375 22.436 29.0375C21.4488 29.1721 20.686 30.1144 20.7757 31.1016C20.7757 31.64 21.0001 32.0439 21.359 32.358C21.718 32.6721 22.1667 32.8067 22.6155 32.7169C23.6026 32.5823 24.3655 31.6849 24.3206 30.6528C24.2757 30.1593 24.0514 29.7105 23.6924 29.4413C23.4232 29.1721 23.0193 29.0375 22.6603 29.0375Z" fill="black"/>
<path d="M22.6156 32.1347C21.9426 32.1796 21.3592 31.7309 21.3144 31.0578C21.2695 30.3847 21.7631 29.7565 22.481 29.6668C23.1541 29.5771 23.7374 30.0706 23.7823 30.7437C23.8272 31.4168 23.2887 32.045 22.6156 32.1347Z" fill="#89542E"/>
<path d="M38.7246 28.8579C38.7695 29.9349 39.6669 30.7425 40.7438 30.6079C41.7759 30.4733 42.5836 29.4861 42.4938 28.4092C42.449 27.3323 41.5515 26.5246 40.4746 26.6592C39.4425 26.7938 38.6348 27.781 38.7246 28.8579Z" fill="#BB8451"/>
<path fill-rule="evenodd" clip-rule="evenodd" d="M40.4746 30.743C40.0259 30.743 39.622 30.5635 39.2631 30.2942C38.8592 29.9353 38.6349 29.4417 38.59 28.8584C38.5002 27.7366 39.3528 26.7045 40.4746 26.5699C41.0131 26.4801 41.5066 26.6148 41.9554 26.9737C42.3592 27.3327 42.5836 27.8263 42.6284 28.4096C42.7182 29.5314 41.8656 30.5635 40.7438 30.6981C40.6541 30.728 40.5643 30.743 40.4746 30.743ZM38.8143 28.8584C38.8592 29.3519 39.0836 29.8007 39.4425 30.1148C39.8015 30.384 40.2502 30.5186 40.699 30.4737C41.6861 30.3391 42.449 29.3968 42.4041 28.4096C42.3592 27.916 42.1349 27.4673 41.7759 27.1532C41.4169 26.884 40.9682 26.7494 40.5195 26.7943C39.5323 26.9289 38.7695 27.8712 38.8143 28.8584Z" fill="black"/>
<path d="M40.6989 29.8477C41.3719 29.7579 41.8655 29.1746 41.8655 28.5015C41.8207 27.8285 41.2373 27.3349 40.5194 27.4246C39.8463 27.5144 39.3078 28.0977 39.3527 28.7708C39.3976 29.4438 39.9809 29.9374 40.6989 29.8477Z" fill="#89542E"/>
<path d="M41.5967 31.0118C46.4429 45.8643 18.8467 49.3195 21.8532 33.4797C20.866 22.3066 41.1929 19.7938 41.5967 31.0118Z" fill="#BB8451"/>
<path fill-rule="evenodd" clip-rule="evenodd" d="M30.7375 43.9807C28.6286 43.9807 26.6991 43.4871 25.1734 42.5897C22.167 40.7948 20.9555 37.5641 21.7632 33.4807C21.4939 30.3846 22.8401 27.6474 25.6221 25.7628C29.167 23.3846 34.2824 22.9359 37.7824 24.7307C39.4875 25.5833 41.5965 27.423 41.6863 31.0128C43.0324 35.0961 42.0452 38.7756 38.8593 41.2884C37.0196 42.7243 34.5965 43.6666 32.0388 43.9359C31.5901 43.9658 31.1563 43.9807 30.7375 43.9807ZM32.8465 23.8782C30.3786 23.8782 27.776 24.5961 25.7568 25.9871C23.0645 27.782 21.7183 30.4743 21.9875 33.4807C21.9875 33.4807 21.9875 33.4957 21.9875 33.5256C21.5837 35.5897 21.7183 37.4743 22.3465 39C22.9298 40.391 23.917 41.5577 25.2632 42.3654C27.1029 43.4423 29.4811 43.9359 32.0388 43.6666C34.5516 43.4423 36.9298 42.5 38.7247 41.0641C41.776 38.641 42.7632 35.0961 41.4619 31.0577C41.4619 31.0577 41.4619 31.0427 41.4619 31.0128C41.3273 27.5577 39.3081 25.8077 37.6478 24.9551C36.2568 24.2371 34.5965 23.8782 32.8465 23.8782Z" fill="black"/>
<path d="M34.2376 33.526C34.2825 34.1991 33.4748 36.3081 31.994 36.5325C30.5133 36.7119 29.4363 34.7824 29.4363 34.1542C29.3915 33.4812 30.1992 31.9107 31.6799 31.7312C33.1607 31.5517 34.1928 32.8978 34.2376 33.526Z" fill="black"/>
<path d="M38.0966 30.7893C38.0966 30.9688 37.1094 31.1931 35.853 31.3277C34.6414 31.4623 33.6094 31.4175 33.6094 31.2829C33.6094 31.1034 34.5966 30.879 35.8081 30.7444C37.0645 30.6098 38.0966 30.6098 38.0966 30.7893Z" fill="black"/>
<path d="M29.1218 32.0899C29.1218 32.2694 28.0898 32.4937 26.8783 32.6284C25.6218 32.763 24.5898 32.7181 24.5449 32.5835C24.5449 32.404 25.577 32.1348 26.8334 32.0001C28.0449 31.8655 29.077 31.9104 29.1218 32.0899Z" fill="black"/>
<path d="M29.4807 31.6875C29.4807 31.867 28.4935 32.0914 27.2371 32.226C25.9807 32.3606 24.9487 32.3158 24.9487 32.1811C24.9038 32.0017 25.9359 31.7324 27.1923 31.5978C28.4487 31.4632 29.4359 31.5081 29.4807 31.6875Z" fill="black"/>
<path d="M38.4554 30.384C38.4554 30.5635 37.4682 30.7878 36.2118 30.9224C35.0003 31.057 33.9682 31.057 33.9682 30.8776C33.9233 30.6981 34.9554 30.4737 36.1669 30.3391C37.4233 30.2045 38.4554 30.2494 38.4554 30.384Z" fill="black"/>
<path d="M34.2822 37.653C34.372 39.2235 33.4745 40.6145 32.2181 40.7492C31.0066 40.9286 29.9297 39.762 29.8399 38.2363C29.7502 36.6658 30.7822 37.4735 32.0386 37.294C33.2502 37.1594 34.1925 36.1274 34.2822 37.653Z" fill="#F1A2A0"/>
<path fill-rule="evenodd" clip-rule="evenodd" d="M32.0384 40.8847C31.5448 40.8847 31.0961 40.7052 30.7371 40.3911C30.1538 39.8975 29.7499 39.1347 29.7051 38.2373C29.7051 37.7437 29.7499 37.4744 29.9294 37.2949C30.1987 37.0706 30.5576 37.1155 31.0064 37.1603C31.3205 37.2052 31.6346 37.2052 31.9935 37.1603C32.3525 37.1155 32.7115 37.0257 33.0256 36.8911C33.4294 36.7565 33.8333 36.6219 34.1025 36.8014C34.282 36.8911 34.3717 37.2052 34.4166 37.6539C34.5064 39.2693 33.5641 40.7052 32.2628 40.8847C32.173 40.8847 32.0982 40.8847 32.0384 40.8847ZM30.5128 37.3398C30.3333 37.3398 30.1987 37.3847 30.1089 37.4744C29.9893 37.5941 29.9444 37.8334 29.9743 38.1924C30.0192 39.0449 30.3333 39.7629 30.8717 40.2116C31.2756 40.5706 31.7692 40.7052 32.2179 40.6155C33.3846 40.4808 34.282 39.1796 34.1923 37.6539C34.1623 37.2949 34.0876 37.0706 33.9679 36.9808C33.7884 36.8911 33.4743 36.9808 33.1153 37.1155C32.8012 37.2501 32.4423 37.3847 32.0384 37.4296C31.6794 37.4744 31.2756 37.4296 30.9615 37.3847C30.782 37.3847 30.6324 37.3697 30.5128 37.3398Z" fill="black"/>
<mask id="mask0_2299_65244" style="mask-type:luminance" maskUnits="userSpaceOnUse" x="29" y="36" width="6" height="5">
<path d="M34.3044 37.781C34.3987 39.3335 33.4743 40.7156 32.2448 40.8726C31.0153 41.0252 29.9429 39.8899 29.8487 38.3374C29.7544 36.7848 30.8044 37.5701 32.0339 37.4175C33.2679 37.2649 34.2102 36.2284 34.3044 37.781Z" fill="white"/>
</mask>
<g mask="url(#mask0_2299_65244)">
<path d="M35.1799 40.4807C35.2696 41.3333 34.0132 42.1858 32.4427 42.4102C30.8722 42.5897 29.5709 42.0512 29.4811 41.1986C29.4363 40.3461 30.6927 39.4935 32.2632 39.314C33.8337 39.1345 35.135 39.6281 35.1799 40.4807Z" fill="#ED817F"/>
<path fill-rule="evenodd" clip-rule="evenodd" d="M31.8143 42.5448C30.9618 42.5448 30.2438 42.3653 29.7951 42.0063C29.5259 41.782 29.3912 41.5128 29.3912 41.1987C29.3015 40.3012 30.5579 39.4038 32.263 39.1794C33.34 39.0448 34.3271 39.2692 34.9105 39.7179C35.1348 39.9422 35.3143 40.2115 35.3143 40.4807C35.3592 41.423 34.1028 42.3204 32.4425 42.4999C32.2331 42.5299 32.0237 42.5448 31.8143 42.5448ZM32.8912 39.4038C32.6818 39.4038 32.4724 39.4187 32.263 39.4487C30.7823 39.6281 29.5707 40.4358 29.6156 41.1987C29.6455 41.438 29.7652 41.6324 29.9746 41.782C30.4682 42.2307 31.4105 42.4102 32.4425 42.2756C33.9233 42.0961 35.1348 41.2884 35.09 40.5256C35.06 40.2863 34.9404 40.0769 34.731 39.8974C34.3271 39.5833 33.6541 39.4038 32.8912 39.4038Z" fill="black"/>
<path d="M32.8915 37.0746C32.6671 37.0298 32.3979 37.0746 32.1736 37.0746C31.8146 37.1644 31.4107 37.1195 31.0966 37.3439C30.9171 37.4336 31.0069 37.7926 31.0518 38.0169C31.0966 38.3759 31.2313 38.8246 31.5902 38.7349C31.7697 38.7349 31.9043 38.6003 32.0389 38.5554C32.2633 38.4657 32.4877 38.7349 32.7569 38.5554C33.071 38.4208 33.071 38.0169 33.1159 37.7477C33.1159 37.4785 33.1607 37.1644 32.9364 37.0746H32.8915Z" fill="white"/>
<path fill-rule="evenodd" clip-rule="evenodd" d="M31.5451 38.8674C31.4255 38.8674 31.3357 38.8375 31.2759 38.7777C31.0964 38.643 30.9618 38.4187 30.9169 38.0148C30.8272 37.7007 30.8272 37.3866 31.0515 37.2071C31.2759 37.0725 31.5451 37.0277 31.8143 36.9828C31.934 36.9828 32.0387 36.9828 32.1284 36.9828C32.1284 36.9828 32.1434 36.9828 32.1733 36.9828C32.2032 36.9529 32.2331 36.9379 32.2631 36.9379C32.4874 36.9379 32.7118 36.893 32.9361 36.9379C32.9361 36.9379 32.9361 36.9529 32.9361 36.9828H32.981C33.2502 37.0725 33.2502 37.4315 33.2054 37.7007V37.7905C33.2054 38.1046 33.1605 38.5084 32.8464 38.6879C32.622 38.7777 32.4425 38.7328 32.3079 38.6879C32.2182 38.643 32.1284 38.643 32.0836 38.643C32.0537 38.673 32.0088 38.7029 31.949 38.7328C31.8592 38.7777 31.7695 38.8225 31.6349 38.8674C31.6049 38.8674 31.575 38.8674 31.5451 38.8674ZM32.1733 37.2071C32.0836 37.2371 31.9789 37.252 31.8592 37.252C31.59 37.2969 31.3656 37.2969 31.1861 37.4315C31.1413 37.4764 31.0964 37.611 31.1413 37.97C31.2011 38.299 31.2908 38.5084 31.4105 38.5982C31.4703 38.6281 31.5302 38.6281 31.59 38.5982C31.6797 38.5982 31.7695 38.5533 31.8143 38.5084C31.8742 38.4785 31.934 38.4486 31.9938 38.4187C32.1284 38.3738 32.2631 38.4187 32.3977 38.4636C32.5323 38.5084 32.622 38.5084 32.7118 38.4636C32.9361 38.3289 32.9361 38.0597 32.981 37.7905V37.6559C32.981 37.4315 32.981 37.252 32.8913 37.2071H32.8464C32.7118 37.1623 32.4874 37.1623 32.3079 37.2071C32.278 37.2071 32.2331 37.2071 32.1733 37.2071Z" fill="black"/>
<path d="M32.0833 38.5513C32.0384 38.5513 31.9936 38.5064 31.9936 38.4615L31.9038 37.3846C31.9038 37.2949 31.9487 37.25 32.0384 37.25C32.0833 37.25 32.173 37.2949 32.173 37.3846L32.2179 38.4615C32.2179 38.5064 32.173 38.5513 32.1282 38.5513C32.0983 38.5513 32.0833 38.5513 32.0833 38.5513Z" fill="black"/>
</g>
<path fill-rule="evenodd" clip-rule="evenodd" d="M32.0389 40.8847C31.5453 40.8847 31.0966 40.7052 30.7376 40.3911C30.1543 39.8975 29.7504 39.1347 29.7056 38.2373C29.7056 37.7437 29.7504 37.4744 29.9299 37.2949C30.1992 37.0706 30.5581 37.1155 31.0068 37.1603C31.321 37.2052 31.6351 37.2052 31.994 37.1603C32.353 37.1155 32.712 37.0257 33.0261 36.8911C33.4299 36.7565 33.8338 36.6219 34.103 36.8014C34.2825 36.8911 34.3722 37.2052 34.4171 37.6539C34.5068 39.2693 33.5645 40.7052 32.2633 40.8847C32.1735 40.8847 32.0987 40.8847 32.0389 40.8847ZM30.5133 37.3398C30.3338 37.3398 30.1992 37.3847 30.1094 37.4744C29.9898 37.5941 29.9449 37.8334 29.9748 38.1924C30.0197 39.0449 30.3338 39.7629 30.8722 40.2116C31.2761 40.5706 31.7697 40.7052 32.2184 40.6155C33.3851 40.4808 34.2825 39.1796 34.1927 37.6539C34.1628 37.2949 34.088 37.0706 33.9684 36.9808C33.7889 36.8911 33.4748 36.9808 33.1158 37.1155C32.8017 37.2501 32.4427 37.3847 32.0389 37.4296C31.6799 37.4744 31.2761 37.4296 30.962 37.3847C30.7825 37.3847 30.6329 37.3697 30.5133 37.3398Z" fill="black"/>
<path d="M28.763 39.4084L28.6283 39.2737C28.5386 39.184 28.5386 39.0045 28.6283 38.9148L28.8078 38.7353C28.8527 38.6455 29.0322 38.6455 29.0771 38.7353L29.2117 38.9148C29.3014 39.0045 29.3014 39.1391 29.2117 39.2289L29.0771 39.4084C28.9873 39.4981 28.8527 39.4981 28.763 39.4084Z" fill="#FBEE6B"/>
<path fill-rule="evenodd" clip-rule="evenodd" d="M28.9424 39.4971C28.8527 39.4971 28.7928 39.4821 28.7629 39.4522L28.6283 39.2727C28.4937 39.183 28.4937 39.0035 28.6283 38.8689L28.7629 38.7343C28.8228 38.6744 28.8826 38.6445 28.9424 38.6445C29.0022 38.6445 29.0621 38.6744 29.1219 38.7343L29.2565 38.8689C29.3463 38.9586 29.3463 39.1381 29.2565 39.2727L29.1219 39.4074C29.0621 39.4672 29.0022 39.4971 28.9424 39.4971ZM28.8078 39.3625C28.8377 39.4223 28.8826 39.4522 28.9424 39.4522C28.9723 39.4522 29.0022 39.4223 29.0322 39.3625L29.2116 39.2279C29.2565 39.1381 29.2565 39.0035 29.2116 38.9138L29.077 38.7791C29.0471 38.7492 29.0022 38.7343 28.9424 38.7343C28.8826 38.7343 28.8377 38.7492 28.8078 38.7791L28.6732 38.9586C28.5834 39.0035 28.5834 39.1381 28.6732 39.2279L28.8078 39.3625Z" fill="#FBEE6B"/>
<path d="M29.2122 38.373L29.0776 38.2833C29.0327 38.1935 29.0327 38.1038 29.0776 38.0589L29.2122 37.9243C29.2571 37.8794 29.3468 37.8794 29.3917 37.9243L29.5263 38.0589C29.5712 38.1038 29.5712 38.1935 29.5263 38.2384L29.3917 38.373C29.3468 38.4627 29.2571 38.4627 29.2122 38.373Z" fill="#FBEE6B"/>
<path fill-rule="evenodd" clip-rule="evenodd" d="M29.3019 38.4641C29.2421 38.4641 29.1972 38.4492 29.1673 38.4193L29.0776 38.2847C28.9878 38.2398 28.9878 38.1052 29.0776 38.0154L29.1673 37.8808C29.2271 37.8509 29.272 37.8359 29.3019 37.8359C29.3617 37.8359 29.4066 37.8509 29.4365 37.8808L29.5263 38.0154C29.616 38.1052 29.616 38.1949 29.5263 38.2847L29.4365 38.4193C29.3767 38.4492 29.3318 38.4641 29.3019 38.4641ZM29.2122 38.3744C29.2421 38.4043 29.272 38.4193 29.3019 38.4193C29.3318 38.4193 29.3618 38.4043 29.3917 38.3744L29.4814 38.2398C29.5263 38.1949 29.5263 38.1052 29.4814 38.0603L29.3917 37.9257C29.3618 37.9257 29.3318 37.9257 29.3019 37.9257C29.272 37.9257 29.2421 37.9257 29.2122 37.9257L29.1224 38.0603C29.0776 38.1052 29.0776 38.1949 29.1224 38.2398L29.2122 38.3744Z" fill="#FBEE6B"/>
<path d="M35.1796 38.3296L34.8655 38.4642C34.7758 38.5091 34.7309 38.4642 34.686 38.4194L34.6411 38.2848C34.5963 38.195 34.6411 38.1053 34.7309 38.1053L35.0001 37.9258C35.0899 37.9258 35.1347 37.9258 35.1796 38.0155L35.2245 38.1053C35.2693 38.195 35.2245 38.2848 35.1796 38.3296Z" fill="#FBEE6B"/>
<path fill-rule="evenodd" clip-rule="evenodd" d="M34.7757 38.5071C34.7757 38.5071 34.7607 38.5071 34.7308 38.5071C34.7009 38.4772 34.671 38.4473 34.6411 38.4174L34.5962 38.2828C34.5513 38.193 34.5962 38.1033 34.686 38.0584L35.0001 37.8789C35.03 37.8789 35.0748 37.8789 35.1347 37.8789C35.1646 37.9088 35.1945 37.9387 35.2244 37.9686L35.2693 38.1033C35.3142 38.193 35.2693 38.2828 35.1796 38.3276L34.8654 38.5071C34.8355 38.5071 34.8056 38.5071 34.7757 38.5071ZM35.0898 37.9686C35.0599 37.9686 35.0449 37.9686 35.0449 37.9686L34.7308 38.1481C34.686 38.1481 34.6411 38.193 34.686 38.2379L34.7308 38.3725C34.7308 38.4024 34.7458 38.4174 34.7757 38.4174C34.8056 38.4473 34.8206 38.4473 34.8206 38.4174L35.1347 38.2828C35.1795 38.2379 35.2244 38.193 35.1796 38.1481L35.1347 38.0135C35.1347 37.9836 35.1197 37.9686 35.0898 37.9686Z" fill="#FBEE6B"/>
<path d="M26.0709 40.3031C24.4555 40.4826 23.0645 39.2262 22.9747 37.4313C22.8401 35.6364 24.0965 34.0211 25.667 33.8416C27.2824 33.6172 28.6735 34.9185 28.8081 36.7134C28.8978 38.4634 27.6863 40.0788 26.0709 40.3031Z" fill="#F09D9B"/>
<path d="M38.2761 38.7755C36.6607 38.955 35.2697 37.6985 35.1351 35.9037C35.0453 34.1088 36.2568 32.4934 37.8722 32.3139C39.4876 32.1344 40.8786 33.3909 40.9684 35.1857C41.0581 36.9357 39.8466 38.5511 38.2761 38.7755Z" fill="#F09D9B"/>
<path fill-rule="evenodd" clip-rule="evenodd" d="M29.212 27.4256C29.4363 28.0538 30.244 28.6372 31.1863 28.2333C29.4363 27.3359 31.9043 25.0025 32.2633 27.1564C32.2633 27.5602 32.0389 27.9192 31.7697 28.1436C32.712 28.3231 33.4299 27.5602 33.6094 26.8423C34.3274 28.682 28.7184 29.3551 29.212 27.4256ZM32.0389 27.2461C31.994 26.3038 30.8722 26.259 30.7825 27.291C30.8274 28.2333 31.994 28.2333 32.0389 27.2461Z" fill="#89542E"/>
</g>
<rect x="0.224359" y="0.77514" width="69.5513" height="69.5513" stroke="#919298" stroke-width="0.448718"/>
<defs>
<clipPath id="clip0_2299_65244">
<rect y="0.550781" width="70" height="70" fill="white"/>
</clipPath>
</defs>
</svg>
