<svg width="70" height="71" viewBox="0 0 70 71" fill="none" xmlns="http://www.w3.org/2000/svg">
<g clip-path="url(#clip0_2299_65327)">
<path d="M69.9551 45.4221L0 37.3452V0.101562H69.9551V45.4221Z" fill="#F6D0A7"/>
<path d="M0.134766 36.3555L70.0899 44.4324V69.9196H0.134766V36.3555Z" fill="#E3E1D9"/>
<path d="M58.3782 29.8518C58.109 29.5825 57.75 29.403 57.3462 29.403H55.1026L52.1859 27.1146C51.6923 26.7556 51.1539 26.5312 50.5257 26.5312H21.1346C20.5513 26.5312 19.968 26.7556 19.5192 27.1146L16.6026 29.403H14.0898C13.2821 29.403 12.5641 29.9864 12.3846 30.7941V30.8389L7.71796 53.9928C7.62822 54.4864 7.58335 54.9351 7.89745 55.3838C8.03207 55.5633 8.3013 55.653 8.57053 55.653L11.0833 55.7428L14.6731 56.4607C15.391 56.7748 15.3013 56.6402 15.9295 56.6402L45.1859 56.8197C45.7692 56.8197 46.5321 56.8197 47.1154 56.5505L50.0321 56.1018H52.5898C53.4423 56.1018 54.1603 55.5184 54.2949 54.7107L58.5128 31.1979C58.6026 30.6595 58.7372 30.3005 58.3782 29.8518Z" fill="#AD8A6D"/>
<path fill-rule="evenodd" clip-rule="evenodd" d="M54.6089 53.3661L54.1602 55.4302C53.9807 56.0135 53.891 56.0584 53.3974 56.1032H50.032L47.25 56.6866C46.4871 56.8661 46.2179 56.8661 45.5897 56.8661L16.2884 56.8212C15.5256 56.8212 15.032 56.6866 14.2692 56.552C13.282 56.3725 12.1153 56.1032 11.1282 55.9238H8.70509C8.12176 55.8789 7.85253 55.834 7.67304 55.5199C7.44868 55.1609 7.53842 54.802 7.62817 54.3084L12.3846 30.4815L12.5192 30.0327C12.6987 29.225 13.1474 29.4494 14.1346 29.4045H16.6025L19.7884 26.8917C20.2371 26.4879 20.5512 26.5327 21.1346 26.5327H50.8846C51.4679 26.5327 51.6923 26.7571 52.1859 27.1161L55.1025 29.4045H58.1987C58.5577 29.4494 58.782 29.4045 58.9166 29.7186C59.0961 30.1225 59.0064 30.1673 58.782 31.0199L54.6089 53.3661ZM17.0961 29.943L11.8012 55.1609L14.3589 54.7571C15.2564 54.5327 15.7051 54.443 15.9294 54.5327L45.7692 54.5776C46.3525 54.5776 46.5769 54.4879 47.2051 54.6673L49.7179 55.2507L54.4743 29.6738L51.4679 27.3404C51.3333 27.2507 51.1089 27.1609 50.9294 27.1609L20.7756 27.2058C20.5512 27.2058 20.3718 27.2956 20.2371 27.4302L17.0961 29.943ZM9.19868 55.3853H11.173L16.4679 30.0776L13.1474 30.0327L8.03201 55.3853H9.19868ZM15.8397 56.3725C15.9743 56.3725 16.2884 56.4174 16.3782 56.4174L46.1282 56.3276C46.3525 56.3276 47.0705 56.2379 47.3397 56.1481L49.6282 55.6545L46.891 55.0263C46.7115 55.0263 46.532 54.9814 46.3525 54.9814H15.8397C15.6602 54.9814 15.5256 54.9815 15.0769 55.0712L11.7564 55.6545L15.8397 56.3725ZM54.8782 30.0327L50.032 55.6097H53.5769L58.5128 30.0327H54.8782Z" fill="#3B2504"/>
<path d="M35.4485 49.8229H45.1857C45.5447 49.8229 45.8588 49.5537 45.8588 49.2396C45.8588 48.9255 45.5447 48.6562 45.1857 48.6562H35.4485C35.0895 48.6562 34.8203 48.9255 34.8203 49.2396C34.8203 49.5537 35.0895 49.8229 35.4485 49.8229Z" fill="#3B2504"/>
<path d="M20.3269 33.6237H30.0641C30.4231 33.6237 30.7372 33.3545 30.7372 33.0404C30.7372 32.7263 30.4231 32.457 30.0641 32.457H20.3269C19.968 32.457 19.6987 32.7263 19.6987 33.0404C19.6987 33.3545 19.968 33.6237 20.3269 33.6237Z" fill="#3B2504"/>
<path d="M17.9934 35.819H27.6857C28.0447 35.819 28.3588 35.5498 28.3588 35.2357C28.3588 34.9216 28.0447 34.6523 27.6857 34.6523H17.9934C17.6344 34.6523 17.3203 34.9216 17.3203 35.2357C17.3203 35.5498 17.6344 35.819 17.9934 35.819Z" fill="#3B2504"/>
<path d="M44.0186 36.5378C41.5955 38.916 36.4801 41.698 35.0442 40.2621C33.6083 38.8262 36.3904 33.7108 38.7686 31.3326C41.1917 28.9096 44.2878 28.1467 45.7237 29.5826C47.1596 31.0634 46.3968 34.1596 44.0186 36.5378Z" fill="#BB8451"/>
<path fill-rule="evenodd" clip-rule="evenodd" d="M36.2111 40.7581C35.7175 40.7581 35.2688 40.6684 34.9996 40.3543C34.0572 39.412 34.8201 37.303 35.4034 36.0915C36.2111 34.3415 37.5124 32.4569 38.7239 31.2453C39.8906 30.0787 41.2367 29.271 42.5829 28.912C43.929 28.5979 45.0508 28.8222 45.7688 29.5402C47.2496 31.021 46.4867 34.2069 44.0637 36.6299C42.8521 37.8415 40.9675 39.1428 39.2175 39.9505C38.4098 40.3094 37.2431 40.7581 36.2111 40.7581ZM43.7496 29.0017C43.3906 29.0017 43.0166 29.0466 42.6278 29.1364C41.3265 29.4505 39.9803 30.2581 38.8585 31.3799C37.647 32.5915 36.3906 34.4761 35.5829 36.1812C34.6855 38.1107 34.506 39.5915 35.1342 40.1748C35.7175 40.803 37.1983 40.6235 39.1278 39.7261C40.8329 38.9633 42.7175 37.662 43.929 36.4505C45.0508 35.3287 45.8585 33.9825 46.1726 32.6812C46.4867 31.4248 46.3072 30.3479 45.6342 29.6748C45.1855 29.2261 44.5124 29.0017 43.7496 29.0017Z" fill="black"/>
<path d="M38.2748 39.8569C38.9927 38.8249 39.2619 37.389 39.0824 35.9082C38.4542 27.9659 27.5953 29.4915 28.7619 37.5236C28.8068 38.6005 29.076 39.3633 29.4799 39.9018C29.1658 40.171 28.9414 40.53 28.9414 40.9339C28.9414 41.8762 30.0632 42.639 31.4094 42.639C32.6209 42.639 33.653 42.0557 33.8773 41.248C33.9072 41.248 33.9372 41.248 33.9671 41.248C34.1914 42.0557 35.1786 42.639 36.3901 42.639C37.7812 42.639 38.903 41.8762 38.903 40.9339C38.903 40.53 38.6786 40.171 38.2748 39.8569Z" fill="#BB8451"/>
<path fill-rule="evenodd" clip-rule="evenodd" d="M36.3902 42.7266C35.2685 42.7266 34.2364 42.1881 33.9223 41.4702C33.6082 42.1881 32.5761 42.7266 31.4095 42.7266C29.9736 42.7266 28.8069 41.9189 28.8069 40.9317C28.8069 40.5727 29.0313 40.1689 29.3454 39.8548C28.9266 39.2864 28.6873 38.5236 28.6274 37.5663C28.2685 35.0535 29.0313 32.9445 30.7364 31.6433C32.3069 30.4766 34.4159 30.2074 36.121 31.015C37.9159 31.7779 38.9928 33.5279 39.1723 35.8612C39.3518 37.4317 39.0826 38.8676 38.4544 39.8548C38.8133 40.1689 38.9928 40.5279 38.9928 40.9317C38.9928 41.9189 37.8261 42.7266 36.3902 42.7266ZM33.9672 41.1561C34.012 41.1561 34.0569 41.2009 34.0569 41.2458C34.2813 41.9638 35.2685 42.5022 36.3902 42.5022C37.7364 42.5022 38.7685 41.8291 38.7685 40.9317C38.7685 40.5727 38.589 40.2138 38.23 39.9445C38.1851 39.8997 38.1851 39.8548 38.1851 39.8099C38.8582 38.8676 39.1723 37.4766 38.9928 35.9061C38.7236 32.8548 37.0185 31.6433 36.0313 31.1945C34.371 30.4317 32.3518 30.7009 30.871 31.8227C29.2556 33.0343 28.4928 35.1433 28.8518 37.5215C28.9116 38.4787 29.1509 39.2415 29.5697 39.8099C29.6146 39.8548 29.6146 39.9445 29.5697 39.9894C29.2108 40.2586 29.0313 40.5727 29.0313 40.9317C29.0313 41.8291 30.1082 42.5022 31.4095 42.5022C32.5761 42.5022 33.5633 41.9638 33.7877 41.2458C33.7877 41.2009 33.8326 41.1561 33.8774 41.1561H33.9672Z" fill="black"/>
<path d="M33.7431 40.3082C27.82 41.1608 28.8072 31.3339 34.0123 31.6031C39.3072 31.5133 39.7111 41.5646 33.7431 40.3082Z" fill="#89542E"/>
<path d="M33.8782 40.9337C33.8782 41.876 32.8013 42.6388 31.4103 42.6388C30.0193 42.6388 28.8975 41.876 28.8975 40.9337C28.8975 40.0363 30.0193 39.2734 31.4103 39.2734C32.8013 39.2734 33.8782 40.0363 33.8782 40.9337Z" fill="#BB8451"/>
<path fill-rule="evenodd" clip-rule="evenodd" d="M31.4102 42.7285C29.9743 42.7285 28.8076 41.9208 28.8076 40.9336C28.8076 39.9913 29.9743 39.1836 31.4102 39.1836C32.8461 39.1836 34.0127 39.9913 34.0127 40.9336C34.0127 41.9208 32.8461 42.7285 31.4102 42.7285ZM31.4102 39.3631C30.064 39.3631 29.032 40.081 29.032 40.9336C29.032 41.831 30.064 42.549 31.4102 42.549C32.7115 42.549 33.7884 41.831 33.7884 40.9336C33.7884 40.081 32.7115 39.3631 31.4102 39.3631Z" fill="black"/>
<path d="M33.8779 40.9337C33.8779 41.876 34.9997 42.6388 36.3907 42.6388C37.7818 42.6388 38.8587 41.876 38.8587 40.9337C38.8587 40.0363 37.7818 39.2734 36.3907 39.2734C34.9997 39.2734 33.8779 40.0363 33.8779 40.9337Z" fill="#BB8451"/>
<path fill-rule="evenodd" clip-rule="evenodd" d="M36.3906 42.7285C34.9548 42.7285 33.7881 41.9208 33.7881 40.9336C33.7881 39.9913 34.9548 39.1836 36.3906 39.1836C37.8265 39.1836 38.9932 39.9913 38.9932 40.9336C38.9932 41.9208 37.8265 42.7285 36.3906 42.7285ZM36.3906 39.3631C35.0445 39.3631 34.0124 40.081 34.0124 40.9336C34.0124 41.831 35.0445 42.549 36.3906 42.549C37.6919 42.549 38.7689 41.831 38.7689 40.9336C38.7689 40.081 37.6919 39.3631 36.3906 39.3631Z" fill="black"/>
<path d="M39.6664 39.631H28.1344C27.1921 39.631 26.4741 38.8682 26.4741 37.9259C26.4741 37.0284 27.1921 36.2656 28.1344 36.2656H39.6664C40.5639 36.2656 41.3267 37.0284 41.3267 37.9259C41.3267 38.8682 40.5639 39.631 39.6664 39.631Z" fill="#FFFFC6"/>
<path fill-rule="evenodd" clip-rule="evenodd" d="M39.6663 39.7207H28.1342C27.147 39.7207 26.3394 38.913 26.3394 37.9258C26.3394 36.9835 27.147 36.1758 28.1342 36.1758H39.6663C40.6535 36.1758 41.4163 36.9835 41.4163 37.9258C41.4163 38.913 40.6535 39.7207 39.6663 39.7207ZM28.1342 36.3553C27.2368 36.3553 26.5637 37.0732 26.5637 37.9258C26.5637 38.8232 27.2368 39.4963 28.1342 39.4963H39.6663C40.5188 39.4963 41.2368 38.8232 41.2368 37.9258C41.2368 37.0732 40.5188 36.3553 39.6663 36.3553H28.1342Z" fill="black"/>
<path d="M39.6664 39.631H28.1344C27.1921 39.631 26.4741 38.8682 26.4741 37.9259C26.4741 37.0284 27.1921 36.2656 28.1344 36.2656H39.6664C40.5639 36.2656 41.3267 37.0284 41.3267 37.9259C41.3267 38.8682 40.5639 39.631 39.6664 39.631Z" fill="#FFFFC6"/>
<path fill-rule="evenodd" clip-rule="evenodd" d="M39.6663 39.7207H28.1342C27.147 39.7207 26.3394 38.913 26.3394 37.9258C26.3394 36.9386 27.147 36.1758 28.1342 36.1758H39.6663C40.6535 36.1758 41.4611 36.9386 41.4611 37.9258C41.4611 38.913 40.6535 39.7207 39.6663 39.7207ZM28.1342 36.3553C27.2817 36.3553 26.5637 37.0732 26.5637 37.9258C26.5637 38.8232 27.2817 39.4963 28.1342 39.4963H39.6663C40.5188 39.4963 41.2368 38.8232 41.2368 37.9258C41.2368 37.0732 40.5188 36.3553 39.6663 36.3553H28.1342Z" fill="black"/>
<mask id="mask0_2299_65327" style="mask-type:luminance" maskUnits="userSpaceOnUse" x="26" y="36" width="16" height="4">
<path d="M39.6613 39.617H28.1248C27.2049 39.617 26.4556 38.8631 26.4556 37.9433C26.4556 37.0234 27.2049 36.2695 28.1248 36.2695H39.6613C40.5812 36.2695 41.3351 37.0234 41.3351 37.9433C41.3351 38.8631 40.5812 39.617 39.6613 39.617Z" fill="white"/>
</mask>
<g mask="url(#mask0_2299_65327)">
<path d="M28.942 40.5335H27.2817V35.5078H28.942V40.5335Z" fill="#ECA675"/>
<path d="M31.8136 40.5335H30.1982V35.5078H31.8136V40.5335Z" fill="#ECA675"/>
<path d="M34.7306 40.5335H33.0703V35.5078H34.7306V40.5335Z" fill="#ECA675"/>
<path d="M37.6022 40.5335H35.9868V35.5078H37.6022V40.5335Z" fill="#ECA675"/>
<path d="M40.4738 40.5335H38.8584V35.5078H40.4738V40.5335Z" fill="#ECA675"/>
</g>
<path fill-rule="evenodd" clip-rule="evenodd" d="M39.6663 39.7207H28.1342C27.147 39.7207 26.3394 38.913 26.3394 37.9258C26.3394 36.9386 27.147 36.1758 28.1342 36.1758H39.6663C40.6535 36.1758 41.4611 36.9386 41.4611 37.9258C41.4611 38.913 40.6535 39.7207 39.6663 39.7207ZM28.1342 36.3553C27.2817 36.3553 26.5637 37.0732 26.5637 37.9258C26.5637 38.8232 27.2817 39.4963 28.1342 39.4963H39.6663C40.5188 39.4963 41.2368 38.8232 41.2368 37.9258C41.2368 37.0732 40.5188 36.3553 39.6663 36.3553H28.1342Z" fill="black"/>
<path fill-rule="evenodd" clip-rule="evenodd" d="M45.8136 38.2893C45.9482 39.3213 44.961 39.9047 44.1982 40.488C43.8392 40.7273 43.4952 40.9966 43.1661 41.2957C41.0572 43.1803 38.7687 42.5521 35.9418 43.0906C33.3392 43.5842 29.8392 43.4944 26.7879 42.6867C25.352 42.238 23.1533 41.2508 23.1533 39.6354C23.1982 38.9175 23.9161 39.097 24.5443 38.6483C25.3969 38.0649 26.5187 38.1098 27.5508 38.2893C28.3136 38.4239 29.0764 38.6931 29.8392 38.6931C30.8713 38.6931 31.7687 38.1995 32.8008 38.0649C33.3392 37.9752 33.9226 38.0201 34.461 38.0649C36.0315 38.379 36.7495 38.6034 38.3649 38.0649C38.8136 37.9752 39.2623 37.7957 39.711 37.706C40.6982 37.4816 41.6854 37.4367 42.6726 37.2572C43.3456 37.1675 44.0636 36.988 44.7367 37.1226C45.2751 37.2572 45.7687 37.706 45.8136 38.2893ZM30.3777 38.9175C30.3328 38.9175 30.2879 38.9175 30.2879 38.9175C30.3328 38.9175 30.3777 38.9175 30.3777 38.9175ZM44.0636 40.2636C44.0935 40.2636 44.1234 40.2487 44.1533 40.2188C44.1533 40.1889 44.1533 40.1889 44.1533 40.2188C44.1084 40.2188 44.0636 40.2636 44.0636 40.2636ZM44.3777 40.0393H44.4226C44.4226 39.9944 44.3777 40.0393 44.3777 40.0393Z" fill="#CBA788"/>
<path d="M35.1342 38.3789C35.8522 38.5135 36.5252 38.6033 37.1983 38.6033C37.8714 38.5584 38.5445 38.334 39.2175 38.1545C39.8757 38.005 40.5338 37.8703 41.1919 37.7507C41.865 37.6161 42.5381 37.5263 43.2111 37.4366C43.9291 37.3468 44.6919 37.302 45.4098 37.5263C45.6342 37.5712 45.7239 37.2571 45.4996 37.1674C44.8714 36.9879 44.1983 36.9879 43.5252 37.0327C42.8522 37.0776 42.1791 37.2122 41.506 37.3468C40.8329 37.4366 40.1598 37.5712 39.4868 37.7507C38.8586 37.8853 38.1855 38.1097 37.5573 38.1994C36.7496 38.2892 35.9868 38.1545 35.2688 38.0199C35.1342 38.0199 35.0445 38.0648 35.0445 38.1545C34.9996 38.2443 35.0445 38.3789 35.1342 38.3789Z" fill="#3B2504"/>
<path d="M24.8588 38.7823C25.6665 38.3785 26.6088 38.4233 27.4614 38.5131C27.955 38.6028 28.4486 38.6926 28.9421 38.7374C29.4208 38.7674 29.9144 38.7524 30.4229 38.6926C31.0063 38.6028 31.5447 38.5131 32.0832 38.3785C32.3075 38.3336 32.2178 37.9746 31.9934 38.0195C31.0063 38.2439 30.0639 38.4682 29.0319 38.3785C28.0896 38.2887 27.1473 38.0644 26.1601 38.1092C25.6665 38.1541 25.128 38.2439 24.6793 38.5131C24.4998 38.6028 24.6793 38.9169 24.8588 38.7823Z" fill="#3B2504"/>
<path d="M30.5121 38.7343C27.6852 40.0356 25.6211 33.6638 27.9096 32.4523C28.9865 32.0036 30.198 32.542 30.6467 33.5741C31.275 35.0997 32.8455 37.792 30.5121 38.7343Z" fill="#BB8451"/>
<path fill-rule="evenodd" clip-rule="evenodd" d="M29.7492 39.005C29.4202 39.005 29.0911 38.9003 28.762 38.6909C28.2236 38.3768 27.7749 37.8383 27.4159 37.1204C26.5633 35.3704 26.5633 33.0371 27.8646 32.364C27.8646 32.364 27.8796 32.364 27.9095 32.364C28.9864 31.9153 30.2877 32.4089 30.7364 33.5307C30.7962 33.7101 30.871 33.9046 30.9608 34.114C31.4544 35.1909 32.1274 36.7166 31.7236 37.7935C31.5142 38.2422 31.1253 38.5862 30.5569 38.8255C30.2877 38.9452 30.0185 39.005 29.7492 39.005ZM27.9544 32.5435C27.012 33.0819 26.6082 34.9666 27.5954 37.0307C28.1787 38.1973 29.2556 39.2294 30.4672 38.646C30.4971 38.646 30.512 38.646 30.512 38.646C31.0206 38.4366 31.3497 38.1225 31.4992 37.7037C31.9031 36.7166 31.2749 35.2358 30.7813 34.2037C30.6915 33.9943 30.6018 33.7999 30.512 33.6204C30.1082 32.6332 28.9864 32.1396 27.9544 32.5435Z" fill="black"/>
<path d="M27.461 22.3557C27.461 23.2531 26.6982 23.9711 25.7559 23.9711C24.8136 23.9711 24.0508 23.2531 24.0508 22.3557C24.0508 21.5031 24.8136 20.7852 25.7559 20.7852C26.6982 20.7852 27.461 21.5031 27.461 22.3557Z" fill="#BB8451"/>
<path fill-rule="evenodd" clip-rule="evenodd" d="M25.7558 24.0607C24.7686 24.0607 23.916 23.2979 23.916 22.3556C23.916 21.4581 24.7686 20.6953 25.7558 20.6953C26.7878 20.6953 27.5955 21.4581 27.5955 22.3556C27.5955 23.2979 26.7878 24.0607 25.7558 24.0607ZM25.7558 20.8748C24.8583 20.8748 24.1404 21.5479 24.1404 22.3556C24.1404 23.2081 24.8583 23.8812 25.7558 23.8812C26.6532 23.8812 27.3711 23.2081 27.3711 22.3556C27.3711 21.5479 26.6532 20.8748 25.7558 20.8748Z" fill="black"/>
<path d="M25.7556 23.3864C25.1274 23.3864 24.6338 22.9377 24.6338 22.3544C24.6338 21.8159 25.1274 21.3672 25.7556 21.3672C26.3838 21.3672 26.8774 21.8159 26.8774 22.3544C26.8774 22.9377 26.3838 23.3864 25.7556 23.3864Z" fill="#89542E"/>
<path d="M40.3389 22.3557C40.3389 23.2531 41.1017 23.9711 42.0889 23.9711C43.0312 23.9711 43.794 23.2531 43.794 22.3557C43.794 21.5031 43.0312 20.7852 42.0889 20.7852C41.1017 20.7852 40.3389 21.5031 40.3389 22.3557Z" fill="#BB8451"/>
<path fill-rule="evenodd" clip-rule="evenodd" d="M42.0888 24.0607C41.0567 24.0607 40.249 23.2979 40.249 22.3556C40.249 21.4581 41.0567 20.6953 42.0888 20.6953C43.0759 20.6953 43.8836 21.4581 43.8836 22.3556C43.8836 23.2979 43.0759 24.0607 42.0888 24.0607ZM42.0888 20.8748C41.1913 20.8748 40.4734 21.5479 40.4734 22.3556C40.4734 23.2081 41.1913 23.8812 42.0888 23.8812C42.9413 23.8812 43.6593 23.2081 43.6593 22.3556C43.6593 21.5479 42.9413 20.8748 42.0888 20.8748Z" fill="black"/>
<path d="M42.0891 23.3864C42.6724 23.3864 43.166 22.9377 43.166 22.3544C43.166 21.8159 42.6724 21.3672 42.0891 21.3672C41.4609 21.3672 40.9673 21.8159 40.9673 22.3544C40.9673 22.9377 41.4609 23.3864 42.0891 23.3864Z" fill="#89542E"/>
<path d="M42.8072 24.4201C46.3521 36.8944 21.4931 36.8944 25.038 24.4201C24.7239 15.2662 43.0765 15.2662 42.8072 24.4201Z" fill="#BB8451"/>
<path fill-rule="evenodd" clip-rule="evenodd" d="M33.9223 33.8874C31.4095 33.8874 29.0313 33.2143 27.3711 32.0028C24.9031 30.2528 24.0057 27.5605 24.9031 24.3746C24.8134 21.4579 26.6082 19.7977 28.089 18.9002C31.3647 16.9708 36.48 16.9708 39.7108 18.9002C41.2365 19.7977 42.9865 21.4579 42.8967 24.3746C43.7941 27.5605 42.9416 30.2528 40.4736 32.0028C38.7685 33.2143 36.3903 33.8874 33.9223 33.8874ZM33.9223 17.6887C31.8582 17.6887 29.7941 18.1374 28.2236 19.0797C26.7429 19.9323 25.0377 21.5477 25.1275 24.4195C24.6788 26.0797 24.6788 27.5605 25.1275 28.8618C25.5762 30.0284 26.339 31.0156 27.4608 31.8233C29.1211 32.99 31.4544 33.6631 33.9223 33.6631C36.3454 33.6631 38.6788 32.99 40.339 31.8233C41.4608 31.0156 42.2685 30.0284 42.6723 28.8618C43.1659 27.5605 43.1659 26.0797 42.7172 24.4195C42.807 21.5477 41.057 19.9323 39.6211 19.0797C38.0057 18.1374 35.9865 17.6887 33.9223 17.6887Z" fill="black"/>
<path d="M31.9037 23.7509C31.9037 24.2894 31.5896 24.7381 31.2306 24.7381C30.8268 24.7381 30.5127 24.2894 30.5127 23.7509C30.5127 23.2124 30.8268 22.8086 31.2306 22.8086C31.5896 22.8086 31.9037 23.2124 31.9037 23.7509Z" fill="black"/>
<path d="M37.2885 23.7509C37.2885 24.2894 36.9744 24.7381 36.6155 24.7381C36.2116 24.7381 35.9424 24.2894 35.9424 23.7509C35.9424 23.2124 36.2116 22.8086 36.6155 22.8086C36.9744 22.8086 37.2885 23.2124 37.2885 23.7509Z" fill="black"/>
<path d="M36.0767 25.6817C36.0767 26.2202 35.269 27.8804 33.9229 27.8804C32.5767 27.8804 31.769 26.2202 31.769 25.6817C31.769 25.1432 32.5767 23.9766 33.9229 23.9766C35.269 23.9766 36.0767 25.1432 36.0767 25.6817Z" fill="black"/>
<path d="M35.9423 29.0435C35.9423 30.2999 35.0448 31.3319 33.923 31.3319C32.8012 31.3319 31.9038 30.2999 31.9038 29.0435C31.9038 27.787 32.8012 28.505 33.923 28.505C35.0448 28.505 35.9423 27.787 35.9423 29.0435Z" fill="#F1A2A0"/>
<path fill-rule="evenodd" clip-rule="evenodd" d="M33.9229 31.4206C32.7563 31.4206 31.814 30.3436 31.814 29.0424C31.814 28.6834 31.8588 28.4141 32.0383 28.3244C32.2627 28.1 32.6217 28.1898 33.0255 28.2795C33.2947 28.3244 33.6088 28.4141 33.9229 28.4141C34.237 28.4141 34.5511 28.3244 34.8204 28.2795C35.2242 28.1898 35.5832 28.1 35.8076 28.3244C35.9422 28.4141 36.0319 28.6834 36.0319 29.0424C36.0319 30.3436 35.0896 31.4206 33.9229 31.4206ZM32.3973 28.4141C32.3076 28.4141 32.2328 28.4291 32.1729 28.459C32.0533 28.5488 31.9935 28.7432 31.9935 29.0424C31.9935 30.2539 32.846 31.2411 33.9229 31.2411C34.955 31.2411 35.8076 30.2539 35.8076 29.0424C35.8076 28.7432 35.7627 28.5488 35.6729 28.459C35.5383 28.3693 35.2242 28.4141 34.8652 28.5039C34.596 28.5488 34.2819 28.6385 33.9229 28.6385C33.564 28.6385 33.2499 28.5488 32.9806 28.5039C32.7563 28.459 32.5768 28.4141 32.3973 28.4141Z" fill="black"/>
<mask id="mask1_2299_65327" style="mask-type:luminance" maskUnits="userSpaceOnUse" x="31" y="28" width="5" height="4">
<path d="M35.9243 29.131C35.9243 30.3964 35.0269 31.424 33.9141 31.424C32.8057 31.424 31.9038 30.3964 31.9038 29.131C31.9038 27.8701 32.8057 28.6105 33.9141 28.6105C35.0269 28.6105 35.9243 27.8701 35.9243 29.131Z" fill="white"/>
</mask>
<g mask="url(#mask1_2299_65327)">
<path d="M36.5705 31.4244C36.5705 32.0975 35.4487 32.6808 34.0128 32.6808C32.5769 32.6808 31.4551 32.0975 31.4551 31.4244C31.4551 30.7513 32.5769 30.168 34.0128 30.168C35.4487 30.168 36.5705 30.7513 36.5705 31.4244Z" fill="#ED817F"/>
<path fill-rule="evenodd" clip-rule="evenodd" d="M34.0126 32.7704C32.5319 32.7704 31.3203 32.1871 31.3203 31.4243C31.3203 30.6615 32.5319 30.0781 34.0126 30.0781C35.4934 30.0781 36.7049 30.6615 36.7049 31.4243C36.7049 32.1871 35.4934 32.7704 34.0126 32.7704ZM34.0126 30.2576C32.6665 30.2576 31.5447 30.7961 31.5447 31.4243C31.5447 32.0525 32.6665 32.5909 34.0126 32.5909C35.3588 32.5909 36.4806 32.0525 36.4806 31.4243C36.4806 30.7961 35.3588 30.2576 34.0126 30.2576Z" fill="black"/>
<path d="M34.7309 28.4194C34.5066 28.3296 34.2822 28.3745 34.0579 28.3745C33.6989 28.3745 33.3848 28.3296 33.0707 28.4642C32.9361 28.5091 32.9361 28.8232 32.9809 29.0027C33.0258 29.2719 33.1156 29.6309 33.4745 29.6309C33.6091 29.6309 33.7438 29.5412 33.8335 29.5412C34.0579 29.4963 34.2822 29.7207 34.5066 29.6309C34.7758 29.5412 34.8207 29.2271 34.8656 28.9578C34.8656 28.7783 34.9104 28.5091 34.7309 28.4194Z" fill="white"/>
<path fill-rule="evenodd" clip-rule="evenodd" d="M34.3719 29.723C34.2822 29.723 34.1924 29.723 34.1027 29.6781C34.0129 29.6332 33.9232 29.6332 33.8783 29.6332C33.8484 29.6332 33.8035 29.6482 33.7437 29.6781C33.654 29.6781 33.5642 29.723 33.4745 29.723C33.1454 29.7529 32.951 29.5136 32.8911 29.005C32.8463 28.8704 32.8014 28.4665 33.0257 28.3319C33.295 28.2422 33.5193 28.2422 33.7437 28.2422C33.8634 28.2422 33.9681 28.2422 34.0578 28.2422C34.0877 28.2422 34.1176 28.2422 34.1475 28.2422C34.3719 28.2422 34.5514 28.2422 34.7757 28.3319C35.0001 28.4665 35.0001 28.7358 34.9552 28.9601V29.0499C34.9104 29.2742 34.8655 29.6332 34.5514 29.723C34.4916 29.723 34.4317 29.723 34.3719 29.723ZM33.9232 29.4089C34.0129 29.4089 34.1027 29.4537 34.1924 29.4986C34.2822 29.4986 34.3719 29.5435 34.4616 29.4986C34.6411 29.4537 34.686 29.2294 34.7309 29.005V28.9153C34.7757 28.7358 34.7757 28.5563 34.686 28.5114C34.5065 28.4665 34.327 28.4665 34.1475 28.4665C34.1176 28.4665 34.0877 28.4665 34.0578 28.4665C33.9681 28.4665 33.8634 28.4665 33.7437 28.4665C33.5193 28.4665 33.3398 28.4665 33.1155 28.5563C33.0706 28.5563 33.0257 28.646 33.0706 28.9601C33.1604 29.4986 33.3398 29.5435 33.4745 29.5435C33.5193 29.5435 33.6091 29.4986 33.6988 29.4537C33.7287 29.4537 33.7736 29.4388 33.8334 29.4089C33.8634 29.4089 33.8933 29.4089 33.9232 29.4089Z" fill="black"/>
<path d="M33.9232 29.5418C33.8783 29.5418 33.7886 29.4969 33.7886 29.452V28.5995C33.7886 28.5097 33.8783 28.4648 33.9232 28.4648C33.9681 28.4648 34.0129 28.5097 34.0129 28.5995V29.452C34.0129 29.4969 33.9681 29.5418 33.9232 29.5418Z" fill="black"/>
</g>
<path fill-rule="evenodd" clip-rule="evenodd" d="M33.9229 31.4206C32.7563 31.4206 31.814 30.3436 31.814 29.0424C31.814 28.6834 31.8588 28.4141 32.0383 28.3244C32.2627 28.1 32.6217 28.1898 33.0255 28.2795C33.2947 28.3244 33.6088 28.4141 33.9229 28.4141C34.237 28.4141 34.5511 28.3244 34.8204 28.2795C35.2242 28.1898 35.5832 28.1 35.8076 28.3244C35.9422 28.4141 36.0319 28.6834 36.0319 29.0424C36.0319 30.3436 35.0896 31.4206 33.9229 31.4206ZM32.3973 28.4141C32.3076 28.4141 32.2328 28.4291 32.1729 28.459C32.0533 28.5488 31.9935 28.7432 31.9935 29.0424C31.9935 30.2539 32.846 31.2411 33.9229 31.2411C34.955 31.2411 35.8076 30.2539 35.8076 29.0424C35.8076 28.7432 35.7627 28.5488 35.6729 28.459C35.5383 28.3693 35.2242 28.4141 34.8652 28.5039C34.596 28.5488 34.2819 28.6385 33.9229 28.6385C33.564 28.6385 33.2499 28.5488 32.9806 28.5039C32.7563 28.459 32.5768 28.4141 32.3973 28.4141Z" fill="black"/>
<path d="M28.4033 30.3477C26.9674 30.3477 25.8008 29.1361 25.8008 27.7002C25.8008 26.2643 26.9674 25.0977 28.4033 25.0977C29.8841 25.0977 31.0508 26.2643 31.0508 27.7002C31.0508 29.1361 29.8841 30.3477 28.4033 30.3477Z" fill="#F09D9B"/>
<path d="M39.397 30.3477C37.9611 30.3477 36.7944 29.1361 36.7944 27.7002C36.7944 26.2643 37.9611 25.0977 39.397 25.0977C40.8778 25.0977 42.0444 26.2643 42.0444 27.7002C42.0444 29.1361 40.8778 30.3477 39.397 30.3477Z" fill="#F09D9B"/>
<path fill-rule="evenodd" clip-rule="evenodd" d="M31.9482 20.1161C32.1277 20.6546 32.8007 21.2379 33.6533 20.9687C32.1725 20.1161 34.461 18.4558 34.6854 20.2507C34.6854 20.5648 34.461 20.834 34.1918 20.9687C35.0443 21.2379 35.7174 20.6546 35.8969 20.1161C36.4354 21.6866 31.3649 21.6866 31.9482 20.1161ZM34.461 20.2956C34.5059 19.4879 33.4738 19.3981 33.3392 20.161C33.3392 20.9687 34.3713 21.0584 34.461 20.2956Z" fill="#89542E"/>
<path d="M37.3333 38.7343C40.2051 40.0356 42.2692 33.6638 39.9359 32.4523C38.9038 32.0036 37.6923 32.542 37.2436 33.5741C36.6154 35.0997 35.0449 37.792 37.3333 38.7343Z" fill="#BB8451"/>
<path fill-rule="evenodd" clip-rule="evenodd" d="M38.096 39.005C37.8267 39.005 37.5575 38.9452 37.2883 38.8255C36.7199 38.5862 36.346 38.2422 36.1665 37.7935C35.7177 36.7166 36.3908 35.1909 36.8844 34.114C37.0041 33.9046 37.0938 33.7101 37.1536 33.5307C37.6024 32.4089 38.9036 31.9153 39.9806 32.364C41.3267 33.0371 41.3267 35.3704 40.4742 37.1204C40.1152 37.8383 39.6665 38.3768 39.128 38.6909C38.7989 38.9003 38.4549 39.005 38.096 39.005ZM39.1729 32.4089C38.4101 32.4089 37.6472 32.8576 37.3331 33.6204C37.2733 33.7999 37.1985 33.9943 37.1088 34.2037C36.6152 35.2358 35.987 36.7166 36.346 37.7037C36.5254 38.1225 36.8695 38.4366 37.378 38.646C38.6344 39.2294 39.7113 38.1973 40.2498 37.0307C41.2819 34.9666 40.878 33.0819 39.8908 32.5435C39.6515 32.4537 39.4122 32.4089 39.1729 32.4089Z" fill="black"/>
<path fill-rule="evenodd" clip-rule="evenodd" d="M47.2496 18.5426C46.5316 19.2605 45.9483 19.7541 46.2624 20.7862C46.4419 21.4144 46.756 21.9977 46.9355 22.6259C47.429 24.0618 47.6983 25.5875 47.5637 27.0682C47.1149 33.5746 39.1278 35.5939 33.4739 35.4593C24.5444 35.3246 17.9483 30.8375 20.9547 22.4464C21.1342 21.8182 21.538 21.1003 21.6278 20.5169C21.8072 19.6195 21.0893 19.081 20.5508 18.4977C19.5637 17.4657 18.8906 15.6259 20.2367 14.6836C21.0444 14.1003 22.3457 14.4593 23.1534 15.0426C23.647 15.3567 24.2303 15.7157 24.8137 15.4913C25.1726 15.3567 25.5765 14.908 25.8906 14.5939C30.9162 9.65797 36.256 9.38874 41.3265 14.0105C41.7752 14.4144 42.2239 14.908 42.6726 15.2669C42.9419 15.4913 43.3008 15.6259 43.6598 15.5362C44.1983 15.4016 44.7367 14.9528 45.2752 14.6836C45.679 14.5041 46.0829 14.3695 46.4867 14.3695C47.7431 14.3246 48.5957 15.3567 48.2816 16.658C48.147 17.331 47.7431 18.0041 47.2496 18.4977V18.5426ZM33.9226 33.5298C37.5572 33.5746 41.0572 31.2413 41.9996 27.7413C43.3906 23.0298 39.4867 18.2734 34.506 18.049C32.3072 17.9144 30.0637 18.5875 28.3585 19.9785C22.5252 25.0041 26.5188 33.5298 33.9226 33.5298Z" fill="#E6895A"/>
<path fill-rule="evenodd" clip-rule="evenodd" d="M25.8902 14.5951C25.5761 14.9092 25.1723 15.3579 24.8133 15.4925C24.6638 15.5523 24.5291 15.5822 24.4095 15.5822C23.9608 15.5822 23.5569 15.2681 23.1531 15.0438C22.6146 14.6399 21.8967 14.3707 21.2236 14.3707C20.8646 14.3707 20.5056 14.4604 20.2364 14.6848C18.8902 15.6271 19.5633 17.4668 20.5505 18.4989C21.089 19.0822 21.8069 19.6207 21.6274 20.5181C21.5377 21.1015 21.1338 21.8194 20.9544 22.4476C17.9479 30.8386 24.5441 35.3258 33.4736 35.4604C33.683 35.4604 33.8924 35.4604 34.1018 35.4604C39.6659 35.4604 47.1146 33.3515 47.5633 27.0694C47.6979 25.5886 47.4287 24.063 46.9351 22.6271C46.7556 21.9989 46.4415 21.4156 46.262 20.7874C45.9479 19.7553 46.5313 19.2617 47.2492 18.5438V18.4989C47.7428 18.0053 48.1467 17.3322 48.2813 16.6592C48.5954 15.4027 47.7877 14.3707 46.621 14.3707C46.5911 14.3707 46.5462 14.3707 46.4864 14.3707C46.0826 14.3707 45.6787 14.5053 45.2749 14.6848C44.7364 14.954 44.1979 15.4027 43.6595 15.5374C43.5997 15.5673 43.5249 15.5822 43.4351 15.5822C43.1659 15.5822 42.8967 15.4476 42.6723 15.2681C42.2236 14.9092 41.7749 14.4156 41.3261 14.0117C38.9031 11.813 36.3902 10.6912 33.9223 10.6912C31.1851 10.6912 28.4928 11.9925 25.8902 14.5951ZM33.9223 10.5117C36.48 10.5117 39.0377 11.6335 41.4608 13.8771C41.6851 14.0117 41.8646 14.2361 42.0441 14.4156C42.3133 14.6848 42.5377 14.9092 42.762 15.0886C43.0014 15.2681 43.2257 15.3579 43.4351 15.3579C43.495 15.3579 43.5548 15.3429 43.6146 15.313C43.9287 15.2681 44.2428 15.0438 44.512 14.8643C44.7364 14.7297 44.9608 14.5951 45.1851 14.5053C45.6338 14.2959 46.0676 14.1762 46.4864 14.1463C46.5163 14.1463 46.5612 14.1463 46.621 14.1463C47.2044 14.1463 47.7877 14.4156 48.1467 14.8643C48.5056 15.3579 48.6402 16.0309 48.5056 16.704C48.3261 17.5566 47.7877 18.2297 47.4287 18.6784H47.3838C47.3539 18.7083 47.3091 18.7532 47.2492 18.813C46.621 19.4412 46.2172 19.8451 46.4864 20.7425C46.5761 21.0117 46.7108 21.3258 46.8005 21.6399C46.9351 21.954 47.0249 22.2681 47.1595 22.5374C47.6979 24.2425 47.9223 25.7233 47.7877 27.1143C47.6979 28.6399 47.1595 29.9861 46.2172 31.1527C45.4095 32.2297 44.2877 33.0822 42.8518 33.8002C40.5185 35.0117 37.2877 35.6848 34.1018 35.6848C33.8924 35.6848 33.683 35.6848 33.4736 35.6848C27.8646 35.5951 23.4223 33.8002 21.3582 30.7938C20.5954 29.672 20.1467 28.4156 20.012 27.0694C19.9223 25.6335 20.1467 24.063 20.7749 22.3579C20.8197 22.1335 20.9544 21.8643 21.0441 21.5951C21.1787 21.2361 21.3582 20.7874 21.4031 20.4733C21.5377 19.8002 21.089 19.3515 20.5954 18.8579C20.5355 18.7681 20.4608 18.6933 20.371 18.6335C19.6531 17.8707 19.2044 16.7938 19.2941 15.9412C19.339 15.3579 19.6082 14.8643 20.1018 14.5053C20.4308 14.266 20.8048 14.1463 21.2236 14.1463C21.8967 14.1463 22.6595 14.4156 23.2877 14.8643C23.3176 14.8643 23.3475 14.8792 23.3774 14.9092C23.7364 15.1335 24.0505 15.3579 24.4095 15.3579C24.5291 15.3579 24.6338 15.328 24.7236 15.2681C25.0377 15.1784 25.4415 14.7745 25.7556 14.4604V14.4156C28.4031 11.813 31.1402 10.5117 33.9223 10.5117ZM28.3582 19.9348C29.8838 18.6784 31.9031 18.0053 33.9223 18.0053C34.1018 18.0053 34.2962 18.0053 34.5056 18.0053C39.4864 18.2297 43.3902 22.9861 41.9992 27.6976C41.0569 31.1976 37.6018 33.4861 33.9672 33.4861C33.9672 33.4861 33.9522 33.4861 33.9223 33.4861C26.5185 33.4861 22.5249 24.9604 28.3582 19.9348ZM33.9223 33.3066C33.9522 33.3066 33.9672 33.3066 33.9672 33.3066C35.7172 33.3066 37.4672 32.7233 38.8582 31.7361C40.2941 30.704 41.371 29.2681 41.8197 27.6527C42.089 26.6207 42.1338 25.5438 41.9544 24.4668C41.73 23.4348 41.3261 22.4925 40.6979 21.5951C39.262 19.6207 36.9287 18.3194 34.5056 18.2297C34.2962 18.1998 34.1018 18.1848 33.9223 18.1848C31.9031 18.1848 29.9287 18.9027 28.4928 20.1143C27.1915 21.2361 26.339 22.5374 25.98 24.0181C25.621 25.4092 25.7108 26.8002 26.2044 28.1463C26.7428 29.6271 27.73 30.8835 29.0313 31.7809C30.4223 32.7681 32.1274 33.3066 33.9223 33.3066Z" fill="black"/>
<mask id="mask2_2299_65327" style="mask-type:luminance" maskUnits="userSpaceOnUse" x="20" y="10" width="28" height="26">
<path d="M47.5055 26.4644C47.5055 32.6971 40.8914 35.4478 33.9138 35.4478C26.9363 35.4478 20.3267 32.6971 20.3267 26.4644C20.3267 20.2317 26.9363 10.6875 33.9138 10.6875C40.8914 10.6875 47.5055 20.2317 47.5055 26.4644ZM42.269 25.7554C42.269 21.4702 38.5267 18.0016 33.9138 18.0016C29.301 18.0016 25.5632 21.4702 25.5632 25.7554C25.5632 30.0362 29.301 33.5093 33.9138 33.5093C38.5267 33.5093 42.269 30.0362 42.269 25.7554Z" fill="white"/>
</mask>
<g mask="url(#mask2_2299_65327)">
<path d="M40.2046 17.4716C40.07 17.3818 39.9802 17.2472 39.9353 17.0677C39.8456 14.7792 38.4994 12.9844 36.7943 12.9844C35.8071 12.9844 34.8648 13.6575 34.3264 14.7344C34.1469 15.0485 33.6982 15.0485 33.5187 14.7344C32.9353 13.6575 32.0379 12.9844 31.0059 12.9844C29.3456 12.9844 27.9994 14.7792 27.8648 17.0677C27.8648 17.2472 27.7751 17.3818 27.6405 17.4716C24.4097 19.0869 22.2559 21.9587 22.2559 25.2344C22.2559 30.3049 27.5059 34.4331 33.9225 34.4331C40.3392 34.4331 45.5443 30.3049 45.5443 25.2344C45.5443 21.9587 43.4353 19.0869 40.2046 17.4716Z" fill="white"/>
</g>
<path d="M34.596 16.795C35.2242 16.1668 34.8204 15.0898 33.9229 15.0898C33.0255 15.0898 32.5768 16.1668 33.2499 16.795C33.6088 17.1539 34.1922 17.1539 34.596 16.795Z" fill="#F3DD4A"/>
<path d="M31.096 15.0016C31.096 15.1811 30.9614 15.3157 30.7819 15.3157C30.6024 15.3157 30.4678 15.1811 30.4678 15.0016C30.4678 14.8221 30.6024 14.6875 30.7819 14.6875C30.9614 14.6875 31.096 14.8221 31.096 15.0016Z" fill="black"/>
<path d="M37.3333 15.0016C37.3333 15.1811 37.1987 15.3157 37.0192 15.3157C36.8846 15.3157 36.75 15.1811 36.75 15.0016C36.75 14.8221 36.8846 14.6875 37.0192 14.6875C37.1987 14.6875 37.3333 14.8221 37.3333 15.0016Z" fill="black"/>
</g>
<rect x="0.224359" y="0.325921" width="69.5513" height="69.5513" stroke="#919298" stroke-width="0.448718"/>
<defs>
<clipPath id="clip0_2299_65327">
<rect y="0.101562" width="70" height="70" fill="white"/>
</clipPath>
</defs>
</svg>
