<svg width="83" height="72" viewBox="0 0 83 72" fill="none" xmlns="http://www.w3.org/2000/svg">
<g clip-path="url(#clip0_12215_1248)">
<path d="M80.6199 1.28906H1.62988V14.1991H80.6199V1.28906Z" fill="#8BD4FA"/>
<path d="M10.4502 9.87016C9.50021 9.87016 8.72021 9.10016 8.72021 8.14016C8.72021 7.18016 9.49021 6.41016 10.4502 6.41016C11.4102 6.41016 12.1802 7.18016 12.1802 8.14016C12.1802 9.10016 11.4102 9.87016 10.4502 9.87016Z" fill="#133471"/>
<path d="M18.6699 9.87016C17.7199 9.87016 16.9399 9.10016 16.9399 8.14016C16.9399 7.18016 17.7099 6.41016 18.6699 6.41016C19.6299 6.41016 20.3999 7.18016 20.3999 8.14016C20.3999 9.10016 19.6299 9.87016 18.6699 9.87016Z" fill="#133471"/>
<path d="M26.8902 9.87016C25.9402 9.87016 25.1602 9.10016 25.1602 8.14016C25.1602 7.18016 25.9302 6.41016 26.8902 6.41016C27.8502 6.41016 28.6202 7.18016 28.6202 8.14016C28.6202 9.10016 27.8502 9.87016 26.8902 9.87016Z" fill="#133471"/>
<path d="M5.4 71.66C2.42 71.66 0 69.24 0 66.26V5.4C0 2.42 2.42 0 5.4 0H77.27C80.25 0 82.67 2.42 82.67 5.4V66.27C82.67 69.25 80.25 71.67 77.27 71.67H5.4V71.66ZM3.53 16.29C2.93 16.29 2.44 16.78 2.44 17.38V66.27C2.44 67.9 3.77 69.22 5.39 69.22H77.26C78.89 69.22 80.21 67.89 80.21 66.27V17.37C80.21 16.77 79.72 16.28 79.12 16.28H3.53V16.29ZM5.4 2.44C3.77 2.44 2.45 3.77 2.45 5.39V12.75C2.45 13.35 2.94 13.84 3.54 13.84H79.14C79.74 13.84 80.23 13.35 80.23 12.75V5.39C80.23 3.76 78.9 2.44 77.28 2.44H5.4Z" fill="#133471"/>
<path d="M41.7497 50.6292C44.6989 50.6292 47.0897 48.2384 47.0897 45.2892C47.0897 42.34 44.6989 39.9492 41.7497 39.9492C38.8005 39.9492 36.4097 42.34 36.4097 45.2892C36.4097 48.2384 38.8005 50.6292 41.7497 50.6292Z" fill="#8BD4FA"/>
<path d="M35.9297 28.4803C36.0897 28.0803 36.4697 27.8203 36.8997 27.8203H46.6197C47.0497 27.8203 47.4297 28.0803 47.5897 28.4803L48.5797 30.9603H34.9297L35.9197 28.4803H35.9297Z" fill="#8BD4FA"/>
<path d="M58.0001 36.4308C58.5192 36.4308 58.9401 36.0099 58.9401 35.4908C58.9401 34.9716 58.5192 34.5508 58.0001 34.5508C57.4809 34.5508 57.0601 34.9716 57.0601 35.4908C57.0601 36.0099 57.4809 36.4308 58.0001 36.4308Z" fill="#133471"/>
<path d="M54.2198 36.4308C54.7389 36.4308 55.1598 36.0099 55.1598 35.4908C55.1598 34.9716 54.7389 34.5508 54.2198 34.5508C53.7006 34.5508 53.2798 34.9716 53.2798 35.4908C53.2798 36.0099 53.7006 36.4308 54.2198 36.4308Z" fill="#133471"/>
<path d="M41.94 50.6095C38.81 50.6095 36.27 48.0695 36.27 44.9395C36.27 41.8095 38.81 39.2695 41.94 39.2695C45.07 39.2695 47.61 41.8095 47.61 44.9395C47.61 48.0695 45.07 50.6095 41.94 50.6095ZM41.94 41.1595C39.86 41.1595 38.16 42.8595 38.16 44.9395C38.16 47.0195 39.86 48.7195 41.94 48.7195C44.02 48.7195 45.72 47.0195 45.72 44.9395C45.72 42.8595 44.02 41.1595 41.94 41.1595Z" fill="#133471"/>
<path d="M29.6497 36.4308H25.8697C25.3497 36.4308 24.9297 36.0108 24.9297 35.4908C24.9297 34.9708 25.3497 34.5508 25.8697 34.5508H29.6497C30.1697 34.5508 30.5897 34.9708 30.5897 35.4908C30.5897 36.0108 30.1697 36.4308 29.6497 36.4308Z" fill="#133471"/>
<path d="M57.9999 30.7591H50.1399L48.9599 27.8191C48.5299 26.7391 47.4899 26.0391 46.3299 26.0391H37.5499C36.3799 26.0391 35.3499 26.7391 34.9199 27.8191L33.7399 30.7591H30.5999V28.8691C30.5999 27.8291 29.7499 26.9791 28.7099 26.9791H26.8199C25.7799 26.9791 24.9299 27.8291 24.9299 28.8691V30.8591C22.7799 31.2991 21.1499 33.2091 21.1499 35.4891V53.4391C21.1499 56.0491 23.2699 58.1591 25.8699 58.1591H54.2299C54.7499 58.1591 55.1699 57.7391 55.1699 57.2191C55.1699 56.6991 54.7499 56.2791 54.2299 56.2791H25.8699C24.3099 56.2791 23.0399 55.0091 23.0399 53.4491V51.5591H35.1999C36.9199 53.3091 39.2999 54.3891 41.9399 54.3891C44.5799 54.3891 46.9599 53.2991 48.6799 51.5591H60.8399V53.4491C60.8399 55.0091 59.5699 56.2791 58.0099 56.2791H54.2299C53.7099 56.2791 53.2899 56.6991 53.2899 57.2191C53.2899 57.7391 53.7099 58.1591 54.2299 58.1591H58.0099C60.6199 58.1591 62.7299 56.0391 62.7299 53.4391V35.4891C62.7299 32.8791 60.6099 30.7591 58.0099 30.7591H57.9999ZM36.6699 28.5191C36.8099 28.1591 37.1599 27.9291 37.5499 27.9291H46.3299C46.7199 27.9291 47.0599 28.1591 47.2099 28.5191L48.1099 30.7591H35.7799L36.6799 28.5191H36.6699ZM28.7099 28.8791V30.7691H26.8199V28.8791H28.7099ZM25.8699 32.6491H57.9999C59.5599 32.6491 60.8299 33.9191 60.8299 35.4791V38.3091H48.6699C46.9499 36.5591 44.5699 35.4791 41.9299 35.4791C39.2899 35.4791 36.9099 36.5691 35.1899 38.3091H23.0299V35.4791C23.0299 33.9191 24.2999 32.6491 25.8599 32.6491H25.8699ZM23.0399 49.6591V40.2091H33.7699C32.9599 41.5991 32.4899 43.2091 32.4899 44.9291C32.4899 46.6491 32.9599 48.2591 33.7699 49.6491H23.0399V49.6591ZM41.9399 52.4991C37.7699 52.4991 34.3799 49.1091 34.3799 44.9391C34.3799 40.7691 37.7699 37.3791 41.9399 37.3791C46.1099 37.3791 49.4999 40.7691 49.4999 44.9391C49.4999 49.1091 46.1099 52.4991 41.9399 52.4991ZM50.1099 49.6591C50.9199 48.2691 51.3899 46.6591 51.3899 44.9391C51.3899 43.2191 50.9199 41.6091 50.1099 40.2191H60.8399V49.6691H50.1099V49.6591Z" fill="#133471"/>
</g>
<defs>
<clipPath id="clip0_12215_1248">
<rect width="82.66" height="71.66" fill="white"/>
</clipPath>
</defs>
</svg>
