<svg width="83" height="72" viewBox="0 0 83 72" fill="none" xmlns="http://www.w3.org/2000/svg">
<g clip-path="url(#clip0_12215_615)">
<path d="M80.6199 1.28906H1.62988V14.1991H80.6199V1.28906Z" fill="#8BD4FA"/>
<path d="M10.4497 9.87016C9.49973 9.87016 8.71973 9.10016 8.71973 8.14016C8.71973 7.18016 9.48973 6.41016 10.4497 6.41016C11.4097 6.41016 12.1797 7.18016 12.1797 8.14016C12.1797 9.10016 11.4097 9.87016 10.4497 9.87016Z" fill="#133471"/>
<path d="M18.6704 9.87016C17.7204 9.87016 16.9404 9.10016 16.9404 8.14016C16.9404 7.18016 17.7104 6.41016 18.6704 6.41016C19.6304 6.41016 20.4004 7.18016 20.4004 8.14016C20.4004 9.10016 19.6304 9.87016 18.6704 9.87016Z" fill="#133471"/>
<path d="M26.8902 9.87016C25.9402 9.87016 25.1602 9.10016 25.1602 8.14016C25.1602 7.18016 25.9302 6.41016 26.8902 6.41016C27.8502 6.41016 28.6202 7.18016 28.6202 8.14016C28.6202 9.10016 27.8502 9.87016 26.8902 9.87016Z" fill="#133471"/>
<path d="M5.4 71.66C2.42 71.66 0 69.24 0 66.26V5.4C0 2.42 2.42 0 5.4 0H77.27C80.25 0 82.67 2.42 82.67 5.4V66.27C82.67 69.25 80.25 71.67 77.27 71.67H5.4V71.66ZM3.53 16.29C2.93 16.29 2.44 16.78 2.44 17.38V66.27C2.44 67.9 3.77 69.22 5.39 69.22H77.26C78.89 69.22 80.21 67.89 80.21 66.27V17.37C80.21 16.77 79.72 16.28 79.12 16.28H3.53V16.29ZM5.4 2.44C3.77 2.44 2.45 3.77 2.45 5.39V12.75C2.45 13.35 2.94 13.84 3.54 13.84H79.14C79.74 13.84 80.23 13.35 80.23 12.75V5.39C80.23 3.76 78.9 2.44 77.28 2.44H5.4Z" fill="#133471"/>
<path d="M61.3405 56.2894C61.3405 58.5994 59.4705 60.4694 57.1605 60.4694C54.8505 60.4694 52.9805 58.5994 52.9805 56.2894C52.9805 53.9794 54.8505 52.1094 57.1605 52.1094C59.4705 52.1094 61.3405 53.9794 61.3405 56.2894Z" fill="#8DD0F3"/>
<path d="M46.6396 53.8214L49.2796 53.7814H51.6996C51.9597 53.7814 52.2096 53.6414 52.3396 53.4114C52.4896 53.1714 52.5896 53.0314 52.6896 52.8914C52.7596 52.7914 52.8496 52.7014 52.9296 52.6014C53.1196 52.3814 53.2796 52.2114 53.4596 52.0614C53.5696 51.9614 53.7096 51.8414 53.8596 51.7314C53.9696 51.6514 54.0796 51.5814 54.1996 51.5014C54.3696 51.3914 54.5496 51.2914 54.7596 51.2014C54.9096 51.1314 54.9896 51.0914 55.0696 51.0614C55.3096 50.9614 55.5696 50.8814 55.8496 50.8214C55.9396 50.8014 56.0296 50.7814 56.1196 50.7714C56.4996 50.7014 56.8096 50.6714 57.0996 50.6714C57.3896 50.6714 57.6996 50.7014 58.0696 50.7714C58.1696 50.7914 58.2596 50.8114 58.3496 50.8314C58.6296 50.9014 58.8897 50.9814 59.1297 51.0714C59.2097 51.1014 59.2896 51.1414 59.3696 51.1814C59.6496 51.3114 59.8296 51.4114 59.9996 51.5214C60.1296 51.6014 60.2396 51.6814 60.3496 51.7514C60.4996 51.8614 60.6396 51.9914 60.7496 52.0814C60.9296 52.2414 61.0896 52.4014 61.2496 52.5914C61.3696 52.7214 61.4396 52.8114 61.5196 52.9114C61.6196 53.0514 61.7196 53.1914 61.8196 53.3514L61.8797 53.4414C61.9997 53.6514 62.2396 53.7914 62.5096 53.7914H64.9296C65.3396 53.7914 65.6696 53.4614 65.6696 53.0514V45.2314C65.6696 44.8214 65.3396 44.4914 64.9296 44.4914H57.1096C56.6496 44.4914 56.2796 44.1214 56.2796 43.6614V35.8414C56.2796 35.4314 55.9496 35.1014 55.5396 35.1014H51.4096C50.9496 35.1014 50.5797 34.7314 50.5797 34.2714C50.5797 33.8114 50.9496 33.4414 51.4096 33.4414H61.7996C62.1196 33.4414 62.3996 33.6214 62.5396 33.9014L67.2096 43.2314C67.2996 43.4314 67.3297 43.5514 67.3297 43.6514V54.6014C67.3297 55.0614 66.9596 55.4314 66.4996 55.4314H63.3696C62.9596 55.4314 62.6297 55.7614 62.6297 56.1714C62.6297 59.2114 60.1496 61.6914 57.1096 61.6914C54.0696 61.6914 51.5896 59.2114 51.5896 56.1714C51.5896 55.7614 51.2596 55.4314 50.8496 55.4314H47.4496V53.8114L49.2796 53.7714L46.6396 53.8214ZM57.0996 52.3114C56.7596 52.3114 56.3996 52.3714 56.0196 52.4814L55.8496 52.5414C54.7496 52.9214 53.8897 53.7714 53.4897 54.8514C53.3097 55.3614 53.2296 55.7714 53.2296 56.1814C53.2296 58.3114 54.9596 60.0514 57.0996 60.0514C59.2396 60.0514 60.9697 58.3214 60.9697 56.1814C60.9697 55.7714 60.8997 55.3614 60.7397 54.9214C60.3197 53.7714 59.4597 52.9214 58.3596 52.5414L58.1796 52.4814C57.8096 52.3714 57.4496 52.3114 57.1096 52.3114H57.0996ZM58.6596 35.1014C58.2496 35.1014 57.9196 35.4314 57.9196 35.8414V42.1014C57.9196 42.5114 58.2496 42.8414 58.6596 42.8414H63.9496C64.1996 42.8414 64.4397 42.7114 64.5797 42.4914C64.7097 42.2714 64.7297 42.0014 64.6096 41.7714L61.4796 35.5114C61.3496 35.2614 61.0996 35.1014 60.8196 35.1014H58.6596Z" fill="#133471"/>
<path d="M57.0993 61.8198C53.9893 61.8198 51.4493 59.2898 51.4493 56.1698C51.4493 55.8298 51.1793 55.5598 50.8393 55.5598H47.4393C47.3693 55.5598 47.3193 55.4998 47.3193 55.4398V53.8198C47.3193 53.7498 47.3693 53.6998 47.4393 53.6998L49.2693 53.6598H51.6893C51.9093 53.6598 52.1093 53.5398 52.2193 53.3498C52.3793 53.0898 52.4793 52.9498 52.5793 52.8198C52.6493 52.7198 52.7393 52.6198 52.8293 52.5198C53.0193 52.2998 53.1793 52.1298 53.3693 51.9698C53.4993 51.8598 53.6293 51.7398 53.7793 51.6298C53.8893 51.5498 53.9993 51.4698 54.1293 51.3898C54.3093 51.2798 54.4993 51.1698 54.6993 51.0798L54.7893 51.0398C54.8893 50.9998 54.9493 50.9698 55.0093 50.9398C55.2493 50.8398 55.5093 50.7598 55.8093 50.6898C55.9093 50.6698 55.9893 50.6498 56.0893 50.6298C56.8493 50.4898 57.3193 50.4898 58.0793 50.6298C58.1793 50.6498 58.2693 50.6698 58.3593 50.6898C58.6493 50.7598 58.9093 50.8398 59.1593 50.9398C59.2193 50.9698 59.2893 50.9998 59.3493 51.0298L59.4093 51.0598C59.6793 51.1898 59.8693 51.2898 60.0493 51.3998C60.1793 51.4798 60.2993 51.5598 60.4093 51.6398C60.5493 51.7398 60.6793 51.8598 60.7893 51.9498L60.8193 51.9798C60.9993 52.1298 61.1593 52.3098 61.3393 52.4998C61.4593 52.6298 61.5393 52.7298 61.6093 52.8298C61.7193 52.9798 61.8193 53.1298 61.9093 53.2798C61.9093 53.2898 61.9493 53.3498 61.9693 53.3598C62.0793 53.5498 62.2893 53.6598 62.4993 53.6598H64.9193C65.2593 53.6598 65.5293 53.3898 65.5293 53.0498V45.2298C65.5293 44.8898 65.2593 44.6198 64.9193 44.6198H57.0993C56.5693 44.6198 56.1493 44.1898 56.1493 43.6698V35.8498C56.1493 35.5098 55.8793 35.2398 55.5393 35.2398H51.4093C50.8793 35.2398 50.4593 34.8098 50.4593 34.2898C50.4593 33.7698 50.8893 33.3398 51.4093 33.3398H61.7993C62.1593 33.3398 62.4893 33.5398 62.6493 33.8698L67.3093 43.1998C67.3993 43.4198 67.4393 43.5498 67.4393 43.6798V54.6298C67.4393 55.1598 67.0093 55.5798 66.4893 55.5798H63.3593C63.0193 55.5798 62.7493 55.8498 62.7493 56.1898C62.7493 59.2998 60.2193 61.8398 57.0993 61.8398V61.8198ZM47.5693 55.3098H50.8393C51.3193 55.3098 51.6993 55.6998 51.6993 56.1698C51.6993 59.1498 54.1193 61.5698 57.0993 61.5698C60.0793 61.5698 62.4993 59.1498 62.4993 56.1698C62.4993 55.6998 62.8893 55.3098 63.3593 55.3098H66.4893C66.8793 55.3098 67.1893 54.9898 67.1893 54.6098V43.6598C67.1893 43.5798 67.1693 43.4898 67.0793 43.2798L62.4193 33.9498C62.2993 33.7098 62.0593 33.5598 61.7893 33.5598H51.3993C51.0093 33.5598 50.6993 33.8798 50.6993 34.2598C50.6993 34.6398 51.0193 34.9598 51.3993 34.9598H55.5293C55.9993 34.9598 56.3893 35.3498 56.3893 35.8198V43.6398C56.3893 44.0298 56.7093 44.3398 57.0893 44.3398H64.9093C65.3893 44.3398 65.7693 44.7298 65.7693 45.1998V53.0198C65.7693 53.4998 65.3793 53.8798 64.9093 53.8798H62.4893C62.1893 53.8798 61.8993 53.7198 61.7493 53.4598C61.7393 53.4398 61.6893 53.3698 61.6793 53.3598C61.5993 53.2198 61.4993 53.0798 61.3893 52.9398C61.3193 52.8498 61.2393 52.7598 61.1293 52.6298C60.9593 52.4398 60.7993 52.2798 60.6393 52.1298L60.6093 52.0998C60.5093 52.0098 60.3793 51.8998 60.2493 51.7998C60.1493 51.7198 60.0393 51.6498 59.9093 51.5698C59.7393 51.4598 59.5593 51.3598 59.2893 51.2398L59.2393 51.2098C59.1793 51.1798 59.1193 51.1598 59.0593 51.1298C58.8293 51.0398 58.5793 50.9598 58.2993 50.8898C58.2093 50.8698 58.1193 50.8498 58.0293 50.8298C57.2993 50.6998 56.8593 50.6998 56.1293 50.8298C56.0393 50.8398 55.9593 50.8598 55.8693 50.8798C55.5793 50.9498 55.3293 51.0298 55.0993 51.1198C55.0393 51.1398 54.9793 51.1698 54.8893 51.2098L54.7993 51.2498C54.6093 51.3398 54.4293 51.4398 54.2493 51.5498C54.1293 51.6298 54.0193 51.6998 53.9093 51.7798C53.7693 51.8798 53.6393 51.9998 53.5093 52.1098C53.3393 52.2698 53.1793 52.4298 52.9893 52.6398C52.9093 52.7298 52.8293 52.8198 52.7593 52.9198C52.6593 53.0498 52.5693 53.1798 52.4193 53.4298C52.2693 53.6898 51.9793 53.8598 51.6693 53.8598H49.2493L47.5393 53.8898V55.2598L47.5693 55.3098ZM57.0993 60.1598C54.8993 60.1598 53.1093 58.3698 53.1093 56.1698C53.1093 55.7298 53.1893 55.3098 53.3693 54.7998C53.7793 53.6798 54.6693 52.8098 55.8093 52.4098L55.9893 52.3498C56.7893 52.1098 57.4393 52.1198 58.2093 52.3498L58.3893 52.4098C59.5493 52.8198 60.4193 53.6898 60.8493 54.8698C61.0093 55.3198 61.0793 55.7498 61.0793 56.1698C61.0793 58.3698 59.2893 60.1598 57.0893 60.1598H57.0993ZM57.0993 52.4298C56.7693 52.4298 56.4293 52.4798 56.0593 52.5898L55.8893 52.6398C54.8293 53.0098 53.9993 53.8298 53.6093 54.8698C53.4393 55.3498 53.3593 55.7498 53.3593 56.1598C53.3593 58.2198 55.0393 59.8998 57.0993 59.8998C59.1593 59.8998 60.8393 58.2198 60.8393 56.1598C60.8393 55.7598 60.7693 55.3698 60.6193 54.9398C60.2093 53.8298 59.3893 53.0098 58.3093 52.6298L58.1293 52.5698C57.7693 52.4598 57.4293 52.4098 57.0893 52.4098L57.0993 52.4298ZM63.9493 42.9498H58.6593C58.1893 42.9498 57.7993 42.5598 57.7993 42.0898V35.8298C57.7993 35.3598 58.1893 34.9698 58.6593 34.9698H60.8193C61.1493 34.9698 61.4393 35.1498 61.5893 35.4498L64.7193 41.7098C64.8493 41.9798 64.8393 42.2998 64.6793 42.5498C64.5293 42.7998 64.2493 42.9598 63.9493 42.9598V42.9498ZM58.6593 35.2198C58.3193 35.2198 58.0493 35.4898 58.0493 35.8298V42.0898C58.0493 42.4298 58.3193 42.6998 58.6593 42.6998H63.9493C64.1593 42.6998 64.3593 42.5898 64.4693 42.4098C64.5793 42.2298 64.5893 41.9998 64.4993 41.8098L61.3693 35.5498C61.2693 35.3398 61.0593 35.2098 60.8193 35.2098H58.6593V35.2198Z" fill="#133471"/>
<path d="M18.3906 55.0778C18.0906 55.0778 17.8506 54.8378 17.8506 54.5378V32.5478C17.8506 32.2478 18.0906 32.0078 18.3906 32.0078H26.5306C26.8306 32.0078 27.0706 32.2478 27.0706 32.5478C27.0706 32.8478 26.8306 33.0878 26.5306 33.0878H18.9306V54.5378C18.9306 54.8378 18.6906 55.0778 18.3906 55.0778Z" fill="#133471"/>
<path d="M18.3906 55.2908C17.9806 55.2908 17.6406 54.9508 17.6406 54.5408V32.5508C17.6406 32.1408 17.9806 31.8008 18.3906 31.8008H26.5306C26.9406 31.8008 27.2806 32.1408 27.2806 32.5508C27.2806 32.9608 26.9406 33.3008 26.5306 33.3008H19.1406V54.5408C19.1406 54.9508 18.8006 55.2908 18.3906 55.2908ZM18.3906 32.2208C18.2106 32.2208 18.0606 32.3708 18.0606 32.5508V54.5408C18.0606 54.7208 18.2106 54.8708 18.3906 54.8708C18.5706 54.8708 18.7206 54.7208 18.7206 54.5408V32.8908H26.5206C26.7006 32.8908 26.8506 32.7408 26.8506 32.5608C26.8506 32.3808 26.7006 32.2308 26.5206 32.2308H18.3806L18.3906 32.2208Z" fill="#133471"/>
<path d="M18.3905 55.4097C17.9105 55.4097 17.5205 55.0197 17.5205 54.5397V32.5497C17.5205 32.0697 17.9105 31.6797 18.3905 31.6797H26.5305C27.0105 31.6797 27.4005 32.0697 27.4005 32.5497C27.4005 33.0297 27.0105 33.4197 26.5305 33.4197H19.2705V54.5297C19.2705 55.0097 18.8805 55.3997 18.4005 55.3997L18.3905 55.4097ZM18.3905 31.9297C18.0505 31.9297 17.7705 32.2097 17.7705 32.5497V54.5397C17.7705 54.8797 18.0505 55.1597 18.3905 55.1597C18.7305 55.1597 19.0105 54.8797 19.0105 54.5397V33.2997C19.0105 33.2297 19.0705 33.1797 19.1305 33.1797H26.5205C26.8605 33.1797 27.1405 32.8997 27.1405 32.5597C27.1405 32.2197 26.8605 31.9397 26.5205 31.9397H18.3805L18.3905 31.9297ZM18.3905 54.9997C18.1405 54.9997 17.9305 54.7997 17.9305 54.5397V32.5497C17.9305 32.2997 18.1305 32.0897 18.3905 32.0897H26.5305C26.7805 32.0897 26.9905 32.2997 26.9905 32.5497C26.9905 32.7997 26.7905 33.0097 26.5305 33.0097H18.8505V54.5397C18.8505 54.7897 18.6505 54.9997 18.3905 54.9997ZM18.3905 32.3497C18.2805 32.3497 18.1805 32.4397 18.1805 32.5597V54.5497C18.1805 54.6597 18.2705 54.7597 18.3905 54.7597C18.5105 54.7597 18.6005 54.6697 18.6005 54.5497V32.8997C18.6005 32.8297 18.6605 32.7797 18.7205 32.7797H26.5205C26.6305 32.7797 26.7305 32.6897 26.7305 32.5697C26.7305 32.4497 26.6405 32.3597 26.5205 32.3597H18.3805L18.3905 32.3497Z" fill="#133471"/>
<path d="M47.44 55.1834H18.54C18.24 55.1834 18 54.9434 18 54.6434C18 54.3434 18.24 54.1034 18.54 54.1034H46.9V33.1034H39.3C39 33.1034 38.76 32.8634 38.76 32.5634C38.76 32.2634 39 32.0234 39.3 32.0234H47.44C47.74 32.0234 47.98 32.2634 47.98 32.5634V54.6434C47.98 54.9434 47.74 55.1834 47.44 55.1834Z" fill="#133471"/>
<path d="M47.4402 55.4417H18.5402C18.1002 55.4417 17.7402 55.0817 17.7402 54.6417C17.7402 54.2017 18.1002 53.8417 18.5402 53.8417H46.6402V33.3617H39.3002C38.8602 33.3617 38.5002 33.0017 38.5002 32.5617C38.5002 32.1217 38.8602 31.7617 39.3002 31.7617H47.4402C47.8802 31.7617 48.2402 32.1217 48.2402 32.5617V54.6417C48.2402 55.0817 47.8802 55.4417 47.4402 55.4417ZM18.5502 54.3617C18.4002 54.3617 18.2702 54.4917 18.2702 54.6417C18.2702 54.7917 18.4002 54.9217 18.5502 54.9217H47.4502C47.6002 54.9217 47.7302 54.7917 47.7302 54.6417V32.5617C47.7302 32.4117 47.6002 32.2817 47.4502 32.2817H39.3102C39.1602 32.2817 39.0302 32.4117 39.0302 32.5617C39.0302 32.7117 39.1602 32.8417 39.3102 32.8417H47.1702V54.3717H18.5502V54.3617Z" fill="#133471"/>
<path d="M47.4401 55.5628H18.5401C18.0301 55.5628 17.6201 55.1428 17.6201 54.6428C17.6201 54.1428 18.0301 53.7128 18.5401 53.7128H46.5101V33.4828H39.3001C38.7901 33.4828 38.3801 33.0628 38.3801 32.5628C38.3801 32.0628 38.7901 31.6328 39.3001 31.6328H47.4401C47.9501 31.6328 48.3601 32.0428 48.3601 32.5628V54.6428C48.3601 55.1528 47.9501 55.5628 47.4401 55.5628ZM18.5501 53.9628C18.1801 53.9628 17.8801 54.2628 17.8801 54.6428C17.8801 55.0228 18.1801 55.3128 18.5501 55.3128H47.4501C47.8201 55.3128 48.1201 55.0128 48.1201 54.6428V32.5628C48.1201 32.1928 47.8201 31.8828 47.4501 31.8828H39.3101C38.9401 31.8828 38.6401 32.1828 38.6401 32.5628C38.6401 32.9428 38.9401 33.2328 39.3101 33.2328H46.6501C46.7201 33.2328 46.7701 33.2928 46.7701 33.3528V53.8328C46.7701 53.9028 46.7101 53.9528 46.6501 53.9528H18.5501V53.9628ZM47.4401 55.0428H18.5401C18.3201 55.0428 18.1401 54.8628 18.1401 54.6428C18.1401 54.4228 18.3201 54.2428 18.5401 54.2428H47.0401V32.9628H39.3101C39.0901 32.9628 38.9101 32.7828 38.9101 32.5628C38.9101 32.3428 39.0901 32.1628 39.3101 32.1628H47.4501C47.6701 32.1628 47.8501 32.3428 47.8501 32.5628V54.6428C47.8501 54.8628 47.6701 55.0428 47.4501 55.0428H47.4401ZM18.5501 54.4828C18.4701 54.4828 18.4001 54.5528 18.4001 54.6328C18.4001 54.7128 18.4701 54.7828 18.5501 54.7828H47.4501C47.5301 54.7828 47.6001 54.7128 47.6001 54.6328V32.5528C47.6001 32.4728 47.5301 32.4028 47.4501 32.4028H39.3101C39.2301 32.4028 39.1601 32.4728 39.1601 32.5528C39.1601 32.6328 39.2301 32.7028 39.3101 32.7028H47.1701C47.2401 32.7028 47.2901 32.7628 47.2901 32.8228V54.3528C47.2901 54.4228 47.2301 54.4728 47.1701 54.4728H18.5501V54.4828Z" fill="#133471"/>
<path d="M47.4408 33.0897H39.3008C39.0008 33.0897 38.7608 32.8497 38.7608 32.5497C38.7608 32.2497 39.0008 32.0097 39.3008 32.0097L46.9708 32.2097L47.1308 24.4997H19.0508V31.9997H26.5108C26.8108 31.9997 27.0508 32.2397 27.0508 32.5397C27.0508 32.8397 26.8108 33.0797 26.5108 33.0797H18.3708C18.2108 33.0797 18.0508 33.0097 17.9508 32.8797C17.8508 32.7497 17.8108 32.5797 17.8408 32.4297L18.0808 23.8497C18.1308 23.5997 18.3508 23.4297 18.6108 23.4297H47.5508C47.8008 23.4297 48.0208 23.6097 48.0808 23.8497L47.9608 32.4297C48.0008 32.5897 47.9608 32.7597 47.8508 32.8797C47.7508 33.0097 47.5908 33.0797 47.4308 33.0797L47.4408 33.0897Z" fill="#133471"/>
<path d="M48.3004 23.8127C48.2204 23.4727 47.9204 23.2227 47.5704 23.2227L18.3404 23.4027C17.9904 23.4027 17.6904 23.6427 17.6104 23.9927L17.6504 32.4127C17.6104 32.6327 17.6604 32.8527 17.8004 33.0227C17.9404 33.2027 18.1604 33.3027 18.3804 33.3027H26.5204C26.9304 33.3027 27.2704 32.9627 27.2704 32.5527C27.2704 32.1427 26.9304 31.8027 26.5204 31.8027L19.0604 32.0127V24.7127H46.6304L46.5504 31.8027H39.3004C38.8904 31.8027 38.5504 32.1427 38.5504 32.5527C38.5504 32.9627 38.8904 33.3027 39.3004 33.3027H47.4403C47.6703 33.3027 47.8804 33.2027 48.0204 33.0227C48.1604 32.8527 48.2104 32.6327 48.1703 32.4227L48.2904 23.8627V23.8427V23.8227L48.3004 23.8127ZM47.7704 32.4827C47.7904 32.5827 47.7703 32.6827 47.7104 32.7627C47.6504 32.8427 47.5504 32.8827 47.4504 32.8827H39.3104C39.1304 32.8827 38.9804 32.7327 38.9804 32.5527C38.9804 32.3727 39.1304 32.2227 39.3104 32.2227H46.9704L47.3503 24.3027H18.8504V32.2227H26.5204C26.7004 32.2227 26.8504 32.3727 26.8504 32.5527C26.8504 32.7327 26.7004 32.8827 26.5204 32.8827H18.3804C18.2804 32.8827 18.1804 32.8327 18.1204 32.7627C18.0604 32.6827 18.0304 32.5827 18.0604 32.4827L18.3004 23.8827C18.3404 23.7427 18.4704 23.6427 18.6204 23.6427H47.5604C47.7104 23.6427 47.8404 23.7427 47.8804 23.8827L47.7603 32.4427V32.4627V32.4827H47.7704Z" fill="#133471"/>
<path d="M47.4405 33.4316H39.3005C38.8205 33.4316 38.4305 33.0416 38.4305 32.5616C38.4305 32.0816 38.8205 31.6916 39.3005 31.6916H46.4305L46.5005 24.8516H19.1805V31.8916L26.5105 31.6916C27.0005 31.6916 27.3905 32.0816 27.3905 32.5616C27.3905 33.0416 27.0005 33.4316 26.5205 33.4316H18.3805C18.1105 33.4316 17.8705 33.3116 17.7005 33.1016C17.5405 32.9016 17.4805 32.6416 17.5205 32.3916L17.4805 23.9916C17.5705 23.5616 17.9205 23.2816 18.3405 23.2816L47.5605 23.1016C47.9705 23.1016 48.3205 23.3816 48.4105 23.7816V23.8016C48.4105 23.8016 48.4105 23.8216 48.4105 23.8316L48.2905 32.4116C48.3305 32.6416 48.2705 32.8916 48.1105 33.0916C47.9405 33.3016 47.6905 33.4216 47.4305 33.4216L47.4405 33.4316ZM39.3105 31.9316C38.9705 31.9316 38.6905 32.2116 38.6905 32.5516C38.6905 32.8916 38.9705 33.1716 39.3105 33.1716H47.4505C47.6405 33.1716 47.8205 33.0916 47.9405 32.9416C48.0505 32.8016 48.1005 32.6116 48.0705 32.4416L48.1905 23.8516V23.8316C48.1305 23.5416 47.8805 23.3416 47.5805 23.3416L20.7105 23.5116H47.5805C47.7905 23.5116 47.9605 23.6416 48.0205 23.8416C48.0205 23.8516 48.0205 23.8616 48.0205 23.8816L47.9005 32.4416V32.4616C47.9305 32.6016 47.9005 32.7416 47.8105 32.8416C47.7205 32.9516 47.5905 33.0116 47.4505 33.0116H39.3105C39.0605 33.0116 38.8505 32.8116 38.8505 32.5516C38.8505 32.2916 39.0505 32.0916 39.3105 32.0916H46.8505L47.2205 24.4216H18.9705V24.6216C18.9705 24.6216 19.0205 24.5816 19.0605 24.5816H46.6305C46.6305 24.5816 46.7005 24.5916 46.7205 24.6216C46.7405 24.6416 46.7605 24.6816 46.7605 24.7116L46.6805 31.8016C46.6805 31.8716 46.6205 31.9216 46.5605 31.9216H39.3105V31.9316ZM18.5205 23.5316H18.3505C18.0505 23.5316 17.8005 23.7316 17.7405 24.0216L17.7805 32.4216C17.7405 32.6216 17.7805 32.8116 17.9005 32.9516C18.0205 33.1016 18.2005 33.1816 18.3905 33.1816H26.5305C26.8705 33.1816 27.1505 32.9016 27.1505 32.5616C27.1505 32.2216 26.8705 31.9416 26.5305 31.9416L20.5705 32.1116H26.5305C26.7805 32.1116 26.9905 32.3216 26.9905 32.5716C26.9905 32.8216 26.7905 33.0316 26.5305 33.0316H18.3905C18.2505 33.0316 18.1205 32.9716 18.0405 32.8616C17.9505 32.7516 17.9205 32.6116 17.9505 32.4716L18.1905 23.8916C18.2405 23.7116 18.3705 23.5816 18.5205 23.5416V23.5316ZM39.3105 32.3516C39.2005 32.3516 39.1005 32.4416 39.1005 32.5616C39.1005 32.6816 39.1905 32.7716 39.3105 32.7716H47.4505C47.5105 32.7716 47.5705 32.7416 47.6105 32.6916C47.6505 32.6416 47.6605 32.5816 47.6505 32.5216V32.5016C47.6505 32.5016 47.6505 32.4816 47.6505 32.4616L47.7705 23.9016C47.7405 23.8216 47.6605 23.7716 47.5805 23.7716H18.6405C18.5505 23.7716 18.4705 23.8316 18.4405 23.9216L18.2005 32.4916C18.1805 32.5816 18.2005 32.6416 18.2405 32.6916C18.2805 32.7416 18.3405 32.7716 18.4005 32.7716H26.5405C26.6505 32.7716 26.7505 32.6816 26.7505 32.5616C26.7505 32.4416 26.6605 32.3516 26.5405 32.3516H18.8705C18.8005 32.3516 18.7505 32.2916 18.7505 32.2316V24.3116C18.7505 24.2416 18.8105 24.1916 18.8705 24.1916H47.3705C47.3705 24.1916 47.4405 24.2016 47.4605 24.2316C47.4805 24.2516 47.5005 24.2916 47.4905 24.3216L47.1105 32.2416C47.1105 32.3116 47.0505 32.3616 46.9905 32.3616H39.3305L39.3105 32.3516Z" fill="#133471"/>
<path d="M37.2806 32.5625H29.1406V40.7025H37.2806V32.5625Z" fill="#8DD0F3"/>
<path d="M37.2806 41.2317H29.1406C28.8406 41.2317 28.6006 40.9917 28.6006 40.6917V32.5517C28.6006 32.2517 28.8406 32.0117 29.1406 32.0117H37.2806C37.5806 32.0117 37.8206 32.2517 37.8206 32.5517V40.6917C37.8206 40.9917 37.5806 41.2317 37.2806 41.2317ZM29.6806 40.1517H36.7406V33.0917H29.6806V40.1517Z" fill="#133471"/>
<path d="M37.2806 41.4408H29.1406C28.7306 41.4408 28.3906 41.1008 28.3906 40.6908V32.5508C28.3906 32.1408 28.7306 31.8008 29.1406 31.8008H37.2806C37.6906 31.8008 38.0306 32.1408 38.0306 32.5508V40.6908C38.0306 41.1008 37.6906 41.4408 37.2806 41.4408ZM29.1406 32.2208C28.9606 32.2208 28.8106 32.3708 28.8106 32.5508V40.6908C28.8106 40.8708 28.9606 41.0208 29.1406 41.0208H37.2806C37.4606 41.0208 37.6106 40.8708 37.6106 40.6908V32.5508C37.6106 32.3708 37.4606 32.2208 37.2806 32.2208H29.1406ZM36.9506 40.3608H29.4806V32.8908H36.9506V40.3608ZM29.8906 39.9408H36.5306V33.3008H29.8906V39.9408Z" fill="#133471"/>
<path d="M29.7906 23.9727H36.6306L37.2806 32.5627H29.1406L29.7906 23.9727Z" fill="#8DD0F3"/>
<path d="M37.2806 33.0897H29.1406C28.9906 33.0897 28.8506 33.0297 28.7506 32.9197C28.6506 32.8097 28.6006 32.6697 28.6006 32.5197L29.2506 23.9397C29.2706 23.6597 29.5006 23.4297 29.7906 23.4297H36.6406C36.9306 23.4297 37.1606 23.6497 37.1806 23.9397L37.8306 32.5197C37.8306 32.6697 37.7906 32.8097 37.6806 32.9197C37.5706 33.0297 37.4406 33.0897 37.2906 33.0897H37.2806ZM29.7206 32.0197H36.7106L36.1306 24.5197H30.3006L29.7206 32.0197Z" fill="#133471"/>
<path d="M37.2804 33.3009H29.1404C28.9304 33.3009 28.7404 33.2109 28.6004 33.0609C28.4604 32.9109 28.3904 32.7109 28.4004 32.5009L29.0504 23.9109C29.0704 23.5209 29.4004 23.2109 29.8004 23.2109H36.6504C37.0404 23.2109 37.3704 23.5209 37.4004 23.9109L38.0404 32.4909C38.0504 32.7009 37.9804 32.9009 37.8404 33.0509C37.7004 33.2009 37.5004 33.2909 37.3004 33.2909L37.2804 33.3009ZM29.7904 23.6409C29.6204 23.6409 29.4704 23.7809 29.4604 23.9509L28.8104 32.5409C28.8104 32.6309 28.8404 32.7209 28.9004 32.7809C28.9604 32.8509 29.0504 32.8809 29.1404 32.8809H37.2804C37.3704 32.8809 37.4604 32.8409 37.5204 32.7809C37.5804 32.7109 37.6104 32.6209 37.6104 32.5309L36.9604 23.9509C36.9504 23.7709 36.8004 23.6409 36.6304 23.6409H29.7804H29.7904ZM36.9304 32.2209H29.4904L30.1004 24.3009H36.3204L36.9304 32.2209ZM29.9404 31.8109H36.4804L35.9304 24.7209H30.4804L29.9304 31.8109H29.9404Z" fill="#133471"/>
<path d="M35.2396 56.4723C35.2396 59.1323 33.0796 61.2923 30.4196 61.2923C27.7596 61.2923 25.5996 59.1323 25.5996 56.4723C25.5996 53.8123 27.7596 51.6523 30.4196 51.6523C33.0796 51.6523 35.2396 53.8123 35.2396 56.4723Z" fill="#8DD0F3"/>
<path d="M30.4201 62.0219C27.3601 62.0219 24.8701 59.5319 24.8701 56.4719C24.8701 53.4119 27.3601 50.9219 30.4201 50.9219C33.4801 50.9219 35.9701 53.4119 35.9701 56.4719C35.9701 59.5319 33.4801 62.0219 30.4201 62.0219ZM30.4201 52.5719C28.2701 52.5719 26.5201 54.3219 26.5201 56.4719C26.5201 58.6219 28.2701 60.3719 30.4201 60.3719C32.5701 60.3719 34.3201 58.6219 34.3201 56.4719C34.3201 54.3219 32.5701 52.5719 30.4201 52.5719Z" fill="#133471"/>
<path d="M30.42 62.1408C27.29 62.1408 24.75 59.6008 24.75 56.4708C24.75 53.3408 27.3 50.8008 30.42 50.8008C33.54 50.8008 36.09 53.3508 36.09 56.4708C36.09 59.5908 33.54 62.1408 30.42 62.1408ZM30.42 51.0408C27.43 51.0408 25 53.4708 25 56.4608C25 59.4508 27.43 61.8808 30.42 61.8808C33.41 61.8808 35.84 59.4508 35.84 56.4608C35.84 53.4708 33.41 51.0408 30.42 51.0408ZM30.42 60.4908C28.2 60.4908 26.4 58.6908 26.4 56.4708C26.4 54.2508 28.21 52.4508 30.42 52.4508C32.63 52.4508 34.44 54.2608 34.44 56.4708C34.44 58.6808 32.63 60.4908 30.42 60.4908ZM30.42 52.6908C28.34 52.6908 26.65 54.3808 26.65 56.4608C26.65 58.5408 28.34 60.2308 30.42 60.2308C32.5 60.2308 34.19 58.5408 34.19 56.4608C34.19 54.3808 32.5 52.6908 30.42 52.6908Z" fill="#133471"/>
<path d="M34.92 53.2305C34.92 53.2305 35.27 53.8905 36.09 53.8405L36.05 54.5905H34.76L33.96 53.7905L34.93 53.2405L34.92 53.2305Z" fill="#133471"/>
<path d="M37.4596 55.4294C37.4596 55.4294 36.0296 55.3294 35.9696 56.3894L35.3496 55.4794L36.1696 54.4794L37.2996 54.3594L37.4496 55.4394L37.4596 55.4294Z" fill="#133471"/>
<path d="M24.4104 45.5709L26.0804 43.7109H24.8604L23.6004 45.2009V43.7109H22.6504V47.9909H23.6004V46.3909L23.7504 46.2209L25.0004 47.9909H26.1304L24.4104 45.5709Z" fill="#133471"/>
<path d="M27.9303 44.7383C26.9603 44.7383 26.2803 45.4283 26.2803 46.4183C26.2803 47.4083 26.9403 48.0483 27.8803 48.0483C28.6803 48.0483 29.5403 47.5183 29.5403 46.3683C29.5403 45.4083 28.8803 44.7383 27.9303 44.7383ZM27.9203 45.5283C28.4403 45.5283 28.5803 46.0883 28.5803 46.3783C28.5803 46.8783 28.3003 47.2483 27.9103 47.2483C27.5203 47.2483 27.2403 46.8883 27.2403 46.3983C27.2403 45.9983 27.4203 45.5283 27.9303 45.5283H27.9203Z" fill="#133471"/>
<path d="M31.7807 44.7583C31.7107 44.7383 31.6507 44.7383 31.5807 44.7383C31.3307 44.7383 31.1007 44.8183 30.9207 44.9683V44.7983H30.0107L30.0307 45.0183C30.0507 45.2483 30.0507 45.5083 30.0507 45.8683V47.9783H31.0107V46.2883C31.0107 46.2183 31.0207 46.1483 31.0307 46.0983C31.0807 45.8683 31.2407 45.6183 31.5507 45.6183C31.6107 45.6183 31.6507 45.6183 31.6907 45.6283L31.9407 45.6783V44.7783L31.7807 44.7383V44.7583Z" fill="#133471"/>
<path d="M34.3105 45.5402V46.3602H35.1305V47.1502C35.0205 47.1702 34.8605 47.1902 34.6405 47.1902C33.7905 47.1902 33.2905 46.6902 33.2905 45.8402C33.2905 44.9902 33.8205 44.5002 34.7105 44.5002C35.1205 44.5002 35.3605 44.5802 35.5205 44.6502L35.7305 44.7402L35.9805 43.9402L35.8105 43.8602C35.6005 43.7602 35.2105 43.6602 34.7105 43.6602C33.2805 43.6602 32.3105 44.5402 32.3105 45.8602C32.3105 46.5002 32.5405 47.0802 32.9405 47.4502C33.3605 47.8302 33.9005 48.0102 34.5905 48.0102C35.1305 48.0102 35.6005 47.8902 35.9005 47.7902L36.0405 47.7402V45.5302H34.2905L34.3105 45.5402Z" fill="#133471"/>
<path d="M38.0302 44.7383C37.1002 44.7383 36.4502 45.4283 36.4502 46.4183C36.4502 47.4083 37.0802 48.0483 37.9902 48.0483C38.7502 48.0483 39.5802 47.5183 39.5802 46.3683C39.5802 45.4083 38.9502 44.7383 38.0402 44.7383H38.0302ZM38.0202 45.5283C38.5102 45.5283 38.6402 46.0883 38.6402 46.3783C38.6402 46.8783 38.3702 47.2483 38.0102 47.2483C37.6502 47.2483 37.3802 46.8883 37.3802 46.3983C37.3802 45.9983 37.5502 45.5283 38.0202 45.5283Z" fill="#133471"/>
<path d="M42.9105 47.7608C42.8905 47.5708 42.8905 47.3308 42.8905 47.0208V44.8008H41.9405V46.7108C41.9405 46.7708 41.9305 46.8408 41.9105 46.8808C41.8405 47.0408 41.6605 47.2108 41.4105 47.2108C41.2705 47.2108 40.9705 47.2108 40.9705 46.5408V44.8008H40.0205V46.6308C40.0205 47.5208 40.4705 48.0508 41.2305 48.0508C41.5805 48.0508 41.8405 47.9308 42.0205 47.8008V47.9908H42.9205L42.9005 47.7608H42.9105Z" fill="#133471"/>
<path d="M48.3696 24.6719H47.3496V35.7119H48.3696V24.6719Z" fill="#133471"/>
<path d="M18.5796 24.6719H17.5596V35.7119H18.5796V24.6719Z" fill="#133471"/>
</g>
<defs>
<clipPath id="clip0_12215_615">
<rect width="82.66" height="71.66" fill="white"/>
</clipPath>
</defs>
</svg>
