<svg width="14" height="15" viewBox="0 0 14 15" fill="none" xmlns="http://www.w3.org/2000/svg">
<path d="M10.4029 1.66797H3.5973C2.95268 1.66797 2.33446 1.92404 1.87864 2.37986C1.42282 2.83568 1.16675 3.4539 1.16675 4.09852C1.16675 4.4853 1.32039 4.85623 1.59388 5.12972C1.86737 5.40321 2.23831 5.55686 2.62508 5.55686H11.3751C11.7448 5.56137 12.1021 5.42388 12.3735 5.17272C12.6448 4.92156 12.8094 4.57588 12.8334 4.20693C12.8477 3.87882 12.7954 3.55122 12.6798 3.24386C12.5641 2.93649 12.3873 2.65574 12.1602 2.4185C11.9331 2.18127 11.6603 1.99247 11.3583 1.86348C11.0563 1.73449 10.7313 1.66799 10.4029 1.66797Z" fill="#3966AE"/>
<path d="M11.8613 6.52903H2.13907C2.01014 6.52903 1.8865 6.58025 1.79533 6.67141C1.70417 6.76257 1.65295 6.88622 1.65295 7.01514V10.904C1.65373 11.5484 1.91005 12.1662 2.3657 12.6218C2.82135 13.0775 3.43912 13.3338 4.08351 13.3346H9.91684C10.5612 13.3338 11.179 13.0775 11.6347 12.6218C12.0903 12.1662 12.3466 11.5484 12.3474 10.904V7.01514C12.3474 6.88622 12.2962 6.76257 12.205 6.67141C12.1139 6.58025 11.9902 6.52903 11.8613 6.52903ZM8.45851 8.95959H5.54184C5.41292 8.95959 5.28927 8.90837 5.19811 8.81721C5.10695 8.72605 5.05573 8.6024 5.05573 8.47348C5.05573 8.34455 5.10695 8.22091 5.19811 8.12975C5.28927 8.03858 5.41292 7.98737 5.54184 7.98737H8.45851C8.58743 7.98737 8.71108 8.03858 8.80224 8.12975C8.89341 8.22091 8.94462 8.34455 8.94462 8.47348C8.94462 8.6024 8.89341 8.72605 8.80224 8.81721C8.71108 8.90837 8.58743 8.95959 8.45851 8.95959Z" fill="#3966AE"/>
</svg>
