<svg width="25" height="24" viewBox="0 0 25 24" fill="none" xmlns="http://www.w3.org/2000/svg">
<path fill-rule="evenodd" clip-rule="evenodd" d="M23.0815 8.48493V17.5613C23.0815 19.1104 21.8161 20.354 20.2888 20.354H4.90699C3.35789 20.354 2.11426 19.1104 2.11426 17.5613V8.48493C2.11426 6.93584 3.35789 5.6922 4.90699 5.6922H7.13244C7.69971 5.6922 8.20153 5.40857 8.5288 4.95038C9.09608 4.09947 10.0343 3.59766 11.0597 3.59766H14.1361C15.1615 3.59766 16.0997 4.09947 16.667 4.95038C16.9724 5.40857 17.4961 5.6922 18.0415 5.6922H20.2888C21.8161 5.6922 23.0815 6.93584 23.0815 8.48493ZM21.6852 8.48493C21.6852 7.69947 21.0524 7.08857 20.2888 7.08857H18.0415C17.0161 7.08857 16.0779 6.56493 15.5106 5.71402C15.2052 5.25584 14.6815 4.99402 14.1361 4.99402H11.0597C10.5143 4.99402 9.99062 5.25584 9.68517 5.71402C9.11789 6.56493 8.15789 7.08857 7.13244 7.08857H4.90699C4.14335 7.08857 3.51062 7.69947 3.51062 8.48493V17.5613C3.51062 18.3249 4.14335 18.9577 4.90699 18.9577H20.2888C21.0524 18.9577 21.6852 18.3249 21.6852 17.5613V8.48493Z" fill="#1F1D1D"/>
<path fill-rule="evenodd" clip-rule="evenodd" d="M20.2889 20.441H4.9071C3.31437 20.441 2.0271 19.1537 2.0271 17.561V8.48464C2.0271 6.89192 3.31437 5.58283 4.9071 5.58283H7.13255C7.65619 5.58283 8.15801 5.34283 8.44165 4.90646C9.03074 4.01192 10.0126 3.48828 11.0598 3.48828H14.1362C15.1835 3.48828 16.1653 4.01192 16.7544 4.90646C17.038 5.34283 17.518 5.58283 18.0416 5.58283H20.2889C21.8816 5.58283 23.1689 6.89192 23.1689 8.48464V17.561C23.1689 19.1537 21.8816 20.441 20.2889 20.441ZM4.9071 5.77919C3.42346 5.77919 2.20165 6.97919 2.20165 8.48464V17.561C2.20165 19.0446 3.42346 20.2665 4.9071 20.2665H20.2889C21.7726 20.2665 22.9726 19.0446 22.9726 17.561V8.48464C22.9726 6.97919 21.7726 5.77919 20.2889 5.77919H18.0416C17.4526 5.77919 16.9071 5.49555 16.6016 4.99374C16.0344 4.16464 15.118 3.68464 14.1362 3.68464H11.0598C10.0562 3.68464 9.13983 4.16464 8.59437 4.99374C8.2671 5.49555 7.72164 5.77919 7.13255 5.77919H4.9071ZM20.2889 19.0446H4.9071C4.09983 19.0446 3.42346 18.3901 3.42346 17.561V8.48464C3.42346 7.65555 4.09983 7.00101 4.9071 7.00101H7.15437C8.13619 7.00101 9.07437 6.49919 9.61983 5.6701C9.9471 5.1901 10.4926 4.88464 11.0598 4.88464H14.1362C14.7253 4.88464 15.2707 5.1901 15.598 5.6701C16.1435 6.49919 17.0598 7.00101 18.0635 7.00101H20.2889C21.118 7.00101 21.7726 7.65555 21.7726 8.48464V17.561C21.7726 18.3901 21.118 19.0446 20.2889 19.0446ZM4.9071 7.17555C4.1871 7.17555 3.61983 7.76464 3.61983 8.48464V17.561C3.61983 18.281 4.1871 18.8701 4.9071 18.8701H20.2889C21.0089 18.8701 21.598 18.281 21.598 17.561V8.48464C21.598 7.76464 21.0089 7.17555 20.2889 7.17555H18.0635C16.9944 7.17555 16.0126 6.65192 15.4453 5.77919C15.1398 5.34283 14.6598 5.08101 14.1362 5.08101H11.0598C10.5362 5.08101 10.0562 5.34283 9.77255 5.77919C9.18346 6.65192 8.20164 7.17555 7.15437 7.17555H4.9071Z" fill="#1F1D1D"/>
<path fill-rule="evenodd" clip-rule="evenodd" d="M17.0599 12.9587C17.0599 15.4242 15.0526 17.4314 12.5871 17.4314C10.1435 17.4314 8.13623 15.4242 8.13623 12.9587C8.13623 10.5151 10.1435 8.50781 12.5871 8.50781C15.0526 8.50781 17.0599 10.5151 17.0599 12.9587ZM16.0562 12.9587C16.0562 11.0605 14.5071 9.51145 12.5871 9.51145C10.689 9.51145 9.11805 11.0605 9.11805 12.9587C9.11805 14.8787 10.689 16.4278 12.5871 16.4278C14.5071 16.4278 16.0562 14.8787 16.0562 12.9587Z" fill="#1F1D1D"/>
<path fill-rule="evenodd" clip-rule="evenodd" d="M12.5872 17.6934C9.99088 17.6934 7.87451 15.577 7.87451 12.9588C7.87451 10.3625 9.99088 8.24609 12.5872 8.24609C15.1836 8.24609 17.3 10.3625 17.3 12.9588C17.3 15.577 15.1836 17.6934 12.5872 17.6934ZM12.5872 8.76973C10.2745 8.76973 8.39815 10.6461 8.39815 12.9588C8.39815 15.2934 10.2745 17.1697 12.5872 17.1697C14.9 17.1697 16.7981 15.2934 16.7981 12.9588C16.7981 10.6461 14.9 8.76973 12.5872 8.76973ZM12.5872 16.6897C10.5363 16.6897 8.87815 15.0315 8.87815 12.9588C8.87815 10.9079 10.5363 9.24973 12.5872 9.24973C14.6381 9.24973 16.3181 10.9079 16.3181 12.9588C16.3181 15.0315 14.6381 16.6897 12.5872 16.6897ZM12.5872 9.77337C10.82 9.77337 9.37997 11.1915 9.37997 12.9588C9.37997 14.7479 10.82 16.1661 12.5872 16.1661C14.3545 16.1661 15.7945 14.7479 15.7945 12.9588C15.7945 11.1915 14.3545 9.77337 12.5872 9.77337Z" fill="#1F1D1D"/>
<path d="M19.2853 8.42188C18.718 8.42188 18.238 8.88006 18.238 9.46915C18.238 10.0364 18.718 10.5164 19.2853 10.5164C19.8744 10.5164 20.3544 10.0364 20.3544 9.46915C20.3544 8.88006 19.8744 8.42188 19.2853 8.42188Z" fill="#1F1D1D"/>
</svg>
