<svg width="24" height="24" viewBox="0 0 24 24" fill="none" xmlns="http://www.w3.org/2000/svg">
<path d="M19.7892 5.58282H17.5419C17.0183 5.58282 16.5383 5.32101 16.2546 4.88464C15.6655 4.01192 14.6837 3.48828 13.6364 3.48828H10.5601C9.5128 3.48828 8.53098 4.01192 7.94189 4.88464C7.65825 5.32101 7.17825 5.58282 6.65462 5.58282H4.40734C2.81462 5.58282 1.52734 6.8701 1.52734 8.46282V17.5392C1.52734 19.1319 2.81462 20.441 4.40734 20.441H19.7892C21.3819 20.441 22.6692 19.1319 22.6692 17.5392V8.46282C22.6692 6.8701 21.3819 5.58282 19.7892 5.58282Z" fill="#A7C5E5"/>
<path fill-rule="evenodd" clip-rule="evenodd" d="M22.6692 8.46282V17.5392C22.6692 19.1319 21.3819 20.441 19.7892 20.441H4.40734C2.81462 20.441 1.52734 19.1319 1.52734 17.5392V8.46282C1.52734 6.8701 2.81462 5.58282 4.40734 5.58282H6.65462C7.17825 5.58282 7.65825 5.32101 7.94189 4.88464C8.53098 4.01192 9.5128 3.48828 10.5601 3.48828H13.6364C14.6837 3.48828 15.6655 4.01192 16.2546 4.88464C16.5383 5.32101 17.0183 5.58282 17.5419 5.58282H19.7892C21.3819 5.58282 22.6692 6.8701 22.6692 8.46282ZM6.65462 7.15373H4.40734C3.68734 7.15373 3.09825 7.74282 3.09825 8.46282V17.5392C3.09825 18.2592 3.68734 18.8483 4.40734 18.8483H19.7892C20.5092 18.8483 21.0764 18.2592 21.0764 17.5392V8.46282C21.0764 7.74282 20.5092 7.15373 19.7892 7.15373H17.5419C16.4946 7.15373 15.5128 6.6301 14.9237 5.75737C14.6401 5.32101 14.1601 5.05919 13.6364 5.05919H10.5601C10.0364 5.05919 9.55643 5.32101 9.25098 5.75737C8.68371 6.6301 7.70189 7.15373 6.65462 7.15373Z" fill="#1F1D1D"/>
<path fill-rule="evenodd" clip-rule="evenodd" d="M7.37451 12.9588C7.37451 10.3406 9.49088 8.24609 12.0872 8.24609C14.7054 8.24609 16.8218 10.3406 16.8218 12.9588C16.8218 15.5552 14.7054 17.6716 12.0872 17.6716C9.49088 17.6716 7.37451 15.5552 7.37451 12.9588ZM8.87997 12.9588C8.87997 14.7261 10.32 16.1661 12.0872 16.1661C13.8545 16.1661 15.2945 14.7261 15.2945 12.9588C15.2945 11.1915 13.8545 9.75155 12.0872 9.75155C10.32 9.75155 8.87997 11.1915 8.87997 12.9588Z" fill="#1F1D1D"/>
<path d="M18.8074 10.493C19.3746 10.493 19.8546 10.013 19.8546 9.44571C19.8546 8.85662 19.3746 8.39844 18.8074 8.39844C18.2183 8.39844 17.7383 8.85662 17.7383 9.44571C17.7383 10.013 18.2183 10.493 18.8074 10.493Z" fill="#1F1D1D"/>
</svg>
