<svg width="16" height="16" viewBox="0 0 16 16" fill="none" xmlns="http://www.w3.org/2000/svg">
<g clip-path="url(#clip0_2299_65518)">
<path d="M12.7546 8.02935C12.7546 11.4579 9.96603 14.2465 6.53745 14.2465C3.09745 14.2465 0.320312 11.4579 0.320312 8.02935C0.320312 4.58935 3.09745 1.80078 6.53745 1.80078C9.96603 1.80078 12.7546 4.58935 12.7546 8.02935Z" fill="white"/>
<path d="M7.72602 6.11706C7.0403 5.54563 6.0003 5.15706 5.38316 6.05991C4.99459 6.63134 5.2003 7.33991 5.77173 7.6942C6.35459 8.05991 7.45173 8.12848 7.55459 8.96277C7.58887 9.27134 7.45173 9.52277 7.22316 9.71706C6.68602 10.1856 5.94316 9.94563 5.38316 9.67134C5.08602 9.52277 4.82316 9.96849 5.1203 10.1171C5.93173 10.5171 6.94887 10.7456 7.65745 10.0371C8.09173 9.59134 8.22887 8.92849 7.89745 8.36849C7.50887 7.70563 6.70887 7.63706 6.10316 7.28277C5.79459 7.11134 5.6003 6.8142 5.7603 6.45991C6.06887 5.70563 6.92602 6.11706 7.3603 6.48277C7.62316 6.69991 7.98887 6.32277 7.72602 6.11706Z" fill="#666666"/>
<path fill-rule="evenodd" clip-rule="evenodd" d="M6.50292 10.5495C6.01149 10.5495 5.50864 10.3781 5.09721 10.1723C4.99435 10.1152 4.93721 10.0352 4.92578 9.93234C4.92578 9.82948 4.98292 9.70377 5.08578 9.6352C5.18864 9.56662 5.30292 9.56663 5.40578 9.61234C6.19435 10.0009 6.77721 10.0238 7.18864 9.68091C7.41721 9.4752 7.5315 9.22377 7.49721 8.97234C7.42864 8.42377 6.8915 8.21805 6.37721 8.02377C6.13721 7.93234 5.92007 7.85234 5.73721 7.73805C5.42864 7.54377 5.22292 7.25805 5.15435 6.92663C5.08578 6.61805 5.15435 6.29805 5.33721 6.02377C5.55435 5.70377 5.82864 5.52091 6.17149 5.4752C6.84578 5.37234 7.50864 5.85234 7.77149 6.06948C7.85149 6.13805 7.88578 6.22948 7.87435 6.32091C7.85149 6.4352 7.76007 6.53805 7.64578 6.58377C7.53149 6.61805 7.41721 6.60663 7.32578 6.52663C7.02864 6.2752 6.56007 6.02377 6.19435 6.1152C6.01911 6.15329 5.88959 6.2752 5.80578 6.48091C5.64578 6.86948 5.94292 7.12091 6.13721 7.2352C6.33149 7.34948 6.54864 7.42948 6.75435 7.52091C7.2115 7.69234 7.68007 7.8752 7.95435 8.34377C8.27435 8.89234 8.1715 9.58948 7.6915 10.0695C7.33721 10.4238 6.92578 10.5495 6.50292 10.5495ZM5.26864 9.69234C5.2115 9.69234 5.17721 9.7152 5.15435 9.72663C5.08578 9.77234 5.04007 9.85234 5.04007 9.93234C5.04769 9.99329 5.08197 10.039 5.14292 10.0695C5.87435 10.4238 6.90292 10.7095 7.6115 9.98948C8.05721 9.54377 8.14864 8.9152 7.85149 8.40091C7.60007 7.96663 7.16578 7.7952 6.70864 7.62377C6.50292 7.53234 6.27435 7.45234 6.08007 7.33805C5.69149 7.10948 5.55435 6.77805 5.70292 6.4352C5.80197 6.19901 5.95816 6.05424 6.17149 6.00091C6.57149 5.89805 7.08578 6.17234 7.39435 6.4352C7.48578 6.50377 7.56578 6.49234 7.6115 6.46948C7.6915 6.44663 7.74864 6.37805 7.76007 6.30948C7.76768 6.24853 7.74483 6.19901 7.6915 6.16091C7.18864 5.73805 6.62864 5.52091 6.18292 5.58948C5.88578 5.6352 5.63435 5.7952 5.42864 6.09234C5.26864 6.33234 5.2115 6.62948 5.26864 6.90377C5.32578 7.20091 5.52007 7.46377 5.79435 7.64662C5.96578 7.74948 6.18292 7.82948 6.4115 7.92091C6.93721 8.1152 7.5315 8.34377 7.6115 8.96091C7.64578 9.24662 7.52007 9.53234 7.25721 9.76091C6.81149 10.1495 6.19435 10.1266 5.36007 9.7152C5.32197 9.69996 5.2915 9.69234 5.26864 9.69234Z" fill="#666666"/>
<path d="M6.27441 5.07746C6.27441 5.30603 6.27441 5.5346 6.27441 5.76317C6.27441 6.0946 6.80013 6.0946 6.80013 5.76317C6.80013 5.5346 6.80013 5.30603 6.80013 5.07746C6.80013 4.7346 6.27441 4.7346 6.27441 5.07746Z" fill="#666666"/>
<path fill-rule="evenodd" clip-rule="evenodd" d="M6.53729 6.07239C6.37729 6.07239 6.21729 5.9581 6.21729 5.76382V5.0781C6.21729 4.66667 6.85729 4.66667 6.85729 5.0781V5.76382C6.85729 5.9581 6.69729 6.07239 6.53729 6.07239ZM6.53729 4.88382C6.48014 4.88382 6.43443 4.89525 6.38871 4.92953C6.35062 4.96763 6.33157 5.01715 6.33157 5.0781V5.76382C6.33157 5.96953 6.57157 5.99239 6.67443 5.90096C6.72014 5.87048 6.743 5.82477 6.743 5.76382V5.0781C6.743 4.94096 6.64014 4.88382 6.53729 4.88382Z" fill="#666666"/>
<path d="M6.27393 10.2923C6.27393 10.5209 6.27393 10.7494 6.27393 10.978C6.27393 11.3094 6.79964 11.3094 6.79964 10.978C6.79964 10.7494 6.79964 10.5209 6.79964 10.2923C6.79964 9.94944 6.27393 9.94944 6.27393 10.2923Z" fill="#666666"/>
<path fill-rule="evenodd" clip-rule="evenodd" d="M6.5368 11.2872C6.3768 11.2872 6.2168 11.1729 6.2168 10.9787V10.2929C6.2168 9.88152 6.8568 9.88152 6.8568 10.2929V10.9787C6.8568 11.1729 6.6968 11.2872 6.5368 11.2872ZM6.5368 10.0987C6.43394 10.0987 6.33108 10.1558 6.33108 10.2929V10.9787C6.33108 11.1844 6.57108 11.2072 6.67394 11.1158C6.71965 11.0853 6.74251 11.0396 6.74251 10.9787V10.2929C6.74251 10.1558 6.63965 10.0987 6.5368 10.0987Z" fill="#666666"/>
<path d="M6.53672 12.8335C3.87387 12.8335 1.71387 10.6735 1.71387 8.02208C1.71387 5.35922 3.87387 3.19922 6.53672 3.19922C9.18815 3.19922 11.3596 5.35922 11.3596 8.02208C11.3596 9.33636 10.8339 10.5592 9.8853 11.4735C9.78244 11.5764 9.62244 11.5764 9.51958 11.4735C9.42815 11.3706 9.42815 11.1992 9.53101 11.1078C10.3767 10.2849 10.8339 9.18779 10.8339 8.02208C10.8339 5.64493 8.90244 3.7135 6.53672 3.7135C4.15958 3.7135 2.22815 5.64493 2.22815 8.02208C2.22815 10.3878 4.15958 12.3192 6.53672 12.3192C6.7653 12.3192 6.99768 12.3002 7.23387 12.2621C7.37101 12.2392 7.50815 12.3306 7.53101 12.4792C7.55387 12.6164 7.45101 12.7535 7.31387 12.7764C7.06244 12.8221 6.79958 12.8335 6.53672 12.8335Z" fill="#666666"/>
<path fill-rule="evenodd" clip-rule="evenodd" d="M6.53674 12.8892C3.85102 12.8892 1.65674 10.7063 1.65674 8.02063C1.65674 5.32348 3.85102 3.14062 6.53674 3.14062C9.22245 3.14062 11.4167 5.32348 11.4167 8.02063C11.4167 9.34634 10.891 10.5921 9.93102 11.5178C9.80531 11.6321 9.5996 11.6321 9.48531 11.5063C9.3596 11.3806 9.3596 11.1863 9.48531 11.0606C10.3196 10.2492 10.7767 9.17491 10.7767 8.02063C10.7767 5.67777 8.8796 3.7692 6.53674 3.7692C4.19388 3.7692 2.28531 5.67777 2.28531 8.02063C2.28531 10.3521 4.19388 12.2606 6.53674 12.2606C6.76531 12.2606 6.99388 12.2416 7.22245 12.2035C7.30245 12.1921 7.39388 12.2149 7.46245 12.2606C7.53102 12.3063 7.57674 12.3863 7.58817 12.4663C7.61102 12.6378 7.49674 12.7978 7.32531 12.8321C7.06245 12.8778 6.79959 12.8892 6.53674 12.8892ZM6.53674 3.25491C3.90817 3.25491 1.77102 5.39205 1.77102 8.02063C1.77102 10.6378 3.90817 12.7749 6.53674 12.7749C6.78817 12.7749 7.05102 12.7635 7.30245 12.7178C7.41674 12.6949 7.48531 12.5921 7.47388 12.4892C7.46245 12.4321 7.4396 12.3863 7.39388 12.3521C7.34817 12.3178 7.29102 12.3063 7.24531 12.3178C7.00912 12.3559 6.77293 12.3749 6.53674 12.3749C4.13674 12.3749 2.17102 10.4206 2.17102 8.02063C2.17102 5.6092 4.13674 3.65491 6.53674 3.65491C8.93674 3.65491 10.891 5.6092 10.891 8.02063C10.891 9.2092 10.4225 10.3178 9.56531 11.1406C9.48531 11.2206 9.48531 11.3463 9.56531 11.4263C9.64531 11.5063 9.77103 11.5063 9.85103 11.4378C10.7882 10.5235 11.3025 9.31205 11.3025 8.02063C11.3025 5.39205 9.16531 3.25491 6.53674 3.25491Z" fill="#666666"/>
<path d="M6.53713 14.5108C4.79999 14.5108 3.17713 13.8365 1.95427 12.6136C0.731415 11.3794 0.0571289 9.7565 0.0571289 8.03078C0.0571289 6.29364 0.731415 4.67078 1.95427 3.44792C3.17713 2.22507 4.79999 1.55078 6.53713 1.55078C8.26284 1.55078 9.89713 2.22507 11.12 3.44792C12.3428 4.67078 13.0171 6.29364 13.0171 8.03078C13.0171 9.77935 12.32 11.4251 11.0628 12.6594C10.96 12.7622 10.8 12.7622 10.6971 12.6594C10.5943 12.5565 10.6057 12.3851 10.7086 12.2936C11.8628 11.1622 12.4914 9.64221 12.4914 8.03078C12.4914 6.43078 11.8743 4.93364 10.7543 3.81364C9.62284 2.68221 8.1257 2.06507 6.53713 2.06507C4.94856 2.06507 3.45142 2.68221 2.31999 3.81364C1.19999 4.93364 0.571415 6.43078 0.571415 8.03078C0.571415 9.61935 1.19999 11.1165 2.31999 12.2365C3.45142 13.3679 4.94856 13.9851 6.53713 13.9851C7.22284 13.9851 7.89713 13.8708 8.54856 13.6422C8.67427 13.5965 8.82284 13.6651 8.87999 13.8022C8.9257 13.9279 8.85713 14.0765 8.71999 14.1336C8.02284 14.3736 7.27999 14.5108 6.53713 14.5108Z" fill="#666666"/>
<path fill-rule="evenodd" clip-rule="evenodd" d="M6.53714 14.5665C4.78857 14.5665 3.14286 13.8808 1.90857 12.6465C0.674285 11.4122 0 9.76647 0 8.02933C0 6.28076 0.674285 4.63504 1.90857 3.40076C3.14286 2.16647 4.78857 1.49219 6.53714 1.49219C8.28571 1.49219 9.92 2.16647 11.1543 3.40076C12.3886 4.63504 13.0743 6.28076 13.0743 8.02933C13.0743 9.80076 12.3771 11.4579 11.1086 12.7036C11.04 12.7608 10.96 12.7836 10.88 12.7836C10.8 12.7836 10.72 12.7493 10.6629 12.6922C10.5943 12.635 10.5714 12.555 10.5714 12.4636C10.5714 12.3836 10.6057 12.3036 10.6629 12.2465C11.8057 11.1265 12.4343 9.62933 12.4343 8.02933C12.4343 6.45219 11.8286 4.96647 10.7086 3.84647C9.6 2.7379 8.11429 2.12076 6.53714 2.12076C4.96 2.12076 3.47429 2.7379 2.36571 3.84647C1.24571 4.96647 0.628571 6.45219 0.628571 8.02933C0.628571 9.60647 1.24571 11.0808 2.36571 12.2008C3.47429 13.3093 4.96 13.9265 6.53714 13.9265C7.22286 13.9265 7.88572 13.8122 8.52571 13.5836C8.68571 13.5265 8.86857 13.6179 8.92572 13.7779C8.98286 13.9379 8.90286 14.1208 8.73143 14.1779C8.03429 14.4293 7.29143 14.5665 6.53714 14.5665ZM6.53714 1.60647C4.82286 1.60647 3.21143 2.26933 2 3.48076C0.777143 4.69219 0.114286 6.31504 0.114286 8.02933C0.114286 9.74362 0.777143 11.355 2 12.5665C3.21143 13.7779 4.82286 14.4522 6.53714 14.4522C7.28 14.4522 8 14.3265 8.69714 14.075C8.75429 14.0522 8.78857 14.0179 8.81143 13.9722C8.83429 13.9265 8.83429 13.8693 8.82286 13.8122C8.78857 13.7093 8.66286 13.6522 8.56 13.6979C7.90857 13.9265 7.23429 14.0408 6.53714 14.0408C4.92571 14.0408 3.41714 13.4122 2.27429 12.2808C1.14286 11.1493 0.514286 9.62933 0.514286 8.02933C0.514286 6.4179 1.14286 4.90933 2.27429 3.76647C3.41714 2.63504 4.92571 2.00647 6.53714 2.00647C8.13714 2.00647 9.65714 2.63504 10.7886 3.76647C11.9314 4.90933 12.5486 6.4179 12.5486 8.02933C12.5486 9.65219 11.9086 11.1836 10.7429 12.3265C10.7086 12.3608 10.6857 12.4179 10.6857 12.475C10.6857 12.5208 10.6971 12.5779 10.7429 12.6122C10.7771 12.6465 10.8229 12.6693 10.88 12.6693C10.9371 12.6808 10.9829 12.6579 11.0286 12.6122C12.2743 11.4008 12.96 9.76647 12.96 8.02933C12.96 6.31504 12.2857 4.69219 11.0743 3.48076C9.86286 2.26933 8.25143 1.60647 6.53714 1.60647Z" fill="#666666"/>
<path d="M10.8914 14.5953C10.8228 14.5953 10.7542 14.5724 10.7085 14.5267L7.80566 11.6238C7.7028 11.521 7.7028 11.361 7.80566 11.2581C7.90852 11.1553 8.07994 11.1553 8.1828 11.2581L10.8914 13.9667L15.7028 9.15527C15.8057 9.05241 15.9771 9.05241 16.0799 9.15527C16.1828 9.2467 16.1828 9.41812 16.0799 9.52098L11.0742 14.5267C11.0285 14.5724 10.9599 14.5953 10.8914 14.5953Z" fill="#365FA3"/>
</g>
<defs>
<clipPath id="clip0_2299_65518">
<rect width="16" height="16" fill="white"/>
</clipPath>
</defs>
</svg>
