<svg width="16" height="16" viewBox="0 0 16 16" fill="none" xmlns="http://www.w3.org/2000/svg">
<path d="M4.71748 5.75509C4.71748 7.00461 4.71748 8.25795 4.71748 9.51509C4.71748 10.3456 4.71748 11.1799 4.71748 12.0179C4.71748 12.2808 4.70605 12.5437 4.71748 12.8065C4.72891 13.2065 5.02605 13.4122 5.39177 13.4122C7.0032 13.4351 8.6032 13.4122 10.2032 13.4122C10.3861 13.4122 10.6146 13.4465 10.7975 13.3894C11.1175 13.2979 11.2318 13.0008 11.2318 12.6922C11.2318 12.037 11.2318 11.3818 11.2318 10.7265C11.2318 9.10366 11.2546 7.46937 11.2318 5.84652C11.2318 5.81604 11.2318 5.78557 11.2318 5.75509C11.2318 5.5608 10.9346 5.5608 10.9346 5.75509C10.9346 7.10366 10.9346 8.45223 10.9346 9.8008C10.9346 10.6084 10.9346 11.4122 10.9346 12.2122C10.9346 12.4065 10.9346 12.5894 10.9346 12.7837C10.9232 13.0579 10.7175 13.1151 10.4889 13.1151C8.91177 13.1151 7.33843 13.1151 5.76891 13.1151C5.60891 13.1151 5.42605 13.1379 5.26605 13.1151C4.9232 13.0465 5.0032 12.5779 5.0032 12.3151C5.0032 11.4541 5.0032 10.5932 5.0032 9.73223C5.0032 8.57414 5.0032 7.41604 5.0032 6.25795C5.0032 6.09033 5.0032 5.92271 5.0032 5.75509C5.0032 5.5608 4.71748 5.5608 4.71748 5.75509Z" fill="#666666"/>
<path fill-rule="evenodd" clip-rule="evenodd" d="M10.5118 13.4815C10.4584 13.4815 10.4051 13.4815 10.3518 13.4815C10.2984 13.4738 10.2489 13.47 10.2032 13.47C9.66988 13.47 9.13655 13.4738 8.60321 13.4815C7.55178 13.4815 6.46607 13.4815 5.39178 13.47C4.96893 13.47 4.67178 13.2072 4.66035 12.8186C4.64893 12.6357 4.64893 12.4529 4.64893 12.2815C4.65654 12.19 4.66035 12.1024 4.66035 12.0186V5.75574C4.66035 5.49288 5.06035 5.49288 5.06035 5.75574V12.3157C5.06035 12.3538 5.06035 12.3995 5.06035 12.4529C5.04893 12.7615 5.04893 13.0129 5.2775 13.0586C5.38035 13.0814 5.50607 13.07 5.60893 13.07C5.66226 13.07 5.71559 13.0662 5.76893 13.0586H10.4889C10.7404 13.0586 10.8661 12.9786 10.8775 12.7729C10.8775 12.6586 10.8775 12.5329 10.8775 12.4072C10.8775 12.3462 10.8775 12.2815 10.8775 12.2129V5.75574C10.8775 5.49288 11.2889 5.49288 11.2889 5.75574V5.77859C11.2889 5.80145 11.2889 5.82431 11.2889 5.84716C11.3004 6.93288 11.2889 8.03002 11.2889 9.10431C11.2889 9.64526 11.2889 10.1862 11.2889 10.7272V12.6929C11.2889 13.0929 11.1175 13.3557 10.8089 13.4472C10.7175 13.47 10.6146 13.4815 10.5118 13.4815ZM10.2032 13.3557C10.2489 13.3557 10.2984 13.3595 10.3518 13.3672C10.5004 13.3672 10.6489 13.3786 10.7861 13.3329C11.1061 13.2414 11.1746 12.9329 11.1746 12.6929V10.7272C11.1746 10.1862 11.1746 9.64526 11.1746 9.10431C11.1746 8.03002 11.1861 6.93288 11.1746 5.84716C11.1746 5.82431 11.1746 5.80145 11.1746 5.77859V5.75574C11.1746 5.66431 11.0832 5.66431 11.0832 5.66431C11.0718 5.66431 10.9918 5.66431 10.9918 5.75574V12.2129C10.9918 12.2815 10.9918 12.3462 10.9918 12.4072C10.9918 12.5329 10.9918 12.6586 10.9918 12.7843C10.9765 13.0434 10.8089 13.1729 10.4889 13.1729H5.76893C5.71559 13.1805 5.66607 13.1843 5.62035 13.1843C5.49464 13.1843 5.38035 13.1957 5.25464 13.1729C4.91178 13.1043 4.93464 12.7157 4.94607 12.4529C4.94607 12.3995 4.94607 12.3538 4.94607 12.3157V5.75574C4.94607 5.66431 4.86607 5.66431 4.86607 5.66431C4.85464 5.66431 4.77464 5.66431 4.77464 5.75574V12.0186C4.77464 12.11 4.77083 12.1976 4.76321 12.2815C4.76321 12.4529 4.76321 12.6357 4.77464 12.8072C4.78607 13.2072 5.10607 13.3557 5.40321 13.3557C6.46607 13.3672 7.55178 13.3672 8.60321 13.3672C9.13655 13.3595 9.66988 13.3557 10.2032 13.3557Z" fill="#666666"/>
<path fill-rule="evenodd" clip-rule="evenodd" d="M10.5118 13.4815C10.4584 13.4815 10.4051 13.4815 10.3518 13.4815C10.2984 13.4738 10.2489 13.47 10.2032 13.47C9.66988 13.47 9.13655 13.4738 8.60321 13.4815C7.55178 13.4815 6.46607 13.4815 5.39178 13.47C4.96893 13.47 4.67178 13.2072 4.66035 12.8186C4.64893 12.6357 4.64893 12.4529 4.64893 12.2815C4.65654 12.19 4.66035 12.1024 4.66035 12.0186V5.75574C4.66035 5.49288 5.06035 5.49288 5.06035 5.75574V12.3157C5.06035 12.3538 5.06035 12.3995 5.06035 12.4529C5.04893 12.7615 5.04893 13.0129 5.2775 13.0586C5.38035 13.0814 5.50607 13.07 5.60893 13.07C5.66226 13.07 5.71559 13.0662 5.76893 13.0586H10.4889C10.7404 13.0586 10.8661 12.9786 10.8775 12.7729C10.8775 12.6586 10.8775 12.5329 10.8775 12.4072C10.8775 12.3462 10.8775 12.2815 10.8775 12.2129V5.75574C10.8775 5.49288 11.2889 5.49288 11.2889 5.75574V5.77859C11.2889 5.80145 11.2889 5.82431 11.2889 5.84716C11.3004 6.93288 11.2889 8.03002 11.2889 9.10431C11.2889 9.64526 11.2889 10.1862 11.2889 10.7272V12.6929C11.2889 13.0929 11.1175 13.3557 10.8089 13.4472C10.7175 13.47 10.6146 13.4815 10.5118 13.4815ZM10.2032 13.3557C10.2489 13.3557 10.2984 13.3595 10.3518 13.3672C10.5004 13.3672 10.6489 13.3786 10.7861 13.3329C11.1061 13.2414 11.1746 12.9329 11.1746 12.6929V10.7272C11.1746 10.1862 11.1746 9.64526 11.1746 9.10431C11.1746 8.03002 11.1861 6.93288 11.1746 5.84716C11.1746 5.82431 11.1746 5.80145 11.1746 5.77859V5.75574C11.1746 5.66431 11.0832 5.66431 11.0832 5.66431C11.0718 5.66431 10.9918 5.66431 10.9918 5.75574V12.2129C10.9918 12.2815 10.9918 12.3462 10.9918 12.4072C10.9918 12.5329 10.9918 12.6586 10.9918 12.7843C10.9765 13.0434 10.8089 13.1729 10.4889 13.1729H5.76893C5.71559 13.1805 5.66607 13.1843 5.62035 13.1843C5.49464 13.1843 5.38035 13.1957 5.25464 13.1729C4.91178 13.1043 4.93464 12.7157 4.94607 12.4529C4.94607 12.3995 4.94607 12.3538 4.94607 12.3157V5.75574C4.94607 5.66431 4.86607 5.66431 4.86607 5.66431C4.85464 5.66431 4.77464 5.66431 4.77464 5.75574V12.0186C4.77464 12.11 4.77083 12.1976 4.76321 12.2815C4.76321 12.4529 4.76321 12.6357 4.77464 12.8072C4.78607 13.2072 5.10607 13.3557 5.40321 13.3557C6.46607 13.3672 7.55178 13.3672 8.60321 13.3672C9.13655 13.3595 9.66988 13.3557 10.2032 13.3557Z" fill="#666666"/>
<path fill-rule="evenodd" clip-rule="evenodd" d="M10.5118 13.5379C10.4585 13.5379 10.4051 13.5379 10.3518 13.5379C10.2985 13.5303 10.2489 13.5265 10.2032 13.5265C9.66989 13.5265 9.13656 13.5303 8.60323 13.5379C7.5518 13.5379 6.46608 13.5379 5.3918 13.5265C4.93465 13.5265 4.61465 13.2522 4.60323 12.8179C4.5918 12.635 4.5918 12.4522 4.5918 12.2808C4.59942 12.1893 4.60323 12.1017 4.60323 12.0179V5.75504C4.60323 5.58362 4.72894 5.49219 4.86608 5.49219C4.9918 5.49219 5.11751 5.58362 5.11751 5.75504V12.315C5.11751 12.3531 5.11751 12.3989 5.11751 12.4522C5.10608 12.795 5.12894 12.9665 5.28894 13.0008C5.3918 13.0236 5.49465 13.0122 5.60894 13.0122C5.66227 13.0122 5.71561 13.0084 5.76894 13.0008H10.4889C10.7632 13.0008 10.8089 12.8979 10.8204 12.7722C10.8204 12.6465 10.8204 12.5322 10.8204 12.4065C10.8204 12.3379 10.8204 12.2808 10.8204 12.2122V5.75504C10.8204 5.65219 10.8661 5.57219 10.9347 5.5379C11.0261 5.48076 11.1404 5.48076 11.2204 5.5379C11.3004 5.57219 11.3461 5.65219 11.3461 5.75504V5.7779C11.3461 5.80076 11.3461 5.82362 11.3461 5.84647C11.3575 6.93219 11.3461 8.02933 11.3461 9.10362C11.3461 9.64457 11.3461 10.1855 11.3461 10.7265V12.6922C11.3461 13.115 11.1632 13.4008 10.8318 13.5036C10.7404 13.5265 10.6489 13.5379 10.5118 13.5379ZM8.39751 13.4236C8.45846 13.4236 8.51561 13.4236 8.56894 13.4236H8.60323C8.53465 13.4236 8.46608 13.4236 8.39751 13.4236ZM10.7518 13.4008C10.7213 13.4084 10.6947 13.4122 10.6718 13.4122C10.7023 13.4122 10.7289 13.4084 10.7518 13.4008ZM10.2032 13.2979C10.2566 13.2979 10.3061 13.3017 10.3518 13.3093C10.5004 13.3093 10.6489 13.3208 10.7632 13.2865C10.9994 13.2179 11.1175 13.0198 11.1175 12.6922V10.7265C11.1175 10.1855 11.1175 9.64457 11.1175 9.10362C11.1175 8.02933 11.1289 6.93219 11.1175 5.84647C11.1175 5.82362 11.1175 5.80076 11.1175 5.7779V5.75504C11.1175 5.74362 11.1175 5.72076 11.0832 5.72076C11.0489 5.72076 11.0489 5.74362 11.0489 5.75504V12.2122C11.0489 12.2808 11.0489 12.3455 11.0489 12.4065C11.0489 12.5322 11.0489 12.6579 11.0489 12.7836C11.0375 12.9893 10.9347 13.2293 10.4889 13.2293H5.76894C5.72323 13.2369 5.6737 13.2408 5.62037 13.2408C5.49465 13.2408 5.36894 13.2522 5.24323 13.2293C4.85465 13.1493 4.87751 12.715 4.88894 12.4408C4.88894 12.395 4.88894 12.3531 4.88894 12.315V5.75504C4.88894 5.74362 4.88894 5.72076 4.86608 5.72076C4.8318 5.72076 4.8318 5.74362 4.8318 5.75504V12.0179C4.8318 12.1017 4.82799 12.1855 4.82037 12.2693V12.2808C4.82037 12.4522 4.82037 12.635 4.8318 12.8065C4.84323 13.2636 5.26608 13.2979 5.40323 13.2979C6.45465 13.3093 7.52894 13.3093 8.56894 13.3093H8.60323C9.13656 13.3017 9.66989 13.2979 10.2032 13.2979ZM5.32323 13.1265C5.39942 13.1341 5.47561 13.1341 5.5518 13.1265C5.48323 13.1265 5.40323 13.1265 5.32323 13.1265ZM10.9347 12.3836C10.9347 12.3912 10.9347 12.395 10.9347 12.395C10.9347 12.5322 10.9347 12.6579 10.9347 12.7836C10.9347 12.6579 10.9347 12.5322 10.9347 12.4065C10.9347 12.3989 10.9347 12.3912 10.9347 12.3836ZM4.70608 12.2808L4.76323 12.2693H4.70608C4.70608 12.2769 4.70608 12.2808 4.70608 12.2808Z" fill="#666666"/>
<path d="M5.98535 9.4465C5.98535 9.7665 5.98535 10.0827 5.98535 10.3951C5.98535 10.5894 6.28249 10.5894 6.28249 10.3951C6.28249 10.0827 6.28249 9.7665 6.28249 9.4465C6.28249 9.25221 5.98535 9.25221 5.98535 9.4465Z" fill="#666666"/>
<path fill-rule="evenodd" clip-rule="evenodd" d="M6.13394 10.6014C6.03108 10.6014 5.92822 10.5329 5.92822 10.3957V9.44714C5.92822 9.18429 6.33965 9.18429 6.33965 9.44714V10.3957C6.33965 10.5329 6.23679 10.6014 6.13394 10.6014ZM6.13394 9.35572C6.12251 9.35572 6.04251 9.36714 6.04251 9.44714V10.3957C6.04251 10.4757 6.12251 10.4871 6.13394 10.4871C6.14537 10.4871 6.22537 10.4757 6.22537 10.3957V9.44714C6.22537 9.36714 6.14537 9.35572 6.13394 9.35572Z" fill="#666666"/>
<path fill-rule="evenodd" clip-rule="evenodd" d="M6.13394 10.6014C6.03108 10.6014 5.92822 10.5329 5.92822 10.3957V9.44714C5.92822 9.18429 6.33965 9.18429 6.33965 9.44714V10.3957C6.33965 10.5329 6.23679 10.6014 6.13394 10.6014ZM6.13394 9.35572C6.12251 9.35572 6.04251 9.36714 6.04251 9.44714V10.3957C6.04251 10.4757 6.12251 10.4871 6.13394 10.4871C6.14537 10.4871 6.22537 10.4757 6.22537 10.3957V9.44714C6.22537 9.36714 6.14537 9.35572 6.13394 9.35572Z" fill="#666666"/>
<path fill-rule="evenodd" clip-rule="evenodd" d="M6.13395 10.6582C6.00824 10.6582 5.87109 10.5667 5.87109 10.3953V9.44674C5.87109 9.27531 5.99681 9.19531 6.13395 9.19531C6.25967 9.19531 6.39681 9.27531 6.39681 9.44674V10.3953C6.39681 10.5667 6.25967 10.6582 6.13395 10.6582ZM6.13395 9.41245C6.09967 9.41245 6.09967 9.43531 6.09967 9.44674V10.3953C6.09967 10.4067 6.09967 10.4296 6.13395 10.4296C6.16824 10.4296 6.16824 10.4067 6.16824 10.3953V9.44674C6.16824 9.43531 6.16824 9.41245 6.13395 9.41245ZM6.27109 9.37817C6.27871 9.40102 6.28252 9.42388 6.28252 9.44674C6.28252 9.41626 6.27871 9.3934 6.27109 9.37817Z" fill="#666666"/>
<path d="M5.98535 11.2973C5.98535 11.6173 5.98535 11.9335 5.98535 12.2459C5.98535 12.4402 6.28249 12.4402 6.28249 12.2459C6.28249 11.9335 6.28249 11.6173 6.28249 11.2973C6.28249 11.1144 5.98535 11.1144 5.98535 11.2973Z" fill="#666666"/>
<path fill-rule="evenodd" clip-rule="evenodd" d="M6.13394 12.453C6.03108 12.453 5.92822 12.3844 5.92822 12.2473V11.2987C5.92822 11.0358 6.33965 11.0358 6.33965 11.2987V12.2473C6.33965 12.3844 6.23679 12.453 6.13394 12.453ZM6.13394 11.2187C6.12251 11.2187 6.04251 11.2187 6.04251 11.2987V12.2473C6.04251 12.3387 6.12251 12.3387 6.13394 12.3387C6.14537 12.3387 6.22537 12.3387 6.22537 12.2473V11.2987C6.22537 11.2187 6.14537 11.2187 6.13394 11.2187Z" fill="#666666"/>
<path fill-rule="evenodd" clip-rule="evenodd" d="M6.13394 12.453C6.03108 12.453 5.92822 12.3844 5.92822 12.2473V11.2987C5.92822 11.0358 6.33965 11.0358 6.33965 11.2987V12.2473C6.33965 12.3844 6.23679 12.453 6.13394 12.453ZM6.13394 11.2187C6.12251 11.2187 6.04251 11.2187 6.04251 11.2987V12.2473C6.04251 12.3387 6.12251 12.3387 6.13394 12.3387C6.14537 12.3387 6.22537 12.3387 6.22537 12.2473V11.2987C6.22537 11.2187 6.14537 11.2187 6.13394 11.2187Z" fill="#666666"/>
<path fill-rule="evenodd" clip-rule="evenodd" d="M6.13395 12.5097C6.00824 12.5097 5.87109 12.4183 5.87109 12.2469V11.2983C5.87109 11.1383 5.99681 11.0469 6.13395 11.0469C6.25967 11.0469 6.39681 11.1383 6.39681 11.2983V12.2469C6.39681 12.4183 6.25967 12.5097 6.13395 12.5097ZM6.13395 11.2754C6.09967 11.2754 6.09967 11.2983 6.09967 11.2983V12.2469C6.09967 12.2583 6.09967 12.2812 6.13395 12.2812C6.16824 12.2812 6.16824 12.2583 6.16824 12.2469V11.2983C6.16824 11.2983 6.16824 11.2754 6.13395 11.2754Z" fill="#666666"/>
<path d="M9.79072 13.4226H8.20215V5.60547H9.79072V13.4226Z" fill="#666666"/>
<path fill-rule="evenodd" clip-rule="evenodd" d="M9.79073 13.4783H8.20216C8.16788 13.4783 8.14502 13.444 8.14502 13.4212V5.60402C8.14502 5.56973 8.16788 5.54688 8.20216 5.54688H9.79073C9.82502 5.54688 9.84788 5.56973 9.84788 5.60402V13.4212C9.84788 13.444 9.82502 13.4783 9.79073 13.4783ZM8.25931 13.364H9.73359V5.66116H8.25931V13.364Z" fill="#666666"/>
<path fill-rule="evenodd" clip-rule="evenodd" d="M9.84788 13.4822H8.14502V5.55078H9.84788V13.4822ZM8.25931 13.3679H9.73359V5.67649H8.25931V13.3679Z" fill="#666666"/>
<path fill-rule="evenodd" clip-rule="evenodd" d="M9.84789 13.5379H8.14503C8.11075 13.5379 8.08789 13.5036 8.08789 13.4808V5.54933C8.08789 5.51504 8.11075 5.49219 8.14503 5.49219H9.84789C9.88218 5.49219 9.90503 5.51504 9.90503 5.54933V13.4808C9.90503 13.5036 9.88218 13.5379 9.84789 13.5379ZM9.73361 13.4236H9.79075V13.3665C9.79075 13.3893 9.76789 13.4122 9.73361 13.4236ZM8.20218 13.4236H8.24789C8.22503 13.4122 8.20218 13.3893 8.20218 13.3665V13.4236ZM8.31646 13.3093H9.67646V5.73219H8.31646V13.3093ZM8.20218 5.60647V5.66362C8.20218 5.62933 8.22503 5.60647 8.24789 5.60647H8.20218ZM9.74503 5.60647C9.76789 5.60647 9.79075 5.62933 9.80218 5.66362V5.60647H9.74503Z" fill="#666666"/>
<path d="M11.6649 8.63255C12.1526 8.63255 12.6364 8.63255 13.1164 8.63255C13.2992 8.63255 13.4821 8.64398 13.6649 8.62112C14.0535 8.57541 14.3735 8.2554 14.4307 7.85541C14.4649 7.54683 14.4307 7.21541 14.4307 6.89541C14.4307 6.27064 14.4307 5.64588 14.4307 5.02112C14.4307 4.5335 14.4307 4.04588 14.4307 3.55826C14.4307 3.02112 14.1449 2.55255 13.5507 2.52969C13.0249 2.50683 12.4992 2.52969 11.9735 2.52969C9.55066 2.52969 7.13161 2.52969 4.71637 2.52969C3.97732 2.52969 3.23827 2.52969 2.49923 2.52969C2.06494 2.52969 1.66494 2.72398 1.53923 3.16969C1.4478 3.47826 1.50494 3.86683 1.50494 4.18683C1.50494 5.30683 1.50494 6.42683 1.50494 7.54683C1.50494 7.66112 1.49351 7.7754 1.51637 7.88969C1.58494 8.28969 1.90494 8.58683 2.29351 8.63255C2.77351 8.67826 3.27637 8.63255 3.75637 8.63255C3.93161 8.63255 4.10304 8.63255 4.27066 8.63255C4.46494 8.63255 4.46494 8.33541 4.27066 8.33541C3.81351 8.33541 3.35637 8.33541 2.89923 8.33541C2.44208 8.33541 1.82494 8.38112 1.80208 7.74112C1.7678 6.79255 1.80208 5.84398 1.80208 4.90683C1.80208 4.45731 1.80208 4.00779 1.80208 3.55826C1.80208 3.16969 1.97351 2.83826 2.41923 2.82683C3.00208 2.80398 3.58494 2.82683 4.1678 2.82683C6.46113 2.82683 8.75828 2.82683 11.0592 2.82683C11.8135 2.82683 12.5678 2.82683 13.3221 2.82683C13.6307 2.82683 13.9392 2.83826 14.0878 3.16969C14.2021 3.43255 14.1335 3.83255 14.1335 4.11826C14.1335 5.20779 14.1335 6.29731 14.1335 7.38683C14.1335 7.50112 14.1449 7.61541 14.1335 7.74112C14.1221 8.07255 13.8935 8.32398 13.5507 8.33541C13.0707 8.35826 12.5907 8.33541 12.1221 8.33541C11.9697 8.33541 11.8173 8.33541 11.6649 8.33541C11.4707 8.33541 11.4707 8.63255 11.6649 8.63255Z" fill="#666666"/>
<path fill-rule="evenodd" clip-rule="evenodd" d="M2.81923 8.71237C2.6478 8.71237 2.46494 8.70094 2.29352 8.68951C1.87066 8.64379 1.5278 8.32379 1.45923 7.90094C1.4478 7.80951 1.4478 7.70665 1.4478 7.61522V7.54665V4.18665C1.4478 4.10284 1.44399 4.01141 1.43637 3.91237C1.42495 3.66094 1.41352 3.38665 1.48209 3.15808C1.59637 2.72379 1.98494 2.47237 2.49923 2.47237H11.9735C12.1488 2.47237 12.324 2.46856 12.4992 2.46094C12.8421 2.46094 13.2078 2.46094 13.5621 2.47237C14.1221 2.49522 14.4878 2.91808 14.4878 3.55808V6.89522C14.4878 6.98665 14.4916 7.08189 14.4992 7.18094C14.4992 7.40951 14.5107 7.63808 14.4878 7.86665C14.4307 8.28951 14.0992 8.63237 13.6649 8.67808C13.5392 8.70094 13.4021 8.68951 13.2649 8.68951C13.2192 8.68951 13.1697 8.68951 13.1164 8.68951H11.6649C11.5278 8.68951 11.4592 8.58665 11.4592 8.48379C11.4592 8.38094 11.5278 8.27808 11.6649 8.27808H12.1221C12.2745 8.27808 12.4307 8.27808 12.5907 8.27808C12.9107 8.28951 13.2307 8.28951 13.5507 8.27808C13.8478 8.26665 14.0764 8.04951 14.0764 7.72951C14.084 7.65332 14.084 7.57713 14.0764 7.50094C14.0764 7.46284 14.0764 7.42475 14.0764 7.38665V4.11808C14.0764 4.04189 14.0802 3.96189 14.0878 3.87808C14.0992 3.63808 14.1221 3.37522 14.0307 3.19237C13.9049 2.90665 13.6535 2.88379 13.3221 2.88379H4.1678C3.96971 2.88379 3.77542 2.87998 3.58494 2.87237C3.19637 2.87237 2.8078 2.87237 2.41923 2.88379C1.9278 2.89522 1.85923 3.30665 1.85923 3.55808V4.90665C1.85923 5.21903 1.85542 5.53141 1.8478 5.84379C1.8478 6.47236 1.83637 7.11237 1.85923 7.72951C1.87066 8.24379 2.25923 8.27808 2.8078 8.27808H2.89923H4.27066C4.4078 8.27808 4.47637 8.38094 4.47637 8.48379C4.47637 8.58665 4.4078 8.68951 4.27066 8.68951H3.75637C3.60399 8.68951 3.45161 8.69332 3.29923 8.70094C3.13923 8.70856 2.97923 8.71237 2.81923 8.71237ZM2.49923 2.58665C2.03066 2.58665 1.69923 2.81522 1.59637 3.19237C1.5278 3.40951 1.53923 3.66094 1.55066 3.91237C1.55828 4.01141 1.56209 4.10284 1.56209 4.18665V7.61522C1.56209 7.70665 1.56209 7.79808 1.57352 7.88951C1.63066 8.25522 1.9278 8.52951 2.30494 8.57522C2.62494 8.59808 2.9678 8.59808 3.2878 8.58665C3.4478 8.57903 3.60399 8.57522 3.75637 8.57522H4.27066C4.36209 8.57522 4.36209 8.49522 4.36209 8.48379C4.36209 8.47237 4.36209 8.39237 4.27066 8.39237H2.8078C2.37352 8.39237 1.7678 8.40379 1.74494 7.74094C1.72209 7.11237 1.73352 6.47236 1.73352 5.84379C1.74114 5.53141 1.74494 5.21903 1.74494 4.90665V3.55808C1.74494 3.06665 1.99637 2.78094 2.4078 2.76951C2.8078 2.75808 3.19637 2.75808 3.58494 2.75808C3.77542 2.7657 3.96971 2.76951 4.1678 2.76951H13.3221C13.5964 2.76951 13.9735 2.76951 14.1449 3.14665C14.2364 3.35237 14.2135 3.63808 14.2021 3.88951C14.1945 3.9657 14.1907 4.04189 14.1907 4.11808V7.38665C14.1907 7.42475 14.1907 7.46284 14.1907 7.50094C14.1983 7.57713 14.1983 7.65713 14.1907 7.74094C14.1792 8.10665 13.9164 8.38094 13.5507 8.39237C13.2307 8.4038 12.9107 8.4038 12.5907 8.39237C12.4307 8.39237 12.2745 8.39237 12.1221 8.39237H11.6649C11.5735 8.39237 11.5735 8.47237 11.5735 8.48379C11.5735 8.49522 11.5735 8.57522 11.6649 8.57522H13.1164C13.1697 8.57522 13.223 8.57522 13.2764 8.57522C13.4021 8.57522 13.5278 8.58665 13.6535 8.5638C14.0307 8.51808 14.3278 8.23237 14.3735 7.85522C14.3964 7.63808 14.3849 7.40951 14.3849 7.19237C14.3773 7.09332 14.3735 6.99427 14.3735 6.89522V3.55808C14.3735 3.10094 14.1564 2.60951 13.5507 2.58665C13.2078 2.57522 12.8421 2.57522 12.4992 2.57522C12.324 2.58284 12.1488 2.58665 11.9735 2.58665H2.49923Z" fill="#666666"/>
<path fill-rule="evenodd" clip-rule="evenodd" d="M2.81923 8.71627C2.6478 8.71627 2.46494 8.70484 2.29352 8.69341C1.87066 8.6477 1.5278 8.3277 1.45923 7.90484C1.4478 7.81341 1.4478 7.71056 1.4478 7.61913V7.55056V4.19056C1.4478 4.10675 1.44399 4.01532 1.43637 3.91627C1.42495 3.66484 1.41352 3.39056 1.48209 3.16199C1.59637 2.7277 1.98494 2.47627 2.49923 2.47627H11.9735C12.1488 2.47627 12.324 2.47246 12.4992 2.46484C12.8421 2.46484 13.2078 2.46484 13.5621 2.47627C14.1221 2.49913 14.4878 2.92199 14.4878 3.56199V6.89913C14.4878 6.99056 14.4916 7.0858 14.4992 7.18484C14.4992 7.41342 14.5107 7.64199 14.4878 7.87056C14.4307 8.29342 14.0992 8.63627 13.6649 8.68199C13.5392 8.70484 13.4021 8.69341 13.2649 8.69341C13.2192 8.69341 13.1697 8.69341 13.1164 8.69341H11.6649C11.5278 8.69341 11.4592 8.59056 11.4592 8.4877C11.4592 8.38484 11.5278 8.28199 11.6649 8.28199H12.1221C12.2745 8.28199 12.4307 8.28199 12.5907 8.28199C12.9107 8.29342 13.2307 8.29342 13.5507 8.28199C13.8478 8.27056 14.0764 8.05341 14.0764 7.73341C14.084 7.65722 14.084 7.58103 14.0764 7.50484C14.0764 7.46675 14.0764 7.42865 14.0764 7.39056V4.12199C14.0764 4.0458 14.0802 3.9658 14.0878 3.88199C14.0992 3.64199 14.1221 3.37913 14.0307 3.19627C13.9049 2.91056 13.6535 2.8877 13.3221 2.8877H4.1678C3.96971 2.8877 3.77542 2.88389 3.58494 2.87627C3.19637 2.87627 2.8078 2.87627 2.41923 2.8877C1.9278 2.89913 1.85923 3.31056 1.85923 3.56199V4.91056C1.85923 5.22294 1.85542 5.53532 1.8478 5.8477C1.8478 6.47627 1.83637 7.11627 1.85923 7.73341C1.87066 8.2477 2.25923 8.28199 2.8078 8.28199H2.89923H4.27066C4.4078 8.28199 4.47637 8.38484 4.47637 8.4877C4.47637 8.59056 4.4078 8.69341 4.27066 8.69341H3.75637C3.60399 8.69341 3.45161 8.69722 3.29923 8.70484C3.13923 8.71246 2.97923 8.71627 2.81923 8.71627ZM2.49923 2.59056C2.03066 2.59056 1.69923 2.81913 1.59637 3.19627C1.5278 3.41341 1.53923 3.66484 1.55066 3.91627C1.55828 4.01532 1.56209 4.10675 1.56209 4.19056V7.61913C1.56209 7.71056 1.56209 7.80198 1.57352 7.89341C1.63066 8.25913 1.9278 8.53341 2.30494 8.57913C2.62494 8.60198 2.9678 8.60199 3.2878 8.59056C3.4478 8.58294 3.60399 8.57913 3.75637 8.57913H4.27066C4.36209 8.57913 4.36209 8.49913 4.36209 8.4877C4.36209 8.47627 4.36209 8.39627 4.27066 8.39627H2.8078C2.37352 8.39627 1.7678 8.4077 1.74494 7.74484C1.72209 7.11627 1.73352 6.47627 1.73352 5.8477C1.74114 5.53532 1.74494 5.22294 1.74494 4.91056V3.56199C1.74494 3.07056 1.99637 2.78484 2.4078 2.77341C2.8078 2.76199 3.19637 2.76199 3.58494 2.76199C3.77542 2.7696 3.96971 2.77341 4.1678 2.77341H13.3221C13.5964 2.77341 13.9735 2.77342 14.1449 3.15056C14.2364 3.35627 14.2135 3.64199 14.2021 3.89342C14.1945 3.96961 14.1907 4.0458 14.1907 4.12199V7.39056C14.1907 7.42865 14.1907 7.46675 14.1907 7.50484C14.1983 7.58103 14.1983 7.66103 14.1907 7.74484C14.1792 8.11056 13.9164 8.38484 13.5507 8.39627C13.2307 8.4077 12.9107 8.4077 12.5907 8.39627C12.4307 8.39627 12.2745 8.39627 12.1221 8.39627H11.6649C11.5735 8.39627 11.5735 8.47627 11.5735 8.4877C11.5735 8.49913 11.5735 8.57913 11.6649 8.57913H13.1164C13.1697 8.57913 13.223 8.57913 13.2764 8.57913C13.4021 8.57913 13.5278 8.59056 13.6535 8.5677C14.0307 8.52199 14.3278 8.23627 14.3735 7.85913C14.3964 7.64199 14.3849 7.41341 14.3849 7.19627C14.3773 7.09722 14.3735 6.99818 14.3735 6.89913V3.56199C14.3735 3.10484 14.1564 2.61341 13.5507 2.59056C13.2078 2.57913 12.8421 2.57913 12.4992 2.57913C12.324 2.58675 12.1488 2.59056 11.9735 2.59056H2.49923Z" fill="#666666"/>
<path fill-rule="evenodd" clip-rule="evenodd" d="M2.81924 8.77196C2.61353 8.77196 2.4421 8.76053 2.2821 8.74911C1.83639 8.70339 1.47067 8.36054 1.4021 7.91482C1.39067 7.81196 1.39067 7.70911 1.39067 7.61768V7.54911V4.18911C1.39067 4.1053 1.38686 4.01768 1.37924 3.92625C1.36782 3.66339 1.35639 3.38911 1.42496 3.14911C1.55067 2.69196 1.95067 2.41768 2.49924 2.41768H11.9735C12.1411 2.41768 12.3126 2.41387 12.4878 2.40625H12.4992C12.8307 2.40625 13.1964 2.40625 13.5621 2.41768C14.1564 2.44053 14.545 2.88625 14.545 3.56053V6.89768C14.545 6.98911 14.5488 7.08054 14.5564 7.17196C14.5564 7.41196 14.5678 7.65197 14.5335 7.88054C14.4878 8.32625 14.1335 8.68054 13.6764 8.73768C13.5392 8.76054 13.4021 8.74911 13.265 8.74911C13.2192 8.74911 13.1697 8.74911 13.1164 8.74911H11.665C11.4935 8.74911 11.4021 8.61196 11.4021 8.48625C11.4021 8.36054 11.4935 8.22339 11.665 8.22339H12.1221C12.2745 8.22339 12.4307 8.22339 12.5907 8.22339C12.9107 8.23482 13.2307 8.23482 13.5392 8.22339C13.8135 8.21197 14.0192 8.01768 14.0192 7.73196C14.0269 7.65577 14.0269 7.57958 14.0192 7.50339C14.0192 7.4653 14.0192 7.4272 14.0192 7.38911V4.12054C14.0192 4.04435 14.0231 3.96434 14.0307 3.88054C14.0421 3.65196 14.065 3.38911 13.985 3.21768C13.8707 2.95482 13.6421 2.94339 13.3221 2.94339H4.16782C3.96972 2.94339 3.77544 2.93958 3.58496 2.93196C3.19639 2.93196 2.80782 2.93196 2.41924 2.94339C1.99639 2.95482 1.91639 3.28625 1.91639 3.56053V4.90911C1.91639 5.21387 1.91258 5.52244 1.90496 5.83482V5.84625C1.90496 6.46339 1.89353 7.10339 1.91639 7.73196C1.92782 8.15482 2.19067 8.22339 2.80782 8.22339H2.89924H4.27067C4.4421 8.22339 4.53353 8.36054 4.53353 8.48625C4.53353 8.61196 4.4421 8.74911 4.27067 8.74911H3.75639C3.60401 8.74911 3.45163 8.75292 3.29924 8.76053C3.13924 8.76815 2.97924 8.77196 2.81924 8.77196ZM2.29353 8.63482C2.45353 8.64625 2.61353 8.65768 2.81924 8.65768C2.96401 8.65768 3.10496 8.65387 3.2421 8.64625C2.93353 8.65768 2.6021 8.65768 2.29353 8.63482ZM2.49924 2.64625C2.06496 2.64625 1.74496 2.85196 1.65353 3.20625C1.59639 3.41196 1.60782 3.66339 1.61924 3.91482C1.61924 4.01387 1.61924 4.1053 1.61924 4.18911V7.61768C1.61924 7.70911 1.61924 7.80054 1.63067 7.88054C1.68782 8.22339 1.97353 8.48625 2.31639 8.52053C2.63639 8.54339 2.96782 8.54339 3.28782 8.53196C3.44782 8.52434 3.60401 8.52053 3.75639 8.52053H4.2821C4.29353 8.52053 4.30496 8.52054 4.30496 8.48625C4.30496 8.45196 4.29353 8.45197 4.2821 8.45197H2.81924C2.37353 8.45197 1.71067 8.46339 1.68782 7.74339C1.67639 7.11482 1.67639 6.46339 1.68782 5.84625V5.83482C1.68782 5.52244 1.68782 5.21387 1.68782 4.90911V3.56053C1.68782 3.04625 1.97353 2.72625 2.41924 2.71482C2.80782 2.70339 3.20782 2.70339 3.58496 2.70339C3.78305 2.71101 3.97734 2.71482 4.16782 2.71482H13.3335C13.6078 2.71482 14.0078 2.71482 14.2021 3.12625C14.2935 3.34339 14.2821 3.62911 14.2707 3.89196C14.2631 3.97577 14.2592 4.05196 14.2592 4.12054V7.38911C14.2592 7.4272 14.2592 7.4653 14.2592 7.50339C14.2592 7.57958 14.2592 7.65958 14.2592 7.74339C14.2478 8.14339 13.9621 8.44054 13.5621 8.45197C13.2421 8.46339 12.9221 8.46339 12.6135 8.45197C12.4421 8.45197 12.2821 8.45197 12.1221 8.45197H11.665C11.6535 8.45197 11.6421 8.45196 11.6421 8.48625C11.6421 8.52054 11.6535 8.52053 11.665 8.52053H13.1278C13.1735 8.52053 13.2231 8.52053 13.2764 8.52053C13.4021 8.52053 13.5278 8.53197 13.6535 8.50911C13.9964 8.47482 14.2707 8.20053 14.3164 7.84625C14.3392 7.64053 14.3392 7.41196 14.3278 7.19482C14.3278 7.08815 14.3278 6.98911 14.3278 6.89768V3.56053C14.3278 3.12625 14.1221 2.66911 13.5507 2.64625C13.2078 2.63482 12.8535 2.63482 12.5107 2.63482C12.3278 2.64244 12.1488 2.64625 11.9735 2.64625H2.49924ZM12.865 8.34911C13.0554 8.34911 13.2421 8.3453 13.425 8.33768C13.2345 8.3453 13.0478 8.34911 12.865 8.34911ZM2.33924 8.31482C2.48782 8.33768 2.65924 8.33768 2.80782 8.33768C2.64782 8.33768 2.48782 8.33768 2.33924 8.31482ZM2.91067 8.33768H2.83067H4.2821H2.91067ZM14.1564 7.50339C14.1564 7.5872 14.1526 7.6672 14.145 7.74339C14.1526 7.65958 14.1564 7.57958 14.1564 7.50339ZM14.4421 6.90911C14.4421 6.99292 14.4459 7.07673 14.4535 7.16053C14.4459 7.06911 14.4421 6.9853 14.4421 6.90911ZM14.4078 3.21768C14.4307 3.33196 14.4421 3.44625 14.4421 3.56053C14.4421 3.43863 14.4307 3.32434 14.4078 3.21768ZM13.3335 2.82911C13.5278 2.82911 13.6992 2.84054 13.8364 2.89768C13.6764 2.82911 13.4935 2.82911 13.3335 2.82911ZM13.0364 2.52054C12.8992 2.52054 12.7659 2.52434 12.6364 2.53196C12.7964 2.52434 12.9564 2.52054 13.1164 2.52054C13.0935 2.52054 13.0669 2.52054 13.0364 2.52054Z" fill="#666666"/>
<path d="M11.6649 6.84691C12.4077 6.82405 13.002 6.19548 12.922 5.44119C12.8534 4.78977 12.3049 4.3212 11.6534 4.30977C11.0706 4.29834 10.4649 4.30977 9.88199 4.30977C8.04199 4.30977 6.20199 4.29834 4.37342 4.30977C3.83628 4.30977 3.34485 4.54977 3.12771 5.05262C2.73914 5.89834 3.37914 6.81262 4.27057 6.84691C4.46485 6.84691 4.46485 6.5612 4.27057 6.54977C3.39057 6.51548 2.95628 5.40691 3.65342 4.82405C3.89342 4.62977 4.16771 4.60691 4.45342 4.60691C5.11628 4.60691 5.77533 4.60691 6.43057 4.60691C8.09152 4.60691 9.74866 4.60691 11.402 4.60691C11.6877 4.60691 11.9506 4.59548 12.202 4.76691C13.002 5.30405 12.5906 6.52691 11.6649 6.54977C11.4706 6.54977 11.4706 6.84691 11.6649 6.84691Z" fill="#666666"/>
<path fill-rule="evenodd" clip-rule="evenodd" d="M4.28205 6.90219C4.28205 6.90219 4.27825 6.90219 4.27063 6.90219C3.81348 6.89076 3.39063 6.63933 3.15063 6.25076C2.91063 5.87362 2.88777 5.4279 3.07063 5.0279C3.28777 4.53647 3.7792 4.25076 4.37348 4.25076C5.59253 4.25076 6.81539 4.25076 8.04206 4.25076C8.85348 4.25076 9.65348 4.25076 10.4649 4.25076C10.8649 4.23933 11.2649 4.23933 11.6649 4.25076C12.3392 4.26219 12.9106 4.77647 12.9792 5.43933C13.0135 5.80504 12.9106 6.15933 12.6592 6.43362C12.4192 6.71933 12.0535 6.89076 11.6649 6.90219C11.5849 6.90219 11.5278 6.8679 11.4935 6.81076C11.4478 6.75362 11.4478 6.66219 11.4935 6.59362C11.5278 6.53647 11.5849 6.49076 11.6649 6.49076C12.0763 6.47933 12.4078 6.20505 12.5335 5.80505C12.6135 5.5079 12.5678 5.08504 12.1792 4.82219C11.9392 4.66219 11.6878 4.66219 11.4249 4.66219H4.45348C4.14491 4.66219 3.90491 4.69647 3.6992 4.8679C3.40206 5.1079 3.2992 5.48504 3.41348 5.83933C3.55063 6.2279 3.88205 6.47933 4.28205 6.49076C4.35063 6.49076 4.4192 6.53647 4.45348 6.59362C4.48777 6.66219 4.48777 6.75362 4.44206 6.81076C4.40777 6.8679 4.35063 6.90219 4.28205 6.90219ZM6.20206 4.36504C5.59253 4.36504 4.98301 4.36504 4.37348 4.36504C3.81348 4.36504 3.3792 4.6279 3.17348 5.07362C3.00206 5.43933 3.03634 5.85076 3.24206 6.19362C3.47063 6.5479 3.8592 6.77647 4.28205 6.7879C4.31253 6.7879 4.33539 6.77647 4.35063 6.75362C4.36206 6.71933 4.36206 6.68505 4.35063 6.65076C4.33539 6.62028 4.30872 6.60505 4.27063 6.60505C3.83634 6.59362 3.44777 6.3079 3.31063 5.88505C3.17348 5.47362 3.28777 5.05076 3.6192 4.77647C3.88206 4.55933 4.19063 4.5479 4.45348 4.5479H11.4249C11.7106 4.5479 11.9735 4.5479 12.2363 4.71933C12.6135 4.98219 12.7621 5.40504 12.6363 5.83933C12.5106 6.29647 12.1221 6.59362 11.6649 6.60505C11.6268 6.60505 11.6002 6.62028 11.5849 6.65076C11.5735 6.68505 11.5735 6.71933 11.5849 6.75362C11.6002 6.77647 11.6268 6.7879 11.6649 6.7879C12.0192 6.77647 12.3506 6.61647 12.5792 6.35362C12.7963 6.10219 12.8992 5.78219 12.8649 5.45076C12.7963 4.84504 12.2821 4.37647 11.6535 4.36504C11.2649 4.35362 10.8649 4.35362 10.4763 4.36504C9.66491 4.36504 8.85348 4.36504 8.04206 4.36504C7.43253 4.36504 6.8192 4.36504 6.20206 4.36504Z" fill="#666666"/>
<path fill-rule="evenodd" clip-rule="evenodd" d="M4.28205 6.90219C4.28205 6.90219 4.27825 6.90219 4.27063 6.90219C3.81348 6.89076 3.39063 6.63933 3.15063 6.25076C2.91063 5.87362 2.88777 5.4279 3.07063 5.0279C3.28777 4.53647 3.7792 4.25076 4.37348 4.25076C5.59253 4.25076 6.81539 4.25076 8.04206 4.25076C8.85348 4.25076 9.65348 4.25076 10.4649 4.25076C10.8649 4.23933 11.2649 4.23933 11.6649 4.25076C12.3392 4.26219 12.9106 4.77647 12.9792 5.43933C13.0135 5.80504 12.9106 6.15933 12.6592 6.43362C12.4192 6.71933 12.0535 6.89076 11.6649 6.90219C11.5849 6.90219 11.5278 6.8679 11.4935 6.81076C11.4478 6.75362 11.4478 6.66219 11.4935 6.59362C11.5278 6.53647 11.5849 6.49076 11.6649 6.49076C12.0763 6.47933 12.4078 6.20505 12.5335 5.80505C12.6135 5.5079 12.5678 5.08504 12.1792 4.82219C11.9392 4.66219 11.6878 4.66219 11.4249 4.66219H4.45348C4.14491 4.66219 3.90491 4.69647 3.6992 4.8679C3.40206 5.1079 3.2992 5.48504 3.41348 5.83933C3.55063 6.2279 3.88205 6.47933 4.28205 6.49076C4.35063 6.49076 4.4192 6.53647 4.45348 6.59362C4.48777 6.66219 4.48777 6.75362 4.44206 6.81076C4.40777 6.8679 4.35063 6.90219 4.28205 6.90219ZM6.20206 4.36504C5.59253 4.36504 4.98301 4.36504 4.37348 4.36504C3.81348 4.36504 3.3792 4.6279 3.17348 5.07362C3.00206 5.43933 3.03634 5.85076 3.24206 6.19362C3.47063 6.5479 3.8592 6.77647 4.28205 6.7879C4.31253 6.7879 4.33539 6.77647 4.35063 6.75362C4.36206 6.71933 4.36206 6.68505 4.35063 6.65076C4.33539 6.62028 4.30872 6.60505 4.27063 6.60505C3.83634 6.59362 3.44777 6.3079 3.31063 5.88505C3.17348 5.47362 3.28777 5.05076 3.6192 4.77647C3.88206 4.55933 4.19063 4.5479 4.45348 4.5479H11.4249C11.7106 4.5479 11.9735 4.5479 12.2363 4.71933C12.6135 4.98219 12.7621 5.40504 12.6363 5.83933C12.5106 6.29647 12.1221 6.59362 11.6649 6.60505C11.6268 6.60505 11.6002 6.62028 11.5849 6.65076C11.5735 6.68505 11.5735 6.71933 11.5849 6.75362C11.6002 6.77647 11.6268 6.7879 11.6649 6.7879C12.0192 6.77647 12.3506 6.61647 12.5792 6.35362C12.7963 6.10219 12.8992 5.78219 12.8649 5.45076C12.7963 4.84504 12.2821 4.37647 11.6535 4.36504C11.2649 4.35362 10.8649 4.35362 10.4763 4.36504C9.66491 4.36504 8.85348 4.36504 8.04206 4.36504C7.43253 4.36504 6.8192 4.36504 6.20206 4.36504Z" fill="#666666"/>
<path fill-rule="evenodd" clip-rule="evenodd" d="M4.28209 6.95788H4.27067C3.79067 6.93502 3.35638 6.68359 3.10495 6.28359C2.85352 5.88359 2.83067 5.42645 3.01352 5.00359C3.25352 4.50074 3.75638 4.19217 4.37352 4.19217C5.61924 4.19217 6.91067 4.19217 8.0421 4.19217H8.56781C9.19638 4.19217 9.83638 4.19217 10.465 4.19217C10.8535 4.18074 11.265 4.18074 11.665 4.19217C12.3735 4.20359 12.9678 4.74074 13.0364 5.42645C13.0821 5.80359 12.9564 6.18074 12.705 6.46645C12.4421 6.76359 12.065 6.94645 11.665 6.95788C11.5735 6.95788 11.4935 6.91216 11.4478 6.84359C11.3907 6.76359 11.3907 6.64931 11.4364 6.56931C11.4821 6.48931 11.5621 6.43217 11.6535 6.43217C12.0421 6.42074 12.3621 6.16931 12.4764 5.79217C12.5564 5.50645 12.5107 5.11788 12.145 4.86645C11.9278 4.71788 11.6878 4.71788 11.425 4.71788H4.45352C4.15638 4.71788 3.92781 4.75217 3.73352 4.91217C3.45924 5.14074 3.35638 5.48359 3.47067 5.82645C3.59638 6.18074 3.90495 6.42074 4.28209 6.43217C4.37352 6.43217 4.45352 6.48931 4.49924 6.56931C4.54495 6.64931 4.54495 6.76359 4.48781 6.84359C4.4421 6.91216 4.37352 6.95788 4.28209 6.95788ZM3.19638 6.21502C3.42495 6.59216 3.83638 6.83217 4.27067 6.84359L4.28209 6.90074V6.84359C4.32781 6.84359 4.37352 6.82074 4.39638 6.78645C4.37352 6.80931 4.33924 6.84359 4.28209 6.84359C3.83638 6.83217 3.42495 6.59216 3.19638 6.21502ZM4.39638 6.62645C4.43067 6.67217 4.41924 6.72931 4.39638 6.77502C4.43067 6.72931 4.43067 6.67217 4.39638 6.62645ZM11.4707 4.48931C11.7335 4.48931 12.0078 4.50074 12.2707 4.67216C12.6707 4.94645 12.8307 5.39217 12.6935 5.84931C12.5564 6.32931 12.1564 6.64931 11.665 6.66074C11.6421 6.66074 11.6421 6.67216 11.6421 6.67216C11.6307 6.68359 11.6307 6.70645 11.6421 6.71788C11.6421 6.72931 11.6421 6.72931 11.6535 6.72931C11.9964 6.71788 12.3164 6.56931 12.5335 6.31788C12.7507 6.07788 12.8421 5.76931 12.8078 5.44931C12.7507 4.87788 12.2478 4.43217 11.6535 4.42074C11.265 4.40931 10.865 4.40931 10.4878 4.42074C9.83638 4.42074 9.19638 4.42074 8.56781 4.42074H8.0421C6.81543 4.42074 5.59257 4.42074 4.37352 4.42074C3.83638 4.42074 3.42495 4.67216 3.23067 5.09502C3.07067 5.44931 3.09352 5.83788 3.29924 6.15788C3.50495 6.50074 3.87067 6.71788 4.28209 6.72931C4.28971 6.72931 4.29352 6.7255 4.29352 6.71788C4.30495 6.70645 4.30495 6.68359 4.29352 6.67216C4.29352 6.67216 4.29352 6.66074 4.27067 6.66074C3.8021 6.64931 3.40209 6.34074 3.25352 5.89502C3.10495 5.47216 3.23067 5.02645 3.58495 4.72931C3.85924 4.51216 4.17924 4.48931 4.45352 4.48931H11.425C11.4402 4.48931 11.4554 4.48931 11.4707 4.48931ZM12.5678 5.22074C12.6478 5.42645 12.6364 5.63217 12.5907 5.80359C12.6478 5.60931 12.6364 5.40359 12.5678 5.22074ZM11.0707 4.29502C11.2688 4.29502 11.463 4.29883 11.6535 4.30645C11.265 4.29502 10.8535 4.29502 10.465 4.30645C10.6707 4.29883 10.8726 4.29502 11.0707 4.29502ZM4.45352 4.60359C4.37352 4.60359 4.27067 4.60359 4.17924 4.61502C4.26305 4.6074 4.35448 4.60359 4.45352 4.60359ZM6.21352 4.30645C5.67638 4.30645 5.11638 4.30645 4.56781 4.30645C5.7259 4.30645 6.884 4.30645 8.0421 4.30645C7.45924 4.30645 6.8421 4.30645 6.21352 4.30645Z" fill="#666666"/>
</svg>
