<svg width="16" height="16" viewBox="0 0 16 16" fill="none" xmlns="http://www.w3.org/2000/svg">
<path fill-rule="evenodd" clip-rule="evenodd" d="M14.2286 5.15563V12.6299C14.2286 12.9842 13.9429 13.2813 13.5886 13.2813H2.41149C2.0572 13.2813 1.77148 12.9842 1.77148 12.6299V5.15563C1.77148 4.80134 2.0572 4.51562 2.41149 4.51562H13.5886C13.9429 4.51562 14.2286 4.80134 14.2286 5.15563ZM2.41149 4.97277C2.30863 4.97277 2.22863 5.05277 2.22863 5.15563V12.6299C2.22863 12.7328 2.30863 12.8242 2.41149 12.8242H13.5886C13.6915 12.8242 13.7715 12.7328 13.7715 12.6299V5.15563C13.7715 5.05277 13.6915 4.97277 13.5886 4.97277H2.41149Z" fill="#365FA3"/>
<path fill-rule="evenodd" clip-rule="evenodd" d="M13.5886 13.337H2.4115C2.02293 13.337 1.71436 13.017 1.71436 12.6285V5.15417C1.71436 4.7656 2.02293 4.45703 2.4115 4.45703H13.5886C13.9772 4.45703 14.2858 4.7656 14.2858 5.15417V12.6285C14.2858 13.017 13.9772 13.337 13.5886 13.337ZM2.4115 4.57132C2.0915 4.57132 1.82864 4.83417 1.82864 5.15417V12.6285C1.82864 12.9599 2.0915 13.2227 2.4115 13.2227H13.5886C13.9086 13.2227 14.1715 12.9599 14.1715 12.6285V5.15417C14.1715 4.83417 13.9086 4.57132 13.5886 4.57132H2.4115ZM13.5772 12.8799H2.4115C2.27436 12.8799 2.16007 12.7656 2.16007 12.6285V5.15417C2.16007 5.02846 2.27436 4.91417 2.4115 4.91417H13.5772C13.7144 4.91417 13.8286 5.02846 13.8286 5.15417V12.6285C13.8286 12.7656 13.7144 12.8799 13.5772 12.8799ZM2.4115 5.02846C2.3315 5.02846 2.27435 5.0856 2.27435 5.15417V12.6285C2.27435 12.7085 2.3315 12.7656 2.4115 12.7656H13.5772C13.6458 12.7656 13.7144 12.7085 13.7144 12.6285V5.15417C13.7144 5.0856 13.6458 5.02846 13.5772 5.02846H2.4115Z" fill="#365FA3"/>
<path d="M2.86828 3.45612C2.86828 3.34183 2.9597 3.26183 3.06256 3.26183H12.9368C13.0397 3.26183 13.1311 3.34183 13.1311 3.45612V4.18754H13.5883V3.45612C13.5883 3.0904 13.2911 2.80469 12.9368 2.80469H3.06256C2.70827 2.80469 2.41113 3.0904 2.41113 3.45612V4.18754H2.86828V3.45612Z" fill="#365FA3"/>
<path fill-rule="evenodd" clip-rule="evenodd" d="M13.5883 4.24324H13.1311C13.0969 4.24324 13.074 4.22038 13.074 4.18609V3.45467C13.074 3.37467 13.0054 3.31752 12.9369 3.31752H3.06257C2.98257 3.31752 2.92543 3.37467 2.92543 3.45467V4.18609C2.92543 4.22038 2.90258 4.24324 2.86829 4.24324H2.41115C2.37686 4.24324 2.354 4.22038 2.354 4.18609V3.45467C2.354 3.06609 2.674 2.74609 3.06257 2.74609H12.9369C13.3254 2.74609 13.6454 3.06609 13.6454 3.45467V4.18609C13.6454 4.22038 13.6111 4.24324 13.5883 4.24324ZM13.1883 4.12895H13.5311V3.45467C13.5311 3.12324 13.2569 2.86038 12.9369 2.86038H3.06257C2.73114 2.86038 2.46829 3.12324 2.46829 3.45467V4.12895H2.81115V3.45467C2.81115 3.31752 2.92543 3.20324 3.06257 3.20324H12.9369C13.074 3.20324 13.1883 3.31752 13.1883 3.45467V4.12895Z" fill="#365FA3"/>
<path d="M11.8288 6.56647C11.8288 7.14933 11.3603 7.62933 10.766 7.62933C10.1831 7.62933 9.70312 7.14933 9.70312 6.56647C9.70312 5.97219 10.1831 5.49219 10.766 5.49219C11.3603 5.49219 11.8288 5.97219 11.8288 6.56647Z" fill="#365FA3"/>
<path d="M13.1882 10.84V12.3029H2.81104V10.7829L6.11389 7.30859L9.65675 11.0915C9.75961 11.2057 9.89675 11.2629 10.0339 11.2629C10.1596 11.2629 10.2853 11.2172 10.3882 11.1257C10.6053 10.92 10.6053 10.6 10.411 10.3829L9.63389 9.54859L10.7767 8.34859L13.1882 10.84Z" fill="#365FA3"/>
</svg>
