<svg width="16" height="16" viewBox="0 0 16 16" fill="none" xmlns="http://www.w3.org/2000/svg">
<path fill-rule="evenodd" clip-rule="evenodd" d="M14.2625 5.14V12.6143C14.2625 12.98 13.9654 13.2657 13.6111 13.2657H2.44537C2.09109 13.2657 1.79395 12.98 1.79395 12.6143V5.14C1.79395 4.78571 2.09109 4.5 2.44537 4.5H13.6111C13.9654 4.5 14.2625 4.78571 14.2625 5.14ZM2.44537 4.95714C2.34252 4.95714 2.25109 5.03714 2.25109 5.14V12.6143C2.25109 12.7171 2.34252 12.8086 2.44537 12.8086H13.6111C13.7139 12.8086 13.8054 12.7171 13.8054 12.6143V5.14C13.8054 5.03714 13.7139 4.95714 13.6111 4.95714H2.44537Z" fill="#666666"/>
<path fill-rule="evenodd" clip-rule="evenodd" d="M13.6111 13.3214H2.44539C2.05682 13.3214 1.73682 13.0014 1.73682 12.6128V5.13855C1.73682 4.74998 2.05682 4.44141 2.44539 4.44141H13.6111C13.9997 4.44141 14.3197 4.74998 14.3197 5.13855V12.6128C14.3197 13.0014 13.9997 13.3214 13.6111 13.3214ZM2.44539 4.55569C2.11396 4.55569 1.8511 4.81855 1.8511 5.13855V12.6128C1.8511 12.9443 2.11396 13.2071 2.44539 13.2071H13.6111C13.9425 13.2071 14.2054 12.9443 14.2054 12.6128V5.13855C14.2054 4.81855 13.9425 4.55569 13.6111 4.55569H2.44539ZM13.6111 12.8643H2.44539C2.30824 12.8643 2.19396 12.75 2.19396 12.6128V5.13855C2.19396 5.01284 2.30824 4.89855 2.44539 4.89855H13.6111C13.7482 4.89855 13.8625 5.01284 13.8625 5.13855V12.6128C13.8625 12.75 13.7482 12.8643 13.6111 12.8643ZM2.44539 5.01283C2.37682 5.01283 2.30825 5.06998 2.30825 5.13855V12.6128C2.30825 12.6928 2.37682 12.75 2.44539 12.75H13.6111C13.6911 12.75 13.7482 12.6928 13.7482 12.6128V5.13855C13.7482 5.06998 13.6911 5.01283 13.6111 5.01283H2.44539Z" fill="#666666"/>
<path d="M2.90246 3.42877C2.90246 3.32592 2.98246 3.23449 3.08531 3.23449H12.9596C13.0739 3.23449 13.1539 3.32592 13.1539 3.42877V4.1602H13.611V3.42877C13.611 3.06306 13.3253 2.77734 12.9596 2.77734H3.08531C2.73103 2.77734 2.44531 3.06306 2.44531 3.42877V4.1602H2.90246V3.42877Z" fill="#666666"/>
<path fill-rule="evenodd" clip-rule="evenodd" d="M13.611 4.21589H13.1539C13.1196 4.21589 13.0968 4.19304 13.0968 4.15875V3.42732C13.0968 3.34732 13.0396 3.29018 12.9596 3.29018H3.08533C3.01676 3.29018 2.95961 3.34732 2.95961 3.42732V4.15875C2.95961 4.19304 2.92533 4.21589 2.90247 4.21589H2.44533C2.41104 4.21589 2.38818 4.19304 2.38818 4.15875V3.42732C2.38818 3.03875 2.69676 2.71875 3.08533 2.71875H12.9596C13.3482 2.71875 13.6682 3.03875 13.6682 3.42732V4.15875C13.6682 4.19304 13.6453 4.21589 13.611 4.21589ZM13.211 4.10161H13.5539V3.42732C13.5539 3.09589 13.291 2.83304 12.9596 2.83304H3.08533C2.76533 2.83304 2.50247 3.09589 2.50247 3.42732V4.10161H2.84533V3.42732C2.84533 3.29018 2.94818 3.17589 3.08533 3.17589H12.9596C13.0968 3.17589 13.211 3.29018 13.211 3.42732V4.10161Z" fill="#666666"/>
<path d="M11.8632 6.53942C11.8632 7.12228 11.3832 7.60228 10.8004 7.60228C10.2061 7.60228 9.72607 7.12228 9.72607 6.53942C9.72607 5.94513 10.2061 5.47656 10.8004 5.47656C11.3832 5.47656 11.8632 5.94513 11.8632 6.53942Z" fill="#666666"/>
<path d="M13.2114 10.8166V12.2794H2.8457V10.7594L6.14856 7.28516L9.67999 11.068C9.78285 11.1823 9.91999 11.2394 10.0571 11.2394C10.1943 11.2394 10.32 11.1937 10.4114 11.1023C10.6286 10.8966 10.64 10.5766 10.4457 10.3594L9.66856 9.52516L10.8114 8.33659L13.2114 10.8166Z" fill="#666666"/>
<path d="M1.65672 14.6258C1.58815 14.6258 1.53101 14.6029 1.48529 14.5572C1.40529 14.4772 1.40529 14.3286 1.48529 14.2372L14.2396 1.49435C14.331 1.40292 14.4682 1.40292 14.5596 1.49435C14.651 1.57435 14.651 1.72292 14.5596 1.81435L1.81672 14.5572C1.77101 14.6029 1.71386 14.6258 1.65672 14.6258Z" fill="#666666"/>
<path fill-rule="evenodd" clip-rule="evenodd" d="M1.65681 14.6825C1.57681 14.6825 1.50824 14.6597 1.45109 14.6025C1.39395 14.5454 1.37109 14.4768 1.37109 14.3968C1.37109 14.3282 1.39395 14.2482 1.45109 14.2025L14.194 1.44824C14.3082 1.34538 14.4911 1.34538 14.6054 1.44824C14.6625 1.50538 14.6854 1.57395 14.6854 1.65395C14.6854 1.72252 14.6625 1.80252 14.6054 1.84824L1.85109 14.6025C1.80538 14.6597 1.72538 14.6825 1.65681 14.6825ZM14.3997 1.48252C14.3539 1.48252 14.3082 1.49395 14.2854 1.52824L1.53109 14.2825C1.49681 14.3168 1.48538 14.3511 1.48538 14.3968C1.48538 14.4425 1.49681 14.4882 1.53109 14.5225C1.59966 14.5911 1.71395 14.5911 1.77109 14.5225L14.5254 1.76824C14.5597 1.74538 14.5711 1.69967 14.5711 1.65395C14.5711 1.60824 14.5597 1.56252 14.5254 1.52824C14.4911 1.49395 14.4454 1.48252 14.3997 1.48252Z" fill="#666666"/>
</svg>
