<svg width="16" height="16" viewBox="0 0 16 16" fill="none" xmlns="http://www.w3.org/2000/svg">
<path fill-rule="evenodd" clip-rule="evenodd" d="M14.2401 5.15563V12.6299C14.2401 12.9842 13.9543 13.2813 13.5886 13.2813H2.42291C2.06863 13.2813 1.77148 12.9842 1.77148 12.6299V5.15563C1.77148 4.80134 2.06863 4.51562 2.42291 4.51562H13.5886C13.9543 4.51562 14.2401 4.80134 14.2401 5.15563ZM2.42291 4.97277C2.32006 4.97277 2.22863 5.05277 2.22863 5.15563V12.6299C2.22863 12.7328 2.32006 12.8242 2.42291 12.8242H13.5886C13.6915 12.8242 13.7829 12.7328 13.7829 12.6299V5.15563C13.7829 5.05277 13.6915 4.97277 13.5886 4.97277H2.42291Z" fill="#666666"/>
<path fill-rule="evenodd" clip-rule="evenodd" d="M13.5886 13.337H2.42293C2.03436 13.337 1.71436 13.017 1.71436 12.6285V5.15417C1.71436 4.7656 2.03436 4.45703 2.42293 4.45703H13.5886C13.9772 4.45703 14.2972 4.7656 14.2972 5.15417V12.6285C14.2972 13.017 13.9772 13.337 13.5886 13.337ZM2.42293 4.57132C2.10293 4.57132 1.82864 4.83417 1.82864 5.15417V12.6285C1.82864 12.9599 2.10293 13.2227 2.42293 13.2227H13.5886C13.9201 13.2227 14.1829 12.9599 14.1829 12.6285V5.15417C14.1829 4.83417 13.9201 4.57132 13.5886 4.57132H2.42293ZM13.6001 12.8799H2.42293C2.29721 12.8799 2.18293 12.7656 2.18293 12.6285V5.15417C2.18293 5.02846 2.29721 4.91417 2.42293 4.91417H13.6001C13.7372 4.91417 13.8401 5.02846 13.8401 5.15417V12.6285C13.8401 12.7656 13.7372 12.8799 13.6001 12.8799ZM2.42293 5.02846C2.35436 5.02846 2.29721 5.0856 2.29721 5.15417V12.6285C2.29721 12.7085 2.35436 12.7656 2.42293 12.7656H13.6001C13.6686 12.7656 13.7258 12.7085 13.7258 12.6285V5.15417C13.7258 5.0856 13.6686 5.02846 13.6001 5.02846H2.42293Z" fill="#666666"/>
<path d="M2.87999 3.45612C2.87999 3.34183 2.97142 3.26183 3.07428 3.26183H12.9486C13.0514 3.26183 13.1314 3.34183 13.1314 3.45612V4.18754H13.5886V3.45612C13.5886 3.0904 13.3029 2.80469 12.9486 2.80469H3.07428C2.70857 2.80469 2.42285 3.0904 2.42285 3.45612V4.18754H2.87999V3.45612Z" fill="#666666"/>
<path fill-rule="evenodd" clip-rule="evenodd" d="M13.5886 4.24324H13.1314C13.1086 4.24324 13.0743 4.22038 13.0743 4.18609V3.45467C13.0743 3.37467 13.0172 3.31752 12.9486 3.31752H3.07429C2.99429 3.31752 2.93715 3.37467 2.93715 3.45467V4.18609C2.93715 4.22038 2.91429 4.24324 2.88001 4.24324H2.42287C2.38858 4.24324 2.36572 4.22038 2.36572 4.18609V3.45467C2.36572 3.06609 2.68572 2.74609 3.07429 2.74609H12.9486C13.3372 2.74609 13.6457 3.06609 13.6457 3.45467V4.18609C13.6457 4.22038 13.6229 4.24324 13.5886 4.24324ZM13.1886 4.12895H13.5314V3.45467C13.5314 3.12324 13.2686 2.86038 12.9486 2.86038H3.07429C2.74287 2.86038 2.48001 3.12324 2.48001 3.45467V4.12895H2.82287V3.45467C2.82287 3.31752 2.93715 3.20324 3.07429 3.20324H12.9486C13.0857 3.20324 13.1886 3.31752 13.1886 3.45467V4.12895Z" fill="#666666"/>
<path d="M11.8401 6.56647C11.8401 7.14933 11.3715 7.62933 10.7772 7.62933C10.1829 7.62933 9.71436 7.14933 9.71436 6.56647C9.71436 5.97219 10.1829 5.49219 10.7772 5.49219C11.3715 5.49219 11.8401 5.97219 11.8401 6.56647Z" fill="#666666"/>
<path d="M13.2004 10.84V12.3029H2.82324V10.7829L6.1261 7.30859L9.65753 11.0915C9.77181 11.2057 9.90896 11.2629 10.0461 11.2629C10.1718 11.2629 10.2975 11.2172 10.4004 11.1257C10.6175 10.92 10.6175 10.6 10.4232 10.3829L9.6461 9.54859L10.789 8.34859L13.2004 10.84Z" fill="#666666"/>
</svg>
