<svg width="24" height="24" viewBox="0 0 24 24" fill="none" xmlns="http://www.w3.org/2000/svg">
<path d="M21.4911 3.05469H7.87651C7.48379 3.05469 7.09106 3.20741 6.80742 3.49105L2.02924 8.48741C1.98561 8.53105 1.95651 8.58196 1.94197 8.64014C1.81106 8.81469 1.74561 9.01105 1.74561 9.22923V20.0511C1.74561 20.6183 2.20379 21.0547 2.74924 21.0547H16.5601C16.7783 21.0547 16.9747 20.9892 17.1274 20.8583C17.1856 20.8438 17.2292 20.8147 17.2583 20.771L22.0583 15.7747C22.3201 15.491 22.4729 15.1201 22.4729 14.7492V4.03651C22.4729 3.49105 22.0365 3.05469 21.4911 3.05469Z" fill="#A7C5E5"/>
<path fill-rule="evenodd" clip-rule="evenodd" d="M22.4729 4.03651V14.7492C22.4729 15.1201 22.3201 15.491 22.0583 15.7747L17.2583 20.771C17.2292 20.8147 17.1856 20.8438 17.1274 20.8583C16.9747 20.9892 16.7783 21.0547 16.5601 21.0547H2.74924C2.20379 21.0547 1.74561 20.6183 1.74561 20.0511V9.22923C1.74561 9.01105 1.81106 8.81469 1.94197 8.64014C1.95651 8.58196 1.98561 8.53105 2.02924 8.48741L6.80742 3.49105C7.09106 3.20741 7.48379 3.05469 7.87651 3.05469H21.4911C22.0365 3.05469 22.4729 3.49105 22.4729 4.03651ZM20.8801 4.03651H16.6692L12.6329 8.22559H16.5601C16.6474 8.22559 16.7347 8.24014 16.822 8.26923L20.8801 4.03651ZM12.9383 4.03651L8.42197 8.74923C8.3347 8.83651 8.29106 8.96741 8.29106 9.09832V12.4801H11.0183V9.09832C11.0183 8.70559 11.1711 8.33469 11.4329 8.05105L15.2947 4.03651H12.9383ZM3.66561 8.22559H7.57106C7.6147 8.16741 7.66561 8.10923 7.72379 8.05105L11.5638 4.03651H7.89833C7.74561 4.03651 7.63651 4.08014 7.52742 4.18923L3.66561 8.22559ZM2.77106 20.0511H16.582V9.20741H12.022V12.7201C12.022 13.1129 11.6947 13.462 11.2802 13.462H8.05106C7.65833 13.462 7.30924 13.1129 7.30924 12.7201V9.20741H2.77106C2.75651 9.20741 2.74924 9.20741 2.74924 9.20741V20.0511C2.74924 20.0511 2.75651 20.0511 2.77106 20.0511ZM21.5129 14.7492V4.82196L17.542 8.9456C17.5565 9.03287 17.5638 9.12014 17.5638 9.20741V19.0474L21.3601 15.0765C21.4474 14.9892 21.5129 14.8583 21.5129 14.7492Z" fill="#1F1D1D" stroke="#1F1D1D" stroke-width="0.436364" stroke-linecap="round" stroke-linejoin="round"/>
<path d="M4.25475 17.2357H6.2402C6.52384 17.2357 6.74202 17.0175 6.74202 16.7339C6.74202 16.4721 6.52384 16.2539 6.2402 16.2539H4.25475C3.97111 16.2539 3.75293 16.4721 3.75293 16.7339C3.75293 17.0175 3.97111 17.2357 4.25475 17.2357Z" fill="#1F1D1D"/>
<path d="M8.24748 18.1094H4.25475C3.97111 18.1094 3.75293 18.3276 3.75293 18.5894C3.75293 18.873 3.97111 19.0912 4.25475 19.0912H8.24748C8.50929 19.0912 8.72748 18.873 8.72748 18.5894C8.72748 18.3276 8.50929 18.1094 8.24748 18.1094Z" fill="#1F1D1D"/>
</svg>
