<svg width="25" height="24" viewBox="0 0 25 24" fill="none" xmlns="http://www.w3.org/2000/svg">
<g clip-path="url(#clip0_2299_38723)">
<path d="M24.3693 8.45632L22.0784 5.40178C22.0784 5.40178 22.0712 5.40178 22.0566 5.40178C22.0566 5.38723 22.0566 5.37268 22.0566 5.35814C22.0421 5.35814 22.0348 5.35814 22.0348 5.35814C22.0202 5.34359 22.013 5.33632 22.013 5.33632C21.9984 5.32177 21.9912 5.3145 21.9912 5.3145C21.9912 5.3145 21.9839 5.30723 21.9693 5.29268C21.9693 5.29268 21.9621 5.28541 21.9475 5.27087C21.9475 5.27087 21.9402 5.27087 21.9257 5.27087C21.9257 5.27087 21.9184 5.26359 21.9039 5.24905C21.9039 5.24905 21.8966 5.24905 21.8821 5.24905C21.8821 5.2345 21.8748 5.22723 21.8602 5.22723C21.8457 5.22723 21.8384 5.22723 21.8384 5.22723C21.8239 5.21268 21.8166 5.20541 21.8166 5.20541C21.8021 5.20541 21.7875 5.20541 21.773 5.20541C21.773 5.20541 21.7657 5.20541 21.7512 5.20541C21.7512 5.20541 21.7439 5.19814 21.7293 5.18359C21.7293 5.18359 21.7221 5.18359 21.7075 5.18359C21.693 5.18359 21.6857 5.18359 21.6857 5.18359C21.6712 5.18359 21.6566 5.18359 21.6421 5.18359H8.66024C8.47115 5.18359 8.29661 5.21268 8.13661 5.27087C8.12206 5.28541 8.10024 5.29268 8.07115 5.29268C7.89661 5.37996 7.72206 5.48905 7.59115 5.64178L3.03115 10.3981C3.01661 10.3981 3.00934 10.3981 3.00934 10.3981L0.871153 12.7763C0.652971 12.9945 0.67479 13.3218 0.892971 13.5181C1.00206 13.6272 1.13297 13.6709 1.26388 13.6709C1.41661 13.6709 1.54752 13.6054 1.65661 13.4963L2.7257 12.3181V21.5036C2.7257 22.049 3.18388 22.5072 3.75115 22.5072H16.9293C17.1475 22.5072 17.3657 22.4418 17.5184 22.3327C17.5766 22.3036 17.6202 22.2672 17.6493 22.2236L22.2312 17.4454C22.493 17.1618 22.6457 16.8127 22.6457 16.42V11.009L24.3475 9.13269C24.5221 8.93632 24.5221 8.65268 24.3693 8.45632Z" fill="white"/>
<path fill-rule="evenodd" clip-rule="evenodd" d="M2.7257 21.5075V12.322L1.65661 13.5002C1.54752 13.6093 1.41661 13.6748 1.26388 13.6748C1.13297 13.6748 1.00206 13.6311 0.892971 13.522C0.67479 13.3257 0.652971 12.9984 0.871153 12.7802L3.00934 10.402C3.00934 10.402 3.01661 10.402 3.03115 10.402L7.59115 5.64568C7.72206 5.49296 7.89661 5.38386 8.07115 5.29659C8.10024 5.29659 8.12206 5.28932 8.13661 5.27477C8.29661 5.21659 8.47115 5.1875 8.66024 5.1875H21.6421C21.6566 5.1875 21.6712 5.1875 21.6857 5.1875C21.6857 5.1875 21.693 5.1875 21.7075 5.1875C21.7221 5.1875 21.7293 5.1875 21.7293 5.1875C21.7439 5.20205 21.7512 5.20932 21.7512 5.20932C21.7657 5.20932 21.773 5.20932 21.773 5.20932C21.7875 5.20932 21.8021 5.20932 21.8166 5.20932C21.8166 5.20932 21.8239 5.21659 21.8384 5.23113C21.8384 5.23113 21.8457 5.23113 21.8602 5.23113C21.8748 5.23113 21.8821 5.23841 21.8821 5.25295C21.8966 5.25295 21.9039 5.25295 21.9039 5.25295C21.9184 5.2675 21.9257 5.27477 21.9257 5.27477C21.9402 5.27477 21.9475 5.27477 21.9475 5.27477C21.9621 5.28932 21.9693 5.29659 21.9693 5.29659C21.9839 5.31114 21.9912 5.31841 21.9912 5.31841C21.9912 5.31841 21.9984 5.32568 22.013 5.34022C22.013 5.34022 22.0202 5.3475 22.0348 5.36204C22.0348 5.36204 22.0421 5.36204 22.0566 5.36204C22.0566 5.37659 22.0566 5.39114 22.0566 5.40568C22.0712 5.40568 22.0784 5.40568 22.0784 5.40568L24.3693 8.46023C24.5221 8.65659 24.5221 8.94023 24.3475 9.13659L22.6457 11.013V16.4239C22.6457 16.8166 22.493 17.1657 22.2312 17.4493L17.6493 22.2275C17.6202 22.2711 17.5766 22.3075 17.5184 22.3366C17.3657 22.4457 17.1475 22.5111 16.9293 22.5111H3.75115C3.18388 22.5111 2.7257 22.053 2.7257 21.5075ZM3.81661 21.442H16.8639V11.2748C16.8493 11.2602 16.8348 11.2384 16.8202 11.2093H3.81661V21.442ZM21.5766 12.2348L19.9184 14.0457C19.8093 14.1766 19.6784 14.2202 19.5257 14.2202C19.5112 14.2202 19.5039 14.2202 19.5039 14.2202C19.3512 14.2202 19.1984 14.1548 19.1112 14.0239L17.9548 12.6057V20.373L21.4675 16.7075C21.533 16.642 21.5766 16.533 21.5766 16.4457V12.2348ZM23.2348 8.76568L21.8166 6.8675L17.9548 10.9039L19.5475 12.8675L23.2348 8.76568ZM4.77661 10.1402H16.9293C17.0021 10.1402 17.0748 10.1475 17.1475 10.162L20.8784 6.27841H8.83479V8.56932C8.83479 8.87477 8.59479 9.11477 8.28934 9.11477C8.0057 9.11477 7.74388 8.87477 7.74388 8.56932V7.02023L4.77661 10.1402Z" fill="#1F1D1D" stroke="#1F1D1D" stroke-width="0.436364" stroke-linecap="round" stroke-linejoin="round"/>
<path d="M5.19121 18.866H7.08939C7.39484 18.866 7.63484 18.626 7.63484 18.3205C7.63484 18.0369 7.39484 17.7969 7.08939 17.7969H5.19121C4.88575 17.7969 4.64575 18.0369 4.64575 18.3205C4.64575 18.626 4.88575 18.866 5.19121 18.866Z" fill="#1F1D1D"/>
<path d="M8.98757 19.5664H5.19121C4.88575 19.5664 4.64575 19.8064 4.64575 20.1119C4.64575 20.3955 4.88575 20.6355 5.19121 20.6355H8.98757C9.29302 20.6355 9.53302 20.3955 9.53302 20.1119C9.53302 19.8064 9.29302 19.5664 8.98757 19.5664Z" fill="#1F1D1D"/>
<path d="M20.5515 2.7404L20.7915 1.45312L21.6424 2.34767L22.4933 3.24222L21.4024 3.63494L20.3115 4.04949L20.5515 2.7404Z" fill="#1F1D1D" stroke="#1F1D1D" stroke-width="0.349091" stroke-linecap="round" stroke-linejoin="round"/>
<path fill-rule="evenodd" clip-rule="evenodd" d="M20.3116 4.20293C20.2825 4.20293 20.2534 4.18838 20.2243 4.15929C20.1807 4.11565 20.1807 4.07202 20.1807 4.00657L20.4207 2.71929L20.6825 1.43202C20.6825 1.36656 20.7261 1.32292 20.7698 1.32292C20.8134 1.30111 20.857 1.30111 20.8788 1.34474L22.5807 3.13384C22.6243 3.17747 22.6461 3.22111 22.6243 3.26474C22.6243 3.3302 22.5807 3.37383 22.537 3.37383L20.3552 4.18111C20.3407 4.19565 20.3261 4.20293 20.3116 4.20293ZM20.6825 2.78475L20.4861 3.83202L22.2534 3.17747L20.8788 1.73747L20.6825 2.78475Z" fill="#1F1D1D" stroke="#1F1D1D" stroke-width="0.349091" stroke-linecap="round" stroke-linejoin="round"/>
<path d="M21.2713 2.30619C17.4967 1.19347 14.8131 1.60801 13.3294 3.57165C12.784 4.29165 12.4785 5.12074 12.304 5.90619C12.2749 6.0371 12.2531 6.16802 12.2385 6.29892C12.0204 7.54256 12.1513 8.74256 12.1731 8.80801C12.1949 9.0262 12.3258 9.1571 12.4785 9.1571C12.4931 9.1571 12.5076 9.1571 12.5222 9.1571C12.6967 9.11346 12.8276 8.89529 12.784 8.65529C12.784 8.63347 12.5222 6.23347 13.5476 4.55347C13.664 4.37892 13.8022 4.21165 13.9622 4.05165C14.9876 3.04801 16.7767 2.02256 20.6822 3.41892C20.8131 3.46256 21.2058 3.48438 21.2494 3.30983C21.2494 3.25165 21.2494 3.20074 21.2494 3.1571C21.3804 3.13528 21.4894 3.00438 21.5331 2.80802C21.5549 2.58983 21.4458 2.34983 21.2713 2.30619Z" fill="#1F1D1D" stroke="#1F1D1D" stroke-width="0.436364" stroke-miterlimit="10"/>
</g>
<defs>
<clipPath id="clip0_2299_38723">
<rect width="24" height="24" fill="white" transform="translate(0.5)"/>
</clipPath>
</defs>
</svg>
