<svg width="46" height="49" viewBox="0 0 46 49" fill="none" xmlns="http://www.w3.org/2000/svg">
<rect width="45.2446" height="48.0983" rx="22.6223" fill="black"/>
<path d="M29.9251 29.1041C29.6514 29.7364 29.3274 30.3184 28.9521 30.8536C28.4404 31.5831 28.0215 32.088 27.6986 32.3684C27.1981 32.8287 26.6619 33.0644 26.0877 33.0778C25.6755 33.0778 25.1783 32.9605 24.5997 32.7226C24.0191 32.4857 23.4855 32.3684 22.9977 32.3684C22.486 32.3684 21.9373 32.4857 21.3503 32.7226C20.7625 32.9605 20.2889 33.0845 19.9268 33.0968C19.3762 33.1203 18.8274 32.8778 18.2795 32.3684C17.9298 32.0634 17.4925 31.5406 16.9685 30.7999C16.4064 30.009 15.9442 29.0918 15.5821 28.0462C15.1944 26.9167 15 25.823 15 24.7642C15 23.5513 15.2621 22.5052 15.787 21.6286C16.1996 20.9245 16.7484 20.369 17.4354 19.9613C18.1223 19.5535 18.8646 19.3457 19.6639 19.3324C20.1012 19.3324 20.6748 19.4677 21.3875 19.7336C22.0983 20.0004 22.5546 20.1356 22.7547 20.1356C22.9043 20.1356 23.4112 19.9775 24.2707 19.6621C25.0834 19.3696 25.7693 19.2485 26.3312 19.2962C27.8539 19.4191 28.9979 20.0193 29.7587 21.1007C28.3968 21.9259 27.7232 23.0816 27.7366 24.5641C27.7489 25.7189 28.1678 26.6799 28.9912 27.4429C29.3643 27.797 29.781 28.0707 30.2446 28.2651C30.1441 28.5567 30.0379 28.836 29.9251 29.1041ZM26.4329 15.3621C26.4329 16.2672 26.1022 17.1123 25.4431 17.8945C24.6477 18.8244 23.6856 19.3618 22.6423 19.277C22.629 19.1684 22.6213 19.0541 22.6213 18.934C22.6213 18.0651 22.9996 17.1352 23.6713 16.3749C24.0067 15.9899 24.4332 15.6698 24.9504 15.4145C25.4666 15.1629 25.9548 15.0238 26.4139 15C26.4273 15.121 26.4329 15.242 26.4329 15.3621V15.3621Z" fill="white"/>
</svg>
