<svg width="117" height="27" viewBox="0 0 117 27" fill="none" xmlns="http://www.w3.org/2000/svg">
<g id="Logo/korgou-simple_gray">
<g id="Vector">
<path d="M10.1335 11.8839L19.7516 1.14647H12.7504L5.43109 9.70981V1.14647H0V25.8139H5.43109V16.5903L6.32084 15.6079L13.5113 25.8139H20.0495L10.1335 11.8839Z" fill="#3860A4"/>
<path d="M30.4648 7.05666C24.8566 7.05666 20.9353 11.0424 20.9353 16.7473C20.9353 22.4521 24.7399 26.1762 30.187 26.1762C34.7928 26.1762 39.7488 23.1446 39.7488 16.4856C39.7488 10.9337 35.9322 7.05666 30.4648 7.05666ZM30.3964 11.6503C33.4159 11.6503 34.2171 14.8752 34.2171 16.5822C34.2171 19.4769 32.5825 21.5825 30.328 21.5825C28.0734 21.5825 26.4388 19.5091 26.4388 16.6507C26.4388 14.3437 27.4735 11.6503 30.3964 11.6503Z" fill="#3860A4"/>
<path d="M52.6401 7.18952C52.2416 7.09692 51.9034 7.06069 51.4766 7.06069C50.0554 7.06069 48.7228 7.55186 47.6519 8.4094L47.6197 7.42303H42.41L42.5026 8.71941C42.5993 10.0601 42.6435 11.5698 42.6435 13.6191V25.8219H48.1632V16.0951C48.1632 15.6965 48.2236 15.314 48.284 14.9758C48.5457 13.6432 49.4757 12.222 51.3075 12.222C51.6336 12.222 51.8792 12.2462 52.1329 12.2945L53.5822 12.5924V7.41095L52.6482 7.19355L52.6401 7.18952Z" fill="#3860A4"/>
<path d="M67.2707 11.7107V16.4373H72.0214V20.9947C71.3933 21.1397 70.4552 21.2524 69.2072 21.2524C64.3196 21.2524 61.4007 18.3456 61.4007 13.4822C61.4007 8.61876 64.4605 5.74418 69.5856 5.74418C71.9408 5.74418 73.3298 6.20315 74.28 6.60575L75.5079 7.12511L76.9452 2.49519L75.983 2.05233C74.7913 1.50479 72.5005 0.916992 69.6541 0.916992C61.4048 0.916992 55.8328 6.01795 55.7925 13.615C55.7925 17.3149 57.1211 20.6565 59.4481 22.7943C61.8557 24.9845 64.9799 26.0474 68.9978 26.0474C72.1421 26.0474 74.8476 25.3468 76.5627 24.759L77.38 24.4812V11.7148H67.2666L67.2707 11.7107Z" fill="#3860A4"/>
<path d="M88.7132 7.05666C83.3385 7.05666 79.5822 11.0424 79.5822 16.7473C79.5822 22.4521 83.2298 26.1762 88.4475 26.1762C92.86 26.1762 97.6107 23.1446 97.6107 16.4856C97.6107 10.9337 93.9511 7.05666 88.7092 7.05666H88.7132ZM88.6448 11.6503C91.4751 11.6503 92.2239 14.8752 92.2239 16.5822C92.2239 19.4769 90.69 21.5825 88.5804 21.5825C86.4707 21.5825 84.9368 19.5091 84.9368 16.6507C84.9368 14.3437 85.9071 11.6503 88.6488 11.6503H88.6448Z" fill="#3860A4"/>
<path d="M116.891 24.5054C116.799 23.3983 116.758 22.0455 116.758 20.2459V7.419H111.291V18.4302C111.291 18.7885 111.223 19.1669 111.114 19.4367C110.703 20.3868 109.644 21.349 108.203 21.349C107.382 21.349 105.667 21.349 105.667 17.472V7.41498H100.199V17.9672C100.199 23.1044 102.816 26.1722 107.197 26.1722C109.21 26.1722 110.715 25.5079 111.782 24.7349L111.855 25.8098H117L116.891 24.5014V24.5054Z" fill="#6D6C71"/>
</g>
</g>
</svg>
