<svg width="22" height="24" viewBox="0 0 22 24" fill="none" xmlns="http://www.w3.org/2000/svg">
<path d="M4.5799 12.0605H2.8499C2.4599 12.0605 2.1499 12.3705 2.1499 12.7605V14.5105C2.1499 14.8905 2.4599 15.2106 2.8499 15.2106H4.5799C4.9599 15.2106 5.2799 14.9005 5.2799 14.5105V12.7605C5.2799 12.3705 4.9699 12.0605 4.5799 12.0605ZM4.4499 13.4805L3.7399 14.1906C3.6299 14.3006 3.4599 14.3006 3.3499 14.1906L2.9799 13.8206C2.8699 13.7106 2.8699 13.5405 2.9799 13.4305C3.0899 13.3205 3.2599 13.3205 3.3699 13.4305C3.4099 13.4705 3.5799 13.6405 3.5399 13.6105L4.0599 13.0905C4.1699 12.9805 4.3399 12.9805 4.4499 13.0905C4.5599 13.2005 4.5599 13.3705 4.4499 13.4805Z" fill="#CBCBCE"/>
<path d="M11.4199 12.4209H6.0199C5.8199 12.4209 5.6499 12.5809 5.6499 12.7909C5.6499 13.0009 5.8099 13.1609 6.0199 13.1609H11.4199C11.6199 13.1609 11.7899 13.0009 11.7899 12.7909C11.7899 12.5809 11.6299 12.4209 11.4199 12.4209Z" fill="#CBCBCE"/>
<path d="M9.5899 14.1309H6.0199C5.8199 14.1309 5.6499 14.2909 5.6499 14.5009C5.6499 14.7109 5.8099 14.8708 6.0199 14.8708H9.5899C9.7899 14.8708 9.9599 14.7109 9.9599 14.5009C9.9599 14.2909 9.7999 14.1309 9.5899 14.1309Z" fill="#CBCBCE"/>
<path d="M2.83988 16.3008H4.56988C4.95988 16.3008 5.26988 16.6108 5.26988 17.0008V18.7508C5.26988 19.1408 4.95988 19.4508 4.56988 19.4508H2.82988C2.43988 19.4508 2.12988 19.1408 2.12988 18.7508V17.0008C2.12988 16.6108 2.43988 16.3008 2.82988 16.3008H2.83988Z" fill="#CBCBCE"/>
<path d="M9.0999 16.6611H6.0199C5.8199 16.6611 5.6499 16.8211 5.6499 17.0311C5.6499 17.2411 5.8099 17.4011 6.0199 17.4011H9.0999C9.2999 17.4011 9.4699 17.2411 9.4699 17.0311C9.4699 16.8211 9.3099 16.6611 9.0999 16.6611Z" fill="#CBCBCE"/>
<path d="M8.1799 18.3613H6.0199C5.8199 18.3613 5.6499 18.5213 5.6499 18.7313C5.6499 18.9413 5.8099 19.1013 6.0199 19.1013H8.1799C8.3799 19.1013 8.5499 18.9413 8.5499 18.7313C8.5499 18.5213 8.3899 18.3613 8.1799 18.3613Z" fill="#CBCBCE"/>
<path d="M16.42 12.0711V3.13106C16.42 1.86106 15.39 0.831055 14.13 0.831055H2.3C1.03 0.831055 0 1.86106 0 3.13106V19.0711C0 20.3411 1.03 21.371 2.3 21.371H11.51C12.54 22.521 14.03 23.2411 15.69 23.2411C18.78 23.2411 21.3 20.7211 21.3 17.6311C21.3 14.7811 19.17 12.4211 16.41 12.0711H16.42ZM15.7 22.511C13 22.511 10.82 20.3011 10.82 17.6311C10.82 14.9611 13.01 12.7511 15.7 12.7511C18.41 12.7511 20.58 14.9611 20.58 17.6311C20.58 20.3011 18.39 22.511 15.7 22.511ZM2.3 20.6411C1.43 20.6411 0.73 19.9411 0.73 19.0711V4.94106H15.69V12.011C12.6 12.011 10.08 14.531 10.08 17.621C10.08 18.731 10.4 19.7611 10.96 20.6311H2.3V20.6411Z" fill="#003575"/>
<path d="M7.61987 7.00085C7.61987 7.20085 7.77987 7.37085 7.98987 7.37085H14.5099C14.7099 7.37085 14.8799 7.21085 14.8799 7.00085C14.8799 6.79085 14.7199 6.63086 14.5099 6.63086H7.98987C7.78987 6.63086 7.61987 6.79085 7.61987 7.00085Z" fill="#CBCBCE"/>
<path d="M14.4999 8.33105H7.97986C7.77986 8.33105 7.60986 8.49105 7.60986 8.70105C7.60986 8.91105 7.76986 9.07106 7.97986 9.07106H14.4999C14.6999 9.07106 14.8699 8.91105 14.8699 8.70105C14.8699 8.49105 14.7099 8.33105 14.4999 8.33105Z" fill="#CBCBCE"/>
<path d="M14.4999 9.98145H7.97986C7.77986 9.98145 7.60986 10.1415 7.60986 10.3515C7.60986 10.5615 7.76986 10.7215 7.97986 10.7215H14.4999C14.6999 10.7215 14.8699 10.5615 14.8699 10.3515C14.8699 10.1415 14.7099 9.98145 14.4999 9.98145Z" fill="#CBCBCE"/>
<path d="M3.15985 10.8914H6.25985C6.83985 10.8914 7.31985 10.4215 7.31985 9.83145V7.54144C7.31985 6.96144 6.84985 6.48145 6.25985 6.48145H3.15985C2.57985 6.48145 2.09985 6.95144 2.09985 7.54144V9.83145C2.09985 10.4115 2.56985 10.8914 3.15985 10.8914Z" fill="#CBCBCE"/>
<path d="M0.72998 5.10059V3.12057C0.72998 2.28057 1.40998 1.60059 2.24998 1.60059H14.18C15.02 1.60059 15.7 2.28057 15.7 3.12057V5.08058L0.73998 5.10059H0.72998Z" fill="#75A5EA"/>
<path d="M10.5598 3.47133C10.5598 3.80133 10.2898 4.08133 9.94984 4.08133C9.60984 4.08133 9.33984 3.81133 9.33984 3.47133C9.33984 3.13133 9.60984 2.86133 9.94984 2.86133C10.2898 2.86133 10.5598 3.13133 10.5598 3.47133Z" fill="#003575"/>
<path d="M12.6299 3.47133C12.6299 3.80133 12.3599 4.08133 12.0199 4.08133C11.6799 4.08133 11.4099 3.81133 11.4099 3.47133C11.4099 3.13133 11.6799 2.86133 12.0199 2.86133C12.3599 2.86133 12.6299 3.13133 12.6299 3.47133Z" fill="#003575"/>
<path d="M14.71 3.47133C14.71 3.80133 14.44 4.08133 14.1 4.08133C13.76 4.08133 13.49 3.81133 13.49 3.47133C13.49 3.13133 13.76 2.86133 14.1 2.86133C14.44 2.86133 14.71 3.13133 14.71 3.47133Z" fill="#003575"/>
<path d="M20.5701 17.6007C20.5701 20.3007 18.3801 22.4807 15.6901 22.4807C13.0001 22.4807 10.8101 20.2907 10.8101 17.6007C10.8101 14.9107 13.0001 12.7207 15.6901 12.7207C18.3801 12.7207 20.5701 14.9107 20.5701 17.6007Z" fill="#75A5EA"/>
<path d="M14.6199 16.9514L17.3799 14.1514L18.7799 19.2214L14.7999 18.3914L14.6199 16.9514Z" fill="white"/>
<path d="M19.1301 16.2709C18.9801 15.7309 18.5201 15.3609 17.9801 15.3109L17.6401 14.1309C17.5401 13.7809 17.0901 13.6709 16.8401 13.9409C14.2901 16.7209 16.1501 14.6909 14.5401 16.4409L12.7801 16.9409C12.3701 17.0509 12.1301 17.4809 12.2401 17.8909L12.4601 18.6409C12.5701 19.0509 13.0101 19.2909 13.4201 19.1809L13.6001 19.1309C13.6001 19.1309 14.1701 21.1409 14.1301 21.0109C14.2001 21.2609 14.4601 21.4009 14.7001 21.3309C14.9201 21.2709 15.1001 21.0209 15.0201 20.7609C15.0101 20.7209 14.4501 18.7509 14.4901 18.8809L15.1601 18.6909C15.1601 18.6909 18.5001 19.6209 18.4501 19.6109C18.7901 19.7109 19.1301 19.3909 19.0201 19.0309L18.6401 17.6909C19.0701 17.3709 19.2601 16.8109 19.1101 16.2809L19.1301 16.2709ZM15.4201 18.1109L15.0501 16.8109C15.0501 16.8109 17.1501 14.5209 17.1201 14.5609C17.1301 14.6009 18.3701 18.9809 18.3601 18.9409C10.7001 16.8009 22.3701 20.0609 15.4201 18.1209V18.1109Z" fill="#003575"/>
</svg>
