<svg width="21" height="20" viewBox="0 0 21 20" fill="none" xmlns="http://www.w3.org/2000/svg">
<path d="M6.70996 8.45996L7.65996 12.26H12.33L13.3 8.45996H6.70996Z" fill="#DFDFE1"/>
<path d="M10.9301 3.79004H9.08008V6.94004H10.9301V3.79004Z" fill="#DFDFE1"/>
<path d="M7.59011 12.6007C7.44011 12.6007 7.31011 12.5007 7.28011 12.3607L6.42011 8.9007C6.40011 8.8307 6.34011 8.7807 6.27011 8.7807H6.16011C5.72011 8.7807 5.36011 8.42071 5.36011 7.98071V7.02071C5.36011 6.58071 5.72011 6.2207 6.16011 6.2207H7.59011C7.77011 6.2207 7.91011 6.3607 7.91011 6.5407C7.91011 6.7207 7.77011 6.86071 7.59011 6.86071H6.16011C6.08011 6.86071 6.00011 6.93071 6.00011 7.02071V7.98071C6.00011 8.07071 6.07011 8.14071 6.16011 8.14071H13.8001C13.8801 8.14071 13.9601 8.07071 13.9601 7.98071V7.02071C13.9601 6.93071 13.8901 6.86071 13.8001 6.86071H12.3701C12.1901 6.86071 12.0501 6.7207 12.0501 6.5407C12.0501 6.3607 12.1901 6.2207 12.3701 6.2207H13.8001C14.2401 6.2207 14.6001 6.58071 14.6001 7.02071V7.98071C14.6001 8.42071 14.2401 8.7807 13.8001 8.7807H13.6901C13.6201 8.7807 13.5501 8.8307 13.5401 8.9007L12.6801 12.3607C12.6401 12.5007 12.5201 12.6007 12.3701 12.6007H7.60011H7.59011ZM7.25011 8.7807C7.25011 8.7807 7.15011 8.80071 7.13011 8.84071C7.10011 8.88071 7.09011 8.93071 7.10011 8.98071L7.82011 11.8407C7.84011 11.9107 7.90011 11.9607 7.97011 11.9607H12.0001C12.0701 11.9607 12.1401 11.9107 12.1501 11.8407L12.8701 8.98071C12.8701 8.98071 12.8701 8.88071 12.8401 8.84071C12.8101 8.80071 12.7701 8.7807 12.7201 8.7807H7.25011Z" fill="#003575"/>
<path d="M9.02996 11.1703C8.84996 11.1703 8.70996 11.0303 8.70996 10.8503V9.89031C8.70996 9.71031 8.84996 9.57031 9.02996 9.57031C9.20996 9.57031 9.34996 9.71031 9.34996 9.89031V10.8503C9.34996 11.0303 9.20996 11.1703 9.02996 11.1703Z" fill="#003575"/>
<path d="M10.9401 11.1703C10.7601 11.1703 10.6201 11.0303 10.6201 10.8503V9.89031C10.6201 9.71031 10.7601 9.57031 10.9401 9.57031C11.1201 9.57031 11.2601 9.71031 11.2601 9.89031V10.8503C11.2601 11.0303 11.1201 11.1703 10.9401 11.1703Z" fill="#003575"/>
<path d="M9.59995 7.35012C9.09995 7.35012 8.69995 6.95012 8.69995 6.45012V4.27012C8.69995 3.77012 9.09995 3.37012 9.59995 3.37012H10.35C10.85 3.37012 11.25 3.77012 11.25 4.27012V6.45012C11.25 6.95012 10.85 7.35012 10.35 7.35012H9.59995ZM9.59995 4.01012C9.45995 4.01012 9.33995 4.13012 9.33995 4.27012V6.45012C9.33995 6.59012 9.45995 6.71012 9.59995 6.71012H10.35C10.49 6.71012 10.61 6.59012 10.61 6.45012V4.27012C10.61 4.13012 10.49 4.01012 10.35 4.01012H9.59995Z" fill="#003575"/>
<path d="M12.86 14.8299L11.96 10.6299L16.16 11.6899L15.3 12.5399L17.17 14.4299L15.64 15.9599L13.73 14.0299L12.86 14.8299Z" fill="#75A5EA"/>
<path d="M15.7201 16.2798C15.6301 16.2798 15.5501 16.2398 15.4901 16.1798L13.9201 14.5898C13.9201 14.5898 13.8501 14.5398 13.8101 14.5398C13.7701 14.5398 13.7301 14.5598 13.7001 14.5898L13.0801 15.2098C13.0201 15.2698 12.9401 15.2998 12.8501 15.2998C12.8201 15.2998 12.7901 15.2998 12.7601 15.2898C12.6501 15.2598 12.5601 15.1598 12.5401 15.0498L11.6001 10.7298C11.5801 10.6198 11.6001 10.5098 11.6901 10.4298C11.7501 10.3698 11.8301 10.3398 11.9201 10.3398C11.9401 10.3398 11.9701 10.3398 11.9901 10.3398L16.3001 11.3198C16.4201 11.3398 16.5001 11.4298 16.5401 11.5498C16.5701 11.6598 16.5401 11.7898 16.4601 11.8698L15.8401 12.4898C15.7801 12.5498 15.7801 12.6498 15.8401 12.7098L17.4101 14.2998C17.5401 14.4298 17.5301 14.6298 17.4101 14.7498L15.9601 16.1798C15.9001 16.2398 15.8201 16.2698 15.7301 16.2698L15.7201 16.2798ZM13.8101 13.6998C13.9001 13.6998 13.9801 13.7398 14.0401 13.7998L15.6101 15.3898C15.6101 15.3898 15.6801 15.4298 15.7201 15.4398C15.7601 15.4398 15.8001 15.4298 15.8301 15.3998L16.6001 14.6398C16.6601 14.5798 16.6601 14.4798 16.6001 14.4198L15.0301 12.8298C14.9001 12.6998 14.9101 12.4998 15.0301 12.3798L15.3701 12.0398C15.3701 12.0398 15.4301 11.9398 15.4101 11.8898C15.3901 11.8398 15.3501 11.7898 15.2901 11.7798L12.5701 11.1598C12.5701 11.1598 12.5501 11.1598 12.5401 11.1598C12.5001 11.1598 12.4601 11.1798 12.4301 11.1998C12.3901 11.2398 12.3701 11.2898 12.3901 11.3498L12.9801 14.0798C12.9901 14.1298 13.0301 14.1798 13.0901 14.1998C13.1001 14.1998 13.1201 14.1998 13.1301 14.1998C13.1701 14.1998 13.2101 14.1798 13.2401 14.1598L13.5801 13.8198C13.6401 13.7598 13.7201 13.7298 13.8101 13.7298H13.8001L13.8101 13.6998Z" fill="#003575"/>
<path d="M20.72 13.8802V1.94024C20.72 1.14024 20.07 0.490234 19.27 0.490234H1.45C0.65 0.490234 0 1.14024 0 1.94024V14.3602C0 15.1602 0.65 15.8102 1.45 15.8102H7.4C7.51 15.8102 7.6 15.9002 7.6 16.0102C7.6 17.7302 7 18.3902 6.75 18.5802C6.72 18.6102 6.67 18.6202 6.63 18.6202H4.99C4.77 18.6202 4.59 18.8002 4.59 19.0202C4.59 19.2402 4.77 19.4202 4.99 19.4202H15.87C16.09 19.4202 16.27 19.2402 16.27 19.0202C16.27 18.8002 16.09 18.6202 15.87 18.6202H14.23C14.23 18.6202 14.14 18.6102 14.11 18.5802C13.9 18.4302 13.4 17.9102 13.28 16.5802C13.26 16.3702 13.09 16.2102 12.89 16.2102H12.84C12.62 16.2302 12.45 16.4302 12.47 16.6502C12.53 17.3002 12.68 17.8702 12.91 18.3302C12.94 18.3902 12.94 18.4602 12.91 18.5202C12.88 18.5802 12.81 18.6102 12.74 18.6102H8.15C8.08 18.6102 8.02 18.5802 7.98 18.5202C7.95 18.4602 7.94 18.3902 7.98 18.3302C8.29 17.7102 8.44 16.9302 8.44 16.0002C8.44 15.8902 8.53 15.8002 8.64 15.8002H11.72C11.94 15.8002 12.12 15.6202 12.12 15.4002C12.12 15.1802 11.94 15.0002 11.72 15.0002H1.45C1.1 15.0002 0.81 14.7202 0.81 14.3602V1.94024C0.81 1.59024 1.09 1.30024 1.45 1.30024H19.27C19.62 1.30024 19.91 1.58024 19.91 1.94024V14.3602C19.91 14.3602 19.91 14.3602 19.91 14.3802V15.0102H17.92C17.7 15.0102 17.52 15.1902 17.52 15.4102C17.52 15.6302 17.7 15.8102 17.92 15.8102H20.31C20.53 15.8102 20.71 15.6302 20.71 15.4102V13.8902L20.72 13.8802Z" fill="#003575"/>
</svg>
