<svg width="48" height="48" viewBox="0 0 48 48" fill="none" xmlns="http://www.w3.org/2000/svg">
<g id="icon/commnet" clip-path="url(#clip0_1243_3459)">
<g id="Group 1000001183">
<rect id="Rectangle 34624604" x="10.2395" y="10.0498" width="27.5606" height="27.8939" fill="white"/>
<path id="Vector" d="M39.168 5.71382L39.1682 5.714C41.6622 7.78471 43.7075 10.3424 45.1791 13.2306C46.6496 16.1164 47.5164 19.2716 47.7268 22.5035V22.6214V38.001C47.7237 40.5857 46.6956 43.0636 44.868 44.8912C43.0404 46.7188 40.5625 47.7469 37.9778 47.75H24.016C17.9837 47.749 12.1778 45.4523 7.77724 41.3262C3.37671 37.2001 0.711401 31.5539 0.322506 25.5341C-0.0663893 19.5143 1.85028 13.5721 5.68334 8.91409C9.5164 4.25609 14.9785 1.23143 20.9606 0.45428L20.9612 0.454201C24.1947 0.0262317 27.4817 0.272621 30.6153 1.17784C33.7488 2.08306 36.6609 3.6275 39.168 5.71382ZM23.98 13.7545H15.9811C15.3844 13.7545 14.8122 13.9916 14.3903 14.4135C13.9684 14.8354 13.7313 15.4076 13.7313 16.0043C13.7313 16.6009 13.9684 17.1732 14.3903 17.5951C14.8122 18.017 15.3844 18.254 15.9811 18.254H23.98C24.5767 18.254 25.1489 18.017 25.5708 17.5951C25.9927 17.1732 26.2297 16.6009 26.2297 16.0043C26.2297 15.4076 25.9927 14.8354 25.5708 14.4135C25.1489 13.9916 24.5767 13.7545 23.98 13.7545ZM15.9811 34.2519H31.9789C32.5756 34.2519 33.1478 34.0148 33.5697 33.5929C33.9916 33.171 34.2287 32.5988 34.2287 32.0021C34.2287 31.4055 33.9916 30.8332 33.5697 30.4113C33.1478 29.9894 32.5756 29.7524 31.9789 29.7524H15.9811C15.3844 29.7524 14.8122 29.9894 14.3903 30.4113C13.9684 30.8332 13.7313 31.4055 13.7313 32.0021C13.7313 32.5988 13.9684 33.171 14.3903 33.5929C14.8122 34.0148 15.3844 34.2519 15.9811 34.2519ZM15.9811 26.2529H31.9789C32.5756 26.2529 33.1478 26.0159 33.5697 25.594C33.9916 25.1721 34.2287 24.5999 34.2287 24.0032C34.2287 23.4065 33.9916 22.8343 33.5697 22.4124C33.1478 21.9905 32.5756 21.7535 31.9789 21.7535H15.9811C15.3844 21.7535 14.8122 21.9905 14.3903 22.4124C13.9684 22.8343 13.7313 23.4065 13.7313 24.0032C13.7313 24.5999 13.9684 25.1721 14.3903 25.594C14.8122 26.0159 15.3844 26.2529 15.9811 26.2529Z" fill="#3966AE" stroke="white" stroke-width="0.5"/>
</g>
</g>
<defs>
<clipPath id="clip0_1243_3459">
<rect width="48" height="48" fill="white"/>
</clipPath>
</defs>
</svg>
