<svg width="22" height="20" viewBox="0 0 22 20" fill="none" xmlns="http://www.w3.org/2000/svg">
<path d="M16.1599 16.23V10.92L21.1499 8.95996V14.24L16.1599 16.23Z" fill="#75A5EA"/>
<path d="M20.12 12.3594C19.98 12.3594 19.87 12.4594 19.87 12.5894V13.3094C19.87 13.3094 19.85 13.3694 19.82 13.3794L19.02 13.6894C18.96 13.7094 18.91 13.7594 18.88 13.8194C18.85 13.8794 18.86 13.9394 18.88 13.9994C18.92 14.0894 19.01 14.1394 19.11 14.1394C19.14 14.1394 19.18 14.1394 19.21 14.1194L20.22 13.7294C20.22 13.7294 20.28 13.6994 20.31 13.6694L20.34 13.6294C20.34 13.6294 20.34 13.6194 20.35 13.6094C20.35 13.6094 20.37 13.5794 20.37 13.5594V12.6294C20.37 12.4694 20.27 12.3594 20.12 12.3594Z" fill="#003575"/>
<path d="M16.1599 16.4001C16.1599 16.4001 16.1199 16.4001 16.0999 16.3901C16.0999 16.3901 16.0799 16.3901 16.0699 16.3901L11.0299 14.4701C10.9599 14.4401 10.9199 14.3901 10.9199 14.3201V8.93008C10.9199 8.93008 10.9199 8.89008 10.9299 8.87008C10.9399 8.84008 10.9499 8.83008 10.9599 8.81008L10.9899 8.78008L11.0199 8.77008L11.0399 8.76008L16.0699 6.84008C16.0699 6.84008 16.1199 6.83008 16.1399 6.83008C16.1599 6.83008 16.1899 6.83008 16.2099 6.84008L21.2599 8.76008H21.2899L21.3199 8.79008L21.3399 8.81008C21.3399 8.81008 21.3599 8.84008 21.3699 8.85008C21.3799 8.88008 21.3899 8.90008 21.3899 8.91008V14.3101C21.3899 14.3801 21.3499 14.4401 21.2799 14.4601L16.2299 16.3801C16.2299 16.3801 16.1699 16.4001 16.1499 16.4001H16.1599ZM20.7799 9.27008C20.7799 9.27008 20.7399 9.27008 20.7199 9.28008L16.5199 10.8801C16.4599 10.9001 16.4299 10.9501 16.4299 11.0101V15.5301C16.4299 15.5301 16.4599 15.6201 16.4999 15.6501C16.5199 15.6701 16.5499 15.6701 16.5799 15.6701C16.5999 15.6701 16.6199 15.6701 16.6399 15.6601L20.8299 14.0601C20.8899 14.0401 20.9199 13.9901 20.9199 13.9301V9.41008C20.9199 9.41008 20.8899 9.32008 20.8499 9.29008C20.8199 9.27008 20.7999 9.27008 20.7699 9.27008H20.7799ZM11.5799 9.45008C11.5799 9.45008 11.5199 9.45008 11.4999 9.47008C11.4599 9.50008 11.4299 9.54008 11.4299 9.58008V14.0001C11.4299 14.0501 11.4699 14.1001 11.5199 14.1301L15.6099 15.6901C15.6099 15.6901 15.6499 15.7001 15.6699 15.7001C15.6999 15.7001 15.7299 15.7001 15.7499 15.6801C15.7899 15.6501 15.8199 15.6101 15.8199 15.5701V11.1501C15.8199 11.1001 15.7799 11.0501 15.7299 11.0201L11.6399 9.46008C11.6399 9.46008 11.5999 9.45008 11.5799 9.45008ZM13.7799 8.20008C13.7799 8.20008 13.7399 8.20008 13.7199 8.21008L12.1199 8.82008C12.0599 8.84008 12.0299 8.89008 12.0299 8.94008C12.0299 8.99008 12.0699 9.04008 12.1199 9.07008L15.9799 10.4901C15.9799 10.4901 16.0199 10.5001 16.0399 10.5001C16.0599 10.5001 16.0799 10.5001 16.0999 10.4901L17.6999 9.88008C17.7599 9.86008 17.7899 9.81008 17.7899 9.76008C17.7899 9.71008 17.7499 9.66008 17.6999 9.63008L13.8399 8.21008C13.8399 8.21008 13.7999 8.20008 13.7799 8.20008ZM16.1799 7.24008C16.1799 7.24008 16.1399 7.24008 16.1199 7.25008L14.6699 7.80008C14.6199 7.82008 14.5799 7.87008 14.5799 7.92008C14.5799 7.97008 14.6199 8.02008 14.6699 8.04008L18.2299 9.38008L18.5399 9.50008C18.5399 9.50008 18.5499 9.50008 18.5599 9.50008C18.5599 9.50008 18.5799 9.50008 18.5899 9.50008L20.0699 8.94008C20.1199 8.92008 20.1599 8.87008 20.1599 8.82008C20.1599 8.77008 20.1299 8.72008 20.0699 8.70008L16.2399 7.26008C16.2399 7.26008 16.1999 7.25008 16.1799 7.25008V7.24008Z" fill="#003575"/>
<path d="M3.68994 6.41V3.69H6.29994L7.48994 2.5H9.05994L10.1899 3.63H12.7999V6.22L3.68994 6.41Z" fill="#75A5EA"/>
<path d="M1.01 19.49C0.46 19.49 0 19.04 0 18.48V3.64C0 3.09 0.45 2.63 1.01 2.63H2.98C3.15 2.63 3.29 2.49 3.29 2.32V1.66C3.29 1.47 3.45 1.31 3.64 1.31H5.97C6.08 1.31 6.18 1.25 6.24 1.16C6.65 0.44 7.42 0 8.24 0C9.06 0 9.83 0.44 10.24 1.16C10.29 1.26 10.4 1.31 10.51 1.31H12.84C13.03 1.31 13.19 1.47 13.19 1.66V2.32C13.19 2.49 13.33 2.63 13.5 2.63H15.47C16.02 2.63 16.47 3.08 16.47 3.64V6.11C16.47 6.3 16.31 6.46 16.12 6.46C15.93 6.46 15.77 6.3 15.77 6.11V3.64C15.77 3.47 15.63 3.33 15.46 3.33H13.49C13.32 3.33 13.18 3.47 13.18 3.64V4.3C13.18 4.49 13.02 4.65 12.83 4.65H3.63C3.44 4.65 3.28 4.49 3.28 4.3V3.64C3.28 3.47 3.14 3.33 2.97 3.33H1C0.83 3.33 0.69 3.47 0.69 3.64V18.48C0.69 18.65 0.83 18.79 1 18.79H15.46C15.63 18.79 15.77 18.65 15.77 18.48V17.33C15.77 17.14 15.93 16.98 16.12 16.98C16.31 16.98 16.47 17.14 16.47 17.33V18.48C16.47 19.03 16.02 19.49 15.47 19.49H1.01ZM4.29 2.02C4.12 2.02 3.98 2.16 3.98 2.33V3.64C3.98 3.81 4.12 3.95 4.29 3.95H12.18C12.35 3.95 12.49 3.81 12.49 3.64V2.33C12.49 2.16 12.35 2.02 12.18 2.02H10.09C9.94 2.02 9.81 1.93 9.76 1.79C9.53 1.14 8.92 0.71 8.24 0.71C7.56 0.71 6.95 1.15 6.72 1.79C6.67 1.93 6.54 2.02 6.39 2.02H4.3H4.29Z" fill="#003575"/>
<path d="M6.61001 8.12969C6.42001 8.12969 6.26001 7.96969 6.26001 7.77969C6.26001 7.58969 6.42001 7.42969 6.61001 7.42969H10.55C10.74 7.42969 10.9 7.58969 10.9 7.77969C10.9 7.96969 10.74 8.12969 10.55 8.12969H6.61001Z" fill="#003575"/>
<path d="M6.61001 12.0701C6.42001 12.0701 6.26001 11.9101 6.26001 11.7201C6.26001 11.5301 6.42001 11.3701 6.61001 11.3701H9.90001C10.09 11.3701 10.25 11.5301 10.25 11.7201C10.25 11.9101 10.09 12.0701 9.90001 12.0701H6.61001Z" fill="#003575"/>
<path d="M6.61001 16.0096C6.42001 16.0096 6.26001 15.8496 6.26001 15.6596C6.26001 15.4696 6.42001 15.3096 6.61001 15.3096H9.46001C9.65001 15.3096 9.81001 15.4696 9.81001 15.6596C9.81001 15.8496 9.65001 16.0096 9.46001 16.0096H6.61001Z" fill="#003575"/>
<path d="M3.32003 9.43988C3.32003 9.43988 3.25003 9.43988 3.20003 9.41988L3.13003 9.37988C3.08003 9.32988 3.06003 9.31988 3.04003 9.30988L1.76003 8.02988C1.62003 7.88988 1.62003 7.66988 1.76003 7.53988C1.83003 7.46988 1.91003 7.43988 2.01003 7.43988C2.11003 7.43988 2.19003 7.47988 2.26003 7.53988L3.04003 8.31988C3.10003 8.37988 3.18003 8.40988 3.26003 8.40988C3.37003 8.40988 3.45003 8.35988 3.51003 8.28988L5.03003 6.26988C5.10003 6.17988 5.20003 6.12988 5.31003 6.12988C5.39003 6.12988 5.46003 6.14988 5.52003 6.19988C5.59003 6.25988 5.64003 6.33988 5.66003 6.42988C5.67003 6.51988 5.66003 6.60988 5.59003 6.68988L3.63003 9.29988C3.63003 9.29988 3.61003 9.31988 3.59003 9.32988C3.58003 9.34988 3.56003 9.35988 3.55003 9.37988C3.49003 9.39988 3.47003 9.40988 3.46003 9.42988C3.42003 9.44988 3.37003 9.45988 3.33003 9.45988L3.32003 9.43988Z" fill="#003575"/>
<path d="M3.32003 13.3901C3.32003 13.3901 3.25003 13.3901 3.20003 13.3701L3.13003 13.3301C3.08003 13.2801 3.06003 13.2701 3.04003 13.2601L1.76003 11.9801C1.62003 11.8401 1.62003 11.6201 1.76003 11.4901C1.83003 11.4201 1.91003 11.3901 2.01003 11.3901C2.11003 11.3901 2.19003 11.4301 2.26003 11.4901L3.04003 12.2701C3.10003 12.3301 3.18003 12.3601 3.26003 12.3601C3.37003 12.3601 3.45003 12.3101 3.51003 12.2401L5.03003 10.2201C5.10003 10.1301 5.20003 10.0801 5.31003 10.0801C5.39003 10.0801 5.46003 10.1001 5.52003 10.1501C5.59003 10.2101 5.64003 10.2901 5.66003 10.3801C5.67003 10.4701 5.66003 10.5601 5.59003 10.6401L3.63003 13.2501C3.63003 13.2501 3.61003 13.2701 3.59003 13.2801C3.59003 13.2801 3.58003 13.3001 3.57003 13.3101C3.56003 13.3101 3.54003 13.3301 3.54003 13.3301C3.49003 13.3601 3.48003 13.3701 3.46003 13.3801C3.42003 13.4001 3.37003 13.4101 3.33003 13.4101L3.32003 13.3901Z" fill="#003575"/>
<path d="M3.32003 17.3298C3.32003 17.3298 3.25003 17.3298 3.20003 17.2998L3.13003 17.2598C3.13003 17.2598 3.12003 17.2498 3.10003 17.2298C3.08003 17.2098 3.06003 17.1998 3.04003 17.1898L1.76003 15.9098C1.62003 15.7698 1.62003 15.5498 1.76003 15.4198C1.83003 15.3498 1.91003 15.3198 2.01003 15.3198C2.11003 15.3198 2.19003 15.3598 2.26003 15.4198L3.04003 16.1998C3.10003 16.2598 3.18003 16.2898 3.26003 16.2898C3.37003 16.2898 3.45003 16.2398 3.51003 16.1698L5.03003 14.1498C5.10003 14.0598 5.20003 14.0098 5.31003 14.0098C5.39003 14.0098 5.46003 14.0298 5.52003 14.0798C5.59003 14.1398 5.64003 14.2198 5.65003 14.3098C5.66003 14.3998 5.65003 14.4898 5.58003 14.5698L3.62003 17.1798C3.62003 17.1798 3.60003 17.1998 3.58003 17.2098C3.57003 17.2298 3.55003 17.2398 3.54003 17.2598C3.48003 17.2798 3.46003 17.2998 3.45003 17.3098C3.41003 17.3298 3.36003 17.3398 3.32003 17.3398V17.3298Z" fill="#003575"/>
<path d="M14.2101 14.36C14.2101 15.36 13.4001 16.18 12.3901 16.18C11.3801 16.18 10.5701 15.37 10.5701 14.36C10.5701 13.35 11.3801 12.54 12.3901 12.54C13.4001 12.54 14.2101 13.35 14.2101 14.36Z" fill="white"/>
<path d="M12.3299 14.3894L11.8199 13.8794C11.7199 13.7794 11.5399 13.7794 11.4399 13.8794C11.3299 13.9894 11.3299 14.1594 11.4399 14.2594L12.1899 15.0094C12.2399 15.0594 12.3099 15.0894 12.3799 15.0894C12.4499 15.0894 12.5199 15.0594 12.5699 15.0094L14.3499 13.2294C14.3999 13.1794 14.4299 13.1094 14.4299 13.0394C14.4299 12.9694 14.3999 12.8994 14.3499 12.8494C14.2499 12.7494 14.0699 12.7494 13.9699 12.8494L12.4299 14.3894C12.4299 14.3894 12.3699 14.4094 12.3499 14.3894H12.3299Z" fill="#003575"/>
<path d="M14.6399 14.1601C14.6299 14.0101 14.5099 13.9101 14.3499 13.9101C14.2799 13.9101 14.2099 13.9501 14.1699 14.0001C14.1199 14.0601 14.0999 14.1301 14.1099 14.2001C14.1099 14.2501 14.1099 14.2901 14.1099 14.3401C14.1099 15.2801 13.3399 16.0501 12.3999 16.0501C11.4599 16.0501 10.6899 15.2801 10.6899 14.3401C10.6899 13.4001 11.4599 12.6301 12.3999 12.6301C12.6299 12.6301 12.8499 12.6701 13.0599 12.7601C13.1999 12.8201 13.3599 12.7501 13.4199 12.6101C13.4499 12.5401 13.4499 12.4701 13.4199 12.4001C13.3899 12.3301 13.3399 12.2801 13.2699 12.2501C12.9999 12.1401 12.7099 12.0801 12.3999 12.0801C11.1599 12.0801 10.1499 13.0901 10.1499 14.3301C10.1499 15.5701 11.1599 16.5801 12.3999 16.5801C13.6399 16.5801 14.6499 15.5701 14.6499 14.3301C14.6499 14.2701 14.6499 14.2101 14.6499 14.1401L14.6399 14.1601Z" fill="#003575"/>
</svg>
