<svg width="24" height="24" viewBox="0 0 24 24" fill="none" xmlns="http://www.w3.org/2000/svg">
<g id="icon/headset-fill/blue">
<path id="Vector" d="M6.15421 20.6667C6.59624 20.6667 7.02017 20.4911 7.33273 20.1785C7.64529 19.8659 7.82088 19.442 7.82088 19V14C7.82088 13.558 7.64529 13.134 7.33273 12.8215C7.02017 12.5089 6.59624 12.3333 6.15421 12.3333V11.5C6.15421 9.9529 6.7688 8.46917 7.86276 7.37521C8.95672 6.28125 10.4405 5.66667 11.9875 5.66667C13.5346 5.66667 15.0184 6.28125 16.1123 7.37521C17.2063 8.46917 17.8209 9.9529 17.8209 11.5V12.3333C17.3789 12.3333 16.9549 12.5089 16.6424 12.8215C16.3298 13.134 16.1542 13.558 16.1542 14V19H13.6542C13.4332 19 13.2212 19.0878 13.065 19.2441C12.9087 19.4004 12.8209 19.6123 12.8209 19.8333C12.8209 20.0543 12.9087 20.2663 13.065 20.4226C13.2212 20.5789 13.4332 20.6667 13.6542 20.6667H17.8209C18.7759 20.6638 19.7009 20.333 20.4412 19.7295C21.1814 19.1261 21.6918 18.2867 21.8871 17.3519C22.0823 16.417 21.9505 15.4435 21.5137 14.5942C21.0769 13.745 20.3616 13.0715 19.4875 12.6867V11.5C19.4875 9.51088 18.6974 7.60322 17.2908 6.1967C15.8843 4.79018 13.9767 4 11.9875 4C9.99843 4 8.09077 4.79018 6.68425 6.1967C5.27772 7.60322 4.48755 9.51088 4.48755 11.5V12.6867C3.61351 13.0715 2.89822 13.745 2.4614 14.5942C2.02458 15.4435 1.89277 16.417 2.08801 17.3519C2.28326 18.2867 2.79372 19.1261 3.53394 19.7295C4.27416 20.333 5.1992 20.6638 6.15421 20.6667Z" fill="#3966AE"/>
</g>
</svg>
