<svg width="24" height="24" viewBox="0 0 24 24" fill="none" xmlns="http://www.w3.org/2000/svg">
<g id="icon/house/blue">
<g id="Vector">
<path d="M12 13.4001C11.337 13.4001 10.7011 13.6635 10.2322 14.1324C9.76339 14.6012 9.5 15.2371 9.5 15.9001V21.7551H14.5V15.9001C14.5 15.2371 14.2366 14.6012 13.7678 14.1324C13.2989 13.6635 12.663 13.4001 12 13.4001Z" fill="#3966AE"/>
<path d="M13.115 2.4279C12.809 2.15243 12.4118 2 12 2C11.5882 2 11.191 2.15243 10.885 2.4279L2 10.4246V19.0912C2 19.7985 2.28095 20.4768 2.78105 20.9768C3.28115 21.4769 3.95942 21.7579 4.66667 21.7579H7.83333V15.9004C7.83333 14.7953 8.27232 13.7355 9.05372 12.9541C9.83512 12.1727 10.8949 11.7337 12 11.7337C13.1051 11.7337 14.1649 12.1727 14.9463 12.9541C15.7277 13.7355 16.1667 14.7953 16.1667 15.9004V21.7554H19.3333C20.0406 21.7554 20.7189 21.4744 21.219 20.9743C21.719 20.4743 22 19.796 22 19.0887V10.4221L13.115 2.4279Z" fill="#3966AE"/>
</g>
</g>
</svg>
