<svg width="20" height="18" viewBox="0 0 20 18" fill="none" xmlns="http://www.w3.org/2000/svg">
<path d="M13.76 11.7913V14.4413H16.7C16.92 14.4413 17.1 14.6212 17.1 14.8412V15.5113C17.1 16.5413 16.26 17.3812 15.23 17.3812H1.87C0.84 17.3812 0 16.5413 0 15.5113V0.681252C0 0.461252 0.18 0.28125 0.4 0.28125H13.36C13.58 0.28125 13.76 0.461252 13.76 0.681252V3.46125M16.3 15.2412H3.74V15.5113C3.74 15.8913 3.63 16.2713 3.4 16.5813H15.23C15.82 16.5813 16.3 16.1013 16.3 15.5113V15.2412ZM12.96 3.46125V1.08125H0.8V15.5113C0.8 16.1013 1.28 16.5813 1.87 16.5813C2.46 16.5813 2.94 16.1013 2.94 15.5113V14.8412C2.94 14.6212 3.12 14.4413 3.34 14.4413H12.96V11.7913" fill="#003575"/>
<path d="M7.87987 3.88105C8.09987 3.88105 8.27987 3.70105 8.27987 3.48105C8.27987 3.26105 8.09987 3.08105 7.87987 3.08105H4.26987C4.04987 3.08105 3.86987 3.26105 3.86987 3.48105C3.86987 3.70105 4.04987 3.88105 4.26987 3.88105H7.87987Z" fill="#003575"/>
<path d="M7.48004 6.02168C7.70004 6.02168 7.88004 5.84167 7.88004 5.62167C7.88004 5.40167 7.70004 5.22168 7.48004 5.22168H2.94004C2.72004 5.22168 2.54004 5.40167 2.54004 5.62167C2.54004 5.84167 2.72004 6.02168 2.94004 6.02168H7.48004Z" fill="#003575"/>
<path d="M7.48004 8.16132C7.70004 8.16132 7.88004 7.98133 7.88004 7.76133C7.88004 7.54133 7.70004 7.36133 7.48004 7.36133H2.94004C2.72004 7.36133 2.54004 7.54133 2.54004 7.76133C2.54004 7.98133 2.72004 8.16132 2.94004 8.16132H7.48004Z" fill="#003575"/>
<path d="M7.48004 10.301C7.70004 10.301 7.88004 10.121 7.88004 9.90098C7.88004 9.68098 7.70004 9.50098 7.48004 9.50098H2.94004C2.72004 9.50098 2.54004 9.68098 2.54004 9.90098C2.54004 10.121 2.72004 10.301 2.94004 10.301H7.48004Z" fill="#003575"/>
<path d="M2.94004 12.4416H8.69004C8.91004 12.4416 9.09004 12.2616 9.09004 12.0416C9.09004 11.8216 8.91004 11.6416 8.69004 11.6416H2.94004C2.72004 11.6416 2.54004 11.8216 2.54004 12.0416C2.54004 12.2616 2.72004 12.4416 2.94004 12.4416Z" fill="#003575"/>
<path d="M18.6699 7.48121C18.6699 10.1012 16.5499 12.2212 13.9299 12.2212C11.3099 12.2212 9.18994 10.1012 9.18994 7.48121C9.18994 4.86121 11.3099 2.74121 13.9299 2.74121C16.5499 2.74121 18.6699 4.86121 18.6699 7.48121Z" fill="#75A5EA" stroke="#003575" stroke-width="0.75" stroke-miterlimit="10"/>
<path d="M15.9099 7.91082C15.7299 7.70082 15.4899 7.59082 15.2499 7.59082H14.3399L14.0899 8.00082H13.5099L13.2599 7.59082H12.3499C12.1099 7.59082 11.8699 7.70082 11.6899 7.91082C11.5099 8.12082 11.0199 9.26083 10.9299 9.65083C11.8299 9.98083 12.7899 10.1508 13.7999 10.1508C14.8099 10.1508 15.7799 9.97083 16.6699 9.65083C16.5799 9.26083 16.0899 8.12082 15.9099 7.91082Z" fill="#003575"/>
<path d="M13.7999 4.40137C13.0099 4.40137 12.3699 5.08136 12.3699 5.91136C12.3699 6.74136 13.0099 7.42136 13.7999 7.42136C14.5899 7.42136 15.2299 6.75136 15.2299 5.91136C15.2299 5.07136 14.5899 4.40137 13.7999 4.40137Z" fill="#003575"/>
</svg>
