<svg width="24" height="24" viewBox="0 0 24 24" fill="none" xmlns="http://www.w3.org/2000/svg">
<g id="icon/notebook/">
<path id="Vector" d="M18.3333 4.51833C18.3333 4.51167 18.3333 4.50667 18.3333 4.5V2.83333C18.3333 2.61232 18.2455 2.40036 18.0893 2.24408C17.933 2.0878 17.721 2 17.5 2C17.279 2 17.067 2.0878 16.9107 2.24408C16.7545 2.40036 16.6667 2.61232 16.6667 2.83333V3.75C16.3924 3.69431 16.1132 3.66639 15.8333 3.66667H15V2.83333C15 2.61232 14.9122 2.40036 14.7559 2.24408C14.5996 2.0878 14.3877 2 14.1667 2C13.9457 2 13.7337 2.0878 13.5774 2.24408C13.4211 2.40036 13.3333 2.61232 13.3333 2.83333V3.66667H11.6667V2.83333C11.6667 2.61232 11.5789 2.40036 11.4226 2.24408C11.2663 2.0878 11.0543 2 10.8333 2C10.6123 2 10.4004 2.0878 10.2441 2.24408C10.0878 2.40036 10 2.61232 10 2.83333V3.66667H9.16667C8.8868 3.66639 8.60761 3.69431 8.33333 3.75V2.83333C8.33333 2.61232 8.24554 2.40036 8.08926 2.24408C7.93298 2.0878 7.72101 2 7.5 2C7.27899 2 7.06702 2.0878 6.91074 2.24408C6.75446 2.40036 6.66667 2.61232 6.66667 2.83333V4.5V4.51833C6.15065 4.90364 5.73141 5.40378 5.44214 5.97915C5.15286 6.55453 5.00149 7.18934 5 7.83333V17.8333C5.00132 18.938 5.44073 19.997 6.22185 20.7782C7.00296 21.5593 8.062 21.9987 9.16667 22H15.8333C16.938 21.9987 17.997 21.5593 18.7782 20.7782C19.5593 19.997 19.9987 18.938 20 17.8333V7.83333C19.9985 7.18934 19.8471 6.55453 19.5579 5.97915C19.2686 5.40378 18.8493 4.90364 18.3333 4.51833ZM12.5 16.1667H9.16667C8.94565 16.1667 8.73369 16.0789 8.57741 15.9226C8.42113 15.7663 8.33333 15.5543 8.33333 15.3333C8.33333 15.1123 8.42113 14.9004 8.57741 14.7441C8.73369 14.5878 8.94565 14.5 9.16667 14.5H12.5C12.721 14.5 12.933 14.5878 13.0893 14.7441C13.2455 14.9004 13.3333 15.1123 13.3333 15.3333C13.3333 15.5543 13.2455 15.7663 13.0893 15.9226C12.933 16.0789 12.721 16.1667 12.5 16.1667ZM15.8333 12.8333H9.16667C8.94565 12.8333 8.73369 12.7455 8.57741 12.5893C8.42113 12.433 8.33333 12.221 8.33333 12C8.33333 11.779 8.42113 11.567 8.57741 11.4107C8.73369 11.2545 8.94565 11.1667 9.16667 11.1667H15.8333C16.0543 11.1667 16.2663 11.2545 16.4226 11.4107C16.5789 11.567 16.6667 11.779 16.6667 12C16.6667 12.221 16.5789 12.433 16.4226 12.5893C16.2663 12.7455 16.0543 12.8333 15.8333 12.8333ZM15.8333 9.5H9.16667C8.94565 9.5 8.73369 9.4122 8.57741 9.25592C8.42113 9.09964 8.33333 8.88768 8.33333 8.66667C8.33333 8.44565 8.42113 8.23369 8.57741 8.07741C8.73369 7.92113 8.94565 7.83333 9.16667 7.83333H15.8333C16.0543 7.83333 16.2663 7.92113 16.4226 8.07741C16.5789 8.23369 16.6667 8.44565 16.6667 8.66667C16.6667 8.88768 16.5789 9.09964 16.4226 9.25592C16.2663 9.4122 16.0543 9.5 15.8333 9.5Z" fill="#3966AE"/>
</g>
</svg>
