<svg width="21" height="20" viewBox="0 0 21 20" fill="none" xmlns="http://www.w3.org/2000/svg">
<path d="M12.53 14.5996C13.4855 14.5996 14.26 13.8251 14.26 12.8696C14.26 11.9142 13.4855 11.1396 12.53 11.1396C11.5746 11.1396 10.8 11.9142 10.8 12.8696C10.8 13.8251 11.5746 14.5996 12.53 14.5996Z" fill="#75A5EA"/>
<path d="M20.42 17.6597C20.42 18.6097 19.65 19.3897 18.69 19.3897C17.73 19.3897 16.96 18.6197 16.96 17.6597C16.96 16.6997 17.73 15.9297 18.69 15.9297C19.65 15.9297 20.42 16.6997 20.42 17.6597Z" fill="#75A5EA"/>
<path d="M8.39 18.3798C8.31 18.3798 8.23 18.3498 8.18 18.2898L1.09 11.1998C1.03 11.1398 1 11.0698 1 10.9898C1 10.9098 1.03 10.8298 1.09 10.7798L6.74 5.12981C6.82 5.04981 6.84 4.9398 6.8 4.8398C6.76 4.7398 6.67 4.6698 6.56 4.6698C4.46 4.5798 3.13 3.2498 2.74 2.3698C2.64 2.1398 2.56 1.8298 2.79 1.6498C3.68 0.929796 4.71 0.569794 5.85 0.569794C7.06 0.569794 8.4 0.969796 9.83 1.7598C9.87 1.7798 9.92 1.78979 9.96 1.78979C10.03 1.78979 10.1 1.75979 10.15 1.70979L10.64 1.2198C10.69 1.1698 10.76 1.13981 10.83 1.12981L17.17 0.549805H17.24C17.68 0.549805 18.08 0.709796 18.37 1.0098C18.69 1.3198 18.85 1.7598 18.83 2.1998L18.26 8.5498C18.26 8.6198 18.22 8.68981 18.17 8.73981L16.08 10.8298C16.02 10.8898 15.95 10.9198 15.87 10.9198C15.79 10.9198 15.71 10.8898 15.66 10.8298C15.54 10.7098 15.54 10.5198 15.66 10.3998L17.6 8.45979C17.6 8.45979 17.67 8.3598 17.68 8.28979L18.23 2.1498C18.24 1.8898 18.14 1.62979 17.95 1.42979C17.77 1.24979 17.53 1.1498 17.28 1.1498H17.22L11.1 1.70979C11.04 1.70979 10.98 1.73979 10.93 1.78979L10.79 1.92979C10.73 1.98979 10.7 2.0698 10.71 2.1498C10.71 2.2298 10.76 2.29979 10.83 2.34979C11.69 2.91979 12.35 3.4698 12.67 3.7598C12.72 3.7998 12.78 3.8298 12.85 3.8298C12.9 3.8298 12.94 3.81979 12.99 3.78979C13.29 3.61979 13.62 3.5298 13.97 3.5298C14.48 3.5298 14.95 3.7298 15.31 4.0798C15.67 4.4398 15.87 4.91979 15.87 5.42979C15.87 5.93979 15.67 6.4198 15.31 6.7798C14.95 7.1398 14.47 7.3398 13.96 7.3398C13.45 7.3398 12.97 7.1398 12.61 6.7798C12.25 6.4198 12.05 5.93979 12.05 5.42979C12.05 5.11979 12.13 4.7998 12.29 4.5098C12.35 4.3998 12.33 4.25979 12.23 4.17979C11.81 3.81979 11.14 3.26981 10.29 2.73981C10.25 2.70981 10.2 2.6998 10.15 2.6998C10.08 2.6998 10.01 2.7298 9.96 2.7798L1.95 10.7898C1.9 10.8398 1.87 10.9098 1.87 10.9798C1.87 11.0498 1.9 11.1198 1.95 11.1698L8.23 17.4498C8.28 17.4998 8.35 17.5298 8.42 17.5298C8.49 17.5298 8.56 17.4998 8.61 17.4498L9.93 16.1298C9.99 16.0698 10.06 16.0398 10.14 16.0398C10.22 16.0398 10.3 16.0698 10.35 16.1298C10.47 16.2498 10.47 16.4398 10.35 16.5598L8.63 18.2798C8.57 18.3398 8.5 18.3698 8.42 18.3698L8.39 18.3798ZM13.94 4.1398C13.59 4.1398 13.26 4.27981 13.02 4.51981C12.77 4.76981 12.64 5.0898 12.64 5.4398C12.64 5.7898 12.78 6.1198 13.02 6.3598C13.27 6.6098 13.59 6.73981 13.94 6.73981C14.29 6.73981 14.62 6.5998 14.86 6.3598C15.11 6.1098 15.24 5.7898 15.24 5.4398C15.24 5.0898 15.1 4.75981 14.86 4.51981C14.61 4.26981 14.29 4.1398 13.94 4.1398ZM5.83 1.1898C4.94 1.1898 4.14 1.42981 3.44 1.90981C3.32 1.98981 3.29 2.14981 3.36 2.26981C3.72 2.88981 4.89 4.0598 6.79 4.0598C7.04 4.0598 7.3 4.0398 7.56 3.9998C7.58 3.9998 7.59 3.9998 7.61 3.9998C7.64 3.9998 7.66 3.9998 7.68 3.9998C7.68 3.9998 7.73 3.9998 7.74 3.9998C7.81 3.9998 7.88 3.9698 7.93 3.9198L9.29 2.5598C9.35 2.4998 9.38 2.4098 9.37 2.3298C9.36 2.2498 9.3 2.16981 9.23 2.12981C8.01 1.49981 6.87 1.17979 5.85 1.17979L5.83 1.1898Z" fill="#003575" stroke="#003575" stroke-width="0.2" stroke-linecap="round" stroke-linejoin="round"/>
<path d="M8.75994 14.9396C8.67994 14.9396 8.59994 14.9096 8.54994 14.8496L4.52994 10.8296C4.40994 10.7096 4.40994 10.5196 4.52994 10.3996C4.58994 10.3396 4.65994 10.3096 4.73994 10.3096C4.81994 10.3096 4.89994 10.3396 4.94994 10.3996L8.96994 14.4196C9.08994 14.5396 9.08994 14.7296 8.96994 14.8496C8.90994 14.9096 8.83994 14.9396 8.75994 14.9396Z" fill="#003575" stroke="#003575" stroke-width="0.15" stroke-miterlimit="10"/>
<path d="M8.75991 11.4901C8.67991 11.4901 8.59991 11.4601 8.54991 11.4001L6.24991 9.10007C6.12991 8.98007 6.12991 8.79007 6.24991 8.67007C6.30991 8.61007 6.37991 8.58008 6.45991 8.58008C6.53991 8.58008 6.61991 8.61007 6.66991 8.67007L8.96991 10.9701C9.08991 11.0901 9.08991 11.2801 8.96991 11.4001C8.90991 11.4601 8.83991 11.4901 8.75991 11.4901Z" fill="#003575" stroke="#003575" stroke-width="0.15" stroke-miterlimit="10"/>
<path d="M10.4799 9.77036C10.3999 9.77036 10.3199 9.74034 10.2699 9.68034L7.96988 7.38036C7.84988 7.26036 7.84988 7.07035 7.96988 6.95035C8.02988 6.89035 8.09988 6.86035 8.17988 6.86035C8.25988 6.86035 8.33988 6.89035 8.39988 6.95035L10.6999 9.25035C10.7599 9.31035 10.7899 9.38034 10.7899 9.46034C10.7899 9.54034 10.7599 9.62035 10.6999 9.67035C10.6399 9.73035 10.5699 9.76035 10.4899 9.76035L10.4799 9.77036Z" fill="#003575" stroke="#003575" stroke-width="0.15" stroke-miterlimit="10"/>
<path d="M12.8999 18.4502C12.7999 18.4502 12.7099 18.4102 12.6399 18.3402C12.4999 18.2002 12.4999 17.9702 12.6399 17.8202L18.8599 11.6002C18.9299 11.5302 19.0199 11.4902 19.1199 11.4902C19.2199 11.4902 19.3099 11.5302 19.3799 11.6002C19.5199 11.7402 19.5199 11.9702 19.3799 12.1202L13.1599 18.3402C13.0899 18.4102 12.9999 18.4502 12.8999 18.4502Z" fill="#003575" stroke="#003575" stroke-width="0.1" stroke-miterlimit="10"/>
<path d="M12.55 15.0003C11.4 15.0003 10.46 14.0603 10.46 12.9103C10.46 11.7603 11.4 10.8203 12.55 10.8203C13.7 10.8203 14.64 11.7603 14.64 12.9103C14.64 14.0603 13.7 15.0003 12.55 15.0003ZM12.55 11.5503C11.8 11.5503 11.19 12.1603 11.19 12.9103C11.19 13.6603 11.8 14.2703 12.55 14.2703C13.3 14.2703 13.91 13.6603 13.91 12.9103C13.91 12.1603 13.3 11.5503 12.55 11.5503Z" fill="#003575" stroke="#003575" stroke-width="0.1" stroke-miterlimit="10"/>
<path d="M18.7699 19.8304C17.6199 19.8304 16.6799 18.8904 16.6799 17.7404C16.6799 16.5904 17.6199 15.6504 18.7699 15.6504C19.9199 15.6504 20.8599 16.5904 20.8599 17.7404C20.8599 18.8904 19.9199 19.8304 18.7699 19.8304ZM18.7699 16.3804C18.0199 16.3804 17.4099 16.9904 17.4099 17.7404C17.4099 18.4904 18.0199 19.1004 18.7699 19.1004C19.5199 19.1004 20.1299 18.4904 20.1299 17.7404C20.1299 16.9904 19.5199 16.3804 18.7699 16.3804Z" fill="#003575" stroke="#003575" stroke-width="0.1" stroke-miterlimit="10"/>
</svg>
