<svg width="22" height="18" viewBox="0 0 22 18" fill="none" xmlns="http://www.w3.org/2000/svg">
<path d="M4.73001 7.02734H0.26001V17.6674H4.73001V7.02734Z" fill="#DFDFE1"/>
<path d="M4.73 17.9266H0.26C0.11 17.9266 0 17.8066 0 17.6666V7.02661C0 6.87661 0.12 6.7666 0.26 6.7666H4.73C4.88 6.7666 4.99 6.88661 4.99 7.02661V17.6666C4.99 17.8166 4.87 17.9266 4.73 17.9266ZM0.53 17.3966H4.47V7.28662H0.53V17.3966Z" fill="#003575"/>
<path d="M2.49999 16.4668C2.34999 16.4668 2.23999 16.3468 2.23999 16.2068V14.7668C2.23999 14.6168 2.35999 14.5068 2.49999 14.5068C2.63999 14.5068 2.75999 14.6268 2.75999 14.7668V16.2068C2.75999 16.3568 2.63999 16.4668 2.49999 16.4668Z" fill="#003575"/>
<path d="M16.6599 12.2171H15.6799C16.2599 12.2171 16.7399 12.6871 16.7399 13.2771V13.4571C16.7399 14.0371 16.2599 14.5171 15.6799 14.5171H14.8599C15.4499 14.5171 15.9199 14.9871 15.9199 15.5671V15.6871C15.9199 16.2671 15.4499 16.7371 14.8599 16.7371H5.38988C5.19988 16.7371 5.02988 16.6871 4.87988 16.5871V8.28711C6.19988 7.60711 7.54988 6.0871 7.22988 2.6271C7.18988 2.1871 7.26988 1.74711 7.53988 1.38711C7.83988 0.987113 8.37988 0.637084 9.36988 0.857084C9.36988 0.857084 10.5799 1.30711 10.7199 3.03711C10.7499 3.36711 10.7599 3.70711 10.7899 4.03711C10.8599 4.85711 10.8899 6.53711 10.2099 7.84711H16.2399C16.8199 7.84711 17.2999 8.3171 17.2999 8.9071V9.0271C17.2999 9.6071 16.8199 10.0871 16.2399 10.0871H16.6699C16.9599 10.0871 17.2299 10.2071 17.4199 10.3971C17.6099 10.5871 17.7299 10.8471 17.7299 11.1471C17.7299 11.7271 17.2599 12.2071 16.6699 12.2071L16.6599 12.2171Z" fill="white"/>
<path d="M14.72 17.0467H5.24997C5.01997 17.0467 4.78997 16.9767 4.58997 16.8567C4.51997 16.8067 4.46997 16.7267 4.46997 16.6367V8.33672C4.46997 8.23672 4.52997 8.1467 4.60997 8.1067C6.29997 7.2367 7.05997 5.37671 6.81997 2.70671C6.76997 2.17671 6.89997 1.66673 7.17997 1.28673C7.49997 0.856727 8.11997 0.406722 9.26997 0.656722C9.27997 0.656722 9.28997 0.656732 9.30997 0.666732C9.36997 0.686732 10.68 1.19671 10.83 3.07671C10.84 3.22671 10.85 3.38673 10.86 3.53673C10.87 3.71673 10.88 3.89671 10.9 4.07671C10.97 4.88671 10.98 6.36671 10.47 7.64671H16.09C16.82 7.64671 17.41 8.23672 17.41 8.96672V9.08671C17.41 9.43672 17.27 9.75672 17.05 9.99672C17.2 10.0667 17.34 10.1567 17.45 10.2767C17.7 10.5267 17.84 10.8567 17.84 11.2167C17.84 11.9167 17.29 12.4967 16.59 12.5367C16.76 12.7567 16.86 13.0367 16.86 13.3367V13.5167C16.86 14.1667 16.38 14.7167 15.76 14.8167C15.93 15.0367 16.04 15.3167 16.04 15.6267V15.7467C16.04 16.4767 15.45 17.0667 14.72 17.0667V17.0467ZM4.99997 16.4767C5.07997 16.5067 5.15997 16.5267 5.24997 16.5267H14.72C15.16 16.5267 15.51 16.1767 15.51 15.7367V15.6167C15.51 15.1767 15.15 14.8267 14.72 14.8267C14.57 14.8267 14.46 14.7067 14.46 14.5667C14.46 14.4267 14.58 14.3067 14.72 14.3067H15.54C15.98 14.3067 16.33 13.9467 16.33 13.5067V13.3267C16.33 12.8867 15.97 12.5267 15.54 12.5267C15.39 12.5267 15.28 12.4067 15.28 12.2667C15.28 12.1267 15.4 12.0067 15.54 12.0067H16.52C16.96 12.0067 17.31 11.6467 17.31 11.2167C17.31 11.0067 17.23 10.8067 17.08 10.6567C16.93 10.5067 16.73 10.4267 16.52 10.4267H16.09C15.94 10.4267 15.83 10.3067 15.83 10.1667C15.83 10.0267 15.95 9.90672 16.09 9.90672C16.53 9.90672 16.89 9.5467 16.89 9.1067V8.98671C16.89 8.54671 16.53 8.19673 16.09 8.19673H10.06C9.96997 8.19673 9.87997 8.14673 9.82997 8.06673C9.77997 7.98673 9.77997 7.88672 9.82997 7.80672C10.47 6.56672 10.45 4.97673 10.38 4.13673C10.36 3.95673 10.35 3.76672 10.34 3.58671C10.34 3.43671 10.32 3.28673 10.31 3.13673C10.19 1.69673 9.27997 1.24672 9.14997 1.18672C8.45997 1.03672 7.93997 1.18672 7.60997 1.62672C7.40997 1.90672 7.31997 2.27671 7.35997 2.67671C7.67997 6.20671 6.28997 7.79671 5.00997 8.51671V16.4967L4.99997 16.4767Z" fill="#003575"/>
<path d="M15.51 15.3467C15.59 15.3467 15.67 15.3567 15.75 15.3767C15.75 15.3767 15.75 15.3567 15.75 15.3467H15.52H15.51Z" fill="#FF9933"/>
<path d="M16.8799 10.9271H17.3099C17.3899 10.9271 17.4699 10.9371 17.5499 10.9571C17.5299 10.8871 17.5099 10.8171 17.4799 10.7471C17.3099 10.8571 17.1099 10.9271 16.8899 10.9271H16.8799Z" fill="#FF9933"/>
<path d="M16.3298 13.0469C16.4098 13.0469 16.4898 13.0569 16.5698 13.0769C16.5698 13.0669 16.5698 13.0569 16.5698 13.0469H16.3398H16.3298Z" fill="#FF9933"/>
<path d="M14.72 17.0467H5.24997C5.01997 17.0467 4.78997 16.9767 4.58997 16.8567C4.51997 16.8067 4.46997 16.7267 4.46997 16.6367V8.33672C4.46997 8.23672 4.52997 8.1467 4.60997 8.1067C6.29997 7.2367 7.05997 5.37671 6.81997 2.70671C6.76997 2.17671 6.89997 1.66673 7.17997 1.28673C7.49997 0.856727 8.11997 0.406722 9.26997 0.656722C9.27997 0.656722 9.28997 0.656732 9.30997 0.666732C9.36997 0.686732 10.68 1.19671 10.83 3.07671C10.84 3.22671 10.85 3.38673 10.86 3.53673C10.87 3.71673 10.88 3.89671 10.9 4.07671C10.97 4.88671 10.98 6.36671 10.47 7.64671H16.09C16.82 7.64671 17.41 8.23672 17.41 8.96672V9.08671C17.41 9.43672 17.27 9.75672 17.05 9.99672C17.2 10.0667 17.34 10.1567 17.45 10.2767C17.7 10.5267 17.84 10.8567 17.84 11.2167C17.84 11.9167 17.29 12.4967 16.59 12.5367C16.76 12.7567 16.86 13.0367 16.86 13.3367V13.5167C16.86 14.1667 16.38 14.7167 15.76 14.8167C15.93 15.0367 16.04 15.3167 16.04 15.6267V15.7467C16.04 16.4767 15.45 17.0667 14.72 17.0667V17.0467ZM4.99997 16.4767C5.07997 16.5067 5.15997 16.5267 5.24997 16.5267H14.72C15.16 16.5267 15.51 16.1767 15.51 15.7367V15.6167C15.51 15.1767 15.15 14.8267 14.72 14.8267C14.57 14.8267 14.46 14.7067 14.46 14.5667C14.46 14.4267 14.58 14.3067 14.72 14.3067H15.54C15.98 14.3067 16.33 13.9467 16.33 13.5067V13.3267C16.33 12.8867 15.97 12.5267 15.54 12.5267C15.39 12.5267 15.28 12.4067 15.28 12.2667C15.28 12.1267 15.4 12.0067 15.54 12.0067H16.52C16.96 12.0067 17.31 11.6467 17.31 11.2167C17.31 11.0067 17.23 10.8067 17.08 10.6567C16.93 10.5067 16.73 10.4267 16.52 10.4267H16.09C15.94 10.4267 15.83 10.3067 15.83 10.1667C15.83 10.0267 15.95 9.90672 16.09 9.90672C16.53 9.90672 16.89 9.5467 16.89 9.1067V8.98671C16.89 8.54671 16.53 8.19673 16.09 8.19673H10.06C9.96997 8.19673 9.87997 8.14673 9.82997 8.06673C9.77997 7.98673 9.77997 7.88672 9.82997 7.80672C10.47 6.56672 10.45 4.97673 10.38 4.13673C10.36 3.95673 10.35 3.76672 10.34 3.58671C10.34 3.43671 10.32 3.28673 10.31 3.13673C10.19 1.69673 9.27997 1.24672 9.14997 1.18672C8.45997 1.03672 7.93997 1.18672 7.60997 1.62672C7.40997 1.90672 7.31997 2.27671 7.35997 2.67671C7.67997 6.20671 6.28997 7.79671 5.00997 8.51671V16.4967L4.99997 16.4767Z" fill="#003575"/>
<path d="M16.0899 10.4067H15.6299C15.4799 10.4067 15.3699 10.2867 15.3699 10.1467C15.3699 10.0067 15.4899 9.88672 15.6299 9.88672H16.0899C16.2399 9.88672 16.3499 10.0067 16.3499 10.1467C16.3499 10.2867 16.2299 10.4067 16.0899 10.4067Z" fill="#003575"/>
<path d="M15.54 12.5171H15.26C15.11 12.5171 15 12.3971 15 12.2571C15 12.1171 15.12 11.9971 15.26 11.9971H15.54C15.69 11.9971 15.8 12.1171 15.8 12.2571C15.8 12.3971 15.68 12.5171 15.54 12.5171Z" fill="#003575"/>
<path d="M14.7198 14.8169H14.5498C14.3998 14.8169 14.2898 14.6969 14.2898 14.5569C14.2898 14.4169 14.4098 14.2969 14.5498 14.2969H14.7198C14.8698 14.2969 14.9798 14.4169 14.9798 14.5569C14.9798 14.6969 14.8598 14.8169 14.7198 14.8169Z" fill="#003575"/>
<path d="M13.9399 2.86719L14.4799 3.96719L15.7099 4.14719L14.8199 5.0072L15.0299 6.2272L13.9399 5.64719L12.8499 6.2272L13.0499 5.0072L12.1699 4.14719L13.3899 3.96719L13.9399 2.86719Z" fill="#75A5EA"/>
<path d="M15.0998 6.58717C15.0498 6.58717 14.9898 6.57716 14.9398 6.54716L14.0098 6.05717L13.0798 6.54716C12.9598 6.60716 12.8298 6.59717 12.7198 6.51717C12.6098 6.43717 12.5598 6.30718 12.5798 6.18718L12.7598 5.14717L12.0098 4.40718C11.9198 4.31718 11.8798 4.17717 11.9198 4.05717C11.9598 3.93717 12.0698 3.84716 12.1998 3.82716L13.2398 3.67717L13.7098 2.72719C13.8298 2.49719 14.2098 2.49719 14.3198 2.72719L14.7898 3.67717L15.8298 3.82716C15.9598 3.84716 16.0698 3.93717 16.1098 4.05717C16.1498 4.17717 16.1098 4.31718 16.0198 4.40718L15.2698 5.14717L15.4498 6.18718C15.4698 6.31718 15.4198 6.44717 15.3098 6.51717C15.2498 6.55717 15.1798 6.58717 15.1098 6.58717H15.0998ZM14.0098 5.66719C14.0898 5.66719 14.1698 5.68719 14.2498 5.72719L14.9598 6.09718L14.8198 5.30717C14.7898 5.14717 14.8498 4.97716 14.9698 4.85716L15.5498 4.29716L14.7598 4.17717C14.5898 4.15717 14.4498 4.04717 14.3798 3.89717L14.0198 3.17717L13.6598 3.89717C13.5898 4.04717 13.4398 4.14717 13.2798 4.17717L12.4898 4.29716L13.0698 4.85716C13.1898 4.97716 13.2398 5.14717 13.2198 5.30717L13.0798 6.09718L13.7898 5.72719C13.8598 5.68719 13.9498 5.66719 14.0298 5.66719H14.0098Z" fill="#003575"/>
<path d="M18.6999 0.787109L19.3299 2.06711L20.7399 2.26709L19.7199 3.26709L19.9599 4.66711L18.6999 4.00711L17.4399 4.66711L17.6799 3.26709L16.6599 2.26709L18.0699 2.06711L18.6999 0.787109Z" fill="#75A5EA"/>
<path d="M20.0399 5.08705C19.9799 5.08705 19.9099 5.06706 19.8599 5.03706L18.7799 4.46706L17.6999 5.03706C17.5699 5.10706 17.4099 5.09707 17.2799 5.00707C17.1599 4.91707 17.0999 4.76705 17.1199 4.61705L17.3299 3.41707L16.4599 2.56706C16.3499 2.46706 16.3099 2.30707 16.3599 2.16707C16.4099 2.02707 16.5299 1.91705 16.6799 1.89705L17.8799 1.72707L18.4199 0.63707C18.5499 0.36707 18.9999 0.36707 19.1299 0.63707L19.6699 1.72707L20.8699 1.89705C21.0199 1.91705 21.1399 2.02707 21.1899 2.16707C21.2399 2.30707 21.1899 2.46706 21.0899 2.56706L20.2199 3.41707L20.4299 4.61705C20.4599 4.76705 20.3899 4.91707 20.2699 5.00707C20.1999 5.05707 20.1199 5.08705 20.0399 5.08705ZM18.7799 4.02705C18.8699 4.02705 18.9699 4.04706 19.0499 4.09706L19.8699 4.52705L19.7099 3.61705C19.6799 3.42705 19.7399 3.23706 19.8799 3.09706L20.5399 2.44707L19.6199 2.31706C19.4299 2.28706 19.2599 2.16706 19.1799 1.99706L18.7699 1.16707L18.3599 1.99706C18.2699 2.16706 18.1099 2.28706 17.9199 2.31706L16.9999 2.44707L17.6599 3.09706C17.7999 3.22706 17.8599 3.42705 17.8299 3.61705L17.6699 4.52705L18.4899 4.09706C18.5799 4.04706 18.6699 4.02705 18.7599 4.02705H18.7799Z" fill="#003575"/>
</svg>
