<svg width="24" height="24" viewBox="0 0 24 24" fill="none" xmlns="http://www.w3.org/2000/svg">
<path d="M15.3333 4.29167C15.3333 6.09417 12.9833 8.33417 11.8125 9.27333C11.6293 9.42021 11.4015 9.50026 11.1667 9.50026C10.9318 9.50026 10.704 9.42021 10.5208 9.27333C9.35 8.33333 7 6.09417 7 4.29167C6.97372 3.71185 7.17815 3.14522 7.56858 2.71575C7.95901 2.28628 8.50364 2.02893 9.08333 2C9.66302 2.02893 10.2077 2.28628 10.5981 2.71575C10.9885 3.14522 11.1929 3.71185 11.1667 4.29167C11.1404 3.71185 11.3448 3.14522 11.7352 2.71575C12.1257 2.28628 12.6703 2.02893 13.25 2C13.8297 2.02893 14.3743 2.28628 14.7648 2.71575C15.1552 3.14522 15.3596 3.71185 15.3333 4.29167ZM21.4483 12.2917L15.0317 19.2992C14.2504 20.151 13.3005 20.831 12.2424 21.296C11.1842 21.761 10.0408 22.0007 8.885 22H5.33333C4.44928 22 3.60143 21.6488 2.97631 21.0237C2.35119 20.3986 2 19.5507 2 18.6667V14.5C2 13.6159 2.35119 12.7681 2.97631 12.143C3.60143 11.5179 4.44928 11.1667 5.33333 11.1667H11.8225C12.098 11.1672 12.3698 11.2293 12.6182 11.3484C12.8666 11.4675 13.0852 11.6407 13.258 11.8551C13.4309 12.0696 13.5536 12.32 13.6173 12.588C13.6809 12.856 13.6838 13.1349 13.6258 13.4042C13.5356 13.7809 13.3324 14.121 13.0435 14.3789C12.7545 14.6369 12.3936 14.8004 12.0092 14.8475L8.54 15.3333C8.32135 15.3647 8.1241 15.4816 7.99159 15.6583C7.85908 15.835 7.80216 16.0572 7.83333 16.2758C7.8645 16.4946 7.9813 16.6921 8.15806 16.8248C8.33481 16.9575 8.55703 17.0145 8.77583 16.9833L12.3192 16.4833C13.1537 16.3604 13.9166 15.9426 14.4696 15.3055C15.0226 14.6685 15.329 13.8544 15.3333 13.0108C15.3293 12.8325 15.3111 12.6547 15.2792 12.4792L18.2308 9.365C18.6201 8.94354 19.1603 8.69321 19.7334 8.6687C20.3066 8.64419 20.8662 8.84747 21.29 9.23417C21.7116 9.6206 21.9645 10.1573 21.9942 10.7284C22.0238 11.2996 21.8277 11.8595 21.4483 12.2875V12.2917Z" fill="#3966AE"/>
</svg>
