<svg width="22" height="19" viewBox="0 0 22 19" fill="none" xmlns="http://www.w3.org/2000/svg">
<path d="M5.99992 18.1207C7.56289 18.1207 8.82992 16.9029 8.82992 15.4007C8.82992 13.8985 7.56289 12.6807 5.99992 12.6807C4.43696 12.6807 3.16992 13.8985 3.16992 15.4007C3.16992 16.9029 4.43696 18.1207 5.99992 18.1207Z" fill="#75A5EA"/>
<path d="M3.16998 2.15039H0.47998V4.33039H3.16998V2.15039Z" fill="#75A5EA"/>
<path d="M15.9398 1.02051H8.83984V5.73051H15.9398V1.02051Z" fill="#75A5EA"/>
<path d="M5.97 18.53C4.21 18.53 2.78 17.16 2.78 15.47C2.78 14.02 3.85 12.76 5.33 12.47C5.48 12.44 5.59 12.31 5.59 12.16V3.50004C5.59 3.32004 5.44 3.18004 5.26 3.18004H3.85C3.67 3.18004 3.52 3.32004 3.52 3.50004V4.18004C3.52 4.38004 3.35 4.54004 3.15 4.54004H0.37C0.16 4.54004 0 4.38004 0 4.18004V2.15004C0 1.95004 0.17 1.79004 0.37 1.79004H3.15C3.36 1.79004 3.52 1.95004 3.52 2.15004C3.52 2.33004 3.67 2.47004 3.85 2.47004H5.96C6.17 2.47004 6.33 2.63004 6.33 2.83004V12.16C6.33 12.31 6.44 12.44 6.59 12.47C7.85 12.72 8.82 13.65 9.08 14.86C9.11 15.01 9.25 15.12 9.4 15.12H20.03C20.21 15.12 20.36 14.98 20.36 14.8V13.45C20.36 13.25 20.53 13.09 20.73 13.09C20.93 13.09 21.1 13.25 21.1 13.45V15.48C21.1 15.68 20.93 15.84 20.73 15.84H9.39C9.23 15.84 9.1 15.95 9.07 16.1C8.77 17.52 7.45 18.55 5.95 18.55L5.97 18.53ZM5.97 13.12C4.62 13.12 3.53 14.17 3.53 15.47C3.53 16.77 4.63 17.82 5.97 17.82C7.31 17.82 8.41 16.77 8.41 15.47C8.41 14.17 7.31 13.12 5.97 13.12ZM1.07 2.50004C0.89 2.50004 0.74 2.64004 0.74 2.82004V3.50004C0.74 3.68004 0.89 3.82004 1.07 3.82004H2.44C2.62 3.82004 2.77 3.68004 2.77 3.50004V2.82004C2.77 2.64004 2.62 2.50004 2.44 2.50004H1.07Z" fill="#003575"/>
<path d="M10.5999 13.1199C10.3899 13.1199 10.2299 12.9599 10.2299 12.7599C10.2299 12.5599 10.3999 12.3999 10.5999 12.3999H17.9399C18.1199 12.3999 18.2699 12.2599 18.2699 12.0799V6.57993C18.2699 6.39993 18.1199 6.25993 17.9399 6.25993H14.4199C14.2399 6.25993 14.0899 6.39993 14.0899 6.57993V9.28992C14.0899 9.48992 13.9199 9.64993 13.7199 9.64993C13.5199 9.64993 13.3499 9.48992 13.3499 9.28992V6.57993C13.3499 6.39993 13.1999 6.25993 13.0199 6.25993H9.49993C9.31993 6.25993 9.16993 6.39993 9.16993 6.57993V11.0099C9.16993 11.2099 8.99993 11.3699 8.79993 11.3699C8.59993 11.3699 8.42993 11.2099 8.42993 11.0099V0.779922C8.42993 0.579922 8.59993 0.419922 8.79993 0.419922H15.8399C16.0499 0.419922 16.2099 0.579922 16.2099 0.779922V5.21992C16.2099 5.39992 16.3599 5.53992 16.5399 5.53992H18.6499C18.8599 5.53992 19.0199 5.69993 19.0199 5.89993V12.7499C19.0199 12.9499 18.8499 13.1099 18.6499 13.1099H10.5999V13.1199ZM9.48993 1.14993C9.30993 1.14993 9.15993 1.28992 9.15993 1.46992V5.22993C9.15993 5.40993 9.30993 5.54993 9.48993 5.54993H15.1199C15.2999 5.54993 15.4499 5.40993 15.4499 5.22993V1.46992C15.4499 1.28992 15.2999 1.14993 15.1199 1.14993H13.0099C12.8299 1.14993 12.6799 1.28992 12.6799 1.46992V3.49992C12.6799 3.69992 12.5099 3.85992 12.3099 3.85992C12.1099 3.85992 11.9399 3.69992 11.9399 3.49992V1.46992C11.9399 1.28992 11.7899 1.14993 11.6099 1.14993H9.49993H9.48993Z" fill="#003575"/>
<path d="M5.96994 15.9702C5.67994 15.9702 5.43994 15.7402 5.43994 15.4602C5.43994 15.1802 5.67994 14.9502 5.96994 14.9502C6.25994 14.9502 6.49994 15.1802 6.49994 15.4602C6.49994 15.7402 6.25994 15.9702 5.96994 15.9702Z" fill="#003575"/>
</svg>
