<svg width="24" height="24" viewBox="0 0 24 24" fill="none" xmlns="http://www.w3.org/2000/svg">
<g id="icon/ship/blue">
<path id="Vector" d="M19.48 12H15.02C14.511 12 14.0134 12.1508 13.59 12.4333L11.9575 13.5217C11.8205 13.613 11.6596 13.6617 11.495 13.6617H2.83333C2.61232 13.6617 2.40036 13.7495 2.24408 13.9057C2.0878 14.062 2 14.274 2 14.495V21.1617C2 21.3827 2.0878 21.5946 2.24408 21.7509C2.40036 21.9072 2.61232 21.995 2.83333 21.995H12.4475C14.527 21.9911 16.5533 21.3375 18.243 20.1254C19.9328 18.9134 21.2014 17.2035 21.8717 15.235C21.9898 14.8608 22.0176 14.464 21.953 14.077C21.8884 13.69 21.7331 13.3238 21.4998 13.0083C21.2666 12.6928 20.962 12.437 20.6109 12.2617C20.2599 12.0865 19.8723 11.9968 19.48 12ZM5.33333 18.6667C5.16852 18.6667 5.0074 18.6178 4.87036 18.5262C4.73332 18.4347 4.62651 18.3045 4.56343 18.1522C4.50036 18 4.48386 17.8324 4.51601 17.6708C4.54817 17.5091 4.62753 17.3606 4.74408 17.2441C4.86062 17.1275 5.00911 17.0482 5.17076 17.016C5.33241 16.9839 5.49996 17.0004 5.65224 17.0634C5.80451 17.1265 5.93466 17.2333 6.02622 17.3704C6.11779 17.5074 6.16667 17.6685 6.16667 17.8333C6.16667 18.0543 6.07887 18.2663 5.92259 18.4226C5.76631 18.5789 5.55435 18.6667 5.33333 18.6667ZM8.66667 18.6667C8.50185 18.6667 8.34073 18.6178 8.20369 18.5262C8.06665 18.4347 7.95984 18.3045 7.89677 18.1522C7.83369 18 7.81719 17.8324 7.84935 17.6708C7.8815 17.5091 7.96087 17.3606 8.07741 17.2441C8.19396 17.1275 8.34244 17.0482 8.50409 17.016C8.66574 16.9839 8.8333 17.0004 8.98557 17.0634C9.13784 17.1265 9.26799 17.2333 9.35956 17.3704C9.45113 17.5074 9.5 17.6685 9.5 17.8333C9.5 18.0543 9.4122 18.2663 9.25592 18.4226C9.09964 18.5789 8.88768 18.6667 8.66667 18.6667ZM12 18.6667C11.8352 18.6667 11.6741 18.6178 11.537 18.5262C11.4 18.4347 11.2932 18.3045 11.2301 18.1522C11.167 18 11.1505 17.8324 11.1827 17.6708C11.2148 17.5091 11.2942 17.3606 11.4107 17.2441C11.5273 17.1275 11.6758 17.0482 11.8374 17.016C11.9991 16.9839 12.1666 17.0004 12.3189 17.0634C12.4712 17.1265 12.6013 17.2333 12.6929 17.3704C12.7845 17.5074 12.8333 17.6685 12.8333 17.8333C12.8333 18.0543 12.7455 18.2663 12.5893 18.4226C12.433 18.5789 12.221 18.6667 12 18.6667ZM2.83333 12C2.54879 12.0027 2.26686 12.0546 2 12.1533L2 9.5H10.3333C10.5543 9.5 10.7663 9.4122 10.9226 9.25592C11.0789 9.09964 11.1667 8.88768 11.1667 8.66667C11.1667 8.44565 11.0789 8.23369 10.9226 8.07741C10.7663 7.92113 10.5543 7.83333 10.3333 7.83333H2V6.05083C2 5.82982 2.0878 5.61786 2.24408 5.46158C2.40036 5.3053 2.61232 5.2175 2.83333 5.2175H4.82667L4.55917 4.2025C4.49068 3.9428 4.48272 3.67084 4.53589 3.40758C4.58906 3.14431 4.70194 2.89676 4.86584 2.68399C5.02975 2.47122 5.2403 2.29891 5.48128 2.18033C5.72227 2.06174 5.98725 2.00005 6.25583 2V2C6.64341 2.00003 7.02009 2.1283 7.32714 2.3648C7.6342 2.60131 7.85437 2.93277 7.95333 3.3075L8.45333 5.2175H10.3333C11.2993 5.21984 12.2349 5.55506 12.9825 6.16667C14.3934 7.38707 15.6375 8.78801 16.6825 10.3333H15.0375C14.2027 10.3364 13.3864 10.5793 12.6858 11.0333L11.2433 12H2.83333Z" fill="#3966AE"/>
</g>
</svg>
