<svg width="20" height="18" viewBox="0 0 20 18" fill="none" xmlns="http://www.w3.org/2000/svg">
<path d="M0.554688 4.60577L2.10469 0.675781H17.2747L18.8747 4.60577H0.554688Z" fill="#75A5EA"/>
<path d="M17.1248 8.10547C16.1548 8.10547 15.3748 7.31547 15.3748 6.35547V4.60547H18.8848V6.35547C18.8848 7.32547 18.0948 8.10547 17.1348 8.10547H17.1248Z" fill="#75A5EA"/>
<path d="M9.7146 8.10547C8.7446 8.10547 7.9646 7.31547 7.9646 6.35547V4.60547H11.4746V6.35547C11.4746 7.32547 10.6846 8.10547 9.7246 8.10547H9.7146Z" fill="#75A5EA"/>
<path d="M2.3147 8.10547C1.3447 8.10547 0.564697 7.31547 0.564697 6.35547V4.60547H4.0747V6.35547C4.0747 7.32547 3.2847 8.10547 2.3247 8.10547H2.3147Z" fill="#75A5EA"/>
<path d="M7.81458 10.3662H4.19458V17.0162H7.81458V10.3662Z" fill="#75A5EA"/>
<path d="M15.2146 10.3662H10.4546V14.4462H15.2146V10.3662Z" fill="#75A5EA"/>
<path d="M10.3446 14.9659C10.1646 14.9659 10.0146 14.8159 10.0146 14.6359V10.3359C10.0146 10.1559 10.1646 10.0059 10.3446 10.0059H15.3246C15.5046 10.0059 15.6546 10.1559 15.6546 10.3359V14.6359C15.6546 14.8159 15.5046 14.9659 15.3246 14.9659H10.3446ZM13.4546 12.4659C13.2946 12.4659 13.1646 12.5959 13.1646 12.7559V14.0059C13.1646 14.1659 13.2946 14.2959 13.4546 14.2959H14.7046C14.8646 14.2959 14.9946 14.1659 14.9946 14.0059V12.7559C14.9946 12.5959 14.8646 12.4659 14.7046 12.4659H13.4546ZM10.9646 12.4659C10.8046 12.4659 10.6746 12.5959 10.6746 12.7559V14.0059C10.6746 14.1659 10.8046 14.2959 10.9646 14.2959H12.2146C12.3746 14.2959 12.5046 14.1659 12.5046 14.0059V12.7559C12.5046 12.5959 12.3746 12.4659 12.2146 12.4659H10.9646ZM13.4546 10.6659C13.2946 10.6659 13.1646 10.7959 13.1646 10.9559V11.5159C13.1646 11.6759 13.2946 11.8059 13.4546 11.8059H14.7046C14.8646 11.8059 14.9946 11.6759 14.9946 11.5159V10.9559C14.9946 10.7959 14.8646 10.6659 14.7046 10.6659H13.4546ZM10.9646 10.6659C10.8046 10.6659 10.6746 10.7959 10.6746 10.9559V11.5159C10.6746 11.6759 10.8046 11.8059 10.9646 11.8059H12.2146C12.3746 11.8059 12.5046 11.6759 12.5046 11.5159V10.9559C12.5046 10.7959 12.3746 10.6659 12.2146 10.6659H10.9646Z" fill="#003575"/>
<path d="M1.62459 17.4561C1.44459 17.4561 1.29459 17.3061 1.29459 17.1261V8.12605C1.29459 8.02605 1.23459 7.92605 1.14459 7.87605C0.454586 7.47605 0.044586 6.76605 0.044586 5.98605V4.73605L0.0645859 4.67606C0.0645859 4.67606 0.0645859 4.62605 0.0645859 4.60605C0.0645859 4.60605 -0.485414 5.84605 1.62459 0.416046C1.67459 0.286046 1.79459 0.206055 1.93459 0.206055H17.5646C17.7046 0.206055 17.8246 0.286046 17.8746 0.416046L19.3646 4.59605C19.3646 4.62605 19.3646 4.64605 19.3646 4.66605C19.3646 4.66605 19.3746 4.72604 19.3846 4.72604V5.97604C19.3846 6.75604 18.9746 7.46604 18.2846 7.86604C18.1946 7.91604 18.1346 8.01604 18.1346 8.11604V17.116C18.1346 17.296 17.9846 17.446 17.8046 17.446H1.62459V17.4561ZM7.85459 10.006C8.03459 10.006 8.18459 10.156 8.18459 10.336V16.496C8.18459 16.656 8.31459 16.7861 8.47459 16.7861H17.1946C17.3546 16.7861 17.4846 16.656 17.4846 16.496V8.46605C17.4846 8.30605 17.3546 8.17606 17.1946 8.17606C16.5746 8.17606 15.9646 7.89605 15.5446 7.41605C15.4846 7.35605 15.4046 7.31606 15.3246 7.31606C15.2446 7.31606 15.1546 7.35605 15.1046 7.41605C14.6846 7.89605 14.0846 8.17606 13.4546 8.17606C12.8246 8.17606 12.2246 7.89605 11.8046 7.41605C11.7446 7.35605 11.6646 7.31606 11.5846 7.31606C11.5046 7.31606 11.4246 7.35605 11.3646 7.41605C10.9446 7.89605 10.3446 8.17606 9.71459 8.17606C9.08459 8.17606 8.48459 7.89605 8.06459 7.41605C8.01459 7.35605 7.92459 7.31606 7.84459 7.31606C7.76459 7.31606 7.68459 7.35605 7.62459 7.41605C7.20459 7.89605 6.60459 8.17606 5.97459 8.17606C5.34459 8.17606 4.74459 7.89605 4.32459 7.41605C4.26459 7.35605 4.18459 7.31606 4.10459 7.31606C4.02459 7.31606 3.94459 7.35605 3.88459 7.41605C3.46459 7.89605 2.86459 8.17606 2.23459 8.17606C2.07459 8.17606 1.94459 8.30605 1.94459 8.46605V16.496C1.94459 16.656 2.07459 16.7861 2.23459 16.7861H3.48459C3.64459 16.7861 3.77459 16.656 3.77459 16.496V10.336C3.77459 10.156 3.92459 10.006 4.10459 10.006H7.84459H7.85459ZM4.73459 10.666C4.57459 10.666 4.44459 10.7961 4.44459 10.9561V16.496C4.44459 16.656 4.57459 16.7861 4.73459 16.7861H7.22459C7.38459 16.7861 7.51459 16.656 7.51459 16.496V14.6261C7.51459 14.4661 7.38459 14.336 7.22459 14.336H6.45459C6.27459 14.336 6.12459 14.186 6.12459 14.006C6.12459 13.826 6.27459 13.6761 6.45459 13.6761H7.22459C7.38459 13.6761 7.51459 13.546 7.51459 13.386V10.9561C7.51459 10.7961 7.38459 10.666 7.22459 10.666H4.73459ZM15.9446 5.06606C15.7846 5.06606 15.6546 5.19605 15.6546 5.35605V5.97604C15.6546 6.82604 16.3446 7.51605 17.1946 7.51605C18.0446 7.51605 18.7346 6.82604 18.7346 5.97604V5.35605C18.7346 5.19605 18.6046 5.06606 18.4446 5.06606H15.9546H15.9446ZM12.2046 5.06606C12.0446 5.06606 11.9146 5.19605 11.9146 5.35605V5.97604C11.9146 6.82604 12.6046 7.51605 13.4546 7.51605C14.3046 7.51605 14.9946 6.82604 14.9946 5.97604V5.35605C14.9946 5.19605 14.8646 5.06606 14.7046 5.06606H12.2146H12.2046ZM8.47459 5.06606C8.31459 5.06606 8.18459 5.19605 8.18459 5.35605V5.97604C8.18459 6.82604 8.87459 7.51605 9.72459 7.51605C10.5746 7.51605 11.2646 6.82604 11.2646 5.97604V5.35605C11.2646 5.19605 11.1346 5.06606 10.9746 5.06606H8.48459H8.47459ZM4.73459 5.06606C4.57459 5.06606 4.44459 5.19605 4.44459 5.35605V5.97604C4.44459 6.82604 5.13459 7.51605 5.98459 7.51605C6.83459 7.51605 7.52459 6.82604 7.52459 5.97604V5.35605C7.52459 5.19605 7.39459 5.06606 7.23459 5.06606H4.74459H4.73459ZM0.994586 5.06606C0.834586 5.06606 0.704586 5.19605 0.704586 5.35605V5.97604C0.704586 6.82604 1.39459 7.51605 2.24459 7.51605C3.09459 7.51605 3.78459 6.82604 3.78459 5.97604V5.35605C3.78459 5.19605 3.65459 5.06606 3.49459 5.06606H0.994586ZM14.7046 1.28606C14.8546 1.28606 14.9946 1.39605 15.0246 1.54605L15.5446 4.15605C15.5746 4.29605 15.6946 4.39604 15.8346 4.39604H18.1546C18.2546 4.39604 18.3446 4.34605 18.3946 4.26605C18.4446 4.18605 18.4646 4.08605 18.4246 3.99605L17.4146 1.04605C17.3746 0.936051 17.2646 0.856049 17.1446 0.856049H2.36459C2.24459 0.856049 2.13459 0.936051 2.09459 1.04605L1.01459 3.99605C0.984586 4.08605 0.994586 4.18605 1.04459 4.26605C1.10459 4.34605 1.19459 4.39604 1.28459 4.39604H3.60459C3.74459 4.39604 3.86459 4.29605 3.89459 4.15605L4.41459 1.54605C4.44459 1.39605 4.58459 1.27605 4.73459 1.27605C4.75459 1.27605 4.77459 1.27605 4.80459 1.27605C4.98459 1.31605 5.10459 1.48605 5.06459 1.66605L4.59459 4.03606C4.57459 4.12606 4.59459 4.21605 4.65459 4.27605C4.71459 4.34605 4.79459 4.38605 4.88459 4.38605H7.23459C7.39459 4.38605 7.52459 4.25605 7.52459 4.09605V1.60605C7.52459 1.42605 7.67459 1.27605 7.85459 1.27605C8.03459 1.27605 8.18459 1.42605 8.18459 1.60605V4.09605C8.18459 4.25605 8.31459 4.38605 8.47459 4.38605H10.9646C11.1246 4.38605 11.2546 4.25605 11.2546 4.09605V1.60605C11.2546 1.42605 11.4046 1.27605 11.5846 1.27605C11.7646 1.27605 11.9146 1.42605 11.9146 1.60605V4.09605C11.9146 4.25605 12.0446 4.38605 12.2046 4.38605H14.5546C14.6446 4.38605 14.7246 4.34605 14.7846 4.27605C14.8446 4.20605 14.8646 4.11606 14.8446 4.03606L14.3746 1.66605C14.3546 1.57605 14.3746 1.49605 14.4246 1.41605C14.4746 1.34605 14.5446 1.29605 14.6346 1.27605C14.6546 1.27605 14.6746 1.27605 14.7046 1.27605V1.28606Z" fill="#003575"/>
</svg>
