<svg width="24" height="24" viewBox="0 0 24 24" fill="none" xmlns="http://www.w3.org/2000/svg">
<path d="M15.5 12.8328C15.1119 13.3502 14.6086 13.7703 14.0301 14.0595C13.4515 14.3488 12.8135 14.4994 12.1667 14.4994C11.5198 14.4994 10.8818 14.3488 10.3033 14.0595C9.72471 13.7703 9.22145 13.3502 8.83333 12.8328C8.50669 13.2731 8.09565 13.6439 7.62419 13.9237C7.15273 14.2035 6.63028 14.3867 6.08731 14.4624C5.54433 14.5382 4.9917 14.5051 4.46165 14.3651C3.93159 14.2251 3.43472 13.981 3 13.6469V17.8328C3.00132 18.9374 3.44073 19.9965 4.22185 20.7776C5.00296 21.5587 6.062 21.9981 7.16667 21.9994H17.1667C18.2713 21.9981 19.3304 21.5587 20.1115 20.7776C20.8926 19.9965 21.332 18.9374 21.3333 17.8328V13.6444C20.8988 13.9786 20.402 14.2229 19.8721 14.3631C19.3421 14.5033 18.7895 14.5366 18.2466 14.4611C17.7036 14.3855 17.1811 14.2026 16.7096 13.9231C16.238 13.6435 15.8268 13.2729 15.5 12.8328Z" fill="#3966AE"/>
<path d="M20.25 4.60923C20.0887 3.8668 19.6771 3.20239 19.0842 2.72736C18.4913 2.25232 17.7531 1.99554 16.9933 2.00006H16.3333V4.50006C16.3333 4.72107 16.2455 4.93303 16.0893 5.08931C15.933 5.24559 15.721 5.33339 15.5 5.33339C15.279 5.33339 15.067 5.24559 14.9107 5.08931C14.7545 4.93303 14.6667 4.72107 14.6667 4.50006V2.00006H9.66667V4.50006C9.66667 4.72107 9.57887 4.93303 9.42259 5.08931C9.26631 5.24559 9.05435 5.33339 8.83333 5.33339C8.61232 5.33339 8.40036 5.24559 8.24408 5.08931C8.0878 4.93303 8 4.72107 8 4.50006V2.00006H7.34C6.58015 1.99558 5.84187 2.25248 5.24894 2.72768C4.656 3.20288 4.24447 3.86748 4.08333 4.61006L3.01833 9.41673L3 10.3501C3.00109 10.6784 3.06684 11.0032 3.19349 11.3061C3.32014 11.609 3.50521 11.884 3.73813 12.1154C4.20853 12.5827 4.84529 12.8439 5.50833 12.8417C5.83664 12.8406 6.16151 12.7749 6.46441 12.6482C6.7673 12.5216 7.04229 12.3365 7.27366 12.1036C7.50503 11.8707 7.68826 11.5945 7.81289 11.2907C7.93751 10.987 8.00109 10.6617 8 10.3334C8 10.1124 8.0878 9.90042 8.24408 9.74414C8.40036 9.58786 8.61232 9.50006 8.83333 9.50006C9.05435 9.50006 9.26631 9.58786 9.42259 9.74414C9.57887 9.90042 9.66667 10.1124 9.66667 10.3334C9.66667 10.9964 9.93006 11.6323 10.3989 12.1012C10.8677 12.57 11.5036 12.8334 12.1667 12.8334C12.8297 12.8334 13.4656 12.57 13.9344 12.1012C14.4033 11.6323 14.6667 10.9964 14.6667 10.3334C14.6667 10.1124 14.7545 9.90042 14.9107 9.74414C15.067 9.58786 15.279 9.50006 15.5 9.50006C15.721 9.50006 15.933 9.58786 16.0893 9.74414C16.2455 9.90042 16.3333 10.1124 16.3333 10.3334C16.3333 10.9964 16.5967 11.6323 17.0656 12.1012C17.5344 12.57 18.1703 12.8334 18.8333 12.8334C19.4964 12.8334 20.1323 12.57 20.6011 12.1012C21.0699 11.6323 21.3333 10.9964 21.3333 10.3334V9.58923L20.25 4.60923Z" fill="#3966AE"/>
</svg>
