<svg width="24" height="24" viewBox="0 0 24 24" fill="none" xmlns="http://www.w3.org/2000/svg">
<g id="icon/side-default/gray">
<g id="Vector">
<path d="M2.83333 6.66666H21.1667C21.3877 6.66666 21.5996 6.57887 21.7559 6.42259C21.9122 6.26631 22 6.05435 22 5.83333C22 5.61232 21.9122 5.40036 21.7559 5.24408C21.5996 5.0878 21.3877 5 21.1667 5H2.83333C2.61232 5 2.40036 5.0878 2.24408 5.24408C2.0878 5.40036 2 5.61232 2 5.83333C2 6.05435 2.0878 6.26631 2.24408 6.42259C2.40036 6.57887 2.61232 6.66666 2.83333 6.66666Z" fill="#B1B2B6"/>
<path d="M21.1666 9.16646H9.5C9.27898 9.16646 9.06702 9.25426 8.91074 9.41054C8.75446 9.56682 8.66667 9.77878 8.66667 9.99979C8.66667 10.2208 8.75446 10.4328 8.91074 10.589C9.06702 10.7453 9.27898 10.8331 9.5 10.8331H21.1666C21.3877 10.8331 21.5996 10.7453 21.7559 10.589C21.9122 10.4328 22 10.2208 22 9.99979C22 9.77878 21.9122 9.56682 21.7559 9.41054C21.5996 9.25426 21.3877 9.16646 21.1666 9.16646Z" fill="#B1B2B6"/>
<path d="M21.1667 17.5H2.83333C2.61232 17.5 2.40036 17.5878 2.24408 17.7441C2.0878 17.9004 2 18.1123 2 18.3333C2 18.5544 2.0878 18.7663 2.24408 18.9226C2.40036 19.0789 2.61232 19.1667 2.83333 19.1667H21.1667C21.3877 19.1667 21.5996 19.0789 21.7559 18.9226C21.9122 18.7663 22 18.5544 22 18.3333C22 18.1123 21.9122 17.9004 21.7559 17.7441C21.5996 17.5878 21.3877 17.5 21.1667 17.5Z" fill="#B1B2B6"/>
<path d="M21.1666 13.3329H9.5C9.27898 13.3329 9.06702 13.4207 8.91074 13.577C8.75446 13.7333 8.66667 13.9452 8.66667 14.1663C8.66667 14.3873 8.75446 14.5992 8.91074 14.7555C9.06702 14.9118 9.27898 14.9996 9.5 14.9996H21.1666C21.3877 14.9996 21.5996 14.9118 21.7559 14.7555C21.9122 14.5992 22 14.3873 22 14.1663C22 13.9452 21.9122 13.7333 21.7559 13.577C21.5996 13.4207 21.3877 13.3329 21.1666 13.3329Z" fill="#B1B2B6"/>
<path d="M4.7439 15.2039L2.26557 12.7256C2.0955 12.555 2 12.324 2 12.0831C2 11.8422 2.0955 11.6112 2.26557 11.4406L4.7439 8.96225C4.86049 8.84569 5.00904 8.76634 5.17075 8.73422C5.33245 8.70211 5.50005 8.71868 5.65233 8.78184C5.80462 8.84501 5.93474 8.95192 6.02625 9.08905C6.11776 9.22619 6.16653 9.38739 6.1664 9.55225V14.6139C6.16653 14.7788 6.11776 14.94 6.02625 15.0771C5.93474 15.2142 5.80462 15.3212 5.65233 15.3843C5.50005 15.4475 5.33245 15.4641 5.17075 15.4319C5.00904 15.3998 4.86049 15.3205 4.7439 15.2039Z" fill="#B1B2B6"/>
</g>
</g>
</svg>
