<svg width="20" height="23" viewBox="0 0 20 23" fill="none" xmlns="http://www.w3.org/2000/svg">
<path d="M2.3299 0.830307H13.6099C14.5399 0.830307 15.2899 1.5803 15.2899 2.5103V20.4103C15.2899 21.3303 14.5399 22.0803 13.6199 22.0803H2.3299C1.3999 22.0803 0.649902 21.3303 0.649902 20.4003V2.50031C0.649902 1.57031 1.3999 0.820312 2.3299 0.820312V0.830307Z" fill="#DFDFE1"/>
<path d="M13.91 3.58984H2.02002V17.5999H13.91V3.58984Z" fill="white"/>
<path d="M9.0299 19.8395C9.0299 20.4295 8.5499 20.8995 7.9699 20.8995C7.3899 20.8995 6.8999 20.4195 6.8999 19.8395C6.8999 19.2595 7.3799 18.7695 7.9699 18.7695C8.5599 18.7695 9.0299 19.2495 9.0299 19.8395Z" fill="white"/>
<path d="M7.97006 18.4297C7.19006 18.4297 6.56006 19.0597 6.56006 19.8397C6.56006 20.6197 7.19006 21.2397 7.97006 21.2397C8.75006 21.2397 9.37006 20.6097 9.37006 19.8397C9.37006 19.0697 8.74006 18.4297 7.97006 18.4297ZM7.97006 20.5597C7.57006 20.5597 7.25006 20.2397 7.25006 19.8397C7.25006 19.4397 7.58006 19.1097 7.97006 19.1097C8.36006 19.1097 8.69006 19.4397 8.69006 19.8397C8.69006 20.2397 8.37006 20.5597 7.97006 20.5597Z" fill="#003575"/>
<path d="M6.36002 2.55013H9.58002C9.77002 2.55013 9.92002 2.40013 9.92002 2.21013C9.92002 2.02013 9.77002 1.87012 9.58002 1.87012H6.36002C6.17002 1.87012 6.02002 2.02013 6.02002 2.21013C6.02002 2.40013 6.17002 2.55013 6.36002 2.55013Z" fill="#003575"/>
<path d="M10.27 14.4301L9.81001 15.0101C9.32001 15.6201 8.41001 15.6801 7.85001 15.1401C5.94001 13.2901 4.53001 10.9801 3.76001 8.44013C3.53001 7.69013 4.00001 6.91012 4.77001 6.76012L5.49001 6.61013C5.79001 6.55013 6.09001 6.73013 6.17001 7.03013C6.28001 7.48013 6.42001 7.93013 6.58001 8.36013C6.69001 8.65013 6.54001 8.97012 6.26001 9.09012L6.09001 9.16013C5.78001 9.29013 5.65001 9.65013 5.79001 9.95013C6.24001 10.9101 6.79001 11.8201 7.44001 12.6501C7.64001 12.9101 8.03001 12.9601 8.28001 12.7401L8.42001 12.6201C8.66001 12.4201 9.01001 12.4401 9.22001 12.6601C9.53001 13.0001 9.87001 13.3301 10.22 13.6301C10.45 13.8301 10.48 14.1901 10.28 14.4301H10.27Z" fill="#DFDFE1"/>
<path d="M8.2001 12.3798L8.0601 12.4998C7.9401 12.5998 7.7701 12.5798 7.6701 12.4598C7.0401 11.6398 6.4901 10.7498 6.0601 9.81977C6.0001 9.67977 6.0601 9.51977 6.2001 9.45977L6.3701 9.38976C6.8201 9.19976 7.0301 8.70976 6.8701 8.25976C6.7101 7.83976 6.5801 7.39977 6.4701 6.95977C6.3501 6.49977 5.8901 6.20976 5.4201 6.30976L4.7001 6.45977C4.2501 6.54977 3.8501 6.83976 3.6101 7.22976C3.3801 7.62976 3.3201 8.09976 3.4501 8.53976C4.2401 11.1298 5.6801 13.4898 7.6301 15.3798C7.8401 15.5798 8.1001 15.7298 8.3801 15.7898C8.5401 15.8298 8.7001 15.8397 8.8701 15.8297C9.3301 15.7997 9.7701 15.5798 10.0601 15.2198L10.5201 14.6398C10.8201 14.2598 10.7801 13.7198 10.4201 13.4098C10.0801 13.1098 9.7501 12.7898 9.4501 12.4598C9.1301 12.1098 8.5801 12.0798 8.2201 12.3898L8.2001 12.3798ZM10.0201 14.2398L9.5601 14.8198C9.1901 15.2798 8.5001 15.3398 8.0701 14.9198C6.2001 13.1098 4.8101 10.8398 4.0601 8.34977C3.8801 7.76977 4.2601 7.17977 4.8301 7.06977L5.5501 6.91976C5.6901 6.88976 5.8301 6.97976 5.8601 7.10976C5.9701 7.56976 6.1201 8.02976 6.2801 8.46976C6.3301 8.59976 6.2601 8.73977 6.1301 8.79977L5.9601 8.86976C5.4801 9.06976 5.2801 9.62976 5.4901 10.0798C5.9501 11.0598 6.5201 11.9898 7.1801 12.8398C7.4901 13.2398 8.0801 13.3198 8.4701 12.9798L8.6101 12.8597C8.7201 12.7697 8.8801 12.7798 8.9701 12.8798C9.2901 13.2298 9.6301 13.5598 9.9901 13.8798C10.0901 13.9698 10.1001 14.1298 10.0201 14.2398Z" fill="#003575"/>
<path d="M15.32 4.38023V2.26022C15.32 1.15022 14.41 0.240234 13.3 0.240234H2.02C0.91 0.240234 0 1.14022 0 2.26022V20.1602C0 21.2702 0.91 22.1802 2.02 22.1802H13.3C14.41 22.1802 15.32 21.2702 15.32 20.1602V10.7202M13.27 10.8302V17.0202H2.06V3.70023H13.27V4.38023M14.64 20.1702C14.64 20.9102 14.04 21.5002 13.31 21.5002H2.02C1.28 21.5002 0.69 20.9002 0.69 20.1702V2.27023C0.69 1.54023 1.29 0.940231 2.02 0.940231H13.3C14.04 0.940231 14.63 1.54023 14.63 2.27023V9.12022H13.94V3.36023C13.94 3.17023 13.79 3.02023 13.6 3.02023H1.72C1.53 3.02023 1.38 3.17023 1.38 3.36023V17.3702C1.38 17.5602 1.53 17.7102 1.72 17.7102H13.61C13.8 17.7102 13.95 17.5602 13.95 17.3702V9.12022H14.64V20.1702Z" fill="#003575"/>
<path d="M18.9999 5.95993V10.0599C18.9999 10.6299 18.5399 11.0899 17.9699 11.0899H13.7299C13.6099 11.0899 13.4999 11.1299 13.4099 11.1999L11.6199 12.6399C11.4499 12.7699 11.1999 12.6599 11.1999 12.4399V11.5899C11.1799 11.3099 10.9499 11.0799 10.6699 11.0799C10.0999 11.0799 9.63989 10.6199 9.63989 10.0499V5.94992C9.63989 5.37992 10.0999 4.91992 10.6699 4.91992H17.9599C18.5299 4.91992 18.9899 5.37992 18.9899 5.94992L18.9999 5.95993Z" fill="#75A5EA"/>
<path d="M13.67 7.99969C13.67 8.58969 13.19 9.0697 12.6 9.0697C12.01 9.0697 11.53 8.58969 11.53 7.99969C11.53 7.40969 12.01 6.92969 12.6 6.92969C13.19 6.92969 13.67 7.40969 13.67 7.99969Z" fill="white"/>
<path d="M17.3299 7.99969C17.3299 8.58969 16.8499 9.0697 16.2599 9.0697C15.6699 9.0697 15.1899 8.58969 15.1899 7.99969C15.1899 7.40969 15.6699 6.92969 16.2599 6.92969C16.8499 6.92969 17.3299 7.40969 17.3299 7.99969Z" fill="white"/>
<path d="M13.56 4.59961H10.6C9.82995 4.59961 9.19995 5.2296 9.19995 5.9996V10.0996C9.19995 10.8696 9.82995 11.4996 10.61 11.4996C10.69 11.4996 10.75 11.5596 10.75 11.6396C10.75 11.6796 10.76 12.5496 10.76 12.4896C10.76 12.9996 11.35 13.2896 11.76 12.9796C11.76 12.9796 11.78 12.9796 11.78 12.9696C11.82 12.9396 13.58 11.5196 13.47 11.6096L13.6 11.4996H17.9C18.67 11.4996 19.3 10.8696 19.3 10.0996V5.9996C19.3 5.2296 18.67 4.59961 17.9 4.59961H13.55M18.55 10.0996C18.55 10.4596 18.26 10.7596 17.89 10.7596H13.65C13.55 10.7596 13.45 10.7796 13.36 10.8096C13.28 10.8396 13.21 10.8796 13.14 10.9296C13.13 10.9296 13.11 10.9496 13.1 10.9596C13.06 10.9896 11.39 12.3396 11.5 12.2496V11.6396C11.48 11.2396 11.22 10.9196 10.86 10.8096C10.78 10.7796 10.69 10.7696 10.6 10.7696C10.24 10.7696 9.93995 10.4796 9.93995 10.1096V6.0096C9.93995 5.6496 10.23 5.34961 10.6 5.34961H17.89C18.25 5.34961 18.55 5.6396 18.55 6.0096V10.1096V10.0996Z" fill="#003575"/>
<path d="M12.5999 6.55957C11.7999 6.55957 11.1499 7.20957 11.1499 8.00957C11.1499 8.80957 11.7999 9.44957 12.5999 9.44957C13.3999 9.44957 14.0399 8.79957 14.0399 8.00957C14.0399 7.21957 13.3899 6.55957 12.5999 6.55957ZM12.5999 8.69957C12.2099 8.69957 11.8999 8.38957 11.8999 7.99957C11.8999 7.60957 12.2099 7.29958 12.5999 7.29958C12.9899 7.29958 13.2999 7.60957 13.2999 7.99957C13.2999 8.38957 12.9899 8.69957 12.5999 8.69957Z" fill="#003575"/>
<path d="M16.2601 6.55957C15.4601 6.55957 14.8101 7.20957 14.8101 8.00957C14.8101 8.80957 15.4601 9.44957 16.2601 9.44957C17.0601 9.44957 17.7001 8.79957 17.7001 8.00957C17.7001 7.21957 17.0501 6.55957 16.2601 6.55957ZM16.2601 8.69957C15.8701 8.69957 15.5601 8.38957 15.5601 7.99957C15.5601 7.60957 15.8701 7.29958 16.2601 7.29958C16.6501 7.29958 16.9601 7.60957 16.9601 7.99957C16.9601 8.38957 16.6501 8.69957 16.2601 8.69957Z" fill="#003575"/>
</svg>
