<svg width="25" height="26" viewBox="0 0 25 26" fill="none" xmlns="http://www.w3.org/2000/svg">
<path d="M17.7085 2.58398H7.29183C4.41535 2.58398 2.0835 4.91583 2.0835 7.79232V18.209C2.0835 21.0855 4.41535 23.4173 7.29183 23.4173H17.7085C20.585 23.4173 22.9168 21.0855 22.9168 18.209V7.79232C22.9168 4.91583 20.585 2.58398 17.7085 2.58398Z" fill="#919298"/>
<path d="M16.6667 12.3446C16.7952 13.2115 16.6472 14.0969 16.2435 14.8748C15.8399 15.6527 15.2012 16.2835 14.4184 16.6775C13.6355 17.0716 12.7484 17.2087 11.8831 17.0695C11.0179 16.9302 10.2185 16.5217 9.59881 15.902C8.9791 15.2823 8.57057 14.483 8.43134 13.6177C8.29211 12.7524 8.42926 11.8653 8.82328 11.0824C9.2173 10.2996 9.84813 9.66095 10.626 9.2573C11.404 8.85366 12.2893 8.70558 13.1563 8.83414C14.0406 8.96527 14.8592 9.37733 15.4914 10.0095C16.1235 10.6416 16.5356 11.4603 16.6667 12.3446Z" stroke="white" stroke-width="2" stroke-linecap="round" stroke-linejoin="round"/>
<path d="M18.229 7.27148H18.239" stroke="white" stroke-width="2" stroke-linecap="round" stroke-linejoin="round"/>
</svg>
