<svg width="32" height="32" viewBox="0 0 32 32" fill="none" xmlns="http://www.w3.org/2000/svg">
<g clip-path="url(#clip0_1366_6881)">
<path d="M16.0004 32.0008C24.8372 32.0008 32.0008 24.8372 32.0008 16.0004C32.0008 7.16362 24.8372 0 16.0004 0C7.16362 0 0 7.16362 0 16.0004C0 24.8372 7.16362 32.0008 16.0004 32.0008Z" fill="black"/>
<path d="M13.7738 13.3037V12.4304C13.4744 12.3895 13.1702 12.3638 12.8595 12.3638C9.11909 12.3638 6.07617 15.4067 6.07617 19.1471C6.07617 21.442 7.22319 23.4727 8.9722 24.7008C7.84285 23.4888 7.15014 21.865 7.15014 20.0822C7.15014 16.3956 10.1072 13.3888 13.7738 13.3029V13.3037Z" fill="#25F4EE"/>
<path d="M13.9331 23.1812C15.6019 23.1812 16.9632 21.8536 17.025 20.2001L17.0306 5.43023H19.7292C19.673 5.12682 19.6425 4.81458 19.6425 4.49512H15.9566L15.951 19.265C15.8892 20.9193 14.5279 22.2461 12.8591 22.2461C12.3406 22.2461 11.8518 22.1161 11.4224 21.8906C11.9858 22.6708 12.9001 23.1821 13.9339 23.1821L13.9331 23.1812Z" fill="#25F4EE"/>
<path d="M24.77 10.4431V9.62195C23.741 9.62195 22.7818 9.31613 21.9775 8.79199C22.6935 9.61393 23.6664 10.2071 24.77 10.4431Z" fill="#25F4EE"/>
<path d="M21.9778 8.79126C21.1936 7.89067 20.7168 6.71476 20.7168 5.42969H19.7295C19.9896 6.83356 20.8227 8.03836 21.9778 8.79126Z" fill="#FE2C55"/>
<path d="M12.8593 16.0496C11.1512 16.0496 9.76099 17.439 9.76099 19.1479C9.76099 20.3374 10.436 21.3713 11.4217 21.8898C11.0541 21.3809 10.835 20.7572 10.835 20.083C10.835 18.3749 12.2252 16.9847 13.9333 16.9847C14.2519 16.9847 14.5577 17.0377 14.8475 17.1276V13.3654C14.5481 13.3245 14.2439 13.2988 13.9333 13.2988C13.8795 13.2988 13.8265 13.302 13.7727 13.3028V16.1924C13.4838 16.1017 13.1771 16.0496 12.8585 16.0496H12.8593Z" fill="#FE2C55"/>
<path d="M24.7701 10.4429V13.3076C22.8589 13.3076 21.0882 12.696 19.6426 11.6589V19.1486C19.6426 22.8891 16.5997 25.932 12.8592 25.932C11.4136 25.932 10.0732 25.4761 8.97192 24.7023C10.2112 26.0323 11.9763 26.8671 13.934 26.8671C17.6745 26.8671 20.7174 23.8242 20.7174 20.0837V12.594C22.163 13.6319 23.9337 14.2427 25.8448 14.2427V10.5568C25.4764 10.5568 25.1168 10.5167 24.7709 10.4429H24.7701Z" fill="#FE2C55"/>
<path d="M19.6422 19.1476V11.6579C21.0878 12.6958 22.8584 13.3066 24.7696 13.3066V10.4419C23.6659 10.2059 22.6931 9.61271 21.9771 8.79078C20.8221 8.03787 19.9889 6.83307 19.7288 5.4292H17.0303L17.0246 20.1991C16.9628 21.8534 15.6015 23.1802 13.9328 23.1802C12.8989 23.1802 11.9847 22.6697 11.4212 21.8887C10.4347 21.3694 9.7605 20.3364 9.7605 19.1468C9.7605 17.4387 11.1507 16.0485 12.8588 16.0485C13.1775 16.0485 13.4833 16.1015 13.773 16.1914V13.3018C10.1064 13.3877 7.14941 16.3945 7.14941 20.0811C7.14941 21.8646 7.84212 23.4876 8.97147 24.6997C10.0735 25.4734 11.4132 25.9294 12.8588 25.9294C16.5992 25.9294 19.6422 22.8864 19.6422 19.146V19.1476Z" fill="white"/>
</g>
<defs>
<clipPath id="clip0_1366_6881">
<rect width="32" height="32" fill="white"/>
</clipPath>
</defs>
</svg>
