<svg width="32" height="32" viewBox="0 0 32 32" fill="none" xmlns="http://www.w3.org/2000/svg">
<rect width="32" height="32" rx="16" fill="black"/>
<g clip-path="url(#clip0_1366_6876)">
<path d="M24.6428 11.5258C24.656 11.7173 24.656 11.9087 24.656 12.102C24.656 17.9899 20.1737 24.7805 11.9775 24.7805V24.777C9.55633 24.7805 7.18545 24.087 5.14722 22.7793C5.49928 22.8217 5.8531 22.8428 6.20781 22.8437C8.21428 22.8455 10.1634 22.1723 11.7419 20.9326C9.83516 20.8964 8.1631 19.6531 7.57898 17.8381C8.24692 17.967 8.93516 17.9405 9.59075 17.7614C7.51192 17.3414 6.01633 15.5149 6.01633 13.3937V13.3373C6.63575 13.6823 7.32928 13.8737 8.03869 13.8949C6.08075 12.5864 5.47722 9.98167 6.65957 7.9452C8.92192 10.729 12.2599 12.4214 15.8431 12.6005C15.484 11.0529 15.9746 9.43109 17.1322 8.34314C18.9269 6.65609 21.7496 6.74256 23.4366 8.53638C24.4346 8.33961 25.391 7.97344 26.2663 7.45461C25.9337 8.48609 25.2375 9.36226 24.3075 9.91903C25.1907 9.81491 26.0537 9.57844 26.8663 9.21756C26.2681 10.114 25.5146 10.8949 24.6428 11.5258Z" fill="white"/>
</g>
<defs>
<clipPath id="clip0_1366_6876">
<rect width="21.8824" height="18" fill="white" transform="translate(5.05884 7)"/>
</clipPath>
</defs>
</svg>
