<svg width="161" height="34" viewBox="0 0 161 34" fill="none" xmlns="http://www.w3.org/2000/svg">
<path d="M39.501 1.43399H44.9797V10.4448H39.501V1.43399ZM41.3574 8.89009H43.1384V3.00359H41.3574V8.89009ZM51.0322 0V13.9012H49.1456V6.91294H47.9835V13.2824H46.1269V0.241548H47.9835V5.32805H49.1456V0.0151082H51.0322V0Z" fill="#313133"/>
<path d="M56.4655 6.77651C54.3374 6.77651 52.7373 5.4483 52.7373 3.5918C52.7373 1.7353 54.3374 0.422202 56.4655 0.422202C58.5937 0.422202 60.1634 1.75039 60.1634 3.5918C60.1634 5.43321 58.5786 6.77651 56.4655 6.77651ZM56.4655 5.16158C57.4919 5.16158 58.2314 4.58797 58.2314 3.5918C58.2314 2.59563 57.4919 2.0222 56.4655 2.0222C55.4392 2.0222 54.6693 2.61072 54.6693 3.5918C54.6693 4.57288 55.4392 5.16158 56.4655 5.16158ZM64.4348 12.2103V13.7497H54.8353V9.91607H62.1105V9.07075H54.8202V7.54629H64.0876V11.3348H56.8127V12.2103H64.4348ZM64.0876 6.97273H62.0803V0.0146484H64.0876V6.97273Z" fill="#313133"/>
<path d="M76.2225 7.38074V8.21096H79.9808V11.6523H72.3736V12.3768H80.343V13.8106H70.3964V10.309H78.0185V9.64477H70.3813V8.21096H74.23V7.38074H68.9775V5.91672H81.4901V7.38074H76.2225ZM69.4606 4.10557C72.2529 3.98482 73.6113 3.32065 73.9887 2.53579H70.1549V1.10198H74.2151V0H76.2074V1.10198H80.2977V2.53579H76.4338C76.8263 3.32065 78.1847 3.98482 80.977 4.10557L80.4185 5.5696C77.8375 5.43375 76.0866 4.79973 75.2112 3.77337C74.3508 4.79973 72.6001 5.43375 70.004 5.5696L69.4606 4.10557Z" fill="#313133"/>
<path d="M89.6415 7.84827C88.1624 7.33509 87.1662 6.35394 86.5775 5.13137C85.9738 6.47469 84.9021 7.54627 83.3324 8.08963L82.291 6.52003C84.6003 5.76536 85.5511 3.924 85.5511 2.03731V0.724183H87.5737V2.15799C87.5737 3.89374 88.4943 5.58422 90.6829 6.3087L89.6415 7.84827ZM84.5248 8.91985H94.0036V13.931H92.0111V10.4896H84.5248V8.91985ZM94.0036 0.0146484V8.28586H92.0111V4.22579H89.4755V2.61087H92.0111V0.0146484H94.0036Z" fill="#313133"/>
<path d="M100.811 2.06734H103.83V3.65223H95.7393V2.06734H98.8184V0.256196H100.811V2.06734ZM103.331 7.74251C103.331 9.70467 101.837 11.0783 99.8297 11.0783C97.8223 11.0783 96.2977 9.70467 96.2977 7.74251C96.2977 5.78036 97.8072 4.43712 99.8297 4.43712C101.852 4.43712 103.331 5.81054 103.331 7.74251ZM101.445 7.74251C101.445 6.70106 100.766 6.05205 99.8297 6.05205C98.8939 6.05205 98.1995 6.70108 98.1995 7.75762C98.1995 8.81416 98.8939 9.44808 99.8297 9.44808C100.766 9.44808 101.445 8.81415 101.445 7.74251ZM108.72 7.09359H106.727V13.9159H104.735V0.0146484H106.727V5.44827H108.72V7.09359Z" fill="#313133"/>
<path d="M121.836 10.6414V12.2413H109.263V10.6414H113.7V5.85674H115.693V10.6414H121.836ZM118.077 8.96609C118.606 6.33982 118.636 4.4079 118.636 2.7929H110.53V1.20801H120.628V2.53624C120.628 4.272 120.628 6.2342 120.07 9.19253L118.077 8.96609Z" fill="#313133"/>
<path d="M12.5577 28.586H7.25988V33.5065H5.26762V28.586H0V26.9709H8.75412C8.92015 26.2464 9.02596 25.5673 9.10142 24.9484L1.22248 25.356L0.996222 23.6655L9.23721 23.4089C9.2674 22.9108 9.26743 22.443 9.26743 21.9902H1.44892V20.4053H11.1843V21.6582C11.1843 23.092 11.1842 24.7069 10.7163 26.9709H12.5577V28.586Z" fill="#313133"/>
<path d="M25.9767 26.8952V28.4799H13.4189V26.8952H18.6866V25.6423H14.6112V24.0727H16.2867V21.7331H14.5207V20.1484H24.8597V21.7331H23.0937V24.0727H24.7542V25.6423H20.6788V26.8952H25.9767ZM16.9357 31.7099H24.5731V33.2948H14.9434V29.3705H16.9357V31.7099ZM18.2639 24.0727H21.1166V21.7331H18.2639V24.0727Z" fill="#313133"/>
<path d="M37.2673 26.352H30.5205V20.4655H37.2673V26.352ZM37.7504 29.748C37.9617 30.6687 39.3503 31.7857 42.0973 32.0121L41.4633 33.4912C39.154 33.295 37.5389 32.4648 36.6937 31.4083C35.8485 32.4799 34.2185 33.295 31.879 33.4912L31.2601 32.0121C34.0373 31.7706 35.4259 30.714 35.6372 29.748H31.7883V28.2689H35.6825V27.1369H37.705V28.2689H41.584V29.748H37.7504ZM35.3203 22.0353H32.4827V24.7973H35.3203V22.0353ZM41.3577 27.5292H39.3653V19.6504H41.3577V27.5292Z" fill="#313133"/>
<path d="M52.7673 23.3187H46.2168V21.7187H48.511V19.9829H50.4731V21.7187H52.7673V23.3187ZM53.6126 19.8773H55.4691V32.9181H53.6126V28.9636H52.0731C51.575 29.99 50.6392 30.639 49.4619 30.639C47.7413 30.639 46.5035 29.2504 46.5035 27.2882C46.5035 25.3261 47.7413 23.9374 49.4619 23.9374C50.6694 23.9374 51.6505 24.6317 52.1184 25.7185V24.1336H53.6126V19.8773ZM50.6995 27.2882C50.6995 26.2166 50.1864 25.5978 49.4619 25.5978C48.7374 25.5978 48.2242 26.2166 48.2242 27.2882C48.2242 28.3599 48.7525 28.9636 49.4619 28.9636C50.1713 28.9636 50.6995 28.3448 50.6995 27.2882ZM53.6126 27.3787V25.7185H52.1184C52.3146 26.1713 52.4202 26.6996 52.4202 27.2731V27.3787H53.6126ZM58.1558 19.6357V33.537H56.2691V19.6357H58.1558Z" fill="#313133"/>
<path d="M66.0958 27.2731C64.511 27.5297 63.1676 27.5749 61.0998 27.5749H60.1338V20.5715H65.5976V22.1413H62.0507V23.2884H65.4618V24.7978H62.0507V25.9751C63.5449 25.96 64.6469 25.8845 65.9147 25.6882L66.0958 27.2731ZM61.9451 28.7221H71.5143V33.5521H69.5219V30.3069H61.9451V28.7221ZM71.5143 19.6357V28.1183H69.6277V24.6318H68.5108V28.0278H66.6543V19.8773H68.5108V23.0469H69.6277V19.6357H71.5143Z" fill="#313133"/>
<path d="M85.6565 25.2366V26.7911H73.0986V25.2366H85.6565ZM74.3515 22.2028C74.3515 20.6783 76.2079 19.833 79.3776 19.833C82.5472 19.833 84.4188 20.6783 84.4188 22.2028C84.4188 23.7272 82.5623 24.5724 79.3776 24.5724C76.1929 24.5724 74.3515 23.7423 74.3515 22.2028ZM76.5249 31.938H84.4943V33.4323H74.5477V29.7798H82.1698V29.04H74.5326V27.576H84.1321V31.1531H76.5249V31.938ZM76.4193 22.2028C76.4193 22.8518 77.3701 23.1235 79.3776 23.1235C81.385 23.1235 82.351 22.8518 82.351 22.2028C82.351 21.5538 81.4001 21.297 79.3776 21.297C77.3551 21.297 76.4193 21.584 76.4193 22.2028Z" fill="#313133"/>
<path d="M96.5694 27.0618H89.9131V20.4509H91.8753V22.2017H94.6071V20.4509H96.5694V27.0618ZM93.3998 31.7861H100.796V33.3708H91.4224V28.3447H100.539V29.9296H93.3998V31.7861ZM94.6071 23.7262H91.8753V25.5071H94.6071V23.7262ZM102.29 22.7904V24.4356H100.448V27.7409H98.4561V19.6357H100.448V22.7904H102.29Z" fill="#313133"/>
<path d="M110.319 25.5525C110.319 28.6164 108.764 30.5334 106.666 30.5334C104.568 30.5334 103.014 28.6164 103.014 25.5525C103.014 22.4885 104.553 20.6017 106.666 20.6017C108.779 20.6017 110.319 22.5036 110.319 25.5525ZM108.402 25.5525C108.402 23.4997 107.693 22.398 106.666 22.398C105.64 22.398 104.931 23.4997 104.931 25.5525C104.931 27.6052 105.625 28.7221 106.666 28.7221C107.708 28.7221 108.402 27.6203 108.402 25.5525ZM115.843 26.5185H113.821V33.537H111.828V19.6357H113.821V24.8733H115.843V26.5185Z" fill="#313133"/>
<path d="M123.557 21.0551C123.557 25.2209 121.972 28.7979 117.353 31.1374L116.236 29.613C119.466 27.9527 121.187 25.7491 121.549 22.67H117.006V21.0551H123.557ZM129.202 26.5792H127.254V33.5072H125.262V19.6211H127.254V24.934H129.202V26.5792Z" fill="#313133"/>
<path d="M134.242 23.1073C134.242 25.3563 134.846 27.6655 136.732 28.9183L135.646 30.4578C134.468 29.7334 133.729 28.556 133.291 27.1523C132.808 28.6918 131.993 30.0201 130.74 30.7748L129.548 29.2805C131.585 28.0428 132.325 25.5524 132.325 23.1827V20.8433H134.242V23.1073ZM137.019 19.8773H138.876V32.9332H137.019V25.96H135.268V24.3449H137.019V19.8773ZM141.728 19.6357V33.537H139.842V19.6357H141.728Z" fill="#313133"/>
<path d="M155.826 30.3063V31.9213H143.238V30.3063H146.015V26.9103C144.959 26.2613 144.325 25.2651 144.34 24.0576C144.34 21.7785 146.529 20.3145 149.517 20.3145C152.506 20.3145 154.709 21.7785 154.709 24.0576C154.709 25.2651 154.075 26.2613 153.034 26.9103V30.3063H155.826ZM146.302 24.0576C146.302 25.4311 147.585 26.231 149.517 26.231C151.449 26.231 152.747 25.4311 152.747 24.0576C152.747 22.6841 151.449 21.8841 149.517 21.8841C147.585 21.8841 146.302 22.669 146.302 24.0576ZM147.993 30.3063H151.057V27.6499C150.574 27.7404 150.06 27.7857 149.517 27.7857C148.974 27.7857 148.476 27.7404 147.993 27.6499V30.3063Z" fill="#313133"/>
<path d="M157.441 31.001C157.441 30.1709 158.03 29.5521 158.815 29.5521C159.6 29.5521 160.204 30.1709 160.204 31.001C160.204 31.8312 159.6 32.4499 158.815 32.4499C158.03 32.4499 157.441 31.8161 157.441 31.001ZM157.774 22.8656L157.698 20.7676H159.932L159.857 22.8656L159.539 28.4352H158.091L157.774 22.8656Z" fill="#313133"/>
</svg>
