<svg width="203" height="67" viewBox="0 0 203 67" fill="none" xmlns="http://www.w3.org/2000/svg">
<path d="M196.325 2.71973L181.081 18.0094L169.459 6.11576L163.406 12.1834L181.081 30.1296L202.393 8.77223L196.325 2.71973Z" fill="black"/>
<path d="M181.081 30.2785C181.081 30.2785 181.005 30.2634 180.975 30.2332L163.286 12.287C163.286 12.287 163.225 12.136 163.286 12.0757L169.353 6.00823C169.353 6.00823 169.429 5.9629 169.459 5.9629C169.504 5.9629 169.534 5.97804 169.564 6.00823L181.081 17.781L196.22 2.59708C196.22 2.59708 196.28 2.55176 196.325 2.55176C196.325 2.55176 196.401 2.5669 196.431 2.59708L202.498 8.66451C202.498 8.66451 202.559 8.81547 202.498 8.87584L181.202 30.2332C181.202 30.2332 181.141 30.2785 181.096 30.2785H181.081ZM163.603 12.1814L181.081 29.9163L202.181 8.77027L196.325 2.91399L181.186 18.0979C181.186 18.0979 181.141 18.1433 181.081 18.1433C181.035 18.1433 181.005 18.1281 180.975 18.0979L169.459 6.31002L163.603 12.1663V12.1814Z" fill="black"/>
<path d="M196.325 1.11914L181.081 16.4089L169.459 4.53029L163.406 10.5828L181.081 28.529L202.393 7.17165L196.325 1.11914Z" fill="#EB5EF4"/>
<path d="M42.2009 32.2433H30.9412C31.8619 32.8319 33.2505 33.2394 35.0768 33.4507C36.9182 33.662 39.2878 33.7678 42.1857 33.7678V40.3183C39.1067 40.3183 36.4049 40.2579 34.0805 40.1523C31.7561 40.0315 29.628 39.8052 27.7111 39.458C25.7943 39.1109 19.1531 38.3711 19.9833 38.7334C17.2061 39.4277 14.2175 39.8654 11.0327 40.0465C7.84802 40.2276 4.21054 40.3183 0.150391 40.3183V33.7678C3.06344 33.7678 5.43306 33.662 7.25937 33.4507C9.10078 33.2394 10.4593 32.8319 11.3498 32.2433H0.150391V25.4512H11.5007C11.6366 26.0851 12.0743 26.7341 12.8441 27.4284H14.8212C14.1269 27.0359 13.5685 26.5681 13.1308 26.0097C12.693 25.4663 12.4818 24.9079 12.4818 24.3494L9.88562 22.7041H29.7336V25.4512H42.1857V32.2433H42.2009ZM42.2009 47.7141H28.8129V48.9066H42.2009V55.1551C40.0878 55.8796 37.7785 56.4231 35.2881 56.7702C32.7977 57.1174 30.3071 57.2985 27.8318 57.2985V58.6418C30.3071 58.6418 32.7977 58.4607 35.2881 58.1136C37.7785 57.7664 40.0878 57.2229 42.2009 56.4985V63.7434C39.001 64.6037 35.3484 65.2678 31.2732 65.7508C27.1828 66.2338 22.4737 66.4752 17.1155 66.4752C11.1988 66.4752 6.89708 65.7961 4.19534 64.4226C1.49361 63.049 0.150391 60.9511 0.150391 58.0985V56.5589C1.56918 56.5589 2.86712 56.5286 4.01423 56.4834C5.17643 56.4381 6.2935 56.3628 7.38023 56.2571C8.46697 56.1514 9.58384 56.0307 10.7309 55.8647C11.8781 55.6986 13.1308 55.4872 14.5194 55.2156V53.8722C13.1308 54.1439 11.863 54.3553 10.7309 54.5213C9.58384 54.6873 8.48206 54.8232 7.38023 54.9138C6.2935 55.0194 5.16134 55.0796 4.01423 55.14C2.85203 55.1853 1.56918 55.2156 0.150391 55.2156V48.9215H13.5383V47.7292H0.150391V41.2843H42.2009V47.7292V47.7141Z" fill="black"/>
<path d="M17.116 66.5971C11.1993 66.5971 6.83734 65.9028 4.1356 64.5293C1.40368 63.1407 0.0151082 60.9672 0.0151082 58.0692V56.5296C0.0151082 56.4542 0.0754454 56.3787 0.166006 56.3787C1.5848 56.3787 2.88274 56.3485 4.02985 56.3032C5.17695 56.2579 6.30893 56.1826 7.39567 56.077C8.49749 55.9713 9.61454 55.8505 10.7315 55.6845C11.8333 55.5185 13.0708 55.3222 14.3991 55.0656V54.0241C13.0859 54.2656 11.8635 54.4769 10.7768 54.643C9.64477 54.809 8.51262 54.9448 7.42588 55.0354C6.33915 55.1411 5.20715 55.2166 4.04495 55.2618C2.88276 55.3071 1.5848 55.3372 0.166006 55.3372C0.0905389 55.3372 0.0151082 55.2769 0.0151082 55.1863V48.8924C0.0151082 48.817 0.0754454 48.7414 0.166006 48.7414H13.403V47.8509H0.166006C0.0905389 47.8509 0.0151082 47.7906 0.0151082 47.7V41.255C0.0151082 41.1796 0.0754454 41.1041 0.166006 41.1041H42.2165C42.2919 41.1041 42.3674 41.1645 42.3674 41.255V47.7C42.3674 47.7755 42.307 47.8509 42.2165 47.8509H28.9794V48.7414H42.2165C42.2919 48.7414 42.3674 48.8019 42.3674 48.8924V55.141C42.3674 55.141 42.3222 55.2619 42.2618 55.277C40.1487 56.0014 37.8091 56.5447 35.3186 56.8919C32.8735 57.239 30.4133 57.405 27.9832 57.4201V58.4617C30.3982 58.4617 32.8434 58.2806 35.2735 57.9485C37.7488 57.6014 40.0731 57.0579 42.156 56.3485C42.2013 56.3334 42.2467 56.3485 42.292 56.3636C42.3373 56.3938 42.3523 56.439 42.3523 56.4843V63.7293C42.3523 63.7293 42.3071 63.85 42.2467 63.8651C39.0469 64.7254 35.364 65.4047 31.2888 65.8726C27.2135 66.3556 22.444 66.5971 17.116 66.5971ZM0.301796 56.6805V58.0692C0.301796 60.8464 1.63002 62.9293 4.25629 64.2575C6.91274 65.6159 11.2446 66.2951 17.1009 66.2951C22.4289 66.2951 27.1833 66.0536 31.2435 65.5706C35.2583 65.1027 38.8808 64.4387 42.0505 63.5935V56.6654C39.9827 57.3597 37.7187 57.8881 35.3037 58.2201C32.8133 58.5673 30.2925 58.7483 27.8172 58.7483C27.7417 58.7483 27.6663 58.688 27.6663 58.5975V57.2541C27.6663 57.1786 27.7267 57.1032 27.8172 57.1032C30.2775 57.1032 32.7831 56.9221 35.2584 56.5901C37.7035 56.258 39.9827 55.7297 42.0505 55.0203V49.0282H28.8134C28.738 49.0282 28.6625 48.9679 28.6625 48.8773V47.6849C28.6625 47.6094 28.7229 47.534 28.8134 47.534H42.0505V41.3757H0.301796V47.534H13.5388C13.6143 47.534 13.6897 47.5943 13.6897 47.6849V48.8773C13.6897 48.9528 13.6294 49.0282 13.5388 49.0282H0.301796V55.0354C1.66021 55.0354 2.89782 55.0051 4.01474 54.9599C5.17694 54.9146 6.3091 54.8393 7.38074 54.7336C8.46747 54.628 9.59943 54.5072 10.7163 54.3412C11.8484 54.1751 13.1313 53.9637 14.5048 53.6921C14.5501 53.6921 14.5953 53.6921 14.6255 53.7223C14.6557 53.7525 14.6859 53.7977 14.6859 53.843V55.1863C14.6859 55.1863 14.6405 55.3221 14.5651 55.3372C13.1916 55.5938 11.9088 55.8203 10.7617 55.9863C9.64475 56.1523 8.5126 56.2882 7.41078 56.3787C6.32404 56.4844 5.19205 56.5599 4.02985 56.6052C2.92802 56.6505 1.6753 56.6805 0.301796 56.6805ZM42.2014 40.4701C39.1223 40.4701 36.4055 40.4098 34.0811 40.3041C31.7567 40.1834 29.6134 39.957 27.6965 39.6099C25.9608 39.2929 21.0252 38.7495 20.1196 38.7948C20.1196 38.8401 20.0744 38.8703 20.0291 38.8854C17.2519 39.5797 14.2331 40.0174 11.0484 40.1986C7.87873 40.3797 4.21105 40.4701 0.150898 40.4701C0.0754306 40.4701 0 40.4098 0 40.3192V33.7687C0 33.6933 0.0603371 33.6178 0.150898 33.6178C3.04885 33.6178 5.43355 33.512 7.24477 33.3007C8.75412 33.1196 9.94648 32.8178 10.8068 32.3801H0.150898C0.0754306 32.3801 0 32.3197 0 32.2292V25.4371C0 25.3616 0.0603371 25.2862 0.150898 25.2862H11.5012C11.5012 25.2862 11.637 25.3314 11.6521 25.4069C11.7729 25.9955 12.1954 26.6143 12.9048 27.2784H14.3086C13.7954 26.9313 13.3728 26.5388 13.0257 26.1011C12.6031 25.5577 12.3766 24.9993 12.3464 24.4257L9.81077 22.8108C9.81077 22.8108 9.73525 22.7052 9.75034 22.6448C9.76543 22.5844 9.82576 22.5391 9.88613 22.5391H29.7341C29.8096 22.5391 29.885 22.5994 29.885 22.69V25.2862H42.1863C42.2617 25.2862 42.3372 25.3465 42.3372 25.4371V32.2292C42.3372 32.3046 42.2768 32.3801 42.1863 32.3801H31.5001C32.3755 32.8178 33.583 33.1196 35.0924 33.3007C36.9036 33.512 39.2883 33.6178 42.1863 33.6178C42.2617 33.6178 42.3372 33.6782 42.3372 33.7687V40.3192C42.3372 40.3947 42.2768 40.4701 42.1863 40.4701H42.2014ZM0.301796 33.9196V40.1683C4.30157 40.1683 7.9089 40.0777 11.0333 39.8966C14.1274 39.7155 17.0707 39.2929 19.7876 38.6288C19.8328 38.4778 19.8781 38.3572 23.1987 38.7043C24.9797 38.8854 26.8966 39.1419 27.757 39.2928C29.6587 39.64 31.802 39.8665 34.1113 39.9872C36.3753 40.0929 39.062 40.1532 42.0656 40.1532V33.9045C39.228 33.9045 36.8734 33.7989 35.0773 33.5876C33.2359 33.3763 31.817 32.9536 30.8812 32.3498C30.8209 32.3196 30.8057 32.2442 30.8208 32.1838C30.8359 32.1235 30.8964 32.0783 30.9568 32.0783H42.0656V25.5729H29.7643C29.6889 25.5729 29.6134 25.5125 29.6134 25.422V22.8259H10.4144L12.5879 24.1993C12.5879 24.1993 12.6635 24.2749 12.6635 24.3202C12.6635 24.8484 12.8746 25.3768 13.2822 25.89C13.6897 26.4182 14.2483 26.886 14.9275 27.2633C14.9879 27.2935 15.0179 27.369 15.0028 27.4293C14.9878 27.4897 14.9274 27.5351 14.8671 27.5351H12.8897C12.8897 27.5351 12.8143 27.5351 12.7841 27.4898C12.0446 26.8257 11.5917 26.1615 11.4257 25.5427H0.332013V32.048H11.3955C11.3955 32.048 11.5164 32.0932 11.5315 32.1536C11.5465 32.214 11.5314 32.2894 11.471 32.3196C10.5654 32.9234 9.16172 33.3461 7.32031 33.5574C5.52418 33.7687 3.16959 33.8743 0.332013 33.8743L0.301796 33.9196Z" fill="black"/>
<path d="M45.7793 36.6515C47.1679 36.3798 48.315 35.7007 49.2056 34.5988C50.0961 33.497 50.5489 31.7311 50.5489 29.3161V22.9014H87.8449V46.719H70.2458C68.8572 46.719 67.514 46.6434 66.2311 46.4925C64.9481 46.3416 63.6803 46.07 62.4577 45.6474C61.2351 45.2398 53.5675 45.6021 51.7412 46.0398C49.9148 46.4926 47.9377 46.7038 45.7944 46.7038V36.6366L45.7793 36.6515ZM45.7793 48.0623H87.8298V65.6614H72.5098V59.0655H45.7793V48.0623Z" fill="black"/>
<path d="M87.8283 65.8128H72.5084C72.4329 65.8128 72.3575 65.7524 72.3575 65.6619V59.2169H45.7779C45.7024 59.2169 45.627 59.1566 45.627 59.066V48.0628C45.627 47.9873 45.6873 47.9119 45.7779 47.9119H87.8283C87.9038 47.9119 87.9792 47.9722 87.9792 48.0628V65.6619C87.9792 65.7373 87.9189 65.8128 87.8283 65.8128ZM72.6444 65.511H87.6774V48.1986H45.9287V58.9149H72.5084C72.5838 58.9149 72.6595 58.9755 72.6595 59.066V65.511H72.6444ZM87.8283 46.8704H70.2292C68.8406 46.8704 67.4823 46.795 66.1994 46.6441C64.9014 46.4932 63.6184 46.2063 62.3958 45.7988C61.2034 45.3913 53.5661 45.7535 51.7699 46.2063C49.9436 46.6591 47.9362 46.8855 45.7779 46.8855C45.7024 46.8855 45.627 46.8251 45.627 46.7346V36.6671C45.627 36.6671 45.6722 36.5313 45.7476 36.5162C47.091 36.2596 48.2231 35.5805 49.0834 34.5089C49.9438 33.4372 50.3966 31.6863 50.3966 29.3166V22.9019C50.3966 22.8264 50.4569 22.751 50.5474 22.751H87.8434C87.9189 22.751 87.9943 22.8113 87.9943 22.9019V46.7195C87.9943 46.7949 87.934 46.8704 87.8434 46.8704H87.8283ZM59.7696 45.3308C61.0525 45.3308 62.0787 45.3912 62.4863 45.527C63.6938 45.9345 64.9467 46.2214 66.2296 46.3572C67.5126 46.5082 68.8557 46.5837 70.2292 46.5837H87.6925V23.0679H50.6983V29.3317C50.6983 31.7618 50.2304 33.5731 49.3248 34.7051C48.4343 35.8069 47.3023 36.5012 45.9287 36.788V46.5837C47.9966 46.5837 49.9437 46.3572 51.6946 45.9195C52.9775 45.6025 56.9773 45.3308 59.7696 45.3308Z" fill="black"/>
<path d="M42.2009 30.6459H30.9412C31.8619 31.2346 33.2505 31.6422 35.0768 31.8535C36.9182 32.0648 39.2878 32.1704 42.1857 32.1704V38.7211C39.1067 38.7211 36.4049 38.6605 34.0805 38.5549C31.7561 38.4341 29.628 38.2078 27.7111 37.8606C25.7943 37.5135 19.1531 36.7739 19.9833 37.1362C17.2061 37.8305 14.2175 38.2682 11.0327 38.4493C7.84802 38.6304 4.21054 38.7211 0.150391 38.7211V32.1704C3.06344 32.1704 5.43306 32.0648 7.25937 31.8535C9.10078 31.6422 10.4593 31.2346 11.3498 30.6459H0.150391V23.8538H11.5007C11.6366 24.4878 12.0743 25.1369 12.8441 25.8312H14.8212C14.1269 25.4387 13.5685 24.9708 13.1308 24.4123C12.693 23.8689 12.4818 23.3105 12.4818 22.752L9.88562 21.0918H29.7336V23.8387H42.1857V30.6308L42.2009 30.6459ZM42.2009 46.1167H28.8129V47.3092H42.2009V53.5579C40.0878 54.2824 37.7785 54.8257 35.2881 55.1728C32.7977 55.52 30.3071 55.7013 27.8318 55.7013V57.0444C30.3071 57.0444 32.7977 56.8784 35.2881 56.5162C37.7785 56.169 40.0878 55.6258 42.2009 54.9013V62.146C39.001 63.0064 35.3484 63.6706 31.2732 64.1536C27.1828 64.6366 22.4737 64.878 17.1155 64.878C11.1988 64.878 6.89708 64.1989 4.19534 62.8254C1.49361 61.4518 0.150391 59.3538 0.150391 56.5011V54.9615C1.56918 54.9615 2.86712 54.9314 4.01423 54.8862C5.17643 54.8409 6.2935 54.7654 7.38023 54.6597C8.46697 54.5541 9.58384 54.4333 10.7309 54.2673C11.8781 54.1012 13.1308 53.89 14.5194 53.6184V52.275C13.1308 52.5467 11.863 52.7579 10.7309 52.9239C9.58384 53.09 8.48206 53.2258 7.38023 53.3164C6.2935 53.422 5.16134 53.4824 4.01423 53.5428C2.85203 53.5881 1.56918 53.6184 0.150391 53.6184V47.3243H13.5383V46.1319H0.150391V39.6869H42.2009V46.1319V46.1167Z" fill="white"/>
<path d="M17.116 65.011C11.1993 65.011 6.83734 64.3167 4.1356 62.9432C1.40368 61.5546 0.0151082 59.381 0.0151082 56.4831V54.9437C0.0151082 54.8682 0.0754454 54.7926 0.166006 54.7926C1.5697 54.7926 2.86765 54.7626 4.02985 54.7173C5.19205 54.672 6.32403 54.5965 7.39567 54.4908C8.49749 54.3852 9.61454 54.2644 10.7315 54.0984C11.8333 53.9324 13.0708 53.7361 14.3991 53.4795V52.4381C13.0859 52.6796 11.8635 52.891 10.7768 53.057C9.64477 53.2231 8.51262 53.3587 7.42588 53.4493C6.35424 53.5549 5.20715 53.6153 4.04495 53.6757C2.88276 53.721 1.5848 53.7513 0.166006 53.7513C0.0905389 53.7513 0.0151082 53.6909 0.0151082 53.6004V47.3063C0.0151082 47.2308 0.0754454 47.1554 0.166006 47.1554H13.403V46.2649H0.166006C0.0905389 46.2649 0.0151082 46.2044 0.0151082 46.1139V39.6689C0.0151082 39.5934 0.0754454 39.518 0.166006 39.518H42.2165C42.2919 39.518 42.3674 39.5784 42.3674 39.6689V46.1139C42.3674 46.1893 42.307 46.2649 42.2165 46.2649H28.9794V47.1554H42.2165C42.2919 47.1554 42.3674 47.2158 42.3674 47.3063V53.555C42.3674 53.555 42.3222 53.6757 42.2618 53.6908C40.1487 54.4153 37.8091 54.9588 35.3186 55.3059C32.8735 55.6531 30.4133 55.8191 27.9832 55.8342V56.8755C30.3982 56.8755 32.8434 56.6945 35.2735 56.3624C37.7488 56.0153 40.0731 55.4718 42.156 54.7624C42.2013 54.7624 42.2467 54.7624 42.292 54.7775C42.3373 54.8077 42.3523 54.8531 42.3523 54.8984V62.1432C42.3523 62.1432 42.3071 62.264 42.2467 62.2791C39.0469 63.1395 35.364 63.8186 31.2888 64.2865C27.2135 64.7695 22.444 65.011 17.116 65.011ZM0.301796 55.0946V56.4831C0.301796 59.2452 1.63002 61.3283 4.25629 62.6716C6.91274 64.03 11.2446 64.7092 17.1009 64.7092C22.4138 64.7092 27.1833 64.4677 31.2435 63.9847C35.2583 63.5168 38.8808 62.8526 42.0505 62.0074V55.0795C39.9827 55.7738 37.7187 56.3021 35.3037 56.6342C32.8133 56.9813 30.2925 57.1624 27.8172 57.1624C27.7417 57.1624 27.6663 57.1021 27.6663 57.0115V55.6682C27.6663 55.5927 27.7267 55.5171 27.8172 55.5171C30.2775 55.5171 32.7831 55.336 35.2584 55.004C37.6884 54.6719 39.9827 54.1438 42.0505 53.4344V47.4421H28.8134C28.738 47.4421 28.6625 47.3818 28.6625 47.2912V46.0988C28.6625 46.0233 28.7229 45.9479 28.8134 45.9479H42.0505V39.7898H0.301796V45.9479H13.5388C13.6143 45.9479 13.6897 46.0082 13.6897 46.0988V47.2912C13.6897 47.3667 13.6294 47.4421 13.5388 47.4421H0.301796V53.4493C1.64512 53.4493 2.89782 53.4192 4.01474 53.3739C5.17694 53.3286 6.3091 53.2531 7.38074 53.1475C8.46747 53.0418 9.59943 52.9211 10.7163 52.755C11.8484 52.589 13.1313 52.3778 14.5048 52.1061C14.5501 52.1061 14.5953 52.106 14.6255 52.1362C14.6557 52.1663 14.6859 52.2117 14.6859 52.257V53.6004C14.6859 53.6004 14.6405 53.7362 14.5651 53.7513C13.1765 54.0079 11.9088 54.2342 10.7617 54.4002C9.64475 54.5662 8.5126 54.7021 7.41078 54.7926C6.33914 54.8983 5.20714 54.9738 4.02985 55.0191C2.91293 55.0643 1.66021 55.0946 0.301796 55.0946ZM42.2014 38.8842C39.1223 38.8842 36.4055 38.8239 34.0811 38.7182C31.7567 38.5975 29.5983 38.3709 27.6965 38.0238C25.9608 37.7068 21.0403 37.1636 20.1196 37.2089C20.1196 37.2541 20.0744 37.2842 20.0291 37.2993C17.2519 37.9936 14.2331 38.4313 11.0484 38.6124C7.87873 38.7936 4.21105 38.8842 0.150898 38.8842C0.0754306 38.8842 0 38.8237 0 38.7331V32.1826C0 32.1071 0.0603371 32.0317 0.150898 32.0317C3.04885 32.0317 5.43355 31.9261 7.24477 31.7148C8.75412 31.5337 9.94648 31.2318 10.8068 30.7941H0.150898C0.0754306 30.7941 0 30.7336 0 30.643V23.851C0 23.7755 0.0603371 23.7001 0.150898 23.7001H11.5012C11.5012 23.7001 11.637 23.7453 11.6521 23.8207C11.7729 24.4094 12.1954 25.0284 12.9048 25.6925H14.3086C13.7954 25.3454 13.3728 24.9529 13.0257 24.5152C12.6031 23.9718 12.3766 23.4134 12.3464 22.8398L9.81077 21.2247C9.81077 21.2247 9.73525 21.1191 9.75034 21.0587C9.76543 20.9983 9.82576 20.9531 9.88613 20.9531H29.7341C29.8096 20.9531 29.885 21.0135 29.885 21.104V23.7001H42.1863C42.2617 23.7001 42.3372 23.7604 42.3372 23.851V30.643C42.3372 30.7185 42.2768 30.7941 42.1863 30.7941H31.5001C32.3755 31.2318 33.583 31.5337 35.0924 31.7148C36.9036 31.9261 39.3034 32.0317 42.1863 32.0317C42.2617 32.0317 42.3372 32.092 42.3372 32.1826V38.7331C42.3372 38.8086 42.2768 38.8842 42.1863 38.8842H42.2014ZM0.301796 32.3335V38.5822C4.28648 38.5822 7.8938 38.4918 11.0333 38.3106C14.1274 38.1295 17.0707 37.7068 19.7876 37.0427C19.8328 36.8917 19.8781 36.7711 23.1987 37.1182C24.9797 37.2993 26.8966 37.5559 27.757 37.7069C29.6587 38.054 31.802 38.2804 34.1113 38.4011C36.3753 38.5219 39.062 38.5671 42.0656 38.5671V32.3184C39.228 32.3184 36.8734 32.2128 35.0773 32.0015C33.2359 31.7902 31.817 31.3676 30.8812 30.7639C30.8209 30.7337 30.8057 30.6583 30.8208 30.5979C30.8359 30.5375 30.8964 30.4921 30.9568 30.4921H42.0656V23.9869H29.7643C29.6889 23.9869 29.6134 23.9264 29.6134 23.8359V21.2398H10.4144L12.5879 22.6285C12.5879 22.6285 12.6635 22.7039 12.6635 22.7492C12.6635 23.2774 12.8746 23.8058 13.2822 24.3189C13.6897 24.8472 14.2483 25.3152 14.9275 25.6925C14.9879 25.7227 15.0179 25.7981 15.0028 25.8585C14.9878 25.9189 14.9274 25.9641 14.8671 25.9641H12.8897C12.8897 25.9641 12.8143 25.964 12.7841 25.9188C12.0446 25.2546 11.5917 24.5907 11.4257 23.9718H0.332013V30.477H11.3955C11.3955 30.477 11.5164 30.5224 11.5315 30.5828C11.5465 30.6432 11.5314 30.7186 11.471 30.7488C10.5654 31.3525 9.16172 31.7751 7.32031 31.9864C5.52418 32.1977 3.16959 32.3035 0.332013 32.3035L0.301796 32.3335Z" fill="black"/>
<path d="M45.7793 35.0656C47.1679 34.7939 48.315 34.1147 49.2056 33.0129C50.0961 31.9111 50.5489 30.1451 50.5489 27.7302V21.3154H87.8449V45.133H70.2458C68.8572 45.133 67.514 45.0575 66.2311 44.9066C64.9481 44.7556 63.6803 44.4839 62.4577 44.0612C61.2351 43.6537 53.5675 44.016 51.7412 44.4537C49.9148 44.9065 47.9377 45.1179 45.7944 45.1179V35.0505L45.7793 35.0656ZM45.7793 46.4611H87.8298V64.0601H72.5098V57.4643H45.7793V46.4611Z" fill="white"/>
<path d="M87.8283 64.212H72.5084C72.4329 64.212 72.3575 64.1517 72.3575 64.0611V57.6161H45.7779C45.7024 57.6161 45.627 57.5558 45.627 57.4652V46.462C45.627 46.3866 45.6873 46.3111 45.7779 46.3111H87.8283C87.9038 46.3111 87.9792 46.3715 87.9792 46.462V64.0611C87.9792 64.1366 87.9189 64.212 87.8283 64.212ZM72.6444 63.9253H87.6774V46.6131H45.9287V57.3295H72.5084C72.5838 57.3295 72.6595 57.3898 72.6595 57.4804V63.9253H72.6444ZM87.8283 45.2698H70.2292C68.8406 45.2698 67.4823 45.1943 66.1994 45.0433C64.9014 44.8924 63.6184 44.6055 62.3958 44.198C61.2034 43.7905 53.5661 44.1528 51.7699 44.6056C49.9436 45.0584 47.9362 45.2849 45.7779 45.2849C45.7024 45.2849 45.627 45.2245 45.627 45.134V35.0666C45.627 35.0666 45.6722 34.9307 45.7476 34.9157C47.091 34.6591 48.2231 33.9797 49.0834 32.9081C49.9438 31.8365 50.3966 30.0857 50.3966 27.716V21.3013C50.3966 21.2258 50.4569 21.1504 50.5474 21.1504H87.8434C87.9189 21.1504 87.9943 21.2107 87.9943 21.3013V45.1189C87.9943 45.1943 87.934 45.2698 87.8434 45.2698H87.8283ZM59.7696 43.7302C61.0525 43.7302 62.0787 43.7906 62.4863 43.9264C63.6938 44.334 64.9467 44.6208 66.2296 44.7566C67.5126 44.9076 68.8557 44.9829 70.2292 44.9829H87.6925V21.4673H50.6983V27.7311C50.6983 30.1612 50.2304 31.9723 49.3248 33.1043C48.4343 34.2061 47.3023 34.9005 45.9287 35.1872V44.9829C47.9966 44.9829 49.9437 44.7566 51.6946 44.3189C52.9775 44.0019 56.9773 43.7302 59.7696 43.7302Z" fill="black"/>
<path d="M42.2013 26.2674H30.9416C31.8623 26.856 33.2509 27.2634 35.0772 27.4748C36.9186 27.6861 39.2883 27.7917 42.1862 27.7917V34.3424C39.1071 34.3424 36.4054 34.282 34.081 34.1764C31.7566 34.0556 29.6285 33.8291 27.7116 33.4819C25.7947 33.1348 23.9835 32.6519 22.278 32.0481C20.5724 31.4444 18.7913 30.6142 16.9499 29.5879L15.7122 30.4783C16.2706 30.901 16.9197 31.3085 17.6442 31.6708C18.3687 32.033 19.1536 32.3952 19.9686 32.7575C17.1914 33.4518 14.2028 33.8895 11.0181 34.0706C7.83337 34.2517 4.19589 34.3424 0.135742 34.3424V27.7917C3.04879 27.7917 5.41841 27.6861 7.24472 27.4748C9.08613 27.2634 10.4447 26.856 11.3352 26.2674H0.135742V19.4753H11.4861C11.6219 20.1092 12.0597 20.7582 12.8294 21.4525H14.8066C14.1123 21.06 13.5538 20.5771 13.1161 20.0338C12.6784 19.4904 12.4672 18.9318 12.4672 18.3733V17.1357H29.719V19.4602H42.1711V26.2523L42.2013 26.2674ZM42.2013 41.7382H28.8134V42.9305H42.2013V49.1792C40.0882 49.9037 37.779 50.4472 35.2886 50.7943C32.7981 51.1415 30.3076 51.3226 27.8323 51.3226V52.6659C30.3076 52.6659 32.7981 52.4846 35.2886 52.1375C37.779 51.7903 40.0882 51.247 42.2013 50.5225V57.7675C39.0015 58.6278 35.3489 59.2919 31.2736 59.7749C27.1833 60.2579 22.4741 60.4993 17.1159 60.4993C11.1993 60.4993 6.89754 59.8201 4.1958 58.4466C1.49407 57.0731 0.15085 54.975 0.15085 52.1224V50.583C1.56964 50.583 2.86758 50.5527 4.01469 50.5074C5.17689 50.4622 6.29396 50.3867 7.38069 50.281C8.46743 50.1753 9.5843 50.0546 10.7314 49.8886C11.8785 49.7225 13.1313 49.5113 14.5199 49.2396V47.8963C13.1313 48.168 11.8634 48.3792 10.7314 48.5452C9.5843 48.7112 8.48252 48.8471 7.38069 48.9377C6.29396 49.0433 5.1618 49.1037 4.01469 49.1641C2.85249 49.2094 1.56964 49.2396 0.15085 49.2396V42.9456H13.5388V41.7531H0.15085V35.3084H42.2013V41.7531V41.7382Z" fill="#88FA99"/>
<path d="M17.1165 60.6352C11.1998 60.6352 6.83786 59.9409 4.13612 58.5674C1.4042 57.1788 0.015625 55.0054 0.015625 52.1075V50.5679C0.015625 50.4925 0.0759621 50.417 0.166523 50.417C1.57022 50.417 2.86816 50.3868 4.03036 50.3415C5.19256 50.2962 6.32454 50.2207 7.39618 50.115C8.48291 50.0094 9.61505 49.8886 10.732 49.7226C11.8489 49.5566 13.0714 49.3452 14.3996 49.1037V48.0624C13.0865 48.3038 11.864 48.5152 10.7773 48.6812C9.66038 48.8473 8.52822 48.9831 7.4264 49.0737C6.33967 49.1793 5.20767 49.2547 4.04547 49.2999C2.89837 49.3452 1.58531 49.3755 0.166523 49.3755C0.0910556 49.3755 0.015625 49.3151 0.015625 49.2246V42.9305C0.015625 42.8551 0.0759621 42.7796 0.166523 42.7796H13.4035V41.8892H0.166523C0.0910556 41.8892 0.015625 41.8288 0.015625 41.7383V35.2933C0.015625 35.2178 0.0759621 35.1422 0.166523 35.1422H42.217C42.2924 35.1422 42.3679 35.2027 42.3679 35.2933V41.7383C42.3679 41.8137 42.3075 41.8892 42.217 41.8892H28.98V42.7796H42.217C42.2924 42.7796 42.3679 42.84 42.3679 42.9305V49.1793C42.3679 49.1793 42.3227 49.2999 42.2623 49.315C40.1492 50.0395 37.8096 50.583 35.3192 50.9302C32.874 51.2773 30.4138 51.4433 27.9837 51.4584V52.4998C30.3987 52.4998 32.844 52.3187 35.274 51.9866C37.7493 51.6395 40.0586 51.0962 42.1566 50.3868C42.2018 50.3717 42.2472 50.3868 42.2925 50.4019C42.3378 50.4321 42.3528 50.4773 42.3528 50.5226V57.7676C42.3528 57.7676 42.3076 57.8882 42.2472 57.9033C39.0474 58.7637 35.3646 59.4428 31.2893 59.9107C27.2141 60.3937 22.4445 60.6352 17.1165 60.6352ZM0.302313 50.7037V52.0924C0.302313 54.8545 1.63053 56.9524 4.2568 58.2807C6.91326 59.6391 11.2451 60.3183 17.1014 60.3183C22.4294 60.3183 27.1838 60.0768 31.244 59.5938C35.2589 59.1259 38.8813 58.4617 42.051 57.6165V50.6886C39.9832 51.3829 37.7192 51.9112 35.3042 52.2433C32.8138 52.5904 30.2931 52.7715 27.8177 52.7715C27.7423 52.7715 27.6668 52.7112 27.6668 52.6206V51.2773C27.6668 51.2018 27.7272 51.1264 27.8177 51.1264C30.278 51.1264 32.7836 50.9451 35.2589 50.6131C37.689 50.281 39.9832 49.7529 42.051 49.0435V43.0514H28.814C28.7385 43.0514 28.6631 42.9909 28.6631 42.9003V41.708C28.6631 41.6326 28.7234 41.557 28.814 41.557H42.051V35.3989H0.302313V41.557H13.5393C13.6148 41.557 13.6902 41.6175 13.6902 41.708V42.9003C13.6902 42.9758 13.6299 43.0514 13.5393 43.0514H0.302313V49.0586C1.66073 49.0586 2.91343 49.0283 4.01525 48.983C5.17745 48.9378 6.30962 48.8622 7.38126 48.7566C8.48308 48.6509 9.59994 48.5302 10.7169 48.3641C11.8489 48.1981 13.1318 47.9869 14.5053 47.7152C14.5506 47.7152 14.5958 47.7153 14.626 47.7454C14.6562 47.7756 14.6865 47.8208 14.6865 47.8661V49.2095C14.6865 49.2095 14.6411 49.3453 14.5656 49.3604C13.1921 49.617 11.9244 49.8434 10.7622 50.0095C9.63018 50.1755 8.49802 50.3114 7.41129 50.4019C6.32456 50.5076 5.19256 50.5829 4.03036 50.6282C2.91344 50.6735 1.66073 50.7037 0.302313 50.7037ZM42.2019 34.4933C39.1379 34.4933 36.406 34.433 34.0816 34.3273C31.7572 34.2066 29.5988 33.98 27.697 33.6329C25.7802 33.2857 23.9388 32.8028 22.2483 32.184C20.5729 31.5802 18.7919 30.7652 16.9807 29.769L15.9845 30.4935C16.4977 30.8708 17.0864 31.2332 17.7354 31.5502C18.4448 31.9124 19.2295 32.2746 20.0596 32.6368C20.12 32.667 20.1503 32.7274 20.1503 32.7877C20.1503 32.8481 20.1049 32.9084 20.0445 32.9235C17.2673 33.6178 14.2487 34.0555 11.064 34.2367C7.89435 34.4178 4.22667 34.5084 0.166523 34.5084C0.0910556 34.5084 0.015625 34.4481 0.015625 34.3575V27.8068C0.015625 27.7313 0.0759621 27.6559 0.166523 27.6559C3.06447 27.6559 5.44917 27.5503 7.26039 27.339C8.76974 27.1579 9.96211 26.856 10.8224 26.4183H0.166523C0.0910556 26.4183 0.015625 26.358 0.015625 26.2674V19.4754C0.015625 19.3999 0.0759621 19.3243 0.166523 19.3243H11.5169C11.5169 19.3243 11.6527 19.3697 11.6678 19.4451C11.7885 20.0338 12.2111 20.6526 12.9205 21.3167H14.3242C13.8111 20.9696 13.3885 20.5771 13.0413 20.1394C12.5885 19.5658 12.362 18.9771 12.362 18.3885V17.1509C12.362 17.0754 12.4223 17 12.5129 17H29.7648C29.8403 17 29.9157 17.0603 29.9157 17.1509V19.3394H42.217C42.2924 19.3394 42.3679 19.3997 42.3679 19.4903V26.2824C42.3679 26.3578 42.3075 26.4334 42.217 26.4334H31.5309C32.4063 26.8711 33.6138 27.173 35.1231 27.3541C36.9343 27.5654 39.3341 27.671 42.217 27.671C42.2924 27.671 42.3679 27.7314 42.3679 27.8219V34.3726C42.3679 34.4481 42.3075 34.5235 42.217 34.5235L42.2019 34.4933ZM0.302313 27.9579V34.2064C4.287 34.2064 7.89432 34.116 11.0338 33.9349C14.0374 33.7688 16.8901 33.3612 19.5314 32.7273C18.8522 32.4254 18.188 32.1085 17.5843 31.8066C16.8447 31.4444 16.1958 31.037 15.6222 30.5993C15.5921 30.5691 15.5618 30.5237 15.5618 30.4784C15.5618 30.4331 15.5921 30.3879 15.6222 30.3577L16.8598 29.4672C16.8598 29.4672 16.9656 29.4371 17.0109 29.4672C18.8523 30.4785 20.6332 31.3086 22.3237 31.9124C24.0141 32.5161 25.8255 32.999 27.7273 33.3462C29.629 33.6933 31.7723 33.9197 34.0816 34.0404C36.3607 34.1461 39.0323 34.2064 42.0359 34.2064V27.9579C39.1983 27.9579 36.8437 27.8521 35.0476 27.6408C33.2062 27.4295 31.7873 27.007 30.8515 26.4032C30.7912 26.373 30.776 26.2976 30.7911 26.2372C30.8062 26.1768 30.8667 26.1315 30.9271 26.1315H42.0359V19.6263H29.7346C29.6592 19.6263 29.5837 19.5659 29.5837 19.4754V17.2867H12.6187V18.3734C12.6187 18.9016 12.83 19.43 13.2375 19.9432C13.6451 20.4714 14.2035 20.9394 14.8827 21.3167C14.9431 21.3469 14.9731 21.4224 14.958 21.4827C14.9429 21.5431 14.8826 21.5883 14.8222 21.5883H12.8451C12.8451 21.5883 12.7695 21.5884 12.7393 21.5432C11.9998 20.879 11.5469 20.2149 11.3809 19.596H0.287205V26.1012H11.3509C11.3509 26.1012 11.4716 26.1466 11.4866 26.207C11.5017 26.2674 11.4866 26.3428 11.4262 26.373C10.5206 26.9767 9.11691 27.3993 7.2755 27.6106C5.47937 27.8219 3.12478 27.9277 0.287205 27.9277L0.302313 27.9579Z" fill="black"/>
<path d="M45.7793 30.675C47.1679 30.4033 48.315 29.7241 49.2056 28.6223C50.0961 27.5205 50.5489 25.7545 50.5489 23.3396V18.9775H65.4311V23.3396C65.4311 25.0904 65.6574 26.4942 66.0951 27.5356C66.5479 28.5771 67.197 29.3618 68.0573 29.8901V21.4076H72.5249V18.9775H87.8449V40.7424H72.5249V32.7579C72.1325 32.7579 71.74 32.7579 71.3627 32.7881C70.9854 32.8032 70.608 32.8183 70.2458 32.8183V40.7575C68.8572 40.7575 67.514 40.682 66.2311 40.5311C64.9481 40.3802 63.6803 40.1084 62.4577 39.6858C61.2351 39.2782 60.0427 38.7047 58.8805 37.9802C57.7183 37.2557 56.5863 36.2899 55.4543 35.0975L54.4127 35.9879C54.775 36.3804 55.1675 36.7577 55.6052 37.1351C56.0278 37.4973 56.4958 37.8595 56.9938 38.2217C55.3034 39.0217 53.5524 39.6405 51.7412 40.0782C49.9148 40.531 47.9377 40.7424 45.7944 40.7424V30.675H45.7793ZM45.7793 42.0858H87.8298V59.6847H72.5098V53.0888H45.7793V42.0858Z" fill="#88FA99"/>
<path d="M87.8292 59.8368H72.5093C72.4338 59.8368 72.3584 59.7762 72.3584 59.6857V53.2409H45.7788C45.7033 53.2409 45.6279 53.1804 45.6279 53.0898V42.0868C45.6279 42.0113 45.6882 41.9357 45.7788 41.9357H87.8292C87.9047 41.9357 87.9801 41.9962 87.9801 42.0868V59.6857C87.9801 59.7611 87.9198 59.8368 87.8292 59.8368ZM72.6453 59.5348H87.6783V42.2226H45.9297V52.9389H72.5093C72.5848 52.9389 72.6604 52.9993 72.6604 53.0898V59.5348H72.6453ZM87.8292 40.8944H72.5093C72.4338 40.8944 72.3584 40.834 72.3584 40.7435V32.9098C72.0263 32.9098 71.6793 32.9099 71.3472 32.94C71.0303 32.94 70.6982 32.9552 70.3661 32.9703V40.7586C70.3661 40.834 70.3058 40.9095 70.2152 40.9095C68.8266 40.9095 67.4682 40.834 66.1852 40.683C64.8872 40.5321 63.6042 40.2454 62.3816 39.8379C61.159 39.4304 59.9364 38.8417 58.7743 38.1172C57.6422 37.4078 56.5103 36.472 55.4235 35.3249L54.6084 36.0192C54.9405 36.3663 55.3029 36.7134 55.6802 37.0303C56.1028 37.3926 56.5706 37.755 57.0536 38.1172C57.0988 38.1474 57.114 38.1926 57.114 38.253C57.114 38.2983 57.0837 38.3435 57.0234 38.3737C55.3329 39.1736 53.5669 39.7924 51.7406 40.2452C49.9143 40.6981 47.9069 40.9246 45.7486 40.9246C45.6731 40.9246 45.5977 40.8642 45.5977 40.7737V30.7062C45.5977 30.7062 45.6429 30.5704 45.7183 30.5553C47.0617 30.2988 48.1938 29.6194 49.0541 28.5478C49.9145 27.4762 50.3673 25.7254 50.3673 23.3557V18.9937C50.3673 18.9182 50.4276 18.8428 50.5182 18.8428H65.4003C65.4758 18.8428 65.5512 18.9031 65.5512 18.9937V23.3557C65.5512 25.0764 65.7777 26.465 66.2154 27.4913C66.6079 28.412 67.1663 29.1215 67.8908 29.6347V21.4237C67.8908 21.3482 67.9511 21.2728 68.0417 21.2728H72.3584V18.9937C72.3584 18.9182 72.4187 18.8428 72.5093 18.8428H87.8292C87.9047 18.8428 87.9801 18.9031 87.9801 18.9937V40.7586C87.9801 40.834 87.9198 40.9095 87.8292 40.9095V40.8944ZM72.6453 40.5926H87.6783V19.1144H72.6453V21.3935C72.6453 21.469 72.5847 21.5446 72.4942 21.5446H68.1775V29.876C68.1775 29.876 68.1474 29.9818 68.1021 30.012C68.0568 30.0422 67.9965 30.0422 67.9512 30.012C67.0758 29.4686 66.3965 28.6536 65.9286 27.582C65.4757 26.5254 65.2494 25.0915 65.2494 23.3406V19.1295H50.669V23.3406C50.669 25.7707 50.2011 27.582 49.2955 28.714C48.405 29.8158 47.273 30.5101 45.8995 30.7969V40.5926C47.9673 40.5926 49.9144 40.3661 51.6653 39.9283C53.3859 39.5057 55.0612 38.917 56.6762 38.1774C56.2536 37.8605 55.8462 37.5435 55.484 37.2265C55.0463 36.8643 54.6538 36.472 54.2764 36.0796C54.2462 36.0494 54.2311 36.004 54.2311 35.9739C54.2311 35.9286 54.2462 35.8985 54.2764 35.8683L55.3178 34.9776C55.3178 34.9776 55.4687 34.9324 55.514 34.9776C56.6309 36.1549 57.7629 37.1209 58.91 37.8303C60.0571 38.5548 61.2497 39.1133 62.4421 39.5208C63.6495 39.9283 64.9023 40.2152 66.1852 40.351C67.4229 40.4868 68.7057 40.5624 70.0339 40.5774V32.7892C70.0339 32.7137 70.0945 32.6383 70.185 32.6383C70.5624 32.6383 70.9246 32.6382 71.3019 32.608C71.6944 32.5929 72.0868 32.5778 72.4793 32.5778C72.5547 32.5778 72.6302 32.6382 72.6302 32.7287V40.5623L72.6453 40.5926Z" fill="black"/>
<path d="M127.117 23.4597H114.181L113.261 26.7199H112.732V23.3994H97.9559V25.6332C97.9559 26.3577 100.371 27.1425 100.914 27.9877C101.458 28.8329 102.273 29.3613 103.375 29.6028L102.68 30.448C102.318 30.4781 101.941 30.3726 101.533 30.1311C101.141 29.8896 100.778 29.5575 100.461 29.165C100.144 28.7726 99.8729 28.3501 99.6163 27.9275C99.3748 27.5048 99.2087 27.0973 99.1483 26.735H96.5674V37.7985H99.8879V46.4772C99.8879 48.9828 99.5709 50.8545 98.9219 52.062C98.2729 53.2694 97.4881 53.8731 96.5674 53.8731V66.2197C98.288 66.0536 99.9785 65.7518 101.624 65.299C103.269 64.8462 105.518 63.9254 106.71 63.1707C106.544 63.0349 107.465 63.8197 108.703 64.4083C109.654 64.8611 110.453 65.0574 111.54 65.4197C112.355 65.6913 113.246 65.8573 114.181 65.9328V65.963H139.116V23.4748H127.117V23.4597Z" fill="black"/>
<path d="M96.5689 66.3242C96.5689 66.3242 96.4933 66.3241 96.4631 66.2789C96.4329 66.2487 96.418 66.2186 96.418 66.1733V53.8267C96.418 53.7513 96.4783 53.6758 96.5689 53.6758C97.4292 53.6758 98.1838 53.0871 98.7876 51.94C99.4215 50.7627 99.7385 48.9064 99.7385 46.4311V37.9032H96.5689C96.4934 37.9032 96.418 37.8429 96.418 37.7523V26.6887C96.418 26.6132 96.4783 26.5378 96.5689 26.5378H98.6216C98.1386 26.2208 97.8065 25.934 97.8065 25.5869V23.353C97.8065 23.2776 97.8668 23.2021 97.9574 23.2021H112.734C112.809 23.2021 112.885 23.2625 112.885 23.353V26.5226H113.157L114.047 23.3682C114.047 23.3682 114.122 23.2624 114.183 23.2624H139.117C139.193 23.2624 139.268 23.3229 139.268 23.4135V65.9015C139.268 65.977 139.208 66.0526 139.117 66.0526H114.183C114.183 66.0526 114.107 66.0375 114.077 66.0073C113.157 65.9318 112.296 65.7658 111.496 65.4942C111.194 65.3885 110.923 65.313 110.666 65.2224C109.957 64.996 109.338 64.8149 108.644 64.4677C108.07 64.1809 107.089 63.5922 106.712 63.2753C105.534 64.0149 103.346 64.9205 101.67 65.3733C100.025 65.811 98.3046 66.1279 96.584 66.294L96.5689 66.3242ZM96.7198 53.9778V66.0224C98.365 65.8564 100.01 65.5545 101.595 65.1319C103.255 64.6791 105.414 63.7884 106.576 63.0639C106.576 63.0338 106.621 63.0037 106.651 62.9886C106.696 62.9584 106.787 62.9886 106.832 63.0188C106.983 63.1395 107.768 63.7432 108.779 64.2413C109.459 64.5733 110.062 64.7544 110.757 64.9808C111.028 65.0563 111.3 65.147 111.602 65.2526C112.402 65.5243 113.277 65.6903 114.198 65.7506C114.228 65.7506 114.258 65.7507 114.274 65.7808H138.966V23.5946H114.304L113.413 26.7491C113.413 26.7491 113.338 26.8547 113.277 26.8547H112.749C112.674 26.8547 112.598 26.7943 112.598 26.7038V23.5342H98.1084V25.6171C98.1084 25.9189 98.8328 26.3415 99.4667 26.7189C100.101 27.0962 100.765 27.4736 101.036 27.8962C101.565 28.6962 102.35 29.2245 103.391 29.4509C103.436 29.4509 103.482 29.4961 103.497 29.5413C103.512 29.5866 103.497 29.6469 103.467 29.6771L102.772 30.5225C102.772 30.5225 102.712 30.5678 102.667 30.5829C102.274 30.6282 101.852 30.5073 101.429 30.2356C101.021 29.979 100.644 29.6471 100.327 29.2395C100.01 28.8471 99.7233 28.4244 99.4667 27.9867C99.2403 27.5942 99.0895 27.2169 98.9989 26.8698H96.6895V37.6314H99.8591C99.9346 37.6314 100.01 37.6918 100.01 37.7823V46.4611C100.01 48.9817 99.6781 50.8837 99.0291 52.1062C98.3952 53.2986 97.6103 53.9325 96.6895 53.9929L96.7198 53.9778ZM99.3762 27.0057C99.4517 27.2623 99.5875 27.5339 99.7536 27.8207C99.9951 28.2433 100.282 28.6509 100.584 29.0433C100.886 29.4207 101.233 29.7376 101.61 29.9791C101.957 30.1904 102.289 30.296 102.606 30.2809L103.104 29.6771C102.093 29.4205 101.323 28.8622 100.795 28.0622C100.569 27.7151 99.98 27.368 99.3913 27.0208L99.3762 27.0057Z" fill="black"/>
<path d="M184.745 52.4533H167.493V50.8684H142.694V39.6088H167.493V36.7258H142.694V25.2246H184.745V52.4533ZM184.745 65.9317H142.694V53.9325H184.745V65.9317Z" fill="black"/>
<path d="M184.745 66.0836H142.695C142.619 66.0836 142.544 66.0233 142.544 65.9327V53.9334C142.544 53.858 142.604 53.7825 142.695 53.7825H184.745C184.821 53.7825 184.896 53.8429 184.896 53.9334V65.9327C184.896 66.0082 184.836 66.0836 184.745 66.0836ZM142.831 65.7818H184.579V54.0843H142.831V65.7818ZM184.745 52.5901H167.494C167.418 52.5901 167.343 52.5298 167.343 52.4392V51.0052H142.695C142.619 51.0052 142.544 50.9449 142.544 50.8543V39.5946C142.544 39.5191 142.604 39.4437 142.695 39.4437H167.343V36.8626H142.695C142.619 36.8626 142.544 36.8023 142.544 36.7117V25.2105C142.544 25.135 142.604 25.0596 142.695 25.0596H184.745C184.821 25.0596 184.896 25.1199 184.896 25.2105V52.4392C184.896 52.5147 184.836 52.5901 184.745 52.5901ZM167.629 52.3034H184.594V25.3765H142.846V36.591H167.494C167.569 36.591 167.644 36.6514 167.644 36.7419V39.6248C167.644 39.7003 167.584 39.7757 167.494 39.7757H142.846V50.7336H167.494C167.569 50.7336 167.644 50.794 167.644 50.8845V52.3183L167.629 52.3034Z" fill="black"/>
<path d="M127.117 21.8593H114.181L113.261 25.1195H112.732V21.7988H97.9559V24.0326C97.9559 24.7571 100.371 25.5421 100.914 26.3873C101.458 27.2325 102.273 27.7607 103.375 28.0022L102.68 28.8476C102.318 28.8777 101.941 28.7721 101.533 28.5307C101.141 28.2892 100.778 27.9571 100.461 27.5646C100.144 27.1722 99.8729 26.7495 99.6163 26.3269C99.3748 25.9043 99.2087 25.4969 99.1483 25.1346H96.5674V36.1981H99.8879V44.8768C99.8879 47.3824 99.5709 49.2539 98.9219 50.4614C98.2729 51.6688 97.4881 52.2727 96.5674 52.2727V64.6191C98.288 64.453 99.9785 64.1512 101.624 63.6984C103.269 63.2456 105.518 62.3248 106.71 61.5702C106.544 61.4343 107.465 62.2193 108.703 62.8079C109.654 63.2607 110.453 63.4568 111.54 63.8191C112.355 64.0908 113.246 64.2569 114.181 64.3324V64.3626H139.116V21.8744H127.117V21.8593Z" fill="white"/>
<path d="M96.5689 64.7414C96.5689 64.7414 96.4933 64.7413 96.4631 64.696C96.4329 64.6659 96.418 64.6356 96.418 64.5903V52.2439C96.418 52.1684 96.4783 52.093 96.5689 52.093C97.4292 52.093 98.1838 51.5043 98.7876 50.3572C99.4215 49.1799 99.7385 47.3234 99.7385 44.8481V36.3202H96.5689C96.4934 36.3202 96.418 36.2599 96.418 36.1693V25.1058C96.418 25.0304 96.4783 24.9547 96.5689 24.9547H98.6216C98.1386 24.6378 97.8065 24.3512 97.8065 24.004V21.77C97.8065 21.6946 97.8668 21.6191 97.9574 21.6191H112.734C112.809 21.6191 112.885 21.6795 112.885 21.77V24.9398H113.157L114.047 21.7851C114.047 21.7851 114.122 21.6796 114.183 21.6796H139.117C139.193 21.6796 139.268 21.7399 139.268 21.8305V64.3187C139.268 64.3942 139.208 64.4696 139.117 64.4696H114.183C114.183 64.4696 114.107 64.4696 114.077 64.4243C113.157 64.3488 112.296 64.1828 111.496 63.9111C111.194 63.8055 110.923 63.7299 110.666 63.6394C109.957 63.413 109.338 63.2319 108.644 62.8847C108.07 62.5979 107.089 62.0094 106.712 61.6924C105.534 62.4169 103.346 63.3377 101.67 63.7905C100.025 64.2433 98.3046 64.5451 96.584 64.7111L96.5689 64.7414ZM96.7198 52.3797V64.4243C98.365 64.2582 100.01 63.9564 101.595 63.5338C103.255 63.081 105.414 62.1905 106.576 61.466C106.576 61.4358 106.621 61.4056 106.651 61.3905C106.696 61.3603 106.787 61.3905 106.832 61.4207C106.983 61.5414 107.783 62.1453 108.779 62.6433C109.459 62.9754 110.062 63.1565 110.757 63.3829C111.013 63.4735 111.3 63.5488 111.602 63.6545C112.402 63.9262 113.277 64.0923 114.198 64.1527C114.228 64.1527 114.258 64.1527 114.274 64.1829H138.966V21.9965H114.304L113.413 25.151C113.413 25.151 113.338 25.2567 113.277 25.2567H112.749C112.674 25.2567 112.598 25.1964 112.598 25.1058V21.936H98.1084V24.019C98.1084 24.3208 98.8328 24.7436 99.4667 25.1209C100.101 25.4983 100.765 25.8755 101.036 26.2981C101.565 27.098 102.35 27.6264 103.391 27.8528C103.436 27.8528 103.482 27.8981 103.497 27.9434C103.512 27.9887 103.497 28.049 103.467 28.0792L102.772 28.9243C102.772 28.9243 102.712 28.9697 102.667 28.9848C102.274 29.0301 101.852 28.9093 101.429 28.6377C101.021 28.3811 100.644 28.049 100.327 27.6414C100.01 27.2339 99.7233 26.8114 99.4667 26.3887C99.2403 25.9963 99.0895 25.619 98.9989 25.2718H96.6895V36.0335H99.8591C99.9346 36.0335 100.01 36.0938 100.01 36.1844V44.8632C100.01 47.3838 99.6781 49.2855 99.0291 50.5081C98.3952 51.7005 97.6103 52.3344 96.6895 52.3948L96.7198 52.3797ZM99.3762 25.4227C99.4517 25.6793 99.5875 25.9511 99.7536 26.2378C99.9951 26.6605 100.282 27.0679 100.584 27.4603C100.886 27.8377 101.233 28.1546 101.61 28.3961C101.957 28.6074 102.289 28.7132 102.606 28.6981L103.104 28.0943C102.093 27.8377 101.323 27.2792 100.795 26.4792C100.569 26.1321 99.98 25.785 99.3913 25.4378L99.3762 25.4227Z" fill="black"/>
<path d="M184.745 50.8555H167.493V49.2708H142.694V38.0109H167.493V35.1282H142.694V23.627H184.745V50.8555ZM184.745 64.3492H142.694V52.3497H184.745V64.3492Z" fill="white"/>
<path d="M184.745 64.4857H142.695C142.619 64.4857 142.544 64.4253 142.544 64.3348V52.3353C142.544 52.2599 142.604 52.1844 142.695 52.1844H184.745C184.821 52.1844 184.896 52.2448 184.896 52.3353V64.3348C184.896 64.4102 184.836 64.4857 184.745 64.4857ZM142.831 64.1988H184.579V52.5013H142.831V64.1988ZM184.745 51.0071H167.494C167.418 51.0071 167.343 50.9467 167.343 50.8562V49.4224H142.695C142.619 49.4224 142.544 49.362 142.544 49.2715V38.0116C142.544 37.9361 142.604 37.8607 142.695 37.8607H167.343V35.2798H142.695C142.619 35.2798 142.544 35.2194 142.544 35.1289V23.6276C142.544 23.5522 142.604 23.4766 142.695 23.4766H184.745C184.821 23.4766 184.896 23.5371 184.896 23.6276V50.8562C184.896 50.9317 184.836 51.0071 184.745 51.0071ZM167.629 50.7053H184.594V23.7785H142.846V34.9929H167.494C167.569 34.9929 167.644 35.0532 167.644 35.1438V38.0267C167.644 38.1022 167.584 38.1776 167.494 38.1776H142.846V49.1355H167.494C167.569 49.1355 167.644 49.196 167.644 49.2866V50.7204L167.629 50.7053Z" fill="black"/>
<path d="M115.119 31.7911H111.843V40.4699C111.843 41.9943 111.949 43.217 112.16 44.1679C112.372 45.1037 112.643 45.8432 112.976 46.3715C113.308 46.8998 113.655 47.262 114.047 47.4582C114.424 47.6544 114.787 47.7602 115.119 47.7602V59.9557C113.836 59.9557 112.643 59.7745 111.542 59.4123C110.455 59.0501 109.474 58.5821 108.598 57.9934C107.723 57.4199 106.968 56.7559 106.349 56.0314C105.716 55.3069 105.248 54.5823 104.916 53.8427L103.919 54.8389C103.98 54.9748 104.1 55.1559 104.267 55.3823C104.433 55.6087 104.614 55.8653 104.81 56.1521C105.006 56.4388 105.202 56.6954 105.383 56.9218C105.565 57.1482 105.746 57.3293 105.912 57.4652C104.719 58.2199 103.301 58.8237 101.64 59.2765C99.98 59.7293 98.3046 60.0312 96.584 60.1972V47.8506C97.5047 47.8506 98.2895 47.247 98.9385 46.0395C99.5875 44.832 99.9045 42.9754 99.9045 40.4548V31.776H96.584V20.7126H99.1649C99.2253 21.0748 99.3914 21.4673 99.6329 21.905C99.8744 22.3276 100.161 22.7502 100.478 23.1426C100.795 23.535 101.142 23.8671 101.55 24.1086C101.942 24.3501 102.319 24.4708 102.697 24.4255L103.391 23.5804C102.304 23.354 101.489 22.8105 100.931 21.9653C100.388 21.12 100.116 20.3352 100.116 19.6108V17.377H112.764V20.6974H115.149V31.7609L115.119 31.7911ZM112.93 45.0886V32.6967C113.428 32.6665 113.957 32.6364 114.515 32.6213C115.074 32.6063 115.662 32.5609 116.251 32.5005V19.2636H127.103V59.9708H116.251V44.9979C115.662 45.0583 115.073 45.1037 114.485 45.1037H112.93V45.0886ZM139.117 59.9557H128.265V19.2485H139.117V59.9557Z" fill="#489CF1"/>
<path d="M96.5689 60.3488C96.5689 60.3488 96.4933 60.3488 96.4631 60.3035C96.4329 60.2733 96.418 60.2432 96.418 60.1979V47.8514C96.418 47.7759 96.4783 47.7005 96.5689 47.7005C97.4292 47.7005 98.1838 47.1118 98.7876 45.9647C99.4215 44.7874 99.7385 42.9309 99.7385 40.4555V31.9279H96.5689C96.4934 31.9279 96.418 31.8673 96.418 31.7768V20.7133C96.418 20.6378 96.4783 20.5624 96.5689 20.5624H99.1498C99.1498 20.5624 99.2856 20.6076 99.3007 20.6831C99.3611 21.0302 99.5121 21.4076 99.7536 21.8302C99.9951 22.2528 100.282 22.6604 100.584 23.0529C100.886 23.4302 101.233 23.7472 101.61 23.9887C101.957 24.2 102.289 24.3056 102.606 24.2905L103.104 23.6867C102.093 23.4301 101.323 22.8717 100.795 22.0718C100.236 21.2114 99.9498 20.3813 99.9498 19.6417V17.4077C99.9498 17.3323 100.01 17.2568 100.101 17.2568H112.749C112.825 17.2568 112.9 17.3172 112.9 17.4077V20.5775H115.134C115.209 20.5775 115.285 20.6379 115.285 20.7284V31.7919C115.285 31.8673 115.224 31.9428 115.134 31.9428H112.009V40.4706C112.009 41.98 112.115 43.2026 112.326 44.1384C112.538 45.0591 112.809 45.7835 113.126 46.2967C113.443 46.7948 113.775 47.142 114.138 47.3383C114.5 47.5194 114.832 47.6249 115.134 47.6249C115.209 47.6249 115.285 47.6855 115.285 47.776V59.9715C115.285 60.047 115.224 60.1224 115.134 60.1224C113.836 60.1224 112.613 59.9413 111.511 59.564C110.41 59.2017 109.413 58.7188 108.523 58.1301C107.632 57.5415 106.878 56.8773 106.244 56.1377C105.67 55.4736 105.202 54.7793 104.87 54.1152L104.101 54.885C104.161 55.0058 104.266 55.1567 104.387 55.3228L104.417 55.3528C104.568 55.5792 104.749 55.8207 104.946 56.0924C105.142 56.3641 105.323 56.6206 105.504 56.847C105.685 57.0735 105.851 57.2396 106.002 57.3755C106.032 57.4057 106.063 57.4509 106.063 57.4962C106.063 57.5414 106.032 57.5866 106.002 57.6168C104.81 58.3866 103.361 58.9905 101.701 59.4433C100.056 59.8961 98.3349 60.1979 96.6142 60.364L96.5689 60.3488ZM96.7198 48.0023V60.0469C98.365 59.8808 100.01 59.579 101.595 59.1564C103.15 58.7338 104.508 58.1753 105.655 57.4659C105.534 57.3452 105.399 57.1942 105.263 57.0282C105.082 56.8018 104.885 56.5302 104.689 56.2586C104.508 55.9869 104.327 55.7452 104.176 55.5188L104.146 55.4888C103.98 55.2624 103.859 55.0662 103.784 54.9303C103.753 54.87 103.768 54.8094 103.814 54.7641L104.81 53.7681C104.81 53.7681 104.9 53.7228 104.946 53.7228C104.991 53.7228 105.036 53.7681 105.051 53.8134C105.368 54.5228 105.851 55.2472 106.47 55.9566C107.089 56.666 107.829 57.315 108.689 57.8886C109.549 58.4622 110.53 58.9299 111.602 59.2922C112.628 59.6393 113.76 59.8206 114.983 59.8357V47.9269C114.666 47.8967 114.334 47.791 114.002 47.6249C113.594 47.4136 113.217 47.0363 112.885 46.4778C112.553 45.9345 112.266 45.1798 112.055 44.2289C111.844 43.278 111.723 42.0253 111.723 40.5009V31.8221C111.723 31.7466 111.783 31.6712 111.874 31.6712H114.998V20.9095H112.764C112.689 20.9095 112.613 20.8492 112.613 20.7586V17.589H100.267V19.6718C100.267 20.3661 100.538 21.1358 101.067 21.9509C101.595 22.7508 102.38 23.2792 103.421 23.5056C103.467 23.5056 103.512 23.5509 103.527 23.5962C103.542 23.6415 103.527 23.7018 103.497 23.732L102.802 24.5771C102.802 24.5771 102.742 24.6225 102.697 24.6376C102.304 24.6829 101.882 24.5621 101.459 24.2905C101.052 24.0339 100.674 23.7018 100.357 23.2942C100.04 22.9018 99.7535 22.4793 99.4969 22.0415C99.2705 21.6491 99.1197 21.2718 99.0291 20.9246H96.7198V31.6863H99.8894C99.9648 31.6863 100.04 31.7466 100.04 31.8372V40.516C100.04 43.0366 99.7084 44.9383 99.0593 46.1609C98.4254 47.3533 97.6405 47.9872 96.7198 48.0476V48.0023ZM139.117 60.1073H128.265C128.19 60.1073 128.114 60.047 128.114 59.9564V19.2493C128.114 19.1738 128.175 19.0984 128.265 19.0984H139.117C139.193 19.0984 139.268 19.1587 139.268 19.2493V59.9564C139.268 60.0319 139.208 60.1073 139.117 60.1073ZM128.401 59.8055H138.966V19.3851H128.401V59.8055ZM127.118 60.1073H116.266C116.19 60.1073 116.115 60.047 116.115 59.9564V45.1496C115.572 45.21 115.043 45.2251 114.5 45.2251H112.945C112.87 45.2251 112.794 45.1648 112.794 45.0742V32.6825C112.794 32.6071 112.855 32.5465 112.93 32.5314C113.428 32.5013 113.972 32.4712 114.515 32.4561C115.028 32.4561 115.572 32.4107 116.115 32.3503V19.2493C116.115 19.1738 116.175 19.0984 116.266 19.0984H127.118C127.194 19.0984 127.269 19.1587 127.269 19.2493V59.9564C127.269 60.0319 127.209 60.1073 127.118 60.1073ZM116.402 59.8055H126.967V19.3851H116.402V32.4712C116.402 32.4712 116.341 32.607 116.266 32.6221C115.677 32.6825 115.089 32.7277 114.515 32.7428C114.017 32.7579 113.534 32.773 113.066 32.8032V44.9082H114.485C115.058 44.9082 115.647 44.8779 116.236 44.8025C116.281 44.8025 116.326 44.8025 116.356 44.8327C116.387 44.8629 116.402 44.9083 116.402 44.9384V59.7602V59.8055Z" fill="black"/>
<path d="M184.745 46.4776H167.493V44.8929H142.694V33.633H167.493V30.7503H142.694V19.249H184.745V46.4776ZM184.745 59.9561H142.694V47.9569H184.745V59.9561Z" fill="#489CF1"/>
<path d="M184.745 60.108H142.695C142.619 60.108 142.544 60.0477 142.544 59.9571V47.9579C142.544 47.8824 142.604 47.8068 142.695 47.8068H184.745C184.821 47.8068 184.896 47.8673 184.896 47.9579V59.9571C184.896 60.0326 184.836 60.108 184.745 60.108ZM142.831 59.8062H184.579V48.1087H142.831V59.8062ZM184.745 46.6145H167.494C167.418 46.6145 167.343 46.554 167.343 46.4634V45.0296H142.695C142.619 45.0296 142.544 44.9693 142.544 44.8787V33.619C142.544 33.5436 142.604 33.4679 142.695 33.4679H167.343V30.887H142.695C142.619 30.887 142.544 30.8267 142.544 30.7361V19.2349C142.544 19.1594 142.604 19.084 142.695 19.084H184.745C184.821 19.084 184.896 19.1443 184.896 19.2349V46.4634C184.896 46.5389 184.836 46.6145 184.745 46.6145ZM167.629 46.3276H184.594V19.4009H142.846V30.6153H167.494C167.569 30.6153 167.644 30.6758 167.644 30.7663V33.6491C167.644 33.7245 167.584 33.8001 167.494 33.8001H142.846V44.758H167.494C167.569 44.758 167.644 44.8184 167.644 44.9089V46.3427L167.629 46.3276Z" fill="black"/>
<path d="M181.081 28.6808C181.081 28.6808 181.005 28.6659 180.975 28.6357L163.286 10.6895C163.286 10.6895 163.225 10.5386 163.286 10.4782L169.353 4.41057C169.353 4.41057 169.429 4.38034 169.459 4.36525C169.504 4.36525 169.534 4.38038 169.564 4.41057L181.081 16.1836L196.22 0.999426C196.22 0.999426 196.28 0.954102 196.325 0.954102C196.325 0.954102 196.401 0.969239 196.431 0.999426L202.498 7.06704C202.498 7.06704 202.559 7.218 202.498 7.27837L181.202 28.6357C181.202 28.6357 181.141 28.6808 181.096 28.6808H181.081ZM163.603 10.5838L181.081 28.3186L202.181 7.17262L196.325 1.31633L181.186 16.5005C181.186 16.5005 181.126 16.5458 181.081 16.5458C181.081 16.5458 181.005 16.5307 180.975 16.5005L169.459 4.71237L163.603 10.5687V10.5838Z" fill="black"/>
</svg>
