<svg width="277" height="86" viewBox="0 0 277 86" fill="none" xmlns="http://www.w3.org/2000/svg">
<path d="M269.883 0H7.60313C3.76861 0 0.660156 3.10845 0.660156 6.94297V78.29C0.660156 82.1245 3.76861 85.2329 7.60313 85.2329H269.883C273.717 85.2329 276.826 82.1245 276.826 78.29V6.94297C276.826 3.10845 273.717 0 269.883 0Z" fill="white"/>
<path d="M40.3715 24.3446C41.7752 24.3144 43.2845 24.1936 44.8391 23.8917L44.99 25.1897C43.1486 25.5821 41.3525 25.6726 39.7375 25.6726H38.7715V18.3372H40.3715V24.3446ZM48.688 22.7899H47.1333V28.3744H45.5484V17.2656H47.1333V21.4617H48.688V22.7748V22.7899Z" fill="#313133"/>
<path d="M49.2309 24.8753C51.1931 24.8753 53.9099 24.8753 56.2494 24.513L56.3399 25.6602C53.9551 26.1432 51.344 26.1582 49.4272 26.1582L49.2158 24.8602L49.2309 24.8753ZM55.8117 20.7697C55.8117 22.3696 54.4834 23.5168 52.7476 23.5168C51.0119 23.5168 49.6987 22.3847 49.6987 20.7697C49.6987 19.1547 51.0119 18.0379 52.7476 18.0379C54.4834 18.0379 55.8117 19.1849 55.8117 20.7697ZM51.2383 20.7697C51.2383 21.6451 51.8873 22.1433 52.7476 22.1433C53.608 22.1433 54.257 21.63 54.257 20.7697C54.257 19.9094 53.608 19.3963 52.7476 19.3963C51.8873 19.3963 51.2383 19.9094 51.2383 20.7697ZM58.453 17.2832V28.4373H56.853V17.2832H58.453Z" fill="#313133"/>
<path d="M68.129 23.1848V23.8488H71.1326V26.596H65.0499V27.1695H71.4193V28.3165H63.465V25.5091H69.5629V24.9808H63.4499V23.8337H66.529V23.1697H62.333V21.9924H72.34V23.1697H68.129V23.1848ZM62.7103 20.5586C64.9442 20.468 66.031 19.9245 66.3328 19.3057H63.2688V18.1586H66.5139V17.2832H68.0988V18.1586H71.374V19.3057H68.2799C68.5969 19.9396 69.6837 20.468 71.9175 20.5586L71.4646 21.7357C69.3968 21.6301 67.9931 21.117 67.2988 20.3019C66.6045 21.117 65.2159 21.6301 63.133 21.7357L62.6952 20.5586H62.7103Z" fill="#313133"/>
<path d="M78.8597 23.5446C77.6824 23.137 76.8824 22.3521 76.4145 21.371C75.9315 22.4427 75.0713 23.3031 73.8185 23.7408L72.9883 22.4879C74.8297 21.8842 75.5994 20.405 75.5994 18.9108V17.8543H77.2145V19.0014C77.2145 20.39 77.954 21.7484 79.7048 22.3219L78.8748 23.5597L78.8597 23.5446ZM74.7692 24.4048H82.3462V28.4046H80.7615V25.6577H74.7692V24.4048ZM82.3462 17.2807V23.8917H80.7615V20.6466H78.7388V19.3485H80.7615V17.2656H82.3462V17.2807Z" fill="#313133"/>
<path d="M90.9042 24.1502C88.5496 24.5577 85.9988 24.6029 84.0668 24.6029L83.8555 23.3955C84.7007 23.3955 85.6366 23.3955 86.6479 23.3653V22.7313C85.4404 22.5502 84.6857 21.9766 84.6857 21.1615C84.6857 20.1653 85.8025 19.5315 87.4477 19.5315C89.0929 19.5315 90.1797 20.1653 90.1797 21.1615C90.1797 21.9766 89.425 22.5502 88.2326 22.7313V23.3049C89.108 23.2596 89.9685 23.1841 90.7986 23.0935L90.9042 24.1502ZM90.6929 19.2597H84.1726V18.1277H86.6479V17.207H88.2477V18.1277H90.6929V19.2597ZM90.0137 25.116C90.0137 26.0216 91.0551 26.9576 93.5153 27.1689L92.9871 28.3611C91.1608 28.1951 89.8778 27.5914 89.2137 26.7311C88.5345 27.5914 87.2516 28.1951 85.4253 28.3611L84.897 27.1689C87.3573 26.9576 88.3986 26.0216 88.3986 25.116V24.9802H90.0288V25.116H90.0137ZM87.4477 21.7502C88.2024 21.7502 88.6704 21.554 88.6704 21.1766C88.6704 20.7993 88.2175 20.588 87.4477 20.588C86.678 20.588 86.2101 20.7993 86.2101 21.1766C86.2101 21.554 86.678 21.7502 87.4477 21.7502ZM93.0626 25.5538H91.4627V17.2826H93.0626V25.5538Z" fill="#313133"/>
<path d="M104.594 24.6328H100.337V28.4213H98.7374V24.6328H94.5566V23.3348H104.594V24.6328ZM103.628 22.5196C101.681 22.2329 100.292 21.3273 99.5827 20.1349C98.8733 21.3273 97.4695 22.2329 95.5225 22.5196L94.9189 21.2367C97.4546 20.8896 98.7225 19.4556 98.7225 18.1425V17.6143H100.428V18.1425C100.428 19.4405 101.711 20.8745 104.231 21.2367L103.628 22.5196Z" fill="#313133"/>
<path d="M48.7627 54.8203C48.7627 44.5568 53.5927 39.4551 60.7017 39.4551C67.8107 39.4551 72.6407 44.5417 72.6407 54.8203C72.6407 65.099 67.8107 70.5025 60.7017 70.5025C53.5927 70.5025 48.7627 65.0839 48.7627 54.8203ZM67.856 54.8203C67.856 46.1416 64.777 43.1682 60.7168 43.1682C56.6567 43.1682 53.5776 46.1416 53.5776 54.8203C53.5776 63.4991 56.6567 66.7593 60.7168 66.7593C64.777 66.7593 67.856 63.4991 67.856 54.8203Z" fill="#BCBCBC"/>
<path d="M83.162 59.5131C84.5053 59.4376 85.8637 59.3471 87.1467 59.1659L87.2673 60.4186C83.9619 60.9771 80.4149 61.0375 77.683 61.0375L77.4717 59.6337C78.6641 59.6337 80.0376 59.6339 81.4564 59.5886V58.1244C79.7659 57.8527 78.649 56.8264 78.649 55.3774C78.649 53.7021 80.1432 52.5852 82.3166 52.5852C84.4901 52.5852 85.9693 53.7021 85.9693 55.3774C85.9693 56.8415 84.8524 57.8527 83.162 58.1244V59.5282V59.5131ZM86.8298 51.8456H77.7586V50.4721H81.4413V48.7665H83.1468V50.4721H86.8147V51.8456H86.8298ZM82.3166 56.8566C83.509 56.8566 84.3393 56.2981 84.3393 55.3623C84.3393 54.4265 83.509 53.8832 82.3166 53.8832C81.1242 53.8832 80.279 54.4416 80.279 55.3623C80.279 56.283 81.1092 56.8566 82.3166 56.8566ZM89.7276 48.7061V63.7242H88.0069V48.7061H89.7276Z" fill="#313133"/>
<path d="M176.001 22.0226C176.001 24.4677 174.764 26.0073 173.073 26.0073C171.383 26.0073 170.16 24.4677 170.16 22.0226C170.16 19.5774 171.398 18.0681 173.073 18.0681C174.748 18.0681 176.001 19.5925 176.001 22.0226ZM171.685 22.0226C171.685 23.6829 172.258 24.5582 173.073 24.5582C173.888 24.5582 174.462 23.6829 174.462 22.0226C174.462 20.3623 173.888 19.5019 173.073 19.5019C172.258 19.5019 171.685 20.3774 171.685 22.0226ZM179.05 17.2832V28.4373H177.45V17.2832H179.05Z" fill="#313133"/>
<path d="M185.374 23.7735H180.967V18.1435H182.461V19.849H183.895V18.1435H185.359V20.3623H186.295V17.4794H187.774V25.3582H186.295V21.6452H185.359V23.7884L185.374 23.7735ZM183.91 21.0566H182.476V22.5055H183.91V21.0566ZM190.34 26.9431V28.2109H182.582V24.5884H184.182V26.9431H190.355H190.34ZM190.068 25.6751H188.559V17.2832H190.068V25.6751Z" fill="#313133"/>
<path d="M201.403 25.8255V27.1235H191.336V25.8255H201.403ZM200.332 24.2708H192.528V18.0977H200.256V19.3806H194.158V20.5579H200.015V21.7955H194.158V23.0331H200.347V24.286L200.332 24.2708Z" fill="#313133"/>
<path d="M210.249 23.8488C209.072 23.4564 208.242 22.6717 207.759 21.7057C207.261 22.7924 206.4 23.6678 205.102 24.1055L204.287 22.8526C206.113 22.2489 206.898 20.7698 206.898 19.3812H204.725V18.1134H210.702V19.3812H208.528C208.528 20.7245 209.283 22.0679 211.079 22.6415L210.219 23.8639L210.249 23.8488ZM207.638 26.9431H213.615V28.2109H206.053V24.6488H207.638V26.9431ZM214.687 20.5283V21.8264H213.207V25.4337H211.607V17.2832H213.207V20.5132H214.687V20.5283Z" fill="#313133"/>
<path d="M224.542 17.2832V28.4373H222.942V24.3168H220.678C220.18 25.4036 219.319 26.0375 218.248 26.0224C216.602 26.0224 215.38 24.4828 215.38 22.0377C215.38 19.5925 216.602 18.0832 218.248 18.0832C219.244 18.0832 220.089 18.6266 220.572 19.5774H222.942V17.2983H224.542V17.2832ZM219.621 22.0226C219.621 20.3774 219.063 19.5019 218.248 19.5019C217.433 19.5019 216.889 20.3774 216.889 22.0226C216.889 23.6678 217.448 24.5582 218.248 24.5582C219.048 24.5582 219.621 23.6829 219.621 22.0226ZM222.942 23.0037V20.8301H221.01C221.085 21.1924 221.115 21.5849 221.115 22.0075C221.115 22.3546 221.085 22.7018 221.04 23.0037H222.927H222.942Z" fill="#313133"/>
<path d="M229.1 22.7017C227.395 22.7017 226.127 21.6453 226.127 20.151C226.127 18.6567 227.41 17.6152 229.1 17.6152C230.791 17.6152 232.059 18.6718 232.059 20.151C232.059 21.6302 230.791 22.7017 229.1 22.7017ZM229.1 21.4037C229.915 21.4037 230.519 20.951 230.519 20.151C230.519 19.351 229.93 18.8981 229.1 18.8981C228.27 18.8981 227.667 19.3661 227.667 20.151C227.667 20.9359 228.285 21.4037 229.1 21.4037ZM235.47 27.0335V28.2713H227.802V25.2073H233.613V24.5282H227.787V23.3055H235.198V26.3393H229.387V27.0335H235.485H235.47ZM235.183 22.8526H233.583V17.2832H235.183V22.8526Z" fill="#313133"/>
<path d="M246.76 24.6328H242.503V28.4213H240.904V24.6328H236.723V23.3348H246.76V24.6328ZM245.794 22.5196C243.847 22.2329 242.458 21.3273 241.749 20.1349C241.039 21.3273 239.636 22.2329 237.689 22.5196L237.085 21.2367C239.621 20.8896 240.888 19.4556 240.888 18.1425V17.6143H242.594V18.1425C242.594 19.4405 243.877 20.8745 246.398 21.2367L245.794 22.5196Z" fill="#313133"/>
<path d="M180.394 66.1112H187.276V46.067H181.631V43.0936C184.589 42.6106 186.672 41.871 188.484 40.8145H192.212V66.1112H198.37V69.9752H180.394V66.1112Z" fill="#BCBCBC"/>
<path d="M200.121 66.5192L202.476 63.4703C204.272 65.1758 206.536 66.6852 209.841 66.6852C213.388 66.6852 216.09 64.4061 216.09 60.6931C216.09 56.9801 213.69 54.8217 210.098 54.8217C208.09 54.8217 206.883 55.3953 205.042 56.5273L202.642 55.0633L203.578 40.7998H219.546V44.7543H207.864L207.14 52.4521C208.513 51.8031 209.751 51.4408 211.456 51.4408C216.724 51.4408 221.041 54.2482 221.041 60.5271C221.041 66.806 215.954 70.5039 210.43 70.5039C205.464 70.5039 202.34 68.587 200.121 66.5192Z" fill="#BCBCBC"/>
<path d="M229.69 58.9696C227.426 58.9696 225.766 57.581 225.766 55.6037C225.766 53.6265 227.426 52.2228 229.69 52.2228C231.954 52.2228 233.644 53.6416 233.644 55.6037C233.644 57.5659 231.969 58.9696 229.69 58.9696ZM229.69 57.5809C231.003 57.5809 231.984 56.7961 231.984 55.6037C231.984 54.4114 231.003 53.6264 229.69 53.6264C228.377 53.6264 227.426 54.4114 227.426 55.6037C227.426 56.7961 228.392 57.5809 229.69 57.5809ZM238.278 65.2032V66.5465H228.03V62.6071H236.135V61.3543H227.999V60.0109H237.825V63.8598H229.705V65.1881H238.278V65.2032ZM237.84 59.3469H236.135V51.7246H237.84V59.3469Z" fill="#313133"/>
<path d="M138.826 16.1338V72.3873" stroke="#898989" stroke-width="0.754675" stroke-linecap="round" stroke-linejoin="round"/>
</svg>
