<svg width="284" height="209" viewBox="0 0 284 209" fill="none" xmlns="http://www.w3.org/2000/svg">
<path d="M231.474 107.453L238.749 106.834L231.474 106.23L235.338 102.396L230.795 105.611L230.04 98.125L229.285 105.611L224.742 102.396L228.606 106.23L221.331 106.834L228.606 107.453L224.742 111.271L229.285 108.056L230.04 115.543L230.795 108.056L235.338 111.271L231.474 107.453Z" fill="white"/>
<path d="M230.04 115.724C229.949 115.724 229.874 115.649 229.859 115.558L229.134 108.374L224.833 111.408C224.833 111.408 224.651 111.453 224.591 111.377C224.531 111.302 224.531 111.196 224.591 111.136L228.183 107.589L221.301 107.015C221.21 107.015 221.135 106.925 221.135 106.834C221.135 106.744 221.21 106.668 221.301 106.653L228.183 106.08L224.591 102.533C224.591 102.533 224.516 102.367 224.591 102.291C224.651 102.216 224.757 102.201 224.833 102.261L229.134 105.295L229.859 98.1103C229.859 98.0198 229.949 97.9443 230.04 97.9443C230.13 97.9443 230.206 98.0198 230.221 98.1103L230.946 105.295L235.247 102.261C235.323 102.216 235.428 102.216 235.489 102.291C235.549 102.367 235.549 102.472 235.489 102.533L231.896 106.08L238.779 106.653C238.87 106.653 238.945 106.744 238.945 106.834C238.945 106.925 238.87 107 238.779 107.015L231.896 107.589L235.489 111.136C235.489 111.136 235.564 111.302 235.489 111.377C235.428 111.453 235.323 111.468 235.247 111.408L230.946 108.374L230.221 115.558C230.221 115.649 230.13 115.724 230.04 115.724ZM229.285 107.876C229.285 107.876 229.33 107.876 229.361 107.891C229.421 107.921 229.451 107.966 229.466 108.042L230.04 113.762L230.613 108.042C230.613 108.042 230.659 107.921 230.719 107.891C230.779 107.861 230.84 107.876 230.9 107.906L233.677 109.868L231.353 107.559C231.353 107.559 231.293 107.438 231.308 107.378C231.338 107.317 231.398 107.272 231.459 107.257L236.606 106.819L231.459 106.382C231.459 106.382 231.323 106.336 231.308 106.261C231.278 106.2 231.308 106.125 231.353 106.08L233.677 103.77L230.9 105.732C230.9 105.732 230.779 105.778 230.719 105.748C230.659 105.717 230.628 105.672 230.613 105.597L230.04 99.8762L229.466 105.597C229.466 105.597 229.421 105.717 229.361 105.748C229.3 105.778 229.24 105.763 229.18 105.732L226.387 103.77L228.712 106.08C228.712 106.08 228.772 106.2 228.757 106.261C228.727 106.321 228.666 106.366 228.606 106.382L223.459 106.819L228.606 107.257C228.606 107.257 228.742 107.302 228.757 107.378C228.787 107.438 228.757 107.514 228.712 107.559L226.387 109.868L229.164 107.906C229.164 107.906 229.225 107.876 229.27 107.876H229.285Z" fill="black"/>
<path d="M283.305 134.789C283.063 134.713 280.346 133.747 279.35 130.759C278.278 133.747 275.547 134.683 275.305 134.758C275.547 134.834 278.263 135.8 279.26 138.788C280.316 135.8 283.063 134.864 283.305 134.789Z" fill="white"/>
<path d="M279.276 138.985C279.2 138.985 279.125 138.94 279.109 138.864C278.159 136.011 275.608 135.06 275.276 134.955C275.276 134.955 275.261 134.955 275.246 134.955C275.155 134.94 275.11 134.849 275.125 134.759C275.125 134.668 275.215 134.608 275.306 134.608C275.563 134.517 278.174 133.612 279.2 130.729C279.23 130.653 279.306 130.593 279.366 130.608C279.442 130.608 279.517 130.653 279.532 130.729C280.483 133.581 283.049 134.532 283.351 134.638C283.441 134.638 283.517 134.728 283.517 134.819C283.517 134.819 283.517 134.864 283.517 134.879C283.487 134.955 283.426 135 283.351 135C283.094 135.091 280.483 135.996 279.457 138.879C279.427 138.955 279.366 139 279.291 139L279.276 138.985ZM275.804 134.774C276.634 135.151 278.385 136.162 279.291 138.306C280.226 136.147 282.008 135.166 282.853 134.789C282.038 134.426 280.272 133.415 279.381 131.257C278.445 133.4 276.664 134.396 275.819 134.774H275.804Z" fill="black"/>
<path d="M149.546 28.5738C149.304 28.4983 146.587 27.5325 145.591 24.5439C144.52 27.5325 141.788 28.4681 141.546 28.5436C141.788 28.619 144.505 29.5851 145.501 32.5736C146.557 29.5851 149.304 28.6493 149.546 28.5738Z" fill="white"/>
<path d="M145.501 32.7553C145.425 32.7553 145.35 32.7101 145.335 32.6346C144.369 29.7668 141.833 28.8309 141.501 28.7252C141.501 28.7252 141.486 28.7252 141.471 28.7252C141.38 28.7101 141.335 28.6347 141.335 28.5441C141.335 28.4536 141.441 28.3781 141.531 28.3781C141.788 28.2876 144.399 27.3669 145.425 24.4992C145.455 24.4237 145.516 24.3632 145.591 24.3783C145.667 24.3783 145.742 24.4237 145.757 24.4992C146.708 27.3518 149.274 28.3027 149.576 28.4083C149.667 28.4083 149.742 28.4989 149.742 28.5894C149.742 28.5894 149.742 28.6348 149.742 28.6499C149.712 28.7253 149.651 28.7706 149.576 28.7706C149.319 28.8611 146.708 29.7668 145.682 32.6497C145.652 32.7252 145.591 32.7704 145.516 32.7704L145.501 32.7553ZM142.029 28.5592C142.859 28.9366 144.61 29.9329 145.501 32.0912C146.437 29.948 148.218 28.9517 149.063 28.5743C148.248 28.2121 146.482 27.2009 145.591 25.0425C144.655 27.1858 142.874 28.1819 142.029 28.5592Z" fill="black"/>
<path d="M125.623 11.2312C125.382 11.1557 122.665 10.1897 121.669 7.20117C120.597 10.1897 117.865 11.1255 117.624 11.201C117.865 11.2765 120.582 12.2425 121.578 15.231C122.65 12.2425 125.382 11.3067 125.623 11.2312Z" fill="black"/>
<path d="M121.594 15.4131C121.519 15.4131 121.458 15.3679 121.428 15.2924C120.462 12.3945 117.79 11.4434 117.594 11.3831C117.594 11.3831 117.564 11.3831 117.549 11.368C117.458 11.368 117.413 11.2774 117.413 11.1868C117.413 11.0963 117.519 11.0359 117.609 11.0359C117.866 10.9454 120.477 10.0399 121.504 7.157C121.534 7.08153 121.594 7.03613 121.67 7.03613C121.745 7.03613 121.82 7.08153 121.836 7.157C122.786 10.0097 125.352 10.9605 125.654 11.0662C125.745 11.0662 125.82 11.1567 125.82 11.2473V11.2775C125.82 11.3681 125.73 11.4284 125.639 11.4284C125.383 11.519 122.771 12.4247 121.745 15.3075C121.715 15.383 121.654 15.4282 121.579 15.4282L121.594 15.4131ZM118.123 11.202C118.953 11.5642 120.703 12.5756 121.594 14.734C122.53 12.5907 124.311 11.5944 125.156 11.2322C124.341 10.8699 122.575 9.85871 121.67 7.70034C120.734 9.84362 118.953 10.8397 118.108 11.2171L118.123 11.202Z" fill="black"/>
<path d="M280.211 36.6949C279.97 36.6194 277.253 35.6536 276.257 32.665C275.185 35.6536 272.453 36.5892 272.211 36.6647C272.453 36.7401 275.17 37.7062 276.166 40.6947C277.222 37.7062 279.97 36.7704 280.211 36.6949Z" fill="black"/>
<path d="M276.18 40.874C276.105 40.874 276.03 40.8288 276.014 40.7534C275.048 37.9007 272.513 36.9497 272.181 36.844C272.181 36.844 272.166 36.844 272.15 36.844C272.06 36.8289 272.015 36.7535 272.015 36.6629C272.015 36.5723 272.12 36.4969 272.211 36.4969C272.467 36.4063 275.079 35.5008 276.105 32.6179C276.135 32.5425 276.195 32.4971 276.271 32.4971C276.346 32.4971 276.422 32.5425 276.437 32.6179C277.388 35.4706 279.954 36.4214 280.256 36.5271C280.346 36.5271 280.422 36.6177 280.422 36.7082C280.422 36.7082 280.422 36.7536 280.422 36.7686C280.391 36.8441 280.331 36.8893 280.256 36.8893C279.999 36.9799 277.388 37.8856 276.362 40.7685C276.331 40.8439 276.271 40.8891 276.196 40.8891L276.18 40.874ZM272.709 36.6629C273.539 37.0402 275.29 38.0365 276.18 40.1949C277.116 38.0365 278.897 37.0402 279.743 36.678C278.927 36.3158 277.161 35.2894 276.271 33.1462C275.335 35.2894 273.554 36.2856 272.709 36.6629Z" fill="black"/>
<path d="M260.694 15.2932L267.954 14.6894L260.694 14.0857L264.543 10.2519L260 13.4668L259.245 5.98047L258.49 13.4668L253.947 10.2519L257.811 14.0857L250.536 14.6894L257.811 15.2932L253.947 19.1268L258.49 15.9119L259.245 23.3984L260 15.9119L264.543 19.1268L260.694 15.2932Z" fill="white"/>
<path d="M259.245 23.578C259.154 23.578 259.079 23.5026 259.064 23.412L258.339 16.2275L254.038 19.2613C253.962 19.3217 253.857 19.3066 253.796 19.2311C253.736 19.1556 253.736 19.0499 253.796 18.9896L257.389 15.4426L250.506 14.8691C250.415 14.8691 250.34 14.7785 250.34 14.6879C250.34 14.5974 250.415 14.5219 250.506 14.5068L257.389 13.9333L253.796 10.3863C253.796 10.3863 253.721 10.2203 253.796 10.1448C253.857 10.0693 253.962 10.0542 254.038 10.1146L258.339 13.1484L259.064 5.96386C259.064 5.8733 259.154 5.79785 259.245 5.79785C259.336 5.79785 259.411 5.8733 259.426 5.96386L260.151 13.1484L264.452 10.1146C264.528 10.0542 264.633 10.0693 264.694 10.1448C264.754 10.2203 264.754 10.326 264.694 10.3863L261.102 13.9333L267.984 14.5068C268.075 14.5068 268.15 14.5974 268.15 14.6879C268.15 14.7785 268.075 14.854 267.984 14.8691L261.102 15.4426L264.694 18.9896C264.694 18.9896 264.769 19.1556 264.694 19.2311C264.633 19.3066 264.528 19.3217 264.452 19.2613L260.151 16.2275L259.426 23.412C259.426 23.5026 259.336 23.578 259.245 23.578ZM258.49 15.7293C258.49 15.7293 258.536 15.7293 258.566 15.7444C258.626 15.7746 258.656 15.8198 258.671 15.8953L259.245 21.6158L259.819 15.8953C259.819 15.8953 259.864 15.7746 259.924 15.7444C259.985 15.7142 260.045 15.7293 260.105 15.7595L262.882 17.7218L260.558 15.4124C260.558 15.4124 260.498 15.2917 260.513 15.2313C260.543 15.1709 260.603 15.1257 260.664 15.1106L265.811 14.6728L260.664 14.2351C260.664 14.2351 260.528 14.1899 260.513 14.1144C260.483 14.054 260.513 13.9785 260.558 13.9333L262.882 11.6239L260.105 13.5861C260.105 13.5861 259.985 13.6314 259.924 13.6013C259.864 13.5711 259.834 13.5256 259.819 13.4502L259.245 7.72986L258.671 13.4502C258.671 13.4502 258.626 13.5711 258.566 13.6013C258.505 13.6314 258.445 13.6163 258.385 13.5861L255.592 11.6239L257.917 13.9333C257.917 13.9333 257.977 14.054 257.962 14.1144C257.932 14.1748 257.871 14.22 257.811 14.2351L252.664 14.6728L257.811 15.1106C257.811 15.1106 257.947 15.1558 257.962 15.2313C257.977 15.3068 257.962 15.3671 257.917 15.4124L255.592 17.7218L258.37 15.7595C258.37 15.7595 258.43 15.7293 258.475 15.7293H258.49Z" fill="black"/>
<path d="M8.78337 137.338L14.9566 136.824L8.78337 136.311L12.0738 133.051L8.20981 135.783L7.56089 129.429L6.9269 135.783L3.06306 133.051L6.33823 136.311L0.165039 136.824L6.33823 137.338L3.06306 140.598L6.9269 137.866L7.56089 144.22L8.20981 137.866L12.0738 140.598L8.78337 137.338Z" fill="white"/>
<path d="M7.56186 144.373C7.48639 144.373 7.42587 144.312 7.41077 144.237L6.79207 138.139L3.13938 140.72C3.13938 140.72 2.98842 140.75 2.92805 140.69C2.88277 140.629 2.88277 140.539 2.92805 140.478L5.97697 137.46L0.13579 136.962C0.0603224 136.962 0 136.886 0 136.811C0 136.735 0.0603224 136.66 0.13579 136.66L5.97697 136.162L2.92805 133.143C2.92805 133.143 2.86768 132.992 2.92805 132.932C2.97333 132.871 3.06391 132.856 3.13938 132.902L6.79207 135.483L7.41077 129.385C7.41077 129.309 7.48639 129.249 7.56186 129.249C7.63732 129.249 7.69766 129.309 7.71275 129.385L8.33164 135.483L11.9841 132.902C11.9841 132.902 12.1351 132.871 12.1955 132.932C12.2408 132.992 12.2408 133.083 12.1955 133.143L9.14656 136.162L14.9877 136.66C15.0632 136.66 15.1237 136.735 15.1237 136.811C15.1237 136.886 15.0632 136.962 14.9877 136.962L9.14656 137.46L12.1955 140.478C12.1955 140.478 12.2559 140.629 12.1955 140.69C12.1502 140.75 12.0596 140.765 11.9841 140.72L8.33164 138.139L7.71275 144.237C7.71275 144.312 7.63732 144.373 7.56186 144.373ZM6.92786 137.716C6.92786 137.716 6.9732 137.716 6.9883 137.716C7.03358 137.732 7.06367 137.792 7.07876 137.837L7.56186 142.697L8.04477 137.837C8.04477 137.837 8.09014 137.732 8.13542 137.716C8.1807 137.686 8.24103 137.701 8.28631 137.716L10.6559 139.392L8.67876 137.43C8.67876 137.43 8.61836 137.324 8.64854 137.264C8.66364 137.203 8.72396 137.173 8.78433 137.158L13.1615 136.796L8.78433 136.434C8.78433 136.434 8.67873 136.388 8.64854 136.328C8.63345 136.267 8.64857 136.207 8.67876 136.162L10.6559 134.2L8.28631 135.875C8.28631 135.875 8.1807 135.905 8.13542 135.875C8.09014 135.86 8.05986 135.8 8.04477 135.754L7.56186 130.894L7.07876 135.754C7.07876 135.754 7.03358 135.86 6.9883 135.875C6.94302 135.905 6.88268 135.89 6.8374 135.875L4.46762 134.2L6.44495 136.162C6.44495 136.162 6.50517 136.267 6.47499 136.328C6.45989 136.388 6.39957 136.418 6.3392 136.434L1.96204 136.796L6.3392 137.158C6.3392 137.158 6.4448 137.203 6.47499 137.264C6.49008 137.324 6.47514 137.384 6.44495 137.43L4.46762 139.392L6.8374 137.716C6.8374 137.716 6.89768 137.686 6.92786 137.686V137.716Z" fill="black"/>
<path d="M26.4732 113.926L34.1559 113.277L26.4732 112.628L30.5636 108.583L25.7487 111.994L24.9489 104.07L24.164 111.994L19.3491 108.583L23.4245 112.628L15.7568 113.277L23.4245 113.926L19.3491 117.971L24.164 114.56L24.9489 122.484L25.7487 114.56L30.5636 117.971L26.4732 113.926Z" fill="white"/>
<path d="M24.9499 122.636C24.8744 122.636 24.8139 122.575 24.7988 122.5L24.029 114.848L19.4407 118.093C19.4407 118.093 19.2898 118.123 19.2294 118.063C19.1841 118.002 19.1841 117.912 19.2294 117.851L23.0781 114.048L15.7276 113.429C15.6521 113.429 15.5918 113.353 15.5918 113.278C15.5918 113.202 15.6521 113.127 15.7276 113.127L23.0781 112.508L19.2294 108.704C19.2294 108.704 19.169 108.554 19.2294 108.493C19.2747 108.433 19.3652 108.418 19.4407 108.463L24.029 111.708L24.7988 104.056C24.7988 103.98 24.8744 103.92 24.9499 103.92C25.0253 103.92 25.0857 103.98 25.1008 104.056L25.8706 111.708L30.4589 108.463C30.4589 108.463 30.6098 108.433 30.6702 108.493C30.7155 108.554 30.7155 108.644 30.6702 108.704L26.8215 112.508L34.172 113.127C34.2474 113.127 34.3078 113.202 34.3078 113.278C34.3078 113.353 34.2474 113.429 34.172 113.429L26.8215 114.048L30.6702 117.851C30.6702 117.851 30.7306 118.002 30.6702 118.063C30.6249 118.123 30.5343 118.138 30.4589 118.093L25.8706 114.848L25.1008 122.5C25.1008 122.575 25.0253 122.636 24.9499 122.636ZM24.165 114.41C24.165 114.41 24.2101 114.41 24.2252 114.41C24.2705 114.425 24.3008 114.485 24.3159 114.531L24.9648 120.945L25.6139 114.531C25.6139 114.531 25.6593 114.425 25.7046 114.41C25.7498 114.38 25.8102 114.395 25.8554 114.41L29.1608 116.749L26.3837 114.002C26.3837 114.002 26.3233 113.897 26.3535 113.836C26.3837 113.776 26.4289 113.746 26.4893 113.731L32.3758 113.232L26.4893 112.734C26.4893 112.734 26.3837 112.689 26.3535 112.629C26.3384 112.569 26.3535 112.508 26.3837 112.463L29.1608 109.716L25.8554 112.055C25.8554 112.055 25.7498 112.086 25.7046 112.055C25.6593 112.04 25.629 111.98 25.6139 111.934L24.9648 105.52L24.3159 111.934C24.3159 111.934 24.2705 112.04 24.2252 112.055C24.18 112.086 24.1196 112.07 24.0743 112.055L20.7689 109.716L23.5461 112.463C23.5461 112.463 23.6065 112.569 23.5763 112.629C23.5612 112.689 23.5009 112.719 23.4405 112.734L17.5691 113.232L23.4405 113.731C23.4405 113.731 23.5461 113.776 23.5763 113.836C23.5914 113.897 23.5763 113.957 23.5461 114.002L20.7689 116.749L24.0743 114.41C24.0743 114.41 24.1348 114.38 24.165 114.38V114.41Z" fill="black"/>
<path d="M75.663 32.2874C76.7799 28.5291 74.7271 24.5896 71.0745 23.3217C71.1047 23.3067 71.135 23.2915 71.1651 23.2764C74.7121 21.3596 76.0252 16.9373 74.1083 13.3903C72.2518 9.94898 68.0106 8.60558 64.524 10.2961C64.524 10.2659 64.5542 10.2358 64.5542 10.2056C65.7013 6.34165 63.5127 2.28149 59.6488 1.13438C55.8905 0.0174621 51.951 2.07007 50.6832 5.73779C50.6681 5.7076 50.6529 5.67751 50.6378 5.64732C48.721 2.10035 44.2987 0.787105 40.7517 2.70398C37.3104 4.56048 35.967 8.8019 37.6575 12.2885C37.6273 12.2885 37.5972 12.2583 37.567 12.2583C33.7031 11.1112 29.6429 13.2997 28.4958 17.1637C27.3789 20.9219 29.4315 24.8613 33.0841 26.1291C33.0539 26.1442 33.0238 26.1593 32.9936 26.1744C29.4467 28.0913 28.1334 32.5138 30.0503 36.0608C31.9068 39.5021 36.1482 40.8453 39.6348 39.1548C39.6348 39.185 39.6046 39.2153 39.6046 39.2455C38.4575 43.1094 40.646 47.1696 44.51 48.3167C48.2683 49.4336 52.1925 47.3808 53.4754 43.7282C53.4905 43.7584 53.5057 43.7885 53.5208 43.8187C55.4376 47.3656 59.8601 48.6789 63.4071 46.762C66.8484 44.9055 68.1916 40.6643 66.5011 37.1777C66.5313 37.1777 66.5616 37.2077 66.5918 37.2077C70.4557 38.3548 74.5159 36.1662 75.663 32.3023V32.2874Z" fill="#EE89EF"/>
<path d="M46.6236 48.7709C45.9142 48.7709 45.2048 48.6654 44.4803 48.454C42.5785 47.8805 41.0087 46.6126 40.0578 44.8618C39.1522 43.1864 38.9259 41.2545 39.4089 39.4282C35.877 40.9375 31.7715 39.5337 29.9301 36.1377C28.0133 32.5907 29.2811 28.1834 32.7375 26.1609C29.1754 24.7421 27.2585 20.848 28.3603 17.135C29.5074 13.2711 33.5225 11.0373 37.3864 12.0636C35.862 8.53176 37.2656 4.42629 40.6767 2.58488C42.4275 1.63399 44.435 1.43775 46.3368 1.99621C48.1631 2.53958 49.6875 3.74704 50.6384 5.37714C52.0571 1.81508 55.9514 -0.101835 59.6644 0.999991C61.5662 1.57354 63.1358 2.8414 64.0867 4.59225C64.9923 6.26763 65.2188 8.19974 64.7358 10.0261C68.2526 8.50161 72.373 9.90521 74.2144 13.3163C75.1653 15.0672 75.3615 17.0746 74.8031 18.9764C74.2597 20.8027 73.0522 22.3271 71.4221 23.278C74.9842 24.6968 76.9011 28.5909 75.7993 32.3039C75.2257 34.2057 73.9579 35.7755 72.207 36.7264C70.5316 37.632 68.5997 37.8585 66.7734 37.3755C68.2978 40.9073 66.879 45.0126 63.4829 46.854C61.7321 47.8049 59.7247 48.0012 57.8229 47.4427C55.9966 46.8993 54.4722 45.6919 53.5213 44.0618C52.3742 46.9446 49.6121 48.7407 46.6236 48.7407V48.7709ZM39.6655 38.9904C39.6655 38.9904 39.7409 38.9904 39.7711 39.0206C39.8164 39.0659 39.8315 39.1262 39.8164 39.1866L39.7862 39.2771C39.2429 41.1034 39.4391 43.0355 40.3447 44.7109C41.2503 46.3863 42.7595 47.6087 44.5859 48.1521C48.2536 49.2388 52.1025 47.2767 53.3553 43.6542C53.3704 43.5939 53.4307 43.5638 53.4911 43.5487C53.5514 43.5487 53.6118 43.5787 53.6419 43.624C53.6419 43.6391 53.6571 43.6543 53.6722 43.6844V43.7147C54.5929 45.39 56.1023 46.6127 57.9286 47.156C59.7549 47.6994 61.6869 47.5032 63.3623 46.5976C66.7281 44.7864 68.0563 40.6506 66.381 37.2093C66.3508 37.1489 66.3659 37.0886 66.3961 37.0433C66.4413 36.998 66.5017 36.983 66.5621 36.9981L66.6525 37.0282C68.4788 37.5715 70.411 37.3753 72.0863 36.4697C73.7617 35.5641 74.9842 34.0548 75.5275 32.2285C76.6293 28.5608 74.6521 24.7119 71.0297 23.4591C70.9693 23.444 70.9241 23.3837 70.9241 23.3233C70.9241 23.263 70.9542 23.2026 70.9995 23.1724L71.0901 23.1271C72.7655 22.2215 73.9881 20.7122 74.5315 18.8859C75.0748 17.0596 74.8786 15.1275 73.973 13.4521C72.1618 10.0863 68.0261 8.75805 64.5847 10.4334C64.5244 10.4636 64.464 10.4485 64.4187 10.4183C64.3734 10.373 64.3585 10.3127 64.3736 10.2523L64.4036 10.1618C65.5356 6.38847 63.3774 2.40378 59.604 1.28686C55.9363 0.200131 52.0873 2.17735 50.8346 5.7847C50.8195 5.84507 50.7592 5.87518 50.6988 5.89027C50.6384 5.89027 50.5781 5.86019 50.5479 5.81491L50.5026 5.72426C49.597 4.04888 48.0877 2.82645 46.2614 2.28309C44.4351 1.73972 42.503 1.93593 40.8276 2.84154C37.4617 4.65276 36.1335 8.78833 37.8089 12.2296C37.8391 12.29 37.824 12.3504 37.7938 12.3957C37.7485 12.4409 37.6881 12.4561 37.6278 12.441L37.5373 12.4108C33.7639 11.2788 29.7792 13.437 28.6623 17.2104C27.5756 20.8781 29.5377 24.727 33.1602 25.9798C33.2205 25.9949 33.2506 26.0552 33.2657 26.1156C33.2657 26.176 33.2357 26.2363 33.1904 26.2665L33.0997 26.3118C29.6433 28.1834 28.3454 32.5153 30.217 35.9868C32.0282 39.3526 36.1638 40.6809 39.6051 39.0055C39.6202 39.0055 39.6504 38.9904 39.6655 38.9904Z" fill="black"/>
<path d="M61.0526 8.03157C60.6904 8.03157 60.3583 7.77493 60.2526 7.41268C59.5432 4.52982 56.7662 5.02803 56.4492 5.08841C56.0115 5.17897 55.5738 4.90722 55.4832 4.45441C55.3926 4.00161 55.6642 3.57897 56.1019 3.48841C56.1472 3.48841 57.2642 3.23186 58.5019 3.53373C59.7094 3.82051 61.264 4.66565 61.8375 7.02024C61.9432 7.45795 61.6714 7.89571 61.2337 8.01646C61.1734 8.03155 61.0979 8.04667 61.0375 8.04667L61.0526 8.03157Z" fill="white"/>
<path d="M60.2234 45.1161C59.6046 45.1161 59.0612 44.9952 58.6839 44.8443C58.2612 44.6783 58.0498 44.2105 58.2159 43.7878C58.3819 43.3652 58.8499 43.1689 59.2725 43.3199C59.4838 43.3953 61.4157 44.0595 62.593 42.0369C62.8194 41.6445 63.3175 41.5086 63.7099 41.7501C64.1024 41.9765 64.2232 42.4745 63.9968 42.867C62.9704 44.6178 61.4611 45.1161 60.2234 45.1161Z" fill="white"/>
<path d="M60.5396 24.5458C59.4226 26.191 59.3924 28.1078 60.4791 28.8323C61.5659 29.5568 63.362 28.8173 64.4789 27.1721C65.5959 25.5269 65.6261 23.6099 64.5394 22.8854C63.4526 22.1609 61.6565 22.9006 60.5396 24.5458Z" fill="black"/>
<path d="M61.445 29.2705C61.0677 29.2705 60.7055 29.1799 60.4037 28.9686C59.981 28.6818 59.6942 28.229 59.5886 27.6554C59.4074 26.6894 59.7094 25.4971 60.4188 24.4556C61.581 22.75 63.4675 21.9803 64.6297 22.75C65.0523 23.0368 65.3392 23.4896 65.4448 24.0632C65.626 25.0291 65.324 26.2215 64.6146 27.263C63.7543 28.5157 62.5016 29.2705 61.445 29.2705ZM63.5733 22.7651C62.6224 22.7651 61.4752 23.4745 60.6752 24.6367C60.0111 25.6027 59.7243 26.7196 59.8903 27.6101C59.9809 28.1082 60.2225 28.4855 60.5697 28.727C61.5809 29.4062 63.2865 28.6818 64.3581 27.097C65.0223 26.131 65.3089 25.0141 65.1429 24.1236C65.0523 23.6255 64.8109 23.2482 64.4637 23.0067C64.2071 22.8407 63.9053 22.75 63.5733 22.75V22.7651Z" fill="black"/>
<path d="M62.9695 25.314C62.6223 25.8272 62.6072 26.416 62.9242 26.6274C63.2411 26.8387 63.7846 26.6121 64.1317 26.0989C64.4789 25.5858 64.494 24.9971 64.177 24.7707C63.8601 24.5443 63.3166 24.7859 62.9695 25.2991V25.314Z" fill="white"/>
<path d="M63.1961 26.8681C63.0603 26.8681 62.9395 26.838 62.8339 26.7625C62.683 26.672 62.5923 26.5059 62.547 26.3097C62.4866 25.9776 62.5924 25.5852 62.8188 25.223C63.2263 24.6343 63.845 24.3777 64.2375 24.6494C64.6299 24.9211 64.6299 25.5852 64.2375 26.189C63.9507 26.6267 63.5282 26.8681 63.181 26.8681H63.1961ZM63.0904 25.4041C62.8941 25.6909 62.8037 26.0077 62.8641 26.2643C62.8943 26.3851 62.9395 26.4606 63.015 26.521C63.2565 26.687 63.7243 26.4607 64.011 26.023C64.2978 25.5853 64.3432 25.0872 64.1017 24.9061C63.8602 24.74 63.3922 24.9664 63.1055 25.4041H63.0904Z" fill="black"/>
<path d="M50.6234 17.9627C49.5065 19.6079 49.4765 21.5249 50.5632 22.2494C51.6499 22.9738 53.4461 22.2343 54.563 20.5891C55.6799 18.9439 55.71 17.0269 54.6233 16.3024C53.5365 15.5779 51.7404 16.3175 50.6234 17.9627Z" fill="black"/>
<path d="M51.5144 22.6722C51.137 22.6722 50.7747 22.5817 50.4728 22.3704C50.0502 22.0837 49.7787 21.646 49.6579 21.0724C49.4768 20.1064 49.7785 18.9141 50.4879 17.8726C51.6501 16.167 53.552 15.3973 54.6991 16.167C55.1217 16.4538 55.4085 16.9066 55.5142 17.4802C55.6953 18.4461 55.3934 19.6385 54.684 20.68C53.8236 21.9327 52.5709 22.6873 51.5144 22.6873V22.6722ZM50.7446 18.0386C50.0805 19.0197 49.7937 20.1215 49.9597 21.012C50.0503 21.5101 50.2917 21.8874 50.6388 22.1138C51.6501 22.793 53.3557 22.0686 54.4273 20.4989C55.0914 19.5329 55.3782 18.416 55.2122 17.5406C55.1216 17.0425 54.8802 16.6652 54.5331 16.4237C53.5218 15.7445 51.8162 16.4689 50.7446 18.0386Z" fill="black"/>
<path d="M53.2195 18.8398C52.8723 19.353 52.8572 19.9416 53.1742 20.168C53.4911 20.3793 54.0346 20.153 54.3817 19.6398C54.7289 19.1266 54.7438 18.538 54.4269 18.3267C54.1099 18.1154 53.5666 18.3568 53.2195 18.8549V18.8398Z" fill="white"/>
<path d="M53.4605 20.3947C53.3247 20.3947 53.2039 20.3644 53.0983 20.2889C52.9473 20.1983 52.8569 20.0324 52.8116 19.8362C52.7512 19.5041 52.8568 19.1116 53.0983 18.7493C53.4907 18.1607 54.1247 17.9041 54.5172 18.1758C54.6681 18.2814 54.7586 18.4324 54.8038 18.6287C54.8642 18.9607 54.7587 19.3531 54.5172 19.7153C54.2304 20.1531 53.8076 20.3947 53.4605 20.3947ZM53.3398 18.9304C53.1436 19.2172 53.053 19.5494 53.1134 19.7909C53.1285 19.8663 53.1737 19.9719 53.2643 20.0474C53.5058 20.2134 53.9737 19.987 54.2605 19.5493C54.4567 19.2626 54.5473 18.9457 54.502 18.6891C54.487 18.6136 54.4417 18.4928 54.3511 18.4324C54.1097 18.2664 53.6417 18.4927 53.3549 18.9304H53.3398Z" fill="black"/>
<path d="M46.0651 29.1764C45.8538 27.6972 46.1253 25.9464 47.2272 23.9541L59.5284 32.1649C59.5284 32.1649 57.4756 34.6553 54.3966 35.2138C52.9174 33.3422 50.0498 30.4292 46.0651 29.1915V29.1764Z" fill="white"/>
<path d="M54.412 35.3505C54.412 35.3505 54.3215 35.3356 54.2913 35.2903C52.948 33.5998 50.0803 30.581 46.0201 29.3131C45.9597 29.2981 45.9144 29.2528 45.9144 29.1925C45.6729 27.502 46.0804 25.7058 47.0917 23.8644C47.1068 23.8342 47.1522 23.8042 47.1975 23.7891C47.2427 23.7891 47.288 23.7889 47.3181 23.804L59.6194 32.0149C59.6194 32.0149 59.6947 32.1055 59.6796 32.1658C59.6645 32.2715 57.4911 34.7921 54.4271 35.3354C54.4271 35.3354 54.412 35.3354 54.3969 35.3354L54.412 35.3505ZM46.2163 29.0567C50.2463 30.3396 53.0989 33.313 54.4724 35.0336C57.0232 34.5507 58.8495 32.6941 59.3023 32.181L47.2879 24.1664C46.3823 25.8569 46.0201 27.502 46.2012 29.0567H46.2163Z" fill="black"/>
<path d="M54.4125 35.2005C52.9183 35.4722 51.1976 35.2911 49.3411 34.1289C48.1035 33.3591 46.4282 31.6535 46.0811 29.1631C50.0808 30.4008 52.9333 33.3138 54.4125 35.1854V35.2005Z" fill="#EB5EF4"/>
<path d="M53.22 35.4572C51.8766 35.4572 50.5484 35.0497 49.2655 34.2648C47.8769 33.4045 46.2617 31.6235 45.9297 29.1934C45.9297 29.1481 45.9297 29.0878 45.975 29.0576C46.0203 29.0274 46.0655 29.0123 46.1259 29.0274C50.2615 30.3103 53.1747 33.3895 54.5331 35.1101C54.5633 35.1554 54.5784 35.2157 54.5633 35.261C54.5482 35.3063 54.5028 35.3515 54.4424 35.3515C54.0349 35.427 53.6275 35.4572 53.22 35.4572ZM46.2619 29.3896C46.6543 31.5782 48.1334 33.2082 49.4164 33.993C50.9408 34.9439 52.5256 35.3063 54.1255 35.0799C52.752 33.3894 50.0353 30.6273 46.2619 29.3896Z" fill="black"/>
<path d="M234.221 74.7299C235.247 71.681 233.677 68.4056 230.719 67.2585C230.749 67.2585 230.764 67.2434 230.794 67.2283C233.753 65.7642 234.96 62.1721 233.496 59.2288C232.077 56.346 228.636 55.1385 225.738 56.4215C225.738 56.3913 225.753 56.3761 225.768 56.3459C226.825 53.2216 225.134 49.8255 222.01 48.7841C218.961 47.7577 215.686 49.3275 214.539 52.2859C214.539 52.2557 214.524 52.2405 214.509 52.2103C213.045 49.252 209.452 48.0445 206.509 49.5085C203.641 50.9424 202.419 54.3687 203.702 57.2666C203.671 57.2666 203.656 57.2515 203.626 57.2364C200.502 56.1799 197.106 57.8703 196.064 60.9947C195.038 64.0285 196.608 67.319 199.566 68.4661C199.536 68.4661 199.521 68.4812 199.49 68.4963C196.532 69.9603 195.325 73.5525 196.789 76.4957C198.208 79.3786 201.649 80.586 204.547 79.3031C204.547 79.3333 204.532 79.3484 204.517 79.3786C203.46 82.503 205.151 85.899 208.275 86.9405C211.324 87.9668 214.599 86.397 215.746 83.4387C215.746 83.4689 215.761 83.484 215.776 83.5142C217.24 86.4726 220.833 87.6801 223.776 86.216C226.659 84.7972 227.866 81.3559 226.583 78.4579C226.614 78.4579 226.629 78.4731 226.659 78.4882C229.783 79.5447 233.179 77.8542 234.221 74.7299Z" fill="#EB5EF4"/>
<path d="M210.176 87.4387C209.527 87.4387 208.863 87.3331 208.199 87.1067C205.074 86.0502 203.354 82.7296 204.244 79.6053C201.316 80.692 198.026 79.4091 196.607 76.5715C195.143 73.6282 196.275 70.0511 199.112 68.4663C196.275 67.1531 194.856 63.9231 195.867 60.9195C196.924 57.7952 200.244 56.0745 203.369 56.965C202.282 54.0369 203.565 50.7464 206.403 49.3276C207.882 48.6032 209.542 48.4825 211.097 49.0107C212.561 49.5088 213.753 50.505 214.508 51.8332C215.821 48.9956 219.051 47.5768 222.055 48.5881C223.609 49.1163 224.877 50.2182 225.602 51.6823C226.281 53.0709 226.432 54.6103 226.009 56.0895C228.937 55.0028 232.227 56.2857 233.646 59.1233C235.11 62.0665 233.978 65.6437 231.141 67.2285C233.978 68.5416 235.397 71.7717 234.386 74.7753C233.858 76.3299 232.756 77.5979 231.292 78.3224C229.918 79.0016 228.364 79.1524 226.884 78.7297C227.971 81.6579 226.688 84.9484 223.851 86.3671C220.907 87.8312 217.33 86.6992 215.745 83.8616C214.719 86.0803 212.515 87.4387 210.176 87.4387ZM204.531 79.1222C204.531 79.1222 204.622 79.1373 204.652 79.1675C204.697 79.2128 204.727 79.2883 204.697 79.3637L204.682 79.4091C203.656 82.458 205.286 85.7634 208.32 86.7747C211.263 87.7709 214.447 86.2766 215.564 83.3787C215.594 83.3183 215.655 83.2729 215.73 83.2578C215.791 83.2578 215.866 83.2881 215.896 83.3636L215.911 83.4089C217.345 86.2917 220.832 87.469 223.685 86.0502C226.462 84.6767 227.654 81.356 226.402 78.5184C226.371 78.458 226.386 78.3828 226.432 78.3224C226.477 78.2771 226.552 78.2469 226.628 78.2771V78.4128H226.673L226.703 78.3224C228.167 78.8205 229.737 78.7147 231.126 78.0204C232.514 77.3261 233.541 76.1489 234.039 74.6848C235.035 71.7416 233.541 68.5568 230.643 67.4398C230.582 67.4097 230.537 67.3493 230.522 67.2738C230.522 67.1984 230.567 67.138 230.628 67.1078L230.673 67.0927C233.571 65.6588 234.733 62.1722 233.314 59.3195C231.941 56.5423 228.635 55.3501 225.783 56.6028C225.722 56.633 225.647 56.6179 225.586 56.5726C225.541 56.5273 225.511 56.4519 225.541 56.3915L225.556 56.3462C226.054 54.8519 225.949 53.2823 225.269 51.8936C224.575 50.505 223.398 49.4786 221.934 48.9805C218.99 47.9844 215.806 49.4786 214.689 52.3766C214.659 52.4369 214.598 52.4821 214.523 52.4972C214.447 52.4972 214.387 52.4671 214.357 52.3917L214.342 52.3463C212.908 49.4484 209.421 48.2862 206.554 49.705C203.776 51.0785 202.584 54.399 203.837 57.2366C203.867 57.297 203.852 57.3725 203.807 57.4328C203.761 57.4781 203.686 57.5084 203.61 57.4782L203.565 57.4631C200.516 56.4367 197.211 58.0669 196.199 61.1006C195.203 64.0439 196.697 67.2285 199.595 68.3454C199.656 68.3756 199.701 68.4361 199.716 68.5116C199.716 68.5871 199.671 68.6474 199.611 68.6776L199.505 68.587V68.6172L199.535 68.7076C196.667 70.1264 195.505 73.6131 196.924 76.4808C198.297 79.258 201.618 80.4505 204.456 79.1977C204.486 79.1977 204.501 79.1826 204.531 79.1826V79.1222Z" fill="black"/>
<path d="M213.8 64.6186C214.691 66.143 216.125 66.9431 217 66.4299C217.875 65.9016 217.86 64.2563 216.955 62.7319C216.064 61.2075 214.63 60.4076 213.755 60.9208C212.879 61.449 212.895 63.0941 213.8 64.6186Z" fill="black"/>
<path d="M216.395 66.7615C216.259 66.7615 216.108 66.7464 215.942 66.7011C215.112 66.4898 214.237 65.7352 213.633 64.7088C212.667 63.0788 212.682 61.343 213.648 60.7695C213.965 60.5733 214.358 60.5279 214.795 60.6486C215.625 60.8599 216.486 61.5996 217.105 62.641C218.071 64.2711 218.055 66.0069 217.089 66.5955C216.878 66.7163 216.652 66.7766 216.395 66.7766V66.7615ZM213.95 64.5277C214.509 65.4635 215.309 66.1729 216.033 66.354C216.365 66.4445 216.667 66.4143 216.908 66.2633C217.693 65.7954 217.648 64.2409 216.803 62.8071C216.244 61.8713 215.444 61.1617 214.72 60.9806C214.388 60.8901 214.086 60.9203 213.844 61.0713C213.075 61.5392 213.12 63.124 213.95 64.5277Z" fill="black"/>
<path d="M215.369 63.1246C215.611 63.5321 216.003 63.7584 216.23 63.6226C216.456 63.4867 216.456 63.0341 216.199 62.6266C215.958 62.219 215.565 61.9925 215.339 62.1283C215.113 62.2642 215.113 62.717 215.369 63.1246Z" fill="white"/>
<path d="M204.894 69.2672C205.784 70.7916 207.218 71.6066 208.094 71.0783C208.969 70.5501 208.954 68.9049 208.048 67.3805C207.158 65.8561 205.724 65.056 204.849 65.5692C203.973 66.0974 203.988 67.7578 204.894 69.2672Z" fill="black"/>
<path d="M207.505 71.41C207.355 71.41 207.204 71.3949 207.053 71.3496C206.222 71.1383 205.362 70.3837 204.743 69.3573C203.777 67.7273 203.792 65.9915 204.758 65.418C205.075 65.2218 205.468 65.1916 205.905 65.2973C206.736 65.5086 207.596 66.2632 208.215 67.2895C209.181 68.9196 209.166 70.6554 208.2 71.244C207.988 71.3648 207.762 71.4252 207.505 71.4252V71.41ZM205.468 65.584C205.272 65.584 205.106 65.6292 204.955 65.7198C204.185 66.1877 204.23 67.7725 205.06 69.1762C205.619 70.112 206.419 70.8214 207.143 71.0025C207.475 71.0931 207.777 71.063 208.019 70.912C208.803 70.4441 208.758 68.8894 207.913 67.4556C207.355 66.5198 206.555 65.8104 205.83 65.6293C205.709 65.5991 205.589 65.584 205.468 65.584Z" fill="black"/>
<path d="M206.449 67.9073C206.69 68.3148 207.083 68.5412 207.309 68.4053C207.535 68.2695 207.535 67.8166 207.279 67.4091C207.037 66.9865 206.645 66.7752 206.419 66.9111C206.192 67.0469 206.207 67.4998 206.449 67.9073Z" fill="white"/>
<path d="M212.562 77.7188C212.064 77.7188 211.566 77.6736 211.068 77.568C209.423 77.2057 208.004 76.2548 206.857 74.7153C206.796 74.6398 206.811 74.519 206.887 74.4586C206.962 74.3982 207.083 74.4134 207.143 74.4888C208.23 75.9529 209.589 76.8584 211.143 77.2055C213.392 77.6885 215.717 76.9038 217.135 75.9831C218.841 74.8963 220.018 73.5227 220.607 71.9228C221.603 69.2211 220.607 66.7609 220.471 66.4892C220.441 66.4288 220.456 66.3382 220.501 66.293L220.758 66.5345L220.622 66.4138L220.788 66.3383C220.909 66.6251 221.965 69.2061 220.924 72.0286C220.305 73.7039 219.097 75.1226 217.316 76.2546C216.154 76.9942 214.403 77.6735 212.547 77.6735L212.562 77.7188Z" fill="black"/>
<path d="M199.022 65.4623C198.66 65.4623 198.328 65.2661 198.162 64.9189C196.924 62.3228 198.388 60.2096 199.339 59.47C199.746 59.1379 200.35 59.2136 200.682 59.6211C201.014 60.0286 200.939 60.6324 200.531 60.9644C200.365 61.1003 199.022 62.2775 199.897 64.1038C200.124 64.5868 199.928 65.1452 199.445 65.3716C199.309 65.432 199.173 65.4623 199.037 65.4623H199.022Z" fill="white"/>
<path d="M35.6055 69.0699C38.4884 78.0657 33.3867 87.7405 24.2099 90.6838C15.033 93.627 5.25247 88.7216 2.36961 79.7259C2.32433 79.6051 1.56977 77.2354 1.53958 77.0996C-1.08669 68.2095 4.72427 61.01 13.7653 58.0969C22.7912 55.199 31.6813 57.6592 34.7453 66.3682C34.7906 66.5191 35.5603 68.9039 35.6206 69.0548L35.6055 69.0699Z" fill="#ED8037"/>
<path d="M18.8064 91.6345C11.4256 91.6345 4.60346 87.0159 2.27906 79.7559C2.23378 79.6201 1.47903 77.2504 1.44884 77.1297C0.196083 72.8733 0.799874 68.783 3.19974 65.2964C5.43358 62.0664 9.17675 59.4702 13.7501 58.0061C18.3083 56.5421 22.8514 56.4666 26.5342 57.7948C30.5038 59.2287 33.3867 62.172 34.8508 66.3529C34.9111 66.5038 35.711 69.0245 35.7261 69.0396C38.6241 78.0806 33.4772 87.8308 24.2702 90.7892C22.459 91.3627 20.6327 91.6496 18.8215 91.6496L18.8064 91.6345ZM20.7988 57.0552C18.5499 57.0552 16.1802 57.4326 13.7954 58.2023C9.26736 59.6513 5.55429 62.2173 3.35064 65.4171C0.980959 68.8584 0.392291 72.8883 1.62996 77.0692C1.66014 77.19 2.41489 79.5596 2.46017 79.6804C5.32794 88.6157 15.0633 93.4911 24.1797 90.578C33.2962 87.6499 38.3676 78.0201 35.515 69.0847C35.4546 68.8885 34.6998 66.5491 34.6545 66.3982C33.2056 62.2928 30.3832 59.3796 26.4589 57.9759C24.7382 57.3571 22.8213 57.0552 20.7988 57.0552Z" fill="black"/>
<path d="M34.7444 66.3836C37.6272 75.3793 32.5256 85.0542 23.3487 87.9974C14.1719 90.9406 4.39133 86.0352 1.50847 77.0395C-1.37439 68.0438 3.7271 58.3689 12.904 55.4257C22.0808 52.4824 31.8615 57.3879 34.7444 66.3836Z" fill="#F8D85B"/>
<path d="M17.9009 88.9639C15.1841 88.9639 12.4975 88.3299 10.0221 87.0923C5.87142 85.0094 2.80732 81.4473 1.40362 77.0702C-1.49433 68.0292 3.65269 58.2787 12.8597 55.3204C17.3274 53.8865 22.0667 54.2488 26.2174 56.3317C30.3681 58.4146 33.4321 61.9767 34.8358 66.3538C36.2394 70.7309 35.8168 75.4099 33.6584 79.5153C31.5 83.6207 27.8475 86.6697 23.3798 88.1036C21.5837 88.6772 19.7423 88.9639 17.9009 88.9639ZM18.3536 54.6564C16.5424 54.6564 14.7161 54.9431 12.9351 55.5166C3.8186 58.4448 -1.25283 68.0744 1.59985 77.0097C2.98845 81.3416 6.00717 84.8434 10.1126 86.9112C14.218 88.9639 18.897 89.3262 23.3194 87.9074C27.7267 86.4886 31.3491 83.4699 33.4773 79.4097C35.6206 75.3496 36.0281 70.731 34.6395 66.4143C33.2509 62.0824 30.2322 58.5806 26.1268 56.5128C23.6816 55.2903 21.0253 54.6564 18.3387 54.6564H18.3536Z" fill="black"/>
<path d="M14.4448 60.2256C21.5086 57.9616 29.0251 61.5237 31.6061 68.2252C31.5458 67.9686 31.4703 67.712 31.3797 67.4554C29.0704 60.2709 21.2672 56.3618 13.9468 58.7013C6.62647 61.0559 2.55118 68.7837 4.84539 75.9531C4.92086 76.2097 5.0115 76.4512 5.11716 76.7077C3.33612 69.7496 7.36597 62.4896 14.4297 60.2256H14.4448Z" fill="#ED8037"/>
<path d="M5.13169 76.813C5.13169 76.813 5.05613 76.7827 5.04104 76.7525C4.93538 76.4658 4.84474 76.2243 4.76928 75.9979C3.65236 72.4962 3.98459 68.7681 5.70525 65.4777C7.441 62.2025 10.354 59.7572 13.916 58.6101C17.4781 57.463 21.2816 57.7498 24.587 59.4101C27.9076 61.0704 30.3528 63.923 31.4698 67.4247C31.5452 67.6511 31.6207 67.8926 31.6962 68.1945C31.6962 68.2397 31.6811 68.3002 31.6358 68.3153C31.5905 68.3304 31.5302 68.3153 31.5151 68.2549C28.9341 61.5685 21.4477 58.0819 14.4745 60.3157C7.50128 62.5495 3.44112 69.734 5.22215 76.677C5.22215 76.7223 5.207 76.7828 5.16172 76.7979C5.16172 76.7979 5.14678 76.7979 5.13169 76.7979V76.813ZM18.3083 58.1272C16.8593 58.1272 15.4104 58.3535 13.9916 58.8064C10.4748 59.9384 7.59193 62.3382 5.88636 65.5682C4.31664 68.5416 3.90907 71.8774 4.70903 75.0772C3.87888 68.587 7.89365 62.2175 14.414 60.1346C20.9344 58.0517 27.8925 60.8892 31.0018 66.6549C29.7943 63.5909 27.5153 61.1157 24.5117 59.6064C22.5646 58.6253 20.4365 58.1272 18.3083 58.1272Z" fill="black"/>
<path d="M22.2934 84.7077C29.3572 82.4437 33.4021 75.1686 31.606 68.2256C29.0099 61.524 21.5085 57.9619 14.4447 60.2259C7.38095 62.49 3.33601 69.7651 5.13214 76.7081C7.72822 83.4096 15.2297 86.9717 22.2934 84.7077Z" fill="#F8D85B"/>
<path d="M17.9764 85.4909C12.3616 85.4909 7.12422 82.1551 5.04132 76.7517C3.2301 69.6879 7.35057 62.3977 14.4143 60.1337C21.4932 57.8697 29.0853 61.4015 31.7116 68.1936C33.5228 75.2573 29.4022 82.5475 22.3384 84.8115C20.8894 85.2794 19.4253 85.4909 17.9764 85.4909ZM18.7764 59.6506C17.3576 59.6506 15.9086 59.862 14.4748 60.3299C7.50156 62.5638 3.4414 69.7482 5.22244 76.6912C7.80342 83.3626 15.2899 86.8492 22.2631 84.6153C29.2362 82.3815 33.2964 75.197 31.5154 68.254C29.4627 62.9411 24.3006 59.6506 18.7764 59.6506Z" fill="black"/>
<path d="M18.3683 74.6402L19.7872 79.0778L16.7836 80.0436L13.4478 69.6292C13.312 69.2066 13.2367 68.8442 13.2216 68.5272C13.2065 68.2103 13.2517 67.9387 13.3574 67.6972C13.4781 67.4557 13.6592 67.2444 13.9309 67.0783C14.2026 66.8972 14.5497 66.7464 14.9874 66.6105L17.5232 65.7954C18.1571 65.5992 18.7608 65.4785 19.3494 65.4785C19.9381 65.4785 20.4816 65.569 20.9646 65.7652C21.4626 65.9614 21.9003 66.2784 22.2777 66.7161C22.655 67.1538 22.9569 67.7123 23.1833 68.4066L23.2586 68.6481C23.485 69.3424 23.5605 69.9764 23.5002 70.5499C23.4398 71.1235 23.2738 71.6367 22.987 72.0895C22.7003 72.5423 22.3229 72.9346 21.8399 73.2666C21.3569 73.5987 20.7985 73.8704 20.1646 74.0666L18.3532 74.6402H18.3683ZM17.5534 72.1044L19.2137 71.5762C19.4552 71.5007 19.6665 71.38 19.8174 71.2442C19.9835 71.0932 20.1042 70.9273 20.1948 70.7461C20.2853 70.565 20.3306 70.3537 20.3306 70.1575C20.3306 69.9462 20.3154 69.7499 20.2399 69.5386L20.2099 69.433C20.1495 69.2217 20.0438 69.0406 19.923 68.8746C19.8023 68.7085 19.6363 68.5727 19.4703 68.467C19.2892 68.3613 19.093 68.301 18.8816 68.2859C18.6703 68.2708 18.4287 68.2858 18.1872 68.3763L16.9496 68.7688C16.7836 68.8141 16.678 68.8895 16.6327 68.9499C16.5874 69.0254 16.6026 69.1461 16.6478 69.3272L17.5383 72.1044H17.5534Z" fill="black"/>
<path d="M153.441 208.413C150.754 208.745 147.992 208.459 145.396 207.417L44.7824 166.891C41.0242 165.382 38.1867 162.529 36.8283 158.892C35.4548 155.224 35.7265 151.209 37.583 147.557L77.8977 68.2855C81.7012 60.7991 91.1196 57.2521 98.8777 60.3765L199.506 100.903C203.264 102.412 206.087 105.264 207.46 108.902C208.834 112.57 208.562 116.585 206.706 120.237L166.391 199.508C163.855 204.504 158.829 207.734 153.456 208.413H153.441ZM90.9234 60.1198C85.7916 60.7689 80.9918 63.8631 78.5768 68.6326L38.2621 147.904C36.4962 151.36 36.2547 155.179 37.5528 158.635C38.8357 162.076 41.5224 164.763 45.0844 166.197L145.698 206.723C153.109 209.711 162.089 206.315 165.727 199.176L206.042 119.905C207.807 116.449 208.049 112.63 206.751 109.174C205.468 105.732 202.781 103.046 199.219 101.612L98.5908 61.0858C96.1155 60.0897 93.4742 59.8029 90.9083 60.1349L90.9234 60.1198Z" fill="black"/>
<path d="M160.006 186.105C156.278 193.441 147.101 196.897 139.494 193.833L38.8654 153.307C31.2734 150.243 28.1339 141.821 31.862 134.501L72.1766 55.2294C75.9047 47.894 85.0815 44.4376 92.6887 47.5016L193.317 88.0276C200.909 91.0916 204.049 99.5137 200.32 106.834L160.006 186.105Z" fill="#9DA5F8"/>
<path d="M147.387 195.192C144.701 195.524 141.939 195.237 139.342 194.196L38.7143 153.67C34.956 152.16 32.1335 149.308 30.76 145.67C29.3865 142.002 29.6581 137.988 31.5146 134.335L71.8293 55.0638C75.6329 47.5774 85.0513 44.0305 92.8093 47.1548L193.438 87.6808C197.196 89.1902 200.018 92.0429 201.392 95.6805C202.765 99.3482 202.494 103.363 200.637 107.015L160.322 186.287C157.787 191.283 152.761 194.513 147.387 195.207V195.192ZM84.8701 46.8982C79.7383 47.5472 74.9385 50.6414 72.5084 55.4109L32.1938 134.682C30.4278 138.138 30.1864 141.957 31.4844 145.413C32.7674 148.855 35.454 151.541 39.0161 152.975L139.644 193.501C147.055 196.49 156.036 193.094 159.673 185.955L199.988 106.683C201.754 103.227 201.996 99.4084 200.713 95.952C199.43 92.5107 196.743 89.8241 193.181 88.3902L92.5527 47.8642C90.0773 46.868 87.436 46.5812 84.8852 46.9133L84.8701 46.8982Z" fill="black"/>
<path d="M39.3788 137.534C37.6884 140.854 39.1222 144.688 42.5635 146.077L143.192 186.603C146.633 187.991 150.814 186.422 152.505 183.101L185.348 118.516L72.2374 72.9639L39.3939 137.549L39.3788 137.534Z" fill="white"/>
<path d="M146.784 187.402C145.532 187.553 144.234 187.417 143.041 186.934L42.4279 146.408C40.662 145.699 39.3489 144.37 38.6999 142.665C38.0508 140.944 38.1867 139.058 39.047 137.352L71.8905 72.7668C71.981 72.5857 72.1922 72.5102 72.3734 72.5857L185.484 118.138C185.59 118.183 185.665 118.259 185.695 118.349C185.726 118.455 185.726 118.561 185.68 118.651L152.837 183.236C151.645 185.56 149.305 187.07 146.799 187.387L146.784 187.402ZM72.4036 73.4308L39.711 137.714C38.9412 139.224 38.8357 140.899 39.3941 142.408C39.9526 143.918 41.1298 145.095 42.6995 145.729L143.313 186.255C146.573 187.568 150.543 186.074 152.142 182.919L184.805 118.696L72.4036 73.4308Z" fill="black"/>
<path d="M189.619 95.2731L88.9905 54.7469C85.5492 53.3583 81.3683 54.9281 79.6929 58.2487L72.2217 72.9346L185.332 118.487L192.804 103.801C194.494 100.48 193.06 96.6466 189.619 95.258V95.2731Z" fill="#5B68EF"/>
<path d="M185.378 118.879C185.378 118.879 185.257 118.879 185.196 118.849L72.0859 73.2964C71.9802 73.2511 71.9047 73.1756 71.8745 73.0851C71.8444 72.9794 71.8444 72.8738 71.8897 72.7833L79.3609 58.0973C81.1419 54.6107 85.519 52.9503 89.1414 54.4144L189.77 94.9404C191.521 95.6498 192.849 96.9782 193.498 98.6838C194.147 100.404 194.026 102.291 193.151 103.997L185.68 118.683C185.619 118.803 185.513 118.864 185.393 118.894L185.378 118.879ZM72.7499 72.7531L185.151 118.018L192.457 103.649C193.226 102.14 193.332 100.465 192.773 98.9402C192.215 97.4309 191.038 96.2537 189.483 95.6348L88.8547 55.1088C85.5945 53.7957 81.625 55.2899 80.0251 58.4444L72.7499 72.7682V72.7531Z" fill="black"/>
<path d="M97.5638 65.3277C96.5677 67.2898 94.1074 68.2105 92.0849 67.3955C90.0624 66.5804 89.2171 64.3316 90.2133 62.3694C91.2095 60.4073 93.6546 59.4866 95.6923 60.3016C97.7299 61.1167 98.56 63.3655 97.5638 65.3277Z" fill="black"/>
<path d="M182.405 99.4976C181.408 101.46 178.948 102.38 176.926 101.565C174.903 100.75 174.058 98.5015 175.054 96.5393C176.05 94.5772 178.511 93.6565 180.533 94.4715C182.556 95.2866 183.401 97.5354 182.405 99.4976Z" fill="black"/>
<path d="M102.031 47.7582C100.839 47.2752 99.3898 47.8185 98.8012 48.9807L92.3109 61.7498C92.0241 62.3233 91.9789 62.9573 92.1902 63.5309C92.4015 64.1044 92.8543 64.5572 93.4429 64.7987C93.8353 64.9647 94.2731 65.0099 94.6807 64.9496C95.5108 64.8439 96.2805 64.346 96.6729 63.5762L103.163 50.807C103.45 50.2334 103.495 49.5996 103.284 49.026C103.073 48.4525 102.62 47.9997 102.031 47.7582Z" fill="#FBF76C"/>
<path d="M94.7262 65.326C94.2432 65.3864 93.745 65.326 93.3073 65.1449C92.613 64.8732 92.0999 64.345 91.8433 63.6657C91.5867 62.9865 91.6319 62.247 91.9791 61.5828L98.4694 48.8138C99.1486 47.4856 100.809 46.8667 102.182 47.4251C102.877 47.7119 103.39 48.2251 103.646 48.9043C103.903 49.5835 103.858 50.3231 103.511 50.9872L97.0204 63.7564C96.5827 64.6016 95.7073 65.2052 94.7413 65.326H94.7262ZM100.824 47.9685C100.114 48.059 99.4654 48.4817 99.1183 49.1307L92.6282 61.8999C92.3867 62.3829 92.3413 62.8961 92.5224 63.3791C92.7035 63.8621 93.0659 64.2242 93.564 64.4204C94.545 64.8129 95.843 64.3149 96.3109 63.3791L102.801 50.6098C103.043 50.1268 103.073 49.6137 102.892 49.1307C102.711 48.6628 102.348 48.2856 101.85 48.0893C101.518 47.9535 101.156 47.9081 100.794 47.9534L100.824 47.9685Z" fill="black"/>
<path d="M188.125 83.199C187.914 82.6255 187.461 82.1726 186.872 81.9311C185.68 81.4481 184.231 81.9915 183.642 83.1537L177.152 95.9228C176.865 96.4963 176.82 97.1303 177.031 97.7039C177.242 98.2774 177.695 98.7302 178.284 98.9717C178.676 99.1377 179.114 99.1829 179.521 99.1226C180.352 99.0169 181.121 98.519 181.514 97.7492L188.004 84.98C188.291 84.4064 188.336 83.7726 188.125 83.199Z" fill="#FBF76C"/>
<path d="M179.567 99.4979C179.084 99.5582 178.586 99.4979 178.134 99.3168C177.439 99.0451 176.926 98.5168 176.669 97.8376C176.413 97.1584 176.458 96.4188 176.805 95.7547L183.295 82.9857C183.975 81.6574 185.635 81.0385 187.009 81.597C187.703 81.8687 188.216 82.3969 188.473 83.0761C188.729 83.7553 188.684 84.4949 188.337 85.159L181.847 97.9283C181.409 98.7735 180.548 99.3771 179.567 99.4979ZM185.68 82.1555C184.971 82.246 184.322 82.6687 183.99 83.3177L177.5 96.0867C177.258 96.5546 177.228 97.0831 177.394 97.566C177.575 98.049 177.937 98.4112 178.435 98.6074C179.416 98.9998 180.714 98.5169 181.182 97.566L187.673 84.7968C187.914 84.3138 187.959 83.7856 187.778 83.3177C187.597 82.8498 187.235 82.4725 186.737 82.2763C186.39 82.1405 186.027 82.0951 185.68 82.1403V82.1555Z" fill="black"/>
<path d="M89.141 103.845C88.6278 104.856 87.3751 105.324 86.3185 104.902L78.0473 101.566C77.0059 101.143 76.5681 99.9813 77.0813 98.9851L81.1415 91.0006C81.6547 89.9893 82.9226 89.5215 83.964 89.929L92.2352 93.2646C93.2767 93.6872 93.7144 94.8496 93.2012 95.8457L89.141 103.83V103.845Z" fill="#7BF98B"/>
<path d="M87.4362 105.416C87.0136 105.477 86.576 105.416 86.1684 105.265L77.8972 101.93C77.2935 101.688 76.8407 101.235 76.6143 100.647C76.3879 100.058 76.4331 99.4091 76.735 98.8204L80.7952 90.8359C81.399 89.6586 82.878 89.1003 84.0855 89.5983L92.3567 92.9339C92.9605 93.1754 93.4132 93.6282 93.6396 94.2168C93.866 94.8055 93.8208 95.4546 93.519 96.0433L89.4589 104.028C89.0665 104.812 88.2664 105.326 87.4211 105.431L87.4362 105.416ZM82.9233 90.187C82.3196 90.2625 81.7612 90.6246 81.4744 91.183L77.4141 99.1676C77.2179 99.56 77.1878 99.9978 77.3237 100.375C77.4746 100.768 77.7764 101.069 78.1688 101.22L86.4402 104.556C87.3005 104.903 88.357 104.511 88.7796 103.665L92.8398 95.6811C93.036 95.2886 93.0661 94.8508 92.9303 94.4584C92.7794 94.066 92.4776 93.764 92.0852 93.6131L83.8139 90.2775C83.5272 90.1567 83.2101 90.1266 82.9233 90.1719V90.187Z" fill="black"/>
<path d="M106.893 110.999C106.38 112.011 105.112 112.479 104.07 112.056L95.7993 108.72C94.7578 108.298 94.3201 107.136 94.8333 106.139L98.8935 98.1549C99.4067 97.1436 100.659 96.6758 101.716 97.0833L109.987 100.419C111.029 100.842 111.466 102.004 110.953 103.015L106.893 110.999Z" fill="#7BF98B"/>
<path d="M105.202 112.569C104.779 112.629 104.342 112.569 103.934 112.418L95.6629 109.082C95.0591 108.84 94.6063 108.388 94.3799 107.799C94.1535 107.21 94.1988 106.561 94.5006 105.973L98.5607 97.9883C99.1644 96.811 100.644 96.2526 101.851 96.7507L110.122 100.086C110.726 100.328 111.179 100.781 111.405 101.369C111.632 101.958 111.586 102.607 111.285 103.196L107.224 111.18C106.832 111.965 106.032 112.478 105.187 112.584L105.202 112.569ZM100.674 97.3393C100.07 97.4148 99.5117 97.7769 99.2249 98.3354L95.1647 106.32C94.9684 106.712 94.9384 107.15 95.0893 107.527C95.2402 107.92 95.542 108.222 95.9344 108.373L104.206 111.708C105.081 112.056 106.123 111.663 106.545 110.818L110.605 102.833C110.802 102.441 110.832 102.003 110.696 101.611C110.545 101.218 110.243 100.917 109.836 100.766L101.564 97.4298C101.278 97.3091 100.976 97.279 100.674 97.3242V97.3393Z" fill="black"/>
<path d="M124.642 118.138C124.129 119.15 122.861 119.618 121.819 119.195L113.548 115.86C112.507 115.437 112.069 114.275 112.582 113.278L116.643 105.294C117.156 104.283 118.424 103.815 119.465 104.237L127.736 107.573C128.778 107.996 129.215 109.158 128.702 110.154L124.642 118.138Z" fill="#7BF98B"/>
<path d="M122.952 119.723C122.529 119.783 122.092 119.723 121.684 119.572L113.413 116.236C112.809 115.995 112.356 115.542 112.13 114.953C111.903 114.365 111.949 113.716 112.251 113.127L116.311 105.143C116.915 103.965 118.394 103.407 119.616 103.905L127.888 107.241C128.491 107.482 128.944 107.935 129.17 108.523C129.397 109.112 129.352 109.761 129.05 110.35L124.99 118.334C124.597 119.119 123.797 119.632 122.952 119.738V119.723ZM118.424 104.479C117.82 104.554 117.262 104.916 116.975 105.475L112.915 113.459C112.719 113.852 112.688 114.289 112.839 114.667C112.99 115.059 113.292 115.361 113.685 115.512L121.956 118.848C122.816 119.195 123.873 118.802 124.295 117.957L128.355 109.973C128.552 109.58 128.582 109.142 128.446 108.765C128.295 108.373 127.993 108.071 127.601 107.92L119.329 104.584C119.043 104.463 118.726 104.433 118.439 104.479H118.424Z" fill="black"/>
<path d="M142.392 125.293C141.879 126.305 140.626 126.773 139.569 126.365L131.298 123.029C130.257 122.607 129.819 121.445 130.332 120.448L134.392 112.464C134.906 111.453 136.173 110.985 137.215 111.407L145.486 114.743C146.528 115.166 146.965 116.328 146.452 117.324L142.392 125.308V125.293Z" fill="#7BF98B"/>
<path d="M140.701 126.863C140.278 126.923 139.841 126.863 139.433 126.712L131.162 123.376C130.558 123.135 130.105 122.682 129.879 122.093C129.652 121.504 129.698 120.855 130 120.267L134.06 112.282C134.664 111.105 136.143 110.547 137.365 111.045L145.637 114.38C146.24 114.622 146.693 115.075 146.92 115.663C147.146 116.252 147.101 116.901 146.799 117.49L142.739 125.474C142.346 126.259 141.546 126.772 140.701 126.878V126.863ZM136.173 111.633C135.569 111.709 135.011 112.071 134.724 112.629L130.664 120.614C130.468 121.006 130.437 121.444 130.588 121.821C130.739 122.214 131.041 122.516 131.434 122.667L139.705 126.002C140.565 126.349 141.622 125.957 142.044 125.112L146.104 117.127C146.301 116.735 146.331 116.297 146.195 115.905C146.044 115.512 145.742 115.21 145.35 115.06L137.079 111.724C136.792 111.603 136.475 111.573 136.188 111.618L136.173 111.633Z" fill="black"/>
<path d="M160.143 132.449C159.63 133.46 158.377 133.928 157.32 133.505L149.049 130.17C148.008 129.747 147.57 128.585 148.083 127.589L152.143 119.604C152.656 118.593 153.924 118.125 154.966 118.532L163.237 121.868C164.279 122.291 164.716 123.453 164.203 124.464L160.143 132.449Z" fill="#7BF98B"/>
<path d="M158.452 134.018C158.029 134.078 157.591 134.018 157.184 133.867L148.912 130.531C148.309 130.29 147.856 129.837 147.645 129.248C147.418 128.66 147.464 128.011 147.765 127.422L151.825 119.438C152.414 118.26 153.893 117.702 155.116 118.2L163.387 121.535C163.991 121.777 164.444 122.23 164.67 122.819C164.896 123.407 164.851 124.056 164.549 124.645L160.489 132.629C160.097 133.414 159.297 133.927 158.452 134.033V134.018ZM153.923 118.789C153.32 118.864 152.761 119.226 152.475 119.785L148.414 127.769C148.218 128.162 148.188 128.599 148.339 128.992C148.49 129.384 148.792 129.686 149.184 129.837L157.455 133.173C158.331 133.52 159.372 133.127 159.795 132.282L163.855 124.298C164.051 123.905 164.081 123.467 163.946 123.09C163.795 122.698 163.493 122.396 163.085 122.23L154.814 118.894C154.527 118.773 154.21 118.743 153.923 118.789Z" fill="black"/>
<path d="M79.9349 121.941C79.4218 122.953 78.1539 123.421 77.1125 122.998L68.8413 119.662C67.7998 119.239 67.3621 118.077 67.8752 117.081L71.9353 109.097C72.4485 108.085 73.7165 107.618 74.758 108.04L83.0292 111.376C84.0706 111.798 84.5084 112.961 83.9952 113.957L79.9349 121.941Z" fill="#7BF98B"/>
<path d="M78.2303 123.511C77.8077 123.571 77.37 123.511 76.9625 123.36L68.6913 120.024C68.0875 119.783 67.6346 119.33 67.4082 118.741C67.1818 118.153 67.2272 117.504 67.5291 116.915L71.5891 108.931C72.1929 107.753 73.6721 107.195 74.8947 107.693L83.1659 111.029C83.7696 111.27 84.2224 111.723 84.4488 112.312C84.6752 112.9 84.63 113.549 84.3281 114.138L80.2679 122.122C79.8755 122.907 79.0755 123.42 78.2303 123.526V123.511ZM73.7174 108.282C73.1136 108.357 72.5552 108.719 72.2684 109.278L68.2082 117.262C68.012 117.655 67.9819 118.093 68.1177 118.485C68.2687 118.877 68.5704 119.179 68.9629 119.33L77.2341 122.666C78.0944 123.013 79.151 122.62 79.5736 121.775L83.6337 113.791C83.8299 113.398 83.8602 112.961 83.7244 112.583C83.5734 112.191 83.2715 111.889 82.879 111.738L74.6078 108.402C74.321 108.282 74.0041 108.252 73.7174 108.297V108.282Z" fill="black"/>
<path d="M97.6849 129.082C97.1718 130.094 95.9039 130.562 94.8625 130.139L86.5913 126.803C85.5498 126.381 85.1121 125.219 85.6252 124.222L89.6853 116.238C90.1985 115.227 91.4663 114.759 92.5078 115.166L100.779 118.502C101.821 118.925 102.258 120.087 101.745 121.083L97.6849 129.068V129.082Z" fill="#7BF98B"/>
<path d="M95.9935 130.665C95.5709 130.726 95.1332 130.665 94.7257 130.514L86.4545 127.179C85.8508 126.937 85.3978 126.484 85.1865 125.896C84.9601 125.307 85.0055 124.658 85.3074 124.069L89.3674 116.085C89.9712 114.908 91.4504 114.349 92.6579 114.847L100.929 118.183C101.533 118.424 101.986 118.877 102.212 119.466C102.438 120.055 102.393 120.704 102.091 121.292L98.0311 129.277C97.6387 130.062 96.8387 130.575 95.9935 130.68V130.665ZM91.4655 115.421C90.8617 115.496 90.3033 115.859 90.0165 116.417L85.9563 124.401C85.7601 124.794 85.73 125.232 85.8658 125.609C86.0168 126.001 86.3185 126.303 86.711 126.454L94.9822 129.79C95.8425 130.137 96.8991 129.745 97.3217 128.899L101.382 120.915C101.578 120.523 101.608 120.085 101.472 119.707C101.322 119.315 101.02 119.013 100.627 118.862L92.3559 115.526C92.0691 115.406 91.7673 115.376 91.4655 115.421Z" fill="black"/>
<path d="M115.436 136.236C114.923 137.248 113.655 137.715 112.613 137.293L104.342 133.957C103.301 133.535 102.863 132.372 103.376 131.376L107.436 123.392C107.949 122.38 109.217 121.912 110.259 122.335L118.53 125.671C119.572 126.093 120.009 127.256 119.496 128.252L115.436 136.236Z" fill="#7BF98B"/>
<path d="M113.744 137.806C113.321 137.866 112.884 137.806 112.476 137.655L104.205 134.319C103.601 134.078 103.148 133.625 102.922 133.036C102.695 132.448 102.741 131.799 103.043 131.21L107.103 123.226C107.691 122.048 109.186 121.49 110.408 121.988L118.68 125.324C119.283 125.565 119.736 126.018 119.962 126.607C120.189 127.195 120.144 127.844 119.842 128.433L115.782 136.417C115.389 137.202 114.589 137.715 113.744 137.821V137.806ZM109.216 122.577C108.612 122.652 108.054 123.014 107.767 123.573L103.707 131.557C103.511 131.95 103.48 132.387 103.616 132.765C103.767 133.157 104.069 133.459 104.461 133.61L112.733 136.946C113.593 137.293 114.65 136.9 115.072 136.055L119.132 128.071C119.328 127.678 119.359 127.24 119.223 126.863C119.072 126.471 118.77 126.169 118.378 126.003L110.106 122.667C109.82 122.546 109.503 122.516 109.201 122.562L109.216 122.577Z" fill="black"/>
<path d="M133.185 143.392C132.672 144.403 131.404 144.871 130.362 144.448L122.091 141.112C121.05 140.69 120.612 139.528 121.125 138.531L125.185 130.547C125.698 129.536 126.966 129.068 128.008 129.49L136.279 132.826C137.32 133.249 137.758 134.411 137.245 135.407L133.185 143.392Z" fill="#7BF98B"/>
<path d="M131.495 144.96C131.072 145.021 130.635 144.96 130.227 144.809L121.956 141.474C121.352 141.232 120.899 140.779 120.673 140.191C120.446 139.602 120.492 138.953 120.794 138.364L124.854 130.38C125.458 129.203 126.937 128.644 128.159 129.142L136.431 132.478C137.034 132.719 137.487 133.172 137.698 133.761C137.925 134.35 137.88 134.999 137.578 135.587L133.517 143.572C133.125 144.357 132.325 144.87 131.48 144.975L131.495 144.96ZM126.982 129.731C126.378 129.806 125.82 130.169 125.533 130.727L121.473 138.711C121.277 139.104 121.246 139.542 121.382 139.919C121.533 140.311 121.835 140.613 122.228 140.764L130.499 144.1C131.374 144.447 132.416 144.055 132.838 143.209L136.898 135.225C137.095 134.833 137.125 134.395 136.989 134.017C136.838 133.625 136.536 133.323 136.144 133.172L127.872 129.836C127.586 129.716 127.269 129.686 126.982 129.731Z" fill="black"/>
<path d="M150.935 150.546C150.422 151.557 149.154 152.025 148.112 151.602L139.841 148.267C138.8 147.844 138.362 146.682 138.875 145.686L142.935 137.701C143.448 136.69 144.716 136.222 145.758 136.645L154.029 139.98C155.07 140.403 155.508 141.565 154.995 142.561L150.935 150.546Z" fill="#7BF98B"/>
<path d="M149.244 152.115C148.821 152.176 148.384 152.116 147.976 151.965L139.705 148.629C139.101 148.387 138.648 147.935 138.422 147.346C138.196 146.757 138.241 146.108 138.543 145.52L142.603 137.535C143.207 136.358 144.686 135.799 145.908 136.298L154.18 139.633C154.783 139.875 155.236 140.328 155.463 140.916C155.689 141.505 155.644 142.154 155.342 142.742L151.282 150.727C150.889 151.512 150.089 152.025 149.244 152.131V152.115ZM144.731 136.871C144.127 136.947 143.569 137.309 143.282 137.867L139.222 145.852C139.026 146.244 138.995 146.682 139.131 147.059C139.282 147.452 139.584 147.754 139.977 147.905L148.248 151.24C149.108 151.587 150.165 151.195 150.587 150.365L154.647 142.38C154.844 141.988 154.874 141.55 154.738 141.173C154.587 140.78 154.285 140.478 153.893 140.312L145.622 136.977C145.335 136.856 145.018 136.826 144.731 136.871Z" fill="black"/>
<path d="M70.7289 140.024C70.2157 141.035 68.9479 141.503 67.9064 141.081L59.6352 137.745C58.5937 137.323 58.156 136.16 58.6692 135.164L62.7293 127.18C63.2424 126.169 64.5103 125.701 65.5517 126.123L73.8229 129.459C74.8644 129.881 75.3021 131.044 74.7889 132.04L70.7289 140.024Z" fill="#7BF98B"/>
<path d="M69.0379 141.609C68.6153 141.669 68.1776 141.609 67.7701 141.458L59.4987 138.122C58.895 137.881 58.4422 137.428 58.2158 136.839C57.9894 136.25 58.0348 135.601 58.3367 135.013L62.3967 127.028C63.0005 125.851 64.4797 125.293 65.6872 125.791L73.9584 129.126C74.5621 129.368 75.0149 129.821 75.2413 130.409C75.4677 130.998 75.4225 131.647 75.1206 132.236L71.0604 140.22C70.668 141.005 69.868 141.518 69.0228 141.624L69.0379 141.609ZM64.525 126.364C63.9212 126.44 63.3626 126.802 63.0759 127.361L59.0158 135.345C58.8196 135.737 58.7893 136.175 58.9252 136.552C59.0761 136.945 59.3781 137.247 59.7856 137.413L68.0568 140.748C68.9171 141.096 69.9737 140.703 70.3964 139.858L74.4564 131.873C74.6526 131.481 74.6829 131.043 74.5471 130.666C74.3961 130.273 74.0942 129.972 73.7018 129.821L65.4305 126.485C65.1438 126.364 64.8269 126.334 64.5401 126.379L64.525 126.364Z" fill="black"/>
<path d="M88.4779 147.18C87.9647 148.191 86.6969 148.659 85.6554 148.236L77.3842 144.901C76.3428 144.478 75.905 143.331 76.4182 142.319L80.4783 134.335C80.9915 133.324 82.2593 132.856 83.3008 133.278L91.572 136.614C92.6134 137.037 93.0511 138.199 92.538 139.195L88.4779 147.18Z" fill="#7BF98B"/>
<path d="M86.788 148.748C86.3654 148.809 85.9275 148.748 85.52 148.597L77.2488 145.262C76.6451 145.02 76.1923 144.568 75.9659 143.979C75.7395 143.39 75.7847 142.741 76.0866 142.152L80.1468 134.168C80.7505 132.991 82.2298 132.432 83.4373 132.93L91.7085 136.266C92.3122 136.507 92.765 136.96 92.9914 137.549C93.2178 138.138 93.1726 138.787 92.8707 139.375L88.8105 147.36C88.418 148.145 87.6181 148.658 86.7729 148.763L86.788 148.748ZM82.275 133.519C81.6713 133.594 81.1127 133.957 80.8259 134.515L76.7659 142.5C76.5697 142.892 76.5394 143.33 76.6752 143.707C76.8262 144.1 77.1281 144.401 77.5206 144.552L85.7918 147.888C86.6521 148.235 87.7087 147.843 88.1313 146.998L92.1914 139.013C92.3876 138.621 92.4179 138.183 92.282 137.806C92.1311 137.413 91.8291 137.111 91.4216 136.96L83.1504 133.625C82.8636 133.504 82.5467 133.474 82.2599 133.519H82.275Z" fill="black"/>
<path d="M106.243 154.334C105.729 155.345 104.462 155.813 103.42 155.39L95.1487 152.055C94.1073 151.632 93.6697 150.47 94.1829 149.474L98.243 141.489C98.7561 140.478 100.024 140.01 101.065 140.433L109.337 143.769C110.378 144.191 110.816 145.353 110.303 146.349L106.243 154.334Z" fill="#7BF98B"/>
<path d="M104.537 155.904C104.114 155.964 103.677 155.904 103.269 155.753L94.9978 152.417C94.3941 152.176 93.9413 151.723 93.7149 151.134C93.4885 150.546 93.5337 149.896 93.8356 149.308L97.8958 141.323C98.4996 140.146 99.9786 139.588 101.201 140.086L109.473 143.421C110.076 143.663 110.529 144.116 110.756 144.704C110.982 145.293 110.937 145.942 110.635 146.531L106.575 154.515C106.182 155.3 105.382 155.813 104.537 155.919V155.904ZM100.024 140.674C99.4203 140.75 98.8617 141.112 98.575 141.671L94.5149 149.655C94.3187 150.047 94.2884 150.485 94.4243 150.862C94.5752 151.255 94.8771 151.557 95.2696 151.723L103.541 155.058C104.401 155.406 105.458 155.013 105.88 154.168L109.94 146.183C110.137 145.791 110.167 145.353 110.031 144.976C109.88 144.583 109.578 144.282 109.171 144.116L100.899 140.78C100.613 140.659 100.296 140.629 100.009 140.674H100.024Z" fill="black"/>
<path d="M123.994 161.488C123.481 162.5 122.213 162.967 121.171 162.545L112.9 159.209C111.858 158.787 111.421 157.624 111.934 156.628L115.994 148.644C116.507 147.632 117.775 147.164 118.817 147.587L127.088 150.923C128.129 151.345 128.567 152.508 128.054 153.504L123.994 161.488Z" fill="#7BF98B"/>
<path d="M122.287 163.058C121.864 163.118 121.427 163.058 121.019 162.907L112.748 159.571C112.144 159.33 111.691 158.877 111.465 158.288C111.239 157.7 111.284 157.051 111.586 156.462L115.646 148.478C116.25 147.3 117.729 146.742 118.951 147.24L127.222 150.576C127.826 150.817 128.279 151.27 128.506 151.859C128.732 152.447 128.687 153.096 128.385 153.685L124.325 161.669C123.932 162.454 123.132 162.967 122.287 163.073V163.058ZM117.774 147.813C117.17 147.889 116.612 148.251 116.325 148.81L112.265 156.794C112.069 157.187 112.038 157.624 112.174 158.002C112.325 158.394 112.627 158.696 113.035 158.862L121.306 162.198C122.166 162.545 123.223 162.152 123.645 161.307L127.706 153.323C127.902 152.93 127.932 152.492 127.796 152.115C127.645 151.723 127.343 151.421 126.951 151.27L118.68 147.934C118.393 147.814 118.076 147.783 117.774 147.829V147.813Z" fill="black"/>
<path d="M141.744 168.626C141.23 169.637 139.963 170.105 138.921 169.682L130.65 166.347C129.608 165.924 129.171 164.762 129.684 163.766L133.744 155.781C134.257 154.77 135.525 154.302 136.567 154.725L144.838 158.06C145.879 158.483 146.317 159.645 145.804 160.641L141.744 168.626Z" fill="#7BF98B"/>
<path d="M140.038 170.198C139.615 170.258 139.178 170.198 138.77 170.047L130.499 166.711C129.895 166.47 129.442 166.017 129.216 165.428C128.989 164.839 129.035 164.19 129.337 163.602L133.397 155.617C134.001 154.44 135.48 153.881 136.687 154.38L144.958 157.715C145.562 157.957 146.015 158.41 146.241 158.998C146.468 159.587 146.422 160.236 146.121 160.825L142.06 168.809C141.668 169.594 140.868 170.107 140.023 170.213L140.038 170.198ZM135.525 154.968C134.921 155.044 134.363 155.406 134.076 155.964L130.016 163.949C129.82 164.341 129.789 164.779 129.925 165.156C130.076 165.549 130.378 165.851 130.771 166.002L139.042 169.337C139.902 169.684 140.959 169.292 141.381 168.447L145.441 160.462C145.638 160.07 145.668 159.632 145.532 159.255C145.381 158.862 145.079 158.561 144.687 158.394L136.416 155.059C136.129 154.938 135.812 154.908 135.525 154.953V154.968Z" fill="black"/>
<path d="M86.9833 92.1189L83.6626 83.2139L77.7461 85.4477L81.0515 94.3378L83.0891 99.7865L89.0058 97.5527L101.669 92.768L99.6468 87.3344L86.9833 92.1189Z" fill="#E87B3C"/>
<path d="M83.1354 100.148C83.1354 100.148 82.9995 100.148 82.924 100.117C82.8335 100.072 82.758 99.9966 82.7278 99.906L77.3848 85.5823C77.3094 85.3861 77.4149 85.1749 77.6111 85.0994L83.5278 82.8654C83.6184 82.8352 83.7241 82.8352 83.8147 82.8654C83.9052 82.9107 83.9805 82.9862 84.0107 83.0767L87.1956 91.6197L99.4967 86.9861C99.5872 86.9559 99.693 86.9559 99.7835 86.9861C99.8741 87.0314 99.9496 87.1067 99.9798 87.1972L102.002 92.631C102.078 92.8273 101.972 93.0385 101.776 93.114L83.1958 100.117C83.1958 100.117 83.1353 100.132 83.1052 100.132L83.1354 100.148ZM78.23 85.673L83.3014 99.3023L101.172 92.5555L99.4062 87.8312L87.105 92.465C87.0144 92.4952 86.9088 92.4952 86.8183 92.465C86.7277 92.4198 86.6522 92.3443 86.6221 92.2537L83.4374 83.7107L78.2149 85.6879L78.23 85.673Z" fill="black"/>
<path d="M217.135 156.143C209.755 169.411 192.79 174.044 179.266 166.513C165.742 158.981 160.761 142.122 168.142 128.854C168.248 128.673 170.195 125.172 170.3 124.99C177.847 112.146 192.669 111.044 206.012 118.47C219.324 125.881 226.207 138.997 219.339 152.159C219.218 152.385 217.256 155.917 217.135 156.128V156.143Z" fill="#ED8037"/>
<path d="M193.061 170.303C188.261 170.303 183.507 169.08 179.175 166.665C172.594 162.998 167.81 157.036 165.697 149.881C163.584 142.727 164.399 135.226 167.991 128.781C168.066 128.63 170.044 125.098 170.149 124.917C173.757 118.774 179.22 114.985 185.952 113.974C192.201 113.038 199.34 114.578 206.087 118.336C212.819 122.079 217.89 127.332 220.381 133.097C223.067 139.331 222.75 145.942 219.475 152.236C219.384 152.432 217.981 154.938 217.452 155.889L217.271 156.221C213.679 162.681 207.732 167.314 200.533 169.292C198.072 169.971 195.552 170.303 193.046 170.303H193.061ZM189.62 114.034C188.382 114.034 187.175 114.125 185.997 114.306C179.371 115.302 173.983 119.03 170.436 125.083C170.33 125.264 168.368 128.781 168.278 128.932C164.731 135.301 163.916 142.712 166.014 149.776C168.097 156.855 172.836 162.741 179.341 166.364C185.847 169.986 193.348 170.907 200.457 168.96C207.566 167.013 213.438 162.424 216.984 156.055L217.166 155.723C217.634 154.862 219.082 152.266 219.173 152.085C222.403 145.882 222.72 139.361 220.063 133.233C217.603 127.528 212.577 122.336 205.906 118.623C200.502 115.619 194.827 114.034 189.59 114.034H189.62Z" fill="black"/>
<path d="M219.338 152.175C211.958 165.442 194.993 170.076 181.469 162.544C167.945 155.013 162.949 138.153 170.345 124.886C177.726 111.619 194.691 106.985 208.215 114.517C221.753 122.049 226.734 138.908 219.338 152.175Z" fill="#F8D85B"/>
<path d="M195.28 166.331C190.48 166.331 185.726 165.108 181.394 162.693C174.813 159.025 170.029 153.063 167.916 145.909C165.802 138.755 166.618 131.253 170.21 124.808C173.802 118.348 179.749 113.715 186.948 111.737C194.148 109.76 201.725 110.696 208.306 114.364C214.886 118.031 219.671 123.993 221.784 131.148C223.897 138.302 223.082 145.804 219.49 152.248C215.898 158.708 209.951 163.342 202.751 165.319C200.291 165.999 197.77 166.331 195.28 166.331ZM194.404 111.073C191.929 111.073 189.454 111.405 187.009 112.07C179.9 114.017 174.028 118.605 170.481 124.974C166.934 131.344 166.119 138.755 168.217 145.819C170.3 152.882 175.04 158.784 181.545 162.406C188.05 166.029 195.552 166.949 202.661 165.002C209.77 163.055 215.641 158.467 219.188 152.097C222.735 145.728 223.55 138.317 221.452 131.253C219.369 124.19 214.63 118.288 208.125 114.666C203.853 112.281 199.144 111.073 194.404 111.073Z" fill="black"/>
<path d="M204.26 121.611C214.674 127.407 218.734 140.131 213.723 150.531C213.95 150.168 214.176 149.806 214.387 149.429C220.289 138.848 216.304 125.385 205.512 119.378C194.72 113.37 181.182 117.068 175.28 127.649C175.069 128.026 174.873 128.404 174.691 128.796C180.895 119.061 193.845 115.816 204.26 121.627V121.611Z" fill="#ED8037"/>
<path d="M213.739 150.695C213.739 150.695 213.679 150.695 213.664 150.68C213.588 150.634 213.558 150.544 213.588 150.468C218.584 140.099 214.464 127.481 204.185 121.76C193.906 116.04 181.016 119.165 174.843 128.885C174.798 128.96 174.707 128.975 174.617 128.945C174.541 128.9 174.511 128.809 174.556 128.734C174.768 128.296 174.964 127.919 175.145 127.587C178.013 122.425 182.767 118.727 188.518 117.142C194.269 115.572 200.336 116.312 205.589 119.24C216.456 125.292 220.456 138.877 214.524 149.517C214.343 149.849 214.116 150.212 213.86 150.619C213.83 150.665 213.769 150.695 213.724 150.695H213.739ZM193.242 118.561C197 118.561 200.834 119.497 204.351 121.459C213.935 126.802 218.252 138.046 214.932 148.008C219.746 137.745 215.686 125.217 205.438 119.496C200.261 116.614 194.268 115.874 188.608 117.429C183.416 118.847 179.069 122.032 176.202 126.455C180.458 121.338 186.767 118.561 193.242 118.561Z" fill="black"/>
<path d="M184.171 157.7C194.586 163.495 207.536 160.25 213.739 150.53C218.75 140.131 214.69 127.407 204.276 121.611C193.861 115.815 180.911 119.06 174.708 128.78C169.697 139.18 173.757 151.889 184.171 157.7Z" fill="#F8D85B"/>
<path d="M195.19 160.749C191.431 160.749 187.598 159.813 184.081 157.851C173.651 152.04 169.47 139.241 174.542 128.72C180.836 118.849 193.907 115.665 204.336 121.476C214.766 127.287 218.947 140.071 213.875 150.606C209.71 157.141 202.57 160.749 195.175 160.749H195.19ZM184.247 157.564C194.51 163.285 207.415 160.16 213.604 150.44C218.6 140.086 214.464 127.483 204.2 121.762C193.922 116.042 181.032 119.166 174.859 128.887C169.863 139.241 173.998 151.844 184.262 157.564H184.247Z" fill="black"/>
<path d="M191.672 142.049L188.019 148.599L183.582 146.124L192.125 130.774C192.472 130.155 192.819 129.657 193.166 129.295C193.514 128.917 193.891 128.676 194.298 128.54C194.706 128.419 195.159 128.404 195.657 128.525C196.155 128.646 196.728 128.887 197.378 129.234L201.121 131.317C202.056 131.83 202.841 132.434 203.505 133.113C204.154 133.792 204.637 134.532 204.954 135.332C205.256 136.132 205.362 136.992 205.271 137.928C205.181 138.849 204.849 139.83 204.275 140.841L204.079 141.203C203.505 142.23 202.856 143.015 202.117 143.588C201.377 144.147 200.592 144.524 199.747 144.675C198.902 144.841 198.026 144.811 197.106 144.614C196.185 144.418 195.249 144.056 194.329 143.528L191.657 142.034L191.672 142.049ZM193.755 138.306L196.2 139.679C196.562 139.875 196.909 139.996 197.257 140.026C197.604 140.056 197.936 140.026 198.253 139.92C198.57 139.815 198.857 139.649 199.098 139.438C199.355 139.226 199.566 138.954 199.732 138.653L199.823 138.502C199.989 138.2 200.094 137.883 200.155 137.551C200.2 137.219 200.2 136.902 200.124 136.57C200.049 136.253 199.913 135.951 199.702 135.664C199.49 135.392 199.204 135.151 198.842 134.94L197.015 133.928C196.774 133.793 196.577 133.747 196.457 133.777C196.321 133.808 196.185 133.958 196.049 134.215L193.77 138.306H193.755Z" fill="black"/>
<path d="M145.878 161.955C143.583 171.117 134.135 176.656 124.792 174.302C115.449 171.962 109.729 162.634 112.023 153.457C112.053 153.337 112.657 150.922 112.702 150.786C115.162 141.851 123.901 138.787 133.124 141.096C142.315 143.405 148.579 150.167 146.572 159.193C146.542 159.344 145.923 161.789 145.893 161.94L145.878 161.955Z" fill="#ED8037"/>
<path d="M129.11 174.95C127.676 174.95 126.212 174.769 124.763 174.406C120.22 173.259 116.371 170.452 113.941 166.497C111.511 162.543 110.787 157.894 111.904 153.441C111.934 153.321 112.537 150.906 112.583 150.77C113.76 146.499 116.432 143.329 120.311 141.638C123.918 140.069 128.461 139.842 133.125 141.004C137.774 142.167 141.683 144.506 144.113 147.57C146.739 150.875 147.615 154.906 146.664 159.222C146.649 159.313 146.422 160.234 146.015 161.864L145.985 161.969C144.038 169.757 136.928 174.934 129.11 174.934V174.95ZM127.359 140.491C124.839 140.491 122.469 140.944 120.416 141.85C116.598 143.525 113.971 146.634 112.809 150.845C112.779 150.966 112.16 153.396 112.13 153.517C111.028 157.924 111.738 162.498 114.137 166.407C116.537 170.316 120.326 173.093 124.824 174.21C134.106 176.534 143.494 171.025 145.773 161.939L145.804 161.833C146.317 159.766 146.438 159.252 146.453 159.192C147.388 154.951 146.528 150.981 143.947 147.721C141.547 144.687 137.683 142.378 133.08 141.231C131.133 140.748 129.201 140.506 127.344 140.506L127.359 140.491Z" fill="black"/>
<path d="M146.574 159.207C144.28 168.369 134.831 173.908 125.488 171.554C116.145 169.214 110.425 159.887 112.719 150.71C115.013 141.548 124.462 136.009 133.805 138.363C143.148 140.703 148.868 150.03 146.574 159.207Z" fill="#F8D85B"/>
<path d="M129.835 172.219C128.371 172.219 126.907 172.038 125.458 171.675C120.914 170.528 117.066 167.721 114.635 163.766C112.205 159.812 111.481 155.163 112.598 150.71C113.715 146.243 116.537 142.5 120.552 140.145C124.567 137.79 129.276 137.126 133.819 138.273C143.207 140.628 148.973 150.031 146.679 159.238C145.562 163.706 142.74 167.449 138.725 169.804C135.993 171.404 132.944 172.219 129.835 172.219ZM129.442 137.941C126.378 137.941 123.36 138.756 120.658 140.326C116.703 142.65 113.911 146.348 112.809 150.756C111.707 155.163 112.417 159.736 114.817 163.645C117.216 167.555 121.005 170.332 125.503 171.449C130.001 172.581 134.649 171.917 138.604 169.592C142.558 167.268 145.351 163.57 146.453 159.163C148.732 150.076 143.042 140.779 133.759 138.454C132.325 138.092 130.876 137.911 129.427 137.911L129.442 137.941Z" fill="black"/>
<path d="M132.567 143.269C139.766 145.065 144.264 152.069 142.936 159.117C143.011 158.861 143.087 158.604 143.147 158.347C144.974 151.027 140.415 143.586 132.959 141.715C125.503 139.843 117.956 144.265 116.13 151.57C116.069 151.827 116.009 152.099 115.964 152.355C118.122 145.503 125.382 141.458 132.582 143.269H132.567Z" fill="#ED8037"/>
<path d="M142.935 159.238C142.935 159.238 142.92 159.238 142.905 159.238C142.844 159.238 142.814 159.163 142.829 159.117C144.158 152.084 139.645 145.171 132.551 143.39C125.457 141.609 118.212 145.579 116.069 152.416C116.054 152.476 115.993 152.506 115.933 152.491C115.872 152.491 115.842 152.416 115.857 152.371C115.918 152.084 115.963 151.827 116.023 151.586C117.865 144.22 125.472 139.768 132.988 141.639C140.505 143.526 145.108 151.042 143.267 158.408C143.207 158.649 143.131 158.891 143.041 159.178C143.041 159.223 142.98 159.253 142.935 159.253V159.238ZM129.124 142.741C130.272 142.741 131.434 142.877 132.596 143.179C139.177 144.824 143.584 150.831 143.267 157.321C144.429 150.424 139.977 143.616 132.943 141.85C125.894 140.084 118.77 143.994 116.537 150.62C118.816 145.79 123.766 142.741 129.124 142.741Z" fill="black"/>
<path d="M126.317 168.218C133.517 170.014 140.777 165.984 142.935 159.132C144.263 152.068 139.765 145.08 132.566 143.283C125.366 141.487 118.106 145.517 115.948 152.37C114.62 159.434 119.117 166.422 126.317 168.218Z" fill="#F8D85B"/>
<path d="M129.774 168.762C128.627 168.762 127.465 168.626 126.303 168.324C119.088 166.513 114.5 159.494 115.858 152.34C118.047 145.382 125.397 141.352 132.612 143.163C139.826 144.974 144.415 151.993 143.057 159.147C141.23 164.988 135.751 168.762 129.789 168.762H129.774ZM129.125 142.952C123.254 142.952 117.866 146.665 116.069 152.4C114.741 159.434 119.254 166.332 126.348 168.113C133.442 169.894 140.687 165.924 142.83 159.087C144.158 152.053 139.645 145.156 132.551 143.375C131.404 143.088 130.257 142.952 129.125 142.952Z" fill="black"/>
<path d="M128.295 157.592L127.163 162.121L124.099 161.351L126.755 150.74C126.861 150.318 126.997 149.955 127.132 149.683C127.283 149.412 127.464 149.201 127.691 149.05C127.917 148.914 128.189 148.823 128.506 148.823C128.823 148.823 129.2 148.868 129.653 148.974L132.234 149.623C132.883 149.789 133.457 150.016 133.955 150.317C134.453 150.619 134.86 150.982 135.177 151.419C135.494 151.857 135.69 152.355 135.781 152.929C135.872 153.502 135.826 154.136 135.66 154.846L135.6 155.102C135.419 155.812 135.162 156.385 134.8 156.853C134.453 157.306 134.03 157.653 133.547 157.894C133.064 158.121 132.536 158.257 131.947 158.287C131.359 158.317 130.74 158.242 130.106 158.091L128.264 157.623L128.295 157.592ZM128.944 155.012L130.634 155.434C130.876 155.495 131.117 155.51 131.328 155.48C131.54 155.449 131.736 155.374 131.902 155.253C132.068 155.132 132.219 154.996 132.34 154.83C132.46 154.664 132.536 154.468 132.596 154.257L132.626 154.151C132.672 153.94 132.687 153.744 132.672 153.532C132.657 153.321 132.596 153.14 132.491 152.944C132.4 152.763 132.264 152.612 132.083 152.476C131.917 152.34 131.706 152.249 131.449 152.189L130.181 151.872C130.015 151.827 129.895 151.827 129.819 151.872C129.744 151.917 129.683 152.023 129.638 152.204L128.928 155.027L128.944 155.012Z" fill="black"/>
</svg>
