<svg width="98" height="107" viewBox="0 0 98 107" fill="none" xmlns="http://www.w3.org/2000/svg">
<g filter="url(#filter0_d_12728_8615)">
<path d="M49.9695 99.0003H48.0331L46.6164 98.3856C34.8276 90.4773 22.0513 83.6151 10.3143 75.6862C8.33658 74.351 7.2275 73.7182 7 71.071V27.9476C7.11892 26.5478 7.60753 25.3314 8.68041 24.4068L47.1593 0.400577C49.729 -0.61184 50.9674 0.472893 53.0511 1.67901C65.3724 8.81243 77.0629 17.1571 89.3222 24.4093C90.3304 25.3185 90.9069 26.6021 91.0026 27.9502V71.0761C90.7751 73.7234 89.666 74.3561 87.6883 75.6914C75.9487 83.6203 63.1956 90.5083 51.3862 98.3907L49.9695 99.0054V99.0003Z" fill="url(#paint0_linear_12728_8615)"/>
</g>
<g filter="url(#filter1_i_12728_8615)">
<path d="M49.8759 93.9954H48.1241L46.8423 93.4428C36.1766 86.3338 24.6175 80.165 13.9986 73.0374C12.2092 71.8371 11.2058 71.2683 11 68.8886V30.1233C11.1076 28.8649 11.5497 27.7714 12.5203 26.9402L47.3335 5.3601C49.6584 4.44999 50.7788 5.4251 52.664 6.50933C63.8115 12.9218 74.3883 20.4232 85.4797 26.9425C86.3919 27.7598 86.9135 28.9137 87 30.1256V68.8932C86.7942 71.2729 85.7908 71.8418 84.0014 73.0421C73.3802 80.1697 61.8421 86.3616 51.1577 93.4474L49.8759 94V93.9954Z" fill="white"/>
</g>
<mask id="mask0_12728_8615" style="mask-type:alpha" maskUnits="userSpaceOnUse" x="11" y="5" width="76" height="89">
<path d="M49.8759 93.9954H48.1241L46.8423 93.4428C36.1766 86.3338 24.6175 80.165 13.9986 73.0374C12.2092 71.8371 11.2058 71.2683 11 68.8886V30.1233C11.1076 28.8649 11.5497 27.7714 12.5203 26.9402L47.3335 5.3601C49.6584 4.44999 50.7788 5.4251 52.664 6.50933C63.8115 12.9218 74.3883 20.4232 85.4797 26.9425C86.3919 27.7598 86.9135 28.9137 87 30.1256V68.8932C86.7942 71.2729 85.7908 71.8418 84.0014 73.0421C73.3802 80.1697 61.8421 86.3616 51.1577 93.4474L49.8759 94V93.9954Z" fill="white"/>
</mask>
<g mask="url(#mask0_12728_8615)">
<g clip-path="url(#clip0_12728_8615)">
<path d="M88.2854 82.4881C79.7869 90.9867 61.5682 100.888 56.4379 95.7575C51.3076 90.6272 61.2087 72.4085 69.7073 63.91C78.2058 55.4114 89.2531 52.6817 94.3834 57.812C99.5137 62.9422 96.7839 73.9921 88.2854 82.4881Z" fill="#C68246" stroke="black" stroke-width="0.809729" stroke-linecap="round" stroke-linejoin="round"/>
<path d="M66.4976 92.7564C69.064 89.1192 69.896 83.8934 69.3304 78.6123C67.8373 60.1197 50.6794 56.0627 40.2127 63.5683C39.6119 62.3719 38.6819 61.3262 37.4578 60.5872C27.3505 54.3057 10.7531 71.6144 23.4293 80.9701C26.2295 82.7246 30.1608 82.6668 32.1993 81.2969C32.2345 82.3325 32.33 83.4033 32.4884 84.5093C32.6769 88.2294 33.6622 90.9215 35.188 92.8645C33.9312 93.8951 33.1746 95.2147 33.1746 96.6525C33.1746 99.9504 37.1436 102.622 42.0426 102.622C46.3711 102.622 49.9706 100.536 50.7523 97.7736C50.8579 97.7736 50.9634 97.7736 51.069 97.7711C51.8482 100.534 55.4502 102.622 59.7787 102.622C64.6752 102.622 68.6467 99.9504 68.6467 96.6525C68.6467 95.1645 67.8348 93.8021 66.4951 92.7564H66.4976Z" fill="#C68246" stroke="black" stroke-width="0.809729" stroke-linecap="round" stroke-linejoin="round"/>
<path d="M50.3424 94.2806C29.2155 97.3723 32.8275 62.4708 51.3479 63.3706C70.1573 63.0665 71.59 98.878 50.3424 94.2806Z" fill="#935125"/>
<path d="M30.304 82.0861C30.304 82.0861 33.4259 81.8975 33.7275 77.1016L30.304 82.0861Z" fill="#C68246"/>
<path d="M30.304 82.0861C30.304 82.0861 33.4259 81.8975 33.7275 77.1016" stroke="black" stroke-width="0.809729" stroke-linecap="round" stroke-linejoin="round"/>
<path d="M64.7432 75.7141C71.2736 84.7305 88.8563 68.4699 83.6732 60.7405C81.1646 57.5709 76.5195 57.0279 73.3473 59.5365C68.7599 63.1461 59.1454 68.8746 64.7432 75.7141Z" fill="#C68246" stroke="black" stroke-width="0.809729" stroke-linecap="round" stroke-linejoin="round"/>
<path fill-rule="evenodd" clip-rule="evenodd" d="M94.4591 54.8145C94.2304 53.4446 93.7453 52.1526 93.0214 50.9762L92.9862 50.9184C92.2396 49.7269 91.2794 48.7064 90.1332 47.8895C88.9845 47.0701 87.7126 46.4969 86.3527 46.1827L86.3351 46.1777C85.5559 45.9993 84.7541 45.9062 83.9522 45.9062C83.3615 45.9062 82.7658 45.9565 82.1801 46.0546C80.7901 46.2883 79.4805 46.7835 78.2891 47.525L78.2338 47.5602C77.0674 48.2992 76.067 49.2468 75.2576 50.383C74.4483 51.5192 73.8777 52.7734 73.5609 54.1157L73.5459 54.1786C73.2317 55.546 73.1914 56.946 73.4227 58.3386C73.6565 59.7311 74.1516 61.0382 74.8932 62.2272L74.9032 62.2422C75.6422 63.4261 76.5999 64.4417 77.7486 65.2611C78.8948 66.078 80.1692 66.6536 81.5417 66.9703L81.6045 66.9854C82.3661 67.1538 83.1479 67.2393 83.9296 67.2393C84.5203 67.2393 85.1186 67.189 85.7017 67.091C87.0741 66.8623 88.3661 66.3771 89.54 65.6507H89.5425L89.5978 65.618C90.7893 64.8715 91.8098 63.9113 92.6267 62.7651C93.4436 61.6189 94.0193 60.3445 94.3385 58.972L94.3536 58.9092H94.3511C94.6527 57.5619 94.6904 56.1819 94.4617 54.8095L94.4591 54.8145Z" fill="#F5FBFF" stroke="black" stroke-width="1.34955" stroke-linecap="round" stroke-linejoin="round"/>
<path fill-rule="evenodd" clip-rule="evenodd" d="M77.804 65.1846C78.9225 65.984 80.1994 66.5621 81.5618 66.8788V66.8738L79.7922 62.3945L77.804 65.1846Z" fill="#E5F1FF"/>
<path fill-rule="evenodd" clip-rule="evenodd" d="M77.8041 65.1849C76.6856 64.3855 75.7178 63.37 74.9763 62.1836L79.7924 62.3947L77.8041 65.1849Z" fill="#ADC4DB"/>
<path fill-rule="evenodd" clip-rule="evenodd" d="M73.6389 54.2037L76.8941 57.758L78.6108 55.3499L78.1232 52.4316L73.6389 54.2037Z" fill="#E5F1FF"/>
<path fill-rule="evenodd" clip-rule="evenodd" d="M78.3369 47.6133L78.1233 52.4319L81.0416 51.9417L82.7609 49.5337L78.3369 47.6133Z" fill="white"/>
<path fill-rule="evenodd" clip-rule="evenodd" d="M86.3152 46.2773L82.761 49.5325L85.169 51.2493L88.0873 50.7616L86.3152 46.2773Z" fill="#E5F1FF"/>
<path fill-rule="evenodd" clip-rule="evenodd" d="M89.5425 65.5382L89.7587 60.7246L86.8379 61.2148L85.1211 63.6228L89.5425 65.5382Z" fill="#E8DBED"/>
<path fill-rule="evenodd" clip-rule="evenodd" d="M81.5643 66.8732L85.1211 63.6231L82.7105 61.9062L79.7922 62.3939L81.5643 66.8732Z" fill="#EFF0F2"/>
<path fill-rule="evenodd" clip-rule="evenodd" d="M74.9763 62.1818L79.7924 62.3954L79.3048 59.4771L76.8942 57.7578L74.9763 62.1818Z" fill="#E5F1FF"/>
<path fill-rule="evenodd" clip-rule="evenodd" d="M78.6108 55.3496L76.894 57.7577L79.3046 59.477L78.6108 55.3496Z" fill="#E8DBED"/>
<path fill-rule="evenodd" clip-rule="evenodd" d="M81.0416 51.9414L78.1233 52.4316L78.6109 55.3499L81.0416 51.9414Z" fill="#EFF0F2"/>
<path fill-rule="evenodd" clip-rule="evenodd" d="M85.1691 51.25L82.7611 49.5332L81.0417 51.9412L85.1691 51.25Z" fill="#EFEECF"/>
<path fill-rule="evenodd" clip-rule="evenodd" d="M88.5774 53.68L88.0873 50.7617L85.1689 51.2494L88.5774 53.68Z" fill="#ADC4DB"/>
<path fill-rule="evenodd" clip-rule="evenodd" d="M86.8379 61.2171L89.7587 60.7269L89.2686 57.8086L86.8379 61.2171Z" fill="#E5F1FF"/>
<path fill-rule="evenodd" clip-rule="evenodd" d="M82.7107 61.9061L85.1213 63.6229L86.8381 61.2148L82.7107 61.9061Z" fill="#9FAEBD"/>
<path fill-rule="evenodd" clip-rule="evenodd" d="M79.3049 59.4766L79.7926 62.3949L82.7109 61.9072L79.3049 59.4766Z" fill="white"/>
<path fill-rule="evenodd" clip-rule="evenodd" d="M73.5159 58.3253C73.7421 59.6827 74.2348 60.9948 74.9738 62.1787H74.9788L76.8967 57.7598L73.5184 58.3253H73.5159Z" fill="#D3DEFA"/>
<path fill-rule="evenodd" clip-rule="evenodd" d="M73.5157 58.3255C73.2895 56.9681 73.3247 55.5655 73.6364 54.2031H73.6389L76.894 57.7574L73.5157 58.3229V58.3255Z" fill="#C1CBD7"/>
<path fill-rule="evenodd" clip-rule="evenodd" d="M75.3331 50.4414C74.5338 51.56 73.9506 52.8369 73.6389 54.1993L78.1232 52.4297L75.3331 50.4414Z" fill="#D3DEFA"/>
<path fill-rule="evenodd" clip-rule="evenodd" d="M75.333 50.4411C76.1323 49.3225 77.1478 48.3548 78.3343 47.6133H78.3368L78.1231 52.4294L75.333 50.4411Z" fill="#E5F1FF"/>
<path fill-rule="evenodd" clip-rule="evenodd" d="M82.1955 46.1523C80.8381 46.3786 79.526 46.8712 78.3396 47.6102L82.761 49.5332L82.1955 46.1549V46.1523Z" fill="#D3DEFA"/>
<path fill-rule="evenodd" clip-rule="evenodd" d="M82.1953 46.1513C83.5527 45.9251 84.9553 45.9603 86.3126 46.2745H86.3176L82.7609 49.5321L82.1953 46.1538V46.1513Z" fill="#ADC4DB"/>
<path fill-rule="evenodd" clip-rule="evenodd" d="M90.078 47.9715C88.9594 47.1722 87.6825 46.589 86.3201 46.2773H86.3176L88.0897 50.7616L90.078 47.9715Z" fill="white"/>
<path fill-rule="evenodd" clip-rule="evenodd" d="M85.6867 66.9994C87.044 66.7732 88.3561 66.2805 89.54 65.5415V65.5365L85.1211 63.6211L85.6867 66.9969V66.9994Z" fill="#D3DEFA"/>
<path fill-rule="evenodd" clip-rule="evenodd" d="M85.6868 66.9988C84.3294 67.2251 82.9268 67.1899 81.5645 66.8782L85.1212 63.623L85.6868 66.9988Z" fill="#C9C9CB"/>
<path fill-rule="evenodd" clip-rule="evenodd" d="M89.2688 57.808L86.8382 61.2165L82.7108 61.9077L79.3048 59.4771L78.6111 55.3497L81.0418 51.9412L85.1691 51.25L88.5776 53.6807L89.2688 57.808Z" fill="#F5FBFF"/>
<path fill-rule="evenodd" clip-rule="evenodd" d="M88.4741 53.4306L87.906 53.1039L86.511 52.2216L87.8181 53.2296L88.3208 53.6518L87.9915 53.7398L86.5688 54.044L88.0091 53.8429L88.3484 53.8127L88.0192 54.3783L87.1394 55.7733L88.1473 54.4688L88.5671 53.966L88.6551 54.2928L88.9592 55.7155L88.7582 54.2752L88.728 53.9384L89.2961 54.2652L90.6911 55.1474L89.384 54.1395L88.8813 53.7172L89.2106 53.6317L90.6333 53.3276L89.193 53.5262L88.8537 53.5563L89.183 52.9908L90.0627 51.5957L89.0548 52.9003L88.635 53.403L88.547 53.0762L88.2429 51.6535L88.4439 53.0938L88.4741 53.4306Z" fill="white"/>
<path d="M21.8836 36.1874C25.2598 36.1874 27.9967 33.6463 27.9967 30.5117C27.9967 27.3771 25.2598 24.8359 21.8836 24.8359C18.5074 24.8359 15.7705 27.3771 15.7705 30.5117C15.7705 33.6463 18.5074 36.1874 21.8836 36.1874Z" fill="#C68246" stroke="black" stroke-width="0.809729" stroke-linecap="round" stroke-linejoin="round"/>
<path d="M21.8838 34.0479C19.6919 34.0479 17.9072 32.4618 17.9072 30.5113C17.9072 28.5607 19.6919 26.9746 21.8838 26.9746C24.0756 26.9746 25.8603 28.5607 25.8603 30.5113C25.8603 32.4618 24.0756 34.0479 21.8838 34.0479Z" fill="#935125"/>
<path d="M79.9432 36.1874C83.3194 36.1874 86.0563 33.6463 86.0563 30.5117C86.0563 27.3771 83.3194 24.8359 79.9432 24.8359C76.567 24.8359 73.8301 27.3771 73.8301 30.5117C73.8301 33.6463 76.567 36.1874 79.9432 36.1874Z" fill="#C68246" stroke="black" stroke-width="0.809729" stroke-linecap="round" stroke-linejoin="round"/>
<path d="M79.9433 34.0479C82.1352 34.0479 83.9199 32.4618 83.9199 30.5113C83.9199 28.5607 82.1352 26.9746 79.9433 26.9746C77.7515 26.9746 75.9668 28.5607 75.9668 30.5113C75.9668 32.4618 77.7515 34.0479 79.9433 34.0479Z" fill="#935125"/>
<path d="M82.5673 37.749C95.1957 82.2149 6.62343 82.2048 19.2619 37.749C18.259 5.25553 83.5727 5.25553 82.5673 37.749Z" fill="#C68246" stroke="black" stroke-width="0.809729" stroke-linecap="round" stroke-linejoin="round"/>
<path d="M41.3141 38.877C42.6634 38.877 43.7573 37.3397 43.7573 35.4434C43.7573 33.547 42.6634 32.0098 41.3141 32.0098C39.9647 32.0098 38.8708 33.547 38.8708 35.4434C38.8708 37.3397 39.9647 38.877 41.3141 38.877Z" fill="black"/>
<path d="M60.5155 38.877C61.8649 38.877 62.9587 37.3397 62.9587 35.4434C62.9587 33.547 61.8649 32.0098 60.5155 32.0098C59.1661 32.0098 58.0723 33.547 58.0723 35.4434C58.0723 37.3397 59.1661 38.877 60.5155 38.877Z" fill="black"/>
<path d="M60.5153 39.6063C60.5153 36.1778 59.7814 35.4438 56.3528 35.4438C59.7814 35.4438 60.5153 34.7098 60.5153 31.2812C60.5153 34.7098 61.2493 35.4438 64.6779 35.4438C61.2493 35.4438 60.5153 36.1778 60.5153 39.6063Z" fill="#FFF7D2"/>
<path d="M41.3139 39.6063C41.3139 36.1778 40.5799 35.4438 37.1514 35.4438C40.5799 35.4438 41.3139 34.7098 41.3139 31.2812C41.3139 34.7098 42.0479 35.4438 45.4765 35.4438C42.0479 35.4438 41.3139 36.1778 41.3139 39.6063Z" fill="#FFF7D2"/>
<path d="M58.6327 42.3235C58.6327 44.2389 55.6717 50.0755 50.9134 50.0755C46.1551 50.0755 43.1941 44.2364 43.1941 42.3235C43.1941 40.4106 46.1551 36.2129 50.9134 36.2129C55.6717 36.2129 58.6327 40.4081 58.6327 42.3235Z" fill="black"/>
<path d="M58.0696 54.2271C58.0696 58.729 54.8647 62.3787 50.9133 62.3787C46.9619 62.3787 43.7571 58.729 43.7571 54.2271C43.7571 49.7252 46.9619 52.3645 50.9133 52.3645C54.8647 52.3645 58.0696 49.7252 58.0696 54.2271Z" fill="#FF9F9F" stroke="black" stroke-width="0.809729" stroke-miterlimit="10"/>
<mask id="mask1_12728_8615" style="mask-type:luminance" maskUnits="userSpaceOnUse" x="43" y="51" width="16" height="12">
<path d="M58.0696 54.5591C58.0696 59.061 54.8647 62.7108 50.9133 62.7108C46.9619 62.7108 43.7571 59.061 43.7571 54.5591C43.7571 50.0572 46.9619 52.6965 50.9133 52.6965C54.8647 52.6965 58.0696 50.0572 58.0696 54.5591Z" fill="white"/>
</mask>
<g mask="url(#mask1_12728_8615)">
<path d="M51.2503 67.1787C56.3021 67.1787 60.3974 65.1777 60.3974 62.7094C60.3974 60.2412 56.3021 58.2402 51.2503 58.2402C46.1985 58.2402 42.1033 60.2412 42.1033 62.7094C42.1033 65.1777 46.1985 67.1787 51.2503 67.1787Z" fill="#FF7B7B" stroke="black" stroke-width="0.809729" stroke-miterlimit="10"/>
<path d="M53.7588 52.0282C53.0626 51.7466 52.1627 51.8019 51.4011 51.7894C50.2046 51.8472 49.0207 51.6159 47.9599 52.0985C47.3944 52.3826 47.4999 53.3956 47.5955 54.0491C47.7262 55.0722 48.0731 56.3968 49.3022 56.329C49.7773 56.3164 50.2574 56.0474 50.6671 55.9419C51.4413 55.7709 52.1426 56.5879 53.0324 56.2586C53.9599 55.9519 54.0906 54.8459 54.2364 53.9963C54.3093 53.3001 54.4828 52.3801 53.794 52.0458L53.7588 52.0282Z" fill="white" stroke="black" stroke-width="0.809729" stroke-linecap="round" stroke-linejoin="round"/>
<path d="M50.9133 52.2012V55.9188" stroke="black" stroke-width="0.809729" stroke-linecap="round" stroke-linejoin="round"/>
</g>
<path d="M58.0696 54.2271C58.0696 58.729 54.8647 62.3787 50.9133 62.3787C46.9619 62.3787 43.7571 58.729 43.7571 54.2271C43.7571 49.7252 46.9619 52.3645 50.9133 52.3645C54.8647 52.3645 58.0696 49.7252 58.0696 54.2271Z" stroke="black" stroke-width="0.809729" stroke-miterlimit="10"/>
<path d="M57.9088 21.857C57.3357 23.7774 54.8548 25.7405 51.8611 24.8909C52.8037 24.3253 53.6005 23.3526 53.598 22.2089C52.8766 15.9449 44.6495 21.7489 49.9683 24.8934C46.9696 25.7355 44.4937 23.7799 43.9206 21.857C41.8619 27.3216 59.965 27.3216 57.9088 21.857ZM48.9428 22.0279C49.3248 19.1925 52.9545 19.6198 52.8816 22.3899C52.4995 25.2252 48.8699 24.7979 48.9428 22.0279Z" fill="#935125"/>
<path d="M31.3497 58.2911C26.1942 58.2911 21.999 54.0959 21.999 48.9405C21.999 43.7851 26.1942 39.5898 31.3497 39.5898C36.5051 39.5898 40.7003 43.7851 40.7003 48.9405C40.7003 54.0959 36.5051 58.2911 31.3497 58.2911Z" fill="#FF9999"/>
<path d="M70.4742 58.2911C65.3188 58.2911 61.1235 54.0959 61.1235 48.9405C61.1235 43.7851 65.3188 39.5898 70.4742 39.5898C75.6296 39.5898 79.8248 43.7851 79.8248 48.9405C79.8248 54.0959 75.6296 58.2911 70.4742 58.2911Z" fill="#FF9999"/>
<path fill-rule="evenodd" clip-rule="evenodd" d="M37.4505 52.9657C37.0508 50.5828 36.2113 48.3407 34.952 46.2946L34.8916 46.1966C33.5921 44.1228 31.9231 42.3532 29.9348 40.9331C27.939 39.5103 25.727 38.5099 23.3667 37.9645L23.334 37.9544C21.9817 37.6427 20.5867 37.4844 19.1916 37.4844C18.1635 37.4844 17.1279 37.5698 16.1124 37.7408C13.6943 38.1455 11.4195 39.0051 9.34829 40.2971L9.25277 40.3574V40.3625C7.2268 41.6419 5.48738 43.2908 4.07975 45.264C2.67213 47.2372 1.68176 49.419 1.13128 51.7517H1.12625L1.10112 51.8623C0.555662 54.2401 0.482767 56.6708 0.887459 59.0889C1.29215 61.5095 2.15181 63.7818 3.44381 65.8455L3.4614 65.8731C4.74837 67.9318 6.41239 69.6938 8.4082 71.1191C10.399 72.5393 12.616 73.5397 14.9989 74.0927L15.1095 74.1178C16.4317 74.4119 17.7915 74.5602 19.1514 74.5602C20.1795 74.5602 21.2176 74.4747 22.2331 74.3038C24.6185 73.9042 26.8632 73.0621 28.9042 71.8028H28.9092L29.0048 71.7449C31.0785 70.4454 32.8481 68.7764 34.2683 66.7881C35.6885 64.7973 36.6889 62.5803 37.2419 60.1974L37.267 60.0868H37.262C37.7873 57.7441 37.8527 55.3486 37.453 52.9632L37.4505 52.9657Z" fill="#F5FBFF" stroke="black" stroke-width="1.34955" stroke-linecap="round" stroke-linejoin="round"/>
<path fill-rule="evenodd" clip-rule="evenodd" d="M8.50635 70.9855C10.4519 72.373 12.6689 73.381 15.0367 73.9314L15.0417 73.9239L11.9626 66.1367L8.50635 70.983V70.9855Z" fill="#E5F1FF"/>
<path fill-rule="evenodd" clip-rule="evenodd" d="M8.50616 70.9864C6.56062 69.5989 4.87901 67.8318 3.59204 65.7706V65.7656L11.9624 66.1402L8.50616 70.9864Z" fill="#ADC4DB"/>
<path fill-rule="evenodd" clip-rule="evenodd" d="M9.4363 40.4473L9.06177 48.8176L14.1342 47.968L17.1204 43.7828L9.4363 40.4473Z" fill="white"/>
<path fill-rule="evenodd" clip-rule="evenodd" d="M23.2988 38.125L17.1204 43.7831L21.308 46.7668L26.3805 45.9172L23.2988 38.125Z" fill="#E5F1FF"/>
<path fill-rule="evenodd" clip-rule="evenodd" d="M34.7434 46.2905L26.3806 45.916L27.2302 50.9885L31.4179 53.9747L34.7434 46.2905Z" fill="#E5F1FF"/>
<path fill-rule="evenodd" clip-rule="evenodd" d="M37.0659 60.1556L31.4178 53.9746L28.4316 58.1623L29.2812 63.2348L37.0659 60.1556Z" fill="#EFF0F2"/>
<path fill-rule="evenodd" clip-rule="evenodd" d="M28.9065 71.6016L29.2811 63.2363L24.2086 64.0859L21.2224 68.2736L28.9065 71.6016Z" fill="#E8DBED"/>
<path fill-rule="evenodd" clip-rule="evenodd" d="M15.0418 73.9219L21.2228 68.2713L17.0351 65.2852L11.9626 66.1348L15.0418 73.9219Z" fill="#EFF0F2"/>
<path fill-rule="evenodd" clip-rule="evenodd" d="M3.59204 65.7603L11.9624 66.1348L11.1128 61.0623L6.9251 58.0762L3.59204 65.7603Z" fill="#E5F1FF"/>
<path fill-rule="evenodd" clip-rule="evenodd" d="M9.91147 53.8906L6.92529 58.0783L11.113 61.0645L9.91147 53.8906Z" fill="#E8DBED"/>
<path fill-rule="evenodd" clip-rule="evenodd" d="M14.1342 47.9688L9.06177 48.8184L9.91137 53.8908L14.1342 47.9688Z" fill="#EFF0F2"/>
<path fill-rule="evenodd" clip-rule="evenodd" d="M21.3079 46.7669L17.1202 43.7832L14.134 47.9684L21.3079 46.7669Z" fill="#EFEECF"/>
<path fill-rule="evenodd" clip-rule="evenodd" d="M27.2302 50.9885L26.3806 45.916L21.3081 46.7656L27.2302 50.9885Z" fill="#ADC4DB"/>
<path fill-rule="evenodd" clip-rule="evenodd" d="M28.4317 58.1621L31.4179 53.9745L27.2302 50.9883L28.4317 58.1621Z" fill="white"/>
<path fill-rule="evenodd" clip-rule="evenodd" d="M24.2087 64.0861L29.2812 63.2365L28.4316 58.1641L24.2087 64.0861Z" fill="#E5F1FF"/>
<path fill-rule="evenodd" clip-rule="evenodd" d="M17.0352 65.2874L21.2228 68.2736L24.209 64.0859L17.0352 65.2874Z" fill="#9FAEBD"/>
<path fill-rule="evenodd" clip-rule="evenodd" d="M11.1128 61.0645L11.9624 66.1369L17.0349 65.2873L11.1128 61.0645Z" fill="white"/>
<path fill-rule="evenodd" clip-rule="evenodd" d="M16.1376 37.9082C13.7798 38.3028 11.4974 39.155 9.43628 40.4419V40.447L17.1229 43.78L16.1401 37.9082H16.1376Z" fill="#D3DEFA"/>
<path fill-rule="evenodd" clip-rule="evenodd" d="M16.1377 37.9078C18.4955 37.5132 20.9312 37.576 23.294 38.119L23.3015 38.124L17.123 43.7796L16.1402 37.9078H16.1377Z" fill="#ADC4DB"/>
<path fill-rule="evenodd" clip-rule="evenodd" d="M29.8367 41.071C27.8911 39.6834 25.6741 38.6679 23.3063 38.125H23.3013L26.383 45.9172L29.8392 41.071H29.8367Z" fill="white"/>
<path fill-rule="evenodd" clip-rule="evenodd" d="M29.8368 41.0703C31.7824 42.4578 33.459 44.2249 34.751 46.2861L34.7459 46.2936L26.3806 45.9191L29.8368 41.0728V41.0703Z" fill="#E8DBED"/>
<path fill-rule="evenodd" clip-rule="evenodd" d="M37.2845 52.9923C36.8899 50.6345 36.0378 48.3522 34.7508 46.291H34.7458L31.4177 53.9751L37.2845 52.9923Z" fill="#D3DEFA"/>
<path fill-rule="evenodd" clip-rule="evenodd" d="M37.2845 52.9922C37.6791 55.35 37.6163 57.7857 37.0734 60.1485L37.0683 60.156L31.4177 53.975L37.2845 52.9922Z" fill="white"/>
<path fill-rule="evenodd" clip-rule="evenodd" d="M34.1276 66.6917C35.5151 64.7461 36.523 62.5291 37.0735 60.1613L37.066 60.1562L29.2788 63.2354L34.1251 66.6917H34.1276Z" fill="#D3DEFA"/>
<path fill-rule="evenodd" clip-rule="evenodd" d="M34.1276 66.6925C32.7401 68.6381 30.973 70.3147 28.9118 71.6067L28.9043 71.6016L29.2788 63.2363L34.1251 66.6925H34.1276Z" fill="#ADC4DB"/>
<path fill-rule="evenodd" clip-rule="evenodd" d="M22.2052 74.1383C24.563 73.7436 26.8454 72.8915 28.9015 71.6071L28.9065 71.5995L21.2224 68.2715L22.2052 74.1383Z" fill="#D3DEFA"/>
<path fill-rule="evenodd" clip-rule="evenodd" d="M22.2055 74.1383C19.8477 74.5329 17.412 74.4701 15.0442 73.9271V73.9221L21.2227 68.2715L22.2055 74.1383Z" fill="#C9C9CB"/>
<path fill-rule="evenodd" clip-rule="evenodd" d="M28.4317 58.1624L24.2088 64.0844L17.035 65.2859L11.1129 61.0631L9.91138 53.8892L14.1343 47.9671L21.3081 46.7656L27.2302 50.9885L28.4317 58.1624Z" fill="#F5FBFF"/>
<path fill-rule="evenodd" clip-rule="evenodd" d="M27.0491 50.5614L26.0638 49.9908L23.6406 48.4575L25.9079 50.212L26.7826 50.941L26.2121 51.0943L23.7412 51.6222L26.2447 51.2728L26.8304 51.2225L26.2598 52.2079L24.729 54.631L26.481 52.3612L27.2125 51.489L27.3658 52.0595L27.8937 54.5304L27.5443 52.0269L27.4915 51.4387L28.4793 52.0093L30.9025 53.5426L28.6327 51.7881L27.7604 51.0566L28.3285 50.9058L30.8019 50.3779L28.2984 50.7273L27.7102 50.7776L28.2808 49.7923L29.8141 47.3691L28.0596 49.6389L27.3281 50.5112L27.1773 49.9406L26.6494 47.4697L26.9963 49.9732L27.0491 50.5614Z" fill="white"/>
<path d="M31.6014 73.8776C31.9408 70.8186 28.7384 64.0393 22.4242 66.9099C17.8092 69.0088 18.1762 72.2765 19.1691 75.6221C19.5286 76.8362 20.5466 78.0955 21.3409 79.0858C21.8813 79.757 22.9496 80.8479 24.6186 81.5844C27.0141 82.6426 30.6764 82.8688 32.3379 80.9861C32.9362 80.31 33.2881 79.3422 33.3937 79.0532C33.7908 77.9648 33.8486 77.0021 33.8386 76.3862" fill="#C68246"/>
<path d="M31.6015 73.8776C31.9408 70.8186 28.7384 64.0393 22.4242 66.9099C17.8092 69.0088 18.1762 72.2765 19.1691 75.6221C19.5286 76.8362 20.5466 78.0955 21.3409 79.0858C21.8813 79.757 22.9496 80.8479 24.6186 81.5844C27.0141 82.6426 30.6764 82.8688 32.3379 80.9861C32.9362 80.31 33.2881 79.3422 33.3937 79.0532C33.7908 77.9648 33.8486 77.0021 33.8386 76.3862" stroke="black" stroke-width="0.809729" stroke-linecap="round" stroke-linejoin="round"/>
</g>
</g>
<g clip-path="url(#clip1_12728_8615)">
<path d="M64.7432 75.7141C71.2736 84.7305 88.8563 68.4699 83.6732 60.7405C81.1646 57.5709 76.5195 57.0279 73.3473 59.5365C68.7599 63.1461 59.1454 68.8746 64.7432 75.7141Z" fill="#C68246" stroke="black" stroke-width="0.809729" stroke-linecap="round" stroke-linejoin="round"/>
<path fill-rule="evenodd" clip-rule="evenodd" d="M94.4591 54.8145C94.2304 53.4446 93.7453 52.1526 93.0214 50.9762L92.9862 50.9184C92.2396 49.7269 91.2794 48.7064 90.1332 47.8895C88.9845 47.0701 87.7126 46.4969 86.3527 46.1827L86.3351 46.1777C85.5559 45.9993 84.7541 45.9062 83.9522 45.9062C83.3615 45.9062 82.7658 45.9565 82.1801 46.0546C80.7901 46.2883 79.4805 46.7835 78.2891 47.525L78.2338 47.5602C77.0674 48.2992 76.067 49.2468 75.2576 50.383C74.4483 51.5192 73.8777 52.7734 73.5609 54.1157L73.5459 54.1786C73.2317 55.546 73.1914 56.946 73.4227 58.3386C73.6565 59.7311 74.1516 61.0382 74.8932 62.2272L74.9032 62.2422C75.6422 63.4261 76.5999 64.4417 77.7486 65.2611C78.8948 66.078 80.1692 66.6536 81.5417 66.9703L81.6045 66.9854C82.3661 67.1538 83.1479 67.2393 83.9296 67.2393C84.5203 67.2393 85.1186 67.189 85.7017 67.091C87.0741 66.8623 88.3661 66.3771 89.54 65.6507H89.5425L89.5978 65.618C90.7893 64.8715 91.8098 63.9113 92.6267 62.7651C93.4436 61.6189 94.0193 60.3445 94.3385 58.972L94.3536 58.9092H94.3511C94.6527 57.5619 94.6904 56.1819 94.4617 54.8095L94.4591 54.8145Z" fill="#F5FBFF" stroke="black" stroke-width="1.34955" stroke-linecap="round" stroke-linejoin="round"/>
<path fill-rule="evenodd" clip-rule="evenodd" d="M77.804 65.1846C78.9225 65.984 80.1994 66.5621 81.5618 66.8788V66.8738L79.7922 62.3945L77.804 65.1846Z" fill="#E5F1FF"/>
<path fill-rule="evenodd" clip-rule="evenodd" d="M77.8041 65.1849C76.6856 64.3855 75.7178 63.37 74.9763 62.1836L79.7924 62.3947L77.8041 65.1849Z" fill="#ADC4DB"/>
<path fill-rule="evenodd" clip-rule="evenodd" d="M73.6389 54.2037L76.8941 57.758L78.6108 55.3499L78.1232 52.4316L73.6389 54.2037Z" fill="#E5F1FF"/>
<path fill-rule="evenodd" clip-rule="evenodd" d="M78.3369 47.6133L78.1233 52.4319L81.0416 51.9417L82.7609 49.5337L78.3369 47.6133Z" fill="white"/>
<path fill-rule="evenodd" clip-rule="evenodd" d="M86.3152 46.2773L82.761 49.5325L85.169 51.2493L88.0873 50.7616L86.3152 46.2773Z" fill="#E5F1FF"/>
<path fill-rule="evenodd" clip-rule="evenodd" d="M92.9007 50.9754L88.0872 50.7617L88.5773 53.68L90.9854 55.3968L92.9007 50.9754Z" fill="#E5F1FF"/>
<path fill-rule="evenodd" clip-rule="evenodd" d="M94.2382 58.9532L90.9856 55.3965L89.2688 57.807L89.7589 60.7253L94.2382 58.9532Z" fill="#EFF0F2"/>
<path fill-rule="evenodd" clip-rule="evenodd" d="M89.5425 65.5382L89.7587 60.7246L86.8379 61.2148L85.1211 63.6228L89.5425 65.5382Z" fill="#E8DBED"/>
<path fill-rule="evenodd" clip-rule="evenodd" d="M81.5643 66.8732L85.1211 63.6231L82.7105 61.9062L79.7922 62.3939L81.5643 66.8732Z" fill="#EFF0F2"/>
<path fill-rule="evenodd" clip-rule="evenodd" d="M74.9763 62.1818L79.7924 62.3954L79.3048 59.4771L76.8942 57.7578L74.9763 62.1818Z" fill="#E5F1FF"/>
<path fill-rule="evenodd" clip-rule="evenodd" d="M78.6108 55.3496L76.894 57.7577L79.3046 59.477L78.6108 55.3496Z" fill="#E8DBED"/>
<path fill-rule="evenodd" clip-rule="evenodd" d="M81.0416 51.9414L78.1233 52.4316L78.6109 55.3499L81.0416 51.9414Z" fill="#EFF0F2"/>
<path fill-rule="evenodd" clip-rule="evenodd" d="M85.1691 51.25L82.7611 49.5332L81.0417 51.9412L85.1691 51.25Z" fill="#EFEECF"/>
<path fill-rule="evenodd" clip-rule="evenodd" d="M88.5774 53.68L88.0873 50.7617L85.1689 51.2494L88.5774 53.68Z" fill="#ADC4DB"/>
<path fill-rule="evenodd" clip-rule="evenodd" d="M89.2686 57.807L90.9854 55.3965L88.5774 53.6797L89.2686 57.807Z" fill="white"/>
<path fill-rule="evenodd" clip-rule="evenodd" d="M86.8379 61.2171L89.7587 60.7269L89.2686 57.8086L86.8379 61.2171Z" fill="#E5F1FF"/>
<path fill-rule="evenodd" clip-rule="evenodd" d="M82.7107 61.9061L85.1213 63.6229L86.8381 61.2148L82.7107 61.9061Z" fill="#9FAEBD"/>
<path fill-rule="evenodd" clip-rule="evenodd" d="M79.3049 59.4766L79.7926 62.3949L82.7109 61.9072L79.3049 59.4766Z" fill="white"/>
<path fill-rule="evenodd" clip-rule="evenodd" d="M73.5159 58.3253C73.7421 59.6827 74.2348 60.9948 74.9738 62.1787H74.9788L76.8967 57.7598L73.5184 58.3253H73.5159Z" fill="#D3DEFA"/>
<path fill-rule="evenodd" clip-rule="evenodd" d="M73.5157 58.3255C73.2895 56.9681 73.3247 55.5655 73.6364 54.2031H73.6389L76.894 57.7574L73.5157 58.3229V58.3255Z" fill="#C1CBD7"/>
<path fill-rule="evenodd" clip-rule="evenodd" d="M75.3331 50.4414C74.5338 51.56 73.9506 52.8369 73.6389 54.1993L78.1232 52.4297L75.3331 50.4414Z" fill="#D3DEFA"/>
<path fill-rule="evenodd" clip-rule="evenodd" d="M75.333 50.4411C76.1323 49.3225 77.1478 48.3548 78.3343 47.6133H78.3368L78.1231 52.4294L75.333 50.4411Z" fill="#E5F1FF"/>
<path fill-rule="evenodd" clip-rule="evenodd" d="M82.1955 46.1523C80.8381 46.3786 79.526 46.8712 78.3396 47.6102L82.761 49.5332L82.1955 46.1549V46.1523Z" fill="#D3DEFA"/>
<path fill-rule="evenodd" clip-rule="evenodd" d="M82.1953 46.1513C83.5527 45.9251 84.9553 45.9603 86.3126 46.2745H86.3176L82.7609 49.5321L82.1953 46.1538V46.1513Z" fill="#ADC4DB"/>
<path fill-rule="evenodd" clip-rule="evenodd" d="M90.078 47.9715C88.9594 47.1722 87.6825 46.589 86.3201 46.2773H86.3176L88.0897 50.7616L90.078 47.9715Z" fill="white"/>
<path fill-rule="evenodd" clip-rule="evenodd" d="M90.0781 47.9707C91.1967 48.77 92.1619 49.7855 92.9059 50.972V50.977L88.0898 50.7608L90.0781 47.9707Z" fill="#E8DBED"/>
<path fill-rule="evenodd" clip-rule="evenodd" d="M94.3636 54.8324C94.1374 53.4751 93.6447 52.163 92.9057 50.9766H92.9032L90.9878 55.398L94.3636 54.8324Z" fill="#D3DEFA"/>
<path fill-rule="evenodd" clip-rule="evenodd" d="M94.3639 54.832C94.5901 56.1894 94.5549 57.592 94.2407 58.9493V58.9544L90.9856 55.3976L94.3614 54.832H94.3639Z" fill="white"/>
<path fill-rule="evenodd" clip-rule="evenodd" d="M92.5465 62.7149C93.3458 61.5963 93.9239 60.3194 94.2406 58.957H94.2356L89.7563 60.7266L92.5465 62.7149Z" fill="#D3DEFA"/>
<path fill-rule="evenodd" clip-rule="evenodd" d="M92.5466 62.7129C91.7472 63.8314 90.7317 64.7967 89.5453 65.5407H89.5403L89.7565 60.7246L92.5466 62.7129Z" fill="#ADC4DB"/>
<path fill-rule="evenodd" clip-rule="evenodd" d="M85.6867 66.9994C87.044 66.7732 88.3561 66.2805 89.54 65.5415V65.5365L85.1211 63.6211L85.6867 66.9969V66.9994Z" fill="#D3DEFA"/>
<path fill-rule="evenodd" clip-rule="evenodd" d="M85.6868 66.9988C84.3294 67.2251 82.9268 67.1899 81.5645 66.8782L85.1212 63.623L85.6868 66.9988Z" fill="#C9C9CB"/>
<path fill-rule="evenodd" clip-rule="evenodd" d="M89.2688 57.808L86.8382 61.2165L82.7108 61.9077L79.3048 59.4771L78.6111 55.3497L81.0418 51.9412L85.1691 51.25L88.5776 53.6807L89.2688 57.808Z" fill="#F5FBFF"/>
<path fill-rule="evenodd" clip-rule="evenodd" d="M88.4741 53.4306L87.906 53.1039L86.511 52.2216L87.8181 53.2296L88.3208 53.6518L87.9915 53.7398L86.5688 54.044L88.0091 53.8429L88.3484 53.8127L88.0192 54.3783L87.1394 55.7733L88.1473 54.4688L88.5671 53.966L88.6551 54.2928L88.9592 55.7155L88.7582 54.2752L88.728 53.9384L89.2961 54.2652L90.6911 55.1474L89.384 54.1395L88.8813 53.7172L89.2106 53.6317L90.6333 53.3276L89.193 53.5262L88.8537 53.5563L89.183 52.9908L90.0627 51.5957L89.0548 52.9003L88.635 53.403L88.547 53.0762L88.2429 51.6535L88.4439 53.0938L88.4741 53.4306Z" fill="white"/>
<path d="M21.8836 36.1874C25.2598 36.1874 27.9967 33.6463 27.9967 30.5117C27.9967 27.3771 25.2598 24.8359 21.8836 24.8359C18.5074 24.8359 15.7705 27.3771 15.7705 30.5117C15.7705 33.6463 18.5074 36.1874 21.8836 36.1874Z" fill="#C68246" stroke="black" stroke-width="0.809729" stroke-linecap="round" stroke-linejoin="round"/>
<path d="M21.8838 34.0479C19.6919 34.0479 17.9072 32.4618 17.9072 30.5113C17.9072 28.5607 19.6919 26.9746 21.8838 26.9746C24.0756 26.9746 25.8603 28.5607 25.8603 30.5113C25.8603 32.4618 24.0756 34.0479 21.8838 34.0479Z" fill="#935125"/>
<path d="M79.9432 36.1874C83.3194 36.1874 86.0563 33.6463 86.0563 30.5117C86.0563 27.3771 83.3194 24.8359 79.9432 24.8359C76.567 24.8359 73.8301 27.3771 73.8301 30.5117C73.8301 33.6463 76.567 36.1874 79.9432 36.1874Z" fill="#C68246" stroke="black" stroke-width="0.809729" stroke-linecap="round" stroke-linejoin="round"/>
<path d="M79.9433 34.0479C82.1352 34.0479 83.9199 32.4618 83.9199 30.5113C83.9199 28.5607 82.1352 26.9746 79.9433 26.9746C77.7515 26.9746 75.9668 28.5607 75.9668 30.5113C75.9668 32.4618 77.7515 34.0479 79.9433 34.0479Z" fill="#935125"/>
<path d="M82.5673 37.749C95.1957 82.2149 6.62343 82.2048 19.2619 37.749C18.259 5.25553 83.5727 5.25553 82.5673 37.749Z" fill="#C68246" stroke="black" stroke-width="0.809729" stroke-linecap="round" stroke-linejoin="round"/>
<path d="M41.3141 38.877C42.6634 38.877 43.7573 37.3397 43.7573 35.4434C43.7573 33.547 42.6634 32.0098 41.3141 32.0098C39.9647 32.0098 38.8708 33.547 38.8708 35.4434C38.8708 37.3397 39.9647 38.877 41.3141 38.877Z" fill="black"/>
<path d="M60.5155 38.877C61.8649 38.877 62.9587 37.3397 62.9587 35.4434C62.9587 33.547 61.8649 32.0098 60.5155 32.0098C59.1661 32.0098 58.0723 33.547 58.0723 35.4434C58.0723 37.3397 59.1661 38.877 60.5155 38.877Z" fill="black"/>
<path d="M60.5153 39.6063C60.5153 36.1778 59.7814 35.4438 56.3528 35.4438C59.7814 35.4438 60.5153 34.7098 60.5153 31.2812C60.5153 34.7098 61.2493 35.4438 64.6779 35.4438C61.2493 35.4438 60.5153 36.1778 60.5153 39.6063Z" fill="#FFF7D2"/>
<path d="M41.3139 39.6063C41.3139 36.1778 40.5799 35.4438 37.1514 35.4438C40.5799 35.4438 41.3139 34.7098 41.3139 31.2812C41.3139 34.7098 42.0479 35.4438 45.4765 35.4438C42.0479 35.4438 41.3139 36.1778 41.3139 39.6063Z" fill="#FFF7D2"/>
<path d="M58.6327 42.3235C58.6327 44.2389 55.6717 50.0755 50.9134 50.0755C46.1551 50.0755 43.1941 44.2364 43.1941 42.3235C43.1941 40.4106 46.1551 36.2129 50.9134 36.2129C55.6717 36.2129 58.6327 40.4081 58.6327 42.3235Z" fill="black"/>
<path d="M58.0696 54.2271C58.0696 58.729 54.8647 62.3787 50.9133 62.3787C46.9619 62.3787 43.7571 58.729 43.7571 54.2271C43.7571 49.7252 46.9619 52.3645 50.9133 52.3645C54.8647 52.3645 58.0696 49.7252 58.0696 54.2271Z" fill="#FF9F9F" stroke="black" stroke-width="0.809729" stroke-miterlimit="10"/>
<mask id="mask2_12728_8615" style="mask-type:luminance" maskUnits="userSpaceOnUse" x="43" y="51" width="16" height="12">
<path d="M58.0696 54.5591C58.0696 59.061 54.8647 62.7108 50.9133 62.7108C46.9619 62.7108 43.7571 59.061 43.7571 54.5591C43.7571 50.0572 46.9619 52.6965 50.9133 52.6965C54.8647 52.6965 58.0696 50.0572 58.0696 54.5591Z" fill="white"/>
</mask>
<g mask="url(#mask2_12728_8615)">
<path d="M51.2503 67.1787C56.3021 67.1787 60.3974 65.1777 60.3974 62.7094C60.3974 60.2412 56.3021 58.2402 51.2503 58.2402C46.1985 58.2402 42.1033 60.2412 42.1033 62.7094C42.1033 65.1777 46.1985 67.1787 51.2503 67.1787Z" fill="#FF7B7B" stroke="black" stroke-width="0.809729" stroke-miterlimit="10"/>
<path d="M53.7588 52.0282C53.0626 51.7466 52.1627 51.8019 51.4011 51.7894C50.2046 51.8472 49.0207 51.6159 47.9599 52.0985C47.3944 52.3826 47.4999 53.3956 47.5955 54.0491C47.7262 55.0722 48.0731 56.3968 49.3022 56.329C49.7773 56.3164 50.2574 56.0474 50.6671 55.9419C51.4413 55.7709 52.1426 56.5879 53.0324 56.2586C53.9599 55.9519 54.0906 54.8459 54.2364 53.9963C54.3093 53.3001 54.4828 52.3801 53.794 52.0458L53.7588 52.0282Z" fill="white" stroke="black" stroke-width="0.809729" stroke-linecap="round" stroke-linejoin="round"/>
<path d="M50.9133 52.2012V55.9188" stroke="black" stroke-width="0.809729" stroke-linecap="round" stroke-linejoin="round"/>
</g>
<path d="M58.0696 54.2271C58.0696 58.729 54.8647 62.3787 50.9133 62.3787C46.9619 62.3787 43.7571 58.729 43.7571 54.2271C43.7571 49.7252 46.9619 52.3645 50.9133 52.3645C54.8647 52.3645 58.0696 49.7252 58.0696 54.2271Z" stroke="black" stroke-width="0.809729" stroke-miterlimit="10"/>
<path d="M57.9088 21.857C57.3357 23.7774 54.8548 25.7405 51.8611 24.8909C52.8037 24.3253 53.6005 23.3526 53.598 22.2089C52.8766 15.9449 44.6495 21.7489 49.9683 24.8934C46.9696 25.7355 44.4937 23.7799 43.9206 21.857C41.8619 27.3216 59.965 27.3216 57.9088 21.857ZM48.9428 22.0279C49.3248 19.1925 52.9545 19.6198 52.8816 22.3899C52.4995 25.2252 48.8699 24.7979 48.9428 22.0279Z" fill="#935125"/>
<path d="M31.3497 58.2911C26.1942 58.2911 21.999 54.0959 21.999 48.9405C21.999 43.7851 26.1942 39.5898 31.3497 39.5898C36.5051 39.5898 40.7003 43.7851 40.7003 48.9405C40.7003 54.0959 36.5051 58.2911 31.3497 58.2911Z" fill="#FF9999"/>
<path d="M70.4742 58.2911C65.3188 58.2911 61.1235 54.0959 61.1235 48.9405C61.1235 43.7851 65.3188 39.5898 70.4742 39.5898C75.6296 39.5898 79.8248 43.7851 79.8248 48.9405C79.8248 54.0959 75.6296 58.2911 70.4742 58.2911Z" fill="#FF9999"/>
<path fill-rule="evenodd" clip-rule="evenodd" d="M37.4505 52.9657C37.0508 50.5828 36.2113 48.3407 34.952 46.2946L34.8916 46.1966C33.5921 44.1228 31.9231 42.3532 29.9348 40.9331C27.939 39.5103 25.727 38.5099 23.3667 37.9645L23.334 37.9544C21.9817 37.6427 20.5867 37.4844 19.1916 37.4844C18.1635 37.4844 17.1279 37.5698 16.1124 37.7408C13.6943 38.1455 11.4195 39.0051 9.34829 40.2971L9.25277 40.3574V40.3625C7.2268 41.6419 5.48738 43.2908 4.07975 45.264C2.67213 47.2372 1.68176 49.419 1.13128 51.7517H1.12625L1.10112 51.8623C0.555662 54.2401 0.482767 56.6708 0.887459 59.0889C1.29215 61.5095 2.15181 63.7818 3.44381 65.8455L3.4614 65.8731C4.74837 67.9318 6.41239 69.6938 8.4082 71.1191C10.399 72.5393 12.616 73.5397 14.9989 74.0927L15.1095 74.1178C16.4317 74.4119 17.7915 74.5602 19.1514 74.5602C20.1795 74.5602 21.2176 74.4747 22.2331 74.3038C24.6185 73.9042 26.8632 73.0621 28.9042 71.8028H28.9092L29.0048 71.7449C31.0785 70.4454 32.8481 68.7764 34.2683 66.7881C35.6885 64.7973 36.6889 62.5803 37.2419 60.1974L37.267 60.0868H37.262C37.7873 57.7441 37.8527 55.3486 37.453 52.9632L37.4505 52.9657Z" fill="#F5FBFF" stroke="black" stroke-width="1.34955" stroke-linecap="round" stroke-linejoin="round"/>
<path fill-rule="evenodd" clip-rule="evenodd" d="M8.50635 70.9855C10.4519 72.373 12.6689 73.381 15.0367 73.9314L15.0417 73.9239L11.9626 66.1367L8.50635 70.983V70.9855Z" fill="#E5F1FF"/>
<path fill-rule="evenodd" clip-rule="evenodd" d="M8.50616 70.9864C6.56062 69.5989 4.87901 67.8318 3.59204 65.7706V65.7656L11.9624 66.1402L8.50616 70.9864Z" fill="#ADC4DB"/>
<path fill-rule="evenodd" clip-rule="evenodd" d="M1.26953 51.8981L6.92517 58.0766L9.91134 53.8889L9.06174 48.8164L1.26953 51.8981Z" fill="#E5F1FF"/>
<path fill-rule="evenodd" clip-rule="evenodd" d="M9.4363 40.4473L9.06177 48.8176L14.1342 47.968L17.1204 43.7828L9.4363 40.4473Z" fill="white"/>
<path fill-rule="evenodd" clip-rule="evenodd" d="M23.2988 38.125L17.1204 43.7831L21.308 46.7668L26.3805 45.9172L23.2988 38.125Z" fill="#E5F1FF"/>
<path fill-rule="evenodd" clip-rule="evenodd" d="M34.7434 46.2905L26.3806 45.916L27.2302 50.9885L31.4179 53.9747L34.7434 46.2905Z" fill="#E5F1FF"/>
<path fill-rule="evenodd" clip-rule="evenodd" d="M37.0659 60.1556L31.4178 53.9746L28.4316 58.1623L29.2812 63.2348L37.0659 60.1556Z" fill="#EFF0F2"/>
<path fill-rule="evenodd" clip-rule="evenodd" d="M28.9065 71.6016L29.2811 63.2363L24.2086 64.0859L21.2224 68.2736L28.9065 71.6016Z" fill="#E8DBED"/>
<path fill-rule="evenodd" clip-rule="evenodd" d="M15.0418 73.9219L21.2228 68.2713L17.0351 65.2852L11.9626 66.1348L15.0418 73.9219Z" fill="#EFF0F2"/>
<path fill-rule="evenodd" clip-rule="evenodd" d="M3.59204 65.7603L11.9624 66.1348L11.1128 61.0623L6.9251 58.0762L3.59204 65.7603Z" fill="#E5F1FF"/>
<path fill-rule="evenodd" clip-rule="evenodd" d="M9.91147 53.8906L6.92529 58.0783L11.113 61.0645L9.91147 53.8906Z" fill="#E8DBED"/>
<path fill-rule="evenodd" clip-rule="evenodd" d="M14.1342 47.9688L9.06177 48.8184L9.91137 53.8908L14.1342 47.9688Z" fill="#EFF0F2"/>
<path fill-rule="evenodd" clip-rule="evenodd" d="M21.3079 46.7669L17.1202 43.7832L14.134 47.9684L21.3079 46.7669Z" fill="#EFEECF"/>
<path fill-rule="evenodd" clip-rule="evenodd" d="M27.2302 50.9885L26.3806 45.916L21.3081 46.7656L27.2302 50.9885Z" fill="#ADC4DB"/>
<path fill-rule="evenodd" clip-rule="evenodd" d="M28.4317 58.1621L31.4179 53.9745L27.2302 50.9883L28.4317 58.1621Z" fill="white"/>
<path fill-rule="evenodd" clip-rule="evenodd" d="M24.2087 64.0861L29.2812 63.2365L28.4316 58.1641L24.2087 64.0861Z" fill="#E5F1FF"/>
<path fill-rule="evenodd" clip-rule="evenodd" d="M17.0352 65.2874L21.2228 68.2736L24.209 64.0859L17.0352 65.2874Z" fill="#9FAEBD"/>
<path fill-rule="evenodd" clip-rule="evenodd" d="M11.1128 61.0645L11.9624 66.1369L17.0349 65.2873L11.1128 61.0645Z" fill="white"/>
<path fill-rule="evenodd" clip-rule="evenodd" d="M1.05322 59.0609C1.44786 61.4187 2.29998 63.7011 3.58443 65.7572L3.59197 65.7622L6.92503 58.0781L1.05322 59.0609Z" fill="#D3DEFA"/>
<path fill-rule="evenodd" clip-rule="evenodd" d="M1.05334 59.0636C0.658702 56.7059 0.721543 54.2702 1.26448 51.9023H1.26951L6.92515 58.0808L1.05334 59.0636Z" fill="#C1CBD7"/>
<path fill-rule="evenodd" clip-rule="evenodd" d="M4.21549 45.3619C2.82797 47.3074 1.81247 49.5244 1.26953 51.8923V51.8973L9.06174 48.8156L4.21549 45.3594V45.3619Z" fill="#D3DEFA"/>
<path fill-rule="evenodd" clip-rule="evenodd" d="M4.21558 45.3614C5.60309 43.4158 7.37016 41.7342 9.43133 40.4473H9.43636L9.06183 48.8176L4.21558 45.3614Z" fill="#E5F1FF"/>
<path fill-rule="evenodd" clip-rule="evenodd" d="M16.1376 37.9082C13.7798 38.3028 11.4974 39.155 9.43628 40.4419V40.447L17.1229 43.78L16.1401 37.9082H16.1376Z" fill="#D3DEFA"/>
<path fill-rule="evenodd" clip-rule="evenodd" d="M16.1377 37.9078C18.4955 37.5132 20.9312 37.576 23.294 38.119L23.3015 38.124L17.123 43.7796L16.1402 37.9078H16.1377Z" fill="#ADC4DB"/>
<path fill-rule="evenodd" clip-rule="evenodd" d="M29.8367 41.071C27.8911 39.6834 25.6741 38.6679 23.3063 38.125H23.3013L26.383 45.9172L29.8392 41.071H29.8367Z" fill="white"/>
<path fill-rule="evenodd" clip-rule="evenodd" d="M29.8368 41.0703C31.7824 42.4578 33.459 44.2249 34.751 46.2861L34.7459 46.2936L26.3806 45.9191L29.8368 41.0728V41.0703Z" fill="#E8DBED"/>
<path fill-rule="evenodd" clip-rule="evenodd" d="M37.2845 52.9923C36.8899 50.6345 36.0378 48.3522 34.7508 46.291H34.7458L31.4177 53.9751L37.2845 52.9923Z" fill="#D3DEFA"/>
<path fill-rule="evenodd" clip-rule="evenodd" d="M37.2845 52.9922C37.6791 55.35 37.6163 57.7857 37.0734 60.1485L37.0683 60.156L31.4177 53.975L37.2845 52.9922Z" fill="white"/>
<path fill-rule="evenodd" clip-rule="evenodd" d="M34.1276 66.6917C35.5151 64.7461 36.523 62.5291 37.0735 60.1613L37.066 60.1562L29.2788 63.2354L34.1251 66.6917H34.1276Z" fill="#D3DEFA"/>
<path fill-rule="evenodd" clip-rule="evenodd" d="M34.1276 66.6925C32.7401 68.6381 30.973 70.3147 28.9118 71.6067L28.9043 71.6016L29.2788 63.2363L34.1251 66.6925H34.1276Z" fill="#ADC4DB"/>
<path fill-rule="evenodd" clip-rule="evenodd" d="M22.2052 74.1383C24.563 73.7436 26.8454 72.8915 28.9015 71.6071L28.9065 71.5995L21.2224 68.2715L22.2052 74.1383Z" fill="#D3DEFA"/>
<path fill-rule="evenodd" clip-rule="evenodd" d="M22.2055 74.1383C19.8477 74.5329 17.412 74.4701 15.0442 73.9271V73.9221L21.2227 68.2715L22.2055 74.1383Z" fill="#C9C9CB"/>
<path fill-rule="evenodd" clip-rule="evenodd" d="M28.4317 58.1624L24.2088 64.0844L17.035 65.2859L11.1129 61.0631L9.91138 53.8892L14.1343 47.9671L21.3081 46.7656L27.2302 50.9885L28.4317 58.1624Z" fill="#F5FBFF"/>
<path fill-rule="evenodd" clip-rule="evenodd" d="M27.0491 50.5614L26.0638 49.9908L23.6406 48.4575L25.9079 50.212L26.7826 50.941L26.2121 51.0943L23.7412 51.6222L26.2447 51.2728L26.8304 51.2225L26.2598 52.2079L24.729 54.631L26.481 52.3612L27.2125 51.489L27.3658 52.0595L27.8937 54.5304L27.5443 52.0269L27.4915 51.4387L28.4793 52.0093L30.9025 53.5426L28.6327 51.7881L27.7604 51.0566L28.3285 50.9058L30.8019 50.3779L28.2984 50.7273L27.7102 50.7776L28.2808 49.7923L29.8141 47.3691L28.0596 49.6389L27.3281 50.5112L27.1773 49.9406L26.6494 47.4697L26.9963 49.9732L27.0491 50.5614Z" fill="white"/>
<path d="M31.6014 73.8776C31.9408 70.8186 28.7384 64.0393 22.4242 66.9099C17.8092 69.0088 18.1762 72.2765 19.1691 75.6221C19.5286 76.8362 20.5466 78.0955 21.3409 79.0858C21.8813 79.757 22.9496 80.8479 24.6186 81.5844C27.0141 82.6426 30.6764 82.8688 32.3379 80.9861C32.9362 80.31 33.2881 79.3422 33.3937 79.0532C33.7908 77.9648 33.8486 77.0021 33.8386 76.3862" fill="#C68246"/>
<path d="M31.6015 73.8776C31.9408 70.8186 28.7384 64.0393 22.4242 66.9099C17.8092 69.0088 18.1762 72.2765 19.1691 75.6221C19.5286 76.8362 20.5466 78.0955 21.3409 79.0858C21.8813 79.757 22.9496 80.8479 24.6186 81.5844C27.0141 82.6426 30.6764 82.8688 32.3379 80.9861C32.9362 80.31 33.2881 79.3422 33.3937 79.0532C33.7908 77.9648 33.8486 77.0021 33.8386 76.3862" stroke="black" stroke-width="0.809729" stroke-linecap="round" stroke-linejoin="round"/>
</g>
<defs>
<filter id="filter0_d_12728_8615" x="3" y="0" width="92.0027" height="107.006" filterUnits="userSpaceOnUse" color-interpolation-filters="sRGB">
<feFlood flood-opacity="0" result="BackgroundImageFix"/>
<feColorMatrix in="SourceAlpha" type="matrix" values="0 0 0 0 0 0 0 0 0 0 0 0 0 0 0 0 0 0 127 0" result="hardAlpha"/>
<feOffset dy="4"/>
<feGaussianBlur stdDeviation="2"/>
<feComposite in2="hardAlpha" operator="out"/>
<feColorMatrix type="matrix" values="0 0 0 0 0 0 0 0 0 0 0 0 0 0 0 0 0 0 0.1 0"/>
<feBlend mode="normal" in2="BackgroundImageFix" result="effect1_dropShadow_12728_8615"/>
<feBlend mode="normal" in="SourceGraphic" in2="effect1_dropShadow_12728_8615" result="shape"/>
</filter>
<filter id="filter1_i_12728_8615" x="11" y="5" width="76" height="93" filterUnits="userSpaceOnUse" color-interpolation-filters="sRGB">
<feFlood flood-opacity="0" result="BackgroundImageFix"/>
<feBlend mode="normal" in="SourceGraphic" in2="BackgroundImageFix" result="shape"/>
<feColorMatrix in="SourceAlpha" type="matrix" values="0 0 0 0 0 0 0 0 0 0 0 0 0 0 0 0 0 0 127 0" result="hardAlpha"/>
<feOffset dy="4"/>
<feGaussianBlur stdDeviation="2"/>
<feComposite in2="hardAlpha" operator="arithmetic" k2="-1" k3="1"/>
<feColorMatrix type="matrix" values="0 0 0 0 0.6 0 0 0 0 0.72549 0 0 0 0 0.956863 0 0 0 0.25 0"/>
<feBlend mode="normal" in2="shape" result="effect1_innerShadow_12728_8615"/>
</filter>
<linearGradient id="paint0_linear_12728_8615" x1="49.0013" y1="0" x2="49.0013" y2="99.0054" gradientUnits="userSpaceOnUse">
<stop stop-color="#E4EFFE"/>
<stop offset="0.423077" stop-color="white"/>
<stop offset="0.673077" stop-color="#F0F6FE"/>
</linearGradient>
<clipPath id="clip0_12728_8615">
<rect width="97.3498" height="90" fill="white" transform="translate(0 13)"/>
</clipPath>
<clipPath id="clip1_12728_8615">
<rect width="97.3498" height="90" fill="white" transform="translate(0 13)"/>
</clipPath>
</defs>
</svg>
