<svg width="33" height="54" viewBox="0 0 33 54" fill="none" xmlns="http://www.w3.org/2000/svg">
<g clip-path="url(#clip0_12428_175)">
<path fill-rule="evenodd" clip-rule="evenodd" d="M13.5696 1.70366L14.4672 0.931689C15.0876 0.399295 15.6948 0 16.5 0C17.3052 0 17.9124 0.399295 18.5328 0.931689L19.4304 1.70366H13.5762H13.5696ZM23.0142 9.42337C22.7964 8.84439 22.4532 8.33862 21.9978 7.92601C21.5424 7.51341 20.9484 7.19397 20.2422 6.9677C19.536 6.74809 18.6846 6.63496 17.7012 6.63496C17.028 6.63496 16.401 6.70151 15.84 6.8213C15.279 6.94774 14.751 7.12742 14.289 7.35369C13.8204 7.57996 13.3914 7.85946 13.0152 8.1789C12.639 8.49834 12.3024 8.85105 12.0186 9.23703C11.7348 9.61636 11.484 10.029 11.2728 10.4549C11.0682 10.8808 10.8966 11.3267 10.7646 11.7792C10.6326 12.2317 10.5402 12.6909 10.4742 13.1501C10.4148 13.6093 10.3818 14.0685 10.3818 14.5144C10.3818 15.313 10.4874 16.045 10.7052 16.6839C10.923 17.3294 11.2662 17.8884 11.7348 18.341C12.2034 18.7935 12.804 19.1462 13.53 19.3858C14.2494 19.6254 15.1338 19.7452 16.1568 19.7452C16.6056 19.7452 17.028 19.7252 17.4042 19.6786C17.787 19.632 18.117 19.5854 18.4008 19.5255C18.6846 19.4657 18.9156 19.4058 19.0872 19.3459C19.3248 19.2593 19.3908 19.2194 19.4238 19.1928C19.4634 19.1529 19.4964 19.1063 19.5228 19.0597C19.5492 19.0131 19.569 18.9532 19.5822 18.8867C19.5954 18.8201 19.6086 18.7469 19.6152 18.6604C19.6152 18.5805 19.6218 18.4741 19.6218 18.3543C19.6218 18.2079 19.6218 18.0947 19.6086 17.9949C19.602 17.8951 19.5888 17.8152 19.569 17.7553C19.5426 17.6755 19.5096 17.6222 19.4634 17.589C19.4172 17.5557 19.3644 17.5424 19.305 17.5424C19.2588 17.5424 19.173 17.549 18.9486 17.6222C18.7902 17.6688 18.5856 17.7221 18.3348 17.7753C18.084 17.8285 17.787 17.8818 17.4504 17.9284C17.1204 17.9749 16.7442 18.0016 16.3416 18.0016C15.5628 18.0016 14.9094 17.9151 14.4012 17.7553C13.893 17.589 13.4838 17.3494 13.1802 17.0433C12.8766 16.7371 12.6654 16.3511 12.54 15.9119C12.4146 15.4594 12.3486 14.9403 12.3486 14.368C12.3486 14.0485 12.3684 13.7158 12.4014 13.3764C12.441 13.037 12.4938 12.6976 12.573 12.3582C12.6522 12.0188 12.7578 11.6794 12.8898 11.3533C13.0218 11.0272 13.1868 10.7078 13.3782 10.4216C13.5696 10.1288 13.8006 9.85594 14.058 9.60971C14.3154 9.36348 14.619 9.15052 14.949 8.97084C15.279 8.79115 15.6618 8.64474 16.0776 8.54492C16.4934 8.4451 16.9686 8.39186 17.4834 8.39186C18.249 8.39186 18.8826 8.47837 19.3776 8.63809C19.866 8.80446 20.2554 9.02408 20.5392 9.31024C20.823 9.58974 21.021 9.91584 21.1332 10.2819C21.2454 10.6545 21.3048 11.0538 21.3048 11.4731C21.3048 11.706 21.2916 11.9522 21.2718 12.1985C21.2454 12.4447 21.2124 12.6976 21.1596 12.9438C21.1134 13.1901 21.0474 13.423 20.9682 13.6492C20.889 13.8689 20.7966 14.0619 20.6844 14.2282C20.5788 14.3879 20.4534 14.521 20.3082 14.6142C20.1696 14.7074 20.0178 14.7473 19.8528 14.7473C19.602 14.7473 19.4436 14.6741 19.3644 14.5277C19.2786 14.368 19.272 14.0951 19.338 13.7225L20.031 10.1022C20.0376 10.0356 20.031 9.97573 20.0046 9.92249C19.9782 9.8626 19.9254 9.81601 19.8462 9.78274C19.7802 9.75612 19.701 9.7295 19.5954 9.71619C19.4964 9.70288 19.3776 9.69622 19.2324 9.69622C18.9354 9.69622 18.7308 9.72284 18.612 9.77608C18.4338 9.85594 18.3744 9.97573 18.3546 10.0689L18.2622 10.4748C18.1566 10.3551 18.0576 10.2486 17.9652 10.1554C17.8266 10.0223 17.6748 9.90918 17.523 9.82267C17.3712 9.73615 17.2128 9.67626 17.0478 9.63633C16.8828 9.5964 16.7046 9.57643 16.5198 9.57643C16.104 9.57643 15.7344 9.65629 15.411 9.8027C15.0942 9.95576 14.8104 10.1554 14.5728 10.4016C14.3352 10.6479 14.1372 10.9274 13.9788 11.2402C13.8204 11.5463 13.695 11.8724 13.596 12.2051C13.5036 12.5379 13.431 12.864 13.3914 13.1767C13.3518 13.4895 13.332 13.7823 13.332 14.0352C13.332 14.2349 13.3452 14.4279 13.3716 14.6209C13.398 14.8139 13.4376 15.0069 13.5036 15.1799C13.563 15.3596 13.6488 15.5259 13.7412 15.679C13.8402 15.8321 13.9656 15.9652 14.1174 16.0783C14.2692 16.1914 14.4474 16.2846 14.652 16.3511C15.0084 16.4643 15.5034 16.4842 15.9588 16.3844C16.1568 16.3378 16.3614 16.2646 16.566 16.1648C16.764 16.065 16.9686 15.9385 17.1732 15.7855C17.3382 15.6657 17.5098 15.5193 17.6748 15.3529C17.7276 15.4927 17.7936 15.6191 17.8728 15.7322C17.985 15.892 18.1302 16.0251 18.3018 16.1315C18.4734 16.238 18.6714 16.3179 18.8958 16.3711C19.1136 16.4244 19.3644 16.451 19.635 16.451C20.0838 16.451 20.493 16.3778 20.8494 16.238C21.2058 16.0983 21.5226 15.8986 21.7998 15.659C22.0704 15.4128 22.308 15.1266 22.4994 14.7939C22.6908 14.4678 22.8492 14.1084 22.968 13.7358C23.0868 13.3631 23.1792 12.9704 23.232 12.5645C23.2848 12.1585 23.3112 11.7526 23.3112 11.36C23.3112 10.6545 23.2056 10.009 22.9878 9.43003L23.0142 9.42337ZM17.424 13.8023C17.2722 13.9687 17.127 14.1084 17.0016 14.2282C16.8696 14.348 16.7442 14.4478 16.632 14.521C16.5198 14.5942 16.4142 14.6475 16.3152 14.6808C16.2162 14.714 16.1238 14.7273 16.0314 14.7273C15.7938 14.7273 15.6288 14.6541 15.5298 14.4944C15.4242 14.3214 15.3714 14.0885 15.3714 13.7823C15.3714 13.6492 15.3846 13.4895 15.4044 13.3032C15.4242 13.1235 15.4572 12.9372 15.51 12.7508C15.5562 12.5645 15.6222 12.3782 15.6948 12.1985C15.7674 12.0254 15.8598 11.8591 15.9654 11.7193C16.071 11.5796 16.1898 11.4731 16.3218 11.3932C16.4538 11.3134 16.599 11.2734 16.7706 11.2734C16.962 11.2734 17.1336 11.34 17.292 11.4731C17.4504 11.6062 17.6022 11.8125 17.7474 12.0787L17.4306 13.7957L17.424 13.8023ZM5.9928 2.92151H27.0138C28.2282 2.92151 29.2182 3.91975 29.2182 5.14426V14.0619C29.2182 14.2615 29.1324 14.4345 28.9674 14.5543L28.2084 15.1067C28.0962 15.1865 27.9576 15.1998 27.8322 15.1333C27.7068 15.0667 27.6342 14.947 27.6342 14.8072V5.2108C27.6342 4.87806 27.3636 4.60521 27.0336 4.60521H5.973C5.643 4.60521 5.3724 4.87806 5.3724 5.2108V14.8139C5.3724 14.9536 5.2998 15.0734 5.1744 15.1399C5.049 15.2065 4.9104 15.1932 4.7982 15.1133L4.0392 14.561C3.8808 14.4412 3.7884 14.2682 3.7884 14.0685V5.14426C3.7884 3.91975 4.7784 2.92151 5.9928 2.92151ZM16.5 34H2.409C1.0824 34 0 32.9086 0 31.571V15.3529C0 14.4811 0.0396 13.3498 1.32 12.2517L1.5906 12.0188C1.7754 11.8591 2.013 11.8258 2.2308 11.9256C2.4486 12.0254 2.5806 12.2317 2.5806 12.478V14.368C2.5806 14.7673 2.7522 15.1133 3.0756 15.3529L3.6564 15.7788L15.0546 24.3371C15.9192 24.9892 17.0676 24.9892 17.9322 24.3371L29.3304 15.7788L29.9112 15.3529C30.2346 15.12 30.4062 14.7739 30.4062 14.368V12.478C30.4062 12.2384 30.5382 12.0254 30.756 11.9256C30.9738 11.8258 31.218 11.8591 31.3962 12.0188L31.6668 12.2517C32.9406 13.3498 32.9868 14.4811 32.9868 15.3529V31.571C32.9868 32.9086 31.9044 34 30.5778 34H16.4868H16.5Z" fill="white"/>
</g>
<path d="M0.722656 51V43.9297H5.15625V44.8574H1.79688V46.9961H4.92188V47.9141H1.79688V50.0723H5.19531V51H0.722656ZM7.43164 47.8555V51H6.38672V45.6973H7.39258V46.5664H7.45117C7.70508 46 8.22266 45.6289 9.01367 45.6289C10.1074 45.6289 10.8203 46.3125 10.8203 47.6309V51H9.78516V47.7578C9.78516 46.9863 9.36523 46.5273 8.66211 46.5273C7.94922 46.5273 7.43164 47.0059 7.43164 47.8555ZM14.3164 53.0996C12.9785 53.0996 12.0996 52.5039 12.002 51.5176H13.0664C13.1641 52.0156 13.6328 52.2598 14.3262 52.2598C15.1562 52.2598 15.6836 51.9082 15.6836 51.0781V50.0332H15.6152C15.4297 50.375 15.0488 50.9219 14.0723 50.9219C12.8223 50.9219 11.8555 49.9844 11.8555 48.2949C11.8555 46.6055 12.8027 45.6289 14.082 45.6289C15.0684 45.6289 15.4297 46.2246 15.625 46.5566H15.6934V45.6973H16.709V51.1172C16.709 52.4746 15.6836 53.0996 14.3164 53.0996ZM14.3066 50.0625C15.1953 50.0625 15.6934 49.4082 15.6934 48.3145C15.6934 47.2402 15.2051 46.5176 14.3066 46.5176C13.3789 46.5176 12.9199 47.2988 12.9199 48.3145C12.9199 49.3496 13.3984 50.0625 14.3066 50.0625ZM19.0234 43.9297V51H17.9785V43.9297H19.0234ZM20.293 51V45.6973H21.3379V51H20.293ZM20.8203 44.877C20.459 44.877 20.1562 44.6035 20.1562 44.2617C20.1562 43.9199 20.459 43.6465 20.8203 43.6465C21.1719 43.6465 21.4746 43.9199 21.4746 44.2617C21.4746 44.6035 21.1719 44.877 20.8203 44.877ZM25.5859 47.1426C25.4883 46.7227 25.1562 46.4492 24.5801 46.4492C23.9844 46.4492 23.5547 46.7617 23.5645 47.1621C23.5547 47.4746 23.8086 47.6992 24.3945 47.8359L25.2344 48.0312C26.2109 48.2461 26.6797 48.7148 26.6895 49.4668C26.6797 50.4238 25.8789 51.1074 24.5215 51.1074C23.252 51.1074 22.4902 50.541 22.3633 49.5547H23.4277C23.5156 50.0332 23.8867 50.2676 24.5117 50.2676C25.1855 50.2676 25.6152 49.9941 25.625 49.5449C25.6152 49.2031 25.3613 48.9785 24.8047 48.8516L23.9746 48.6758C23.0176 48.4609 22.5195 47.9531 22.5195 47.2207C22.5195 46.2734 23.3398 45.6289 24.5703 45.6289C25.752 45.6289 26.4844 46.2344 26.5918 47.1426H25.5859ZM28.75 47.8555V51H27.7051V43.9297H28.7305V46.5664H28.7988C29.0527 45.9902 29.541 45.6289 30.3711 45.6289C31.4648 45.6289 32.1875 46.3027 32.1875 47.6309V51H31.1426V47.7578C31.1426 46.9766 30.7227 46.5273 30.0195 46.5273C29.2871 46.5273 28.75 47.0059 28.75 47.8555Z" fill="white"/>
<defs>
<clipPath id="clip0_12428_175">
<rect width="33" height="34" fill="white"/>
</clipPath>
</defs>
</svg>
