<svg width="37" height="54" viewBox="0 0 37 54" fill="none" xmlns="http://www.w3.org/2000/svg">
<g clip-path="url(#clip0_12428_156)">
<path d="M26.5575 28.235C26.5595 28.5858 26.5289 28.9405 26.4662 29.2887C25.9696 32.0522 23.542 33.9999 20.8145 33.9999C20.4817 34.0001 20.1446 33.971 19.8059 33.9109C16.6255 33.3474 13.6493 32.1762 10.9598 30.4296C8.3618 28.7423 6.13935 26.5923 4.35395 24.0386C2.56854 21.485 1.30979 18.6557 0.612783 15.6296C-0.108732 12.496 -0.193545 9.2874 0.360746 6.09278C0.622634 4.58348 1.45443 3.26686 2.70309 2.38549C3.95174 1.50413 5.46757 1.16339 6.97139 1.42648H6.97259C7.30944 1.48604 7.64029 1.57502 7.95624 1.69077C8.51581 1.8955 9.03767 2.18631 9.50738 2.55501C9.87811 2.84607 10.0951 3.30375 10.0879 3.77928L9.98503 10.5143C9.97806 10.9778 9.75197 11.4188 9.38076 11.6935C8.58309 12.2838 7.6672 12.6501 6.70037 12.7699C7.50238 18.2209 10.904 23.0753 15.7439 25.6753C16.1831 24.8026 16.8364 24.0613 17.6596 23.5074C18.0428 23.2496 18.5324 23.1853 18.9695 23.3352L25.3197 25.5154C25.7683 25.6692 26.1241 26.029 26.2716 26.4775C26.4585 27.0457 26.5546 27.6372 26.5575 28.235Z" fill="white"/>
<path d="M36.6161 5.12326V11.0305C36.6161 12.411 36.026 13.7052 34.9545 14.6748C33.9004 15.6285 32.503 16.154 31.0199 16.154H24.5906C24.5906 16.154 24.5894 16.1552 24.589 16.1556L20.3581 20.4414C20.1325 20.679 19.8298 20.8063 19.5162 20.8063C19.3951 20.8063 19.2726 20.7872 19.1522 20.7484C18.7265 20.6102 18.4238 20.2529 18.356 19.8111L17.5492 16.0556C17.5473 16.0476 17.5458 16.0397 17.5444 16.0317C16.3335 15.785 15.2314 15.1648 14.4394 14.2832C13.6194 13.3702 13.168 12.2152 13.168 11.0305V5.12326C13.168 3.74297 13.7581 2.44878 14.8296 1.47915C15.8837 0.525203 17.2811 0 18.7642 0H31.0199C32.503 0 33.9004 0.525203 34.9545 1.47915C36.026 2.44878 36.6161 3.74297 36.6161 5.12326Z" fill="white"/>
<path d="M16.7007 11V4.63672H20.9722V5.72656H18.019V7.27344H20.7524V8.36328H18.019V9.91016H20.981V11H16.7007ZM27.3091 4.63672V11H26.1665L23.3716 6.95703H23.3188V11H22.0005V4.63672H23.1606L25.938 8.67969H25.9995V4.63672H27.3091ZM32.6089 6.68457C32.4331 6.08691 31.9497 5.71777 31.2554 5.71777C30.271 5.71777 29.603 6.47363 29.603 7.80957C29.603 9.1543 30.2534 9.91895 31.2642 9.91895C32.1738 9.91895 32.7144 9.40479 32.7319 8.60059H31.3521V7.60742H34.0063V8.39844C34.0063 10.0684 32.8638 11.0879 31.2554 11.0879C29.4712 11.0879 28.2583 9.83984 28.2583 7.82715C28.2583 5.76172 29.5503 4.54883 31.229 4.54883C32.6616 4.54883 33.769 5.42773 33.9448 6.68457H32.6089Z" fill="#476BB9"/>
</g>
<path d="M2.72266 51V43.9297H7.15625V44.8574H3.79688V46.9961H6.92188V47.9141H3.79688V50.0723H7.19531V51H2.72266ZM9.43164 47.8555V51H8.38672V45.6973H9.39258V46.5664H9.45117C9.70508 46 10.2227 45.6289 11.0137 45.6289C12.1074 45.6289 12.8203 46.3125 12.8203 47.6309V51H11.7852V47.7578C11.7852 46.9863 11.3652 46.5273 10.6621 46.5273C9.94922 46.5273 9.43164 47.0059 9.43164 47.8555ZM16.3164 53.0996C14.9785 53.0996 14.0996 52.5039 14.002 51.5176H15.0664C15.1641 52.0156 15.6328 52.2598 16.3262 52.2598C17.1562 52.2598 17.6836 51.9082 17.6836 51.0781V50.0332H17.6152C17.4297 50.375 17.0488 50.9219 16.0723 50.9219C14.8223 50.9219 13.8555 49.9844 13.8555 48.2949C13.8555 46.6055 14.8027 45.6289 16.082 45.6289C17.0684 45.6289 17.4297 46.2246 17.625 46.5566H17.6934V45.6973H18.709V51.1172C18.709 52.4746 17.6836 53.0996 16.3164 53.0996ZM16.3066 50.0625C17.1953 50.0625 17.6934 49.4082 17.6934 48.3145C17.6934 47.2402 17.2051 46.5176 16.3066 46.5176C15.3789 46.5176 14.9199 47.2988 14.9199 48.3145C14.9199 49.3496 15.3984 50.0625 16.3066 50.0625ZM21.0234 43.9297V51H19.9785V43.9297H21.0234ZM22.293 51V45.6973H23.3379V51H22.293ZM22.8203 44.877C22.459 44.877 22.1562 44.6035 22.1562 44.2617C22.1562 43.9199 22.459 43.6465 22.8203 43.6465C23.1719 43.6465 23.4746 43.9199 23.4746 44.2617C23.4746 44.6035 23.1719 44.877 22.8203 44.877ZM27.5859 47.1426C27.4883 46.7227 27.1562 46.4492 26.5801 46.4492C25.9844 46.4492 25.5547 46.7617 25.5645 47.1621C25.5547 47.4746 25.8086 47.6992 26.3945 47.8359L27.2344 48.0312C28.2109 48.2461 28.6797 48.7148 28.6895 49.4668C28.6797 50.4238 27.8789 51.1074 26.5215 51.1074C25.252 51.1074 24.4902 50.541 24.3633 49.5547H25.4277C25.5156 50.0332 25.8867 50.2676 26.5117 50.2676C27.1855 50.2676 27.6152 49.9941 27.625 49.5449C27.6152 49.2031 27.3613 48.9785 26.8047 48.8516L25.9746 48.6758C25.0176 48.4609 24.5195 47.9531 24.5195 47.2207C24.5195 46.2734 25.3398 45.6289 26.5703 45.6289C27.752 45.6289 28.4844 46.2344 28.5918 47.1426H27.5859ZM30.75 47.8555V51H29.7051V43.9297H30.7305V46.5664H30.7988C31.0527 45.9902 31.541 45.6289 32.3711 45.6289C33.4648 45.6289 34.1875 46.3027 34.1875 47.6309V51H33.1426V47.7578C33.1426 46.9766 32.7227 46.5273 32.0195 46.5273C31.2871 46.5273 30.75 47.0059 30.75 47.8555Z" fill="white"/>
<defs>
<clipPath id="clip0_12428_156">
<rect width="36.6154" height="34" fill="white"/>
</clipPath>
</defs>
</svg>
