<svg width="27" height="24" viewBox="0 0 27 24" fill="none" xmlns="http://www.w3.org/2000/svg">
<g clip-path="url(#clip0_12428_143)">
<path d="M3.98303 15.4346C4.04513 15.5459 4.08023 15.6734 4.08023 15.8089V18.789C3.90473 18.5582 3.80078 18.2697 3.80078 17.9584V15.4346H3.98303Z" fill="black"/>
<path d="M27.0019 4.35698V17.7866C27.0019 18.55 26.3769 19.1713 25.6087 19.1713H24.013C23.9509 19.1713 23.8996 19.2223 23.8996 19.284V23.0194C23.8996 23.2435 23.7727 23.4407 23.5689 23.536C23.4906 23.5722 23.4069 23.591 23.3245 23.591C23.1936 23.591 23.0653 23.5454 22.96 23.4582L17.8719 19.2531C17.8084 19.2008 17.7274 19.1713 17.6451 19.1713H5.194C4.7971 19.1713 4.43935 19.0049 4.18555 18.7392L4.9429 18.1126C5.0131 18.1663 5.0995 18.1972 5.194 18.1972H17.9124C18.0514 18.1972 18.1864 18.2455 18.2931 18.334L22.9222 22.1593V18.9713C22.9222 18.5447 23.2719 18.1972 23.7012 18.1972H25.6101C25.8382 18.1972 26.0232 18.012 26.0232 17.7852V4.35698C26.0232 4.13022 25.8369 3.9464 25.6101 3.9464H22.2229V2.97363H25.6101C26.3782 2.97363 27.0033 3.59486 27.0033 4.35832L27.0019 4.35698Z" fill="black"/>
<path d="M21.8065 -0.517578H1.3932C0.62505 -0.517578 0 0.103653 0 0.86711V14.2967C0 15.0602 0.62505 15.6814 1.3932 15.6814H2.98755C3.04965 15.6814 3.10095 15.7324 3.10095 15.7941V19.5295C3.10095 19.8435 3.3588 20.0998 3.6774 20.0998C3.81105 20.0998 3.9366 20.0542 4.0419 19.9669L5.19345 19.0156L6.37065 18.0429L9.13005 15.7619C9.1935 15.7096 9.2745 15.68 9.35685 15.68H21.8092C22.5774 15.68 23.2024 15.0588 23.2024 14.2954V0.86711C23.2024 0.103653 22.5774 -0.517578 21.8092 -0.517578H21.8065ZM22.221 14.2967C22.221 14.5235 22.036 14.7073 21.8079 14.7073H9.08955C8.9505 14.7073 8.8155 14.7556 8.70885 14.8441L4.94235 17.957L4.185 18.5836L4.08105 18.6695V15.4815C4.08105 15.346 4.04595 15.2185 3.98385 15.1071C3.85155 14.8696 3.59505 14.7073 3.3021 14.7073H1.3932C1.16505 14.7073 0.9801 14.5221 0.9801 14.2967V0.86711C0.9801 0.640354 1.1664 0.455192 1.3932 0.455192H21.8079C22.036 0.455192 22.221 0.640354 22.221 0.86711V14.2967Z" fill="black"/>
<path d="M7.89979 5.04395H5.00821C4.68827 5.04395 4.42773 5.30344 4.42773 5.62209V10.2445C4.42773 10.5054 4.64103 10.7165 4.90156 10.7165H5.02711C5.289 10.7165 5.50094 10.504 5.50094 10.2445V8.32188H7.27612C7.53801 8.32188 7.74995 8.10945 7.74995 7.84996C7.74995 7.59046 7.53666 7.37803 7.27612 7.37803H5.50094V5.98914H7.89979C8.16168 5.98914 8.37362 5.77671 8.37362 5.51722C8.37362 5.25772 8.16033 5.04529 7.89979 5.04529V5.04395Z" fill="black"/>
<path d="M11.5048 5.38346C11.409 5.1401 11.1768 4.98145 10.9136 4.98145C10.6503 4.98145 10.4181 5.13875 10.3223 5.38346L8.50122 9.99919C8.43777 10.1605 8.45802 10.3434 8.55656 10.4873C8.65511 10.6311 8.8171 10.7172 8.9926 10.7172C9.20859 10.7172 9.40028 10.5881 9.48128 10.3891L10.0037 9.09971H11.8261L12.3486 10.3891C12.4296 10.5881 12.6212 10.7172 12.8372 10.7172C13.0114 10.7172 13.1747 10.6311 13.2733 10.4873C13.3718 10.3434 13.3921 10.1605 13.3286 9.99919L11.5075 5.38346H11.5048ZM11.4684 8.15585H10.3574L10.9136 6.68764L11.4697 8.15585H11.4684Z" fill="black"/>
<path d="M18.1689 9.88217C18.5712 9.33496 18.7751 8.66673 18.7751 7.89632C18.7751 6.9807 18.5051 6.24794 17.9732 5.7182C17.5034 5.25031 16.9256 5.01367 16.2547 5.01367C15.5838 5.01367 15.006 5.25031 14.5362 5.7182C14.0044 6.24794 13.7344 6.9807 13.7344 7.89632C13.7344 8.81194 14.0044 9.5447 14.5362 10.0744C15.006 10.5423 15.5838 10.779 16.2547 10.779C16.6354 10.779 17.0188 10.6889 17.3968 10.5114L17.6249 10.779C17.7127 10.8812 17.8355 10.943 17.9705 10.9497C17.9799 10.9497 17.9894 10.9497 18.0002 10.9497C18.1244 10.9497 18.2418 10.904 18.3336 10.818L18.3458 10.8072C18.5361 10.6297 18.555 10.3353 18.3863 10.1363L18.1703 9.88083L18.1689 9.88217ZM16.4302 8.62236C16.2291 8.7958 16.2034 9.09429 16.3708 9.3L16.7367 9.74772C16.6044 9.80554 16.4424 9.83512 16.2534 9.83512C15.9037 9.83512 15.5973 9.69932 15.3165 9.41966C14.9993 9.1037 14.8373 8.59144 14.8373 7.89632C14.8373 7.2012 14.9979 6.68894 15.3165 6.37298C15.5973 6.09332 15.9037 5.95752 16.2534 5.95752C16.603 5.95752 16.9094 6.09332 17.1902 6.37298C17.5075 6.69029 17.6695 7.20255 17.6695 7.89632C17.6695 8.379 17.5952 8.76891 17.4494 9.05798L17.1241 8.67614C17.039 8.5753 16.9189 8.5148 16.7879 8.50539C16.6557 8.49463 16.5288 8.53766 16.4289 8.6237L16.4302 8.62236Z" fill="black"/>
</g>
<defs>
<clipPath id="clip0_12428_143">
<rect width="27" height="24" fill="white"/>
</clipPath>
</defs>
</svg>
