<svg width="37" height="54" viewBox="0 0 37 54" fill="none" xmlns="http://www.w3.org/2000/svg">
<path d="M2.72266 51V43.9297H3.79688V47.2988H3.88477L6.84375 43.9297H8.19141L5.33984 47.1133L8.20117 51H6.90234L4.62695 47.8457L3.79688 48.8027V51H2.72266ZM10.8477 51.1074C9.34375 51.1074 8.36719 50.0137 8.36719 48.373C8.36719 46.7227 9.34375 45.6289 10.8477 45.6289C12.3418 45.6289 13.3184 46.7227 13.3184 48.373C13.3184 50.0137 12.3418 51.1074 10.8477 51.1074ZM10.8477 50.2383C11.8047 50.2383 12.2637 49.3887 12.2637 48.373C12.2637 47.3574 11.8047 46.4883 10.8477 46.4883C9.87109 46.4883 9.41211 47.3574 9.41211 48.373C9.41211 49.3887 9.87109 50.2383 10.8477 50.2383ZM14.3438 51V45.6973H15.3496V46.5371H15.4082C15.6035 45.9707 16.1309 45.6191 16.7559 45.6191C16.8828 45.6191 17.0879 45.6289 17.1953 45.6387V46.6348C17.1074 46.6152 16.8633 46.5762 16.6484 46.5762C15.9258 46.5762 15.3887 47.0742 15.3887 47.7676V51H14.3438ZM20.0859 51.1074C18.5234 51.1074 17.5664 50.0332 17.5664 48.3828C17.5664 46.752 18.543 45.6289 20.0176 45.6289C21.2285 45.6289 22.3711 46.3809 22.3711 48.2949V48.666H18.6016C18.6309 49.6719 19.2217 50.248 20.0957 50.248C20.6914 50.248 21.0723 49.9941 21.248 49.6719H22.3027C22.0684 50.5312 21.248 51.1074 20.0859 51.1074ZM18.6113 47.8848H21.3457C21.3457 47.0742 20.8281 46.4883 20.0273 46.4883C19.1924 46.4883 18.6504 47.1328 18.6113 47.8848ZM23.1621 49.5059C23.1621 48.2949 24.1875 47.9824 25.1445 47.9141C25.4961 47.8896 26.292 47.8457 26.541 47.8359L26.5312 47.416C26.5312 46.8203 26.1699 46.4688 25.457 46.4688C24.8418 46.4688 24.4707 46.752 24.3633 47.1426H23.3281C23.4258 46.2637 24.2461 45.6289 25.4961 45.6289C26.3359 45.6289 27.5762 45.9414 27.5762 47.4746V51H26.5605V50.2773H26.5215C26.3164 50.6777 25.8281 51.1172 24.9492 51.1172C23.9434 51.1172 23.1621 50.541 23.1621 49.5059ZM24.1777 49.5156C24.1777 50.0234 24.5977 50.2871 25.1836 50.2871C26.0332 50.2871 26.541 49.7207 26.541 49.0859V48.5977L25.291 48.6855C24.6074 48.7344 24.1777 48.9883 24.1777 49.5156ZM29.8809 47.8555V51H28.8359V45.6973H29.8418V46.5664H29.9004C30.1543 46 30.6719 45.6289 31.4629 45.6289C32.5566 45.6289 33.2695 46.3125 33.2695 47.6309V51H32.2344V47.7578C32.2344 46.9863 31.8145 46.5273 31.1113 46.5273C30.3984 46.5273 29.8809 47.0059 29.8809 47.8555Z" fill="white"/>
<g clip-path="url(#clip0_12428_180)">
<path d="M26.5575 28.235C26.5595 28.5858 26.5289 28.9405 26.4662 29.2887C25.9696 32.0522 23.542 33.9999 20.8145 33.9999C20.4817 34.0001 20.1446 33.971 19.8059 33.9109C16.6255 33.3474 13.6493 32.1762 10.9598 30.4296C8.3618 28.7423 6.13935 26.5923 4.35395 24.0386C2.56854 21.485 1.30979 18.6557 0.612783 15.6296C-0.108732 12.496 -0.193545 9.2874 0.360746 6.09278C0.622634 4.58348 1.45443 3.26686 2.70309 2.38549C3.95174 1.50413 5.46757 1.16339 6.97139 1.42648H6.97259C7.30944 1.48604 7.64029 1.57502 7.95624 1.69077C8.51581 1.8955 9.03767 2.18631 9.50738 2.55501C9.87811 2.84607 10.0951 3.30375 10.0879 3.77928L9.98503 10.5143C9.97806 10.9778 9.75197 11.4188 9.38076 11.6935C8.58309 12.2838 7.6672 12.6501 6.70037 12.7699C7.50238 18.2209 10.904 23.0753 15.7439 25.6753C16.1831 24.8026 16.8364 24.0613 17.6596 23.5074C18.0428 23.2496 18.5324 23.1853 18.9695 23.3352L25.3197 25.5154C25.7683 25.6692 26.1241 26.029 26.2716 26.4775C26.4585 27.0457 26.5546 27.6372 26.5575 28.235Z" fill="white"/>
<path d="M36.6161 5.12326V11.0305C36.6161 12.411 36.026 13.7052 34.9545 14.6748C33.9004 15.6285 32.503 16.154 31.0199 16.154H24.5906C24.5906 16.154 24.5894 16.1552 24.589 16.1556L20.3581 20.4414C20.1325 20.679 19.8298 20.8063 19.5162 20.8063C19.3951 20.8063 19.2726 20.7872 19.1522 20.7484C18.7265 20.6102 18.4238 20.2529 18.356 19.8111L17.5492 16.0556C17.5473 16.0476 17.5458 16.0397 17.5444 16.0317C16.3335 15.785 15.2314 15.1648 14.4394 14.2832C13.6194 13.3702 13.168 12.2152 13.168 11.0305V5.12326C13.168 3.74297 13.7581 2.44878 14.8296 1.47915C15.8837 0.525203 17.2811 0 18.7642 0H31.0199C32.503 0 33.9004 0.525203 34.9545 1.47915C36.026 2.44878 36.6161 3.74297 36.6161 5.12326Z" fill="white"/>
<path d="M16.8018 11V4.63672H18.1201V7.45801H18.208L20.5195 4.63672H22.1104L19.7373 7.48438L22.1367 11H20.5547L18.7881 8.37207L18.1201 9.18066V11H16.8018ZM28.2363 7.81836C28.2363 9.89258 26.9443 11.0879 25.2656 11.0879C23.5693 11.0879 22.2861 9.88379 22.2861 7.81836C22.2861 5.74414 23.5693 4.54883 25.2656 4.54883C26.9443 4.54883 28.2363 5.74414 28.2363 7.81836ZM26.8916 7.81836C26.8916 6.45605 26.25 5.71777 25.2656 5.71777C24.2812 5.71777 23.6309 6.45605 23.6309 7.81836C23.6309 9.18066 24.2812 9.91895 25.2656 9.91895C26.25 9.91895 26.8916 9.18066 26.8916 7.81836ZM29.1855 11V4.63672H31.6816C33.1318 4.63672 33.958 5.4541 33.958 6.71094C33.958 7.58105 33.5581 8.21387 32.833 8.52148L34.1865 11H32.7275L31.5146 8.74121H30.5039V11H29.1855ZM30.5039 7.66895H31.4355C32.2178 7.66895 32.5957 7.34375 32.5957 6.71094C32.5957 6.06934 32.2178 5.71777 31.4355 5.71777H30.5039V7.66895Z" fill="#476BB9"/>
</g>
<defs>
<clipPath id="clip0_12428_180">
<rect width="36.6154" height="34" fill="white"/>
</clipPath>
</defs>
</svg>
