<svg width="24" height="20" viewBox="0 0 24 20" fill="none" xmlns="http://www.w3.org/2000/svg">
<path d="M16.356 0.288096C16.0094 0.0546893 15.5867 0.037025 15.225 0.240859L5.4413 5.75787H1.4998C0.672864 5.75787 0 6.49897 0 7.40978V12.5896C0 13.5004 0.672864 14.2415 1.4998 14.2415H5.4413L15.2252 19.7583C15.3926 19.8528 15.5732 19.8996 15.7532 19.8996C15.9619 19.8996 16.17 19.8365 16.3561 19.7113C16.7027 19.4778 16.9095 19.0714 16.9095 18.624V1.37534C16.9095 0.927979 16.7027 0.521503 16.3561 0.288096H16.356ZM0.720797 12.5896V7.40978C0.720797 6.93661 1.0702 6.55177 1.4998 6.55177H5.16775V13.4474H1.4998C1.0702 13.4474 0.720797 13.0625 0.720797 12.5894V12.5896ZM16.1886 18.6238C16.1886 18.7949 16.1125 18.9443 15.9799 19.0337C15.8473 19.123 15.6919 19.1293 15.5535 19.0515L5.88855 13.6018V6.39755L15.5535 0.947628C15.6919 0.869628 15.8473 0.876177 15.9799 0.965491C16.1125 1.0548 16.1886 1.20426 16.1886 1.37534V18.6238Z" fill="black"/>
<path d="M18 13.2994V12.5196C19.3967 12.5196 20.533 11.3217 20.533 9.84941C20.533 8.37708 19.3967 7.17925 18 7.17925V6.39941C19.8047 6.39941 21.2728 7.9472 21.2728 9.84941C21.2728 11.7516 19.8045 13.2994 18 13.2994Z" fill="black"/>
<path d="M18 16.3V15.5168C19.4034 15.5168 20.723 14.9429 21.7152 13.9009C22.7077 12.8588 23.2542 11.4736 23.2542 10C23.2542 8.52642 22.7077 7.14095 21.7152 6.09911C20.7228 5.05708 19.4034 4.48339 18 4.48339V3.7002C19.6026 3.7002 21.1095 4.35553 22.2428 5.5454C23.376 6.73526 24.0002 8.31731 24.0002 10.0002C24.0002 11.6831 23.376 13.2651 22.2428 14.455C21.1095 15.6449 19.6028 16.3002 18 16.3002V16.3Z" fill="black"/>
</svg>
