<svg width="24" height="25" viewBox="0 0 24 25" fill="none" xmlns="http://www.w3.org/2000/svg">
<g id="icon/navigation">
<g id="Vector">
<path d="M12 13.9C11.337 13.9 10.7011 14.1634 10.2322 14.6323C9.7634 15.1011 9.50001 15.737 9.50001 16.4V22.255H14.5V16.4C14.5 15.737 14.2366 15.1011 13.7678 14.6323C13.2989 14.1634 12.663 13.9 12 13.9Z" fill="current"/>
<path d="M13.115 2.9279C12.809 2.65243 12.4118 2.5 12 2.5C11.5882 2.5 11.191 2.65243 10.885 2.9279L2 10.9246V19.5912C2 20.2985 2.28095 20.9768 2.78105 21.4769C3.28115 21.9769 3.95942 22.2579 4.66667 22.2579H7.83333V16.4004C7.83333 15.2953 8.27232 14.2355 9.05372 13.4541C9.83512 12.6727 10.8949 12.2337 12 12.2337C13.1051 12.2337 14.1649 12.6727 14.9463 13.4541C15.7277 14.2355 16.1667 15.2953 16.1667 16.4004V22.2554H19.3333C20.0406 22.2554 20.7189 21.9744 21.219 21.4743C21.719 20.9743 22 20.296 22 19.5887V10.9221L13.115 2.9279Z" fill="current"/>
</g>
</g>
</svg>
