<svg width="24" height="25" viewBox="0 0 24 25" fill="none" xmlns="http://www.w3.org/2000/svg">
<g id="icon/navigation">
<path id="Vector" d="M22.0267 21.3483L16.8083 16.13C18.1639 14.4722 18.8303 12.3567 18.6699 10.2213C18.5094 8.08587 17.5344 6.09378 15.9463 4.65711C14.3583 3.22043 12.2788 2.44908 10.138 2.50261C7.99725 2.55614 5.95893 3.43044 4.44468 4.94468C2.93044 6.45893 2.05614 8.49725 2.00261 10.638C1.94908 12.7788 2.72043 14.8583 4.15711 16.4463C5.59378 18.0344 7.58587 19.0094 9.72131 19.1699C11.8567 19.3303 13.9722 18.6639 15.63 17.3083L20.8483 22.5267L22.0267 21.3483ZM10.36 17.5267C9.04146 17.5267 7.75253 17.1357 6.65621 16.4031C5.55988 15.6706 4.70539 14.6294 4.20081 13.4112C3.69623 12.1931 3.5642 10.8526 3.82144 9.5594C4.07867 8.2662 4.71361 7.07831 5.64596 6.14596C6.57831 5.21361 7.7662 4.57867 9.0594 4.32144C10.3526 4.0642 11.6931 4.19623 12.9112 4.70081C14.1294 5.20539 15.1706 6.05988 15.9031 7.15621C16.6357 8.25253 17.0267 9.54146 17.0267 10.86C17.0247 12.6275 16.3217 14.322 15.0719 15.5719C13.822 16.8217 12.1275 17.5247 10.36 17.5267Z" fill="current"/>
</g>
</svg>
