<svg width="24" height="25" viewBox="0 0 24 25" fill="none" xmlns="http://www.w3.org/2000/svg">
<g id="icon/navigation">
<path id="Vector" d="M22.0498 11.099L20.2165 2.76562H3.88314L2.0698 10.9181L2.0498 11.9323C2.05283 12.7367 2.34912 13.5124 2.88314 14.114V20.2656C2.88314 20.9287 3.14653 21.5646 3.61537 22.0334C4.08421 22.5022 4.7201 22.7656 5.38314 22.7656H18.7165C19.3795 22.7656 20.0154 22.5022 20.4842 22.0334C20.9531 21.5646 21.2165 20.9287 21.2165 20.2656V14.114C21.7505 13.5124 22.0468 12.7367 22.0498 11.9323V11.099ZM3.71647 11.1898L5.21647 4.43229H7.88314V7.76562H9.5498V4.43229H14.5498V7.76562H16.2165V4.43229H18.8831L20.3831 11.1898V11.9323C20.3831 12.3743 20.2075 12.7982 19.895 13.1108C19.5824 13.4234 19.1585 13.599 18.7165 13.599H17.8831C17.4411 13.599 17.0172 13.4234 16.7046 13.1108C16.3921 12.7982 16.2165 12.3743 16.2165 11.9323H14.5498C14.5498 12.3743 14.3742 12.7982 14.0616 13.1108C13.7491 13.4234 13.3252 13.599 12.8831 13.599H11.2165C10.7744 13.599 10.3505 13.4234 10.038 13.1108C9.7254 12.7982 9.5498 12.3743 9.5498 11.9323H7.88314C7.88314 12.3743 7.70754 12.7982 7.39498 13.1108C7.08242 13.4234 6.6585 13.599 6.21647 13.599H5.38314C4.94111 13.599 4.51719 13.4234 4.20463 13.1108C3.89207 12.7982 3.71647 12.3743 3.71647 11.9323V11.1898ZM18.7165 21.099H5.38314C5.16212 21.099 4.95016 21.0112 4.79388 20.8549C4.6376 20.6986 4.5498 20.4866 4.5498 20.2656V15.1473C4.82135 15.2223 5.10143 15.2621 5.38314 15.2656H6.21647C6.69138 15.2641 7.16041 15.1605 7.59176 14.9618C8.0231 14.763 8.40667 14.4739 8.71647 14.114C9.02627 14.4739 9.40984 14.763 9.84119 14.9618C10.2725 15.1605 10.7416 15.2641 11.2165 15.2656H12.8831C13.3563 15.2659 13.8241 15.1651 14.2552 14.9701C14.6863 14.7751 15.0709 14.4903 15.3831 14.1348C15.6954 14.4903 16.0799 14.7751 16.5111 14.9701C16.9422 15.1651 17.41 15.2659 17.8831 15.2656H18.7165C18.9982 15.2621 19.2783 15.2223 19.5498 15.1473V20.2656C19.5498 20.4866 19.462 20.6986 19.3057 20.8549C19.1494 21.0112 18.9375 21.099 18.7165 21.099Z" fill="current"/>
</g>
</svg>
