<svg width="24" height="25" viewBox="0 0 24 25" fill="none" xmlns="http://www.w3.org/2000/svg">
<g id="icon/navigation">
<path id="Vector" d="M19.5498 2.76562H4.5498C3.88676 2.76563 3.25088 3.02902 2.78204 3.49786C2.3132 3.9667 2.0498 4.60258 2.0498 5.26562L2.0498 22.7656H22.0498V5.26562C22.0498 4.60258 21.7864 3.9667 21.3176 3.49786C20.8487 3.02902 20.2128 2.76563 19.5498 2.76562V2.76562ZM20.3831 5.26562V6.93229H14.5498V4.43229H19.5498C19.7708 4.43229 19.9828 4.52009 20.1391 4.67637C20.2953 4.83265 20.3831 5.04461 20.3831 5.26562ZM11.2165 4.43229H12.8831V9.43229H11.2165V4.43229ZM4.5498 4.43229H9.5498V6.93229H3.71647V5.26562C3.71647 5.04461 3.80427 4.83265 3.96055 4.67637C4.11683 4.52009 4.32879 4.43229 4.5498 4.43229ZM3.71647 21.099V8.59896H9.5498V11.099H14.5498V8.59896H20.3831V21.099H3.71647ZM14.5498 17.7656H18.7165V19.4323H14.5498V17.7656Z" fill="current"/>
</g>
</svg>
