<svg width="24" height="24" viewBox="0 0 24 24" fill="none" xmlns="http://www.w3.org/2000/svg">
<path d="M17.4572 18.3612H5.5425C5.13859 18.3612 4.76561 18.1567 4.54904 17.8164C4.33247 17.4777 4.30497 17.0584 4.47341 16.694C4.60576 16.4087 4.78967 16.1285 4.98389 15.8329C5.52188 15.0113 6.19221 13.9903 6.19221 12.1735V11.2918C6.19221 8.36468 8.57446 5.98242 11.5016 5.98242C14.4287 5.98242 16.8109 8.36468 16.8109 11.2918V12.1735C16.8109 13.9903 17.4813 15.013 18.0193 15.8329C18.2135 16.1285 18.3974 16.4087 18.5297 16.694C18.6982 17.0584 18.6707 17.4777 18.4541 17.8164C18.2358 18.1584 17.8646 18.3612 17.4607 18.3612H17.4572ZM11.4999 6.73354C8.98698 6.73354 6.94333 8.77719 6.94333 11.2901V12.1718C6.94333 14.2137 6.17502 15.3877 5.61297 16.2437C5.42563 16.529 5.26578 16.7748 5.15577 17.0102C5.0939 17.1426 5.10421 17.2887 5.18327 17.4124C5.26406 17.5379 5.39469 17.6101 5.54422 17.6101H17.4589C17.6085 17.6101 17.7391 17.5379 17.8199 17.4124C17.8989 17.2887 17.9093 17.1426 17.8474 17.0102C17.7374 16.7748 17.5758 16.529 17.3902 16.2437C16.8281 15.3877 16.0598 14.2137 16.0598 12.1718V11.2901C16.0598 8.77719 14.0162 6.73354 11.5033 6.73354H11.4999Z" fill="#A7AAB1" stroke="#A7AAB1" stroke-width="0.230118" stroke-miterlimit="10"/>
<path d="M4.40143 10.4322C4.3808 10.4322 4.36018 10.4305 4.33783 10.4271C4.1333 10.3927 3.99579 10.1985 4.03017 9.99393C4.21064 8.92656 4.6369 7.89184 5.26599 7.00494C5.89335 6.11632 6.72525 5.36864 7.6723 4.84269C7.85278 4.74128 8.0831 4.8066 8.18279 4.98879C8.2842 5.17098 8.21888 5.39958 8.03669 5.49927C7.18932 5.97022 6.44164 6.64055 5.8796 7.43808C5.31583 8.2356 4.93254 9.16203 4.77097 10.1194C4.74003 10.3033 4.58018 10.4322 4.40143 10.4322Z" fill="#A7AAB1" stroke="#A7AAB1" stroke-width="0.230118" stroke-miterlimit="10"/>
<path d="M2.37653 10.0916C2.3559 10.0916 2.33528 10.0899 2.31293 10.0865C2.10839 10.0521 1.97089 9.85788 2.00527 9.65335C2.23559 8.28518 2.78388 6.95999 3.58828 5.82043C4.3944 4.68086 5.46005 3.72349 6.67352 3.04972C6.854 2.94831 7.08432 3.01363 7.18401 3.19582C7.28542 3.37801 7.2201 3.60661 7.03791 3.7063C5.92241 4.32679 4.94269 5.20681 4.20189 6.25528C3.46109 7.30375 2.95748 8.52238 2.74607 9.78054C2.71513 9.96445 2.55528 10.0934 2.37653 10.0934V10.0916Z" fill="#A7AAB1" stroke="#A7AAB1" stroke-width="0.230118" stroke-miterlimit="10"/>
<path d="M18.5985 10.4315C18.418 10.4315 18.2599 10.3008 18.229 10.1186C18.0674 9.16127 17.6841 8.23484 17.1203 7.43731C16.5566 6.63979 15.8106 5.96946 14.9633 5.49851C14.7828 5.3971 14.7175 5.1685 14.8172 4.98803C14.9186 4.80583 15.1472 4.74224 15.3276 4.84193C16.273 5.36788 17.1066 6.11556 17.734 7.00418C18.3613 7.8928 18.7893 8.92579 18.9698 9.99317C19.0042 10.1977 18.8666 10.3919 18.6621 10.4263C18.6415 10.4297 18.6191 10.4315 18.5985 10.4315Z" fill="#A7AAB1" stroke="#A7AAB1" stroke-width="0.230118" stroke-miterlimit="10"/>
<path d="M20.6235 10.0906C20.4431 10.0906 20.2849 9.96002 20.254 9.77782C20.0426 8.51966 19.539 7.30103 18.7982 6.25257C18.0574 5.20582 17.0776 4.32407 15.9621 3.70359C15.78 3.60218 15.7164 3.37358 15.816 3.1931C15.9175 3.01091 16.1461 2.94732 16.3265 3.04701C17.54 3.72078 18.6057 4.67986 19.4118 5.81943C20.2162 6.95899 20.7645 8.28419 20.9948 9.65235C21.0292 9.85689 20.8917 10.0511 20.6871 10.0855C20.6665 10.0889 20.6442 10.0906 20.6235 10.0906Z" fill="#A7AAB1" stroke="#A7AAB1" stroke-width="0.230118" stroke-miterlimit="10"/>
<path d="M13.1621 6.75742C12.9421 6.75742 12.7634 6.57866 12.7634 6.35866C12.7634 5.54739 12.1962 4.88737 11.5 4.88737C10.8039 4.88737 10.2367 5.54739 10.2367 6.35866C10.2367 6.57866 10.058 6.75742 9.83797 6.75742C9.61796 6.75742 9.43921 6.57866 9.43921 6.35866C9.43921 5.10737 10.3639 4.08984 11.5 4.08984C12.6362 4.08984 13.5609 5.10737 13.5609 6.35866C13.5609 6.57866 13.3821 6.75742 13.1621 6.75742Z" fill="#A7AAB1" stroke="#A7AAB1" stroke-width="0.230118" stroke-miterlimit="10"/>
<path d="M11.4999 20.9264C9.97704 20.9264 8.7395 19.6872 8.7395 18.166H9.49062C9.49062 19.2746 10.3913 20.1753 11.4999 20.1753C12.6085 20.1753 13.5092 19.2746 13.5092 18.166H14.2603C14.2603 19.6889 13.021 20.9264 11.4999 20.9264Z" fill="#A7AAB1" stroke="#A7AAB1" stroke-width="0.230118" stroke-miterlimit="10"/>
</svg>
