<svg width="18" height="19" viewBox="0 0 18 19" fill="none" xmlns="http://www.w3.org/2000/svg">
<g clip-path="url(#clip0_12728_8997)">
<path d="M12.4249 0C12.7823 0.141773 12.9881 0.394584 13.0314 0.775783C13.7993 0.825354 14.6302 0.673667 15.3715 0.901198C16.2069 1.15797 16.8471 1.90005 17.0041 2.74424L17.0222 16.9032C16.8984 17.9972 15.9644 18.8919 14.8542 18.9975L3.21276 19C2.09603 18.9346 1.14084 18.0577 0.977783 16.9716V2.8062C1.11517 1.93723 1.7679 1.16392 2.62244 0.901198C3.36374 0.673172 4.19513 0.825354 4.9626 0.775783C5.00538 0.404994 5.21826 0.137807 5.56903 0H12.4249ZM4.96461 2.37643C4.13021 2.47358 2.64559 1.97589 2.56003 3.21467C2.58469 7.75684 2.48605 12.3144 2.60986 16.8476C2.69742 17.15 2.96063 17.383 3.28825 17.4043H14.7057C15.2251 17.3483 15.4047 16.9616 15.4405 16.4952V3.28258C15.3982 1.97292 13.9292 2.47111 13.05 2.37296C12.9821 2.74275 12.7898 3.0491 12.4043 3.15221L5.62489 3.15518C5.24392 3.08132 4.98575 2.75267 4.96512 2.37692L4.96461 2.37643Z" fill="#B1B2B6"/>
<path d="M11.285 7.91194C11.6791 7.85245 12.1486 8.1474 12.1999 8.5514C12.2613 9.03472 12.0686 9.18244 11.7475 9.48036C10.6127 10.5327 9.33186 11.4929 8.1809 12.5349C7.9182 12.7039 7.55133 12.7064 7.28913 12.5349C7.06115 12.3857 6.07023 11.3745 5.91422 11.1435C5.42304 10.4158 6.33897 9.51853 7.07675 10.0727C7.19653 10.1629 7.73049 10.7702 7.80547 10.7573L10.7123 8.23762C10.8895 8.10625 11.0545 7.94664 11.2855 7.91194H11.285Z" fill="#B1B2B6"/>
</g>
<defs>
<clipPath id="clip0_12728_8997">
<rect width="16.0444" height="19" fill="white" transform="translate(0.977783)"/>
</clipPath>
</defs>
</svg>
