<svg width="16" height="16" viewBox="0 0 16 16" fill="none" xmlns="http://www.w3.org/2000/svg">
<path d="M9.02452 10.9262L7.2123 12.7385C6.68615 13.2506 5.97953 13.5349 5.24533 13.53C4.51113 13.5251 3.80838 13.2313 3.28914 12.7122C2.7699 12.1931 2.47591 11.4904 2.47078 10.7562C2.46565 10.022 2.7498 9.31532 3.26175 8.78902L5.07397 6.97514C5.17814 6.87089 5.23663 6.72954 5.23658 6.58216C5.23653 6.43479 5.17794 6.29348 5.07369 6.18931C4.96945 6.08513 4.82809 6.02664 4.68072 6.02669C4.53334 6.02674 4.39203 6.08534 4.28786 6.18958L2.47619 8.00347C1.74412 8.73591 1.33299 9.72916 1.33325 10.7647C1.33351 11.8003 1.74514 12.7933 2.47758 13.5254C3.21002 14.2575 4.20327 14.6686 5.23884 14.6683C6.2744 14.6681 7.26745 14.2565 7.99952 13.524L9.81175 11.7118C9.91294 11.607 9.96894 11.4667 9.96768 11.321C9.96641 11.1754 9.90798 11.036 9.80498 10.933C9.70197 10.83 9.56263 10.7716 9.41697 10.7703C9.2713 10.769 9.13097 10.825 9.02619 10.9262H9.02452Z" fill="#41434E"/>
<path d="M13.5241 2.479C13.1626 2.11501 12.7324 1.82638 12.2586 1.62983C11.7847 1.43328 11.2765 1.33273 10.7635 1.334C10.2508 1.33264 9.74286 1.43293 9.26912 1.62908C8.79538 1.82523 8.36523 2.11335 8.00353 2.47678L6.18853 4.28955C6.08428 4.39373 6.02569 4.53504 6.02563 4.68241C6.02558 4.82979 6.08408 4.97114 6.18825 5.07539C6.29242 5.17963 6.43373 5.23823 6.58111 5.23828C6.72848 5.23833 6.86984 5.17984 6.97408 5.07567L8.78797 3.26344C9.04661 3.00325 9.35429 2.79694 9.69321 2.65648C10.0321 2.51601 10.3955 2.44417 10.7624 2.44511C11.3148 2.44529 11.8547 2.60924 12.3139 2.91622C12.7731 3.2232 13.131 3.65944 13.3423 4.16979C13.5536 4.68013 13.6089 5.24168 13.5011 5.78343C13.3934 6.32518 13.1274 6.82282 12.7369 7.21344L10.9246 9.02567C10.8204 9.12991 10.7618 9.2713 10.7618 9.41872C10.7618 9.56615 10.8204 9.70753 10.9246 9.81178C11.0289 9.91602 11.1703 9.97459 11.3177 9.97459C11.4651 9.97459 11.6065 9.91602 11.7107 9.81178L13.523 8.00067C14.2541 7.26794 14.6648 6.27517 14.665 5.24006C14.6652 4.20496 14.2549 3.21202 13.5241 2.479Z" fill="#41434E"/>
<path d="M9.27353 5.94176L5.94019 9.27508C5.88713 9.32633 5.84481 9.38764 5.81569 9.45542C5.78658 9.5232 5.77125 9.5961 5.77061 9.66986C5.76997 9.74363 5.78403 9.81678 5.81196 9.88506C5.83989 9.95333 5.88115 10.0154 5.93331 10.0675C5.98547 10.1197 6.0475 10.1609 6.11578 10.1889C6.18405 10.2168 6.25721 10.2309 6.33097 10.2302C6.40474 10.2296 6.47764 10.2143 6.54542 10.1851C6.6132 10.156 6.6745 10.1137 6.72575 10.0606L10.0591 6.72731C10.1603 6.62253 10.2163 6.4822 10.215 6.33653C10.2137 6.19087 10.1553 6.05153 10.0523 5.94853C9.94931 5.84552 9.80997 5.78709 9.66431 5.78583C9.51864 5.78456 9.37831 5.84056 9.27353 5.94176Z" fill="#41434E"/>
</svg>
