<svg width="24" height="24" viewBox="0 0 24 24" fill="none" xmlns="http://www.w3.org/2000/svg">
<path d="M21.99 22H12.005C10.0542 21.9991 8.1462 21.4275 6.51611 20.3558C4.88602 19.2841 3.605 17.759 2.83085 15.9683C2.0567 14.1776 1.82321 12.1996 2.15916 10.2779C2.49511 8.35624 3.38581 6.57477 4.72157 5.15295C6.05732 3.73114 7.77978 2.73108 9.67679 2.27595C11.5738 1.82082 13.5625 1.9305 15.398 2.59149C17.2334 3.25247 18.8355 4.43589 20.0067 5.99597C21.178 7.55606 21.8674 9.42468 21.99 11.3717V22ZM12.005 3.66667C9.79487 3.66667 7.67526 4.54464 6.11245 6.10744C4.54965 7.67025 3.67168 9.78986 3.67168 12C3.67168 14.2101 4.54965 16.3298 6.11245 17.8926C7.67526 19.4554 9.79487 20.3333 12.005 20.3333H20.3233V11.4508C20.1804 9.3411 19.2423 7.36419 17.6983 5.91936C16.1543 4.47453 14.1196 3.66943 12.005 3.66667Z" fill="#B1B2B6"/>
<path d="M12.8237 7.83325H7.82373V9.49992H12.8237V7.83325Z" fill="#B1B2B6"/>
<path d="M16.1571 11.1667H7.82373V12.8334H16.1571V11.1667Z" fill="#B1B2B6"/>
<path d="M16.1571 14.5H7.82373V16.1667H16.1571V14.5Z" fill="#B1B2B6"/>
</svg>
