<svg width="32" height="32" viewBox="0 0 32 32" fill="none" xmlns="http://www.w3.org/2000/svg">
<circle cx="16" cy="16" r="16" fill="#282930"/>
<rect width="15.3043" height="15.3043" transform="translate(8.3479 8.34961)" fill="#282930"/>
<path d="M15.6552 16.0061L15.8747 15.795C16.7189 14.9834 18.0903 14.9823 18.9359 15.7926C19.7805 16.6019 19.7805 17.914 18.9359 18.7233L15.8764 21.6548C15.0294 22.4663 13.6562 22.4663 12.8093 21.6548C11.9646 20.8455 11.962 19.5341 12.8034 18.7217L13.0537 18.4799M20.2406 14.5477L20.4705 14.3265C21.3134 13.515 21.3118 12.2029 20.4669 11.3933C19.6205 10.5824 18.2484 10.5824 17.4021 11.3933L14.3427 14.3247C13.4974 15.1347 13.4974 16.4479 14.3427 17.2579C15.188 18.0678 16.5586 18.0678 17.4039 17.2579L17.7209 16.9541" stroke="#F5F5F5" stroke-width="1.3913" stroke-linejoin="round"/>
</svg>
