<svg width="24" height="24" viewBox="0 0 24 24" fill="none" xmlns="http://www.w3.org/2000/svg">
<path d="M5.89623 22C5.08149 21.8221 4.43363 21.2084 4.31565 20.3817L4.31112 12.0938H3.53722C3.3179 12.0938 3.02296 11.6953 3.03204 11.4777C3.19035 10.0512 2.45678 7.70074 4.08323 6.91711C4.20373 6.85912 4.59295 6.71389 4.70689 6.71389H7.14103C6.63383 5.75181 6.74172 4.58503 7.49899 3.78256C8.7216 2.48691 10.8956 2.95134 12.0486 4.09681C12.1822 4.22965 12.3088 4.44823 12.4298 4.57512C12.456 4.60238 12.4636 4.64996 12.518 4.63658C13.5914 2.98455 16.4652 2.23165 17.7326 4.075C18.2872 4.88193 18.3008 5.85194 17.8597 6.71389H20.2938C20.3785 6.71389 20.7178 6.82739 20.8167 6.86754C22.5601 7.57584 21.8154 10.0348 21.9692 11.4772C21.9778 11.6948 21.6828 12.0933 21.464 12.0933H20.6901L20.6856 20.3812C20.6034 20.9705 20.2353 21.4741 19.7206 21.77L19.1055 22H5.89623ZM11.8591 6.71438C11.8999 5.29829 10.5109 4.03733 9.06444 4.28219C8.00366 4.46161 7.73242 6.00163 8.70143 6.53495C8.78412 6.58056 9.08712 6.71438 9.16073 6.71438H11.8591ZM13.1422 6.71438H15.8405C15.9141 6.71438 16.2166 6.58056 16.2998 6.53495C17.2688 6.00163 16.9976 4.46161 15.9368 4.28219C14.4898 4.03733 13.0998 5.29729 13.1422 6.71438ZM10.6138 7.97583H4.78302C4.61211 7.97583 4.31112 8.32032 4.31112 8.47694V10.8328H10.6138V7.97583ZM13.1422 7.97583H11.8591V10.8328H13.1422V7.97583ZM20.6901 10.8323V8.47645C20.6901 8.31982 20.3896 7.97534 20.2182 7.97534H14.3875V10.8323H20.6901ZM10.6138 12.0938H5.59423V20.349C5.59423 20.4456 5.9174 20.7386 6.02832 20.7386H10.6138V12.0938ZM13.1422 12.0938H11.8591V20.7386H13.1422V12.0938ZM19.407 12.0938H14.3875V20.7386H18.9729C19.0833 20.7386 19.407 20.4456 19.407 20.349V12.0938Z" fill="#B1B2B6"/>
</svg>
