<svg width="24" height="24" viewBox="0 0 24 24" fill="none" xmlns="http://www.w3.org/2000/svg">
<path d="M19.5 12.3532V11.1665C19.5 9.17738 18.7098 7.26973 17.3033 5.8632C15.8968 4.45668 13.9891 3.6665 12 3.6665C10.0109 3.6665 8.10322 4.45668 6.6967 5.8632C5.29018 7.26973 4.5 9.17738 4.5 11.1665V12.3532C3.62597 12.738 2.91067 13.4115 2.47385 14.2607C2.03704 15.11 1.90522 16.0835 2.10046 17.0184C2.29571 17.9532 2.80617 18.7926 3.54639 19.396C4.28661 19.9995 5.21166 20.3303 6.16667 20.3332H7.83333V11.9998H6.16667V11.1665C6.16667 9.61941 6.78125 8.13568 7.87521 7.04171C8.96917 5.94775 10.4529 5.33317 12 5.33317C13.5471 5.33317 15.0308 5.94775 16.1248 7.04171C17.2188 8.13568 17.8333 9.61941 17.8333 11.1665V11.9998H16.1667V18.6665H12.8333V20.3332H17.8333C18.7883 20.3303 19.7134 19.9995 20.4536 19.396C21.1938 18.7926 21.7043 17.9532 21.8995 17.0184C22.0948 16.0835 21.963 15.11 21.5261 14.2607C21.0893 13.4115 20.374 12.738 19.5 12.3532ZM6.16667 18.6665C5.50362 18.6665 4.86774 18.4031 4.3989 17.9343C3.93006 17.4654 3.66667 16.8295 3.66667 16.1665C3.66667 15.5035 3.93006 14.8676 4.3989 14.3987C4.86774 13.9299 5.50362 13.6665 6.16667 13.6665V18.6665ZM17.8333 18.6665V13.6665C18.4964 13.6665 19.1323 13.9299 19.6011 14.3987C20.0699 14.8676 20.3333 15.5035 20.3333 16.1665C20.3333 16.8295 20.0699 17.4654 19.6011 17.9343C19.1323 18.4031 18.4964 18.6665 17.8333 18.6665Z" fill="#B1B2B6"/>
</svg>
