<svg width="24" height="24" viewBox="0 0 24 24" fill="none" xmlns="http://www.w3.org/2000/svg">
<path d="M12.0001 2.00293C10.3513 2.00312 8.73964 2.4924 7.36902 3.40888C5.9984 4.32535 4.93046 5.62781 4.30032 7.15144C3.67019 8.67507 3.5062 10.3514 3.8291 11.9682C4.15199 13.5851 4.94727 15.0698 6.11429 16.2346L10.3018 20.3304H6.16679V21.9971H17.8335V20.3304H13.6985L17.8926 16.2279C19.0577 15.0624 19.8512 13.5777 20.1725 11.9613C20.4939 10.345 20.3288 8.66961 19.6981 7.14708C19.0674 5.62455 17.9995 4.32321 16.6293 3.40757C15.259 2.49193 13.6481 2.00312 12.0001 2.00293ZM16.721 15.0429L12.0001 19.6637L7.28595 15.0496C6.35392 14.1175 5.71912 12.93 5.46176 11.6373C5.20441 10.3445 5.33605 9.0045 5.84006 7.78654C6.34407 6.56858 7.19783 5.52737 8.29342 4.79448C9.38902 4.0616 10.6773 3.66994 11.9954 3.66901C13.3135 3.66808 14.6024 4.05791 15.699 4.78925C16.7956 5.52058 17.6509 6.56059 18.1566 7.77784C18.6623 8.99508 18.7959 10.3349 18.5403 11.628C18.2848 12.9212 17.6517 14.1095 16.721 15.0429ZM7.83345 7.31542V12.5121L12.0001 14.5954L16.1668 12.5121V7.31542L12.0001 5.23209L7.83345 7.31542ZM14.5001 11.4821L12.0001 12.7321L9.50012 11.4821V8.34542L9.59845 8.29626L12.0001 9.49709L14.4018 8.29626L14.5001 8.34542V11.4821Z" fill="#B1B2B6"/>
</svg>
