<svg width="24" height="24" viewBox="0 0 24 24" fill="none" xmlns="http://www.w3.org/2000/svg">
<path d="M19.5 21.9583L16.4475 19.8658L14.2275 21.3866L12.0058 19.865L9.78417 21.385L7.55833 19.8633L4.5 21.9583V4.54163C4.5 3.87858 4.76339 3.2427 5.23223 2.77386C5.70107 2.30502 6.33696 2.04163 7 2.04163H17C17.663 2.04163 18.2989 2.30502 18.7678 2.77386C19.2366 3.2427 19.5 3.87858 19.5 4.54163V21.9583ZM7.55833 17.8433L9.78333 19.365L12.0058 17.8433L14.2275 19.365L16.4483 17.8425L17.8333 18.7916V4.54163C17.8333 4.32061 17.7455 4.10865 17.5893 3.95237C17.433 3.79609 17.221 3.70829 17 3.70829H7C6.77899 3.70829 6.56702 3.79609 6.41074 3.95237C6.25446 4.10865 6.16667 4.32061 6.16667 4.54163V18.7916L7.55833 17.8433Z" fill="#B1B2B6"/>
<path d="M16.1668 8.70886H7.8335V10.3755H16.1668V8.70886Z" fill="#B1B2B6"/>
<path d="M14.5002 12.0416H7.8335V13.7083H14.5002V12.0416Z" fill="#B1B2B6"/>
</svg>
