<svg width="19" height="19" viewBox="0 0 19 19" fill="none" xmlns="http://www.w3.org/2000/svg">
<g clip-path="url(#clip0_12728_9018)">
<path d="M10.1564 0L11.2778 0.15923C15.1339 0.902305 18.229 4.05616 18.8685 7.9387L18.9916 8.83654C18.9717 9.27554 19.0184 9.73736 18.9916 10.1734C18.5078 18.0069 8.93639 21.8721 3.08367 16.5237C-3.07865 10.8931 0.591452 0.50795 8.81979 0H10.1564ZM9.29462 1.90481C3.28015 2.02981 -0.203398 8.93228 3.28015 13.8769C6.30425 18.1691 12.6715 18.1686 15.6956 13.8769C19.2967 8.76561 15.4966 1.77584 9.29462 1.90481Z" fill="#B1B2B6"/>
<path d="M10.8239 11.3987H8.89336V10.7116C8.89336 10.1129 9.36918 9.23939 9.80183 8.83561C10.3119 8.3599 10.8691 8.33708 10.7882 7.44271C10.7029 6.49973 9.28979 6.38763 8.98664 7.20362C8.92908 7.35789 8.95588 7.49877 8.87451 7.61137H7.00001C6.99554 5.67282 8.76634 4.36128 10.6384 4.84493C12.7709 5.39554 13.4377 8.29889 11.8063 9.7642C11.5771 9.97006 11.1444 10.1521 10.9896 10.3585C10.947 10.415 10.8234 10.6645 10.8234 10.7121V11.3992L10.8239 11.3987Z" fill="#B1B2B6"/>
<path d="M10.9306 12.3652H9V14.2591H10.9306V12.3652Z" fill="#B1B2B6"/>
</g>
<defs>
<clipPath id="clip0_12728_9018">
<rect width="19" height="19" fill="white"/>
</clipPath>
</defs>
</svg>
