<svg width="24" height="24" viewBox="0 0 24 24" fill="none" xmlns="http://www.w3.org/2000/svg">
<path d="M14.5002 22H9.50019V19.0725C8.63124 18.7651 7.8264 18.3001 7.12602 17.7008L4.58936 19.1667L2.08936 14.8333L4.62519 13.3708C4.45861 12.4645 4.45861 11.5355 4.62519 10.6292L2.08936 9.16667L4.58936 4.83333L7.12602 6.29917C7.8264 5.69994 8.63124 5.23495 9.50019 4.9275V2H14.5002V4.9275C15.3691 5.23495 16.174 5.69994 16.8744 6.29917L19.411 4.83333L21.911 9.16667L19.3752 10.6292C19.5418 11.5355 19.5418 12.4645 19.3752 13.3708L21.911 14.8333L19.411 19.1667L16.8744 17.7017C16.1739 18.3006 15.3691 18.7653 14.5002 19.0725V22ZM11.1669 20.3333H12.8335V17.8108L13.4594 17.6492C14.486 17.3832 15.4205 16.8418 16.1619 16.0833L16.6144 15.6225L18.8002 16.885L19.6335 15.4417L17.4502 14.1808L17.6219 13.5592C17.9041 12.5366 17.9041 11.4567 17.6219 10.4342L17.4502 9.8125L19.6335 8.55167L18.8002 7.10833L16.6144 8.37417L16.1619 7.91667C15.4201 7.15945 14.4857 6.61918 13.4594 6.35417L12.8335 6.18917V3.66667H11.1669V6.18917L10.541 6.35083C9.51435 6.61679 8.57986 7.15824 7.83852 7.91667L7.38602 8.3775L5.20019 7.11167L4.36686 8.555L6.55019 9.81583L6.37852 10.4375C6.09632 11.4601 6.09632 12.5399 6.37852 13.5625L6.55019 14.1842L4.36686 15.445L5.20019 16.8883L7.38602 15.6258L7.83852 16.0867C8.58026 16.8439 9.51471 17.3841 10.541 17.6492L11.1669 17.8108V20.3333ZM12.0002 15.3333C11.3409 15.3333 10.6965 15.1378 10.1483 14.7716C9.60012 14.4053 9.17288 13.8847 8.92059 13.2756C8.6683 12.6665 8.60229 11.9963 8.7309 11.3497C8.85952 10.7031 9.17699 10.1092 9.64317 9.64298C10.1093 9.1768 10.7033 8.85933 11.3499 8.73072C11.9965 8.6021 12.6667 8.66811 13.2758 8.9204C13.8849 9.17269 14.4055 9.59994 14.7718 10.1481C15.138 10.6963 15.3335 11.3407 15.3335 12C15.3335 12.8841 14.9823 13.7319 14.3572 14.357C13.7321 14.9821 12.8842 15.3333 12.0002 15.3333ZM12.0002 10.3333C11.6706 10.3333 11.3483 10.4311 11.0742 10.6142C10.8002 10.7974 10.5865 11.0577 10.4604 11.3622C10.3342 11.6667 10.3012 12.0018 10.3655 12.3252C10.4299 12.6485 10.5886 12.9454 10.8217 13.1785C11.0548 13.4116 11.3517 13.5703 11.675 13.6346C11.9983 13.699 12.3335 13.6659 12.638 13.5398C12.9425 13.4137 13.2028 13.2 13.386 12.926C13.5691 12.6519 13.6669 12.3296 13.6669 12C13.6669 11.558 13.4913 11.134 13.1787 10.8215C12.8661 10.5089 12.4422 10.3333 12.0002 10.3333Z" fill="#B1B2B6"/>
</svg>
