<svg width="24" height="24" viewBox="0 0 24 24" fill="none" xmlns="http://www.w3.org/2000/svg">
<g clip-path="url(#clip0_12728_8933)">
<path d="M4.58105 21.3986C4.26808 21.3986 3.95243 21.2879 3.71435 21.0688L0.432143 18.058C-0.0466805 17.6173 -0.0493554 16.9009 0.432143 16.4603L4.1156 13.0605L9.13656 17.669L5.4531 21.0688C5.21235 21.2903 4.89937 21.4011 4.58372 21.4011L4.58105 21.3986ZM4.1156 14.0083L0.945741 16.9329C0.750466 17.1127 0.750466 17.4056 0.945741 17.5829L4.22795 20.5936C4.42323 20.7733 4.74155 20.7733 4.93415 20.5936L8.10401 17.669L4.1156 14.0083Z" fill="#A7AAB1" stroke="#A7AAB1" stroke-width="0.460236" stroke-miterlimit="10"/>
<path d="M4.58092 21.4669C4.23317 21.4669 3.9095 21.3438 3.6634 21.1173L0.381186 18.1065C-0.127062 17.6412 -0.127062 16.883 0.381186 16.4153L4.11547 12.9688L9.2354 17.6683L5.50111 21.1124C5.25501 21.3388 4.92867 21.4644 4.58092 21.4644V21.4669ZM4.11547 13.1558L0.482835 16.5088C0.0334373 16.9248 0.0334373 17.5994 0.482835 18.0154L3.76505 21.0262C3.9844 21.2256 4.27329 21.3364 4.58092 21.3364C4.88854 21.3364 5.18279 21.2256 5.39946 21.0237L9.0321 17.6708L4.11279 13.1558H4.11547ZM4.58092 20.7972C4.42844 20.7972 4.28399 20.7431 4.17699 20.6446L0.894784 17.6338C0.787784 17.5354 0.726259 17.4024 0.726259 17.2621C0.726259 17.1218 0.785109 16.9889 0.892109 16.8904L4.11279 13.919L8.20285 17.6732L4.98217 20.6446C4.87517 20.7431 4.73072 20.7997 4.57824 20.7997L4.58092 20.7972ZM4.11547 14.1036L0.996433 16.9815C0.916183 17.0553 0.870709 17.1563 0.870709 17.2597C0.870709 17.3655 0.916183 17.464 0.996433 17.5378L4.27864 20.5486C4.35889 20.6225 4.46589 20.6643 4.58092 20.6643C4.69594 20.6643 4.80294 20.6225 4.88319 20.5486L8.00223 17.6708L4.11279 14.1012L4.11547 14.1036Z" fill="#A7AAB1" stroke="#A7AAB1" stroke-width="0.460236" stroke-miterlimit="10"/>
<path d="M8.52925 18.0589L3.69287 13.6203L7.23456 4.89321C7.36563 4.56825 7.66255 4.33192 8.02903 4.25807C8.3955 4.18421 8.77267 4.28515 9.04017 4.53132L18.3893 13.1131C18.6541 13.3568 18.7664 13.704 18.6889 14.0412C18.6086 14.3785 18.3518 14.6542 18.0014 14.7748L8.52925 18.0564V18.0589ZM4.53817 13.4504L8.71115 17.2809L17.7446 14.1495C17.865 14.1077 17.9506 14.0166 17.9773 13.9009C18.0041 13.7852 17.9666 13.6695 17.8757 13.5858L8.52658 5.00645C8.43563 4.92275 8.3099 4.88828 8.18418 4.91536C8.05845 4.93998 7.95948 5.01876 7.914 5.12954L4.53549 13.4504H4.53817Z" fill="#A7AAB1" stroke="#A7AAB1" stroke-width="0.460236" stroke-miterlimit="10"/>
<path d="M8.51044 18.1363L3.60986 13.6361L3.62591 13.5967L7.1676 4.86966C7.3067 4.52501 7.62502 4.27145 8.01557 4.19513C8.40612 4.11635 8.80737 4.22467 9.09091 4.48562L18.44 13.0674C18.7235 13.3284 18.8412 13.6976 18.7583 14.0571C18.6754 14.4165 18.3999 14.7094 18.0254 14.8375L8.51044 18.1338V18.1363ZM3.77571 13.6041L8.54789 17.9836L17.9772 14.7168C18.3062 14.6036 18.547 14.3476 18.6192 14.03C18.6941 13.7149 18.5898 13.3899 18.341 13.161L8.98926 4.57917C8.74049 4.35022 8.38739 4.25667 8.04499 4.3256C7.7026 4.39454 7.4244 4.6161 7.30135 4.9189L3.77571 13.6066V13.6041ZM8.69234 17.3583L4.45516 13.4687L4.47121 13.4293L7.84972 5.10845C7.90322 4.97552 8.02092 4.88197 8.17072 4.85243C8.32052 4.82289 8.47032 4.86228 8.57732 4.96321L17.9264 13.545C18.0361 13.6435 18.0789 13.7813 18.0468 13.9192C18.0147 14.0571 17.913 14.1654 17.7713 14.2146L8.69502 17.3608L8.69234 17.3583ZM4.62101 13.4342L8.72979 17.2057L17.7204 14.0891C17.8167 14.0546 17.8863 13.9832 17.9077 13.8897C17.9291 13.7961 17.8997 13.7026 17.8274 13.6361L8.47567 5.0543C8.40077 4.98783 8.30179 4.95829 8.20014 4.98044C8.09849 5.00014 8.01824 5.06414 7.98347 5.15277L4.62101 13.4342Z" fill="#A7AAB1" stroke="#A7AAB1" stroke-width="0.460236" stroke-miterlimit="10"/>
<path d="M1.88467 21.3256C1.6145 21.3256 1.347 21.232 1.14103 21.0425L0.469606 20.4246C0.0576575 20.0479 0.0576575 19.4325 0.469606 19.0533L1.5075 18.0957L3.67157 20.0824L2.63367 21.04C2.4277 21.2296 2.15752 21.3256 1.88735 21.3256H1.88467ZM1.5075 19.046L0.983204 19.5285C0.857479 19.6466 0.857479 19.8362 0.983204 19.9519L1.65463 20.5698C1.78303 20.6855 1.989 20.6855 2.11472 20.5698L2.63902 20.0873L1.50483 19.046H1.5075Z" fill="#A7AAB1" stroke="#A7AAB1" stroke-width="0.460236" stroke-miterlimit="10"/>
<path d="M1.88454 21.3938C1.58495 21.3938 1.3014 21.2855 1.09007 21.091L0.418651 20.4731C-0.0200476 20.0694 -0.0227226 19.4121 0.418651 19.0083L1.50737 18.0039L3.77309 20.0841L2.68437 21.0885C2.47304 21.2855 2.18949 21.3913 1.88722 21.3913L1.88454 21.3938ZM1.5047 18.191L0.517625 19.1019C0.135102 19.4539 0.135102 20.0275 0.517625 20.3795L1.18905 20.9974C1.37362 21.1673 1.61972 21.2609 1.88187 21.2609C2.14402 21.2609 2.39279 21.1673 2.57737 20.995L3.56444 20.0841L1.50202 18.191H1.5047ZM1.88454 20.7242C1.78289 20.7242 1.68125 20.6897 1.60367 20.6183L0.932248 20.0004C0.857349 19.9315 0.814549 19.8404 0.814549 19.7419C0.814549 19.6435 0.854674 19.5524 0.929573 19.4834L1.5047 18.9542L2.73787 20.0866L2.16274 20.6159C2.08517 20.6873 1.98352 20.7242 1.88187 20.7242H1.88454ZM1.50737 19.1388L1.0339 19.577C0.985748 19.6213 0.958998 19.6804 0.958998 19.7419C0.958998 19.8035 0.985748 19.8626 1.0339 19.9069L1.70532 20.5248C1.80429 20.6159 1.96747 20.6159 2.06644 20.5248L2.53992 20.0866L1.50737 19.1388Z" fill="#A7AAB1" stroke="#A7AAB1" stroke-width="0.460236" stroke-miterlimit="10"/>
<path d="M9.00805 23.4412C8.76195 23.4412 8.5319 23.3526 8.3607 23.1951L5.23364 20.3246L7.45923 18.2715L10.5863 21.1419C10.7602 21.3019 10.8565 21.5137 10.8565 21.7401C10.8565 21.9666 10.7628 22.1783 10.589 22.3384L9.66075 23.1951C9.48687 23.3551 9.25683 23.4437 9.01073 23.4437L9.00805 23.4412ZM6.26084 20.3222L8.8743 22.7199C8.90908 22.7519 8.95723 22.7716 9.00805 22.7716C9.05888 22.7716 9.10703 22.7544 9.1418 22.7199L10.07 21.8632C10.1048 21.8312 10.1262 21.7869 10.1262 21.7401C10.1262 21.6934 10.1075 21.6491 10.07 21.6171L7.45656 19.2193L6.25816 20.3246L6.26084 20.3222Z" fill="#A7AAB1" stroke="#A7AAB1" stroke-width="0.460236" stroke-miterlimit="10"/>
<path d="M9.00814 23.5095C8.74331 23.5095 8.49722 23.4159 8.30997 23.2436L5.13208 20.3264L7.45932 18.1797L10.6372 21.0969C10.8245 21.2692 10.9288 21.4982 10.9288 21.7394C10.9288 21.9832 10.8271 22.2121 10.6399 22.3844L9.71166 23.2411C9.52441 23.4135 9.27564 23.5095 9.01349 23.5095H9.00814ZM5.3327 20.3264L8.40894 23.15C8.56944 23.2978 8.78076 23.3765 9.00814 23.3765C9.23551 23.3765 9.44684 23.2953 9.60734 23.1476L10.5356 22.2909C10.6961 22.1432 10.7843 21.9487 10.7817 21.7394C10.7817 21.5302 10.6934 21.3357 10.5329 21.188L7.45665 18.3643L5.33003 20.3264H5.3327ZM9.00814 22.8399C8.93859 22.8399 8.87171 22.8152 8.82356 22.7685L6.16195 20.3239L7.45932 19.125L10.1236 21.5696C10.1718 21.6139 10.2012 21.6754 10.2012 21.7394C10.2012 21.8034 10.1744 21.865 10.1236 21.9093L9.19539 22.766C9.14724 22.8128 9.08036 22.8374 9.01081 22.8374L9.00814 22.8399ZM6.3599 20.3239L8.92254 22.6749C8.96801 22.7168 9.04559 22.7168 9.09106 22.6749L10.0193 21.8182C10.0407 21.7985 10.0541 21.769 10.0541 21.7419C10.0541 21.7124 10.0407 21.6853 10.0193 21.6656L7.45665 19.3146L6.3599 20.3264V20.3239Z" fill="#A7AAB1" stroke="#A7AAB1" stroke-width="0.460236" stroke-miterlimit="10"/>
<path d="M19.093 3.63477L15.7974 6.67508" stroke="#A7AAB1" stroke-width="0.460236" stroke-miterlimit="10"/>
<path d="M19.0448 3.58706L15.7488 6.62891L15.8492 6.72104L19.1452 3.67919L19.0448 3.58706Z" fill="#A7AAB1" stroke="#A7AAB1" stroke-width="0.460236" stroke-miterlimit="10"/>
<path d="M18.9484 3.50112L15.6523 6.54297L15.944 6.81067L19.2401 3.76882L18.9484 3.50112Z" fill="#A7AAB1" stroke="#A7AAB1" stroke-width="0.460236" stroke-miterlimit="10"/>
<path d="M15.9445 6.90199L15.5513 6.54011L18.9485 3.40625L19.3417 3.76813L15.9445 6.90199ZM15.7519 6.54011L15.9445 6.7149L19.1384 3.76813L18.9458 3.59335L15.7519 6.54011Z" fill="#A7AAB1" stroke="#A7AAB1" stroke-width="0.460236" stroke-miterlimit="10"/>
<path d="M19.2081 3.54148C19.2616 3.5981 19.2562 3.68426 19.1974 3.73842L15.7974 6.87721C15.7386 6.93137 15.6423 6.93137 15.5834 6.87721C15.5246 6.82305 15.5246 6.73442 15.5834 6.68026L18.9887 3.53902C19.0502 3.4824 19.1519 3.48486 19.2107 3.54394L19.2081 3.54148Z" fill="#A7AAB1" stroke="#A7AAB1" stroke-width="0.460236" stroke-miterlimit="10"/>
<path d="M15.6902 6.98205C15.6313 6.98205 15.5752 6.9599 15.5324 6.92297C15.4441 6.84173 15.4441 6.71126 15.5297 6.63248L18.9349 3.49123C18.9777 3.45184 19.0393 3.42969 19.1008 3.42969C19.1623 3.42969 19.2212 3.45677 19.2613 3.49862C19.3389 3.57986 19.3335 3.70541 19.2479 3.78419L15.848 6.92297C15.8052 6.96236 15.7517 6.98205 15.6902 6.98205ZM19.0928 3.56016C19.0714 3.56016 19.05 3.56755 19.0339 3.58232L15.6287 6.72356C15.5966 6.75311 15.5992 6.79742 15.6287 6.82696C15.6474 6.84173 15.6661 6.85158 15.6875 6.85158C15.7062 6.85404 15.7276 6.84419 15.7437 6.82942L19.1436 3.69064C19.1757 3.6611 19.1784 3.61432 19.1516 3.58478C19.1356 3.57001 19.1169 3.56016 19.0928 3.56016Z" fill="#A7AAB1" stroke="#A7AAB1" stroke-width="0.460236" stroke-miterlimit="10"/>
<path d="M15.6902 7.10582C15.5966 7.10582 15.5083 7.07135 15.4388 7.01227L15.4334 7.00734C15.3666 6.9458 15.3291 6.8621 15.3291 6.77594C15.3291 6.68731 15.3666 6.60607 15.4334 6.54207L18.8387 3.40082C18.9082 3.33681 19.0045 3.30235 19.1035 3.30481C19.2025 3.30727 19.2961 3.34666 19.363 3.41559C19.4887 3.54607 19.4807 3.74793 19.3443 3.87348L15.9443 7.01227C15.8775 7.07381 15.7865 7.10828 15.6929 7.10828L15.6902 7.10582Z" fill="#A7AAB1" stroke="#A7AAB1" stroke-width="0.460236" stroke-miterlimit="10"/>
<path d="M15.6904 7.17233C15.5781 7.17233 15.4711 7.13294 15.3908 7.05908C15.3052 6.98031 15.2598 6.88183 15.2598 6.77598C15.2598 6.67012 15.3026 6.57165 15.3855 6.49533L18.7907 3.35409C18.8737 3.27777 18.9914 3.23592 19.1091 3.23838C19.2268 3.24085 19.3391 3.29008 19.4194 3.37132C19.5718 3.52888 19.5611 3.76767 19.398 3.91784L15.9981 7.05662C15.9178 7.13048 15.8108 7.17233 15.6958 7.17233H15.6904ZM19.093 3.36886C19.0181 3.36886 18.9432 3.39594 18.8897 3.44764L15.4845 6.58888C15.431 6.63812 15.4015 6.70459 15.4015 6.77598C15.4015 6.84491 15.431 6.91138 15.4845 6.96061C15.5433 7.01231 15.6129 7.03939 15.6878 7.03939C15.7653 7.03939 15.8349 7.01231 15.8884 6.96307L19.2883 3.82429C19.398 3.72336 19.406 3.56088 19.3043 3.45748C19.2508 3.40332 19.1759 3.37132 19.0984 3.36886C19.0984 3.36886 19.093 3.36886 19.0903 3.36886H19.093Z" fill="#A7AAB1"/>
<path d="M15.6878 7.03939C15.6129 7.03939 15.5433 7.01231 15.4845 6.96061C15.431 6.91138 15.4015 6.84491 15.4015 6.77598C15.4015 6.70459 15.431 6.63812 15.4845 6.58888L18.8897 3.44764C18.9432 3.39594 19.0181 3.36886 19.093 3.36886H19.0903C19.093 3.36886 19.0984 3.36886 19.0984 3.36886C19.1759 3.37132 19.2508 3.40332 19.3043 3.45748C19.406 3.56088 19.398 3.72336 19.2883 3.82429L15.8884 6.96307C15.8349 7.01231 15.7653 7.03939 15.6878 7.03939ZM15.6878 7.03939V7.10586M15.6904 7.17233C15.5781 7.17233 15.4711 7.13294 15.3908 7.05908C15.3052 6.98031 15.2598 6.88184 15.2598 6.77598C15.2598 6.67012 15.3026 6.57165 15.3855 6.49533L18.7907 3.35409C18.8737 3.27777 18.9914 3.23592 19.1091 3.23838C19.2268 3.24085 19.3391 3.29008 19.4194 3.37132C19.5718 3.52888 19.5611 3.76767 19.398 3.91784L15.9981 7.05662C15.9178 7.13048 15.8108 7.17233 15.6958 7.17233H15.6904Z" stroke="#A7AAB1" stroke-width="0.460236" stroke-miterlimit="10"/>
<path d="M11.9399 0.396484L11.9449 4.68967" stroke="#A7AAB1" stroke-width="0.460236" stroke-miterlimit="10"/>
<path d="M12.0104 0.396286L11.8687 0.396484L11.8747 4.69231L12.0164 4.69211L12.0104 0.396286Z" fill="#A7AAB1" stroke="#A7AAB1" stroke-width="0.460236" stroke-miterlimit="10"/>
<path d="M12.1468 0.395955L11.7349 0.396484L11.7414 4.69231L12.1533 4.69178L12.1468 0.395955Z" fill="#A7AAB1" stroke="#A7AAB1" stroke-width="0.460236" stroke-miterlimit="10"/>
<path d="M11.6672 4.75638L11.6619 0.330078H12.2183L12.2236 4.75638H11.6672ZM11.8036 0.463015L11.809 4.6259H12.0792L12.0738 0.463015H11.8036Z" fill="#A7AAB1" stroke="#A7AAB1" stroke-width="0.460236" stroke-miterlimit="10"/>
<path d="M12.0925 0.399927L12.0979 4.69083V4.83115V4.83361C12.0979 4.90993 12.031 4.97147 11.9481 4.97147H11.9454C11.8625 4.97147 11.7929 4.90993 11.7929 4.83361V4.68837L11.7876 0.392541C11.7876 0.311302 11.8598 0.247296 11.9508 0.252219C12.0337 0.257143 12.0952 0.323611 12.0952 0.397465L12.0925 0.399927Z" fill="#A7AAB1" stroke="#A7AAB1" stroke-width="0.460236" stroke-miterlimit="10"/>
<path d="M11.9478 5.04185C11.8863 5.04185 11.8301 5.01969 11.7873 4.98277C11.7445 4.94338 11.7231 4.89414 11.7204 4.83752L11.7151 0.396449C11.7151 0.339828 11.7418 0.285669 11.7846 0.24628C11.8301 0.206891 11.889 0.187197 11.9532 0.189659C12.0709 0.197044 12.1645 0.28813 12.1645 0.401373L12.1698 4.8326C12.1698 4.89168 12.1458 4.94338 12.1056 4.9803C12.0628 5.01969 12.0067 5.03939 11.9478 5.03939V5.04185ZM11.9398 0.320134C11.9184 0.320134 11.8997 0.327519 11.8836 0.339828C11.8676 0.354599 11.8569 0.374293 11.8569 0.393987L11.8622 4.83013C11.8622 4.85229 11.8702 4.87199 11.8863 4.88429C11.9023 4.89907 11.9211 4.90645 11.9425 4.90645C11.9665 4.90645 11.9879 4.89907 12.0013 4.88429C12.0174 4.86952 12.0254 4.85229 12.0254 4.8326L12.02 0.396449C12.02 0.354599 11.9853 0.317672 11.9425 0.31521C11.9425 0.31521 11.9398 0.31521 11.9371 0.31521L11.9398 0.320134Z" fill="#A7AAB1" stroke="#A7AAB1" stroke-width="0.460236" stroke-miterlimit="10"/>
<path d="M11.9478 5.16432C11.8488 5.16432 11.7605 5.12985 11.6936 5.06831C11.6268 5.00676 11.5866 4.92306 11.5866 4.83444V4.68919L11.5813 0.393368C11.5813 0.302282 11.6214 0.213657 11.6936 0.152112C11.7659 0.0905676 11.8622 0.0561025 11.9611 0.0634879C12.1511 0.073335 12.2982 0.221042 12.2982 0.398291L12.3035 4.83444C12.3035 4.92306 12.2661 5.0043 12.1992 5.06831C12.1323 5.12985 12.0414 5.16432 11.9478 5.16432Z" fill="#A7AAB1" stroke="#A7AAB1" stroke-width="0.460236" stroke-miterlimit="10"/>
<path d="M11.9477 5.23172C11.8327 5.23172 11.723 5.19233 11.6428 5.11848C11.5599 5.04462 11.5171 4.94369 11.5171 4.83783L11.5117 0.39676C11.5117 0.288442 11.5599 0.182585 11.6455 0.108731C11.7311 0.0348771 11.8488 -0.00451158 11.9665 0.000412003C12.1938 0.012721 12.3704 0.18997 12.3704 0.401684L12.3757 4.83783C12.3757 4.94369 12.3303 5.04216 12.25 5.11848C12.1698 5.19233 12.0628 5.23418 11.9477 5.23418V5.23172ZM11.9397 0.130887C11.8675 0.130887 11.7953 0.157967 11.7418 0.202279C11.6856 0.251515 11.6508 0.322907 11.6508 0.394299L11.6562 4.83537C11.6562 4.90676 11.6856 4.97323 11.7418 5.02247C11.7953 5.0717 11.8675 5.09878 11.9477 5.09878C12.0253 5.09878 12.0949 5.0717 12.151 5.02247C12.2045 4.97323 12.234 4.90676 12.234 4.83537L12.2286 0.399222C12.2286 0.256438 12.1082 0.138272 11.9584 0.128425C11.9531 0.128425 11.9477 0.128425 11.9424 0.128425L11.9397 0.130887Z" fill="#A7AAB1" stroke="#A7AAB1" stroke-width="0.460236" stroke-miterlimit="10"/>
<path d="M23.1885 10.2111C23.1885 10.2481 23.1698 10.2825 23.143 10.3072C23.1163 10.3318 23.0762 10.349 23.036 10.349L18.3682 10.3539H18.2157H18.213C18.1301 10.3539 18.0632 10.2924 18.0632 10.2161C18.0632 10.1373 18.1301 10.0733 18.213 10.0733H18.3709L23.0334 10.0684C23.119 10.0684 23.1939 10.1324 23.1912 10.2111H23.1885Z" fill="#A7AAB1" stroke="#A7AAB1" stroke-width="0.460236" stroke-miterlimit="10"/>
<path d="M18.2127 10.4205C18.1485 10.4205 18.095 10.3983 18.0522 10.3614C18.0094 10.322 17.988 10.2703 17.988 10.2161C17.988 10.1595 18.0121 10.1078 18.0522 10.0684C18.095 10.029 18.1485 10.0069 18.2101 10.0069L23.0304 10.002C23.0919 10.002 23.1534 10.0266 23.1962 10.066C23.239 10.1053 23.2604 10.157 23.2604 10.2112C23.2604 10.2654 23.2364 10.3146 23.1962 10.354C23.1534 10.3934 23.0973 10.4155 23.0384 10.4155L18.2181 10.4205H18.2127ZM23.0277 10.1324L18.2127 10.1374C18.1887 10.1374 18.1673 10.1447 18.1539 10.1595C18.1378 10.1743 18.1298 10.1915 18.1298 10.2112C18.1298 10.2334 18.1378 10.2531 18.1539 10.2654C18.1699 10.2801 18.1887 10.2875 18.2101 10.2875L23.0357 10.2826C23.0571 10.2826 23.0785 10.2752 23.0946 10.2604C23.1106 10.2457 23.1187 10.2284 23.1187 10.2087C23.1187 10.189 23.1106 10.1718 23.0946 10.157C23.0785 10.1423 23.0545 10.1324 23.0304 10.1324H23.0277Z" fill="#A7AAB1" stroke="#A7AAB1" stroke-width="0.460236" stroke-miterlimit="10"/>
<path d="M18.21 10.5446C18.0147 10.5446 17.8542 10.3969 17.8542 10.2147C17.8542 10.1236 17.8917 10.0424 17.9586 9.97839C18.0254 9.91685 18.1164 9.87992 18.2127 9.87992H18.3705L23.033 9.875C23.132 9.875 23.2256 9.91193 23.2952 9.97593C23.3621 10.0399 23.3995 10.1236 23.3995 10.2123C23.3995 10.2984 23.3594 10.3797 23.2952 10.4388C23.2283 10.5003 23.1374 10.5348 23.0411 10.5348L18.2154 10.5397L18.21 10.5446Z" fill="#A7AAB1" stroke="#A7AAB1" stroke-width="0.460236" stroke-miterlimit="10"/>
<path d="M18.2102 10.6096C17.9748 10.6096 17.7822 10.4324 17.7822 10.2157C17.7822 10.1099 17.825 10.0089 17.9053 9.93508C17.9855 9.85877 18.0952 9.81938 18.2075 9.81938L23.0279 9.81445C23.1456 9.81445 23.2579 9.85877 23.3409 9.93508C23.4238 10.0114 23.4666 10.1123 23.4639 10.2182C23.4639 10.3216 23.4184 10.4176 23.3382 10.4914C23.2579 10.5653 23.1483 10.6072 23.0332 10.6072L18.2075 10.6121L18.2102 10.6096ZM23.0306 9.94247L18.2102 9.94739C18.1326 9.94739 18.0631 9.97447 18.0069 10.0262C17.9534 10.0779 17.924 10.1419 17.924 10.2157C17.924 10.361 18.0524 10.4791 18.2102 10.4791L23.0359 10.4742C23.1135 10.4742 23.1857 10.4471 23.2392 10.3954C23.2927 10.3462 23.3221 10.2822 23.3221 10.2133C23.3221 10.1443 23.2954 10.0754 23.2392 10.0262C23.183 9.97447 23.1055 9.94493 23.0279 9.94493L23.0306 9.94247Z" fill="#A7AAB1" stroke="#A7AAB1" stroke-width="0.460236" stroke-miterlimit="10"/>
</g>
<defs>
<clipPath id="clip0_12728_8933">
<rect width="24" height="24" fill="white"/>
</clipPath>
</defs>
</svg>
